<?xml version="1.0" encoding="UTF-8" standalone="no"?>
<!DOCTYPE svg PUBLIC "-//W3C//DTD SVG 1.1//EN"
 "http://www.w3.org/Graphics/SVG/1.1/DTD/svg11.dtd">
<!-- Generated by graphviz version 11.0.0 (0)
 -->
<!-- Title: g Pages: 1 -->
<svg width="316pt" height="58pt"
 viewBox="0.00 0.00 316.00 58.00" xmlns="http://www.w3.org/2000/svg" xmlns:xlink="http://www.w3.org/1999/xlink">
<g id="graph0" class="graph" transform="scale(1 1) rotate(0) translate(4 54)">
<title>g</title>
<!-- entry_3 -->
<g id="node1" class="node">
<title>entry_3</title>
<polygon fill="yellow" stroke="black" points="0,-0.5 0,-49.5 57.25,-49.5 57.25,-0.5 0,-0.5"/>
<text text-anchor="middle" x="28.62" y="-32.2" font-family="Times,serif" font-size="14.00">val : 13</text>
<polyline fill="none" stroke="black" points="0,-25 57.25,-25"/>
<text text-anchor="middle" x="28.62" y="-7.7" font-family="Times,serif" font-size="14.00">13</text>
</g>
<!-- entry_2 -->
<g id="node2" class="node">
<title>entry_2</title>
<polygon fill="yellow" stroke="black" points="75.25,-0.5 75.25,-49.5 140,-49.5 140,-0.5 75.25,-0.5"/>
<text text-anchor="middle" x="107.62" y="-32.2" font-family="Times,serif" font-size="14.00">val : true</text>
<polyline fill="none" stroke="black" points="75.25,-25 140,-25"/>
<text text-anchor="middle" x="107.62" y="-7.7" font-family="Times,serif" font-size="14.00">1</text>
</g>
<!-- entry_1 -->
<g id="node3" class="node">
<title>entry_1</title>
<polygon fill="yellow" stroke="black" points="158.12,-0.5 158.12,-49.5 225.12,-49.5 225.12,-0.5 158.12,-0.5"/>
<text text-anchor="middle" x="191.62" y="-32.2" font-family="Times,serif" font-size="14.00">val : char</text>
<polyline fill="none" stroke="black" points="158.12,-25 225.12,-25"/>
<text text-anchor="middle" x="191.62" y="-7.7" font-family="Times,serif" font-size="14.00">97</text>
</g>
<!-- entry_0 -->
<g id="node4" class="node">
<title>entry_0</title>
<polygon fill="yellow" stroke="black" points="243.25,-0.5 243.25,-49.5 308,-49.5 308,-0.5 243.25,-0.5"/>
<text text-anchor="middle" x="275.62" y="-32.2" font-family="Times,serif" font-size="14.00">val : unit</text>
<polyline fill="none" stroke="black" points="243.25,-25 308,-25"/>
<text text-anchor="middle" x="275.62" y="-7.7" font-family="Times,serif" font-size="14.00">0</text>
</g>
</g>
</svg>
