<?xml version="1.0" encoding="UTF-8" standalone="no"?>
<!DOCTYPE svg PUBLIC "-//W3C//DTD SVG 1.1//EN"
 "http://www.w3.org/Graphics/SVG/1.1/DTD/svg11.dtd">
<!-- Generated by graphviz version 2.44.1 (0)
 -->
<!-- Title: g Pages: 1 -->
<svg width="1292pt" height="456pt"
 viewBox="0.00 0.00 1292.00 456.00" xmlns="http://www.w3.org/2000/svg" xmlns:xlink="http://www.w3.org/1999/xlink">
<g id="graph0" class="graph" transform="scale(1 1) rotate(0) translate(4 452)">
<title>g</title>
<polygon fill="white" stroke="transparent" points="-4,4 -4,-452 1288,-452 1288,4 -4,4"/>
<!-- entry_0 -->
<g id="node1" class="node">
<title>entry_0</title>
<polygon fill="yellow" stroke="black" points="0,-401.5 0,-447.5 128,-447.5 128,-401.5 0,-401.5"/>
<text text-anchor="middle" x="64" y="-432.3" font-family="Times,serif" font-size="14.00">val : a = A (1,2)</text>
<polyline fill="none" stroke="black" points="0,-424.5 128,-424.5 "/>
<text text-anchor="middle" x="64" y="-409.3" font-family="Times,serif" font-size="14.00">.</text>
</g>
<!-- p10 -->
<g id="node11" class="node">
<title>p10</title>
<path fill="lightblue" stroke="black" d="M92.5,-189.5C92.5,-189.5 133.5,-189.5 133.5,-189.5 139.5,-189.5 145.5,-195.5 145.5,-201.5 145.5,-201.5 145.5,-246.5 145.5,-246.5 145.5,-252.5 139.5,-258.5 133.5,-258.5 133.5,-258.5 92.5,-258.5 92.5,-258.5 86.5,-258.5 80.5,-252.5 80.5,-246.5 80.5,-246.5 80.5,-201.5 80.5,-201.5 80.5,-195.5 86.5,-189.5 92.5,-189.5"/>
<text text-anchor="middle" x="113" y="-243.3" font-family="Times,serif" font-size="14.00">Tag : 0</text>
<polyline fill="none" stroke="black" points="80.5,-235.5 145.5,-235.5 "/>
<text text-anchor="middle" x="113" y="-220.3" font-family="Times,serif" font-size="14.00">1</text>
<polyline fill="none" stroke="black" points="80.5,-212.5 145.5,-212.5 "/>
<text text-anchor="middle" x="113" y="-197.3" font-family="Times,serif" font-size="14.00">2</text>
</g>
<!-- entry_0&#45;&gt;p10 -->
<g id="edge1" class="edge">
<title>entry_0&#45;&gt;p10:head</title>
<path fill="none" stroke="black" d="M56.8,-401.15C43.54,-356.53 20.78,-259.7 68.81,-248.14"/>
<polygon fill="black" stroke="black" points="69.45,-251.59 79,-247 68.67,-244.63 69.45,-251.59"/>
</g>
<!-- entry_1 -->
<g id="node2" class="node">
<title>entry_1</title>
<polygon fill="yellow" stroke="black" points="264,-401.5 264,-447.5 404,-447.5 404,-401.5 264,-401.5"/>
<text text-anchor="middle" x="334" y="-432.3" font-family="Times,serif" font-size="14.00">val : b = B ((3,4))</text>
<polyline fill="none" stroke="black" points="264,-424.5 404,-424.5 "/>
<text text-anchor="middle" x="334" y="-409.3" font-family="Times,serif" font-size="14.00">.</text>
</g>
<!-- p3 -->
<g id="node12" class="node">
<title>p3</title>
<path fill="lightblue" stroke="black" d="M403.5,-106.5C403.5,-106.5 444.5,-106.5 444.5,-106.5 450.5,-106.5 456.5,-112.5 456.5,-118.5 456.5,-118.5 456.5,-140.5 456.5,-140.5 456.5,-146.5 450.5,-152.5 444.5,-152.5 444.5,-152.5 403.5,-152.5 403.5,-152.5 397.5,-152.5 391.5,-146.5 391.5,-140.5 391.5,-140.5 391.5,-118.5 391.5,-118.5 391.5,-112.5 397.5,-106.5 403.5,-106.5"/>
<text text-anchor="middle" x="424" y="-137.3" font-family="Times,serif" font-size="14.00">Tag : 1</text>
<polyline fill="none" stroke="black" points="391.5,-129.5 456.5,-129.5 "/>
<text text-anchor="middle" x="424" y="-114.3" font-family="Times,serif" font-size="14.00">.</text>
</g>
<!-- entry_1&#45;&gt;p3 -->
<g id="edge2" class="edge">
<title>entry_1&#45;&gt;p3:head</title>
<path fill="none" stroke="black" d="M329.02,-401.37C315.68,-337.1 286.22,-154.2 379.91,-142.13"/>
<polygon fill="black" stroke="black" points="380.24,-145.61 390,-141.5 379.8,-138.63 380.24,-145.61"/>
</g>
<!-- entry_2 -->
<g id="node3" class="node">
<title>entry_2</title>
<polygon fill="yellow" stroke="black" points="570,-401.5 570,-447.5 696,-447.5 696,-401.5 570,-401.5"/>
<text text-anchor="middle" x="633" y="-432.3" font-family="Times,serif" font-size="14.00">val : c = C 42.0</text>
<polyline fill="none" stroke="black" points="570,-424.5 696,-424.5 "/>
<text text-anchor="middle" x="633" y="-409.3" font-family="Times,serif" font-size="14.00">.</text>
</g>
<!-- p5 -->
<g id="node14" class="node">
<title>p5</title>
<path fill="lightblue" stroke="black" d="M528.5,-106.5C528.5,-106.5 569.5,-106.5 569.5,-106.5 575.5,-106.5 581.5,-112.5 581.5,-118.5 581.5,-118.5 581.5,-140.5 581.5,-140.5 581.5,-146.5 575.5,-152.5 569.5,-152.5 569.5,-152.5 528.5,-152.5 528.5,-152.5 522.5,-152.5 516.5,-146.5 516.5,-140.5 516.5,-140.5 516.5,-118.5 516.5,-118.5 516.5,-112.5 522.5,-106.5 528.5,-106.5"/>
<text text-anchor="middle" x="549" y="-137.3" font-family="Times,serif" font-size="14.00">Tag : 2</text>
<polyline fill="none" stroke="black" points="516.5,-129.5 581.5,-129.5 "/>
<text text-anchor="middle" x="549" y="-114.3" font-family="Times,serif" font-size="14.00">.</text>
</g>
<!-- entry_2&#45;&gt;p5 -->
<g id="edge4" class="edge">
<title>entry_2&#45;&gt;p5:head</title>
<path fill="none" stroke="black" d="M638.42,-401.37C653.02,-337.1 686.12,-154.2 593.04,-142.13"/>
<polygon fill="black" stroke="black" points="593.2,-138.63 583,-141.5 592.76,-145.62 593.2,-138.63"/>
</g>
<!-- entry_3 -->
<g id="node4" class="node">
<title>entry_3</title>
<polygon fill="yellow" stroke="black" points="714,-401.5 714,-447.5 806,-447.5 806,-401.5 714,-401.5"/>
<text text-anchor="middle" x="760" y="-432.3" font-family="Times,serif" font-size="14.00">val : d = D</text>
<polyline fill="none" stroke="black" points="714,-424.5 806,-424.5 "/>
<text text-anchor="middle" x="760" y="-409.3" font-family="Times,serif" font-size="14.00">0</text>
</g>
<!-- entry_4 -->
<g id="node5" class="node">
<title>entry_4</title>
<polygon fill="yellow" stroke="black" points="824.5,-401.5 824.5,-447.5 915.5,-447.5 915.5,-401.5 824.5,-401.5"/>
<text text-anchor="middle" x="870" y="-432.3" font-family="Times,serif" font-size="14.00">val : e = E</text>
<polyline fill="none" stroke="black" points="824.5,-424.5 915.5,-424.5 "/>
<text text-anchor="middle" x="870" y="-409.3" font-family="Times,serif" font-size="14.00">1</text>
</g>
<!-- entry_5 -->
<g id="node6" class="node">
<title>entry_5</title>
<polygon fill="yellow" stroke="black" points="146,-401.5 146,-447.5 246,-447.5 246,-401.5 146,-401.5"/>
<text text-anchor="middle" x="196" y="-432.3" font-family="Times,serif" font-size="14.00">val : f = F a</text>
<polyline fill="none" stroke="black" points="146,-424.5 246,-424.5 "/>
<text text-anchor="middle" x="196" y="-409.3" font-family="Times,serif" font-size="14.00">.</text>
</g>
<!-- p9 -->
<g id="node16" class="node">
<title>p9</title>
<path fill="lightblue" stroke="black" d="M140.5,-307C140.5,-307 181.5,-307 181.5,-307 187.5,-307 193.5,-313 193.5,-319 193.5,-319 193.5,-341 193.5,-341 193.5,-347 187.5,-353 181.5,-353 181.5,-353 140.5,-353 140.5,-353 134.5,-353 128.5,-347 128.5,-341 128.5,-341 128.5,-319 128.5,-319 128.5,-313 134.5,-307 140.5,-307"/>
<text text-anchor="middle" x="161" y="-337.8" font-family="Times,serif" font-size="14.00">Tag : 3</text>
<polyline fill="none" stroke="black" points="128.5,-330 193.5,-330 "/>
<text text-anchor="middle" x="161" y="-314.8" font-family="Times,serif" font-size="14.00">.</text>
</g>
<!-- entry_5&#45;&gt;p9 -->
<g id="edge6" class="edge">
<title>entry_5&#45;&gt;p9:head</title>
<path fill="none" stroke="black" d="M178.29,-401.41C171.31,-390.94 164.37,-377.73 161.92,-364.03"/>
<polygon fill="black" stroke="black" points="165.4,-363.64 161,-354 158.43,-364.28 165.4,-363.64"/>
</g>
<!-- entry_6 -->
<g id="node7" class="node">
<title>entry_6</title>
<polygon fill="yellow" stroke="black" points="933.5,-401.5 933.5,-447.5 1032.5,-447.5 1032.5,-401.5 933.5,-401.5"/>
<text text-anchor="middle" x="983" y="-432.3" font-family="Times,serif" font-size="14.00">val : g = `G</text>
<polyline fill="none" stroke="black" points="933.5,-424.5 1032.5,-424.5 "/>
<text text-anchor="middle" x="983" y="-409.3" font-family="Times,serif" font-size="14.00">71</text>
</g>
<!-- entry_7 -->
<g id="node8" class="node">
<title>entry_7</title>
<polygon fill="yellow" stroke="black" points="1050.5,-401.5 1050.5,-447.5 1163.5,-447.5 1163.5,-401.5 1050.5,-401.5"/>
<text text-anchor="middle" x="1107" y="-432.3" font-family="Times,serif" font-size="14.00">val : h = `H 5</text>
<polyline fill="none" stroke="black" points="1050.5,-424.5 1163.5,-424.5 "/>
<text text-anchor="middle" x="1107" y="-409.3" font-family="Times,serif" font-size="14.00">.</text>
</g>
<!-- p8 -->
<g id="node17" class="node">
<title>p8</title>
<path fill="lightblue" stroke="black" d="M1086.5,-295.5C1086.5,-295.5 1127.5,-295.5 1127.5,-295.5 1133.5,-295.5 1139.5,-301.5 1139.5,-307.5 1139.5,-307.5 1139.5,-352.5 1139.5,-352.5 1139.5,-358.5 1133.5,-364.5 1127.5,-364.5 1127.5,-364.5 1086.5,-364.5 1086.5,-364.5 1080.5,-364.5 1074.5,-358.5 1074.5,-352.5 1074.5,-352.5 1074.5,-307.5 1074.5,-307.5 1074.5,-301.5 1080.5,-295.5 1086.5,-295.5"/>
<text text-anchor="middle" x="1107" y="-349.3" font-family="Times,serif" font-size="14.00">Tag : 0</text>
<polyline fill="none" stroke="black" points="1074.5,-341.5 1139.5,-341.5 "/>
<text text-anchor="middle" x="1107" y="-326.3" font-family="Times,serif" font-size="14.00">72</text>
<polyline fill="none" stroke="black" points="1074.5,-318.5 1139.5,-318.5 "/>
<text text-anchor="middle" x="1107" y="-303.3" font-family="Times,serif" font-size="14.00">5</text>
</g>
<!-- entry_7&#45;&gt;p8 -->
<g id="edge8" class="edge">
<title>entry_7&#45;&gt;p8:head</title>
<path fill="none" stroke="black" d="M1107,-401.28C1107,-393.34 1107,-384.11 1107,-375.06"/>
<polygon fill="black" stroke="black" points="1110.5,-375 1107,-365 1103.5,-375 1110.5,-375"/>
</g>
<!-- entry_8 -->
<g id="node9" class="node">
<title>entry_8</title>
<polygon fill="yellow" stroke="black" points="1182,-401.5 1182,-447.5 1284,-447.5 1284,-401.5 1182,-401.5"/>
<text text-anchor="middle" x="1233" y="-432.3" font-family="Times,serif" font-size="14.00">val : i = `I d</text>
<polyline fill="none" stroke="black" points="1182,-424.5 1284,-424.5 "/>
<text text-anchor="middle" x="1233" y="-409.3" font-family="Times,serif" font-size="14.00">.</text>
</g>
<!-- p7 -->
<g id="node18" class="node">
<title>p7</title>
<path fill="lightblue" stroke="black" d="M1212.5,-295.5C1212.5,-295.5 1253.5,-295.5 1253.5,-295.5 1259.5,-295.5 1265.5,-301.5 1265.5,-307.5 1265.5,-307.5 1265.5,-352.5 1265.5,-352.5 1265.5,-358.5 1259.5,-364.5 1253.5,-364.5 1253.5,-364.5 1212.5,-364.5 1212.5,-364.5 1206.5,-364.5 1200.5,-358.5 1200.5,-352.5 1200.5,-352.5 1200.5,-307.5 1200.5,-307.5 1200.5,-301.5 1206.5,-295.5 1212.5,-295.5"/>
<text text-anchor="middle" x="1233" y="-349.3" font-family="Times,serif" font-size="14.00">Tag : 0</text>
<polyline fill="none" stroke="black" points="1200.5,-341.5 1265.5,-341.5 "/>
<text text-anchor="middle" x="1233" y="-326.3" font-family="Times,serif" font-size="14.00">73</text>
<polyline fill="none" stroke="black" points="1200.5,-318.5 1265.5,-318.5 "/>
<text text-anchor="middle" x="1233" y="-303.3" font-family="Times,serif" font-size="14.00">0</text>
</g>
<!-- entry_8&#45;&gt;p7 -->
<g id="edge9" class="edge">
<title>entry_8&#45;&gt;p7:head</title>
<path fill="none" stroke="black" d="M1233,-401.28C1233,-393.34 1233,-384.11 1233,-375.06"/>
<polygon fill="black" stroke="black" points="1236.5,-375 1233,-365 1229.5,-375 1236.5,-375"/>
</g>
<!-- entry_9 -->
<g id="node10" class="node">
<title>entry_9</title>
<polygon fill="yellow" stroke="black" points="422.5,-401.5 422.5,-447.5 551.5,-447.5 551.5,-401.5 422.5,-401.5"/>
<text text-anchor="middle" x="487" y="-432.3" font-family="Times,serif" font-size="14.00">val : j = `J (b, c)</text>
<polyline fill="none" stroke="black" points="422.5,-424.5 551.5,-424.5 "/>
<text text-anchor="middle" x="487" y="-409.3" font-family="Times,serif" font-size="14.00">.</text>
</g>
<!-- p1 -->
<g id="node19" class="node">
<title>p1</title>
<path fill="lightblue" stroke="black" d="M466.5,-295.5C466.5,-295.5 507.5,-295.5 507.5,-295.5 513.5,-295.5 519.5,-301.5 519.5,-307.5 519.5,-307.5 519.5,-352.5 519.5,-352.5 519.5,-358.5 513.5,-364.5 507.5,-364.5 507.5,-364.5 466.5,-364.5 466.5,-364.5 460.5,-364.5 454.5,-358.5 454.5,-352.5 454.5,-352.5 454.5,-307.5 454.5,-307.5 454.5,-301.5 460.5,-295.5 466.5,-295.5"/>
<text text-anchor="middle" x="487" y="-349.3" font-family="Times,serif" font-size="14.00">Tag : 0</text>
<polyline fill="none" stroke="black" points="454.5,-341.5 519.5,-341.5 "/>
<text text-anchor="middle" x="487" y="-326.3" font-family="Times,serif" font-size="14.00">74</text>
<polyline fill="none" stroke="black" points="454.5,-318.5 519.5,-318.5 "/>
<text text-anchor="middle" x="487" y="-303.3" font-family="Times,serif" font-size="14.00">.</text>
</g>
<!-- entry_9&#45;&gt;p1 -->
<g id="edge10" class="edge">
<title>entry_9&#45;&gt;p1:head</title>
<path fill="none" stroke="black" d="M487,-401.28C487,-393.34 487,-384.11 487,-375.06"/>
<polygon fill="black" stroke="black" points="490.5,-375 487,-365 483.5,-375 490.5,-375"/>
</g>
<!-- p4 -->
<g id="node13" class="node">
<title>p4</title>
<path fill="lightblue" stroke="black" d="M403.5,-0.5C403.5,-0.5 444.5,-0.5 444.5,-0.5 450.5,-0.5 456.5,-6.5 456.5,-12.5 456.5,-12.5 456.5,-57.5 456.5,-57.5 456.5,-63.5 450.5,-69.5 444.5,-69.5 444.5,-69.5 403.5,-69.5 403.5,-69.5 397.5,-69.5 391.5,-63.5 391.5,-57.5 391.5,-57.5 391.5,-12.5 391.5,-12.5 391.5,-6.5 397.5,-0.5 403.5,-0.5"/>
<text text-anchor="middle" x="424" y="-54.3" font-family="Times,serif" font-size="14.00">Tag : 0</text>
<polyline fill="none" stroke="black" points="391.5,-46.5 456.5,-46.5 "/>
<text text-anchor="middle" x="424" y="-31.3" font-family="Times,serif" font-size="14.00">3</text>
<polyline fill="none" stroke="black" points="391.5,-23.5 456.5,-23.5 "/>
<text text-anchor="middle" x="424" y="-8.3" font-family="Times,serif" font-size="14.00">4</text>
</g>
<!-- p3&#45;&gt;p4 -->
<g id="edge3" class="edge">
<title>p3:f0&#45;&gt;p4:head</title>
<path fill="none" stroke="black" d="M424,-106C424,-94 424,-88.75 424,-80.12"/>
<polygon fill="black" stroke="black" points="427.5,-80 424,-70 420.5,-80 427.5,-80"/>
</g>
<!-- p6 -->
<g id="node15" class="node">
<title>p6</title>
<path fill="lightblue" stroke="black" d="M514.5,-12C514.5,-12 583.5,-12 583.5,-12 589.5,-12 595.5,-18 595.5,-24 595.5,-24 595.5,-46 595.5,-46 595.5,-52 589.5,-58 583.5,-58 583.5,-58 514.5,-58 514.5,-58 508.5,-58 502.5,-52 502.5,-46 502.5,-46 502.5,-24 502.5,-24 502.5,-18 508.5,-12 514.5,-12"/>
<text text-anchor="middle" x="549" y="-42.8" font-family="Times,serif" font-size="14.00">Tag : 253</text>
<polyline fill="none" stroke="black" points="502.5,-35 595.5,-35 "/>
<text text-anchor="middle" x="549" y="-19.8" font-family="Times,serif" font-size="14.00">42.000000</text>
</g>
<!-- p5&#45;&gt;p6 -->
<g id="edge5" class="edge">
<title>p5:f0&#45;&gt;p6:head</title>
<path fill="none" stroke="black" d="M549,-106C549,-89.03 549,-82.4 549,-69.3"/>
<polygon fill="black" stroke="black" points="552.5,-69 549,-59 545.5,-69 552.5,-69"/>
</g>
<!-- p9&#45;&gt;p10 -->
<g id="edge7" class="edge">
<title>p9:f0&#45;&gt;p10:head</title>
<path fill="none" stroke="black" d="M161,-306C161,-283.26 170.22,-256.89 156.91,-249.21"/>
<polygon fill="black" stroke="black" points="157.52,-245.76 147,-247 156,-252.59 157.52,-245.76"/>
</g>
<!-- p2 -->
<g id="node20" class="node">
<title>p2</title>
<path fill="lightblue" stroke="black" d="M466.5,-189.5C466.5,-189.5 507.5,-189.5 507.5,-189.5 513.5,-189.5 519.5,-195.5 519.5,-201.5 519.5,-201.5 519.5,-246.5 519.5,-246.5 519.5,-252.5 513.5,-258.5 507.5,-258.5 507.5,-258.5 466.5,-258.5 466.5,-258.5 460.5,-258.5 454.5,-252.5 454.5,-246.5 454.5,-246.5 454.5,-201.5 454.5,-201.5 454.5,-195.5 460.5,-189.5 466.5,-189.5"/>
<text text-anchor="middle" x="487" y="-243.3" font-family="Times,serif" font-size="14.00">Tag : 0</text>
<polyline fill="none" stroke="black" points="454.5,-235.5 519.5,-235.5 "/>
<text text-anchor="middle" x="487" y="-220.3" font-family="Times,serif" font-size="14.00">.</text>
<polyline fill="none" stroke="black" points="454.5,-212.5 519.5,-212.5 "/>
<text text-anchor="middle" x="487" y="-197.3" font-family="Times,serif" font-size="14.00">.</text>
</g>
<!-- p1&#45;&gt;p2 -->
<g id="edge11" class="edge">
<title>p1:f1&#45;&gt;p2:head</title>
<path fill="none" stroke="black" d="M487,-295C487,-283 487,-277.75 487,-269.12"/>
<polygon fill="black" stroke="black" points="490.5,-269 487,-259 483.5,-269 490.5,-269"/>
</g>
<!-- p2&#45;&gt;p3 -->
<g id="edge12" class="edge">
<title>p2:f0&#45;&gt;p3:head</title>
<path fill="none" stroke="black" d="M453,-224C421.43,-224 474.94,-163.07 467.3,-145.94"/>
<polygon fill="black" stroke="black" points="468.53,-142.64 458,-141.5 465.52,-148.96 468.53,-142.64"/>
</g>
<!-- p2&#45;&gt;p5 -->
<g id="edge13" class="edge">
<title>p2:f1&#45;&gt;p5:head</title>
<path fill="none" stroke="black" d="M521,-201C541.76,-201 510.2,-164.68 508.07,-148.8"/>
<polygon fill="black" stroke="black" points="510.65,-151.16 515,-141.5 505.58,-146.34 510.65,-151.16"/>
</g>
</g>
</svg>
