<?xml version="1.0" encoding="UTF-8" standalone="no"?>
<!DOCTYPE svg PUBLIC "-//W3C//DTD SVG 1.1//EN"
 "http://www.w3.org/Graphics/SVG/1.1/DTD/svg11.dtd">
<!-- Generated by graphviz version 7.1.0 (0)
 -->
<!-- Title: g Pages: 1 -->
<svg width="1090pt" height="456pt"
 viewBox="0.00 0.00 1090.00 456.00" xmlns="http://www.w3.org/2000/svg" xmlns:xlink="http://www.w3.org/1999/xlink">
<g id="graph0" class="graph" transform="scale(1 1) rotate(0) translate(4 452)">
<title>g</title>
<!-- entry_9 -->
<g id="node1" class="node">
<title>entry_9</title>
<polygon fill="yellow" stroke="black" points="133,-401.5 133,-447.5 240,-447.5 240,-401.5 133,-401.5"/>
<text text-anchor="middle" x="186.5" y="-432.3" font-family="Times,serif" font-size="14.00">val : j = `J (b, c)</text>
<polyline fill="none" stroke="black" points="133,-424.5 240,-424.5"/>
<text text-anchor="middle" x="186.5" y="-409.3" font-family="Times,serif" font-size="14.00">.</text>
</g>
<!-- p1 -->
<g id="node19" class="node">
<title>p1</title>
<path fill="lightblue" stroke="black" d="M170.5,-295.5C170.5,-295.5 202.5,-295.5 202.5,-295.5 208.5,-295.5 214.5,-301.5 214.5,-307.5 214.5,-307.5 214.5,-352.5 214.5,-352.5 214.5,-358.5 208.5,-364.5 202.5,-364.5 202.5,-364.5 170.5,-364.5 170.5,-364.5 164.5,-364.5 158.5,-358.5 158.5,-352.5 158.5,-352.5 158.5,-307.5 158.5,-307.5 158.5,-301.5 164.5,-295.5 170.5,-295.5"/>
<text text-anchor="middle" x="186.5" y="-349.3" font-family="Times,serif" font-size="14.00">Tag : 0</text>
<polyline fill="none" stroke="black" points="158.5,-341.5 214.5,-341.5"/>
<text text-anchor="middle" x="186.5" y="-326.3" font-family="Times,serif" font-size="14.00">74</text>
<polyline fill="none" stroke="black" points="158.5,-318.5 214.5,-318.5"/>
<text text-anchor="middle" x="186.5" y="-303.3" font-family="Times,serif" font-size="14.00">.</text>
</g>
<!-- entry_9&#45;&gt;p1 -->
<g id="edge10" class="edge">
<title>entry_9&#45;&gt;p1:head</title>
<path fill="none" stroke="black" d="M186.5,-401.55C186.5,-393.92 186.5,-385.07 186.5,-376.33"/>
<polygon fill="black" stroke="black" points="190,-376.51 186.5,-366.51 183,-376.51 190,-376.51"/>
</g>
<!-- entry_8 -->
<g id="node2" class="node">
<title>entry_8</title>
<polygon fill="yellow" stroke="black" points="379,-401.5 379,-447.5 462,-447.5 462,-401.5 379,-401.5"/>
<text text-anchor="middle" x="420.5" y="-432.3" font-family="Times,serif" font-size="14.00">val : i = `I d</text>
<polyline fill="none" stroke="black" points="379,-424.5 462,-424.5"/>
<text text-anchor="middle" x="420.5" y="-409.3" font-family="Times,serif" font-size="14.00">.</text>
</g>
<!-- p7 -->
<g id="node18" class="node">
<title>p7</title>
<path fill="lightblue" stroke="black" d="M404.5,-295.5C404.5,-295.5 436.5,-295.5 436.5,-295.5 442.5,-295.5 448.5,-301.5 448.5,-307.5 448.5,-307.5 448.5,-352.5 448.5,-352.5 448.5,-358.5 442.5,-364.5 436.5,-364.5 436.5,-364.5 404.5,-364.5 404.5,-364.5 398.5,-364.5 392.5,-358.5 392.5,-352.5 392.5,-352.5 392.5,-307.5 392.5,-307.5 392.5,-301.5 398.5,-295.5 404.5,-295.5"/>
<text text-anchor="middle" x="420.5" y="-349.3" font-family="Times,serif" font-size="14.00">Tag : 0</text>
<polyline fill="none" stroke="black" points="392.5,-341.5 448.5,-341.5"/>
<text text-anchor="middle" x="420.5" y="-326.3" font-family="Times,serif" font-size="14.00">73</text>
<polyline fill="none" stroke="black" points="392.5,-318.5 448.5,-318.5"/>
<text text-anchor="middle" x="420.5" y="-303.3" font-family="Times,serif" font-size="14.00">0</text>
</g>
<!-- entry_8&#45;&gt;p7 -->
<g id="edge9" class="edge">
<title>entry_8&#45;&gt;p7:head</title>
<path fill="none" stroke="black" d="M420.5,-401.55C420.5,-393.92 420.5,-385.07 420.5,-376.33"/>
<polygon fill="black" stroke="black" points="424,-376.51 420.5,-366.51 417,-376.51 424,-376.51"/>
</g>
<!-- entry_7 -->
<g id="node3" class="node">
<title>entry_7</title>
<polygon fill="yellow" stroke="black" points="480.5,-401.5 480.5,-447.5 572.5,-447.5 572.5,-401.5 480.5,-401.5"/>
<text text-anchor="middle" x="526.5" y="-432.3" font-family="Times,serif" font-size="14.00">val : h = `H 5</text>
<polyline fill="none" stroke="black" points="480.5,-424.5 572.5,-424.5"/>
<text text-anchor="middle" x="526.5" y="-409.3" font-family="Times,serif" font-size="14.00">.</text>
</g>
<!-- p8 -->
<g id="node17" class="node">
<title>p8</title>
<path fill="lightblue" stroke="black" d="M510.5,-295.5C510.5,-295.5 542.5,-295.5 542.5,-295.5 548.5,-295.5 554.5,-301.5 554.5,-307.5 554.5,-307.5 554.5,-352.5 554.5,-352.5 554.5,-358.5 548.5,-364.5 542.5,-364.5 542.5,-364.5 510.5,-364.5 510.5,-364.5 504.5,-364.5 498.5,-358.5 498.5,-352.5 498.5,-352.5 498.5,-307.5 498.5,-307.5 498.5,-301.5 504.5,-295.5 510.5,-295.5"/>
<text text-anchor="middle" x="526.5" y="-349.3" font-family="Times,serif" font-size="14.00">Tag : 0</text>
<polyline fill="none" stroke="black" points="498.5,-341.5 554.5,-341.5"/>
<text text-anchor="middle" x="526.5" y="-326.3" font-family="Times,serif" font-size="14.00">72</text>
<polyline fill="none" stroke="black" points="498.5,-318.5 554.5,-318.5"/>
<text text-anchor="middle" x="526.5" y="-303.3" font-family="Times,serif" font-size="14.00">5</text>
</g>
<!-- entry_7&#45;&gt;p8 -->
<g id="edge8" class="edge">
<title>entry_7&#45;&gt;p8:head</title>
<path fill="none" stroke="black" d="M526.5,-401.55C526.5,-393.92 526.5,-385.07 526.5,-376.33"/>
<polygon fill="black" stroke="black" points="530,-376.51 526.5,-366.51 523,-376.51 530,-376.51"/>
</g>
<!-- entry_6 -->
<g id="node4" class="node">
<title>entry_6</title>
<polygon fill="yellow" stroke="black" points="591,-401.5 591,-447.5 672,-447.5 672,-401.5 591,-401.5"/>
<text text-anchor="middle" x="631.5" y="-432.3" font-family="Times,serif" font-size="14.00">val : g = `G</text>
<polyline fill="none" stroke="black" points="591,-424.5 672,-424.5"/>
<text text-anchor="middle" x="631.5" y="-409.3" font-family="Times,serif" font-size="14.00">71</text>
</g>
<!-- entry_5 -->
<g id="node5" class="node">
<title>entry_5</title>
<polygon fill="yellow" stroke="black" points="690.5,-401.5 690.5,-447.5 772.5,-447.5 772.5,-401.5 690.5,-401.5"/>
<text text-anchor="middle" x="731.5" y="-432.3" font-family="Times,serif" font-size="14.00">val : f = F a</text>
<polyline fill="none" stroke="black" points="690.5,-424.5 772.5,-424.5"/>
<text text-anchor="middle" x="731.5" y="-409.3" font-family="Times,serif" font-size="14.00">.</text>
</g>
<!-- p9 -->
<g id="node16" class="node">
<title>p9</title>
<path fill="lightblue" stroke="black" d="M742.5,-307C742.5,-307 774.5,-307 774.5,-307 780.5,-307 786.5,-313 786.5,-319 786.5,-319 786.5,-341 786.5,-341 786.5,-347 780.5,-353 774.5,-353 774.5,-353 742.5,-353 742.5,-353 736.5,-353 730.5,-347 730.5,-341 730.5,-341 730.5,-319 730.5,-319 730.5,-313 736.5,-307 742.5,-307"/>
<text text-anchor="middle" x="758.5" y="-337.8" font-family="Times,serif" font-size="14.00">Tag : 3</text>
<polyline fill="none" stroke="black" points="730.5,-330 786.5,-330"/>
<text text-anchor="middle" x="758.5" y="-314.8" font-family="Times,serif" font-size="14.00">.</text>
</g>
<!-- entry_5&#45;&gt;p9 -->
<g id="edge6" class="edge">
<title>entry_5&#45;&gt;p9:head</title>
<path fill="none" stroke="black" d="M744.68,-401.79C750.04,-391.4 755.46,-378.35 757.57,-365.11"/>
<polygon fill="black" stroke="black" points="761.03,-365.76 758.37,-355.51 754.06,-365.18 761.03,-365.76"/>
</g>
<!-- entry_4 -->
<g id="node6" class="node">
<title>entry_4</title>
<polygon fill="yellow" stroke="black" points="912.5,-401.5 912.5,-447.5 986.5,-447.5 986.5,-401.5 912.5,-401.5"/>
<text text-anchor="middle" x="949.5" y="-432.3" font-family="Times,serif" font-size="14.00">val : e = E</text>
<polyline fill="none" stroke="black" points="912.5,-424.5 986.5,-424.5"/>
<text text-anchor="middle" x="949.5" y="-409.3" font-family="Times,serif" font-size="14.00">1</text>
</g>
<!-- entry_3 -->
<g id="node7" class="node">
<title>entry_3</title>
<polygon fill="yellow" stroke="black" points="1005,-401.5 1005,-447.5 1082,-447.5 1082,-401.5 1005,-401.5"/>
<text text-anchor="middle" x="1043.5" y="-432.3" font-family="Times,serif" font-size="14.00">val : d = D</text>
<polyline fill="none" stroke="black" points="1005,-424.5 1082,-424.5"/>
<text text-anchor="middle" x="1043.5" y="-409.3" font-family="Times,serif" font-size="14.00">0</text>
</g>
<!-- entry_2 -->
<g id="node8" class="node">
<title>entry_2</title>
<polygon fill="yellow" stroke="black" points="258,-401.5 258,-447.5 361,-447.5 361,-401.5 258,-401.5"/>
<text text-anchor="middle" x="309.5" y="-432.3" font-family="Times,serif" font-size="14.00">val : c = C 42.0</text>
<polyline fill="none" stroke="black" points="258,-424.5 361,-424.5"/>
<text text-anchor="middle" x="309.5" y="-409.3" font-family="Times,serif" font-size="14.00">.</text>
</g>
<!-- p5 -->
<g id="node14" class="node">
<title>p5</title>
<path fill="lightblue" stroke="black" d="M223.5,-106.5C223.5,-106.5 255.5,-106.5 255.5,-106.5 261.5,-106.5 267.5,-112.5 267.5,-118.5 267.5,-118.5 267.5,-140.5 267.5,-140.5 267.5,-146.5 261.5,-152.5 255.5,-152.5 255.5,-152.5 223.5,-152.5 223.5,-152.5 217.5,-152.5 211.5,-146.5 211.5,-140.5 211.5,-140.5 211.5,-118.5 211.5,-118.5 211.5,-112.5 217.5,-106.5 223.5,-106.5"/>
<text text-anchor="middle" x="239.5" y="-137.3" font-family="Times,serif" font-size="14.00">Tag : 2</text>
<polyline fill="none" stroke="black" points="211.5,-129.5 267.5,-129.5"/>
<text text-anchor="middle" x="239.5" y="-114.3" font-family="Times,serif" font-size="14.00">.</text>
</g>
<!-- entry_2&#45;&gt;p5 -->
<g id="edge4" class="edge">
<title>entry_2&#45;&gt;p5:head</title>
<path fill="none" stroke="black" d="M315.46,-401.84C331.83,-338.32 370.53,-156.11 279.88,-142.33"/>
<polygon fill="black" stroke="black" points="280.24,-138.84 270.01,-141.61 279.73,-145.83 280.24,-138.84"/>
</g>
<!-- entry_1 -->
<g id="node9" class="node">
<title>entry_1</title>
<polygon fill="yellow" stroke="black" points="0,-401.5 0,-447.5 115,-447.5 115,-401.5 0,-401.5"/>
<text text-anchor="middle" x="57.5" y="-432.3" font-family="Times,serif" font-size="14.00">val : b = B ((3,4))</text>
<polyline fill="none" stroke="black" points="0,-424.5 115,-424.5"/>
<text text-anchor="middle" x="57.5" y="-409.3" font-family="Times,serif" font-size="14.00">.</text>
</g>
<!-- p3 -->
<g id="node12" class="node">
<title>p3</title>
<path fill="lightblue" stroke="black" d="M117.5,-106.5C117.5,-106.5 149.5,-106.5 149.5,-106.5 155.5,-106.5 161.5,-112.5 161.5,-118.5 161.5,-118.5 161.5,-140.5 161.5,-140.5 161.5,-146.5 155.5,-152.5 149.5,-152.5 149.5,-152.5 117.5,-152.5 117.5,-152.5 111.5,-152.5 105.5,-146.5 105.5,-140.5 105.5,-140.5 105.5,-118.5 105.5,-118.5 105.5,-112.5 111.5,-106.5 117.5,-106.5"/>
<text text-anchor="middle" x="133.5" y="-137.3" font-family="Times,serif" font-size="14.00">Tag : 1</text>
<polyline fill="none" stroke="black" points="105.5,-129.5 161.5,-129.5"/>
<text text-anchor="middle" x="133.5" y="-114.3" font-family="Times,serif" font-size="14.00">.</text>
</g>
<!-- entry_1&#45;&gt;p3 -->
<g id="edge2" class="edge">
<title>entry_1&#45;&gt;p3:head</title>
<path fill="none" stroke="black" d="M51.97,-401.84C36.87,-338.32 1.83,-156.11 93.06,-142.33"/>
<polygon fill="black" stroke="black" points="93.27,-145.82 102.99,-141.61 92.76,-138.84 93.27,-145.82"/>
</g>
<!-- entry_0 -->
<g id="node10" class="node">
<title>entry_0</title>
<polygon fill="yellow" stroke="black" points="790.5,-401.5 790.5,-447.5 894.5,-447.5 894.5,-401.5 790.5,-401.5"/>
<text text-anchor="middle" x="842.5" y="-432.3" font-family="Times,serif" font-size="14.00">val : a = A (1,2)</text>
<polyline fill="none" stroke="black" points="790.5,-424.5 894.5,-424.5"/>
<text text-anchor="middle" x="842.5" y="-409.3" font-family="Times,serif" font-size="14.00">.</text>
</g>
<!-- p10 -->
<g id="node11" class="node">
<title>p10</title>
<path fill="lightblue" stroke="black" d="M797.5,-189.5C797.5,-189.5 829.5,-189.5 829.5,-189.5 835.5,-189.5 841.5,-195.5 841.5,-201.5 841.5,-201.5 841.5,-246.5 841.5,-246.5 841.5,-252.5 835.5,-258.5 829.5,-258.5 829.5,-258.5 797.5,-258.5 797.5,-258.5 791.5,-258.5 785.5,-252.5 785.5,-246.5 785.5,-246.5 785.5,-201.5 785.5,-201.5 785.5,-195.5 791.5,-189.5 797.5,-189.5"/>
<text text-anchor="middle" x="813.5" y="-243.3" font-family="Times,serif" font-size="14.00">Tag : 0</text>
<polyline fill="none" stroke="black" points="785.5,-235.5 841.5,-235.5"/>
<text text-anchor="middle" x="813.5" y="-220.3" font-family="Times,serif" font-size="14.00">1</text>
<polyline fill="none" stroke="black" points="785.5,-212.5 841.5,-212.5"/>
<text text-anchor="middle" x="813.5" y="-197.3" font-family="Times,serif" font-size="14.00">2</text>
</g>
<!-- entry_0&#45;&gt;p10 -->
<g id="edge1" class="edge">
<title>entry_0&#45;&gt;p10:head</title>
<path fill="none" stroke="black" d="M836.14,-401.63C828.22,-372.58 815.51,-319.22 813.71,-270.33"/>
<polygon fill="black" stroke="black" points="817.22,-270.45 813.53,-260.51 810.22,-270.58 817.22,-270.45"/>
</g>
<!-- p4 -->
<g id="node13" class="node">
<title>p4</title>
<path fill="lightblue" stroke="black" d="M117.5,-0.5C117.5,-0.5 149.5,-0.5 149.5,-0.5 155.5,-0.5 161.5,-6.5 161.5,-12.5 161.5,-12.5 161.5,-57.5 161.5,-57.5 161.5,-63.5 155.5,-69.5 149.5,-69.5 149.5,-69.5 117.5,-69.5 117.5,-69.5 111.5,-69.5 105.5,-63.5 105.5,-57.5 105.5,-57.5 105.5,-12.5 105.5,-12.5 105.5,-6.5 111.5,-0.5 117.5,-0.5"/>
<text text-anchor="middle" x="133.5" y="-54.3" font-family="Times,serif" font-size="14.00">Tag : 0</text>
<polyline fill="none" stroke="black" points="105.5,-46.5 161.5,-46.5"/>
<text text-anchor="middle" x="133.5" y="-31.3" font-family="Times,serif" font-size="14.00">3</text>
<polyline fill="none" stroke="black" points="105.5,-23.5 161.5,-23.5"/>
<text text-anchor="middle" x="133.5" y="-8.3" font-family="Times,serif" font-size="14.00">4</text>
</g>
<!-- p3&#45;&gt;p4 -->
<g id="edge3" class="edge">
<title>p3:f0&#45;&gt;p4:head</title>
<path fill="none" stroke="black" d="M133.5,-106C133.5,-94.62 133.5,-89.32 133.5,-81.45"/>
<polygon fill="black" stroke="black" points="137,-81.51 133.5,-71.51 130,-81.51 137,-81.51"/>
</g>
<!-- p6 -->
<g id="node15" class="node">
<title>p6</title>
<path fill="lightblue" stroke="black" d="M214.5,-12C214.5,-12 264.5,-12 264.5,-12 270.5,-12 276.5,-18 276.5,-24 276.5,-24 276.5,-46 276.5,-46 276.5,-52 270.5,-58 264.5,-58 264.5,-58 214.5,-58 214.5,-58 208.5,-58 202.5,-52 202.5,-46 202.5,-46 202.5,-24 202.5,-24 202.5,-18 208.5,-12 214.5,-12"/>
<text text-anchor="middle" x="239.5" y="-42.8" font-family="Times,serif" font-size="14.00">Tag : 253</text>
<polyline fill="none" stroke="black" points="202.5,-35 276.5,-35"/>
<text text-anchor="middle" x="239.5" y="-19.8" font-family="Times,serif" font-size="14.00">42.000000</text>
</g>
<!-- p5&#45;&gt;p6 -->
<g id="edge5" class="edge">
<title>p5:f0&#45;&gt;p6:head</title>
<path fill="none" stroke="black" d="M239.5,-106C239.5,-89.52 239.5,-82.79 239.5,-70.42"/>
<polygon fill="black" stroke="black" points="243,-70.51 239.5,-60.51 236,-70.51 243,-70.51"/>
</g>
<!-- p9&#45;&gt;p10 -->
<g id="edge7" class="edge">
<title>p9:f0&#45;&gt;p10:head</title>
<path fill="none" stroke="black" d="M787.5,-318C812.79,-318 775.4,-272.47 775.72,-254.33"/>
<polygon fill="black" stroke="black" points="777.9,-257.06 783.34,-247.97 773.42,-251.69 777.9,-257.06"/>
</g>
<!-- p2 -->
<g id="node20" class="node">
<title>p2</title>
<path fill="lightblue" stroke="black" d="M170.5,-189.5C170.5,-189.5 202.5,-189.5 202.5,-189.5 208.5,-189.5 214.5,-195.5 214.5,-201.5 214.5,-201.5 214.5,-246.5 214.5,-246.5 214.5,-252.5 208.5,-258.5 202.5,-258.5 202.5,-258.5 170.5,-258.5 170.5,-258.5 164.5,-258.5 158.5,-252.5 158.5,-246.5 158.5,-246.5 158.5,-201.5 158.5,-201.5 158.5,-195.5 164.5,-189.5 170.5,-189.5"/>
<text text-anchor="middle" x="186.5" y="-243.3" font-family="Times,serif" font-size="14.00">Tag : 0</text>
<polyline fill="none" stroke="black" points="158.5,-235.5 214.5,-235.5"/>
<text text-anchor="middle" x="186.5" y="-220.3" font-family="Times,serif" font-size="14.00">.</text>
<polyline fill="none" stroke="black" points="158.5,-212.5 214.5,-212.5"/>
<text text-anchor="middle" x="186.5" y="-197.3" font-family="Times,serif" font-size="14.00">.</text>
</g>
<!-- p1&#45;&gt;p2 -->
<g id="edge11" class="edge">
<title>p1:f1&#45;&gt;p2:head</title>
<path fill="none" stroke="black" d="M186.5,-295C186.5,-283.62 186.5,-278.32 186.5,-270.45"/>
<polygon fill="black" stroke="black" points="190,-270.51 186.5,-260.51 183,-270.51 190,-270.51"/>
</g>
<!-- p2&#45;&gt;p3 -->
<g id="edge12" class="edge">
<title>p2:f0&#45;&gt;p3:head</title>
<path fill="none" stroke="black" d="M157.5,-224C126.79,-224 176.59,-166.35 172.29,-147.43"/>
<polygon fill="black" stroke="black" points="174.16,-144.47 163.79,-142.28 170.53,-150.46 174.16,-144.47"/>
</g>
<!-- p2&#45;&gt;p5 -->
<g id="edge13" class="edge">
<title>p2:f1&#45;&gt;p5:head</title>
<path fill="none" stroke="black" d="M215.5,-201C235.4,-201 207.71,-167.53 203.82,-150.8"/>
<polygon fill="black" stroke="black" points="206.62,-152.89 209.62,-142.73 200.94,-148.81 206.62,-152.89"/>
</g>
</g>
</svg>
