<?xml version="1.0" encoding="UTF-8" standalone="no"?>
<!DOCTYPE svg PUBLIC "-//W3C//DTD SVG 1.1//EN"
 "http://www.w3.org/Graphics/SVG/1.1/DTD/svg11.dtd">
<!-- Generated by graphviz version 7.0.4 (0)
 -->
<!-- Title: g Pages: 1 -->
<svg width="299pt" height="138pt"
 viewBox="0.00 0.00 299.00 138.00" xmlns="http://www.w3.org/2000/svg" xmlns:xlink="http://www.w3.org/1999/xlink">
<g id="graph0" class="graph" transform="scale(1 1) rotate(0) translate(4 134)">
<title>g</title>
<!-- entry_2 -->
<g id="node1" class="node">
<title>entry_2</title>
<polygon fill="yellow" stroke="black" points="0,-83.5 0,-129.5 129,-129.5 129,-83.5 0,-83.5"/>
<text text-anchor="middle" x="64.5" y="-114.3" font-family="Times,serif" font-size="14.00">val : Array.make 0 0</text>
<polyline fill="none" stroke="black" points="0,-106.5 129,-106.5"/>
<text text-anchor="middle" x="64.5" y="-91.3" font-family="Times,serif" font-size="14.00">.</text>
</g>
<!-- p1 -->
<g id="node5" class="node">
<title>p1</title>
<path fill="lightblue" stroke="black" d="M48.5,-0.5C48.5,-0.5 80.5,-0.5 80.5,-0.5 86.5,-0.5 92.5,-6.5 92.5,-12.5 92.5,-12.5 92.5,-34.5 92.5,-34.5 92.5,-40.5 86.5,-46.5 80.5,-46.5 80.5,-46.5 48.5,-46.5 48.5,-46.5 42.5,-46.5 36.5,-40.5 36.5,-34.5 36.5,-34.5 36.5,-12.5 36.5,-12.5 36.5,-6.5 42.5,-0.5 48.5,-0.5"/>
<text text-anchor="middle" x="64.5" y="-31.3" font-family="Times,serif" font-size="14.00">Tag : 0</text>
<polyline fill="none" stroke="black" points="36.5,-23.5 92.5,-23.5"/>
<text text-anchor="middle" x="64.5" y="-8.3" font-family="Times,serif" font-size="14.00"> </text>
</g>
<!-- entry_2&#45;&gt;p1 -->
<g id="edge3" class="edge">
<title>entry_2&#45;&gt;p1:head</title>
<path fill="none" stroke="black" d="M64.5,-83.55C64.5,-75.92 64.5,-67.07 64.5,-58.33"/>
<polygon fill="black" stroke="black" points="68,-58.51 64.5,-48.51 61,-58.51 68,-58.51"/>
</g>
<!-- entry_1 -->
<g id="node2" class="node">
<title>entry_1</title>
<polygon fill="yellow" stroke="black" points="147,-83.5 147,-129.5 210,-129.5 210,-83.5 147,-83.5"/>
<text text-anchor="middle" x="178.5" y="-114.3" font-family="Times,serif" font-size="14.00">val : [| |]</text>
<polyline fill="none" stroke="black" points="147,-106.5 210,-106.5"/>
<text text-anchor="middle" x="178.5" y="-91.3" font-family="Times,serif" font-size="14.00">.</text>
</g>
<!-- p2 -->
<g id="node4" class="node">
<title>p2</title>
<path fill="lightblue" stroke="black" d="M202.5,-0.5C202.5,-0.5 234.5,-0.5 234.5,-0.5 240.5,-0.5 246.5,-6.5 246.5,-12.5 246.5,-12.5 246.5,-34.5 246.5,-34.5 246.5,-40.5 240.5,-46.5 234.5,-46.5 234.5,-46.5 202.5,-46.5 202.5,-46.5 196.5,-46.5 190.5,-40.5 190.5,-34.5 190.5,-34.5 190.5,-12.5 190.5,-12.5 190.5,-6.5 196.5,-0.5 202.5,-0.5"/>
<text text-anchor="middle" x="218.5" y="-31.3" font-family="Times,serif" font-size="14.00">Tag : 0</text>
<polyline fill="none" stroke="black" points="190.5,-23.5 246.5,-23.5"/>
<text text-anchor="middle" x="218.5" y="-8.3" font-family="Times,serif" font-size="14.00"> </text>
</g>
<!-- entry_1&#45;&gt;p2 -->
<g id="edge2" class="edge">
<title>entry_1&#45;&gt;p2:head</title>
<path fill="none" stroke="black" d="M202.46,-83.6C208.58,-76.32 214.19,-67.65 216.86,-58.28"/>
<polygon fill="black" stroke="black" points="220.31,-58.9 218.28,-48.5 213.38,-57.89 220.31,-58.9"/>
</g>
<!-- entry_0 -->
<g id="node3" class="node">
<title>entry_0</title>
<polygon fill="yellow" stroke="black" points="228,-83.5 228,-129.5 291,-129.5 291,-83.5 228,-83.5"/>
<text text-anchor="middle" x="259.5" y="-114.3" font-family="Times,serif" font-size="14.00">val : [| |]</text>
<polyline fill="none" stroke="black" points="228,-106.5 291,-106.5"/>
<text text-anchor="middle" x="259.5" y="-91.3" font-family="Times,serif" font-size="14.00">.</text>
</g>
<!-- entry_0&#45;&gt;p2 -->
<g id="edge1" class="edge">
<title>entry_0&#45;&gt;p2:head</title>
<path fill="none" stroke="black" d="M234.94,-83.71C228.66,-76.44 222.92,-67.77 220.18,-58.35"/>
<polygon fill="black" stroke="black" points="223.65,-57.88 218.72,-48.5 216.72,-58.9 223.65,-57.88"/>
</g>
</g>
</svg>
