<?xml version="1.0" encoding="UTF-8" standalone="no"?>
<!DOCTYPE svg PUBLIC "-//W3C//DTD SVG 1.1//EN"
 "http://www.w3.org/Graphics/SVG/1.1/DTD/svg11.dtd">
<!-- Generated by graphviz version 2.50.0 (0)
 -->
<!-- Title: g Pages: 1 -->
<svg width="494pt" height="1110pt"
 viewBox="0.00 0.00 494.00 1110.00" xmlns="http://www.w3.org/2000/svg" xmlns:xlink="http://www.w3.org/1999/xlink">
<g id="graph0" class="graph" transform="scale(1 1) rotate(0) translate(4 1106)">
<title>g</title>
<polygon fill="white" stroke="transparent" points="-4,4 -4,-1106 490,-1106 490,4 -4,4"/>
<!-- entry_0 -->
<g id="node1" class="node">
<title>entry_0</title>
<polygon fill="yellow" stroke="black" points="5.5,-1055.5 5.5,-1101.5 93.5,-1101.5 93.5,-1055.5 5.5,-1055.5"/>
<text text-anchor="middle" x="49.5" y="-1086.3" font-family="Times,serif" font-size="14.00">val : true_</text>
<polyline fill="none" stroke="black" points="5.5,-1078.5 93.5,-1078.5 "/>
<text text-anchor="middle" x="49.5" y="-1063.3" font-family="Times,serif" font-size="14.00">.</text>
</g>
<!-- p9 -->
<g id="node5" class="node">
<title>p9</title>
<path fill="lightblue" stroke="black" d="M56,-562.5C56,-562.5 97,-562.5 97,-562.5 103,-562.5 109,-568.5 109,-574.5 109,-574.5 109,-642.5 109,-642.5 109,-648.5 103,-654.5 97,-654.5 97,-654.5 56,-654.5 56,-654.5 50,-654.5 44,-648.5 44,-642.5 44,-642.5 44,-574.5 44,-574.5 44,-568.5 50,-562.5 56,-562.5"/>
<text text-anchor="middle" x="76.5" y="-639.3" font-family="Times,serif" font-size="14.00">Tag : 0</text>
<polyline fill="none" stroke="black" points="44,-631.5 109,-631.5 "/>
<text text-anchor="middle" x="76.5" y="-616.3" font-family="Times,serif" font-size="14.00">.</text>
<polyline fill="none" stroke="black" points="44,-608.5 109,-608.5 "/>
<text text-anchor="middle" x="76.5" y="-593.3" font-family="Times,serif" font-size="14.00">0</text>
<polyline fill="none" stroke="black" points="44,-585.5 109,-585.5 "/>
<text text-anchor="middle" x="76.5" y="-570.3" font-family="Times,serif" font-size="14.00">.</text>
</g>
<!-- entry_0&#45;&gt;p9 -->
<g id="edge1" class="edge">
<title>entry_0&#45;&gt;p9:head</title>
<path fill="none" stroke="black" d="M51.94,-1055.09C58.44,-993.54 75.7,-816.45 76.47,-665.37"/>
<polygon fill="black" stroke="black" points="79.97,-665.01 76.5,-655 72.97,-664.99 79.97,-665.01"/>
</g>
<!-- entry_1 -->
<g id="node2" class="node">
<title>entry_1</title>
<polygon fill="yellow" stroke="black" points="263.5,-1055.5 263.5,-1101.5 355.5,-1101.5 355.5,-1055.5 263.5,-1055.5"/>
<text text-anchor="middle" x="309.5" y="-1086.3" font-family="Times,serif" font-size="14.00">val : false_</text>
<polyline fill="none" stroke="black" points="263.5,-1078.5 355.5,-1078.5 "/>
<text text-anchor="middle" x="309.5" y="-1063.3" font-family="Times,serif" font-size="14.00">.</text>
</g>
<!-- p14 -->
<g id="node10" class="node">
<title>p14</title>
<path fill="lightblue" stroke="black" d="M259,-433.5C259,-433.5 300,-433.5 300,-433.5 306,-433.5 312,-439.5 312,-445.5 312,-445.5 312,-513.5 312,-513.5 312,-519.5 306,-525.5 300,-525.5 300,-525.5 259,-525.5 259,-525.5 253,-525.5 247,-519.5 247,-513.5 247,-513.5 247,-445.5 247,-445.5 247,-439.5 253,-433.5 259,-433.5"/>
<text text-anchor="middle" x="279.5" y="-510.3" font-family="Times,serif" font-size="14.00">Tag : 0</text>
<polyline fill="none" stroke="black" points="247,-502.5 312,-502.5 "/>
<text text-anchor="middle" x="279.5" y="-487.3" font-family="Times,serif" font-size="14.00">.</text>
<polyline fill="none" stroke="black" points="247,-479.5 312,-479.5 "/>
<text text-anchor="middle" x="279.5" y="-464.3" font-family="Times,serif" font-size="14.00">0</text>
<polyline fill="none" stroke="black" points="247,-456.5 312,-456.5 "/>
<text text-anchor="middle" x="279.5" y="-441.3" font-family="Times,serif" font-size="14.00">.</text>
</g>
<!-- entry_1&#45;&gt;p14 -->
<g id="edge6" class="edge">
<title>entry_1&#45;&gt;p14:head</title>
<path fill="none" stroke="black" d="M309.5,-1055.49C309.5,-1015.69 309.5,-929.06 309.5,-856 309.5,-856 309.5,-856 309.5,-736.5 309.5,-658.49 306.19,-638.42 290.5,-562 287.95,-549.58 282.95,-544.92 280.67,-536.11"/>
<polygon fill="black" stroke="black" points="284.13,-535.53 279.5,-526 277.18,-536.34 284.13,-535.53"/>
</g>
<!-- entry_2 -->
<g id="node3" class="node">
<title>entry_2</title>
<polygon fill="yellow" stroke="black" points="373.5,-1055.5 373.5,-1101.5 457.5,-1101.5 457.5,-1055.5 373.5,-1055.5"/>
<text text-anchor="middle" x="415.5" y="-1086.3" font-family="Times,serif" font-size="14.00">val : and_</text>
<polyline fill="none" stroke="black" points="373.5,-1078.5 457.5,-1078.5 "/>
<text text-anchor="middle" x="415.5" y="-1063.3" font-family="Times,serif" font-size="14.00">.</text>
</g>
<!-- p3 -->
<g id="node14" class="node">
<title>p3</title>
<path fill="lightblue" stroke="black" d="M372,-691.5C372,-691.5 413,-691.5 413,-691.5 419,-691.5 425,-697.5 425,-703.5 425,-703.5 425,-771.5 425,-771.5 425,-777.5 419,-783.5 413,-783.5 413,-783.5 372,-783.5 372,-783.5 366,-783.5 360,-777.5 360,-771.5 360,-771.5 360,-703.5 360,-703.5 360,-697.5 366,-691.5 372,-691.5"/>
<text text-anchor="middle" x="392.5" y="-768.3" font-family="Times,serif" font-size="14.00">Tag : 0</text>
<polyline fill="none" stroke="black" points="360,-760.5 425,-760.5 "/>
<text text-anchor="middle" x="392.5" y="-745.3" font-family="Times,serif" font-size="14.00">.</text>
<polyline fill="none" stroke="black" points="360,-737.5 425,-737.5 "/>
<text text-anchor="middle" x="392.5" y="-722.3" font-family="Times,serif" font-size="14.00">0</text>
<polyline fill="none" stroke="black" points="360,-714.5 425,-714.5 "/>
<text text-anchor="middle" x="392.5" y="-699.3" font-family="Times,serif" font-size="14.00">.</text>
</g>
<!-- entry_2&#45;&gt;p3 -->
<g id="edge11" class="edge">
<title>entry_2&#45;&gt;p3:head</title>
<path fill="none" stroke="black" d="M412.59,-1055.46C406.6,-1008.27 393.41,-893.66 392.55,-794.19"/>
<polygon fill="black" stroke="black" points="396.04,-793.98 392.5,-784 389.04,-794.02 396.04,-793.98"/>
</g>
<!-- entry_3 -->
<g id="node4" class="node">
<title>entry_3</title>
<polygon fill="yellow" stroke="black" points="111.5,-1055.5 111.5,-1101.5 245.5,-1101.5 245.5,-1055.5 111.5,-1055.5"/>
<text text-anchor="middle" x="178.5" y="-1086.3" font-family="Times,serif" font-size="14.00">val : conjunction</text>
<polyline fill="none" stroke="black" points="111.5,-1078.5 245.5,-1078.5 "/>
<text text-anchor="middle" x="178.5" y="-1063.3" font-family="Times,serif" font-size="14.00">.</text>
</g>
<!-- p1 -->
<g id="node18" class="node">
<title>p1</title>
<path fill="lightblue" stroke="black" d="M158,-926.5C158,-926.5 199,-926.5 199,-926.5 205,-926.5 211,-932.5 211,-938.5 211,-938.5 211,-1006.5 211,-1006.5 211,-1012.5 205,-1018.5 199,-1018.5 199,-1018.5 158,-1018.5 158,-1018.5 152,-1018.5 146,-1012.5 146,-1006.5 146,-1006.5 146,-938.5 146,-938.5 146,-932.5 152,-926.5 158,-926.5"/>
<text text-anchor="middle" x="178.5" y="-1003.3" font-family="Times,serif" font-size="14.00">Tag : 0</text>
<polyline fill="none" stroke="black" points="146,-995.5 211,-995.5 "/>
<text text-anchor="middle" x="178.5" y="-980.3" font-family="Times,serif" font-size="14.00">.</text>
<polyline fill="none" stroke="black" points="146,-972.5 211,-972.5 "/>
<text text-anchor="middle" x="178.5" y="-957.3" font-family="Times,serif" font-size="14.00">0</text>
<polyline fill="none" stroke="black" points="146,-949.5 211,-949.5 "/>
<text text-anchor="middle" x="178.5" y="-934.3" font-family="Times,serif" font-size="14.00">.</text>
</g>
<!-- entry_3&#45;&gt;p1 -->
<g id="edge16" class="edge">
<title>entry_3&#45;&gt;p1:head</title>
<path fill="none" stroke="black" d="M178.5,-1055.28C178.5,-1047.34 178.5,-1038.11 178.5,-1029.06"/>
<polygon fill="black" stroke="black" points="182,-1029 178.5,-1019 175,-1029 182,-1029"/>
</g>
<!-- p10 -->
<g id="node6" class="node">
<title>p10</title>
<path fill="lightblue" stroke="black" d="M12,-456.5C12,-456.5 53,-456.5 53,-456.5 59,-456.5 65,-462.5 65,-468.5 65,-468.5 65,-490.5 65,-490.5 65,-496.5 59,-502.5 53,-502.5 53,-502.5 12,-502.5 12,-502.5 6,-502.5 0,-496.5 0,-490.5 0,-490.5 0,-468.5 0,-468.5 0,-462.5 6,-456.5 12,-456.5"/>
<text text-anchor="middle" x="32.5" y="-487.3" font-family="Times,serif" font-size="14.00">Tag : 1</text>
<polyline fill="none" stroke="black" points="0,-479.5 65,-479.5 "/>
<text text-anchor="middle" x="32.5" y="-464.3" font-family="Times,serif" font-size="14.00">0</text>
</g>
<!-- p9&#45;&gt;p10 -->
<g id="edge2" class="edge">
<title>p9:f0&#45;&gt;p10:head</title>
<path fill="none" stroke="black" d="M42.5,-620.5C-6.33,-620.5 27.45,-563.77 32.01,-513.73"/>
<polygon fill="black" stroke="black" points="35.52,-513.66 32.5,-503.5 28.53,-513.32 35.52,-513.66"/>
</g>
<!-- p11 -->
<g id="node7" class="node">
<title>p11</title>
<path fill="lightblue" stroke="black" d="M95,-456.5C95,-456.5 136,-456.5 136,-456.5 142,-456.5 148,-462.5 148,-468.5 148,-468.5 148,-490.5 148,-490.5 148,-496.5 142,-502.5 136,-502.5 136,-502.5 95,-502.5 95,-502.5 89,-502.5 83,-496.5 83,-490.5 83,-490.5 83,-468.5 83,-468.5 83,-462.5 89,-456.5 95,-456.5"/>
<text text-anchor="middle" x="115.5" y="-487.3" font-family="Times,serif" font-size="14.00">Tag : 0</text>
<polyline fill="none" stroke="black" points="83,-479.5 148,-479.5 "/>
<text text-anchor="middle" x="115.5" y="-464.3" font-family="Times,serif" font-size="14.00">.</text>
</g>
<!-- p9&#45;&gt;p11 -->
<g id="edge3" class="edge">
<title>p9:f2&#45;&gt;p11:head</title>
<path fill="none" stroke="black" d="M76.5,-562C76.5,-534.54 106.63,-534.3 113.92,-513.43"/>
<polygon fill="black" stroke="black" points="117.39,-513.93 115.5,-503.5 110.47,-512.83 117.39,-513.93"/>
</g>
<!-- p12 -->
<g id="node8" class="node">
<title>p12</title>
<path fill="lightblue" stroke="black" d="M95,-258.5C95,-258.5 136,-258.5 136,-258.5 142,-258.5 148,-264.5 148,-270.5 148,-270.5 148,-384.5 148,-384.5 148,-390.5 142,-396.5 136,-396.5 136,-396.5 95,-396.5 95,-396.5 89,-396.5 83,-390.5 83,-384.5 83,-384.5 83,-270.5 83,-270.5 83,-264.5 89,-258.5 95,-258.5"/>
<text text-anchor="middle" x="115.5" y="-381.3" font-family="Times,serif" font-size="14.00">Tag : 0</text>
<polyline fill="none" stroke="black" points="83,-373.5 148,-373.5 "/>
<text text-anchor="middle" x="115.5" y="-358.3" font-family="Times,serif" font-size="14.00">.</text>
<polyline fill="none" stroke="black" points="83,-350.5 148,-350.5 "/>
<text text-anchor="middle" x="115.5" y="-335.3" font-family="Times,serif" font-size="14.00">1</text>
<polyline fill="none" stroke="black" points="83,-327.5 148,-327.5 "/>
<text text-anchor="middle" x="115.5" y="-312.3" font-family="Times,serif" font-size="14.00">1</text>
<polyline fill="none" stroke="black" points="83,-304.5 148,-304.5 "/>
<text text-anchor="middle" x="115.5" y="-289.3" font-family="Times,serif" font-size="14.00">1</text>
<polyline fill="none" stroke="black" points="83,-281.5 148,-281.5 "/>
<text text-anchor="middle" x="115.5" y="-266.3" font-family="Times,serif" font-size="14.00">2</text>
</g>
<!-- p11&#45;&gt;p12 -->
<g id="edge4" class="edge">
<title>p11:f0&#45;&gt;p12:head</title>
<path fill="none" stroke="black" d="M115.5,-455.5C115.5,-433.36 115.5,-425.36 115.5,-407.42"/>
<polygon fill="black" stroke="black" points="119,-407 115.5,-397 112,-407 119,-407"/>
</g>
<!-- p7 -->
<g id="node9" class="node">
<title>p7</title>
<path fill="lightblue" stroke="black" d="M198.5,-0.5C198.5,-0.5 316.5,-0.5 316.5,-0.5 322.5,-0.5 328.5,-6.5 328.5,-12.5 328.5,-12.5 328.5,-34.5 328.5,-34.5 328.5,-40.5 322.5,-46.5 316.5,-46.5 316.5,-46.5 198.5,-46.5 198.5,-46.5 192.5,-46.5 186.5,-40.5 186.5,-34.5 186.5,-34.5 186.5,-12.5 186.5,-12.5 186.5,-6.5 192.5,-0.5 198.5,-0.5"/>
<text text-anchor="middle" x="257.5" y="-31.3" font-family="Times,serif" font-size="14.00">Tag : 252</text>
<polyline fill="none" stroke="black" points="186.5,-23.5 328.5,-23.5 "/>
<text text-anchor="middle" x="257.5" y="-8.3" font-family="Times,serif" font-size="14.00">&#39;example.dummy&#39;</text>
</g>
<!-- p12&#45;&gt;p7 -->
<g id="edge5" class="edge">
<title>p12:f0&#45;&gt;p7:head</title>
<path fill="none" stroke="black" d="M149.5,-362.5C157.3,-362.5 174.33,-90.71 175.5,-83 178.02,-66.33 169.54,-46.72 175.99,-38.93"/>
<polygon fill="black" stroke="black" points="177.28,-42.19 185.5,-35.5 174.91,-35.6 177.28,-42.19"/>
</g>
<!-- p15 -->
<g id="node11" class="node">
<title>p15</title>
<path fill="lightblue" stroke="black" d="M217,-304.5C217,-304.5 258,-304.5 258,-304.5 264,-304.5 270,-310.5 270,-316.5 270,-316.5 270,-338.5 270,-338.5 270,-344.5 264,-350.5 258,-350.5 258,-350.5 217,-350.5 217,-350.5 211,-350.5 205,-344.5 205,-338.5 205,-338.5 205,-316.5 205,-316.5 205,-310.5 211,-304.5 217,-304.5"/>
<text text-anchor="middle" x="237.5" y="-335.3" font-family="Times,serif" font-size="14.00">Tag : 1</text>
<polyline fill="none" stroke="black" points="205,-327.5 270,-327.5 "/>
<text text-anchor="middle" x="237.5" y="-312.3" font-family="Times,serif" font-size="14.00">1</text>
</g>
<!-- p14&#45;&gt;p15 -->
<g id="edge7" class="edge">
<title>p14:f0&#45;&gt;p15:head</title>
<path fill="none" stroke="black" d="M245.5,-491.5C186.58,-491.5 231.91,-422.09 237.04,-361.85"/>
<polygon fill="black" stroke="black" points="240.55,-361.65 237.5,-351.5 233.56,-361.33 240.55,-361.65"/>
</g>
<!-- p16 -->
<g id="node12" class="node">
<title>p16</title>
<path fill="lightblue" stroke="black" d="M300,-304.5C300,-304.5 341,-304.5 341,-304.5 347,-304.5 353,-310.5 353,-316.5 353,-316.5 353,-338.5 353,-338.5 353,-344.5 347,-350.5 341,-350.5 341,-350.5 300,-350.5 300,-350.5 294,-350.5 288,-344.5 288,-338.5 288,-338.5 288,-316.5 288,-316.5 288,-310.5 294,-304.5 300,-304.5"/>
<text text-anchor="middle" x="320.5" y="-335.3" font-family="Times,serif" font-size="14.00">Tag : 0</text>
<polyline fill="none" stroke="black" points="288,-327.5 353,-327.5 "/>
<text text-anchor="middle" x="320.5" y="-312.3" font-family="Times,serif" font-size="14.00">.</text>
</g>
<!-- p14&#45;&gt;p16 -->
<g id="edge8" class="edge">
<title>p14:f2&#45;&gt;p16:head</title>
<path fill="none" stroke="black" d="M279.5,-433C279.5,-396.1 313.46,-392.44 319.57,-361.51"/>
<polygon fill="black" stroke="black" points="323.06,-361.78 320.5,-351.5 316.09,-361.13 323.06,-361.78"/>
</g>
<!-- p17 -->
<g id="node13" class="node">
<title>p17</title>
<path fill="lightblue" stroke="black" d="M289,-83.5C289,-83.5 330,-83.5 330,-83.5 336,-83.5 342,-89.5 342,-95.5 342,-95.5 342,-209.5 342,-209.5 342,-215.5 336,-221.5 330,-221.5 330,-221.5 289,-221.5 289,-221.5 283,-221.5 277,-215.5 277,-209.5 277,-209.5 277,-95.5 277,-95.5 277,-89.5 283,-83.5 289,-83.5"/>
<text text-anchor="middle" x="309.5" y="-206.3" font-family="Times,serif" font-size="14.00">Tag : 0</text>
<polyline fill="none" stroke="black" points="277,-198.5 342,-198.5 "/>
<text text-anchor="middle" x="309.5" y="-183.3" font-family="Times,serif" font-size="14.00">.</text>
<polyline fill="none" stroke="black" points="277,-175.5 342,-175.5 "/>
<text text-anchor="middle" x="309.5" y="-160.3" font-family="Times,serif" font-size="14.00">1</text>
<polyline fill="none" stroke="black" points="277,-152.5 342,-152.5 "/>
<text text-anchor="middle" x="309.5" y="-137.3" font-family="Times,serif" font-size="14.00">3</text>
<polyline fill="none" stroke="black" points="277,-129.5 342,-129.5 "/>
<text text-anchor="middle" x="309.5" y="-114.3" font-family="Times,serif" font-size="14.00">1</text>
<polyline fill="none" stroke="black" points="277,-106.5 342,-106.5 "/>
<text text-anchor="middle" x="309.5" y="-91.3" font-family="Times,serif" font-size="14.00">4</text>
</g>
<!-- p16&#45;&gt;p17 -->
<g id="edge9" class="edge">
<title>p16:f0&#45;&gt;p17:head</title>
<path fill="none" stroke="black" d="M320.5,-303.5C320.5,-270.66 311.62,-260.55 309.82,-232.32"/>
<polygon fill="black" stroke="black" points="313.31,-231.89 309.5,-222 306.31,-232.1 313.31,-231.89"/>
</g>
<!-- p17&#45;&gt;p7 -->
<g id="edge10" class="edge">
<title>p17:f0&#45;&gt;p7:head</title>
<path fill="none" stroke="black" d="M275.5,-187.5C268.74,-187.5 260.3,-89.55 258.07,-57.01"/>
<polygon fill="black" stroke="black" points="261.56,-56.79 257.5,-47 254.57,-57.18 261.56,-56.79"/>
</g>
<!-- p4 -->
<g id="node15" class="node">
<title>p4</title>
<path fill="lightblue" stroke="black" d="M350,-585.5C350,-585.5 391,-585.5 391,-585.5 397,-585.5 403,-591.5 403,-597.5 403,-597.5 403,-619.5 403,-619.5 403,-625.5 397,-631.5 391,-631.5 391,-631.5 350,-631.5 350,-631.5 344,-631.5 338,-625.5 338,-619.5 338,-619.5 338,-597.5 338,-597.5 338,-591.5 344,-585.5 350,-585.5"/>
<text text-anchor="middle" x="370.5" y="-616.3" font-family="Times,serif" font-size="14.00">Tag : 1</text>
<polyline fill="none" stroke="black" points="338,-608.5 403,-608.5 "/>
<text text-anchor="middle" x="370.5" y="-593.3" font-family="Times,serif" font-size="14.00">2</text>
</g>
<!-- p3&#45;&gt;p4 -->
<g id="edge12" class="edge">
<title>p3:f0&#45;&gt;p4:head</title>
<path fill="none" stroke="black" d="M358.5,-749.5C344.13,-749.5 361.79,-671.12 368.28,-642.64"/>
<polygon fill="black" stroke="black" points="371.78,-643.02 370.5,-632.5 364.95,-641.52 371.78,-643.02"/>
</g>
<!-- p5 -->
<g id="node16" class="node">
<title>p5</title>
<path fill="lightblue" stroke="black" d="M433,-585.5C433,-585.5 474,-585.5 474,-585.5 480,-585.5 486,-591.5 486,-597.5 486,-597.5 486,-619.5 486,-619.5 486,-625.5 480,-631.5 474,-631.5 474,-631.5 433,-631.5 433,-631.5 427,-631.5 421,-625.5 421,-619.5 421,-619.5 421,-597.5 421,-597.5 421,-591.5 427,-585.5 433,-585.5"/>
<text text-anchor="middle" x="453.5" y="-616.3" font-family="Times,serif" font-size="14.00">Tag : 0</text>
<polyline fill="none" stroke="black" points="421,-608.5 486,-608.5 "/>
<text text-anchor="middle" x="453.5" y="-593.3" font-family="Times,serif" font-size="14.00">.</text>
</g>
<!-- p3&#45;&gt;p5 -->
<g id="edge13" class="edge">
<title>p3:f2&#45;&gt;p5:head</title>
<path fill="none" stroke="black" d="M426.5,-702.5C441,-702.5 416.6,-650.94 415,-629.59"/>
<polygon fill="black" stroke="black" points="418.2,-631.01 419.5,-620.5 411.93,-627.91 418.2,-631.01"/>
</g>
<!-- p6 -->
<g id="node17" class="node">
<title>p6</title>
<path fill="lightblue" stroke="black" d="M387,-83.5C387,-83.5 428,-83.5 428,-83.5 434,-83.5 440,-89.5 440,-95.5 440,-95.5 440,-209.5 440,-209.5 440,-215.5 434,-221.5 428,-221.5 428,-221.5 387,-221.5 387,-221.5 381,-221.5 375,-215.5 375,-209.5 375,-209.5 375,-95.5 375,-95.5 375,-89.5 381,-83.5 387,-83.5"/>
<text text-anchor="middle" x="407.5" y="-206.3" font-family="Times,serif" font-size="14.00">Tag : 0</text>
<polyline fill="none" stroke="black" points="375,-198.5 440,-198.5 "/>
<text text-anchor="middle" x="407.5" y="-183.3" font-family="Times,serif" font-size="14.00">.</text>
<polyline fill="none" stroke="black" points="375,-175.5 440,-175.5 "/>
<text text-anchor="middle" x="407.5" y="-160.3" font-family="Times,serif" font-size="14.00">1</text>
<polyline fill="none" stroke="black" points="375,-152.5 440,-152.5 "/>
<text text-anchor="middle" x="407.5" y="-137.3" font-family="Times,serif" font-size="14.00">2</text>
<polyline fill="none" stroke="black" points="375,-129.5 440,-129.5 "/>
<text text-anchor="middle" x="407.5" y="-114.3" font-family="Times,serif" font-size="14.00">1</text>
<polyline fill="none" stroke="black" points="375,-106.5 440,-106.5 "/>
<text text-anchor="middle" x="407.5" y="-91.3" font-family="Times,serif" font-size="14.00">3</text>
</g>
<!-- p5&#45;&gt;p6 -->
<g id="edge14" class="edge">
<title>p5:f0&#45;&gt;p6:head</title>
<path fill="none" stroke="black" d="M453.5,-584.5C453.5,-425.59 409.46,-386.08 407.56,-232.3"/>
<polygon fill="black" stroke="black" points="411.06,-231.98 407.5,-222 404.06,-232.02 411.06,-231.98"/>
</g>
<!-- p6&#45;&gt;p7 -->
<g id="edge15" class="edge">
<title>p6:f0&#45;&gt;p7:head</title>
<path fill="none" stroke="black" d="M373.5,-187.5C349.77,-187.5 358.98,-105.52 351.5,-83 345.54,-65.06 350.1,-44.92 339.54,-37.99"/>
<polygon fill="black" stroke="black" points="340.05,-34.51 329.5,-35.5 338.36,-41.31 340.05,-34.51"/>
</g>
<!-- p2 -->
<g id="node19" class="node">
<title>p2</title>
<path fill="lightblue" stroke="black" d="M228,-820.5C228,-820.5 269,-820.5 269,-820.5 275,-820.5 281,-826.5 281,-832.5 281,-832.5 281,-877.5 281,-877.5 281,-883.5 275,-889.5 269,-889.5 269,-889.5 228,-889.5 228,-889.5 222,-889.5 216,-883.5 216,-877.5 216,-877.5 216,-832.5 216,-832.5 216,-826.5 222,-820.5 228,-820.5"/>
<text text-anchor="middle" x="248.5" y="-874.3" font-family="Times,serif" font-size="14.00">Tag : 3</text>
<polyline fill="none" stroke="black" points="216,-866.5 281,-866.5 "/>
<text text-anchor="middle" x="248.5" y="-851.3" font-family="Times,serif" font-size="14.00">.</text>
<polyline fill="none" stroke="black" points="216,-843.5 281,-843.5 "/>
<text text-anchor="middle" x="248.5" y="-828.3" font-family="Times,serif" font-size="14.00">.</text>
</g>
<!-- p1&#45;&gt;p2 -->
<g id="edge17" class="edge">
<title>p1:f0&#45;&gt;p2:head</title>
<path fill="none" stroke="black" d="M212.5,-984.5C222.16,-984.5 209.49,-913.52 210.95,-887.45"/>
<polygon fill="black" stroke="black" points="214.26,-888.59 214.5,-878 207.71,-886.13 214.26,-888.59"/>
</g>
<!-- p18 -->
<g id="node20" class="node">
<title>p18</title>
<path fill="lightblue" stroke="black" d="M145,-832C145,-832 186,-832 186,-832 192,-832 198,-838 198,-844 198,-844 198,-866 198,-866 198,-872 192,-878 186,-878 186,-878 145,-878 145,-878 139,-878 133,-872 133,-866 133,-866 133,-844 133,-844 133,-838 139,-832 145,-832"/>
<text text-anchor="middle" x="165.5" y="-862.8" font-family="Times,serif" font-size="14.00">Tag : 0</text>
<polyline fill="none" stroke="black" points="133,-855 198,-855 "/>
<text text-anchor="middle" x="165.5" y="-839.8" font-family="Times,serif" font-size="14.00">.</text>
</g>
<!-- p1&#45;&gt;p18 -->
<g id="edge18" class="edge">
<title>p1:f2&#45;&gt;p18:head</title>
<path fill="none" stroke="black" d="M178.5,-926C178.5,-908.22 169.75,-902.57 166.61,-889.15"/>
<polygon fill="black" stroke="black" points="170.07,-888.56 165.5,-879 163.11,-889.32 170.07,-888.56"/>
</g>
<!-- p2&#45;&gt;p3 -->
<g id="edge21" class="edge">
<title>p2:f0&#45;&gt;p3:head</title>
<path fill="none" stroke="black" d="M282.5,-855C328.65,-855 311.76,-784.29 348.56,-773.8"/>
<polygon fill="black" stroke="black" points="349.04,-777.26 358.5,-772.5 348.13,-770.32 349.04,-777.26"/>
</g>
<!-- p8 -->
<g id="node22" class="node">
<title>p8</title>
<path fill="lightblue" stroke="black" d="M228,-703C228,-703 269,-703 269,-703 275,-703 281,-709 281,-715 281,-715 281,-760 281,-760 281,-766 275,-772 269,-772 269,-772 228,-772 228,-772 222,-772 216,-766 216,-760 216,-760 216,-715 216,-715 216,-709 222,-703 228,-703"/>
<text text-anchor="middle" x="248.5" y="-756.8" font-family="Times,serif" font-size="14.00">Tag : 0</text>
<polyline fill="none" stroke="black" points="216,-749 281,-749 "/>
<text text-anchor="middle" x="248.5" y="-733.8" font-family="Times,serif" font-size="14.00">.</text>
<polyline fill="none" stroke="black" points="216,-726 281,-726 "/>
<text text-anchor="middle" x="248.5" y="-710.8" font-family="Times,serif" font-size="14.00">.</text>
</g>
<!-- p2&#45;&gt;p8 -->
<g id="edge22" class="edge">
<title>p2:f1&#45;&gt;p8:head</title>
<path fill="none" stroke="black" d="M248.5,-820C248.5,-803.21 248.5,-796.65 248.5,-783.69"/>
<polygon fill="black" stroke="black" points="252,-783.5 248.5,-773.5 245,-783.5 252,-783.5"/>
</g>
<!-- p19 -->
<g id="node21" class="node">
<title>p19</title>
<path fill="lightblue" stroke="black" d="M196,-83.5C196,-83.5 237,-83.5 237,-83.5 243,-83.5 249,-89.5 249,-95.5 249,-95.5 249,-209.5 249,-209.5 249,-215.5 243,-221.5 237,-221.5 237,-221.5 196,-221.5 196,-221.5 190,-221.5 184,-215.5 184,-209.5 184,-209.5 184,-95.5 184,-95.5 184,-89.5 190,-83.5 196,-83.5"/>
<text text-anchor="middle" x="216.5" y="-206.3" font-family="Times,serif" font-size="14.00">Tag : 0</text>
<polyline fill="none" stroke="black" points="184,-198.5 249,-198.5 "/>
<text text-anchor="middle" x="216.5" y="-183.3" font-family="Times,serif" font-size="14.00">.</text>
<polyline fill="none" stroke="black" points="184,-175.5 249,-175.5 "/>
<text text-anchor="middle" x="216.5" y="-160.3" font-family="Times,serif" font-size="14.00">1</text>
<polyline fill="none" stroke="black" points="184,-152.5 249,-152.5 "/>
<text text-anchor="middle" x="216.5" y="-137.3" font-family="Times,serif" font-size="14.00">1</text>
<polyline fill="none" stroke="black" points="184,-129.5 249,-129.5 "/>
<text text-anchor="middle" x="216.5" y="-114.3" font-family="Times,serif" font-size="14.00">1</text>
<polyline fill="none" stroke="black" points="184,-106.5 249,-106.5 "/>
<text text-anchor="middle" x="216.5" y="-91.3" font-family="Times,serif" font-size="14.00">4</text>
</g>
<!-- p18&#45;&gt;p19 -->
<g id="edge19" class="edge">
<title>p18:f0&#45;&gt;p19:head</title>
<path fill="none" stroke="black" d="M165.5,-831C165.5,-732.43 176.5,-708.07 176.5,-609.5 176.5,-609.5 176.5,-609.5 176.5,-478.5 176.5,-380.1 167.54,-352.04 196.5,-258 200.67,-244.47 210.35,-241.28 214.53,-232.06"/>
<polygon fill="black" stroke="black" points="218.01,-232.49 216.5,-222 211.14,-231.14 218.01,-232.49"/>
</g>
<!-- p19&#45;&gt;p7 -->
<g id="edge20" class="edge">
<title>p19:f0&#45;&gt;p7:head</title>
<path fill="none" stroke="black" d="M250.5,-187.5C278.95,-187.5 261.41,-97.01 258.03,-57.18"/>
<polygon fill="black" stroke="black" points="261.52,-56.8 257.5,-47 254.52,-57.17 261.52,-56.8"/>
</g>
<!-- p8&#45;&gt;p9 -->
<g id="edge23" class="edge">
<title>p8:f0&#45;&gt;p9:head</title>
<path fill="none" stroke="black" d="M214.5,-737.5C155.85,-737.5 170.67,-654.19 120.63,-644.43"/>
<polygon fill="black" stroke="black" points="120.78,-640.93 110.5,-643.5 120.14,-647.9 120.78,-640.93"/>
</g>
<!-- p13 -->
<g id="node23" class="node">
<title>p13</title>
<path fill="lightblue" stroke="black" d="M228,-574C228,-574 269,-574 269,-574 275,-574 281,-580 281,-586 281,-586 281,-631 281,-631 281,-637 275,-643 269,-643 269,-643 228,-643 228,-643 222,-643 216,-637 216,-631 216,-631 216,-586 216,-586 216,-580 222,-574 228,-574"/>
<text text-anchor="middle" x="248.5" y="-627.8" font-family="Times,serif" font-size="14.00">Tag : 0</text>
<polyline fill="none" stroke="black" points="216,-620 281,-620 "/>
<text text-anchor="middle" x="248.5" y="-604.8" font-family="Times,serif" font-size="14.00">.</text>
<polyline fill="none" stroke="black" points="216,-597 281,-597 "/>
<text text-anchor="middle" x="248.5" y="-581.8" font-family="Times,serif" font-size="14.00">0</text>
</g>
<!-- p8&#45;&gt;p13 -->
<g id="edge24" class="edge">
<title>p8:f1&#45;&gt;p13:head</title>
<path fill="none" stroke="black" d="M248.5,-701.5C248.5,-679.93 248.5,-672.13 248.5,-654.65"/>
<polygon fill="black" stroke="black" points="252,-654.5 248.5,-644.5 245,-654.5 252,-654.5"/>
</g>
<!-- p13&#45;&gt;p14 -->
<g id="edge25" class="edge">
<title>p13:f0&#45;&gt;p14:head</title>
<path fill="none" stroke="black" d="M282.5,-608.5C298.06,-608.5 282.05,-589.05 281.5,-573.5 280.89,-556.18 279.93,-549.53 279.61,-536.04"/>
<polygon fill="black" stroke="black" points="283.11,-535.96 279.5,-526 276.11,-536.04 283.11,-535.96"/>
</g>
</g>
</svg>
