<?xml version="1.0" encoding="UTF-8" standalone="no"?>
<!DOCTYPE svg PUBLIC "-//W3C//DTD SVG 1.1//EN"
 "http://www.w3.org/Graphics/SVG/1.1/DTD/svg11.dtd">
<!-- Generated by graphviz version 7.0.4 (0)
 -->
<!-- Title: g Pages: 1 -->
<svg width="416pt" height="1110pt"
 viewBox="0.00 0.00 416.00 1110.00" xmlns="http://www.w3.org/2000/svg" xmlns:xlink="http://www.w3.org/1999/xlink">
<g id="graph0" class="graph" transform="scale(1 1) rotate(0) translate(4 1106)">
<title>g</title>
<!-- entry_3 -->
<g id="node1" class="node">
<title>entry_3</title>
<polygon fill="yellow" stroke="black" points="114,-1055.5 114,-1101.5 222,-1101.5 222,-1055.5 114,-1055.5"/>
<text text-anchor="middle" x="168" y="-1086.3" font-family="Times,serif" font-size="14.00">val : conjunction</text>
<polyline fill="none" stroke="black" points="114,-1078.5 222,-1078.5"/>
<text text-anchor="middle" x="168" y="-1063.3" font-family="Times,serif" font-size="14.00">.</text>
</g>
<!-- p1 -->
<g id="node18" class="node">
<title>p1</title>
<path fill="lightblue" stroke="black" d="M152,-926.5C152,-926.5 184,-926.5 184,-926.5 190,-926.5 196,-932.5 196,-938.5 196,-938.5 196,-1006.5 196,-1006.5 196,-1012.5 190,-1018.5 184,-1018.5 184,-1018.5 152,-1018.5 152,-1018.5 146,-1018.5 140,-1012.5 140,-1006.5 140,-1006.5 140,-938.5 140,-938.5 140,-932.5 146,-926.5 152,-926.5"/>
<text text-anchor="middle" x="168" y="-1003.3" font-family="Times,serif" font-size="14.00">Tag : 0</text>
<polyline fill="none" stroke="black" points="140,-995.5 196,-995.5"/>
<text text-anchor="middle" x="168" y="-980.3" font-family="Times,serif" font-size="14.00">.</text>
<polyline fill="none" stroke="black" points="140,-972.5 196,-972.5"/>
<text text-anchor="middle" x="168" y="-957.3" font-family="Times,serif" font-size="14.00">0</text>
<polyline fill="none" stroke="black" points="140,-949.5 196,-949.5"/>
<text text-anchor="middle" x="168" y="-934.3" font-family="Times,serif" font-size="14.00">.</text>
</g>
<!-- entry_3&#45;&gt;p1 -->
<g id="edge16" class="edge">
<title>entry_3&#45;&gt;p1:head</title>
<path fill="none" stroke="black" d="M168,-1055.55C168,-1047.92 168,-1039.07 168,-1030.33"/>
<polygon fill="black" stroke="black" points="171.5,-1030.51 168,-1020.51 164.5,-1030.51 171.5,-1030.51"/>
</g>
<!-- entry_2 -->
<g id="node2" class="node">
<title>entry_2</title>
<polygon fill="yellow" stroke="black" points="24.5,-1055.5 24.5,-1101.5 95.5,-1101.5 95.5,-1055.5 24.5,-1055.5"/>
<text text-anchor="middle" x="60" y="-1086.3" font-family="Times,serif" font-size="14.00">val : and_</text>
<polyline fill="none" stroke="black" points="24.5,-1078.5 95.5,-1078.5"/>
<text text-anchor="middle" x="60" y="-1063.3" font-family="Times,serif" font-size="14.00">.</text>
</g>
<!-- p3 -->
<g id="node14" class="node">
<title>p3</title>
<path fill="lightblue" stroke="black" d="M69,-691.5C69,-691.5 101,-691.5 101,-691.5 107,-691.5 113,-697.5 113,-703.5 113,-703.5 113,-771.5 113,-771.5 113,-777.5 107,-783.5 101,-783.5 101,-783.5 69,-783.5 69,-783.5 63,-783.5 57,-777.5 57,-771.5 57,-771.5 57,-703.5 57,-703.5 57,-697.5 63,-691.5 69,-691.5"/>
<text text-anchor="middle" x="85" y="-768.3" font-family="Times,serif" font-size="14.00">Tag : 0</text>
<polyline fill="none" stroke="black" points="57,-760.5 113,-760.5"/>
<text text-anchor="middle" x="85" y="-745.3" font-family="Times,serif" font-size="14.00">.</text>
<polyline fill="none" stroke="black" points="57,-737.5 113,-737.5"/>
<text text-anchor="middle" x="85" y="-722.3" font-family="Times,serif" font-size="14.00">0</text>
<polyline fill="none" stroke="black" points="57,-714.5 113,-714.5"/>
<text text-anchor="middle" x="85" y="-699.3" font-family="Times,serif" font-size="14.00">.</text>
</g>
<!-- entry_2&#45;&gt;p3 -->
<g id="edge11" class="edge">
<title>entry_2&#45;&gt;p3:head</title>
<path fill="none" stroke="black" d="M63.12,-1055.83C69.57,-1009.08 83.88,-894.92 84.94,-795.43"/>
<polygon fill="black" stroke="black" points="88.44,-795.53 84.99,-785.51 81.44,-795.49 88.44,-795.53"/>
</g>
<!-- entry_1 -->
<g id="node3" class="node">
<title>entry_1</title>
<polygon fill="yellow" stroke="black" points="240.5,-1055.5 240.5,-1101.5 317.5,-1101.5 317.5,-1055.5 240.5,-1055.5"/>
<text text-anchor="middle" x="279" y="-1086.3" font-family="Times,serif" font-size="14.00">val : false_</text>
<polyline fill="none" stroke="black" points="240.5,-1078.5 317.5,-1078.5"/>
<text text-anchor="middle" x="279" y="-1063.3" font-family="Times,serif" font-size="14.00">.</text>
</g>
<!-- p14 -->
<g id="node10" class="node">
<title>p14</title>
<path fill="lightblue" stroke="black" d="M207,-433.5C207,-433.5 239,-433.5 239,-433.5 245,-433.5 251,-439.5 251,-445.5 251,-445.5 251,-513.5 251,-513.5 251,-519.5 245,-525.5 239,-525.5 239,-525.5 207,-525.5 207,-525.5 201,-525.5 195,-519.5 195,-513.5 195,-513.5 195,-445.5 195,-445.5 195,-439.5 201,-433.5 207,-433.5"/>
<text text-anchor="middle" x="223" y="-510.3" font-family="Times,serif" font-size="14.00">Tag : 0</text>
<polyline fill="none" stroke="black" points="195,-502.5 251,-502.5"/>
<text text-anchor="middle" x="223" y="-487.3" font-family="Times,serif" font-size="14.00">.</text>
<polyline fill="none" stroke="black" points="195,-479.5 251,-479.5"/>
<text text-anchor="middle" x="223" y="-464.3" font-family="Times,serif" font-size="14.00">0</text>
<polyline fill="none" stroke="black" points="195,-456.5 251,-456.5"/>
<text text-anchor="middle" x="223" y="-441.3" font-family="Times,serif" font-size="14.00">.</text>
</g>
<!-- entry_1&#45;&gt;p14 -->
<g id="edge6" class="edge">
<title>entry_1&#45;&gt;p14:head</title>
<path fill="none" stroke="black" d="M279,-1055.81C279,-1016.14 279,-929.26 279,-856 279,-856 279,-856 279,-736.5 279,-725.73 268.04,-566.69 257.02,-524.64"/>
<polygon fill="black" stroke="black" points="260.25,-523.26 252.67,-515.86 253.98,-526.37 260.25,-523.26"/>
</g>
<!-- entry_0 -->
<g id="node4" class="node">
<title>entry_0</title>
<polygon fill="yellow" stroke="black" points="336,-1055.5 336,-1101.5 408,-1101.5 408,-1055.5 336,-1055.5"/>
<text text-anchor="middle" x="372" y="-1086.3" font-family="Times,serif" font-size="14.00">val : true_</text>
<polyline fill="none" stroke="black" points="336,-1078.5 408,-1078.5"/>
<text text-anchor="middle" x="372" y="-1063.3" font-family="Times,serif" font-size="14.00">.</text>
</g>
<!-- p9 -->
<g id="node5" class="node">
<title>p9</title>
<path fill="lightblue" stroke="black" d="M337,-562.5C337,-562.5 369,-562.5 369,-562.5 375,-562.5 381,-568.5 381,-574.5 381,-574.5 381,-642.5 381,-642.5 381,-648.5 375,-654.5 369,-654.5 369,-654.5 337,-654.5 337,-654.5 331,-654.5 325,-648.5 325,-642.5 325,-642.5 325,-574.5 325,-574.5 325,-568.5 331,-562.5 337,-562.5"/>
<text text-anchor="middle" x="353" y="-639.3" font-family="Times,serif" font-size="14.00">Tag : 0</text>
<polyline fill="none" stroke="black" points="325,-631.5 381,-631.5"/>
<text text-anchor="middle" x="353" y="-616.3" font-family="Times,serif" font-size="14.00">.</text>
<polyline fill="none" stroke="black" points="325,-608.5 381,-608.5"/>
<text text-anchor="middle" x="353" y="-593.3" font-family="Times,serif" font-size="14.00">0</text>
<polyline fill="none" stroke="black" points="325,-585.5 381,-585.5"/>
<text text-anchor="middle" x="353" y="-570.3" font-family="Times,serif" font-size="14.00">.</text>
</g>
<!-- entry_0&#45;&gt;p9 -->
<g id="edge1" class="edge">
<title>entry_0&#45;&gt;p9:head</title>
<path fill="none" stroke="black" d="M370.31,-1055.52C365.78,-994.48 353.61,-817.39 353.02,-666.29"/>
<polygon fill="black" stroke="black" points="356.52,-666.51 353,-656.51 349.52,-666.52 356.52,-666.51"/>
</g>
<!-- p10 -->
<g id="node6" class="node">
<title>p10</title>
<path fill="lightblue" stroke="black" d="M281,-456.5C281,-456.5 313,-456.5 313,-456.5 319,-456.5 325,-462.5 325,-468.5 325,-468.5 325,-490.5 325,-490.5 325,-496.5 319,-502.5 313,-502.5 313,-502.5 281,-502.5 281,-502.5 275,-502.5 269,-496.5 269,-490.5 269,-490.5 269,-468.5 269,-468.5 269,-462.5 275,-456.5 281,-456.5"/>
<text text-anchor="middle" x="297" y="-487.3" font-family="Times,serif" font-size="14.00">Tag : 1</text>
<polyline fill="none" stroke="black" points="269,-479.5 325,-479.5"/>
<text text-anchor="middle" x="297" y="-464.3" font-family="Times,serif" font-size="14.00">0</text>
</g>
<!-- p9&#45;&gt;p10 -->
<g id="edge2" class="edge">
<title>p9:f0&#45;&gt;p10:head</title>
<path fill="none" stroke="black" d="M324,-620.5C300.34,-620.5 297.41,-549.49 297.05,-514.79"/>
<polygon fill="black" stroke="black" points="300.55,-515 297.01,-505.01 293.55,-515.03 300.55,-515"/>
</g>
<!-- p11 -->
<g id="node7" class="node">
<title>p11</title>
<path fill="lightblue" stroke="black" d="M355,-456.5C355,-456.5 387,-456.5 387,-456.5 393,-456.5 399,-462.5 399,-468.5 399,-468.5 399,-490.5 399,-490.5 399,-496.5 393,-502.5 387,-502.5 387,-502.5 355,-502.5 355,-502.5 349,-502.5 343,-496.5 343,-490.5 343,-490.5 343,-468.5 343,-468.5 343,-462.5 349,-456.5 355,-456.5"/>
<text text-anchor="middle" x="371" y="-487.3" font-family="Times,serif" font-size="14.00">Tag : 0</text>
<polyline fill="none" stroke="black" points="343,-479.5 399,-479.5"/>
<text text-anchor="middle" x="371" y="-464.3" font-family="Times,serif" font-size="14.00">.</text>
</g>
<!-- p9&#45;&gt;p11 -->
<g id="edge3" class="edge">
<title>p9:f2&#45;&gt;p11:head</title>
<path fill="none" stroke="black" d="M353,-562C353,-539.05 365.81,-532.55 369.82,-514.74"/>
<polygon fill="black" stroke="black" points="373.28,-515.32 370.84,-505.01 366.32,-514.58 373.28,-515.32"/>
</g>
<!-- p12 -->
<g id="node8" class="node">
<title>p12</title>
<path fill="lightblue" stroke="black" d="M355,-258.5C355,-258.5 387,-258.5 387,-258.5 393,-258.5 399,-264.5 399,-270.5 399,-270.5 399,-384.5 399,-384.5 399,-390.5 393,-396.5 387,-396.5 387,-396.5 355,-396.5 355,-396.5 349,-396.5 343,-390.5 343,-384.5 343,-384.5 343,-270.5 343,-270.5 343,-264.5 349,-258.5 355,-258.5"/>
<text text-anchor="middle" x="371" y="-381.3" font-family="Times,serif" font-size="14.00">Tag : 0</text>
<polyline fill="none" stroke="black" points="343,-373.5 399,-373.5"/>
<text text-anchor="middle" x="371" y="-358.3" font-family="Times,serif" font-size="14.00">.</text>
<polyline fill="none" stroke="black" points="343,-350.5 399,-350.5"/>
<text text-anchor="middle" x="371" y="-335.3" font-family="Times,serif" font-size="14.00">1</text>
<polyline fill="none" stroke="black" points="343,-327.5 399,-327.5"/>
<text text-anchor="middle" x="371" y="-312.3" font-family="Times,serif" font-size="14.00">1</text>
<polyline fill="none" stroke="black" points="343,-304.5 399,-304.5"/>
<text text-anchor="middle" x="371" y="-289.3" font-family="Times,serif" font-size="14.00">1</text>
<polyline fill="none" stroke="black" points="343,-281.5 399,-281.5"/>
<text text-anchor="middle" x="371" y="-266.3" font-family="Times,serif" font-size="14.00">2</text>
</g>
<!-- p11&#45;&gt;p12 -->
<g id="edge4" class="edge">
<title>p11:f0&#45;&gt;p12:head</title>
<path fill="none" stroke="black" d="M371,-455.5C371,-433.77 371,-425.66 371,-408.39"/>
<polygon fill="black" stroke="black" points="374.5,-408.51 371,-398.51 367.5,-408.51 374.5,-408.51"/>
</g>
<!-- p7 -->
<g id="node9" class="node">
<title>p7</title>
<path fill="lightblue" stroke="black" d="M196,-0.5C196,-0.5 286,-0.5 286,-0.5 292,-0.5 298,-6.5 298,-12.5 298,-12.5 298,-34.5 298,-34.5 298,-40.5 292,-46.5 286,-46.5 286,-46.5 196,-46.5 196,-46.5 190,-46.5 184,-40.5 184,-34.5 184,-34.5 184,-12.5 184,-12.5 184,-6.5 190,-0.5 196,-0.5"/>
<text text-anchor="middle" x="241" y="-31.3" font-family="Times,serif" font-size="14.00">Tag : 252</text>
<polyline fill="none" stroke="black" points="184,-23.5 298,-23.5"/>
<text text-anchor="middle" x="241" y="-8.3" font-family="Times,serif" font-size="14.00">&#39;example.dummy&#39;</text>
</g>
<!-- p12&#45;&gt;p7 -->
<g id="edge5" class="edge">
<title>p12:f0&#45;&gt;p7:head</title>
<path fill="none" stroke="black" d="M342,-362.5C326.42,-362.5 323.81,-98.1 320,-83 315.54,-65.34 319.41,-45.98 309.91,-38.59"/>
<polygon fill="black" stroke="black" points="311.03,-35.27 300.46,-35.91 309.12,-42.01 311.03,-35.27"/>
</g>
<!-- p15 -->
<g id="node11" class="node">
<title>p15</title>
<path fill="lightblue" stroke="black" d="M198,-304.5C198,-304.5 230,-304.5 230,-304.5 236,-304.5 242,-310.5 242,-316.5 242,-316.5 242,-338.5 242,-338.5 242,-344.5 236,-350.5 230,-350.5 230,-350.5 198,-350.5 198,-350.5 192,-350.5 186,-344.5 186,-338.5 186,-338.5 186,-316.5 186,-316.5 186,-310.5 192,-304.5 198,-304.5"/>
<text text-anchor="middle" x="214" y="-335.3" font-family="Times,serif" font-size="14.00">Tag : 1</text>
<polyline fill="none" stroke="black" points="186,-327.5 242,-327.5"/>
<text text-anchor="middle" x="214" y="-312.3" font-family="Times,serif" font-size="14.00">1</text>
</g>
<!-- p14&#45;&gt;p15 -->
<g id="edge7" class="edge">
<title>p14:f0&#45;&gt;p15:head</title>
<path fill="none" stroke="black" d="M194,-491.5C168,-491.5 191.81,-458.81 195,-433 199.07,-400.13 210.96,-390.66 213.51,-362.71"/>
<polygon fill="black" stroke="black" points="217,-363.15 213.93,-353.01 210,-362.85 217,-363.15"/>
</g>
<!-- p16 -->
<g id="node12" class="node">
<title>p16</title>
<path fill="lightblue" stroke="black" d="M272,-304.5C272,-304.5 304,-304.5 304,-304.5 310,-304.5 316,-310.5 316,-316.5 316,-316.5 316,-338.5 316,-338.5 316,-344.5 310,-350.5 304,-350.5 304,-350.5 272,-350.5 272,-350.5 266,-350.5 260,-344.5 260,-338.5 260,-338.5 260,-316.5 260,-316.5 260,-310.5 266,-304.5 272,-304.5"/>
<text text-anchor="middle" x="288" y="-335.3" font-family="Times,serif" font-size="14.00">Tag : 0</text>
<polyline fill="none" stroke="black" points="260,-327.5 316,-327.5"/>
<text text-anchor="middle" x="288" y="-312.3" font-family="Times,serif" font-size="14.00">.</text>
</g>
<!-- p14&#45;&gt;p16 -->
<g id="edge8" class="edge">
<title>p14:f2&#45;&gt;p16:head</title>
<path fill="none" stroke="black" d="M252,-444.5C256.48,-444.5 277.25,-387.32 285.04,-362.5"/>
<polygon fill="black" stroke="black" points="288.39,-363.53 287.61,-352.96 281.63,-361.71 288.39,-363.53"/>
</g>
<!-- p17 -->
<g id="node13" class="node">
<title>p17</title>
<path fill="lightblue" stroke="black" d="M267,-83.5C267,-83.5 299,-83.5 299,-83.5 305,-83.5 311,-89.5 311,-95.5 311,-95.5 311,-209.5 311,-209.5 311,-215.5 305,-221.5 299,-221.5 299,-221.5 267,-221.5 267,-221.5 261,-221.5 255,-215.5 255,-209.5 255,-209.5 255,-95.5 255,-95.5 255,-89.5 261,-83.5 267,-83.5"/>
<text text-anchor="middle" x="283" y="-206.3" font-family="Times,serif" font-size="14.00">Tag : 0</text>
<polyline fill="none" stroke="black" points="255,-198.5 311,-198.5"/>
<text text-anchor="middle" x="283" y="-183.3" font-family="Times,serif" font-size="14.00">.</text>
<polyline fill="none" stroke="black" points="255,-175.5 311,-175.5"/>
<text text-anchor="middle" x="283" y="-160.3" font-family="Times,serif" font-size="14.00">1</text>
<polyline fill="none" stroke="black" points="255,-152.5 311,-152.5"/>
<text text-anchor="middle" x="283" y="-137.3" font-family="Times,serif" font-size="14.00">3</text>
<polyline fill="none" stroke="black" points="255,-129.5 311,-129.5"/>
<text text-anchor="middle" x="283" y="-114.3" font-family="Times,serif" font-size="14.00">1</text>
<polyline fill="none" stroke="black" points="255,-106.5 311,-106.5"/>
<text text-anchor="middle" x="283" y="-91.3" font-family="Times,serif" font-size="14.00">4</text>
</g>
<!-- p16&#45;&gt;p17 -->
<g id="edge9" class="edge">
<title>p16:f0&#45;&gt;p17:head</title>
<path fill="none" stroke="black" d="M288,-303.5C288,-271.32 284.07,-260.66 283.18,-233.36"/>
<polygon fill="black" stroke="black" points="286.68,-233.46 283.02,-223.51 279.68,-233.57 286.68,-233.46"/>
</g>
<!-- p17&#45;&gt;p7 -->
<g id="edge10" class="edge">
<title>p17:f0&#45;&gt;p7:head</title>
<path fill="none" stroke="black" d="M254,-187.5C247.36,-187.5 242.63,-92.18 241.35,-58.36"/>
<polygon fill="black" stroke="black" points="244.85,-58.4 241.05,-48.51 237.86,-58.62 244.85,-58.4"/>
</g>
<!-- p4 -->
<g id="node15" class="node">
<title>p4</title>
<path fill="lightblue" stroke="black" d="M12,-585.5C12,-585.5 44,-585.5 44,-585.5 50,-585.5 56,-591.5 56,-597.5 56,-597.5 56,-619.5 56,-619.5 56,-625.5 50,-631.5 44,-631.5 44,-631.5 12,-631.5 12,-631.5 6,-631.5 0,-625.5 0,-619.5 0,-619.5 0,-597.5 0,-597.5 0,-591.5 6,-585.5 12,-585.5"/>
<text text-anchor="middle" x="28" y="-616.3" font-family="Times,serif" font-size="14.00">Tag : 1</text>
<polyline fill="none" stroke="black" points="0,-608.5 56,-608.5"/>
<text text-anchor="middle" x="28" y="-593.3" font-family="Times,serif" font-size="14.00">2</text>
</g>
<!-- p3&#45;&gt;p4 -->
<g id="edge12" class="edge">
<title>p3:f0&#45;&gt;p4:head</title>
<path fill="none" stroke="black" d="M56,-749.5C6.29,-749.5 24.81,-694.59 27.66,-643.9"/>
<polygon fill="black" stroke="black" points="31.15,-644.11 27.95,-634.01 24.16,-643.9 31.15,-644.11"/>
</g>
<!-- p5 -->
<g id="node16" class="node">
<title>p5</title>
<path fill="lightblue" stroke="black" d="M86,-585.5C86,-585.5 118,-585.5 118,-585.5 124,-585.5 130,-591.5 130,-597.5 130,-597.5 130,-619.5 130,-619.5 130,-625.5 124,-631.5 118,-631.5 118,-631.5 86,-631.5 86,-631.5 80,-631.5 74,-625.5 74,-619.5 74,-619.5 74,-597.5 74,-597.5 74,-591.5 80,-585.5 86,-585.5"/>
<text text-anchor="middle" x="102" y="-616.3" font-family="Times,serif" font-size="14.00">Tag : 0</text>
<polyline fill="none" stroke="black" points="74,-608.5 130,-608.5"/>
<text text-anchor="middle" x="102" y="-593.3" font-family="Times,serif" font-size="14.00">.</text>
</g>
<!-- p3&#45;&gt;p5 -->
<g id="edge13" class="edge">
<title>p3:f2&#45;&gt;p5:head</title>
<path fill="none" stroke="black" d="M85,-691C85,-668.15 97.1,-661.49 100.88,-643.7"/>
<polygon fill="black" stroke="black" points="104.34,-644.3 101.85,-634.01 97.38,-643.61 104.34,-644.3"/>
</g>
<!-- p6 -->
<g id="node17" class="node">
<title>p6</title>
<path fill="lightblue" stroke="black" d="M105,-83.5C105,-83.5 137,-83.5 137,-83.5 143,-83.5 149,-89.5 149,-95.5 149,-95.5 149,-209.5 149,-209.5 149,-215.5 143,-221.5 137,-221.5 137,-221.5 105,-221.5 105,-221.5 99,-221.5 93,-215.5 93,-209.5 93,-209.5 93,-95.5 93,-95.5 93,-89.5 99,-83.5 105,-83.5"/>
<text text-anchor="middle" x="121" y="-206.3" font-family="Times,serif" font-size="14.00">Tag : 0</text>
<polyline fill="none" stroke="black" points="93,-198.5 149,-198.5"/>
<text text-anchor="middle" x="121" y="-183.3" font-family="Times,serif" font-size="14.00">.</text>
<polyline fill="none" stroke="black" points="93,-175.5 149,-175.5"/>
<text text-anchor="middle" x="121" y="-160.3" font-family="Times,serif" font-size="14.00">1</text>
<polyline fill="none" stroke="black" points="93,-152.5 149,-152.5"/>
<text text-anchor="middle" x="121" y="-137.3" font-family="Times,serif" font-size="14.00">2</text>
<polyline fill="none" stroke="black" points="93,-129.5 149,-129.5"/>
<text text-anchor="middle" x="121" y="-114.3" font-family="Times,serif" font-size="14.00">1</text>
<polyline fill="none" stroke="black" points="93,-106.5 149,-106.5"/>
<text text-anchor="middle" x="121" y="-91.3" font-family="Times,serif" font-size="14.00">3</text>
</g>
<!-- p5&#45;&gt;p6 -->
<g id="edge14" class="edge">
<title>p5:f0&#45;&gt;p6:head</title>
<path fill="none" stroke="black" d="M102,-584.5C102,-426.95 120.12,-385.27 120.97,-233.15"/>
<polygon fill="black" stroke="black" points="124.47,-233.52 121,-223.51 117.47,-233.5 124.47,-233.52"/>
</g>
<!-- p6&#45;&gt;p7 -->
<g id="edge15" class="edge">
<title>p6:f0&#45;&gt;p7:head</title>
<path fill="none" stroke="black" d="M150,-187.5C180.38,-187.5 156.15,-70.08 173.3,-41.65"/>
<polygon fill="black" stroke="black" points="175.15,-44.62 181.72,-36.31 171.4,-38.71 175.15,-44.62"/>
</g>
<!-- p2 -->
<g id="node19" class="node">
<title>p2</title>
<path fill="lightblue" stroke="black" d="M207,-820.5C207,-820.5 239,-820.5 239,-820.5 245,-820.5 251,-826.5 251,-832.5 251,-832.5 251,-877.5 251,-877.5 251,-883.5 245,-889.5 239,-889.5 239,-889.5 207,-889.5 207,-889.5 201,-889.5 195,-883.5 195,-877.5 195,-877.5 195,-832.5 195,-832.5 195,-826.5 201,-820.5 207,-820.5"/>
<text text-anchor="middle" x="223" y="-874.3" font-family="Times,serif" font-size="14.00">Tag : 3</text>
<polyline fill="none" stroke="black" points="195,-866.5 251,-866.5"/>
<text text-anchor="middle" x="223" y="-851.3" font-family="Times,serif" font-size="14.00">.</text>
<polyline fill="none" stroke="black" points="195,-843.5 251,-843.5"/>
<text text-anchor="middle" x="223" y="-828.3" font-family="Times,serif" font-size="14.00">.</text>
</g>
<!-- p1&#45;&gt;p2 -->
<g id="edge17" class="edge">
<title>p1:f0&#45;&gt;p2:head</title>
<path fill="none" stroke="black" d="M197,-984.5C223,-984.5 196.76,-951.99 196,-926 195.79,-919 190.4,-900.51 189.73,-888.63"/>
<polygon fill="black" stroke="black" points="192.96,-889.99 193.44,-879.4 186.46,-887.38 192.96,-889.99"/>
</g>
<!-- p18 -->
<g id="node20" class="node">
<title>p18</title>
<path fill="lightblue" stroke="black" d="M133,-832C133,-832 165,-832 165,-832 171,-832 177,-838 177,-844 177,-844 177,-866 177,-866 177,-872 171,-878 165,-878 165,-878 133,-878 133,-878 127,-878 121,-872 121,-866 121,-866 121,-844 121,-844 121,-838 127,-832 133,-832"/>
<text text-anchor="middle" x="149" y="-862.8" font-family="Times,serif" font-size="14.00">Tag : 0</text>
<polyline fill="none" stroke="black" points="121,-855 177,-855"/>
<text text-anchor="middle" x="149" y="-839.8" font-family="Times,serif" font-size="14.00">.</text>
</g>
<!-- p1&#45;&gt;p18 -->
<g id="edge18" class="edge">
<title>p1:f2&#45;&gt;p18:head</title>
<path fill="none" stroke="black" d="M168,-926C168,-907.87 155.7,-903.07 150.89,-890.15"/>
<polygon fill="black" stroke="black" points="154.38,-889.77 149.25,-880.49 147.47,-890.94 154.38,-889.77"/>
</g>
<!-- p2&#45;&gt;p3 -->
<g id="edge21" class="edge">
<title>p2:f0&#45;&gt;p3:head</title>
<path fill="none" stroke="black" d="M194,-855C178.04,-855 195.09,-833.11 186,-820 166.46,-791.82 154.94,-776.05 125.29,-773.03"/>
<polygon fill="black" stroke="black" points="125.67,-769.55 115.51,-772.57 125.34,-776.54 125.67,-769.55"/>
</g>
<!-- p8 -->
<g id="node22" class="node">
<title>p8</title>
<path fill="lightblue" stroke="black" d="M207,-703C207,-703 239,-703 239,-703 245,-703 251,-709 251,-715 251,-715 251,-760 251,-760 251,-766 245,-772 239,-772 239,-772 207,-772 207,-772 201,-772 195,-766 195,-760 195,-760 195,-715 195,-715 195,-709 201,-703 207,-703"/>
<text text-anchor="middle" x="223" y="-756.8" font-family="Times,serif" font-size="14.00">Tag : 0</text>
<polyline fill="none" stroke="black" points="195,-749 251,-749"/>
<text text-anchor="middle" x="223" y="-733.8" font-family="Times,serif" font-size="14.00">.</text>
<polyline fill="none" stroke="black" points="195,-726 251,-726"/>
<text text-anchor="middle" x="223" y="-710.8" font-family="Times,serif" font-size="14.00">.</text>
</g>
<!-- p2&#45;&gt;p8 -->
<g id="edge22" class="edge">
<title>p2:f1&#45;&gt;p8:head</title>
<path fill="none" stroke="black" d="M223,-820C223,-803.69 223,-797.04 223,-784.8"/>
<polygon fill="black" stroke="black" points="226.5,-785.01 223,-775.01 219.5,-785.01 226.5,-785.01"/>
</g>
<!-- p19 -->
<g id="node21" class="node">
<title>p19</title>
<path fill="lightblue" stroke="black" d="M188,-83.5C188,-83.5 220,-83.5 220,-83.5 226,-83.5 232,-89.5 232,-95.5 232,-95.5 232,-209.5 232,-209.5 232,-215.5 226,-221.5 220,-221.5 220,-221.5 188,-221.5 188,-221.5 182,-221.5 176,-215.5 176,-209.5 176,-209.5 176,-95.5 176,-95.5 176,-89.5 182,-83.5 188,-83.5"/>
<text text-anchor="middle" x="204" y="-206.3" font-family="Times,serif" font-size="14.00">Tag : 0</text>
<polyline fill="none" stroke="black" points="176,-198.5 232,-198.5"/>
<text text-anchor="middle" x="204" y="-183.3" font-family="Times,serif" font-size="14.00">.</text>
<polyline fill="none" stroke="black" points="176,-175.5 232,-175.5"/>
<text text-anchor="middle" x="204" y="-160.3" font-family="Times,serif" font-size="14.00">1</text>
<polyline fill="none" stroke="black" points="176,-152.5 232,-152.5"/>
<text text-anchor="middle" x="204" y="-137.3" font-family="Times,serif" font-size="14.00">1</text>
<polyline fill="none" stroke="black" points="176,-129.5 232,-129.5"/>
<text text-anchor="middle" x="204" y="-114.3" font-family="Times,serif" font-size="14.00">1</text>
<polyline fill="none" stroke="black" points="176,-106.5 232,-106.5"/>
<text text-anchor="middle" x="204" y="-91.3" font-family="Times,serif" font-size="14.00">4</text>
</g>
<!-- p18&#45;&gt;p19 -->
<g id="edge19" class="edge">
<title>p18:f0&#45;&gt;p19:head</title>
<path fill="none" stroke="black" d="M149,-831C149,-732.47 158,-708.03 158,-609.5 158,-609.5 158,-609.5 158,-478.5 158,-380.14 141.91,-349.89 177,-258 182.46,-243.69 195.39,-241.92 201.15,-232.89"/>
<polygon fill="black" stroke="black" points="204.47,-234.02 203.62,-223.46 197.7,-232.25 204.47,-234.02"/>
</g>
<!-- p19&#45;&gt;p7 -->
<g id="edge20" class="edge">
<title>p19:f0&#45;&gt;p7:head</title>
<path fill="none" stroke="black" d="M233,-187.5C246.56,-187.5 242.62,-93.6 241.33,-58.46"/>
<polygon fill="black" stroke="black" points="244.83,-58.41 241.04,-48.51 237.83,-58.61 244.83,-58.41"/>
</g>
<!-- p8&#45;&gt;p9 -->
<g id="edge23" class="edge">
<title>p8:f0&#45;&gt;p9:head</title>
<path fill="none" stroke="black" d="M252,-737.5C300.31,-737.5 276.25,-658.29 312.69,-645.29"/>
<polygon fill="black" stroke="black" points="313.18,-648.76 322.51,-643.74 312.08,-641.85 313.18,-648.76"/>
</g>
<!-- p13 -->
<g id="node23" class="node">
<title>p13</title>
<path fill="lightblue" stroke="black" d="M207,-574C207,-574 239,-574 239,-574 245,-574 251,-580 251,-586 251,-586 251,-631 251,-631 251,-637 245,-643 239,-643 239,-643 207,-643 207,-643 201,-643 195,-637 195,-631 195,-631 195,-586 195,-586 195,-580 201,-574 207,-574"/>
<text text-anchor="middle" x="223" y="-627.8" font-family="Times,serif" font-size="14.00">Tag : 0</text>
<polyline fill="none" stroke="black" points="195,-620 251,-620"/>
<text text-anchor="middle" x="223" y="-604.8" font-family="Times,serif" font-size="14.00">.</text>
<polyline fill="none" stroke="black" points="195,-597 251,-597"/>
<text text-anchor="middle" x="223" y="-581.8" font-family="Times,serif" font-size="14.00">0</text>
</g>
<!-- p8&#45;&gt;p13 -->
<g id="edge24" class="edge">
<title>p8:f1&#45;&gt;p13:head</title>
<path fill="none" stroke="black" d="M223,-701.5C223,-680.32 223,-672.42 223,-655.6"/>
<polygon fill="black" stroke="black" points="226.5,-656.01 223,-646.01 219.5,-656.01 226.5,-656.01"/>
</g>
<!-- p13&#45;&gt;p14 -->
<g id="edge25" class="edge">
<title>p13:f0&#45;&gt;p14:head</title>
<path fill="none" stroke="black" d="M252,-608.5C267.56,-608.5 255.31,-588.45 251,-573.5 245.43,-554.18 230.16,-551.09 224.85,-537.07"/>
<polygon fill="black" stroke="black" points="228.35,-536.78 223.25,-527.49 221.44,-537.93 228.35,-536.78"/>
</g>
</g>
</svg>
