<?xml version="1.0" encoding="UTF-8" standalone="no"?>
<!DOCTYPE svg PUBLIC "-//W3C//DTD SVG 1.1//EN"
 "http://www.w3.org/Graphics/SVG/1.1/DTD/svg11.dtd">
<!-- Generated by graphviz version 7.0.4 (0)
 -->
<!-- Title: g Pages: 1 -->
<svg width="695pt" height="442pt"
 viewBox="0.00 0.00 695.00 442.00" xmlns="http://www.w3.org/2000/svg" xmlns:xlink="http://www.w3.org/1999/xlink">
<g id="graph0" class="graph" transform="scale(1 1) rotate(0) translate(4 438)">
<title>g</title>
<!-- entry_2 -->
<g id="node1" class="node">
<title>entry_2</title>
<polygon fill="yellow" stroke="black" points="269.5,-387.5 269.5,-433.5 455.5,-433.5 455.5,-387.5 269.5,-387.5"/>
<text text-anchor="middle" x="362.5" y="-418.3" font-family="Times,serif" font-size="14.00">val : { h = 0; foo; bar; i = 9.; }</text>
<polyline fill="none" stroke="black" points="269.5,-410.5 455.5,-410.5"/>
<text text-anchor="middle" x="362.5" y="-395.3" font-family="Times,serif" font-size="14.00">.</text>
</g>
<!-- p1 -->
<g id="node7" class="node">
<title>p1</title>
<path fill="lightblue" stroke="black" d="M346.5,-235.5C346.5,-235.5 378.5,-235.5 378.5,-235.5 384.5,-235.5 390.5,-241.5 390.5,-247.5 390.5,-247.5 390.5,-338.5 390.5,-338.5 390.5,-344.5 384.5,-350.5 378.5,-350.5 378.5,-350.5 346.5,-350.5 346.5,-350.5 340.5,-350.5 334.5,-344.5 334.5,-338.5 334.5,-338.5 334.5,-247.5 334.5,-247.5 334.5,-241.5 340.5,-235.5 346.5,-235.5"/>
<text text-anchor="middle" x="362.5" y="-335.3" font-family="Times,serif" font-size="14.00">Tag : 0</text>
<polyline fill="none" stroke="black" points="334.5,-327.5 390.5,-327.5"/>
<text text-anchor="middle" x="362.5" y="-312.3" font-family="Times,serif" font-size="14.00">0</text>
<polyline fill="none" stroke="black" points="334.5,-304.5 390.5,-304.5"/>
<text text-anchor="middle" x="362.5" y="-289.3" font-family="Times,serif" font-size="14.00">.</text>
<polyline fill="none" stroke="black" points="334.5,-281.5 390.5,-281.5"/>
<text text-anchor="middle" x="362.5" y="-266.3" font-family="Times,serif" font-size="14.00">.</text>
<polyline fill="none" stroke="black" points="334.5,-258.5 390.5,-258.5"/>
<text text-anchor="middle" x="362.5" y="-243.3" font-family="Times,serif" font-size="14.00">.</text>
</g>
<!-- entry_2&#45;&gt;p1 -->
<g id="edge4" class="edge">
<title>entry_2&#45;&gt;p1:head</title>
<path fill="none" stroke="black" d="M362.5,-387.55C362.5,-379.92 362.5,-371.07 362.5,-362.33"/>
<polygon fill="black" stroke="black" points="366,-362.51 362.5,-352.51 359,-362.51 366,-362.51"/>
</g>
<!-- entry_1 -->
<g id="node2" class="node">
<title>entry_1</title>
<polygon fill="yellow" stroke="black" points="474,-387.5 474,-433.5 687,-433.5 687,-387.5 474,-387.5"/>
<text text-anchor="middle" x="580.5" y="-418.3" font-family="Times,serif" font-size="14.00">val : bar = { e = 5.; f = 7.; g = 8.; }</text>
<polyline fill="none" stroke="black" points="474,-410.5 687,-410.5"/>
<text text-anchor="middle" x="580.5" y="-395.3" font-family="Times,serif" font-size="14.00">.</text>
</g>
<!-- p4 -->
<g id="node6" class="node">
<title>p4</title>
<path fill="lightblue" stroke="black" d="M493,-95C493,-95 538,-95 538,-95 544,-95 550,-101 550,-107 550,-107 550,-175 550,-175 550,-181 544,-187 538,-187 538,-187 493,-187 493,-187 487,-187 481,-181 481,-175 481,-175 481,-107 481,-107 481,-101 487,-95 493,-95"/>
<text text-anchor="middle" x="515.5" y="-171.8" font-family="Times,serif" font-size="14.00">Tag : 254</text>
<polyline fill="none" stroke="black" points="481,-164 550,-164"/>
<text text-anchor="middle" x="515.5" y="-148.8" font-family="Times,serif" font-size="14.00">5.000000</text>
<polyline fill="none" stroke="black" points="481,-141 550,-141"/>
<text text-anchor="middle" x="515.5" y="-125.8" font-family="Times,serif" font-size="14.00">7.000000</text>
<polyline fill="none" stroke="black" points="481,-118 550,-118"/>
<text text-anchor="middle" x="515.5" y="-102.8" font-family="Times,serif" font-size="14.00">8.000000</text>
</g>
<!-- entry_1&#45;&gt;p4 -->
<g id="edge3" class="edge">
<title>entry_1&#45;&gt;p4:head</title>
<path fill="none" stroke="black" d="M586.9,-387.53C601.93,-332.13 633.15,-190.17 562.65,-176.99"/>
<polygon fill="black" stroke="black" points="563.28,-173.53 553.01,-176.13 562.66,-180.5 563.28,-173.53"/>
</g>
<!-- entry_0 -->
<g id="node3" class="node">
<title>entry_0</title>
<polygon fill="yellow" stroke="black" points="0,-387.5 0,-433.5 251,-433.5 251,-387.5 0,-387.5"/>
<text text-anchor="middle" x="125.5" y="-418.3" font-family="Times,serif" font-size="14.00">val : foo = { a = 1; b = 42.; c = 2; d = 3; }</text>
<polyline fill="none" stroke="black" points="0,-410.5 251,-410.5"/>
<text text-anchor="middle" x="125.5" y="-395.3" font-family="Times,serif" font-size="14.00">.</text>
</g>
<!-- p2 -->
<g id="node4" class="node">
<title>p2</title>
<path fill="lightblue" stroke="black" d="M187.5,-83.5C187.5,-83.5 219.5,-83.5 219.5,-83.5 225.5,-83.5 231.5,-89.5 231.5,-95.5 231.5,-95.5 231.5,-186.5 231.5,-186.5 231.5,-192.5 225.5,-198.5 219.5,-198.5 219.5,-198.5 187.5,-198.5 187.5,-198.5 181.5,-198.5 175.5,-192.5 175.5,-186.5 175.5,-186.5 175.5,-95.5 175.5,-95.5 175.5,-89.5 181.5,-83.5 187.5,-83.5"/>
<text text-anchor="middle" x="203.5" y="-183.3" font-family="Times,serif" font-size="14.00">Tag : 0</text>
<polyline fill="none" stroke="black" points="175.5,-175.5 231.5,-175.5"/>
<text text-anchor="middle" x="203.5" y="-160.3" font-family="Times,serif" font-size="14.00">1</text>
<polyline fill="none" stroke="black" points="175.5,-152.5 231.5,-152.5"/>
<text text-anchor="middle" x="203.5" y="-137.3" font-family="Times,serif" font-size="14.00">.</text>
<polyline fill="none" stroke="black" points="175.5,-129.5 231.5,-129.5"/>
<text text-anchor="middle" x="203.5" y="-114.3" font-family="Times,serif" font-size="14.00">2</text>
<polyline fill="none" stroke="black" points="175.5,-106.5 231.5,-106.5"/>
<text text-anchor="middle" x="203.5" y="-91.3" font-family="Times,serif" font-size="14.00">3</text>
</g>
<!-- entry_0&#45;&gt;p2 -->
<g id="edge1" class="edge">
<title>entry_0&#45;&gt;p2:head</title>
<path fill="none" stroke="black" d="M121.13,-387.76C111.52,-334.51 94.58,-200.93 163.24,-188.01"/>
<polygon fill="black" stroke="black" points="163.34,-191.51 172.99,-187.13 162.72,-184.54 163.34,-191.51"/>
</g>
<!-- p3 -->
<g id="node5" class="node">
<title>p3</title>
<path fill="lightblue" stroke="black" d="M178.5,-0.5C178.5,-0.5 228.5,-0.5 228.5,-0.5 234.5,-0.5 240.5,-6.5 240.5,-12.5 240.5,-12.5 240.5,-34.5 240.5,-34.5 240.5,-40.5 234.5,-46.5 228.5,-46.5 228.5,-46.5 178.5,-46.5 178.5,-46.5 172.5,-46.5 166.5,-40.5 166.5,-34.5 166.5,-34.5 166.5,-12.5 166.5,-12.5 166.5,-6.5 172.5,-0.5 178.5,-0.5"/>
<text text-anchor="middle" x="203.5" y="-31.3" font-family="Times,serif" font-size="14.00">Tag : 253</text>
<polyline fill="none" stroke="black" points="166.5,-23.5 240.5,-23.5"/>
<text text-anchor="middle" x="203.5" y="-8.3" font-family="Times,serif" font-size="14.00">42.000000</text>
</g>
<!-- p2&#45;&gt;p3 -->
<g id="edge2" class="edge">
<title>p2:f1&#45;&gt;p3:head</title>
<path fill="none" stroke="black" d="M232.5,-141C287.87,-141 229.78,-80.61 209.75,-56.3"/>
<polygon fill="black" stroke="black" points="212.83,-54.6 204.34,-48.26 207.02,-58.51 212.83,-54.6"/>
</g>
<!-- p1&#45;&gt;p2 -->
<g id="edge5" class="edge">
<title>p1:f1&#45;&gt;p2:head</title>
<path fill="none" stroke="black" d="M333.5,-293C272.49,-293 294.3,-199.84 243.64,-188.19"/>
<polygon fill="black" stroke="black" points="244.32,-184.74 234,-187.16 243.58,-191.7 244.32,-184.74"/>
</g>
<!-- p1&#45;&gt;p4 -->
<g id="edge6" class="edge">
<title>p1:f2&#45;&gt;p4:head</title>
<path fill="none" stroke="black" d="M391.5,-270C444.59,-270 425.66,-189.1 468.34,-177.4"/>
<polygon fill="black" stroke="black" points="468.51,-180.91 478,-176.19 467.64,-173.96 468.51,-180.91"/>
</g>
<!-- p5 -->
<g id="node8" class="node">
<title>p5</title>
<path fill="lightblue" stroke="black" d="M340,-118C340,-118 385,-118 385,-118 391,-118 397,-124 397,-130 397,-130 397,-152 397,-152 397,-158 391,-164 385,-164 385,-164 340,-164 340,-164 334,-164 328,-158 328,-152 328,-152 328,-130 328,-130 328,-124 334,-118 340,-118"/>
<text text-anchor="middle" x="362.5" y="-148.8" font-family="Times,serif" font-size="14.00">Tag : 253</text>
<polyline fill="none" stroke="black" points="328,-141 397,-141"/>
<text text-anchor="middle" x="362.5" y="-125.8" font-family="Times,serif" font-size="14.00">9.000000</text>
</g>
<!-- p1&#45;&gt;p5 -->
<g id="edge7" class="edge">
<title>p1:f3&#45;&gt;p5:head</title>
<path fill="none" stroke="black" d="M362.5,-235C362.5,-208.02 362.5,-198.59 362.5,-176.27"/>
<polygon fill="black" stroke="black" points="366,-176.51 362.5,-166.51 359,-176.51 366,-176.51"/>
</g>
</g>
</svg>
