<?xml version="1.0" encoding="UTF-8" standalone="no"?>
<!DOCTYPE svg PUBLIC "-//W3C//DTD SVG 1.1//EN"
 "http://www.w3.org/Graphics/SVG/1.1/DTD/svg11.dtd">
<!-- Generated by graphviz version 2.44.1 (0)
 -->
<!-- Title: g Pages: 1 -->
<svg width="727pt" height="373pt"
 viewBox="0.00 0.00 727.00 373.00" xmlns="http://www.w3.org/2000/svg" xmlns:xlink="http://www.w3.org/1999/xlink">
<g id="graph0" class="graph" transform="scale(1 1) rotate(0) translate(4 369)">
<title>g</title>
<polygon fill="white" stroke="transparent" points="-4,4 -4,-369 723,-369 723,4 -4,4"/>
<!-- entry_0 -->
<g id="node1" class="node">
<title>entry_0</title>
<polygon fill="yellow" stroke="black" points="64.5,-318.5 64.5,-364.5 186.5,-364.5 186.5,-318.5 64.5,-318.5"/>
<text text-anchor="middle" x="125.5" y="-349.3" font-family="Times,serif" font-size="14.00">val : Exception</text>
<polyline fill="none" stroke="black" points="64.5,-341.5 186.5,-341.5 "/>
<text text-anchor="middle" x="125.5" y="-326.3" font-family="Times,serif" font-size="14.00">.</text>
</g>
<!-- p8 -->
<g id="node5" class="node">
<title>p8</title>
<path fill="lightblue" stroke="black" d="M96,-201C96,-201 155,-201 155,-201 161,-201 167,-207 167,-213 167,-213 167,-258 167,-258 167,-264 161,-270 155,-270 155,-270 96,-270 96,-270 90,-270 84,-264 84,-258 84,-258 84,-213 84,-213 84,-207 90,-201 96,-201"/>
<text text-anchor="middle" x="125.5" y="-254.8" font-family="Times,serif" font-size="14.00">Tag : 248</text>
<polyline fill="none" stroke="black" points="84,-247 167,-247 "/>
<text text-anchor="middle" x="125.5" y="-231.8" font-family="Times,serif" font-size="14.00">.</text>
<polyline fill="none" stroke="black" points="84,-224 167,-224 "/>
<text text-anchor="middle" x="125.5" y="-208.8" font-family="Times,serif" font-size="14.00">9</text>
</g>
<!-- entry_0&#45;&gt;p8 -->
<g id="edge1" class="edge">
<title>entry_0&#45;&gt;p8:head</title>
<path fill="none" stroke="black" d="M125.5,-318.44C125.5,-307.75 125.5,-294.48 125.5,-281.64"/>
<polygon fill="black" stroke="black" points="129,-281.5 125.5,-271.5 122,-281.5 129,-281.5"/>
</g>
<!-- entry_1 -->
<g id="node2" class="node">
<title>entry_1</title>
<polygon fill="yellow" stroke="black" points="221,-318.5 221,-364.5 338,-364.5 338,-318.5 221,-318.5"/>
<text text-anchor="middle" x="279.5" y="-349.3" font-family="Times,serif" font-size="14.00">val : Exc_int 0</text>
<polyline fill="none" stroke="black" points="221,-341.5 338,-341.5 "/>
<text text-anchor="middle" x="279.5" y="-326.3" font-family="Times,serif" font-size="14.00">.</text>
</g>
<!-- p7 -->
<g id="node7" class="node">
<title>p7</title>
<path fill="lightblue" stroke="black" d="M274,-201C274,-201 315,-201 315,-201 321,-201 327,-207 327,-213 327,-213 327,-258 327,-258 327,-264 321,-270 315,-270 315,-270 274,-270 274,-270 268,-270 262,-264 262,-258 262,-258 262,-213 262,-213 262,-207 268,-201 274,-201"/>
<text text-anchor="middle" x="294.5" y="-254.8" font-family="Times,serif" font-size="14.00">Tag : 0</text>
<polyline fill="none" stroke="black" points="262,-247 327,-247 "/>
<text text-anchor="middle" x="294.5" y="-231.8" font-family="Times,serif" font-size="14.00">.</text>
<polyline fill="none" stroke="black" points="262,-224 327,-224 "/>
<text text-anchor="middle" x="294.5" y="-208.8" font-family="Times,serif" font-size="14.00">0</text>
</g>
<!-- entry_1&#45;&gt;p7 -->
<g id="edge3" class="edge">
<title>entry_1&#45;&gt;p7:head</title>
<path fill="none" stroke="black" d="M286.82,-318.39C289.83,-307.81 292.87,-294.65 294.02,-281.75"/>
<polygon fill="black" stroke="black" points="297.53,-281.65 294.5,-271.5 290.54,-281.33 297.53,-281.65"/>
</g>
<!-- entry_2 -->
<g id="node3" class="node">
<title>entry_2</title>
<polygon fill="yellow" stroke="black" points="356,-318.5 356,-364.5 491,-364.5 491,-318.5 356,-318.5"/>
<text text-anchor="middle" x="423.5" y="-349.3" font-family="Times,serif" font-size="14.00">val : Exc_int 123</text>
<polyline fill="none" stroke="black" points="356,-341.5 491,-341.5 "/>
<text text-anchor="middle" x="423.5" y="-326.3" font-family="Times,serif" font-size="14.00">.</text>
</g>
<!-- p4 -->
<g id="node10" class="node">
<title>p4</title>
<path fill="lightblue" stroke="black" d="M373,-201C373,-201 414,-201 414,-201 420,-201 426,-207 426,-213 426,-213 426,-258 426,-258 426,-264 420,-270 414,-270 414,-270 373,-270 373,-270 367,-270 361,-264 361,-258 361,-258 361,-213 361,-213 361,-207 367,-201 373,-201"/>
<text text-anchor="middle" x="393.5" y="-254.8" font-family="Times,serif" font-size="14.00">Tag : 0</text>
<polyline fill="none" stroke="black" points="361,-247 426,-247 "/>
<text text-anchor="middle" x="393.5" y="-231.8" font-family="Times,serif" font-size="14.00">.</text>
<polyline fill="none" stroke="black" points="361,-224 426,-224 "/>
<text text-anchor="middle" x="393.5" y="-208.8" font-family="Times,serif" font-size="14.00">123</text>
</g>
<!-- entry_2&#45;&gt;p4 -->
<g id="edge6" class="edge">
<title>entry_2&#45;&gt;p4:head</title>
<path fill="none" stroke="black" d="M408.32,-318.23C402.39,-307.85 396.5,-294.87 394.35,-281.64"/>
<polygon fill="black" stroke="black" points="397.83,-281.17 393.5,-271.5 390.85,-281.76 397.83,-281.17"/>
</g>
<!-- entry_3 -->
<g id="node4" class="node">
<title>entry_3</title>
<polygon fill="yellow" stroke="black" points="524.5,-318.5 524.5,-364.5 654.5,-364.5 654.5,-318.5 524.5,-318.5"/>
<text text-anchor="middle" x="589.5" y="-349.3" font-family="Times,serif" font-size="14.00">val : Exc_int_int</text>
<polyline fill="none" stroke="black" points="524.5,-341.5 654.5,-341.5 "/>
<text text-anchor="middle" x="589.5" y="-326.3" font-family="Times,serif" font-size="14.00">.</text>
</g>
<!-- p1 -->
<g id="node11" class="node">
<title>p1</title>
<path fill="lightblue" stroke="black" d="M569,-189.5C569,-189.5 610,-189.5 610,-189.5 616,-189.5 622,-195.5 622,-201.5 622,-201.5 622,-269.5 622,-269.5 622,-275.5 616,-281.5 610,-281.5 610,-281.5 569,-281.5 569,-281.5 563,-281.5 557,-275.5 557,-269.5 557,-269.5 557,-201.5 557,-201.5 557,-195.5 563,-189.5 569,-189.5"/>
<text text-anchor="middle" x="589.5" y="-266.3" font-family="Times,serif" font-size="14.00">Tag : 0</text>
<polyline fill="none" stroke="black" points="557,-258.5 622,-258.5 "/>
<text text-anchor="middle" x="589.5" y="-243.3" font-family="Times,serif" font-size="14.00">.</text>
<polyline fill="none" stroke="black" points="557,-235.5 622,-235.5 "/>
<text text-anchor="middle" x="589.5" y="-220.3" font-family="Times,serif" font-size="14.00">456</text>
<polyline fill="none" stroke="black" points="557,-212.5 622,-212.5 "/>
<text text-anchor="middle" x="589.5" y="-197.3" font-family="Times,serif" font-size="14.00">789</text>
</g>
<!-- entry_3&#45;&gt;p1 -->
<g id="edge8" class="edge">
<title>entry_3&#45;&gt;p1:head</title>
<path fill="none" stroke="black" d="M589.5,-318.28C589.5,-310.34 589.5,-301.11 589.5,-292.06"/>
<polygon fill="black" stroke="black" points="593,-292 589.5,-282 586,-292 593,-292"/>
</g>
<!-- p9 -->
<g id="node6" class="node">
<title>p9</title>
<path fill="lightblue" stroke="black" d="M12,-95C12,-95 239,-95 239,-95 245,-95 251,-101 251,-107 251,-107 251,-129 251,-129 251,-135 245,-141 239,-141 239,-141 12,-141 12,-141 6,-141 0,-135 0,-129 0,-129 0,-107 0,-107 0,-101 6,-95 12,-95"/>
<text text-anchor="middle" x="125.5" y="-125.8" font-family="Times,serif" font-size="14.00">Tag : 252</text>
<polyline fill="none" stroke="black" points="0,-118 251,-118 "/>
<text text-anchor="middle" x="125.5" y="-102.8" font-family="Times,serif" font-size="14.00">&#39;Dune__exe__Example.Exception&#39;</text>
</g>
<!-- p8&#45;&gt;p9 -->
<g id="edge2" class="edge">
<title>p8:f0&#45;&gt;p9:head</title>
<path fill="none" stroke="black" d="M168.5,-235.5C184.06,-235.5 172.48,-215.24 167.5,-200.5 158.5,-173.85 132.88,-173.58 126.8,-152.18"/>
<polygon fill="black" stroke="black" points="130.24,-151.47 125.5,-142 123.3,-152.36 130.24,-151.47"/>
</g>
<!-- p5 -->
<g id="node8" class="node">
<title>p5</title>
<path fill="lightblue" stroke="black" d="M281,-83.5C281,-83.5 340,-83.5 340,-83.5 346,-83.5 352,-89.5 352,-95.5 352,-95.5 352,-140.5 352,-140.5 352,-146.5 346,-152.5 340,-152.5 340,-152.5 281,-152.5 281,-152.5 275,-152.5 269,-146.5 269,-140.5 269,-140.5 269,-95.5 269,-95.5 269,-89.5 275,-83.5 281,-83.5"/>
<text text-anchor="middle" x="310.5" y="-137.3" font-family="Times,serif" font-size="14.00">Tag : 248</text>
<polyline fill="none" stroke="black" points="269,-129.5 352,-129.5 "/>
<text text-anchor="middle" x="310.5" y="-114.3" font-family="Times,serif" font-size="14.00">.</text>
<polyline fill="none" stroke="black" points="269,-106.5 352,-106.5 "/>
<text text-anchor="middle" x="310.5" y="-91.3" font-family="Times,serif" font-size="14.00">10</text>
</g>
<!-- p7&#45;&gt;p5 -->
<g id="edge4" class="edge">
<title>p7:f0&#45;&gt;p5:head</title>
<path fill="none" stroke="black" d="M328.5,-235.5C344.06,-235.5 330.38,-215.79 327.5,-200.5 324.06,-182.25 314.66,-177.03 311.53,-163.04"/>
<polygon fill="black" stroke="black" points="315,-162.59 310.5,-153 308.04,-163.3 315,-162.59"/>
</g>
<!-- p6 -->
<g id="node9" class="node">
<title>p6</title>
<path fill="lightblue" stroke="black" d="M206,-0.5C206,-0.5 415,-0.5 415,-0.5 421,-0.5 427,-6.5 427,-12.5 427,-12.5 427,-34.5 427,-34.5 427,-40.5 421,-46.5 415,-46.5 415,-46.5 206,-46.5 206,-46.5 200,-46.5 194,-40.5 194,-34.5 194,-34.5 194,-12.5 194,-12.5 194,-6.5 200,-0.5 206,-0.5"/>
<text text-anchor="middle" x="310.5" y="-31.3" font-family="Times,serif" font-size="14.00">Tag : 252</text>
<polyline fill="none" stroke="black" points="194,-23.5 427,-23.5 "/>
<text text-anchor="middle" x="310.5" y="-8.3" font-family="Times,serif" font-size="14.00">&#39;Dune__exe__Example.Exc_int&#39;</text>
</g>
<!-- p5&#45;&gt;p6 -->
<g id="edge5" class="edge">
<title>p5:f0&#45;&gt;p6:head</title>
<path fill="none" stroke="black" d="M353.5,-118C369.06,-118 359.2,-97.04 352.5,-83 343.73,-64.63 320.68,-68.86 313.02,-56.89"/>
<polygon fill="black" stroke="black" points="316.36,-55.83 310.5,-47 309.58,-57.55 316.36,-55.83"/>
</g>
<!-- p4&#45;&gt;p5 -->
<g id="edge7" class="edge">
<title>p4:f0&#45;&gt;p5:head</title>
<path fill="none" stroke="black" d="M359.5,-235.5C322.02,-235.5 379.92,-160.54 363.31,-144.14"/>
<polygon fill="black" stroke="black" points="364.09,-140.72 353.5,-141 361.95,-147.39 364.09,-140.72"/>
</g>
<!-- p2 -->
<g id="node12" class="node">
<title>p2</title>
<path fill="lightblue" stroke="black" d="M560,-83.5C560,-83.5 619,-83.5 619,-83.5 625,-83.5 631,-89.5 631,-95.5 631,-95.5 631,-140.5 631,-140.5 631,-146.5 625,-152.5 619,-152.5 619,-152.5 560,-152.5 560,-152.5 554,-152.5 548,-146.5 548,-140.5 548,-140.5 548,-95.5 548,-95.5 548,-89.5 554,-83.5 560,-83.5"/>
<text text-anchor="middle" x="589.5" y="-137.3" font-family="Times,serif" font-size="14.00">Tag : 248</text>
<polyline fill="none" stroke="black" points="548,-129.5 631,-129.5 "/>
<text text-anchor="middle" x="589.5" y="-114.3" font-family="Times,serif" font-size="14.00">.</text>
<polyline fill="none" stroke="black" points="548,-106.5 631,-106.5 "/>
<text text-anchor="middle" x="589.5" y="-91.3" font-family="Times,serif" font-size="14.00">11</text>
</g>
<!-- p1&#45;&gt;p2 -->
<g id="edge9" class="edge">
<title>p1:f0&#45;&gt;p2:head</title>
<path fill="none" stroke="black" d="M623.5,-247.5C649.5,-247.5 632.13,-213.15 622.5,-189 616.03,-172.78 598.6,-173.41 592.04,-162.96"/>
<polygon fill="black" stroke="black" points="595.37,-161.82 589.5,-153 588.58,-163.56 595.37,-161.82"/>
</g>
<!-- p3 -->
<g id="node13" class="node">
<title>p3</title>
<path fill="lightblue" stroke="black" d="M472,-0.5C472,-0.5 707,-0.5 707,-0.5 713,-0.5 719,-6.5 719,-12.5 719,-12.5 719,-34.5 719,-34.5 719,-40.5 713,-46.5 707,-46.5 707,-46.5 472,-46.5 472,-46.5 466,-46.5 460,-40.5 460,-34.5 460,-34.5 460,-12.5 460,-12.5 460,-6.5 466,-0.5 472,-0.5"/>
<text text-anchor="middle" x="589.5" y="-31.3" font-family="Times,serif" font-size="14.00">Tag : 252</text>
<polyline fill="none" stroke="black" points="460,-23.5 719,-23.5 "/>
<text text-anchor="middle" x="589.5" y="-8.3" font-family="Times,serif" font-size="14.00">&#39;Dune__exe__Example.Exc_int_int&#39;</text>
</g>
<!-- p2&#45;&gt;p3 -->
<g id="edge10" class="edge">
<title>p2:f0&#45;&gt;p3:head</title>
<path fill="none" stroke="black" d="M632.5,-118C648.06,-118 638.2,-97.04 631.5,-83 622.73,-64.63 599.68,-68.86 592.02,-56.89"/>
<polygon fill="black" stroke="black" points="595.36,-55.83 589.5,-47 588.58,-57.55 595.36,-55.83"/>
</g>
</g>
</svg>
