<?xml version="1.0" encoding="UTF-8" standalone="no"?>
<!DOCTYPE svg PUBLIC "-//W3C//DTD SVG 1.1//EN"
 "http://www.w3.org/Graphics/SVG/1.1/DTD/svg11.dtd">
<!-- Generated by graphviz version 7.1.0 (0)
 -->
<!-- Title: g Pages: 1 -->
<svg width="634pt" height="373pt"
 viewBox="0.00 0.00 633.50 373.00" xmlns="http://www.w3.org/2000/svg" xmlns:xlink="http://www.w3.org/1999/xlink">
<g id="graph0" class="graph" transform="scale(1 1) rotate(0) translate(4 369)">
<title>g</title>
<!-- entry_3 -->
<g id="node1" class="node">
<title>entry_3</title>
<polygon fill="yellow" stroke="black" points="52.5,-318.5 52.5,-364.5 159.5,-364.5 159.5,-318.5 52.5,-318.5"/>
<text text-anchor="middle" x="106" y="-349.3" font-family="Times,serif" font-size="14.00">val : Exc_int_int</text>
<polyline fill="none" stroke="black" points="52.5,-341.5 159.5,-341.5"/>
<text text-anchor="middle" x="106" y="-326.3" font-family="Times,serif" font-size="14.00">.</text>
</g>
<!-- p1 -->
<g id="node11" class="node">
<title>p1</title>
<path fill="lightblue" stroke="black" d="M90,-189.5C90,-189.5 122,-189.5 122,-189.5 128,-189.5 134,-195.5 134,-201.5 134,-201.5 134,-269.5 134,-269.5 134,-275.5 128,-281.5 122,-281.5 122,-281.5 90,-281.5 90,-281.5 84,-281.5 78,-275.5 78,-269.5 78,-269.5 78,-201.5 78,-201.5 78,-195.5 84,-189.5 90,-189.5"/>
<text text-anchor="middle" x="106" y="-266.3" font-family="Times,serif" font-size="14.00">Tag : 0</text>
<polyline fill="none" stroke="black" points="78,-258.5 134,-258.5"/>
<text text-anchor="middle" x="106" y="-243.3" font-family="Times,serif" font-size="14.00">.</text>
<polyline fill="none" stroke="black" points="78,-235.5 134,-235.5"/>
<text text-anchor="middle" x="106" y="-220.3" font-family="Times,serif" font-size="14.00">456</text>
<polyline fill="none" stroke="black" points="78,-212.5 134,-212.5"/>
<text text-anchor="middle" x="106" y="-197.3" font-family="Times,serif" font-size="14.00">789</text>
</g>
<!-- entry_3&#45;&gt;p1 -->
<g id="edge8" class="edge">
<title>entry_3&#45;&gt;p1:head</title>
<path fill="none" stroke="black" d="M106,-318.55C106,-310.92 106,-302.07 106,-293.33"/>
<polygon fill="black" stroke="black" points="109.5,-293.51 106,-283.51 102.5,-293.51 109.5,-293.51"/>
</g>
<!-- entry_2 -->
<g id="node2" class="node">
<title>entry_2</title>
<polygon fill="yellow" stroke="black" points="227,-318.5 227,-364.5 337,-364.5 337,-318.5 227,-318.5"/>
<text text-anchor="middle" x="282" y="-349.3" font-family="Times,serif" font-size="14.00">val : Exc_int 123</text>
<polyline fill="none" stroke="black" points="227,-341.5 337,-341.5"/>
<text text-anchor="middle" x="282" y="-326.3" font-family="Times,serif" font-size="14.00">.</text>
</g>
<!-- p4 -->
<g id="node10" class="node">
<title>p4</title>
<path fill="lightblue" stroke="black" d="M281,-201C281,-201 313,-201 313,-201 319,-201 325,-207 325,-213 325,-213 325,-258 325,-258 325,-264 319,-270 313,-270 313,-270 281,-270 281,-270 275,-270 269,-264 269,-258 269,-258 269,-213 269,-213 269,-207 275,-201 281,-201"/>
<text text-anchor="middle" x="297" y="-254.8" font-family="Times,serif" font-size="14.00">Tag : 0</text>
<polyline fill="none" stroke="black" points="269,-247 325,-247"/>
<text text-anchor="middle" x="297" y="-231.8" font-family="Times,serif" font-size="14.00">.</text>
<polyline fill="none" stroke="black" points="269,-224 325,-224"/>
<text text-anchor="middle" x="297" y="-208.8" font-family="Times,serif" font-size="14.00">123</text>
</g>
<!-- entry_2&#45;&gt;p4 -->
<g id="edge6" class="edge">
<title>entry_2&#45;&gt;p4:head</title>
<path fill="none" stroke="black" d="M289.24,-318.7C292.17,-308.4 295.16,-295.62 296.4,-282.99"/>
<polygon fill="black" stroke="black" points="299.9,-283.18 296.92,-273.01 292.91,-282.82 299.9,-283.18"/>
</g>
<!-- entry_1 -->
<g id="node3" class="node">
<title>entry_1</title>
<polygon fill="yellow" stroke="black" points="355.5,-318.5 355.5,-364.5 452.5,-364.5 452.5,-318.5 355.5,-318.5"/>
<text text-anchor="middle" x="404" y="-349.3" font-family="Times,serif" font-size="14.00">val : Exc_int 0</text>
<polyline fill="none" stroke="black" points="355.5,-341.5 452.5,-341.5"/>
<text text-anchor="middle" x="404" y="-326.3" font-family="Times,serif" font-size="14.00">.</text>
</g>
<!-- p7 -->
<g id="node7" class="node">
<title>p7</title>
<path fill="lightblue" stroke="black" d="M371,-201C371,-201 403,-201 403,-201 409,-201 415,-207 415,-213 415,-213 415,-258 415,-258 415,-264 409,-270 403,-270 403,-270 371,-270 371,-270 365,-270 359,-264 359,-258 359,-258 359,-213 359,-213 359,-207 365,-201 371,-201"/>
<text text-anchor="middle" x="387" y="-254.8" font-family="Times,serif" font-size="14.00">Tag : 0</text>
<polyline fill="none" stroke="black" points="359,-247 415,-247"/>
<text text-anchor="middle" x="387" y="-231.8" font-family="Times,serif" font-size="14.00">.</text>
<polyline fill="none" stroke="black" points="359,-224 415,-224"/>
<text text-anchor="middle" x="387" y="-208.8" font-family="Times,serif" font-size="14.00">0</text>
</g>
<!-- entry_1&#45;&gt;p7 -->
<g id="edge3" class="edge">
<title>entry_1&#45;&gt;p7:head</title>
<path fill="none" stroke="black" d="M395.8,-318.77C392.44,-308.39 389.01,-295.46 387.63,-282.65"/>
<polygon fill="black" stroke="black" points="391.15,-282.8 387.09,-273.01 384.16,-283.19 391.15,-282.8"/>
</g>
<!-- entry_0 -->
<g id="node4" class="node">
<title>entry_0</title>
<polygon fill="yellow" stroke="black" points="474.5,-318.5 474.5,-364.5 573.5,-364.5 573.5,-318.5 474.5,-318.5"/>
<text text-anchor="middle" x="524" y="-349.3" font-family="Times,serif" font-size="14.00">val : Exception</text>
<polyline fill="none" stroke="black" points="474.5,-341.5 573.5,-341.5"/>
<text text-anchor="middle" x="524" y="-326.3" font-family="Times,serif" font-size="14.00">.</text>
</g>
<!-- p8 -->
<g id="node5" class="node">
<title>p8</title>
<path fill="lightblue" stroke="black" d="M501.5,-201C501.5,-201 546.5,-201 546.5,-201 552.5,-201 558.5,-207 558.5,-213 558.5,-213 558.5,-258 558.5,-258 558.5,-264 552.5,-270 546.5,-270 546.5,-270 501.5,-270 501.5,-270 495.5,-270 489.5,-264 489.5,-258 489.5,-258 489.5,-213 489.5,-213 489.5,-207 495.5,-201 501.5,-201"/>
<text text-anchor="middle" x="524" y="-254.8" font-family="Times,serif" font-size="14.00">Tag : 248</text>
<polyline fill="none" stroke="black" points="489.5,-247 558.5,-247"/>
<text text-anchor="middle" x="524" y="-231.8" font-family="Times,serif" font-size="14.00">.</text>
<polyline fill="none" stroke="black" points="489.5,-224 558.5,-224"/>
<text text-anchor="middle" x="524" y="-208.8" font-family="Times,serif" font-size="14.00">11</text>
</g>
<!-- entry_0&#45;&gt;p8 -->
<g id="edge1" class="edge">
<title>entry_0&#45;&gt;p8:head</title>
<path fill="none" stroke="black" d="M524,-318.75C524,-308.35 524,-295.45 524,-282.87"/>
<polygon fill="black" stroke="black" points="527.5,-283.01 524,-273.01 520.5,-283.01 527.5,-283.01"/>
</g>
<!-- p9 -->
<g id="node6" class="node">
<title>p9</title>
<path fill="lightblue" stroke="black" d="M434.5,-95C434.5,-95 613.5,-95 613.5,-95 619.5,-95 625.5,-101 625.5,-107 625.5,-107 625.5,-129 625.5,-129 625.5,-135 619.5,-141 613.5,-141 613.5,-141 434.5,-141 434.5,-141 428.5,-141 422.5,-135 422.5,-129 422.5,-129 422.5,-107 422.5,-107 422.5,-101 428.5,-95 434.5,-95"/>
<text text-anchor="middle" x="524" y="-125.8" font-family="Times,serif" font-size="14.00">Tag : 252</text>
<polyline fill="none" stroke="black" points="422.5,-118 625.5,-118"/>
<text text-anchor="middle" x="524" y="-102.8" font-family="Times,serif" font-size="14.00">&#39;Dune__exe__Example.Exception&#39;</text>
</g>
<!-- p8&#45;&gt;p9 -->
<g id="edge2" class="edge">
<title>p8:f0&#45;&gt;p9:head</title>
<path fill="none" stroke="black" d="M560,-235.5C575.56,-235.5 563.36,-215.44 559,-200.5 551.74,-175.62 531.29,-172.67 525.53,-153.37"/>
<polygon fill="black" stroke="black" points="529,-152.95 524.2,-143.5 522.06,-153.88 529,-152.95"/>
</g>
<!-- p5 -->
<g id="node8" class="node">
<title>p5</title>
<path fill="lightblue" stroke="black" d="M303.5,-83.5C303.5,-83.5 348.5,-83.5 348.5,-83.5 354.5,-83.5 360.5,-89.5 360.5,-95.5 360.5,-95.5 360.5,-140.5 360.5,-140.5 360.5,-146.5 354.5,-152.5 348.5,-152.5 348.5,-152.5 303.5,-152.5 303.5,-152.5 297.5,-152.5 291.5,-146.5 291.5,-140.5 291.5,-140.5 291.5,-95.5 291.5,-95.5 291.5,-89.5 297.5,-83.5 303.5,-83.5"/>
<text text-anchor="middle" x="326" y="-137.3" font-family="Times,serif" font-size="14.00">Tag : 248</text>
<polyline fill="none" stroke="black" points="291.5,-129.5 360.5,-129.5"/>
<text text-anchor="middle" x="326" y="-114.3" font-family="Times,serif" font-size="14.00">.</text>
<polyline fill="none" stroke="black" points="291.5,-106.5 360.5,-106.5"/>
<text text-anchor="middle" x="326" y="-91.3" font-family="Times,serif" font-size="14.00">12</text>
</g>
<!-- p7&#45;&gt;p5 -->
<g id="edge4" class="edge">
<title>p7:f0&#45;&gt;p5:head</title>
<path fill="none" stroke="black" d="M358,-235.5C321.55,-235.5 382.94,-164.43 372.47,-145.56"/>
<polygon fill="black" stroke="black" points="373.95,-142.39 363.39,-141.6 371.16,-148.8 373.95,-142.39"/>
</g>
<!-- p6 -->
<g id="node9" class="node">
<title>p6</title>
<path fill="lightblue" stroke="black" d="M242.5,-0.5C242.5,-0.5 409.5,-0.5 409.5,-0.5 415.5,-0.5 421.5,-6.5 421.5,-12.5 421.5,-12.5 421.5,-34.5 421.5,-34.5 421.5,-40.5 415.5,-46.5 409.5,-46.5 409.5,-46.5 242.5,-46.5 242.5,-46.5 236.5,-46.5 230.5,-40.5 230.5,-34.5 230.5,-34.5 230.5,-12.5 230.5,-12.5 230.5,-6.5 236.5,-0.5 242.5,-0.5"/>
<text text-anchor="middle" x="326" y="-31.3" font-family="Times,serif" font-size="14.00">Tag : 252</text>
<polyline fill="none" stroke="black" points="230.5,-23.5 421.5,-23.5"/>
<text text-anchor="middle" x="326" y="-8.3" font-family="Times,serif" font-size="14.00">&#39;Dune__exe__Example.Exc_int&#39;</text>
</g>
<!-- p5&#45;&gt;p6 -->
<g id="edge5" class="edge">
<title>p5:f0&#45;&gt;p6:head</title>
<path fill="none" stroke="black" d="M362,-118C377.56,-118 367.06,-97.33 361,-83 354.14,-66.78 336.32,-67.64 329.1,-57.76"/>
<polygon fill="black" stroke="black" points="332.55,-57.09 326.42,-48.45 325.82,-59.03 332.55,-57.09"/>
</g>
<!-- p4&#45;&gt;p5 -->
<g id="edge7" class="edge">
<title>p4:f0&#45;&gt;p5:head</title>
<path fill="none" stroke="black" d="M326,-235.5C358.94,-235.5 332.69,-198.5 327.02,-164.4"/>
<polygon fill="black" stroke="black" points="330.51,-164.16 326.13,-154.51 323.54,-164.78 330.51,-164.16"/>
</g>
<!-- p2 -->
<g id="node12" class="node">
<title>p2</title>
<path fill="lightblue" stroke="black" d="M83.5,-83.5C83.5,-83.5 128.5,-83.5 128.5,-83.5 134.5,-83.5 140.5,-89.5 140.5,-95.5 140.5,-95.5 140.5,-140.5 140.5,-140.5 140.5,-146.5 134.5,-152.5 128.5,-152.5 128.5,-152.5 83.5,-152.5 83.5,-152.5 77.5,-152.5 71.5,-146.5 71.5,-140.5 71.5,-140.5 71.5,-95.5 71.5,-95.5 71.5,-89.5 77.5,-83.5 83.5,-83.5"/>
<text text-anchor="middle" x="106" y="-137.3" font-family="Times,serif" font-size="14.00">Tag : 248</text>
<polyline fill="none" stroke="black" points="71.5,-129.5 140.5,-129.5"/>
<text text-anchor="middle" x="106" y="-114.3" font-family="Times,serif" font-size="14.00">.</text>
<polyline fill="none" stroke="black" points="71.5,-106.5 140.5,-106.5"/>
<text text-anchor="middle" x="106" y="-91.3" font-family="Times,serif" font-size="14.00">13</text>
</g>
<!-- p1&#45;&gt;p2 -->
<g id="edge9" class="edge">
<title>p1:f0&#45;&gt;p2:head</title>
<path fill="none" stroke="black" d="M135,-247.5C191.01,-247.5 132.49,-186.54 112.3,-162.23"/>
<polygon fill="black" stroke="black" points="115.38,-160.53 106.85,-154.25 109.6,-164.48 115.38,-160.53"/>
</g>
<!-- p3 -->
<g id="node13" class="node">
<title>p3</title>
<path fill="lightblue" stroke="black" d="M12,-0.5C12,-0.5 200,-0.5 200,-0.5 206,-0.5 212,-6.5 212,-12.5 212,-12.5 212,-34.5 212,-34.5 212,-40.5 206,-46.5 200,-46.5 200,-46.5 12,-46.5 12,-46.5 6,-46.5 0,-40.5 0,-34.5 0,-34.5 0,-12.5 0,-12.5 0,-6.5 6,-0.5 12,-0.5"/>
<text text-anchor="middle" x="106" y="-31.3" font-family="Times,serif" font-size="14.00">Tag : 252</text>
<polyline fill="none" stroke="black" points="0,-23.5 212,-23.5"/>
<text text-anchor="middle" x="106" y="-8.3" font-family="Times,serif" font-size="14.00">&#39;Dune__exe__Example.Exc_int_int&#39;</text>
</g>
<!-- p2&#45;&gt;p3 -->
<g id="edge10" class="edge">
<title>p2:f0&#45;&gt;p3:head</title>
<path fill="none" stroke="black" d="M142,-118C157.56,-118 147.06,-97.33 141,-83 134.14,-66.78 116.32,-67.64 109.1,-57.76"/>
<polygon fill="black" stroke="black" points="112.55,-57.09 106.42,-48.45 105.82,-59.03 112.55,-57.09"/>
</g>
</g>
</svg>
