<?xml version="1.0" encoding="UTF-8" standalone="no"?>
<!DOCTYPE svg PUBLIC "-//W3C//DTD SVG 1.1//EN"
 "http://www.w3.org/Graphics/SVG/1.1/DTD/svg11.dtd">
<!-- Generated by graphviz version 2.50.0 (0)
 -->
<!-- Title: g Pages: 1 -->
<svg width="534pt" height="317pt"
 viewBox="0.00 0.00 534.00 317.00" xmlns="http://www.w3.org/2000/svg" xmlns:xlink="http://www.w3.org/1999/xlink">
<g id="graph0" class="graph" transform="scale(1 1) rotate(0) translate(4 313)">
<title>g</title>
<polygon fill="white" stroke="transparent" points="-4,4 -4,-313 530,-313 530,4 -4,4"/>
<!-- entry_0 -->
<g id="node1" class="node">
<title>entry_0</title>
<polygon fill="yellow" stroke="black" points="49,-262.5 49,-308.5 186,-308.5 186,-262.5 49,-262.5"/>
<text text-anchor="middle" x="117.5" y="-293.3" font-family="Times,serif" font-size="14.00">val : lazy: 5 + 42</text>
<polyline fill="none" stroke="black" points="49,-285.5 186,-285.5 "/>
<text text-anchor="middle" x="117.5" y="-270.3" font-family="Times,serif" font-size="14.00">.</text>
</g>
<!-- p1 -->
<g id="node4" class="node">
<title>p1</title>
<path fill="lightblue" stroke="black" d="M88,-179.5C88,-179.5 147,-179.5 147,-179.5 153,-179.5 159,-185.5 159,-191.5 159,-191.5 159,-213.5 159,-213.5 159,-219.5 153,-225.5 147,-225.5 147,-225.5 88,-225.5 88,-225.5 82,-225.5 76,-219.5 76,-213.5 76,-213.5 76,-191.5 76,-191.5 76,-185.5 82,-179.5 88,-179.5"/>
<text text-anchor="middle" x="117.5" y="-210.3" font-family="Times,serif" font-size="14.00">Tag : 246</text>
<polyline fill="none" stroke="black" points="76,-202.5 159,-202.5 "/>
<text text-anchor="middle" x="117.5" y="-187.3" font-family="Times,serif" font-size="14.00">.</text>
</g>
<!-- entry_0&#45;&gt;p1 -->
<g id="edge1" class="edge">
<title>entry_0&#45;&gt;p1:head</title>
<path fill="none" stroke="black" d="M117.5,-262.28C117.5,-254.34 117.5,-245.11 117.5,-236.06"/>
<polygon fill="black" stroke="black" points="121,-236 117.5,-226 114,-236 121,-236"/>
</g>
<!-- entry_1 -->
<g id="node2" class="node">
<title>entry_1</title>
<polygon fill="yellow" stroke="black" points="204,-262.5 204,-308.5 335,-308.5 335,-262.5 204,-262.5"/>
<text text-anchor="middle" x="269.5" y="-293.3" font-family="Times,serif" font-size="14.00">val : lazy_forced</text>
<polyline fill="none" stroke="black" points="204,-285.5 335,-285.5 "/>
<text text-anchor="middle" x="269.5" y="-270.3" font-family="Times,serif" font-size="14.00">.</text>
</g>
<!-- p3 -->
<g id="node7" class="node">
<title>p3</title>
<path fill="lightblue" stroke="black" d="M235,-179.5C235,-179.5 304,-179.5 304,-179.5 310,-179.5 316,-185.5 316,-191.5 316,-191.5 316,-213.5 316,-213.5 316,-219.5 310,-225.5 304,-225.5 304,-225.5 235,-225.5 235,-225.5 229,-225.5 223,-219.5 223,-213.5 223,-213.5 223,-191.5 223,-191.5 223,-185.5 229,-179.5 235,-179.5"/>
<text text-anchor="middle" x="269.5" y="-210.3" font-family="Times,serif" font-size="14.00">Tag : 253</text>
<polyline fill="none" stroke="black" points="223,-202.5 316,-202.5 "/>
<text text-anchor="middle" x="269.5" y="-187.3" font-family="Times,serif" font-size="14.00">47.000000</text>
</g>
<!-- entry_1&#45;&gt;p3 -->
<g id="edge4" class="edge">
<title>entry_1&#45;&gt;p3:head</title>
<path fill="none" stroke="black" d="M269.5,-262.28C269.5,-254.34 269.5,-245.11 269.5,-236.06"/>
<polygon fill="black" stroke="black" points="273,-236 269.5,-226 266,-236 273,-236"/>
</g>
<!-- entry_2 -->
<g id="node3" class="node">
<title>entry_2</title>
<polygon fill="yellow" stroke="black" points="353,-262.5 353,-308.5 526,-308.5 526,-262.5 353,-262.5"/>
<text text-anchor="middle" x="439.5" y="-293.3" font-family="Times,serif" font-size="14.00">val : lazy_after_forced</text>
<polyline fill="none" stroke="black" points="353,-285.5 526,-285.5 "/>
<text text-anchor="middle" x="439.5" y="-270.3" font-family="Times,serif" font-size="14.00">.</text>
</g>
<!-- p4 -->
<g id="node8" class="node">
<title>p4</title>
<path fill="lightblue" stroke="black" d="M410,-179.5C410,-179.5 469,-179.5 469,-179.5 475,-179.5 481,-185.5 481,-191.5 481,-191.5 481,-213.5 481,-213.5 481,-219.5 475,-225.5 469,-225.5 469,-225.5 410,-225.5 410,-225.5 404,-225.5 398,-219.5 398,-213.5 398,-213.5 398,-191.5 398,-191.5 398,-185.5 404,-179.5 410,-179.5"/>
<text text-anchor="middle" x="439.5" y="-210.3" font-family="Times,serif" font-size="14.00">Tag : 250</text>
<polyline fill="none" stroke="black" points="398,-202.5 481,-202.5 "/>
<text text-anchor="middle" x="439.5" y="-187.3" font-family="Times,serif" font-size="14.00">.</text>
</g>
<!-- entry_2&#45;&gt;p4 -->
<g id="edge5" class="edge">
<title>entry_2&#45;&gt;p4:head</title>
<path fill="none" stroke="black" d="M439.5,-262.28C439.5,-254.34 439.5,-245.11 439.5,-236.06"/>
<polygon fill="black" stroke="black" points="443,-236 439.5,-226 436,-236 443,-236"/>
</g>
<!-- p2 -->
<g id="node5" class="node">
<title>p2</title>
<path fill="lightblue" stroke="black" d="M44.5,-73.5C44.5,-73.5 190.5,-73.5 190.5,-73.5 196.5,-73.5 202.5,-79.5 202.5,-85.5 202.5,-85.5 202.5,-130.5 202.5,-130.5 202.5,-136.5 196.5,-142.5 190.5,-142.5 190.5,-142.5 44.5,-142.5 44.5,-142.5 38.5,-142.5 32.5,-136.5 32.5,-130.5 32.5,-130.5 32.5,-85.5 32.5,-85.5 32.5,-79.5 38.5,-73.5 44.5,-73.5"/>
<text text-anchor="middle" x="117.5" y="-127.3" font-family="Times,serif" font-size="14.00">Tag : 247</text>
<polyline fill="none" stroke="black" points="32.5,-119.5 202.5,-119.5 "/>
<text text-anchor="middle" x="117.5" y="-104.3" font-family="Times,serif" font-size="14.00">.</text>
<polyline fill="none" stroke="black" points="32.5,-96.5 202.5,-96.5 "/>
<text text-anchor="middle" x="117.5" y="-81.3" font-family="Times,serif" font-size="14.00">36028797018963970</text>
</g>
<!-- p1&#45;&gt;p2 -->
<g id="edge2" class="edge">
<title>p1:f0&#45;&gt;p2:head</title>
<path fill="none" stroke="black" d="M117.5,-179C117.5,-167 117.5,-161.75 117.5,-153.12"/>
<polygon fill="black" stroke="black" points="121,-153 117.5,-143 114,-153 121,-153"/>
</g>
<!-- e94360688678912 -->
<g id="node6" class="node">
<title>e94360688678912</title>
<path fill="grey" stroke="black" d="M12,-0.5C12,-0.5 223,-0.5 223,-0.5 229,-0.5 235,-6.5 235,-12.5 235,-12.5 235,-24.5 235,-24.5 235,-30.5 229,-36.5 223,-36.5 223,-36.5 12,-36.5 12,-36.5 6,-36.5 0,-30.5 0,-24.5 0,-24.5 0,-12.5 0,-12.5 0,-6.5 6,-0.5 12,-0.5"/>
<text text-anchor="middle" x="117.5" y="-14.8" font-family="Times,serif" font-size="14.00">Out of heap : 0x55d20f545800</text>
</g>
<!-- p2&#45;&gt;e94360688678912 -->
<g id="edge3" class="edge">
<title>p2:f0&#45;&gt;e94360688678912:head</title>
<path fill="none" stroke="black" d="M203.5,-108C219.06,-108 210.16,-86.55 202.5,-73 195.21,-60.11 183.47,-49.79 171.01,-41.75"/>
<polygon fill="black" stroke="black" points="172.7,-38.68 162.32,-36.54 169.1,-44.68 172.7,-38.68"/>
</g>
<!-- p5 -->
<g id="node9" class="node">
<title>p5</title>
<path fill="lightblue" stroke="black" d="M405,-85C405,-85 474,-85 474,-85 480,-85 486,-91 486,-97 486,-97 486,-119 486,-119 486,-125 480,-131 474,-131 474,-131 405,-131 405,-131 399,-131 393,-125 393,-119 393,-119 393,-97 393,-97 393,-91 399,-85 405,-85"/>
<text text-anchor="middle" x="439.5" y="-115.8" font-family="Times,serif" font-size="14.00">Tag : 253</text>
<polyline fill="none" stroke="black" points="393,-108 486,-108 "/>
<text text-anchor="middle" x="439.5" y="-92.8" font-family="Times,serif" font-size="14.00">47.000000</text>
</g>
<!-- p4&#45;&gt;p5 -->
<g id="edge6" class="edge">
<title>p4:f0&#45;&gt;p5:head</title>
<path fill="none" stroke="black" d="M439.5,-179C439.5,-162.03 439.5,-155.4 439.5,-142.3"/>
<polygon fill="black" stroke="black" points="443,-142 439.5,-132 436,-142 443,-142"/>
</g>
</g>
</svg>
