<?xml version="1.0" encoding="UTF-8" standalone="no"?>
<!DOCTYPE svg PUBLIC "-//W3C//DTD SVG 1.1//EN"
 "http://www.w3.org/Graphics/SVG/1.1/DTD/svg11.dtd">
<!-- Generated by graphviz version 2.44.1 (0)
 -->
<!-- Title: g Pages: 1 -->
<svg width="535pt" height="317pt"
 viewBox="0.00 0.00 534.50 317.00" xmlns="http://www.w3.org/2000/svg" xmlns:xlink="http://www.w3.org/1999/xlink">
<g id="graph0" class="graph" transform="scale(1 1) rotate(0) translate(4 313)">
<title>g</title>
<polygon fill="white" stroke="transparent" points="-4,4 -4,-313 530.5,-313 530.5,4 -4,4"/>
<!-- entry_0 -->
<g id="node1" class="node">
<title>entry_0</title>
<polygon fill="yellow" stroke="black" points="49.5,-262.5 49.5,-308.5 186.5,-308.5 186.5,-262.5 49.5,-262.5"/>
<text text-anchor="middle" x="118" y="-293.3" font-family="Times,serif" font-size="14.00">val : lazy: 5 + 42</text>
<polyline fill="none" stroke="black" points="49.5,-285.5 186.5,-285.5 "/>
<text text-anchor="middle" x="118" y="-270.3" font-family="Times,serif" font-size="14.00">.</text>
</g>
<!-- p1 -->
<g id="node4" class="node">
<title>p1</title>
<path fill="lightblue" stroke="black" d="M88.5,-179.5C88.5,-179.5 147.5,-179.5 147.5,-179.5 153.5,-179.5 159.5,-185.5 159.5,-191.5 159.5,-191.5 159.5,-213.5 159.5,-213.5 159.5,-219.5 153.5,-225.5 147.5,-225.5 147.5,-225.5 88.5,-225.5 88.5,-225.5 82.5,-225.5 76.5,-219.5 76.5,-213.5 76.5,-213.5 76.5,-191.5 76.5,-191.5 76.5,-185.5 82.5,-179.5 88.5,-179.5"/>
<text text-anchor="middle" x="118" y="-210.3" font-family="Times,serif" font-size="14.00">Tag : 246</text>
<polyline fill="none" stroke="black" points="76.5,-202.5 159.5,-202.5 "/>
<text text-anchor="middle" x="118" y="-187.3" font-family="Times,serif" font-size="14.00">.</text>
</g>
<!-- entry_0&#45;&gt;p1 -->
<g id="edge1" class="edge">
<title>entry_0&#45;&gt;p1:head</title>
<path fill="none" stroke="black" d="M118,-262.28C118,-254.34 118,-245.11 118,-236.06"/>
<polygon fill="black" stroke="black" points="121.5,-236 118,-226 114.5,-236 121.5,-236"/>
</g>
<!-- entry_1 -->
<g id="node2" class="node">
<title>entry_1</title>
<polygon fill="yellow" stroke="black" points="204.5,-262.5 204.5,-308.5 335.5,-308.5 335.5,-262.5 204.5,-262.5"/>
<text text-anchor="middle" x="270" y="-293.3" font-family="Times,serif" font-size="14.00">val : lazy_forced</text>
<polyline fill="none" stroke="black" points="204.5,-285.5 335.5,-285.5 "/>
<text text-anchor="middle" x="270" y="-270.3" font-family="Times,serif" font-size="14.00">.</text>
</g>
<!-- p3 -->
<g id="node7" class="node">
<title>p3</title>
<path fill="lightblue" stroke="black" d="M235.5,-179.5C235.5,-179.5 304.5,-179.5 304.5,-179.5 310.5,-179.5 316.5,-185.5 316.5,-191.5 316.5,-191.5 316.5,-213.5 316.5,-213.5 316.5,-219.5 310.5,-225.5 304.5,-225.5 304.5,-225.5 235.5,-225.5 235.5,-225.5 229.5,-225.5 223.5,-219.5 223.5,-213.5 223.5,-213.5 223.5,-191.5 223.5,-191.5 223.5,-185.5 229.5,-179.5 235.5,-179.5"/>
<text text-anchor="middle" x="270" y="-210.3" font-family="Times,serif" font-size="14.00">Tag : 253</text>
<polyline fill="none" stroke="black" points="223.5,-202.5 316.5,-202.5 "/>
<text text-anchor="middle" x="270" y="-187.3" font-family="Times,serif" font-size="14.00">47.000000</text>
</g>
<!-- entry_1&#45;&gt;p3 -->
<g id="edge4" class="edge">
<title>entry_1&#45;&gt;p3:head</title>
<path fill="none" stroke="black" d="M270,-262.28C270,-254.34 270,-245.11 270,-236.06"/>
<polygon fill="black" stroke="black" points="273.5,-236 270,-226 266.5,-236 273.5,-236"/>
</g>
<!-- entry_2 -->
<g id="node3" class="node">
<title>entry_2</title>
<polygon fill="yellow" stroke="black" points="353.5,-262.5 353.5,-308.5 526.5,-308.5 526.5,-262.5 353.5,-262.5"/>
<text text-anchor="middle" x="440" y="-293.3" font-family="Times,serif" font-size="14.00">val : lazy_after_forced</text>
<polyline fill="none" stroke="black" points="353.5,-285.5 526.5,-285.5 "/>
<text text-anchor="middle" x="440" y="-270.3" font-family="Times,serif" font-size="14.00">.</text>
</g>
<!-- p4 -->
<g id="node8" class="node">
<title>p4</title>
<path fill="lightblue" stroke="black" d="M410.5,-179.5C410.5,-179.5 469.5,-179.5 469.5,-179.5 475.5,-179.5 481.5,-185.5 481.5,-191.5 481.5,-191.5 481.5,-213.5 481.5,-213.5 481.5,-219.5 475.5,-225.5 469.5,-225.5 469.5,-225.5 410.5,-225.5 410.5,-225.5 404.5,-225.5 398.5,-219.5 398.5,-213.5 398.5,-213.5 398.5,-191.5 398.5,-191.5 398.5,-185.5 404.5,-179.5 410.5,-179.5"/>
<text text-anchor="middle" x="440" y="-210.3" font-family="Times,serif" font-size="14.00">Tag : 250</text>
<polyline fill="none" stroke="black" points="398.5,-202.5 481.5,-202.5 "/>
<text text-anchor="middle" x="440" y="-187.3" font-family="Times,serif" font-size="14.00">.</text>
</g>
<!-- entry_2&#45;&gt;p4 -->
<g id="edge5" class="edge">
<title>entry_2&#45;&gt;p4:head</title>
<path fill="none" stroke="black" d="M440,-262.28C440,-254.34 440,-245.11 440,-236.06"/>
<polygon fill="black" stroke="black" points="443.5,-236 440,-226 436.5,-236 443.5,-236"/>
</g>
<!-- p2 -->
<g id="node5" class="node">
<title>p2</title>
<path fill="lightblue" stroke="black" d="M88.5,-73.5C88.5,-73.5 147.5,-73.5 147.5,-73.5 153.5,-73.5 159.5,-79.5 159.5,-85.5 159.5,-85.5 159.5,-130.5 159.5,-130.5 159.5,-136.5 153.5,-142.5 147.5,-142.5 147.5,-142.5 88.5,-142.5 88.5,-142.5 82.5,-142.5 76.5,-136.5 76.5,-130.5 76.5,-130.5 76.5,-85.5 76.5,-85.5 76.5,-79.5 82.5,-73.5 88.5,-73.5"/>
<text text-anchor="middle" x="118" y="-127.3" font-family="Times,serif" font-size="14.00">Tag : 247</text>
<polyline fill="none" stroke="black" points="76.5,-119.5 159.5,-119.5 "/>
<text text-anchor="middle" x="118" y="-104.3" font-family="Times,serif" font-size="14.00">.</text>
<polyline fill="none" stroke="black" points="76.5,-96.5 159.5,-96.5 "/>
<text text-anchor="middle" x="118" y="-81.3" font-family="Times,serif" font-size="14.00">1</text>
</g>
<!-- p1&#45;&gt;p2 -->
<g id="edge2" class="edge">
<title>p1:f0&#45;&gt;p2:head</title>
<path fill="none" stroke="black" d="M118,-179C118,-167 118,-161.75 118,-153.12"/>
<polygon fill="black" stroke="black" points="121.5,-153 118,-143 114.5,-153 121.5,-153"/>
</g>
<!-- e94164287083488 -->
<g id="node6" class="node">
<title>e94164287083488</title>
<path fill="grey" stroke="black" d="M12,-0.5C12,-0.5 224,-0.5 224,-0.5 230,-0.5 236,-6.5 236,-12.5 236,-12.5 236,-24.5 236,-24.5 236,-30.5 230,-36.5 224,-36.5 224,-36.5 12,-36.5 12,-36.5 6,-36.5 0,-30.5 0,-24.5 0,-24.5 0,-12.5 0,-12.5 0,-6.5 6,-0.5 12,-0.5"/>
<text text-anchor="middle" x="118" y="-14.8" font-family="Times,serif" font-size="14.00">Out of heap : 0x55a454e1d3e0</text>
</g>
<!-- p2&#45;&gt;e94164287083488 -->
<g id="edge3" class="edge">
<title>p2:f0&#45;&gt;e94164287083488:head</title>
<path fill="none" stroke="black" d="M161,-108C189.43,-108 163.38,-70.85 141.24,-44.42"/>
<polygon fill="black" stroke="black" points="143.73,-41.93 134.57,-36.61 138.41,-46.49 143.73,-41.93"/>
</g>
<!-- p5 -->
<g id="node9" class="node">
<title>p5</title>
<path fill="lightblue" stroke="black" d="M405.5,-85C405.5,-85 474.5,-85 474.5,-85 480.5,-85 486.5,-91 486.5,-97 486.5,-97 486.5,-119 486.5,-119 486.5,-125 480.5,-131 474.5,-131 474.5,-131 405.5,-131 405.5,-131 399.5,-131 393.5,-125 393.5,-119 393.5,-119 393.5,-97 393.5,-97 393.5,-91 399.5,-85 405.5,-85"/>
<text text-anchor="middle" x="440" y="-115.8" font-family="Times,serif" font-size="14.00">Tag : 253</text>
<polyline fill="none" stroke="black" points="393.5,-108 486.5,-108 "/>
<text text-anchor="middle" x="440" y="-92.8" font-family="Times,serif" font-size="14.00">47.000000</text>
</g>
<!-- p4&#45;&gt;p5 -->
<g id="edge6" class="edge">
<title>p4:f0&#45;&gt;p5:head</title>
<path fill="none" stroke="black" d="M440,-179C440,-162.03 440,-155.4 440,-142.3"/>
<polygon fill="black" stroke="black" points="443.5,-142 440,-132 436.5,-142 443.5,-142"/>
</g>
</g>
</svg>
