<?xml version="1.0" encoding="UTF-8" standalone="no"?>
<!DOCTYPE svg PUBLIC "-//W3C//DTD SVG 1.1//EN"
 "http://www.w3.org/Graphics/SVG/1.1/DTD/svg11.dtd">
<!-- Generated by graphviz version 7.0.4 (0)
 -->
<!-- Title: g Pages: 1 -->
<svg width="440pt" height="317pt"
 viewBox="0.00 0.00 439.50 317.00" xmlns="http://www.w3.org/2000/svg" xmlns:xlink="http://www.w3.org/1999/xlink">
<g id="graph0" class="graph" transform="scale(1 1) rotate(0) translate(4 313)">
<title>g</title>
<!-- entry_2 -->
<g id="node1" class="node">
<title>entry_2</title>
<polygon fill="yellow" stroke="black" points="0,-262.5 0,-308.5 140,-308.5 140,-262.5 0,-262.5"/>
<text text-anchor="middle" x="70" y="-293.3" font-family="Times,serif" font-size="14.00">val : lazy_after_forced</text>
<polyline fill="none" stroke="black" points="0,-285.5 140,-285.5"/>
<text text-anchor="middle" x="70" y="-270.3" font-family="Times,serif" font-size="14.00">.</text>
</g>
<!-- p4 -->
<g id="node8" class="node">
<title>p4</title>
<path fill="lightblue" stroke="black" d="M47.5,-179.5C47.5,-179.5 92.5,-179.5 92.5,-179.5 98.5,-179.5 104.5,-185.5 104.5,-191.5 104.5,-191.5 104.5,-213.5 104.5,-213.5 104.5,-219.5 98.5,-225.5 92.5,-225.5 92.5,-225.5 47.5,-225.5 47.5,-225.5 41.5,-225.5 35.5,-219.5 35.5,-213.5 35.5,-213.5 35.5,-191.5 35.5,-191.5 35.5,-185.5 41.5,-179.5 47.5,-179.5"/>
<text text-anchor="middle" x="70" y="-210.3" font-family="Times,serif" font-size="14.00">Tag : 250</text>
<polyline fill="none" stroke="black" points="35.5,-202.5 104.5,-202.5"/>
<text text-anchor="middle" x="70" y="-187.3" font-family="Times,serif" font-size="14.00">.</text>
</g>
<!-- entry_2&#45;&gt;p4 -->
<g id="edge5" class="edge">
<title>entry_2&#45;&gt;p4:head</title>
<path fill="none" stroke="black" d="M70,-262.55C70,-254.92 70,-246.07 70,-237.33"/>
<polygon fill="black" stroke="black" points="73.5,-237.51 70,-227.51 66.5,-237.51 73.5,-237.51"/>
</g>
<!-- entry_1 -->
<g id="node2" class="node">
<title>entry_1</title>
<polygon fill="yellow" stroke="black" points="158,-262.5 158,-308.5 266,-308.5 266,-262.5 158,-262.5"/>
<text text-anchor="middle" x="212" y="-293.3" font-family="Times,serif" font-size="14.00">val : lazy_forced</text>
<polyline fill="none" stroke="black" points="158,-285.5 266,-285.5"/>
<text text-anchor="middle" x="212" y="-270.3" font-family="Times,serif" font-size="14.00">.</text>
</g>
<!-- p3 -->
<g id="node7" class="node">
<title>p3</title>
<path fill="lightblue" stroke="black" d="M187,-179.5C187,-179.5 237,-179.5 237,-179.5 243,-179.5 249,-185.5 249,-191.5 249,-191.5 249,-213.5 249,-213.5 249,-219.5 243,-225.5 237,-225.5 237,-225.5 187,-225.5 187,-225.5 181,-225.5 175,-219.5 175,-213.5 175,-213.5 175,-191.5 175,-191.5 175,-185.5 181,-179.5 187,-179.5"/>
<text text-anchor="middle" x="212" y="-210.3" font-family="Times,serif" font-size="14.00">Tag : 253</text>
<polyline fill="none" stroke="black" points="175,-202.5 249,-202.5"/>
<text text-anchor="middle" x="212" y="-187.3" font-family="Times,serif" font-size="14.00">47.000000</text>
</g>
<!-- entry_1&#45;&gt;p3 -->
<g id="edge4" class="edge">
<title>entry_1&#45;&gt;p3:head</title>
<path fill="none" stroke="black" d="M212,-262.55C212,-254.92 212,-246.07 212,-237.33"/>
<polygon fill="black" stroke="black" points="215.5,-237.51 212,-227.51 208.5,-237.51 215.5,-237.51"/>
</g>
<!-- entry_0 -->
<g id="node3" class="node">
<title>entry_0</title>
<polygon fill="yellow" stroke="black" points="284,-262.5 284,-308.5 394,-308.5 394,-262.5 284,-262.5"/>
<text text-anchor="middle" x="339" y="-293.3" font-family="Times,serif" font-size="14.00">val : lazy: 5 + 42</text>
<polyline fill="none" stroke="black" points="284,-285.5 394,-285.5"/>
<text text-anchor="middle" x="339" y="-270.3" font-family="Times,serif" font-size="14.00">.</text>
</g>
<!-- p1 -->
<g id="node4" class="node">
<title>p1</title>
<path fill="lightblue" stroke="black" d="M316.5,-179.5C316.5,-179.5 361.5,-179.5 361.5,-179.5 367.5,-179.5 373.5,-185.5 373.5,-191.5 373.5,-191.5 373.5,-213.5 373.5,-213.5 373.5,-219.5 367.5,-225.5 361.5,-225.5 361.5,-225.5 316.5,-225.5 316.5,-225.5 310.5,-225.5 304.5,-219.5 304.5,-213.5 304.5,-213.5 304.5,-191.5 304.5,-191.5 304.5,-185.5 310.5,-179.5 316.5,-179.5"/>
<text text-anchor="middle" x="339" y="-210.3" font-family="Times,serif" font-size="14.00">Tag : 246</text>
<polyline fill="none" stroke="black" points="304.5,-202.5 373.5,-202.5"/>
<text text-anchor="middle" x="339" y="-187.3" font-family="Times,serif" font-size="14.00">.</text>
</g>
<!-- entry_0&#45;&gt;p1 -->
<g id="edge1" class="edge">
<title>entry_0&#45;&gt;p1:head</title>
<path fill="none" stroke="black" d="M339,-262.55C339,-254.92 339,-246.07 339,-237.33"/>
<polygon fill="black" stroke="black" points="342.5,-237.51 339,-227.51 335.5,-237.51 342.5,-237.51"/>
</g>
<!-- p2 -->
<g id="node5" class="node">
<title>p2</title>
<path fill="lightblue" stroke="black" d="M293,-73.5C293,-73.5 385,-73.5 385,-73.5 391,-73.5 397,-79.5 397,-85.5 397,-85.5 397,-130.5 397,-130.5 397,-136.5 391,-142.5 385,-142.5 385,-142.5 293,-142.5 293,-142.5 287,-142.5 281,-136.5 281,-130.5 281,-130.5 281,-85.5 281,-85.5 281,-79.5 287,-73.5 293,-73.5"/>
<text text-anchor="middle" x="339" y="-127.3" font-family="Times,serif" font-size="14.00">Tag : 247</text>
<polyline fill="none" stroke="black" points="281,-119.5 397,-119.5"/>
<text text-anchor="middle" x="339" y="-104.3" font-family="Times,serif" font-size="14.00">.</text>
<polyline fill="none" stroke="black" points="281,-96.5 397,-96.5"/>
<text text-anchor="middle" x="339" y="-81.3" font-family="Times,serif" font-size="14.00">arity:1 / startenv:2</text>
</g>
<!-- p1&#45;&gt;p2 -->
<g id="edge2" class="edge">
<title>p1:f0&#45;&gt;p2:head</title>
<path fill="none" stroke="black" d="M339,-179C339,-167.62 339,-162.32 339,-154.45"/>
<polygon fill="black" stroke="black" points="342.5,-154.51 339,-144.51 335.5,-154.51 342.5,-154.51"/>
</g>
<!-- e94162405321792 -->
<g id="node6" class="node">
<title>e94162405321792</title>
<path fill="grey" stroke="black" d="M258.5,-0.5C258.5,-0.5 419.5,-0.5 419.5,-0.5 425.5,-0.5 431.5,-6.5 431.5,-12.5 431.5,-12.5 431.5,-24.5 431.5,-24.5 431.5,-30.5 425.5,-36.5 419.5,-36.5 419.5,-36.5 258.5,-36.5 258.5,-36.5 252.5,-36.5 246.5,-30.5 246.5,-24.5 246.5,-24.5 246.5,-12.5 246.5,-12.5 246.5,-6.5 252.5,-0.5 258.5,-0.5"/>
<text text-anchor="middle" x="339" y="-14.8" font-family="Times,serif" font-size="14.00">Out of heap : 0x55a3e4b86c40</text>
</g>
<!-- p2&#45;&gt;e94162405321792 -->
<g id="edge3" class="edge">
<title>p2:f0&#45;&gt;e94162405321792:head</title>
<path fill="none" stroke="black" d="M398,-108C413.56,-108 403.38,-87.19 397,-73 392.02,-61.92 383.62,-52.03 374.74,-43.81"/>
<polygon fill="black" stroke="black" points="377.19,-41.3 367.32,-37.44 372.63,-46.61 377.19,-41.3"/>
</g>
<!-- p5 -->
<g id="node9" class="node">
<title>p5</title>
<path fill="lightblue" stroke="black" d="M45,-85C45,-85 95,-85 95,-85 101,-85 107,-91 107,-97 107,-97 107,-119 107,-119 107,-125 101,-131 95,-131 95,-131 45,-131 45,-131 39,-131 33,-125 33,-119 33,-119 33,-97 33,-97 33,-91 39,-85 45,-85"/>
<text text-anchor="middle" x="70" y="-115.8" font-family="Times,serif" font-size="14.00">Tag : 253</text>
<polyline fill="none" stroke="black" points="33,-108 107,-108"/>
<text text-anchor="middle" x="70" y="-92.8" font-family="Times,serif" font-size="14.00">47.000000</text>
</g>
<!-- p4&#45;&gt;p5 -->
<g id="edge6" class="edge">
<title>p4:f0&#45;&gt;p5:head</title>
<path fill="none" stroke="black" d="M70,-179C70,-162.52 70,-155.79 70,-143.42"/>
<polygon fill="black" stroke="black" points="73.5,-143.51 70,-133.51 66.5,-143.51 73.5,-143.51"/>
</g>
</g>
</svg>
