<?xml version="1.0" encoding="UTF-8" standalone="no"?>
<!DOCTYPE svg PUBLIC "-//W3C//DTD SVG 1.1//EN"
 "http://www.w3.org/Graphics/SVG/1.1/DTD/svg11.dtd">
<!-- Generated by graphviz version 7.1.0 (0)
 -->
<!-- Title: g Pages: 1 -->
<svg width="602pt" height="584pt"
 viewBox="0.00 0.00 602.00 584.00" xmlns="http://www.w3.org/2000/svg" xmlns:xlink="http://www.w3.org/1999/xlink">
<g id="graph0" class="graph" transform="scale(1 1) rotate(0) translate(4 580)">
<title>g</title>
<!-- entry_0 -->
<g id="node1" class="node">
<title>entry_0</title>
<polygon fill="yellow" stroke="black" points="258.5,-529.5 258.5,-575.5 335.5,-575.5 335.5,-529.5 258.5,-529.5"/>
<text text-anchor="middle" x="297" y="-560.3" font-family="Times,serif" font-size="14.00">val : object</text>
<polyline fill="none" stroke="black" points="258.5,-552.5 335.5,-552.5"/>
<text text-anchor="middle" x="297" y="-537.3" font-family="Times,serif" font-size="14.00">.</text>
</g>
<!-- p1 -->
<g id="node2" class="node">
<title>p1</title>
<path fill="lightblue" stroke="black" d="M274.5,-400.5C274.5,-400.5 319.5,-400.5 319.5,-400.5 325.5,-400.5 331.5,-406.5 331.5,-412.5 331.5,-412.5 331.5,-480.5 331.5,-480.5 331.5,-486.5 325.5,-492.5 319.5,-492.5 319.5,-492.5 274.5,-492.5 274.5,-492.5 268.5,-492.5 262.5,-486.5 262.5,-480.5 262.5,-480.5 262.5,-412.5 262.5,-412.5 262.5,-406.5 268.5,-400.5 274.5,-400.5"/>
<text text-anchor="middle" x="297" y="-477.3" font-family="Times,serif" font-size="14.00">Tag : 248</text>
<polyline fill="none" stroke="black" points="262.5,-469.5 331.5,-469.5"/>
<text text-anchor="middle" x="297" y="-454.3" font-family="Times,serif" font-size="14.00">.</text>
<polyline fill="none" stroke="black" points="262.5,-446.5 331.5,-446.5"/>
<text text-anchor="middle" x="297" y="-431.3" font-family="Times,serif" font-size="14.00">11</text>
<polyline fill="none" stroke="black" points="262.5,-423.5 331.5,-423.5"/>
<text text-anchor="middle" x="297" y="-408.3" font-family="Times,serif" font-size="14.00">5</text>
</g>
<!-- entry_0&#45;&gt;p1 -->
<g id="edge1" class="edge">
<title>entry_0&#45;&gt;p1:head</title>
<path fill="none" stroke="black" d="M297,-529.55C297,-521.92 297,-513.07 297,-504.33"/>
<polygon fill="black" stroke="black" points="300.5,-504.51 297,-494.51 293.5,-504.51 300.5,-504.51"/>
</g>
<!-- p2 -->
<g id="node3" class="node">
<title>p2</title>
<path fill="lightblue" stroke="black" d="M281,-202.5C281,-202.5 313,-202.5 313,-202.5 319,-202.5 325,-208.5 325,-214.5 325,-214.5 325,-351.5 325,-351.5 325,-357.5 319,-363.5 313,-363.5 313,-363.5 281,-363.5 281,-363.5 275,-363.5 269,-357.5 269,-351.5 269,-351.5 269,-214.5 269,-214.5 269,-208.5 275,-202.5 281,-202.5"/>
<text text-anchor="middle" x="297" y="-348.3" font-family="Times,serif" font-size="14.00">Tag : 0</text>
<polyline fill="none" stroke="black" points="269,-340.5 325,-340.5"/>
<text text-anchor="middle" x="297" y="-325.3" font-family="Times,serif" font-size="14.00">2</text>
<polyline fill="none" stroke="black" points="269,-317.5 325,-317.5"/>
<text text-anchor="middle" x="297" y="-302.3" font-family="Times,serif" font-size="14.00">15</text>
<polyline fill="none" stroke="black" points="269,-294.5 325,-294.5"/>
<text text-anchor="middle" x="297" y="-279.3" font-family="Times,serif" font-size="14.00">.</text>
<polyline fill="none" stroke="black" points="269,-271.5 325,-271.5"/>
<text text-anchor="middle" x="297" y="-256.3" font-family="Times,serif" font-size="14.00">102</text>
<polyline fill="none" stroke="black" points="269,-248.5 325,-248.5"/>
<text text-anchor="middle" x="297" y="-233.3" font-family="Times,serif" font-size="14.00">.</text>
<polyline fill="none" stroke="black" points="269,-225.5 325,-225.5"/>
<text text-anchor="middle" x="297" y="-210.3" font-family="Times,serif" font-size="14.00">103</text>
</g>
<!-- p1&#45;&gt;p2 -->
<g id="edge2" class="edge">
<title>p1:f0&#45;&gt;p2:head</title>
<path fill="none" stroke="black" d="M333,-458.5C359,-458.5 341.99,-424.01 332,-400 325.24,-383.74 307.36,-384.62 300.11,-374.75"/>
<polygon fill="black" stroke="black" points="303.56,-374.09 297.42,-365.45 296.84,-376.03 303.56,-374.09"/>
</g>
<!-- p3 -->
<g id="node4" class="node">
<title>p3</title>
<path fill="lightblue" stroke="black" d="M184,-73.5C184,-73.5 276,-73.5 276,-73.5 282,-73.5 288,-79.5 288,-85.5 288,-85.5 288,-153.5 288,-153.5 288,-159.5 282,-165.5 276,-165.5 276,-165.5 184,-165.5 184,-165.5 178,-165.5 172,-159.5 172,-153.5 172,-153.5 172,-85.5 172,-85.5 172,-79.5 178,-73.5 184,-73.5"/>
<text text-anchor="middle" x="230" y="-150.3" font-family="Times,serif" font-size="14.00">Tag : 247</text>
<polyline fill="none" stroke="black" points="172,-142.5 288,-142.5"/>
<text text-anchor="middle" x="230" y="-127.3" font-family="Times,serif" font-size="14.00">.</text>
<polyline fill="none" stroke="black" points="172,-119.5 288,-119.5"/>
<text text-anchor="middle" x="230" y="-104.3" font-family="Times,serif" font-size="14.00">arity:2 / startenv:3</text>
<polyline fill="none" stroke="black" points="172,-96.5 288,-96.5"/>
<text text-anchor="middle" x="230" y="-81.3" font-family="Times,serif" font-size="14.00">.</text>
</g>
<!-- p2&#45;&gt;p3 -->
<g id="edge3" class="edge">
<title>p2:f2&#45;&gt;p3:head</title>
<path fill="none" stroke="black" d="M268,-283C232,-283 260.13,-236.89 269,-202 272.35,-188.82 286.85,-174.54 293.28,-165.12"/>
<polygon fill="black" stroke="black" points="296.55,-163.87 289.57,-155.9 290.06,-166.49 296.55,-163.87"/>
</g>
<!-- p4 -->
<g id="node5" class="node">
<title>p4</title>
<path fill="lightblue" stroke="black" d="M318,-73.5C318,-73.5 410,-73.5 410,-73.5 416,-73.5 422,-79.5 422,-85.5 422,-85.5 422,-153.5 422,-153.5 422,-159.5 416,-165.5 410,-165.5 410,-165.5 318,-165.5 318,-165.5 312,-165.5 306,-159.5 306,-153.5 306,-153.5 306,-85.5 306,-85.5 306,-79.5 312,-73.5 318,-73.5"/>
<text text-anchor="middle" x="364" y="-150.3" font-family="Times,serif" font-size="14.00">Tag : 247</text>
<polyline fill="none" stroke="black" points="306,-142.5 422,-142.5"/>
<text text-anchor="middle" x="364" y="-127.3" font-family="Times,serif" font-size="14.00">.</text>
<polyline fill="none" stroke="black" points="306,-119.5 422,-119.5"/>
<text text-anchor="middle" x="364" y="-104.3" font-family="Times,serif" font-size="14.00">arity:2 / startenv:3</text>
<polyline fill="none" stroke="black" points="306,-96.5 422,-96.5"/>
<text text-anchor="middle" x="364" y="-81.3" font-family="Times,serif" font-size="14.00">.</text>
</g>
<!-- p2&#45;&gt;p4 -->
<g id="edge4" class="edge">
<title>p2:f4&#45;&gt;p4:head</title>
<path fill="none" stroke="black" d="M326,-237C355.61,-237 309.98,-179.51 306,-166 305.95,-165.85 305.91,-165.69 305.86,-165.53"/>
<polygon fill="black" stroke="black" points="309.38,-165.71 305.12,-156.01 302.4,-166.25 309.38,-165.71"/>
</g>
<!-- e94057777571040 -->
<g id="node6" class="node">
<title>e94057777571040</title>
<path fill="grey" stroke="black" d="M216.5,-0.5C216.5,-0.5 377.5,-0.5 377.5,-0.5 383.5,-0.5 389.5,-6.5 389.5,-12.5 389.5,-12.5 389.5,-24.5 389.5,-24.5 389.5,-30.5 383.5,-36.5 377.5,-36.5 377.5,-36.5 216.5,-36.5 216.5,-36.5 210.5,-36.5 204.5,-30.5 204.5,-24.5 204.5,-24.5 204.5,-12.5 204.5,-12.5 204.5,-6.5 210.5,-0.5 216.5,-0.5"/>
<text text-anchor="middle" x="297" y="-14.8" font-family="Times,serif" font-size="14.00">Out of heap : 0x558b886ba4e0</text>
</g>
<!-- p3&#45;&gt;e94057777571040 -->
<g id="edge7" class="edge">
<title>p3:f0&#45;&gt;e94057777571040:head</title>
<path fill="none" stroke="black" d="M289,-131.5C293.19,-131.5 295.35,-81.34 296.32,-47.86"/>
<polygon fill="black" stroke="black" points="299.82,-48.01 296.59,-37.92 292.82,-47.82 299.82,-48.01"/>
</g>
<!-- e94057777572208 -->
<g id="node8" class="node">
<title>e94057777572208</title>
<path fill="grey" stroke="black" d="M12,-0.5C12,-0.5 174,-0.5 174,-0.5 180,-0.5 186,-6.5 186,-12.5 186,-12.5 186,-24.5 186,-24.5 186,-30.5 180,-36.5 174,-36.5 174,-36.5 12,-36.5 12,-36.5 6,-36.5 0,-30.5 0,-24.5 0,-24.5 0,-12.5 0,-12.5 0,-6.5 6,-0.5 12,-0.5"/>
<text text-anchor="middle" x="93" y="-14.8" font-family="Times,serif" font-size="14.00">Out of heap : 0x558b886ba970</text>
</g>
<!-- p3&#45;&gt;e94057777572208 -->
<g id="edge8" class="edge">
<title>p3:f2&#45;&gt;e94057777572208:head</title>
<path fill="none" stroke="black" d="M171,-84.5C145.47,-84.5 123.99,-63.64 110.08,-45.38"/>
<polygon fill="black" stroke="black" points="113.06,-43.52 104.4,-37.42 107.36,-47.59 113.06,-43.52"/>
</g>
<!-- p4&#45;&gt;e94057777571040 -->
<g id="edge5" class="edge">
<title>p4:f0&#45;&gt;e94057777571040:head</title>
<path fill="none" stroke="black" d="M305,-131.5C300.81,-131.5 298.65,-81.34 297.68,-47.86"/>
<polygon fill="black" stroke="black" points="301.18,-47.82 297.41,-37.92 294.18,-48.01 301.18,-47.82"/>
</g>
<!-- e94057777572272 -->
<g id="node7" class="node">
<title>e94057777572272</title>
<path fill="grey" stroke="black" d="M420,-0.5C420,-0.5 582,-0.5 582,-0.5 588,-0.5 594,-6.5 594,-12.5 594,-12.5 594,-24.5 594,-24.5 594,-30.5 588,-36.5 582,-36.5 582,-36.5 420,-36.5 420,-36.5 414,-36.5 408,-30.5 408,-24.5 408,-24.5 408,-12.5 408,-12.5 408,-6.5 414,-0.5 420,-0.5"/>
<text text-anchor="middle" x="501" y="-14.8" font-family="Times,serif" font-size="14.00">Out of heap : 0x558b886ba9b0</text>
</g>
<!-- p4&#45;&gt;e94057777572272 -->
<g id="edge6" class="edge">
<title>p4:f2&#45;&gt;e94057777572272:head</title>
<path fill="none" stroke="black" d="M423,-84.5C448.53,-84.5 470.01,-63.64 483.92,-45.38"/>
<polygon fill="black" stroke="black" points="486.64,-47.59 489.6,-37.42 480.94,-43.52 486.64,-47.59"/>
</g>
</g>
</svg>
