<?xml version="1.0" encoding="UTF-8" standalone="no"?>
<!DOCTYPE svg PUBLIC "-//W3C//DTD SVG 1.1//EN"
 "http://www.w3.org/Graphics/SVG/1.1/DTD/svg11.dtd">
<!-- Generated by graphviz version 7.0.4 (0)
 -->
<!-- Title: g Pages: 1 -->
<svg width="601pt" height="607pt"
 viewBox="0.00 0.00 600.50 607.00" xmlns="http://www.w3.org/2000/svg" xmlns:xlink="http://www.w3.org/1999/xlink">
<g id="graph0" class="graph" transform="scale(1 1) rotate(0) translate(4 603)">
<title>g</title>
<!-- entry_0 -->
<g id="node1" class="node">
<title>entry_0</title>
<polygon fill="yellow" stroke="black" points="257,-552.5 257,-598.5 334,-598.5 334,-552.5 257,-552.5"/>
<text text-anchor="middle" x="295.5" y="-583.3" font-family="Times,serif" font-size="14.00">val : object</text>
<polyline fill="none" stroke="black" points="257,-575.5 334,-575.5"/>
<text text-anchor="middle" x="295.5" y="-560.3" font-family="Times,serif" font-size="14.00">.</text>
</g>
<!-- p1 -->
<g id="node2" class="node">
<title>p1</title>
<path fill="lightblue" stroke="black" d="M273,-423.5C273,-423.5 318,-423.5 318,-423.5 324,-423.5 330,-429.5 330,-435.5 330,-435.5 330,-503.5 330,-503.5 330,-509.5 324,-515.5 318,-515.5 318,-515.5 273,-515.5 273,-515.5 267,-515.5 261,-509.5 261,-503.5 261,-503.5 261,-435.5 261,-435.5 261,-429.5 267,-423.5 273,-423.5"/>
<text text-anchor="middle" x="295.5" y="-500.3" font-family="Times,serif" font-size="14.00">Tag : 248</text>
<polyline fill="none" stroke="black" points="261,-492.5 330,-492.5"/>
<text text-anchor="middle" x="295.5" y="-477.3" font-family="Times,serif" font-size="14.00">.</text>
<polyline fill="none" stroke="black" points="261,-469.5 330,-469.5"/>
<text text-anchor="middle" x="295.5" y="-454.3" font-family="Times,serif" font-size="14.00">11</text>
<polyline fill="none" stroke="black" points="261,-446.5 330,-446.5"/>
<text text-anchor="middle" x="295.5" y="-431.3" font-family="Times,serif" font-size="14.00">5</text>
</g>
<!-- entry_0&#45;&gt;p1 -->
<g id="edge1" class="edge">
<title>entry_0&#45;&gt;p1:head</title>
<path fill="none" stroke="black" d="M295.5,-552.55C295.5,-544.92 295.5,-536.07 295.5,-527.33"/>
<polygon fill="black" stroke="black" points="299,-527.51 295.5,-517.51 292,-527.51 299,-527.51"/>
</g>
<!-- p2 -->
<g id="node3" class="node">
<title>p2</title>
<path fill="lightblue" stroke="black" d="M279.5,-225.5C279.5,-225.5 311.5,-225.5 311.5,-225.5 317.5,-225.5 323.5,-231.5 323.5,-237.5 323.5,-237.5 323.5,-374.5 323.5,-374.5 323.5,-380.5 317.5,-386.5 311.5,-386.5 311.5,-386.5 279.5,-386.5 279.5,-386.5 273.5,-386.5 267.5,-380.5 267.5,-374.5 267.5,-374.5 267.5,-237.5 267.5,-237.5 267.5,-231.5 273.5,-225.5 279.5,-225.5"/>
<text text-anchor="middle" x="295.5" y="-371.3" font-family="Times,serif" font-size="14.00">Tag : 0</text>
<polyline fill="none" stroke="black" points="267.5,-363.5 323.5,-363.5"/>
<text text-anchor="middle" x="295.5" y="-348.3" font-family="Times,serif" font-size="14.00">2</text>
<polyline fill="none" stroke="black" points="267.5,-340.5 323.5,-340.5"/>
<text text-anchor="middle" x="295.5" y="-325.3" font-family="Times,serif" font-size="14.00">15</text>
<polyline fill="none" stroke="black" points="267.5,-317.5 323.5,-317.5"/>
<text text-anchor="middle" x="295.5" y="-302.3" font-family="Times,serif" font-size="14.00">.</text>
<polyline fill="none" stroke="black" points="267.5,-294.5 323.5,-294.5"/>
<text text-anchor="middle" x="295.5" y="-279.3" font-family="Times,serif" font-size="14.00">102</text>
<polyline fill="none" stroke="black" points="267.5,-271.5 323.5,-271.5"/>
<text text-anchor="middle" x="295.5" y="-256.3" font-family="Times,serif" font-size="14.00">.</text>
<polyline fill="none" stroke="black" points="267.5,-248.5 323.5,-248.5"/>
<text text-anchor="middle" x="295.5" y="-233.3" font-family="Times,serif" font-size="14.00">103</text>
</g>
<!-- p1&#45;&gt;p2 -->
<g id="edge2" class="edge">
<title>p1:f0&#45;&gt;p2:head</title>
<path fill="none" stroke="black" d="M331.5,-481.5C357.5,-481.5 340.49,-447.01 330.5,-423 323.74,-406.74 305.86,-407.62 298.61,-397.75"/>
<polygon fill="black" stroke="black" points="302.06,-397.09 295.92,-388.45 295.34,-399.03 302.06,-397.09"/>
</g>
<!-- p3 -->
<g id="node4" class="node">
<title>p3</title>
<path fill="lightblue" stroke="black" d="M182.5,-73.5C182.5,-73.5 274.5,-73.5 274.5,-73.5 280.5,-73.5 286.5,-79.5 286.5,-85.5 286.5,-85.5 286.5,-176.5 286.5,-176.5 286.5,-182.5 280.5,-188.5 274.5,-188.5 274.5,-188.5 182.5,-188.5 182.5,-188.5 176.5,-188.5 170.5,-182.5 170.5,-176.5 170.5,-176.5 170.5,-85.5 170.5,-85.5 170.5,-79.5 176.5,-73.5 182.5,-73.5"/>
<text text-anchor="middle" x="228.5" y="-173.3" font-family="Times,serif" font-size="14.00">Tag : 247</text>
<polyline fill="none" stroke="black" points="170.5,-165.5 286.5,-165.5"/>
<text text-anchor="middle" x="228.5" y="-150.3" font-family="Times,serif" font-size="14.00">.</text>
<polyline fill="none" stroke="black" points="170.5,-142.5 286.5,-142.5"/>
<text text-anchor="middle" x="228.5" y="-127.3" font-family="Times,serif" font-size="14.00">arity:2 / startenv:3</text>
<polyline fill="none" stroke="black" points="170.5,-119.5 286.5,-119.5"/>
<text text-anchor="middle" x="228.5" y="-104.3" font-family="Times,serif" font-size="14.00">.</text>
<polyline fill="none" stroke="black" points="170.5,-96.5 286.5,-96.5"/>
<text text-anchor="middle" x="228.5" y="-81.3" font-family="Times,serif" font-size="14.00">2</text>
</g>
<!-- p2&#45;&gt;p3 -->
<g id="edge3" class="edge">
<title>p2:f2&#45;&gt;p3:head</title>
<path fill="none" stroke="black" d="M266.5,-306C230.5,-306 258.63,-259.89 267.5,-225 270.93,-211.53 285.83,-196.89 292.13,-187.37"/>
<polygon fill="black" stroke="black" points="295.39,-186.08 288.12,-178.38 289,-188.94 295.39,-186.08"/>
</g>
<!-- p4 -->
<g id="node5" class="node">
<title>p4</title>
<path fill="lightblue" stroke="black" d="M316.5,-73.5C316.5,-73.5 408.5,-73.5 408.5,-73.5 414.5,-73.5 420.5,-79.5 420.5,-85.5 420.5,-85.5 420.5,-176.5 420.5,-176.5 420.5,-182.5 414.5,-188.5 408.5,-188.5 408.5,-188.5 316.5,-188.5 316.5,-188.5 310.5,-188.5 304.5,-182.5 304.5,-176.5 304.5,-176.5 304.5,-85.5 304.5,-85.5 304.5,-79.5 310.5,-73.5 316.5,-73.5"/>
<text text-anchor="middle" x="362.5" y="-173.3" font-family="Times,serif" font-size="14.00">Tag : 247</text>
<polyline fill="none" stroke="black" points="304.5,-165.5 420.5,-165.5"/>
<text text-anchor="middle" x="362.5" y="-150.3" font-family="Times,serif" font-size="14.00">.</text>
<polyline fill="none" stroke="black" points="304.5,-142.5 420.5,-142.5"/>
<text text-anchor="middle" x="362.5" y="-127.3" font-family="Times,serif" font-size="14.00">arity:2 / startenv:3</text>
<polyline fill="none" stroke="black" points="304.5,-119.5 420.5,-119.5"/>
<text text-anchor="middle" x="362.5" y="-104.3" font-family="Times,serif" font-size="14.00">.</text>
<polyline fill="none" stroke="black" points="304.5,-96.5 420.5,-96.5"/>
<text text-anchor="middle" x="362.5" y="-81.3" font-family="Times,serif" font-size="14.00">2</text>
</g>
<!-- p2&#45;&gt;p4 -->
<g id="edge4" class="edge">
<title>p2:f4&#45;&gt;p4:head</title>
<path fill="none" stroke="black" d="M324.5,-260C354.09,-260 308.45,-202.51 304.5,-189 304.41,-188.68 304.3,-188.35 304.18,-188.02"/>
<polygon fill="black" stroke="black" points="307.71,-188.28 303.59,-178.51 300.72,-188.71 307.71,-188.28"/>
</g>
<!-- e93859347719920 -->
<g id="node6" class="node">
<title>e93859347719920</title>
<path fill="grey" stroke="black" d="M215,-0.5C215,-0.5 376,-0.5 376,-0.5 382,-0.5 388,-6.5 388,-12.5 388,-12.5 388,-24.5 388,-24.5 388,-30.5 382,-36.5 376,-36.5 376,-36.5 215,-36.5 215,-36.5 209,-36.5 203,-30.5 203,-24.5 203,-24.5 203,-12.5 203,-12.5 203,-6.5 209,-0.5 215,-0.5"/>
<text text-anchor="middle" x="295.5" y="-14.8" font-family="Times,serif" font-size="14.00">Out of heap : 0x555d551466f0</text>
</g>
<!-- p3&#45;&gt;e93859347719920 -->
<g id="edge7" class="edge">
<title>p3:f0&#45;&gt;e93859347719920:head</title>
<path fill="none" stroke="black" d="M287.5,-154C292.77,-154 294.58,-87.76 295.2,-47.91"/>
<polygon fill="black" stroke="black" points="298.69,-48.05 295.33,-38.01 291.69,-47.96 298.69,-48.05"/>
</g>
<!-- e93859347721440 -->
<g id="node8" class="node">
<title>e93859347721440</title>
<path fill="grey" stroke="black" d="M12,-0.5C12,-0.5 173,-0.5 173,-0.5 179,-0.5 185,-6.5 185,-12.5 185,-12.5 185,-24.5 185,-24.5 185,-30.5 179,-36.5 173,-36.5 173,-36.5 12,-36.5 12,-36.5 6,-36.5 0,-30.5 0,-24.5 0,-24.5 0,-12.5 0,-12.5 0,-6.5 6,-0.5 12,-0.5"/>
<text text-anchor="middle" x="92.5" y="-14.8" font-family="Times,serif" font-size="14.00">Out of heap : 0x555d55146ce0</text>
</g>
<!-- p3&#45;&gt;e93859347721440 -->
<g id="edge8" class="edge">
<title>p3:f2&#45;&gt;e93859347721440:head</title>
<path fill="none" stroke="black" d="M169.5,-108C136.68,-108 114.79,-72.98 103,-46.76"/>
<polygon fill="black" stroke="black" points="106.25,-45.44 99.15,-37.58 99.79,-48.15 106.25,-45.44"/>
</g>
<!-- p4&#45;&gt;e93859347719920 -->
<g id="edge5" class="edge">
<title>p4:f0&#45;&gt;e93859347719920:head</title>
<path fill="none" stroke="black" d="M303.5,-154C298.23,-154 296.42,-87.76 295.8,-47.91"/>
<polygon fill="black" stroke="black" points="299.31,-47.96 295.67,-38.01 292.31,-48.05 299.31,-47.96"/>
</g>
<!-- e93859347721424 -->
<g id="node7" class="node">
<title>e93859347721424</title>
<path fill="grey" stroke="black" d="M418.5,-0.5C418.5,-0.5 580.5,-0.5 580.5,-0.5 586.5,-0.5 592.5,-6.5 592.5,-12.5 592.5,-12.5 592.5,-24.5 592.5,-24.5 592.5,-30.5 586.5,-36.5 580.5,-36.5 580.5,-36.5 418.5,-36.5 418.5,-36.5 412.5,-36.5 406.5,-30.5 406.5,-24.5 406.5,-24.5 406.5,-12.5 406.5,-12.5 406.5,-6.5 412.5,-0.5 418.5,-0.5"/>
<text text-anchor="middle" x="499.5" y="-14.8" font-family="Times,serif" font-size="14.00">Out of heap : 0x555d55146cd0</text>
</g>
<!-- p4&#45;&gt;e93859347721424 -->
<g id="edge6" class="edge">
<title>p4:f2&#45;&gt;e93859347721424:head</title>
<path fill="none" stroke="black" d="M421.5,-108C454.5,-108 476.74,-72.98 488.76,-46.76"/>
<polygon fill="black" stroke="black" points="491.97,-48.14 492.69,-37.57 485.54,-45.39 491.97,-48.14"/>
</g>
</g>
</svg>
