<?xml version="1.0" encoding="UTF-8" standalone="no"?>
<!DOCTYPE svg PUBLIC "-//W3C//DTD SVG 1.1//EN"
 "http://www.w3.org/Graphics/SVG/1.1/DTD/svg11.dtd">
<!-- Generated by graphviz version 2.50.0 (0)
 -->
<!-- Title: g Pages: 1 -->
<svg width="758pt" height="607pt"
 viewBox="0.00 0.00 757.50 607.00" xmlns="http://www.w3.org/2000/svg" xmlns:xlink="http://www.w3.org/1999/xlink">
<g id="graph0" class="graph" transform="scale(1 1) rotate(0) translate(4 603)">
<title>g</title>
<polygon fill="white" stroke="transparent" points="-4,4 -4,-603 753.5,-603 753.5,4 -4,4"/>
<!-- entry_0 -->
<g id="node1" class="node">
<title>entry_0</title>
<polygon fill="yellow" stroke="black" points="327,-552.5 327,-598.5 422,-598.5 422,-552.5 327,-552.5"/>
<text text-anchor="middle" x="374.5" y="-583.3" font-family="Times,serif" font-size="14.00">val : object</text>
<polyline fill="none" stroke="black" points="327,-575.5 422,-575.5 "/>
<text text-anchor="middle" x="374.5" y="-560.3" font-family="Times,serif" font-size="14.00">.</text>
</g>
<!-- p1 -->
<g id="node2" class="node">
<title>p1</title>
<path fill="lightblue" stroke="black" d="M345,-423.5C345,-423.5 404,-423.5 404,-423.5 410,-423.5 416,-429.5 416,-435.5 416,-435.5 416,-503.5 416,-503.5 416,-509.5 410,-515.5 404,-515.5 404,-515.5 345,-515.5 345,-515.5 339,-515.5 333,-509.5 333,-503.5 333,-503.5 333,-435.5 333,-435.5 333,-429.5 339,-423.5 345,-423.5"/>
<text text-anchor="middle" x="374.5" y="-500.3" font-family="Times,serif" font-size="14.00">Tag : 248</text>
<polyline fill="none" stroke="black" points="333,-492.5 416,-492.5 "/>
<text text-anchor="middle" x="374.5" y="-477.3" font-family="Times,serif" font-size="14.00">.</text>
<polyline fill="none" stroke="black" points="333,-469.5 416,-469.5 "/>
<text text-anchor="middle" x="374.5" y="-454.3" font-family="Times,serif" font-size="14.00">10</text>
<polyline fill="none" stroke="black" points="333,-446.5 416,-446.5 "/>
<text text-anchor="middle" x="374.5" y="-431.3" font-family="Times,serif" font-size="14.00">5</text>
</g>
<!-- entry_0&#45;&gt;p1 -->
<g id="edge1" class="edge">
<title>entry_0&#45;&gt;p1:head</title>
<path fill="none" stroke="black" d="M374.5,-552.28C374.5,-544.34 374.5,-535.11 374.5,-526.06"/>
<polygon fill="black" stroke="black" points="378,-526 374.5,-516 371,-526 378,-526"/>
</g>
<!-- p2 -->
<g id="node3" class="node">
<title>p2</title>
<path fill="lightblue" stroke="black" d="M354,-225.5C354,-225.5 395,-225.5 395,-225.5 401,-225.5 407,-231.5 407,-237.5 407,-237.5 407,-374.5 407,-374.5 407,-380.5 401,-386.5 395,-386.5 395,-386.5 354,-386.5 354,-386.5 348,-386.5 342,-380.5 342,-374.5 342,-374.5 342,-237.5 342,-237.5 342,-231.5 348,-225.5 354,-225.5"/>
<text text-anchor="middle" x="374.5" y="-371.3" font-family="Times,serif" font-size="14.00">Tag : 0</text>
<polyline fill="none" stroke="black" points="342,-363.5 407,-363.5 "/>
<text text-anchor="middle" x="374.5" y="-348.3" font-family="Times,serif" font-size="14.00">2</text>
<polyline fill="none" stroke="black" points="342,-340.5 407,-340.5 "/>
<text text-anchor="middle" x="374.5" y="-325.3" font-family="Times,serif" font-size="14.00">15</text>
<polyline fill="none" stroke="black" points="342,-317.5 407,-317.5 "/>
<text text-anchor="middle" x="374.5" y="-302.3" font-family="Times,serif" font-size="14.00">.</text>
<polyline fill="none" stroke="black" points="342,-294.5 407,-294.5 "/>
<text text-anchor="middle" x="374.5" y="-279.3" font-family="Times,serif" font-size="14.00">102</text>
<polyline fill="none" stroke="black" points="342,-271.5 407,-271.5 "/>
<text text-anchor="middle" x="374.5" y="-256.3" font-family="Times,serif" font-size="14.00">.</text>
<polyline fill="none" stroke="black" points="342,-248.5 407,-248.5 "/>
<text text-anchor="middle" x="374.5" y="-233.3" font-family="Times,serif" font-size="14.00">103</text>
</g>
<!-- p1&#45;&gt;p2 -->
<g id="edge2" class="edge">
<title>p1:f0&#45;&gt;p2:head</title>
<path fill="none" stroke="black" d="M417.5,-481.5C443.5,-481.5 427.57,-446.53 416.5,-423 407.83,-404.58 384.72,-408.84 377.03,-396.89"/>
<polygon fill="black" stroke="black" points="380.37,-395.82 374.5,-387 373.59,-397.56 380.37,-395.82"/>
</g>
<!-- p3 -->
<g id="node4" class="node">
<title>p3</title>
<path fill="lightblue" stroke="black" d="M207.5,-73.5C207.5,-73.5 353.5,-73.5 353.5,-73.5 359.5,-73.5 365.5,-79.5 365.5,-85.5 365.5,-85.5 365.5,-176.5 365.5,-176.5 365.5,-182.5 359.5,-188.5 353.5,-188.5 353.5,-188.5 207.5,-188.5 207.5,-188.5 201.5,-188.5 195.5,-182.5 195.5,-176.5 195.5,-176.5 195.5,-85.5 195.5,-85.5 195.5,-79.5 201.5,-73.5 207.5,-73.5"/>
<text text-anchor="middle" x="280.5" y="-173.3" font-family="Times,serif" font-size="14.00">Tag : 247</text>
<polyline fill="none" stroke="black" points="195.5,-165.5 365.5,-165.5 "/>
<text text-anchor="middle" x="280.5" y="-150.3" font-family="Times,serif" font-size="14.00">.</text>
<polyline fill="none" stroke="black" points="195.5,-142.5 365.5,-142.5 "/>
<text text-anchor="middle" x="280.5" y="-127.3" font-family="Times,serif" font-size="14.00">72057594037927939</text>
<polyline fill="none" stroke="black" points="195.5,-119.5 365.5,-119.5 "/>
<text text-anchor="middle" x="280.5" y="-104.3" font-family="Times,serif" font-size="14.00">.</text>
<polyline fill="none" stroke="black" points="195.5,-96.5 365.5,-96.5 "/>
<text text-anchor="middle" x="280.5" y="-81.3" font-family="Times,serif" font-size="14.00">2</text>
</g>
<!-- p2&#45;&gt;p3 -->
<g id="edge3" class="edge">
<title>p2:f2&#45;&gt;p3:head</title>
<path fill="none" stroke="black" d="M340.5,-306C304.5,-306 330.85,-259.39 341.5,-225 346,-210.46 364.45,-195.1 371.29,-185.78"/>
<polygon fill="black" stroke="black" points="374.36,-184.1 366.5,-177 368.22,-187.45 374.36,-184.1"/>
</g>
<!-- p4 -->
<g id="node5" class="node">
<title>p4</title>
<path fill="lightblue" stroke="black" d="M395.5,-73.5C395.5,-73.5 541.5,-73.5 541.5,-73.5 547.5,-73.5 553.5,-79.5 553.5,-85.5 553.5,-85.5 553.5,-176.5 553.5,-176.5 553.5,-182.5 547.5,-188.5 541.5,-188.5 541.5,-188.5 395.5,-188.5 395.5,-188.5 389.5,-188.5 383.5,-182.5 383.5,-176.5 383.5,-176.5 383.5,-85.5 383.5,-85.5 383.5,-79.5 389.5,-73.5 395.5,-73.5"/>
<text text-anchor="middle" x="468.5" y="-173.3" font-family="Times,serif" font-size="14.00">Tag : 247</text>
<polyline fill="none" stroke="black" points="383.5,-165.5 553.5,-165.5 "/>
<text text-anchor="middle" x="468.5" y="-150.3" font-family="Times,serif" font-size="14.00">.</text>
<polyline fill="none" stroke="black" points="383.5,-142.5 553.5,-142.5 "/>
<text text-anchor="middle" x="468.5" y="-127.3" font-family="Times,serif" font-size="14.00">72057594037927939</text>
<polyline fill="none" stroke="black" points="383.5,-119.5 553.5,-119.5 "/>
<text text-anchor="middle" x="468.5" y="-104.3" font-family="Times,serif" font-size="14.00">.</text>
<polyline fill="none" stroke="black" points="383.5,-96.5 553.5,-96.5 "/>
<text text-anchor="middle" x="468.5" y="-81.3" font-family="Times,serif" font-size="14.00">2</text>
</g>
<!-- p2&#45;&gt;p4 -->
<g id="edge4" class="edge">
<title>p2:f4&#45;&gt;p4:head</title>
<path fill="none" stroke="black" d="M408.5,-260C424.06,-260 412.22,-239.83 407.5,-225 402.88,-210.5 384.46,-195.13 377.66,-185.8"/>
<polygon fill="black" stroke="black" points="380.74,-187.45 382.5,-177 374.61,-184.07 380.74,-187.45"/>
</g>
<!-- e94253223498864 -->
<g id="node6" class="node">
<title>e94253223498864</title>
<path fill="grey" stroke="black" d="M267.5,-0.5C267.5,-0.5 481.5,-0.5 481.5,-0.5 487.5,-0.5 493.5,-6.5 493.5,-12.5 493.5,-12.5 493.5,-24.5 493.5,-24.5 493.5,-30.5 487.5,-36.5 481.5,-36.5 481.5,-36.5 267.5,-36.5 267.5,-36.5 261.5,-36.5 255.5,-30.5 255.5,-24.5 255.5,-24.5 255.5,-12.5 255.5,-12.5 255.5,-6.5 261.5,-0.5 267.5,-0.5"/>
<text text-anchor="middle" x="374.5" y="-14.8" font-family="Times,serif" font-size="14.00">Out of heap : 0x55b909e7d470</text>
</g>
<!-- p3&#45;&gt;e94253223498864 -->
<g id="edge7" class="edge">
<title>p3:f0&#45;&gt;e94253223498864:head</title>
<path fill="none" stroke="black" d="M366.5,-154C371.82,-154 373.61,-86.67 374.21,-46.93"/>
<polygon fill="black" stroke="black" points="377.71,-46.82 374.35,-36.77 370.71,-46.73 377.71,-46.82"/>
</g>
<!-- e94253223499936 -->
<g id="node8" class="node">
<title>e94253223499936</title>
<path fill="grey" stroke="black" d="M12,-0.5C12,-0.5 225,-0.5 225,-0.5 231,-0.5 237,-6.5 237,-12.5 237,-12.5 237,-24.5 237,-24.5 237,-30.5 231,-36.5 225,-36.5 225,-36.5 12,-36.5 12,-36.5 6,-36.5 0,-30.5 0,-24.5 0,-24.5 0,-12.5 0,-12.5 0,-6.5 6,-0.5 12,-0.5"/>
<text text-anchor="middle" x="118.5" y="-14.8" font-family="Times,serif" font-size="14.00">Out of heap : 0x55b909e7d8a0</text>
</g>
<!-- p3&#45;&gt;e94253223499936 -->
<g id="edge8" class="edge">
<title>p3:f2&#45;&gt;e94253223499936:head</title>
<path fill="none" stroke="black" d="M194.5,-108C161.6,-108 139.98,-72.43 128.49,-46.14"/>
<polygon fill="black" stroke="black" points="131.61,-44.53 124.58,-36.61 125.14,-47.19 131.61,-44.53"/>
</g>
<!-- p4&#45;&gt;e94253223498864 -->
<g id="edge5" class="edge">
<title>p4:f0&#45;&gt;e94253223498864:head</title>
<path fill="none" stroke="black" d="M382.5,-154C377.18,-154 375.39,-86.67 374.79,-46.93"/>
<polygon fill="black" stroke="black" points="378.29,-46.73 374.65,-36.77 371.29,-46.82 378.29,-46.73"/>
</g>
<!-- e94253223499920 -->
<g id="node7" class="node">
<title>e94253223499920</title>
<path fill="grey" stroke="black" d="M523.5,-0.5C523.5,-0.5 737.5,-0.5 737.5,-0.5 743.5,-0.5 749.5,-6.5 749.5,-12.5 749.5,-12.5 749.5,-24.5 749.5,-24.5 749.5,-30.5 743.5,-36.5 737.5,-36.5 737.5,-36.5 523.5,-36.5 523.5,-36.5 517.5,-36.5 511.5,-30.5 511.5,-24.5 511.5,-24.5 511.5,-12.5 511.5,-12.5 511.5,-6.5 517.5,-0.5 523.5,-0.5"/>
<text text-anchor="middle" x="630.5" y="-14.8" font-family="Times,serif" font-size="14.00">Out of heap : 0x55b909e7d890</text>
</g>
<!-- p4&#45;&gt;e94253223499920 -->
<g id="edge6" class="edge">
<title>p4:f2&#45;&gt;e94253223499920:head</title>
<path fill="none" stroke="black" d="M554.5,-108C587.4,-108 609.02,-72.43 620.51,-46.14"/>
<polygon fill="black" stroke="black" points="623.86,-47.19 624.42,-36.61 617.39,-44.53 623.86,-47.19"/>
</g>
</g>
</svg>
