<?xml version="1.0" encoding="UTF-8" standalone="no"?>
<!DOCTYPE svg PUBLIC "-//W3C//DTD SVG 1.1//EN"
 "http://www.w3.org/Graphics/SVG/1.1/DTD/svg11.dtd">
<!-- Generated by graphviz version 2.44.1 (0)
 -->
<!-- Title: g Pages: 1 -->
<svg width="743pt" height="607pt"
 viewBox="0.00 0.00 743.00 607.00" xmlns="http://www.w3.org/2000/svg" xmlns:xlink="http://www.w3.org/1999/xlink">
<g id="graph0" class="graph" transform="scale(1 1) rotate(0) translate(4 603)">
<title>g</title>
<polygon fill="white" stroke="transparent" points="-4,4 -4,-603 739,-603 739,4 -4,4"/>
<!-- entry_0 -->
<g id="node1" class="node">
<title>entry_0</title>
<polygon fill="yellow" stroke="black" points="319,-552.5 319,-598.5 414,-598.5 414,-552.5 319,-552.5"/>
<text text-anchor="middle" x="366.5" y="-583.3" font-family="Times,serif" font-size="14.00">val : object</text>
<polyline fill="none" stroke="black" points="319,-575.5 414,-575.5 "/>
<text text-anchor="middle" x="366.5" y="-560.3" font-family="Times,serif" font-size="14.00">.</text>
</g>
<!-- p1 -->
<g id="node2" class="node">
<title>p1</title>
<path fill="lightblue" stroke="black" d="M337,-423.5C337,-423.5 396,-423.5 396,-423.5 402,-423.5 408,-429.5 408,-435.5 408,-435.5 408,-503.5 408,-503.5 408,-509.5 402,-515.5 396,-515.5 396,-515.5 337,-515.5 337,-515.5 331,-515.5 325,-509.5 325,-503.5 325,-503.5 325,-435.5 325,-435.5 325,-429.5 331,-423.5 337,-423.5"/>
<text text-anchor="middle" x="366.5" y="-500.3" font-family="Times,serif" font-size="14.00">Tag : 248</text>
<polyline fill="none" stroke="black" points="325,-492.5 408,-492.5 "/>
<text text-anchor="middle" x="366.5" y="-477.3" font-family="Times,serif" font-size="14.00">.</text>
<polyline fill="none" stroke="black" points="325,-469.5 408,-469.5 "/>
<text text-anchor="middle" x="366.5" y="-454.3" font-family="Times,serif" font-size="14.00">9</text>
<polyline fill="none" stroke="black" points="325,-446.5 408,-446.5 "/>
<text text-anchor="middle" x="366.5" y="-431.3" font-family="Times,serif" font-size="14.00">5</text>
</g>
<!-- entry_0&#45;&gt;p1 -->
<g id="edge1" class="edge">
<title>entry_0&#45;&gt;p1:head</title>
<path fill="none" stroke="black" d="M366.5,-552.28C366.5,-544.34 366.5,-535.11 366.5,-526.06"/>
<polygon fill="black" stroke="black" points="370,-526 366.5,-516 363,-526 370,-526"/>
</g>
<!-- p2 -->
<g id="node3" class="node">
<title>p2</title>
<path fill="lightblue" stroke="black" d="M346,-225.5C346,-225.5 387,-225.5 387,-225.5 393,-225.5 399,-231.5 399,-237.5 399,-237.5 399,-374.5 399,-374.5 399,-380.5 393,-386.5 387,-386.5 387,-386.5 346,-386.5 346,-386.5 340,-386.5 334,-380.5 334,-374.5 334,-374.5 334,-237.5 334,-237.5 334,-231.5 340,-225.5 346,-225.5"/>
<text text-anchor="middle" x="366.5" y="-371.3" font-family="Times,serif" font-size="14.00">Tag : 0</text>
<polyline fill="none" stroke="black" points="334,-363.5 399,-363.5 "/>
<text text-anchor="middle" x="366.5" y="-348.3" font-family="Times,serif" font-size="14.00">2</text>
<polyline fill="none" stroke="black" points="334,-340.5 399,-340.5 "/>
<text text-anchor="middle" x="366.5" y="-325.3" font-family="Times,serif" font-size="14.00">15</text>
<polyline fill="none" stroke="black" points="334,-317.5 399,-317.5 "/>
<text text-anchor="middle" x="366.5" y="-302.3" font-family="Times,serif" font-size="14.00">.</text>
<polyline fill="none" stroke="black" points="334,-294.5 399,-294.5 "/>
<text text-anchor="middle" x="366.5" y="-279.3" font-family="Times,serif" font-size="14.00">102</text>
<polyline fill="none" stroke="black" points="334,-271.5 399,-271.5 "/>
<text text-anchor="middle" x="366.5" y="-256.3" font-family="Times,serif" font-size="14.00">.</text>
<polyline fill="none" stroke="black" points="334,-248.5 399,-248.5 "/>
<text text-anchor="middle" x="366.5" y="-233.3" font-family="Times,serif" font-size="14.00">103</text>
</g>
<!-- p1&#45;&gt;p2 -->
<g id="edge2" class="edge">
<title>p1:f0&#45;&gt;p2:head</title>
<path fill="none" stroke="black" d="M409.5,-481.5C435.5,-481.5 419.57,-446.53 408.5,-423 399.83,-404.58 376.72,-408.84 369.03,-396.89"/>
<polygon fill="black" stroke="black" points="372.37,-395.82 366.5,-387 365.59,-397.56 372.37,-395.82"/>
</g>
<!-- p3 -->
<g id="node4" class="node">
<title>p3</title>
<path fill="lightblue" stroke="black" d="M287,-73.5C287,-73.5 346,-73.5 346,-73.5 352,-73.5 358,-79.5 358,-85.5 358,-85.5 358,-176.5 358,-176.5 358,-182.5 352,-188.5 346,-188.5 346,-188.5 287,-188.5 287,-188.5 281,-188.5 275,-182.5 275,-176.5 275,-176.5 275,-85.5 275,-85.5 275,-79.5 281,-73.5 287,-73.5"/>
<text text-anchor="middle" x="316.5" y="-173.3" font-family="Times,serif" font-size="14.00">Tag : 247</text>
<polyline fill="none" stroke="black" points="275,-165.5 358,-165.5 "/>
<text text-anchor="middle" x="316.5" y="-150.3" font-family="Times,serif" font-size="14.00">.</text>
<polyline fill="none" stroke="black" points="275,-142.5 358,-142.5 "/>
<text text-anchor="middle" x="316.5" y="-127.3" font-family="Times,serif" font-size="14.00">2</text>
<polyline fill="none" stroke="black" points="275,-119.5 358,-119.5 "/>
<text text-anchor="middle" x="316.5" y="-104.3" font-family="Times,serif" font-size="14.00">.</text>
<polyline fill="none" stroke="black" points="275,-96.5 358,-96.5 "/>
<text text-anchor="middle" x="316.5" y="-81.3" font-family="Times,serif" font-size="14.00">2</text>
</g>
<!-- p2&#45;&gt;p3 -->
<g id="edge3" class="edge">
<title>p2:f2&#45;&gt;p3:head</title>
<path fill="none" stroke="black" d="M332.5,-306C283.4,-306 312.17,-249.53 316.08,-199.28"/>
<polygon fill="black" stroke="black" points="319.59,-199.13 316.5,-189 312.59,-198.85 319.59,-199.13"/>
</g>
<!-- p4 -->
<g id="node5" class="node">
<title>p4</title>
<path fill="lightblue" stroke="black" d="M388,-73.5C388,-73.5 447,-73.5 447,-73.5 453,-73.5 459,-79.5 459,-85.5 459,-85.5 459,-176.5 459,-176.5 459,-182.5 453,-188.5 447,-188.5 447,-188.5 388,-188.5 388,-188.5 382,-188.5 376,-182.5 376,-176.5 376,-176.5 376,-85.5 376,-85.5 376,-79.5 382,-73.5 388,-73.5"/>
<text text-anchor="middle" x="417.5" y="-173.3" font-family="Times,serif" font-size="14.00">Tag : 247</text>
<polyline fill="none" stroke="black" points="376,-165.5 459,-165.5 "/>
<text text-anchor="middle" x="417.5" y="-150.3" font-family="Times,serif" font-size="14.00">.</text>
<polyline fill="none" stroke="black" points="376,-142.5 459,-142.5 "/>
<text text-anchor="middle" x="417.5" y="-127.3" font-family="Times,serif" font-size="14.00">2</text>
<polyline fill="none" stroke="black" points="376,-119.5 459,-119.5 "/>
<text text-anchor="middle" x="417.5" y="-104.3" font-family="Times,serif" font-size="14.00">.</text>
<polyline fill="none" stroke="black" points="376,-96.5 459,-96.5 "/>
<text text-anchor="middle" x="417.5" y="-81.3" font-family="Times,serif" font-size="14.00">2</text>
</g>
<!-- p2&#45;&gt;p4 -->
<g id="edge4" class="edge">
<title>p2:f4&#45;&gt;p4:head</title>
<path fill="none" stroke="black" d="M400.5,-260C429.65,-260 420.14,-228.88 417.91,-199.03"/>
<polygon fill="black" stroke="black" points="421.41,-198.85 417.5,-189 414.41,-199.14 421.41,-198.85"/>
</g>
<!-- e94488595669328 -->
<g id="node6" class="node">
<title>e94488595669328</title>
<path fill="grey" stroke="black" d="M263,-0.5C263,-0.5 472,-0.5 472,-0.5 478,-0.5 484,-6.5 484,-12.5 484,-12.5 484,-24.5 484,-24.5 484,-30.5 478,-36.5 472,-36.5 472,-36.5 263,-36.5 263,-36.5 257,-36.5 251,-30.5 251,-24.5 251,-24.5 251,-12.5 251,-12.5 251,-6.5 257,-0.5 263,-0.5"/>
<text text-anchor="middle" x="367.5" y="-14.8" font-family="Times,serif" font-size="14.00">Out of heap : 0x55efd72e2150</text>
</g>
<!-- p3&#45;&gt;e94488595669328 -->
<g id="edge7" class="edge">
<title>p3:f0&#45;&gt;e94488595669328:head</title>
<path fill="none" stroke="black" d="M359.5,-154C364.82,-154 366.61,-86.67 367.21,-46.93"/>
<polygon fill="black" stroke="black" points="370.71,-46.82 367.35,-36.77 363.71,-46.73 370.71,-46.82"/>
</g>
<!-- e94488595670128 -->
<g id="node8" class="node">
<title>e94488595670128</title>
<path fill="grey" stroke="black" d="M12,-0.5C12,-0.5 221,-0.5 221,-0.5 227,-0.5 233,-6.5 233,-12.5 233,-12.5 233,-24.5 233,-24.5 233,-30.5 227,-36.5 221,-36.5 221,-36.5 12,-36.5 12,-36.5 6,-36.5 0,-30.5 0,-24.5 0,-24.5 0,-12.5 0,-12.5 0,-6.5 6,-0.5 12,-0.5"/>
<text text-anchor="middle" x="116.5" y="-14.8" font-family="Times,serif" font-size="14.00">Out of heap : 0x55efd72e2470</text>
</g>
<!-- p3&#45;&gt;e94488595670128 -->
<g id="edge8" class="edge">
<title>p3:f2&#45;&gt;e94488595670128:head</title>
<path fill="none" stroke="black" d="M273.5,-108C221.31,-108 170.65,-70.2 141.57,-43.74"/>
<polygon fill="black" stroke="black" points="143.65,-40.89 133.96,-36.61 138.87,-46 143.65,-40.89"/>
</g>
<!-- p4&#45;&gt;e94488595669328 -->
<g id="edge5" class="edge">
<title>p4:f0&#45;&gt;e94488595669328:head</title>
<path fill="none" stroke="black" d="M374.5,-154C369.19,-154 367.89,-86.67 367.58,-46.93"/>
<polygon fill="black" stroke="black" points="371.08,-46.75 367.52,-36.77 364.08,-46.8 371.08,-46.75"/>
</g>
<!-- e94488595670112 -->
<g id="node7" class="node">
<title>e94488595670112</title>
<path fill="grey" stroke="black" d="M514,-0.5C514,-0.5 723,-0.5 723,-0.5 729,-0.5 735,-6.5 735,-12.5 735,-12.5 735,-24.5 735,-24.5 735,-30.5 729,-36.5 723,-36.5 723,-36.5 514,-36.5 514,-36.5 508,-36.5 502,-30.5 502,-24.5 502,-24.5 502,-12.5 502,-12.5 502,-6.5 508,-0.5 514,-0.5"/>
<text text-anchor="middle" x="618.5" y="-14.8" font-family="Times,serif" font-size="14.00">Out of heap : 0x55efd72e2460</text>
</g>
<!-- p4&#45;&gt;e94488595670112 -->
<g id="edge6" class="edge">
<title>p4:f2&#45;&gt;e94488595670112:head</title>
<path fill="none" stroke="black" d="M460.5,-108C512.95,-108 563.95,-70.2 593.24,-43.74"/>
<polygon fill="black" stroke="black" points="595.97,-45.98 600.91,-36.61 591.2,-40.85 595.97,-45.98"/>
</g>
</g>
</svg>
