<?xml version="1.0" encoding="UTF-8" standalone="no"?>
<!DOCTYPE svg PUBLIC "-//W3C//DTD SVG 1.1//EN"
 "http://www.w3.org/Graphics/SVG/1.1/DTD/svg11.dtd">
<!-- Generated by graphviz version 2.50.0 (0)
 -->
<!-- Title: g Pages: 1 -->
<svg width="354pt" height="525pt"
 viewBox="0.00 0.00 354.00 525.00" xmlns="http://www.w3.org/2000/svg" xmlns:xlink="http://www.w3.org/1999/xlink">
<g id="graph0" class="graph" transform="scale(1 1) rotate(0) translate(4 521)">
<title>g</title>
<polygon fill="white" stroke="transparent" points="-4,4 -4,-521 350,-521 350,4 -4,4"/>
<!-- entry_0 -->
<g id="node1" class="node">
<title>entry_0</title>
<polygon fill="yellow" stroke="black" points="138.5,-470.5 138.5,-516.5 219.5,-516.5 219.5,-470.5 138.5,-470.5"/>
<text text-anchor="middle" x="179" y="-501.3" font-family="Times,serif" font-size="14.00">val : true</text>
<polyline fill="none" stroke="black" points="138.5,-493.5 219.5,-493.5 "/>
<text text-anchor="middle" x="179" y="-478.3" font-family="Times,serif" font-size="14.00">.</text>
</g>
<!-- p5 -->
<g id="node4" class="node">
<title>p5</title>
<path fill="lightblue" stroke="black" d="M158.5,-341.5C158.5,-341.5 199.5,-341.5 199.5,-341.5 205.5,-341.5 211.5,-347.5 211.5,-353.5 211.5,-353.5 211.5,-421.5 211.5,-421.5 211.5,-427.5 205.5,-433.5 199.5,-433.5 199.5,-433.5 158.5,-433.5 158.5,-433.5 152.5,-433.5 146.5,-427.5 146.5,-421.5 146.5,-421.5 146.5,-353.5 146.5,-353.5 146.5,-347.5 152.5,-341.5 158.5,-341.5"/>
<text text-anchor="middle" x="179" y="-418.3" font-family="Times,serif" font-size="14.00">Tag : 0</text>
<polyline fill="none" stroke="black" points="146.5,-410.5 211.5,-410.5 "/>
<text text-anchor="middle" x="179" y="-395.3" font-family="Times,serif" font-size="14.00">.</text>
<polyline fill="none" stroke="black" points="146.5,-387.5 211.5,-387.5 "/>
<text text-anchor="middle" x="179" y="-372.3" font-family="Times,serif" font-size="14.00">0</text>
<polyline fill="none" stroke="black" points="146.5,-364.5 211.5,-364.5 "/>
<text text-anchor="middle" x="179" y="-349.3" font-family="Times,serif" font-size="14.00">.</text>
</g>
<!-- entry_0&#45;&gt;p5 -->
<g id="edge1" class="edge">
<title>entry_0&#45;&gt;p5:head</title>
<path fill="none" stroke="black" d="M179,-470.28C179,-462.34 179,-453.11 179,-444.06"/>
<polygon fill="black" stroke="black" points="182.5,-444 179,-434 175.5,-444 182.5,-444"/>
</g>
<!-- entry_1 -->
<g id="node2" class="node">
<title>entry_1</title>
<polygon fill="yellow" stroke="black" points="238,-470.5 238,-516.5 346,-516.5 346,-470.5 238,-470.5"/>
<text text-anchor="middle" x="292" y="-501.3" font-family="Times,serif" font-size="14.00">val : true_loc</text>
<polyline fill="none" stroke="black" points="238,-493.5 346,-493.5 "/>
<text text-anchor="middle" x="292" y="-478.3" font-family="Times,serif" font-size="14.00">.</text>
</g>
<!-- p2 -->
<g id="node6" class="node">
<title>p2</title>
<path fill="lightblue" stroke="black" d="M208.5,-258.5C208.5,-258.5 249.5,-258.5 249.5,-258.5 255.5,-258.5 261.5,-264.5 261.5,-270.5 261.5,-270.5 261.5,-292.5 261.5,-292.5 261.5,-298.5 255.5,-304.5 249.5,-304.5 249.5,-304.5 208.5,-304.5 208.5,-304.5 202.5,-304.5 196.5,-298.5 196.5,-292.5 196.5,-292.5 196.5,-270.5 196.5,-270.5 196.5,-264.5 202.5,-258.5 208.5,-258.5"/>
<text text-anchor="middle" x="229" y="-289.3" font-family="Times,serif" font-size="14.00">Tag : 0</text>
<polyline fill="none" stroke="black" points="196.5,-281.5 261.5,-281.5 "/>
<text text-anchor="middle" x="229" y="-266.3" font-family="Times,serif" font-size="14.00">.</text>
</g>
<!-- entry_1&#45;&gt;p2 -->
<g id="edge6" class="edge">
<title>entry_1&#45;&gt;p2:head</title>
<path fill="none" stroke="black" d="M297.9,-470.44C309.94,-421.26 331.54,-306.02 273.08,-294.44"/>
<polygon fill="black" stroke="black" points="273.28,-290.95 263,-293.5 272.63,-297.92 273.28,-290.95"/>
</g>
<!-- entry_2 -->
<g id="node3" class="node">
<title>entry_2</title>
<polygon fill="yellow" stroke="black" points="0,-470.5 0,-516.5 120,-516.5 120,-470.5 0,-470.5"/>
<text text-anchor="middle" x="60" y="-501.3" font-family="Times,serif" font-size="14.00">val : true_desc</text>
<polyline fill="none" stroke="black" points="0,-493.5 120,-493.5 "/>
<text text-anchor="middle" x="60" y="-478.3" font-family="Times,serif" font-size="14.00">.</text>
</g>
<!-- p1 -->
<g id="node5" class="node">
<title>p1</title>
<path fill="lightblue" stroke="black" d="M107.5,-258.5C107.5,-258.5 148.5,-258.5 148.5,-258.5 154.5,-258.5 160.5,-264.5 160.5,-270.5 160.5,-270.5 160.5,-292.5 160.5,-292.5 160.5,-298.5 154.5,-304.5 148.5,-304.5 148.5,-304.5 107.5,-304.5 107.5,-304.5 101.5,-304.5 95.5,-298.5 95.5,-292.5 95.5,-292.5 95.5,-270.5 95.5,-270.5 95.5,-264.5 101.5,-258.5 107.5,-258.5"/>
<text text-anchor="middle" x="128" y="-289.3" font-family="Times,serif" font-size="14.00">Tag : 1</text>
<polyline fill="none" stroke="black" points="95.5,-281.5 160.5,-281.5 "/>
<text text-anchor="middle" x="128" y="-266.3" font-family="Times,serif" font-size="14.00">0</text>
</g>
<!-- entry_2&#45;&gt;p1 -->
<g id="edge7" class="edge">
<title>entry_2&#45;&gt;p1:head</title>
<path fill="none" stroke="black" d="M54.62,-470.44C43.74,-421.26 24.89,-306.02 83.86,-294.44"/>
<polygon fill="black" stroke="black" points="84.37,-297.91 94,-293.5 83.72,-290.94 84.37,-297.91"/>
</g>
<!-- p5&#45;&gt;p1 -->
<g id="edge2" class="edge">
<title>p5:f0&#45;&gt;p1:head</title>
<path fill="none" stroke="black" d="M145,-399.5C119,-399.5 140.68,-366.45 146,-341 149.03,-326.52 164.91,-310.32 168.72,-301.08"/>
<polygon fill="black" stroke="black" points="171.25,-298.66 162,-293.5 166.02,-303.3 171.25,-298.66"/>
</g>
<!-- p5&#45;&gt;p2 -->
<g id="edge3" class="edge">
<title>p5:f2&#45;&gt;p2:head</title>
<path fill="none" stroke="black" d="M213,-352.5C233.78,-352.5 196.98,-318.62 189.87,-302.21"/>
<polygon fill="black" stroke="black" points="192.94,-303.89 195,-293.5 186.91,-300.34 192.94,-303.89"/>
</g>
<!-- p3 -->
<g id="node7" class="node">
<title>p3</title>
<path fill="lightblue" stroke="black" d="M208.5,-83.5C208.5,-83.5 249.5,-83.5 249.5,-83.5 255.5,-83.5 261.5,-89.5 261.5,-95.5 261.5,-95.5 261.5,-209.5 261.5,-209.5 261.5,-215.5 255.5,-221.5 249.5,-221.5 249.5,-221.5 208.5,-221.5 208.5,-221.5 202.5,-221.5 196.5,-215.5 196.5,-209.5 196.5,-209.5 196.5,-95.5 196.5,-95.5 196.5,-89.5 202.5,-83.5 208.5,-83.5"/>
<text text-anchor="middle" x="229" y="-206.3" font-family="Times,serif" font-size="14.00">Tag : 0</text>
<polyline fill="none" stroke="black" points="196.5,-198.5 261.5,-198.5 "/>
<text text-anchor="middle" x="229" y="-183.3" font-family="Times,serif" font-size="14.00">.</text>
<polyline fill="none" stroke="black" points="196.5,-175.5 261.5,-175.5 "/>
<text text-anchor="middle" x="229" y="-160.3" font-family="Times,serif" font-size="14.00">1</text>
<polyline fill="none" stroke="black" points="196.5,-152.5 261.5,-152.5 "/>
<text text-anchor="middle" x="229" y="-137.3" font-family="Times,serif" font-size="14.00">1</text>
<polyline fill="none" stroke="black" points="196.5,-129.5 261.5,-129.5 "/>
<text text-anchor="middle" x="229" y="-114.3" font-family="Times,serif" font-size="14.00">1</text>
<polyline fill="none" stroke="black" points="196.5,-106.5 261.5,-106.5 "/>
<text text-anchor="middle" x="229" y="-91.3" font-family="Times,serif" font-size="14.00">2</text>
</g>
<!-- p2&#45;&gt;p3 -->
<g id="edge4" class="edge">
<title>p2:f0&#45;&gt;p3:head</title>
<path fill="none" stroke="black" d="M229,-258C229,-246 229,-240.75 229,-232.12"/>
<polygon fill="black" stroke="black" points="232.5,-232 229,-222 225.5,-232 232.5,-232"/>
</g>
<!-- p4 -->
<g id="node8" class="node">
<title>p4</title>
<path fill="lightblue" stroke="black" d="M170,-0.5C170,-0.5 288,-0.5 288,-0.5 294,-0.5 300,-6.5 300,-12.5 300,-12.5 300,-34.5 300,-34.5 300,-40.5 294,-46.5 288,-46.5 288,-46.5 170,-46.5 170,-46.5 164,-46.5 158,-40.5 158,-34.5 158,-34.5 158,-12.5 158,-12.5 158,-6.5 164,-0.5 170,-0.5"/>
<text text-anchor="middle" x="229" y="-31.3" font-family="Times,serif" font-size="14.00">Tag : 252</text>
<polyline fill="none" stroke="black" points="158,-23.5 300,-23.5 "/>
<text text-anchor="middle" x="229" y="-8.3" font-family="Times,serif" font-size="14.00">&#39;example.dummy&#39;</text>
</g>
<!-- p3&#45;&gt;p4 -->
<g id="edge5" class="edge">
<title>p3:f0&#45;&gt;p4:head</title>
<path fill="none" stroke="black" d="M263,-187.5C309.45,-187.5 279.04,-126.21 262,-83 255.59,-66.75 238.13,-67.4 231.55,-56.96"/>
<polygon fill="black" stroke="black" points="234.87,-55.82 229,-47 228.09,-57.56 234.87,-55.82"/>
</g>
</g>
</svg>
