<?xml version="1.0" encoding="UTF-8" standalone="no"?>
<!DOCTYPE svg PUBLIC "-//W3C//DTD SVG 1.1//EN"
 "http://www.w3.org/Graphics/SVG/1.1/DTD/svg11.dtd">
<!-- Generated by graphviz version 7.0.4 (0)
 -->
<!-- Title: g Pages: 1 -->
<svg width="295pt" height="525pt"
 viewBox="0.00 0.00 294.50 525.00" xmlns="http://www.w3.org/2000/svg" xmlns:xlink="http://www.w3.org/1999/xlink">
<g id="graph0" class="graph" transform="scale(1 1) rotate(0) translate(4 521)">
<title>g</title>
<!-- entry_2 -->
<g id="node1" class="node">
<title>entry_2</title>
<polygon fill="yellow" stroke="black" points="0,-470.5 0,-516.5 96,-516.5 96,-470.5 0,-470.5"/>
<text text-anchor="middle" x="48" y="-501.3" font-family="Times,serif" font-size="14.00">val : true_desc</text>
<polyline fill="none" stroke="black" points="0,-493.5 96,-493.5"/>
<text text-anchor="middle" x="48" y="-478.3" font-family="Times,serif" font-size="14.00">.</text>
</g>
<!-- p1 -->
<g id="node5" class="node">
<title>p1</title>
<path fill="lightblue" stroke="black" d="M63,-258.5C63,-258.5 95,-258.5 95,-258.5 101,-258.5 107,-264.5 107,-270.5 107,-270.5 107,-292.5 107,-292.5 107,-298.5 101,-304.5 95,-304.5 95,-304.5 63,-304.5 63,-304.5 57,-304.5 51,-298.5 51,-292.5 51,-292.5 51,-270.5 51,-270.5 51,-264.5 57,-258.5 63,-258.5"/>
<text text-anchor="middle" x="79" y="-289.3" font-family="Times,serif" font-size="14.00">Tag : 1</text>
<polyline fill="none" stroke="black" points="51,-281.5 107,-281.5"/>
<text text-anchor="middle" x="79" y="-266.3" font-family="Times,serif" font-size="14.00">0</text>
</g>
<!-- entry_2&#45;&gt;p1 -->
<g id="edge7" class="edge">
<title>entry_2&#45;&gt;p1:head</title>
<path fill="none" stroke="black" d="M53.98,-470.75C62.42,-438.18 77.03,-374.36 78.82,-316.48"/>
<polygon fill="black" stroke="black" points="82.32,-316.57 78.98,-306.51 75.32,-316.46 82.32,-316.57"/>
</g>
<!-- entry_1 -->
<g id="node2" class="node">
<title>entry_1</title>
<polygon fill="yellow" stroke="black" points="197.5,-470.5 197.5,-516.5 286.5,-516.5 286.5,-470.5 197.5,-470.5"/>
<text text-anchor="middle" x="242" y="-501.3" font-family="Times,serif" font-size="14.00">val : true_loc</text>
<polyline fill="none" stroke="black" points="197.5,-493.5 286.5,-493.5"/>
<text text-anchor="middle" x="242" y="-478.3" font-family="Times,serif" font-size="14.00">.</text>
</g>
<!-- p2 -->
<g id="node6" class="node">
<title>p2</title>
<path fill="lightblue" stroke="black" d="M168,-258.5C168,-258.5 200,-258.5 200,-258.5 206,-258.5 212,-264.5 212,-270.5 212,-270.5 212,-292.5 212,-292.5 212,-298.5 206,-304.5 200,-304.5 200,-304.5 168,-304.5 168,-304.5 162,-304.5 156,-298.5 156,-292.5 156,-292.5 156,-270.5 156,-270.5 156,-264.5 162,-258.5 168,-258.5"/>
<text text-anchor="middle" x="184" y="-289.3" font-family="Times,serif" font-size="14.00">Tag : 0</text>
<polyline fill="none" stroke="black" points="156,-281.5 212,-281.5"/>
<text text-anchor="middle" x="184" y="-266.3" font-family="Times,serif" font-size="14.00">.</text>
</g>
<!-- entry_1&#45;&gt;p2 -->
<g id="edge6" class="edge">
<title>entry_1&#45;&gt;p2:head</title>
<path fill="none" stroke="black" d="M247.81,-470.82C259.75,-422.17 281.41,-307.51 224.18,-294.67"/>
<polygon fill="black" stroke="black" points="224.82,-291.22 214.51,-293.66 224.09,-298.18 224.82,-291.22"/>
</g>
<!-- entry_0 -->
<g id="node3" class="node">
<title>entry_0</title>
<polygon fill="yellow" stroke="black" points="114.5,-470.5 114.5,-516.5 179.5,-516.5 179.5,-470.5 114.5,-470.5"/>
<text text-anchor="middle" x="147" y="-501.3" font-family="Times,serif" font-size="14.00">val : true</text>
<polyline fill="none" stroke="black" points="114.5,-493.5 179.5,-493.5"/>
<text text-anchor="middle" x="147" y="-478.3" font-family="Times,serif" font-size="14.00">.</text>
</g>
<!-- p5 -->
<g id="node4" class="node">
<title>p5</title>
<path fill="lightblue" stroke="black" d="M131,-341.5C131,-341.5 163,-341.5 163,-341.5 169,-341.5 175,-347.5 175,-353.5 175,-353.5 175,-421.5 175,-421.5 175,-427.5 169,-433.5 163,-433.5 163,-433.5 131,-433.5 131,-433.5 125,-433.5 119,-427.5 119,-421.5 119,-421.5 119,-353.5 119,-353.5 119,-347.5 125,-341.5 131,-341.5"/>
<text text-anchor="middle" x="147" y="-418.3" font-family="Times,serif" font-size="14.00">Tag : 0</text>
<polyline fill="none" stroke="black" points="119,-410.5 175,-410.5"/>
<text text-anchor="middle" x="147" y="-395.3" font-family="Times,serif" font-size="14.00">.</text>
<polyline fill="none" stroke="black" points="119,-387.5 175,-387.5"/>
<text text-anchor="middle" x="147" y="-372.3" font-family="Times,serif" font-size="14.00">0</text>
<polyline fill="none" stroke="black" points="119,-364.5 175,-364.5"/>
<text text-anchor="middle" x="147" y="-349.3" font-family="Times,serif" font-size="14.00">.</text>
</g>
<!-- entry_0&#45;&gt;p5 -->
<g id="edge1" class="edge">
<title>entry_0&#45;&gt;p5:head</title>
<path fill="none" stroke="black" d="M147,-470.55C147,-462.92 147,-454.07 147,-445.33"/>
<polygon fill="black" stroke="black" points="150.5,-445.51 147,-435.51 143.5,-445.51 150.5,-445.51"/>
</g>
<!-- p5&#45;&gt;p1 -->
<g id="edge2" class="edge">
<title>p5:f0&#45;&gt;p1:head</title>
<path fill="none" stroke="black" d="M118,-399.5C75.67,-399.5 138.93,-314.68 118.88,-296.79"/>
<polygon fill="black" stroke="black" points="120.03,-293.48 109.45,-293.94 118.01,-300.18 120.03,-293.48"/>
</g>
<!-- p5&#45;&gt;p2 -->
<g id="edge3" class="edge">
<title>p5:f2&#45;&gt;p2:head</title>
<path fill="none" stroke="black" d="M147,-341C147,-322.72 170.5,-325.28 180.04,-315.47"/>
<polygon fill="black" stroke="black" points="183.2,-317.01 183.46,-306.42 176.65,-314.53 183.2,-317.01"/>
</g>
<!-- p3 -->
<g id="node7" class="node">
<title>p3</title>
<path fill="lightblue" stroke="black" d="M168,-83.5C168,-83.5 200,-83.5 200,-83.5 206,-83.5 212,-89.5 212,-95.5 212,-95.5 212,-209.5 212,-209.5 212,-215.5 206,-221.5 200,-221.5 200,-221.5 168,-221.5 168,-221.5 162,-221.5 156,-215.5 156,-209.5 156,-209.5 156,-95.5 156,-95.5 156,-89.5 162,-83.5 168,-83.5"/>
<text text-anchor="middle" x="184" y="-206.3" font-family="Times,serif" font-size="14.00">Tag : 0</text>
<polyline fill="none" stroke="black" points="156,-198.5 212,-198.5"/>
<text text-anchor="middle" x="184" y="-183.3" font-family="Times,serif" font-size="14.00">.</text>
<polyline fill="none" stroke="black" points="156,-175.5 212,-175.5"/>
<text text-anchor="middle" x="184" y="-160.3" font-family="Times,serif" font-size="14.00">1</text>
<polyline fill="none" stroke="black" points="156,-152.5 212,-152.5"/>
<text text-anchor="middle" x="184" y="-137.3" font-family="Times,serif" font-size="14.00">1</text>
<polyline fill="none" stroke="black" points="156,-129.5 212,-129.5"/>
<text text-anchor="middle" x="184" y="-114.3" font-family="Times,serif" font-size="14.00">1</text>
<polyline fill="none" stroke="black" points="156,-106.5 212,-106.5"/>
<text text-anchor="middle" x="184" y="-91.3" font-family="Times,serif" font-size="14.00">2</text>
</g>
<!-- p2&#45;&gt;p3 -->
<g id="edge4" class="edge">
<title>p2:f0&#45;&gt;p3:head</title>
<path fill="none" stroke="black" d="M184,-258C184,-246.62 184,-241.32 184,-233.45"/>
<polygon fill="black" stroke="black" points="187.5,-233.51 184,-223.51 180.5,-233.51 187.5,-233.51"/>
</g>
<!-- p4 -->
<g id="node8" class="node">
<title>p4</title>
<path fill="lightblue" stroke="black" d="M139,-0.5C139,-0.5 229,-0.5 229,-0.5 235,-0.5 241,-6.5 241,-12.5 241,-12.5 241,-34.5 241,-34.5 241,-40.5 235,-46.5 229,-46.5 229,-46.5 139,-46.5 139,-46.5 133,-46.5 127,-40.5 127,-34.5 127,-34.5 127,-12.5 127,-12.5 127,-6.5 133,-0.5 139,-0.5"/>
<text text-anchor="middle" x="184" y="-31.3" font-family="Times,serif" font-size="14.00">Tag : 252</text>
<polyline fill="none" stroke="black" points="127,-23.5 241,-23.5"/>
<text text-anchor="middle" x="184" y="-8.3" font-family="Times,serif" font-size="14.00">&#39;example.dummy&#39;</text>
</g>
<!-- p3&#45;&gt;p4 -->
<g id="edge5" class="edge">
<title>p3:f0&#45;&gt;p4:head</title>
<path fill="none" stroke="black" d="M213,-187.5C259.45,-187.5 227.28,-126.86 212,-83 206.89,-68.35 193.19,-66.91 187.05,-57.94"/>
<polygon fill="black" stroke="black" points="190.46,-57.15 184.41,-48.46 183.72,-59.03 190.46,-57.15"/>
</g>
</g>
</svg>
