<?xml version="1.0" encoding="UTF-8" standalone="no"?>
<!DOCTYPE svg PUBLIC "-//W3C//DTD SVG 1.1//EN"
 "http://www.w3.org/Graphics/SVG/1.1/DTD/svg11.dtd">
<!-- Generated by graphviz version 2.50.0 (0)
 -->
<!-- Title: g Pages: 1 -->
<svg width="746pt" height="349pt"
 viewBox="0.00 0.00 745.50 349.00" xmlns="http://www.w3.org/2000/svg" xmlns:xlink="http://www.w3.org/1999/xlink">
<g id="graph0" class="graph" transform="scale(1 1) rotate(0) translate(4 345)">
<title>g</title>
<polygon fill="white" stroke="transparent" points="-4,4 -4,-345 741.5,-345 741.5,4 -4,4"/>
<!-- entry_0 -->
<g id="node1" class="node">
<title>entry_0</title>
<polygon fill="yellow" stroke="black" points="341,-294.5 341,-340.5 397,-340.5 397,-294.5 341,-294.5"/>
<text text-anchor="middle" x="369" y="-325.3" font-family="Times,serif" font-size="14.00">val : f</text>
<polyline fill="none" stroke="black" points="341,-317.5 397,-317.5 "/>
<text text-anchor="middle" x="369" y="-302.3" font-family="Times,serif" font-size="14.00">.</text>
</g>
<!-- p1 -->
<g id="node2" class="node">
<title>p1</title>
<path fill="lightblue" stroke="black" d="M296,-73.5C296,-73.5 442,-73.5 442,-73.5 448,-73.5 454,-79.5 454,-85.5 454,-85.5 454,-245.5 454,-245.5 454,-251.5 448,-257.5 442,-257.5 442,-257.5 296,-257.5 296,-257.5 290,-257.5 284,-251.5 284,-245.5 284,-245.5 284,-85.5 284,-85.5 284,-79.5 290,-73.5 296,-73.5"/>
<text text-anchor="middle" x="369" y="-242.3" font-family="Times,serif" font-size="14.00">Tag : 247</text>
<polyline fill="none" stroke="black" points="284,-234.5 454,-234.5 "/>
<text text-anchor="middle" x="369" y="-219.3" font-family="Times,serif" font-size="14.00">.</text>
<polyline fill="none" stroke="black" points="284,-211.5 454,-211.5 "/>
<text text-anchor="middle" x="369" y="-196.3" font-family="Times,serif" font-size="14.00">72057594037927942</text>
<polyline fill="none" stroke="black" points="284,-188.5 454,-188.5 "/>
<text text-anchor="middle" x="369" y="-173.3" font-family="Times,serif" font-size="14.00">.</text>
<polyline fill="none" stroke="black" points="284,-165.5 454,-165.5 "/>
<text text-anchor="middle" x="369" y="-150.3" font-family="Times,serif" font-size="14.00">2172</text>
<polyline fill="none" stroke="black" points="284,-142.5 454,-142.5 "/>
<text text-anchor="middle" x="369" y="-127.3" font-family="Times,serif" font-size="14.00">.</text>
<polyline fill="none" stroke="black" points="284,-119.5 454,-119.5 "/>
<text text-anchor="middle" x="369" y="-104.3" font-family="Times,serif" font-size="14.00">36028797018963970</text>
<polyline fill="none" stroke="black" points="284,-96.5 454,-96.5 "/>
<text text-anchor="middle" x="369" y="-81.3" font-family="Times,serif" font-size="14.00">4</text>
</g>
<!-- entry_0&#45;&gt;p1 -->
<g id="edge1" class="edge">
<title>entry_0&#45;&gt;p1:head</title>
<path fill="none" stroke="black" d="M369,-294.28C369,-286.34 369,-277.11 369,-268.06"/>
<polygon fill="black" stroke="black" points="372.5,-268 369,-258 365.5,-268 372.5,-268"/>
</g>
<!-- e93983561872464 -->
<g id="node3" class="node">
<title>e93983561872464</title>
<path fill="grey" stroke="black" d="M12,-0.5C12,-0.5 222,-0.5 222,-0.5 228,-0.5 234,-6.5 234,-12.5 234,-12.5 234,-24.5 234,-24.5 234,-30.5 228,-36.5 222,-36.5 222,-36.5 12,-36.5 12,-36.5 6,-36.5 0,-30.5 0,-24.5 0,-24.5 0,-12.5 0,-12.5 0,-6.5 6,-0.5 12,-0.5"/>
<text text-anchor="middle" x="117" y="-14.8" font-family="Times,serif" font-size="14.00">Out of heap : 0x557a40d1f450</text>
</g>
<!-- p1&#45;&gt;e93983561872464 -->
<g id="edge2" class="edge">
<title>p1:f0&#45;&gt;e93983561872464:head</title>
<path fill="none" stroke="black" d="M283,-223.5C192.9,-223.5 143.24,-102.41 125.08,-46.36"/>
<polygon fill="black" stroke="black" points="128.38,-45.19 122.05,-36.69 121.7,-47.28 128.38,-45.19"/>
</g>
<!-- e93983561873552 -->
<g id="node4" class="node">
<title>e93983561873552</title>
<path fill="grey" stroke="black" d="M264,-0.5C264,-0.5 474,-0.5 474,-0.5 480,-0.5 486,-6.5 486,-12.5 486,-12.5 486,-24.5 486,-24.5 486,-30.5 480,-36.5 474,-36.5 474,-36.5 264,-36.5 264,-36.5 258,-36.5 252,-30.5 252,-24.5 252,-24.5 252,-12.5 252,-12.5 252,-6.5 258,-0.5 264,-0.5"/>
<text text-anchor="middle" x="369" y="-14.8" font-family="Times,serif" font-size="14.00">Out of heap : 0x557a40d1f890</text>
</g>
<!-- p1&#45;&gt;e93983561873552 -->
<g id="edge3" class="edge">
<title>p1:f2&#45;&gt;e93983561873552:head</title>
<path fill="none" stroke="black" d="M455,-177.5C501.45,-177.5 476.48,-113.65 454,-73 446.9,-60.16 435.36,-49.89 423.04,-41.89"/>
<polygon fill="black" stroke="black" points="424.8,-38.86 414.43,-36.7 421.19,-44.86 424.8,-38.86"/>
</g>
<!-- e93983561873632 -->
<g id="node5" class="node">
<title>e93983561873632</title>
<path fill="grey" stroke="black" d="M516.5,-0.5C516.5,-0.5 725.5,-0.5 725.5,-0.5 731.5,-0.5 737.5,-6.5 737.5,-12.5 737.5,-12.5 737.5,-24.5 737.5,-24.5 737.5,-30.5 731.5,-36.5 725.5,-36.5 725.5,-36.5 516.5,-36.5 516.5,-36.5 510.5,-36.5 504.5,-30.5 504.5,-24.5 504.5,-24.5 504.5,-12.5 504.5,-12.5 504.5,-6.5 510.5,-0.5 516.5,-0.5"/>
<text text-anchor="middle" x="621" y="-14.8" font-family="Times,serif" font-size="14.00">Out of heap : 0x557a40d1f8e0</text>
</g>
<!-- p1&#45;&gt;e93983561873632 -->
<g id="edge4" class="edge">
<title>p1:f4&#45;&gt;e93983561873632:head</title>
<path fill="none" stroke="black" d="M455,-130.5C515.89,-130.5 571.17,-78.07 600.01,-44.95"/>
<polygon fill="black" stroke="black" points="602.96,-46.89 606.76,-36.99 597.62,-42.36 602.96,-46.89"/>
</g>
</g>
</svg>
