<?xml version="1.0" encoding="UTF-8" standalone="no"?>
<!DOCTYPE svg PUBLIC "-//W3C//DTD SVG 1.1//EN"
 "http://www.w3.org/Graphics/SVG/1.1/DTD/svg11.dtd">
<!-- Generated by graphviz version 7.1.0 (0)
 -->
<!-- Title: g Pages: 1 -->
<svg width="601pt" height="349pt"
 viewBox="0.00 0.00 601.00 349.00" xmlns="http://www.w3.org/2000/svg" xmlns:xlink="http://www.w3.org/1999/xlink">
<g id="graph0" class="graph" transform="scale(1 1) rotate(0) translate(4 345)">
<title>g</title>
<!-- entry_1 -->
<g id="node1" class="node">
<title>entry_1</title>
<polygon fill="yellow" stroke="black" points="233.5,-294.5 233.5,-340.5 287.5,-340.5 287.5,-294.5 233.5,-294.5"/>
<text text-anchor="middle" x="260.5" y="-325.3" font-family="Times,serif" font-size="14.00">val : g</text>
<polyline fill="none" stroke="black" points="233.5,-317.5 287.5,-317.5"/>
<text text-anchor="middle" x="260.5" y="-302.3" font-family="Times,serif" font-size="14.00">.</text>
</g>
<!-- p2 -->
<g id="node3" class="node">
<title>p2</title>
<path fill="lightblue" stroke="black" d="M250.5,-73.5C250.5,-73.5 342.5,-73.5 342.5,-73.5 348.5,-73.5 354.5,-79.5 354.5,-85.5 354.5,-85.5 354.5,-245.5 354.5,-245.5 354.5,-251.5 348.5,-257.5 342.5,-257.5 342.5,-257.5 250.5,-257.5 250.5,-257.5 244.5,-257.5 238.5,-251.5 238.5,-245.5 238.5,-245.5 238.5,-85.5 238.5,-85.5 238.5,-79.5 244.5,-73.5 250.5,-73.5"/>
<text text-anchor="middle" x="296.5" y="-242.3" font-family="Times,serif" font-size="14.00">Tag : 247</text>
<polyline fill="none" stroke="black" points="238.5,-234.5 354.5,-234.5"/>
<text text-anchor="middle" x="296.5" y="-219.3" font-family="Times,serif" font-size="14.00">.</text>
<polyline fill="none" stroke="black" points="238.5,-211.5 354.5,-211.5"/>
<text text-anchor="middle" x="296.5" y="-196.3" font-family="Times,serif" font-size="14.00">arity:2 / startenv:6</text>
<polyline fill="none" stroke="black" points="238.5,-188.5 354.5,-188.5"/>
<text text-anchor="middle" x="296.5" y="-173.3" font-family="Times,serif" font-size="14.00">.</text>
<polyline fill="none" stroke="black" points="238.5,-165.5 354.5,-165.5"/>
<text text-anchor="middle" x="296.5" y="-150.3" font-family="Times,serif" font-size="14.00">Infix</text>
<polyline fill="none" stroke="black" points="238.5,-142.5 354.5,-142.5"/>
<text text-anchor="middle" x="296.5" y="-127.3" font-family="Times,serif" font-size="14.00">.</text>
<polyline fill="none" stroke="black" points="238.5,-119.5 354.5,-119.5"/>
<text text-anchor="middle" x="296.5" y="-104.3" font-family="Times,serif" font-size="14.00">arity:1 / startenv:2</text>
<polyline fill="none" stroke="black" points="238.5,-96.5 354.5,-96.5"/>
<text text-anchor="middle" x="296.5" y="-81.3" font-family="Times,serif" font-size="14.00">4</text>
</g>
<!-- entry_1&#45;&gt;p2 -->
<g id="edge5" class="edge">
<title>entry_1&#45;&gt;p2:f3</title>
<path fill="none" stroke="black" d="M248.43,-294.52C226.9,-253.33 187.61,-167.54 226.57,-155.03"/>
<polygon fill="black" stroke="black" points="226.58,-158.57 236,-153.71 225.61,-151.63 226.58,-158.57"/>
</g>
<!-- entry_0 -->
<g id="node2" class="node">
<title>entry_0</title>
<polygon fill="yellow" stroke="black" points="305.5,-294.5 305.5,-340.5 359.5,-340.5 359.5,-294.5 305.5,-294.5"/>
<text text-anchor="middle" x="332.5" y="-325.3" font-family="Times,serif" font-size="14.00">val : f</text>
<polyline fill="none" stroke="black" points="305.5,-317.5 359.5,-317.5"/>
<text text-anchor="middle" x="332.5" y="-302.3" font-family="Times,serif" font-size="14.00">.</text>
</g>
<!-- entry_0&#45;&gt;p2 -->
<g id="edge1" class="edge">
<title>entry_0&#45;&gt;p2:head</title>
<path fill="none" stroke="black" d="M311.35,-294.75C305.72,-287.35 300.51,-278.56 298.03,-269.2"/>
<polygon fill="black" stroke="black" points="301.52,-268.94 296.7,-259.5 294.59,-269.88 301.52,-268.94"/>
</g>
<!-- e93988791493824 -->
<g id="node4" class="node">
<title>e93988791493824</title>
<path fill="grey" stroke="black" d="M12,-0.5C12,-0.5 173,-0.5 173,-0.5 179,-0.5 185,-6.5 185,-12.5 185,-12.5 185,-24.5 185,-24.5 185,-30.5 179,-36.5 173,-36.5 173,-36.5 12,-36.5 12,-36.5 6,-36.5 0,-30.5 0,-24.5 0,-24.5 0,-12.5 0,-12.5 0,-6.5 6,-0.5 12,-0.5"/>
<text text-anchor="middle" x="92.5" y="-14.8" font-family="Times,serif" font-size="14.00">Out of heap : 0x557b7887a4c0</text>
</g>
<!-- p2&#45;&gt;e93988791493824 -->
<g id="edge2" class="edge">
<title>p2:f0&#45;&gt;e93988791493824:head</title>
<path fill="none" stroke="black" d="M237.5,-223.5C152.24,-223.5 112.62,-103.84 98.67,-47.36"/>
<polygon fill="black" stroke="black" points="102.12,-46.74 96.42,-37.81 95.3,-48.34 102.12,-46.74"/>
</g>
<!-- e93988791495040 -->
<g id="node5" class="node">
<title>e93988791495040</title>
<path fill="grey" stroke="black" d="M215.5,-0.5C215.5,-0.5 377.5,-0.5 377.5,-0.5 383.5,-0.5 389.5,-6.5 389.5,-12.5 389.5,-12.5 389.5,-24.5 389.5,-24.5 389.5,-30.5 383.5,-36.5 377.5,-36.5 377.5,-36.5 215.5,-36.5 215.5,-36.5 209.5,-36.5 203.5,-30.5 203.5,-24.5 203.5,-24.5 203.5,-12.5 203.5,-12.5 203.5,-6.5 209.5,-0.5 215.5,-0.5"/>
<text text-anchor="middle" x="296.5" y="-14.8" font-family="Times,serif" font-size="14.00">Out of heap : 0x557b7887a980</text>
</g>
<!-- p2&#45;&gt;e93988791495040 -->
<g id="edge3" class="edge">
<title>p2:f2&#45;&gt;e93988791495040:head</title>
<path fill="none" stroke="black" d="M355.5,-177.5C401.95,-177.5 373.14,-115.54 354.5,-73 349.62,-61.88 341.26,-51.96 332.37,-43.75"/>
<polygon fill="black" stroke="black" points="334.82,-41.23 324.94,-37.38 330.26,-46.55 334.82,-41.23"/>
</g>
<!-- e93988791495104 -->
<g id="node6" class="node">
<title>e93988791495104</title>
<path fill="grey" stroke="black" d="M420,-0.5C420,-0.5 581,-0.5 581,-0.5 587,-0.5 593,-6.5 593,-12.5 593,-12.5 593,-24.5 593,-24.5 593,-30.5 587,-36.5 581,-36.5 581,-36.5 420,-36.5 420,-36.5 414,-36.5 408,-30.5 408,-24.5 408,-24.5 408,-12.5 408,-12.5 408,-6.5 414,-0.5 420,-0.5"/>
<text text-anchor="middle" x="500.5" y="-14.8" font-family="Times,serif" font-size="14.00">Out of heap : 0x557b7887a9c0</text>
</g>
<!-- p2&#45;&gt;e93988791495104 -->
<g id="edge4" class="edge">
<title>p2:f4&#45;&gt;e93988791495104:head</title>
<path fill="none" stroke="black" d="M355.5,-130.5C410.8,-130.5 457.86,-78.85 482.37,-45.7"/>
<polygon fill="black" stroke="black" points="485.1,-47.9 488.07,-37.73 479.41,-43.82 485.1,-47.9"/>
</g>
</g>
</svg>
