<?xml version="1.0" encoding="UTF-8" standalone="no"?>
<!DOCTYPE svg PUBLIC "-//W3C//DTD SVG 1.1//EN"
 "http://www.w3.org/Graphics/SVG/1.1/DTD/svg11.dtd">
<!-- Generated by graphviz version 2.50.0 (0)
 -->
<!-- Title: g Pages: 1 -->
<svg width="751pt" height="349pt"
 viewBox="0.00 0.00 751.00 349.00" xmlns="http://www.w3.org/2000/svg" xmlns:xlink="http://www.w3.org/1999/xlink">
<g id="graph0" class="graph" transform="scale(1 1) rotate(0) translate(4 345)">
<title>g</title>
<polygon fill="white" stroke="transparent" points="-4,4 -4,-345 747,-345 747,4 -4,4"/>
<!-- entry_0 -->
<g id="node1" class="node">
<title>entry_0</title>
<polygon fill="yellow" stroke="black" points="307.5,-294.5 307.5,-340.5 363.5,-340.5 363.5,-294.5 307.5,-294.5"/>
<text text-anchor="middle" x="335.5" y="-325.3" font-family="Times,serif" font-size="14.00">val : f</text>
<polyline fill="none" stroke="black" points="307.5,-317.5 363.5,-317.5 "/>
<text text-anchor="middle" x="335.5" y="-302.3" font-family="Times,serif" font-size="14.00">.</text>
</g>
<!-- p2 -->
<g id="node3" class="node">
<title>p2</title>
<path fill="lightblue" stroke="black" d="M300.5,-73.5C300.5,-73.5 446.5,-73.5 446.5,-73.5 452.5,-73.5 458.5,-79.5 458.5,-85.5 458.5,-85.5 458.5,-245.5 458.5,-245.5 458.5,-251.5 452.5,-257.5 446.5,-257.5 446.5,-257.5 300.5,-257.5 300.5,-257.5 294.5,-257.5 288.5,-251.5 288.5,-245.5 288.5,-245.5 288.5,-85.5 288.5,-85.5 288.5,-79.5 294.5,-73.5 300.5,-73.5"/>
<text text-anchor="middle" x="373.5" y="-242.3" font-family="Times,serif" font-size="14.00">Tag : 247</text>
<polyline fill="none" stroke="black" points="288.5,-234.5 458.5,-234.5 "/>
<text text-anchor="middle" x="373.5" y="-219.3" font-family="Times,serif" font-size="14.00">.</text>
<polyline fill="none" stroke="black" points="288.5,-211.5 458.5,-211.5 "/>
<text text-anchor="middle" x="373.5" y="-196.3" font-family="Times,serif" font-size="14.00">72057594037927942</text>
<polyline fill="none" stroke="black" points="288.5,-188.5 458.5,-188.5 "/>
<text text-anchor="middle" x="373.5" y="-173.3" font-family="Times,serif" font-size="14.00">.</text>
<polyline fill="none" stroke="black" points="288.5,-165.5 458.5,-165.5 "/>
<text text-anchor="middle" x="373.5" y="-150.3" font-family="Times,serif" font-size="14.00">Infix</text>
<polyline fill="none" stroke="black" points="288.5,-142.5 458.5,-142.5 "/>
<text text-anchor="middle" x="373.5" y="-127.3" font-family="Times,serif" font-size="14.00">.</text>
<polyline fill="none" stroke="black" points="288.5,-119.5 458.5,-119.5 "/>
<text text-anchor="middle" x="373.5" y="-104.3" font-family="Times,serif" font-size="14.00">36028797018963970</text>
<polyline fill="none" stroke="black" points="288.5,-96.5 458.5,-96.5 "/>
<text text-anchor="middle" x="373.5" y="-81.3" font-family="Times,serif" font-size="14.00">4</text>
</g>
<!-- entry_0&#45;&gt;p2 -->
<g id="edge1" class="edge">
<title>entry_0&#45;&gt;p2:head</title>
<path fill="none" stroke="black" d="M358.26,-294.4C364.33,-286.77 369.87,-277.67 372.26,-267.93"/>
<polygon fill="black" stroke="black" points="375.73,-268.36 373.5,-258 368.78,-267.49 375.73,-268.36"/>
</g>
<!-- entry_1 -->
<g id="node2" class="node">
<title>entry_1</title>
<polygon fill="yellow" stroke="black" points="381.5,-294.5 381.5,-340.5 441.5,-340.5 441.5,-294.5 381.5,-294.5"/>
<text text-anchor="middle" x="411.5" y="-325.3" font-family="Times,serif" font-size="14.00">val : g</text>
<polyline fill="none" stroke="black" points="381.5,-317.5 441.5,-317.5 "/>
<text text-anchor="middle" x="411.5" y="-302.3" font-family="Times,serif" font-size="14.00">.</text>
</g>
<!-- entry_1&#45;&gt;p2 -->
<g id="edge5" class="edge">
<title>entry_1&#45;&gt;p2:f3</title>
<path fill="none" stroke="black" d="M435.22,-294.29C444.32,-284.19 453.68,-271.5 458.5,-258 472.79,-218.02 500.6,-163.82 469.8,-154.8"/>
<polygon fill="black" stroke="black" points="469.86,-151.28 459.5,-153.5 468.98,-158.22 469.86,-151.28"/>
</g>
<!-- e94767464076368 -->
<g id="node4" class="node">
<title>e94767464076368</title>
<path fill="grey" stroke="black" d="M12,-0.5C12,-0.5 225,-0.5 225,-0.5 231,-0.5 237,-6.5 237,-12.5 237,-12.5 237,-24.5 237,-24.5 237,-30.5 231,-36.5 225,-36.5 225,-36.5 12,-36.5 12,-36.5 6,-36.5 0,-30.5 0,-24.5 0,-24.5 0,-12.5 0,-12.5 0,-6.5 6,-0.5 12,-0.5"/>
<text text-anchor="middle" x="118.5" y="-14.8" font-family="Times,serif" font-size="14.00">Out of heap : 0x5630c5085450</text>
</g>
<!-- p2&#45;&gt;e94767464076368 -->
<g id="edge2" class="edge">
<title>p2:f0&#45;&gt;e94767464076368:head</title>
<path fill="none" stroke="black" d="M287.5,-223.5C196.75,-223.5 145.67,-102.41 126.88,-46.36"/>
<polygon fill="black" stroke="black" points="130.16,-45.13 123.75,-36.69 123.5,-47.28 130.16,-45.13"/>
</g>
<!-- e94767464077472 -->
<g id="node5" class="node">
<title>e94767464077472</title>
<path fill="grey" stroke="black" d="M267.5,-0.5C267.5,-0.5 479.5,-0.5 479.5,-0.5 485.5,-0.5 491.5,-6.5 491.5,-12.5 491.5,-12.5 491.5,-24.5 491.5,-24.5 491.5,-30.5 485.5,-36.5 479.5,-36.5 479.5,-36.5 267.5,-36.5 267.5,-36.5 261.5,-36.5 255.5,-30.5 255.5,-24.5 255.5,-24.5 255.5,-12.5 255.5,-12.5 255.5,-6.5 261.5,-0.5 267.5,-0.5"/>
<text text-anchor="middle" x="373.5" y="-14.8" font-family="Times,serif" font-size="14.00">Out of heap : 0x5630c50858a0</text>
</g>
<!-- p2&#45;&gt;e94767464077472 -->
<g id="edge3" class="edge">
<title>p2:f2&#45;&gt;e94767464077472:head</title>
<path fill="none" stroke="black" d="M459.5,-177.5C505.95,-177.5 480.98,-113.65 458.5,-73 451.4,-60.16 439.86,-49.89 427.54,-41.89"/>
<polygon fill="black" stroke="black" points="429.3,-38.86 418.93,-36.7 425.69,-44.86 429.3,-38.86"/>
</g>
<!-- e94767464077552 -->
<g id="node6" class="node">
<title>e94767464077552</title>
<path fill="grey" stroke="black" d="M522,-0.5C522,-0.5 731,-0.5 731,-0.5 737,-0.5 743,-6.5 743,-12.5 743,-12.5 743,-24.5 743,-24.5 743,-30.5 737,-36.5 731,-36.5 731,-36.5 522,-36.5 522,-36.5 516,-36.5 510,-30.5 510,-24.5 510,-24.5 510,-12.5 510,-12.5 510,-6.5 516,-0.5 522,-0.5"/>
<text text-anchor="middle" x="626.5" y="-14.8" font-family="Times,serif" font-size="14.00">Out of heap : 0x5630c50858f0</text>
</g>
<!-- p2&#45;&gt;e94767464077552 -->
<g id="edge4" class="edge">
<title>p2:f4&#45;&gt;e94767464077552:head</title>
<path fill="none" stroke="black" d="M459.5,-130.5C520.65,-130.5 576.3,-78.07 605.35,-44.95"/>
<polygon fill="black" stroke="black" points="608.31,-46.87 612.15,-36.99 602.99,-42.32 608.31,-46.87"/>
</g>
</g>
</svg>
