<?xml version="1.0" encoding="UTF-8" standalone="no"?>
<!DOCTYPE svg PUBLIC "-//W3C//DTD SVG 1.1//EN"
 "http://www.w3.org/Graphics/SVG/1.1/DTD/svg11.dtd">
<!-- Generated by graphviz version 7.0.4 (0)
 -->
<!-- Title: g Pages: 1 -->
<svg width="599pt" height="349pt"
 viewBox="0.00 0.00 599.00 349.00" xmlns="http://www.w3.org/2000/svg" xmlns:xlink="http://www.w3.org/1999/xlink">
<g id="graph0" class="graph" transform="scale(1 1) rotate(0) translate(4 345)">
<title>g</title>
<!-- entry_1 -->
<g id="node1" class="node">
<title>entry_1</title>
<polygon fill="yellow" stroke="black" points="232.5,-294.5 232.5,-340.5 286.5,-340.5 286.5,-294.5 232.5,-294.5"/>
<text text-anchor="middle" x="259.5" y="-325.3" font-family="Times,serif" font-size="14.00">val : g</text>
<polyline fill="none" stroke="black" points="232.5,-317.5 286.5,-317.5"/>
<text text-anchor="middle" x="259.5" y="-302.3" font-family="Times,serif" font-size="14.00">.</text>
</g>
<!-- p2 -->
<g id="node3" class="node">
<title>p2</title>
<path fill="lightblue" stroke="black" d="M249.5,-73.5C249.5,-73.5 341.5,-73.5 341.5,-73.5 347.5,-73.5 353.5,-79.5 353.5,-85.5 353.5,-85.5 353.5,-245.5 353.5,-245.5 353.5,-251.5 347.5,-257.5 341.5,-257.5 341.5,-257.5 249.5,-257.5 249.5,-257.5 243.5,-257.5 237.5,-251.5 237.5,-245.5 237.5,-245.5 237.5,-85.5 237.5,-85.5 237.5,-79.5 243.5,-73.5 249.5,-73.5"/>
<text text-anchor="middle" x="295.5" y="-242.3" font-family="Times,serif" font-size="14.00">Tag : 247</text>
<polyline fill="none" stroke="black" points="237.5,-234.5 353.5,-234.5"/>
<text text-anchor="middle" x="295.5" y="-219.3" font-family="Times,serif" font-size="14.00">.</text>
<polyline fill="none" stroke="black" points="237.5,-211.5 353.5,-211.5"/>
<text text-anchor="middle" x="295.5" y="-196.3" font-family="Times,serif" font-size="14.00">arity:2 / startenv:6</text>
<polyline fill="none" stroke="black" points="237.5,-188.5 353.5,-188.5"/>
<text text-anchor="middle" x="295.5" y="-173.3" font-family="Times,serif" font-size="14.00">.</text>
<polyline fill="none" stroke="black" points="237.5,-165.5 353.5,-165.5"/>
<text text-anchor="middle" x="295.5" y="-150.3" font-family="Times,serif" font-size="14.00">Infix</text>
<polyline fill="none" stroke="black" points="237.5,-142.5 353.5,-142.5"/>
<text text-anchor="middle" x="295.5" y="-127.3" font-family="Times,serif" font-size="14.00">.</text>
<polyline fill="none" stroke="black" points="237.5,-119.5 353.5,-119.5"/>
<text text-anchor="middle" x="295.5" y="-104.3" font-family="Times,serif" font-size="14.00">arity:1 / startenv:2</text>
<polyline fill="none" stroke="black" points="237.5,-96.5 353.5,-96.5"/>
<text text-anchor="middle" x="295.5" y="-81.3" font-family="Times,serif" font-size="14.00">4</text>
</g>
<!-- entry_1&#45;&gt;p2 -->
<g id="edge5" class="edge">
<title>entry_1&#45;&gt;p2:f3</title>
<path fill="none" stroke="black" d="M247.43,-294.52C225.9,-253.33 186.61,-167.54 225.57,-155.03"/>
<polygon fill="black" stroke="black" points="225.58,-158.57 235,-153.71 224.61,-151.63 225.58,-158.57"/>
</g>
<!-- entry_0 -->
<g id="node2" class="node">
<title>entry_0</title>
<polygon fill="yellow" stroke="black" points="304.5,-294.5 304.5,-340.5 358.5,-340.5 358.5,-294.5 304.5,-294.5"/>
<text text-anchor="middle" x="331.5" y="-325.3" font-family="Times,serif" font-size="14.00">val : f</text>
<polyline fill="none" stroke="black" points="304.5,-317.5 358.5,-317.5"/>
<text text-anchor="middle" x="331.5" y="-302.3" font-family="Times,serif" font-size="14.00">.</text>
</g>
<!-- entry_0&#45;&gt;p2 -->
<g id="edge1" class="edge">
<title>entry_0&#45;&gt;p2:head</title>
<path fill="none" stroke="black" d="M310.35,-294.75C304.72,-287.35 299.51,-278.56 297.03,-269.2"/>
<polygon fill="black" stroke="black" points="300.52,-268.94 295.7,-259.5 293.59,-269.88 300.52,-268.94"/>
</g>
<!-- e94609347303120 -->
<g id="node4" class="node">
<title>e94609347303120</title>
<path fill="grey" stroke="black" d="M12,-0.5C12,-0.5 173,-0.5 173,-0.5 179,-0.5 185,-6.5 185,-12.5 185,-12.5 185,-24.5 185,-24.5 185,-30.5 179,-36.5 173,-36.5 173,-36.5 12,-36.5 12,-36.5 6,-36.5 0,-30.5 0,-24.5 0,-24.5 0,-12.5 0,-12.5 0,-6.5 6,-0.5 12,-0.5"/>
<text text-anchor="middle" x="92.5" y="-14.8" font-family="Times,serif" font-size="14.00">Out of heap : 0x560bf489d6d0</text>
</g>
<!-- p2&#45;&gt;e94609347303120 -->
<g id="edge2" class="edge">
<title>p2:f0&#45;&gt;e94609347303120:head</title>
<path fill="none" stroke="black" d="M236.5,-223.5C151.43,-223.5 112.3,-103.84 98.56,-47.36"/>
<polygon fill="black" stroke="black" points="102.01,-46.76 96.35,-37.81 95.2,-48.34 102.01,-46.76"/>
</g>
<!-- e94609347304704 -->
<g id="node5" class="node">
<title>e94609347304704</title>
<path fill="grey" stroke="black" d="M215,-0.5C215,-0.5 376,-0.5 376,-0.5 382,-0.5 388,-6.5 388,-12.5 388,-12.5 388,-24.5 388,-24.5 388,-30.5 382,-36.5 376,-36.5 376,-36.5 215,-36.5 215,-36.5 209,-36.5 203,-30.5 203,-24.5 203,-24.5 203,-12.5 203,-12.5 203,-6.5 209,-0.5 215,-0.5"/>
<text text-anchor="middle" x="295.5" y="-14.8" font-family="Times,serif" font-size="14.00">Out of heap : 0x560bf489dd00</text>
</g>
<!-- p2&#45;&gt;e94609347304704 -->
<g id="edge3" class="edge">
<title>p2:f2&#45;&gt;e94609347304704:head</title>
<path fill="none" stroke="black" d="M354.5,-177.5C400.95,-177.5 372.14,-115.54 353.5,-73 348.62,-61.88 340.26,-51.96 331.37,-43.75"/>
<polygon fill="black" stroke="black" points="333.82,-41.23 323.94,-37.38 329.26,-46.55 333.82,-41.23"/>
</g>
<!-- e94609347304800 -->
<g id="node6" class="node">
<title>e94609347304800</title>
<path fill="grey" stroke="black" d="M418,-0.5C418,-0.5 579,-0.5 579,-0.5 585,-0.5 591,-6.5 591,-12.5 591,-12.5 591,-24.5 591,-24.5 591,-30.5 585,-36.5 579,-36.5 579,-36.5 418,-36.5 418,-36.5 412,-36.5 406,-30.5 406,-24.5 406,-24.5 406,-12.5 406,-12.5 406,-6.5 412,-0.5 418,-0.5"/>
<text text-anchor="middle" x="498.5" y="-14.8" font-family="Times,serif" font-size="14.00">Out of heap : 0x560bf489dd60</text>
</g>
<!-- p2&#45;&gt;e94609347304800 -->
<g id="edge4" class="edge">
<title>p2:f4&#45;&gt;e94609347304800:head</title>
<path fill="none" stroke="black" d="M354.5,-130.5C409.56,-130.5 456.24,-78.85 480.54,-45.7"/>
<polygon fill="black" stroke="black" points="483.26,-47.91 486.19,-37.73 477.55,-43.86 483.26,-47.91"/>
</g>
</g>
</svg>
