<?xml version="1.0" encoding="UTF-8" standalone="no"?>
<!DOCTYPE svg PUBLIC "-//W3C//DTD SVG 1.1//EN"
 "http://www.w3.org/Graphics/SVG/1.1/DTD/svg11.dtd">
<!-- Generated by graphviz version 2.44.1 (0)
 -->
<!-- Title: g Pages: 1 -->
<svg width="2032pt" height="745pt"
 viewBox="0.00 0.00 2032.00 745.00" xmlns="http://www.w3.org/2000/svg" xmlns:xlink="http://www.w3.org/1999/xlink">
<g id="graph0" class="graph" transform="scale(1 1) rotate(0) translate(4 741)">
<title>g</title>
<polygon fill="white" stroke="transparent" points="-4,4 -4,-741 2028,-741 2028,4 -4,4"/>
<!-- entry_0 -->
<g id="node1" class="node">
<title>entry_0</title>
<polygon fill="yellow" stroke="black" points="52,-690.5 52,-736.5 180,-736.5 180,-690.5 52,-690.5"/>
<text text-anchor="middle" x="116" y="-721.3" font-family="Times,serif" font-size="14.00">val : f x = x + 1</text>
<polyline fill="none" stroke="black" points="52,-713.5 180,-713.5 "/>
<text text-anchor="middle" x="116" y="-698.3" font-family="Times,serif" font-size="14.00">.</text>
</g>
<!-- p9 -->
<g id="node11" class="node">
<title>p9</title>
<path fill="lightblue" stroke="black" d="M86.5,-237C86.5,-237 145.5,-237 145.5,-237 151.5,-237 157.5,-243 157.5,-249 157.5,-249 157.5,-294 157.5,-294 157.5,-300 151.5,-306 145.5,-306 145.5,-306 86.5,-306 86.5,-306 80.5,-306 74.5,-300 74.5,-294 74.5,-294 74.5,-249 74.5,-249 74.5,-243 80.5,-237 86.5,-237"/>
<text text-anchor="middle" x="116" y="-290.8" font-family="Times,serif" font-size="14.00">Tag : 247</text>
<polyline fill="none" stroke="black" points="74.5,-283 157.5,-283 "/>
<text text-anchor="middle" x="116" y="-267.8" font-family="Times,serif" font-size="14.00">.</text>
<polyline fill="none" stroke="black" points="74.5,-260 157.5,-260 "/>
<text text-anchor="middle" x="116" y="-244.8" font-family="Times,serif" font-size="14.00">1</text>
</g>
<!-- entry_0&#45;&gt;p9 -->
<g id="edge1" class="edge">
<title>entry_0&#45;&gt;p9:head</title>
<path fill="none" stroke="black" d="M116,-690.11C116,-630.3 116,-461.56 116,-317.81"/>
<polygon fill="black" stroke="black" points="119.5,-317.5 116,-307.5 112.5,-317.5 119.5,-317.5"/>
</g>
<!-- entry_1 -->
<g id="node2" class="node">
<title>entry_1</title>
<polygon fill="yellow" stroke="black" points="411.5,-690.5 411.5,-736.5 524.5,-736.5 524.5,-690.5 411.5,-690.5"/>
<text text-anchor="middle" x="468" y="-721.3" font-family="Times,serif" font-size="14.00">val : List.map</text>
<polyline fill="none" stroke="black" points="411.5,-713.5 524.5,-713.5 "/>
<text text-anchor="middle" x="468" y="-698.3" font-family="Times,serif" font-size="14.00">.</text>
</g>
<!-- p10 -->
<g id="node13" class="node">
<title>p10</title>
<path fill="lightblue" stroke="black" d="M438.5,-225.5C438.5,-225.5 497.5,-225.5 497.5,-225.5 503.5,-225.5 509.5,-231.5 509.5,-237.5 509.5,-237.5 509.5,-305.5 509.5,-305.5 509.5,-311.5 503.5,-317.5 497.5,-317.5 497.5,-317.5 438.5,-317.5 438.5,-317.5 432.5,-317.5 426.5,-311.5 426.5,-305.5 426.5,-305.5 426.5,-237.5 426.5,-237.5 426.5,-231.5 432.5,-225.5 438.5,-225.5"/>
<text text-anchor="middle" x="468" y="-302.3" font-family="Times,serif" font-size="14.00">Tag : 247</text>
<polyline fill="none" stroke="black" points="426.5,-294.5 509.5,-294.5 "/>
<text text-anchor="middle" x="468" y="-279.3" font-family="Times,serif" font-size="14.00">.</text>
<polyline fill="none" stroke="black" points="426.5,-271.5 509.5,-271.5 "/>
<text text-anchor="middle" x="468" y="-256.3" font-family="Times,serif" font-size="14.00">2</text>
<polyline fill="none" stroke="black" points="426.5,-248.5 509.5,-248.5 "/>
<text text-anchor="middle" x="468" y="-233.3" font-family="Times,serif" font-size="14.00">.</text>
</g>
<!-- entry_1&#45;&gt;p10 -->
<g id="edge3" class="edge">
<title>entry_1&#45;&gt;p10:head</title>
<path fill="none" stroke="black" d="M468,-690.28C468,-631.72 468,-468.01 468,-328.5"/>
<polygon fill="black" stroke="black" points="471.5,-328.5 468,-318.5 464.5,-328.5 471.5,-328.5"/>
</g>
<!-- entry_2 -->
<g id="node3" class="node">
<title>entry_2</title>
<polygon fill="yellow" stroke="black" points="230.5,-690.5 230.5,-736.5 353.5,-736.5 353.5,-690.5 230.5,-690.5"/>
<text text-anchor="middle" x="292" y="-721.3" font-family="Times,serif" font-size="14.00">val : List.map f</text>
<polyline fill="none" stroke="black" points="230.5,-713.5 353.5,-713.5 "/>
<text text-anchor="middle" x="292" y="-698.3" font-family="Times,serif" font-size="14.00">.</text>
</g>
<!-- p8 -->
<g id="node16" class="node">
<title>p8</title>
<path fill="lightblue" stroke="black" d="M262.5,-458C262.5,-458 321.5,-458 321.5,-458 327.5,-458 333.5,-464 333.5,-470 333.5,-470 333.5,-561 333.5,-561 333.5,-567 327.5,-573 321.5,-573 321.5,-573 262.5,-573 262.5,-573 256.5,-573 250.5,-567 250.5,-561 250.5,-561 250.5,-470 250.5,-470 250.5,-464 256.5,-458 262.5,-458"/>
<text text-anchor="middle" x="292" y="-557.8" font-family="Times,serif" font-size="14.00">Tag : 247</text>
<polyline fill="none" stroke="black" points="250.5,-550 333.5,-550 "/>
<text text-anchor="middle" x="292" y="-534.8" font-family="Times,serif" font-size="14.00">.</text>
<polyline fill="none" stroke="black" points="250.5,-527 333.5,-527 "/>
<text text-anchor="middle" x="292" y="-511.8" font-family="Times,serif" font-size="14.00">1</text>
<polyline fill="none" stroke="black" points="250.5,-504 333.5,-504 "/>
<text text-anchor="middle" x="292" y="-488.8" font-family="Times,serif" font-size="14.00">.</text>
<polyline fill="none" stroke="black" points="250.5,-481 333.5,-481 "/>
<text text-anchor="middle" x="292" y="-465.8" font-family="Times,serif" font-size="14.00">.</text>
</g>
<!-- entry_2&#45;&gt;p8 -->
<g id="edge6" class="edge">
<title>entry_2&#45;&gt;p8:head</title>
<path fill="none" stroke="black" d="M292,-690.03C292,-664.96 292,-622.88 292,-584.64"/>
<polygon fill="black" stroke="black" points="295.5,-584.5 292,-574.5 288.5,-584.5 295.5,-584.5"/>
</g>
<!-- entry_3 -->
<g id="node4" class="node">
<title>entry_3</title>
<polygon fill="yellow" stroke="black" points="1052.5,-690.5 1052.5,-736.5 1237.5,-736.5 1237.5,-690.5 1052.5,-690.5"/>
<text text-anchor="middle" x="1145" y="-721.3" font-family="Times,serif" font-size="14.00">val : g x y z = x + y + z</text>
<polyline fill="none" stroke="black" points="1052.5,-713.5 1237.5,-713.5 "/>
<text text-anchor="middle" x="1145" y="-698.3" font-family="Times,serif" font-size="14.00">.</text>
</g>
<!-- p6 -->
<g id="node18" class="node">
<title>p6</title>
<path fill="lightblue" stroke="black" d="M1066.5,-73.5C1066.5,-73.5 1125.5,-73.5 1125.5,-73.5 1131.5,-73.5 1137.5,-79.5 1137.5,-85.5 1137.5,-85.5 1137.5,-153.5 1137.5,-153.5 1137.5,-159.5 1131.5,-165.5 1125.5,-165.5 1125.5,-165.5 1066.5,-165.5 1066.5,-165.5 1060.5,-165.5 1054.5,-159.5 1054.5,-153.5 1054.5,-153.5 1054.5,-85.5 1054.5,-85.5 1054.5,-79.5 1060.5,-73.5 1066.5,-73.5"/>
<text text-anchor="middle" x="1096" y="-150.3" font-family="Times,serif" font-size="14.00">Tag : 247</text>
<polyline fill="none" stroke="black" points="1054.5,-142.5 1137.5,-142.5 "/>
<text text-anchor="middle" x="1096" y="-127.3" font-family="Times,serif" font-size="14.00">.</text>
<polyline fill="none" stroke="black" points="1054.5,-119.5 1137.5,-119.5 "/>
<text text-anchor="middle" x="1096" y="-104.3" font-family="Times,serif" font-size="14.00">3</text>
<polyline fill="none" stroke="black" points="1054.5,-96.5 1137.5,-96.5 "/>
<text text-anchor="middle" x="1096" y="-81.3" font-family="Times,serif" font-size="14.00">.</text>
</g>
<!-- entry_3&#45;&gt;p6 -->
<g id="edge10" class="edge">
<title>entry_3&#45;&gt;p6:head</title>
<path fill="none" stroke="black" d="M1148,-690.35C1156.98,-617.91 1179.46,-382.34 1120,-202 1115.25,-187.59 1103.05,-185.48 1098.12,-175.78"/>
<polygon fill="black" stroke="black" points="1101.54,-175.03 1096,-166 1094.7,-176.51 1101.54,-175.03"/>
</g>
<!-- entry_4 -->
<g id="node5" class="node">
<title>entry_4</title>
<polygon fill="yellow" stroke="black" points="641.5,-690.5 641.5,-736.5 754.5,-736.5 754.5,-690.5 641.5,-690.5"/>
<text text-anchor="middle" x="698" y="-721.3" font-family="Times,serif" font-size="14.00">val : g1 = g 5</text>
<polyline fill="none" stroke="black" points="641.5,-713.5 754.5,-713.5 "/>
<text text-anchor="middle" x="698" y="-698.3" font-family="Times,serif" font-size="14.00">.</text>
</g>
<!-- p5 -->
<g id="node21" class="node">
<title>p5</title>
<path fill="lightblue" stroke="black" d="M675.5,-202.5C675.5,-202.5 734.5,-202.5 734.5,-202.5 740.5,-202.5 746.5,-208.5 746.5,-214.5 746.5,-214.5 746.5,-328.5 746.5,-328.5 746.5,-334.5 740.5,-340.5 734.5,-340.5 734.5,-340.5 675.5,-340.5 675.5,-340.5 669.5,-340.5 663.5,-334.5 663.5,-328.5 663.5,-328.5 663.5,-214.5 663.5,-214.5 663.5,-208.5 669.5,-202.5 675.5,-202.5"/>
<text text-anchor="middle" x="705" y="-325.3" font-family="Times,serif" font-size="14.00">Tag : 247</text>
<polyline fill="none" stroke="black" points="663.5,-317.5 746.5,-317.5 "/>
<text text-anchor="middle" x="705" y="-302.3" font-family="Times,serif" font-size="14.00">.</text>
<polyline fill="none" stroke="black" points="663.5,-294.5 746.5,-294.5 "/>
<text text-anchor="middle" x="705" y="-279.3" font-family="Times,serif" font-size="14.00">2</text>
<polyline fill="none" stroke="black" points="663.5,-271.5 746.5,-271.5 "/>
<text text-anchor="middle" x="705" y="-256.3" font-family="Times,serif" font-size="14.00">.</text>
<polyline fill="none" stroke="black" points="663.5,-248.5 746.5,-248.5 "/>
<text text-anchor="middle" x="705" y="-233.3" font-family="Times,serif" font-size="14.00">5</text>
<polyline fill="none" stroke="black" points="663.5,-225.5 746.5,-225.5 "/>
<text text-anchor="middle" x="705" y="-210.3" font-family="Times,serif" font-size="14.00">.</text>
</g>
<!-- entry_4&#45;&gt;p5 -->
<g id="edge13" class="edge">
<title>entry_4&#45;&gt;p5:head</title>
<path fill="none" stroke="black" d="M698.71,-690.31C700.44,-634.15 704.77,-481.58 704.99,-351.15"/>
<polygon fill="black" stroke="black" points="708.49,-351 705,-341 701.49,-351 708.49,-351"/>
</g>
<!-- entry_5 -->
<g id="node6" class="node">
<title>entry_5</title>
<polygon fill="yellow" stroke="black" points="921.5,-690.5 921.5,-736.5 1034.5,-736.5 1034.5,-690.5 921.5,-690.5"/>
<text text-anchor="middle" x="978" y="-721.3" font-family="Times,serif" font-size="14.00">val : g2 = g 7</text>
<polyline fill="none" stroke="black" points="921.5,-713.5 1034.5,-713.5 "/>
<text text-anchor="middle" x="978" y="-698.3" font-family="Times,serif" font-size="14.00">.</text>
</g>
<!-- p7 -->
<g id="node23" class="node">
<title>p7</title>
<path fill="lightblue" stroke="black" d="M1039.5,-202.5C1039.5,-202.5 1098.5,-202.5 1098.5,-202.5 1104.5,-202.5 1110.5,-208.5 1110.5,-214.5 1110.5,-214.5 1110.5,-328.5 1110.5,-328.5 1110.5,-334.5 1104.5,-340.5 1098.5,-340.5 1098.5,-340.5 1039.5,-340.5 1039.5,-340.5 1033.5,-340.5 1027.5,-334.5 1027.5,-328.5 1027.5,-328.5 1027.5,-214.5 1027.5,-214.5 1027.5,-208.5 1033.5,-202.5 1039.5,-202.5"/>
<text text-anchor="middle" x="1069" y="-325.3" font-family="Times,serif" font-size="14.00">Tag : 247</text>
<polyline fill="none" stroke="black" points="1027.5,-317.5 1110.5,-317.5 "/>
<text text-anchor="middle" x="1069" y="-302.3" font-family="Times,serif" font-size="14.00">.</text>
<polyline fill="none" stroke="black" points="1027.5,-294.5 1110.5,-294.5 "/>
<text text-anchor="middle" x="1069" y="-279.3" font-family="Times,serif" font-size="14.00">2</text>
<polyline fill="none" stroke="black" points="1027.5,-271.5 1110.5,-271.5 "/>
<text text-anchor="middle" x="1069" y="-256.3" font-family="Times,serif" font-size="14.00">.</text>
<polyline fill="none" stroke="black" points="1027.5,-248.5 1110.5,-248.5 "/>
<text text-anchor="middle" x="1069" y="-233.3" font-family="Times,serif" font-size="14.00">7</text>
<polyline fill="none" stroke="black" points="1027.5,-225.5 1110.5,-225.5 "/>
<text text-anchor="middle" x="1069" y="-210.3" font-family="Times,serif" font-size="14.00">.</text>
</g>
<!-- entry_5&#45;&gt;p7 -->
<g id="edge17" class="edge">
<title>entry_5&#45;&gt;p7:head</title>
<path fill="none" stroke="black" d="M978.43,-690.25C980.15,-615.22 987.95,-373.95 1017.54,-334.87"/>
<polygon fill="black" stroke="black" points="1019.43,-337.81 1026,-329.5 1015.68,-331.9 1019.43,-337.81"/>
</g>
<!-- entry_6 -->
<g id="node7" class="node">
<title>entry_6</title>
<polygon fill="yellow" stroke="black" points="772.5,-690.5 772.5,-736.5 903.5,-736.5 903.5,-690.5 772.5,-690.5"/>
<text text-anchor="middle" x="838" y="-721.3" font-family="Times,serif" font-size="14.00">val : g3 = g1 42</text>
<polyline fill="none" stroke="black" points="772.5,-713.5 903.5,-713.5 "/>
<text text-anchor="middle" x="838" y="-698.3" font-family="Times,serif" font-size="14.00">.</text>
</g>
<!-- p4 -->
<g id="node25" class="node">
<title>p4</title>
<path fill="lightblue" stroke="black" d="M808.5,-458C808.5,-458 867.5,-458 867.5,-458 873.5,-458 879.5,-464 879.5,-470 879.5,-470 879.5,-561 879.5,-561 879.5,-567 873.5,-573 867.5,-573 867.5,-573 808.5,-573 808.5,-573 802.5,-573 796.5,-567 796.5,-561 796.5,-561 796.5,-470 796.5,-470 796.5,-464 802.5,-458 808.5,-458"/>
<text text-anchor="middle" x="838" y="-557.8" font-family="Times,serif" font-size="14.00">Tag : 247</text>
<polyline fill="none" stroke="black" points="796.5,-550 879.5,-550 "/>
<text text-anchor="middle" x="838" y="-534.8" font-family="Times,serif" font-size="14.00">.</text>
<polyline fill="none" stroke="black" points="796.5,-527 879.5,-527 "/>
<text text-anchor="middle" x="838" y="-511.8" font-family="Times,serif" font-size="14.00">1</text>
<polyline fill="none" stroke="black" points="796.5,-504 879.5,-504 "/>
<text text-anchor="middle" x="838" y="-488.8" font-family="Times,serif" font-size="14.00">42</text>
<polyline fill="none" stroke="black" points="796.5,-481 879.5,-481 "/>
<text text-anchor="middle" x="838" y="-465.8" font-family="Times,serif" font-size="14.00">.</text>
</g>
<!-- entry_6&#45;&gt;p4 -->
<g id="edge21" class="edge">
<title>entry_6&#45;&gt;p4:head</title>
<path fill="none" stroke="black" d="M838,-690.03C838,-664.96 838,-622.88 838,-584.64"/>
<polygon fill="black" stroke="black" points="841.5,-584.5 838,-574.5 834.5,-584.5 841.5,-584.5"/>
</g>
<!-- entry_7 -->
<g id="node8" class="node">
<title>entry_7</title>
<polygon fill="yellow" stroke="black" points="1255.5,-690.5 1255.5,-736.5 1416.5,-736.5 1416.5,-690.5 1255.5,-690.5"/>
<text text-anchor="middle" x="1336" y="-721.3" font-family="Times,serif" font-size="14.00">val : let rec h x = i x</text>
<polyline fill="none" stroke="black" points="1255.5,-713.5 1416.5,-713.5 "/>
<text text-anchor="middle" x="1336" y="-698.3" font-family="Times,serif" font-size="14.00">.</text>
</g>
<!-- p2 -->
<g id="node27" class="node">
<title>p2</title>
<path fill="lightblue" stroke="black" d="M1482.5,-377.5C1482.5,-377.5 1541.5,-377.5 1541.5,-377.5 1547.5,-377.5 1553.5,-383.5 1553.5,-389.5 1553.5,-389.5 1553.5,-641.5 1553.5,-641.5 1553.5,-647.5 1547.5,-653.5 1541.5,-653.5 1541.5,-653.5 1482.5,-653.5 1482.5,-653.5 1476.5,-653.5 1470.5,-647.5 1470.5,-641.5 1470.5,-641.5 1470.5,-389.5 1470.5,-389.5 1470.5,-383.5 1476.5,-377.5 1482.5,-377.5"/>
<text text-anchor="middle" x="1512" y="-638.3" font-family="Times,serif" font-size="14.00">Tag : 247</text>
<polyline fill="none" stroke="black" points="1470.5,-630.5 1553.5,-630.5 "/>
<text text-anchor="middle" x="1512" y="-615.3" font-family="Times,serif" font-size="14.00">.</text>
<polyline fill="none" stroke="black" points="1470.5,-607.5 1553.5,-607.5 "/>
<text text-anchor="middle" x="1512" y="-592.3" font-family="Times,serif" font-size="14.00">3</text>
<polyline fill="none" stroke="black" points="1470.5,-584.5 1553.5,-584.5 "/>
<text text-anchor="middle" x="1512" y="-569.3" font-family="Times,serif" font-size="14.00">.</text>
<polyline fill="none" stroke="black" points="1470.5,-561.5 1553.5,-561.5 "/>
<text text-anchor="middle" x="1512" y="-546.3" font-family="Times,serif" font-size="14.00">Infix</text>
<polyline fill="none" stroke="black" points="1470.5,-538.5 1553.5,-538.5 "/>
<text text-anchor="middle" x="1512" y="-523.3" font-family="Times,serif" font-size="14.00">.</text>
<polyline fill="none" stroke="black" points="1470.5,-515.5 1553.5,-515.5 "/>
<text text-anchor="middle" x="1512" y="-500.3" font-family="Times,serif" font-size="14.00">3</text>
<polyline fill="none" stroke="black" points="1470.5,-492.5 1553.5,-492.5 "/>
<text text-anchor="middle" x="1512" y="-477.3" font-family="Times,serif" font-size="14.00">.</text>
<polyline fill="none" stroke="black" points="1470.5,-469.5 1553.5,-469.5 "/>
<text text-anchor="middle" x="1512" y="-454.3" font-family="Times,serif" font-size="14.00">Infix</text>
<polyline fill="none" stroke="black" points="1470.5,-446.5 1553.5,-446.5 "/>
<text text-anchor="middle" x="1512" y="-431.3" font-family="Times,serif" font-size="14.00">.</text>
<polyline fill="none" stroke="black" points="1470.5,-423.5 1553.5,-423.5 "/>
<text text-anchor="middle" x="1512" y="-408.3" font-family="Times,serif" font-size="14.00">3</text>
<polyline fill="none" stroke="black" points="1470.5,-400.5 1553.5,-400.5 "/>
<text text-anchor="middle" x="1512" y="-385.3" font-family="Times,serif" font-size="14.00">.</text>
</g>
<!-- entry_7&#45;&gt;p2 -->
<g id="edge24" class="edge">
<title>entry_7&#45;&gt;p2:head</title>
<path fill="none" stroke="black" d="M1360.47,-690.35C1383.66,-671.53 1420.55,-646.94 1458.74,-643.03"/>
<polygon fill="black" stroke="black" points="1459.2,-646.51 1469,-642.5 1458.83,-639.52 1459.2,-646.51"/>
</g>
<!-- entry_8 -->
<g id="node9" class="node">
<title>entry_8</title>
<polygon fill="yellow" stroke="black" points="1434.5,-690.5 1434.5,-736.5 1591.5,-736.5 1591.5,-690.5 1434.5,-690.5"/>
<text text-anchor="middle" x="1513" y="-721.3" font-family="Times,serif" font-size="14.00">val : let rec i y = j y</text>
<polyline fill="none" stroke="black" points="1434.5,-713.5 1591.5,-713.5 "/>
<text text-anchor="middle" x="1513" y="-698.3" font-family="Times,serif" font-size="14.00">.</text>
</g>
<!-- entry_8&#45;&gt;p2 -->
<g id="edge31" class="edge">
<title>entry_8&#45;&gt;p2:f3</title>
<path fill="none" stroke="black" d="M1533.3,-690.35C1541.38,-680.08 1549.76,-667.23 1554,-654 1566.85,-613.96 1595.48,-560.64 1565.17,-551.77"/>
<polygon fill="black" stroke="black" points="1565.36,-548.27 1555,-550.5 1564.49,-555.22 1565.36,-548.27"/>
</g>
<!-- entry_9 -->
<g id="node10" class="node">
<title>entry_9</title>
<polygon fill="yellow" stroke="black" points="1610,-690.5 1610,-736.5 1770,-736.5 1770,-690.5 1610,-690.5"/>
<text text-anchor="middle" x="1690" y="-721.3" font-family="Times,serif" font-size="14.00">val : let rec j z = h z</text>
<polyline fill="none" stroke="black" points="1610,-713.5 1770,-713.5 "/>
<text text-anchor="middle" x="1690" y="-698.3" font-family="Times,serif" font-size="14.00">.</text>
</g>
<!-- entry_9&#45;&gt;p2 -->
<g id="edge32" class="edge">
<title>entry_9&#45;&gt;p2:f7</title>
<path fill="none" stroke="black" d="M1688.64,-690.32C1683.7,-630.34 1661.49,-468.72 1565.19,-458.05"/>
<polygon fill="black" stroke="black" points="1565.18,-454.55 1555,-457.5 1564.79,-461.54 1565.18,-454.55"/>
</g>
<!-- e94656313418720 -->
<g id="node12" class="node">
<title>e94656313418720</title>
<path fill="grey" stroke="black" d="M12,-101.5C12,-101.5 220,-101.5 220,-101.5 226,-101.5 232,-107.5 232,-113.5 232,-113.5 232,-125.5 232,-125.5 232,-131.5 226,-137.5 220,-137.5 220,-137.5 12,-137.5 12,-137.5 6,-137.5 0,-131.5 0,-125.5 0,-125.5 0,-113.5 0,-113.5 0,-107.5 6,-101.5 12,-101.5"/>
<text text-anchor="middle" x="116" y="-115.8" font-family="Times,serif" font-size="14.00">Out of heap : 0x5616e3efe3e0</text>
</g>
<!-- p9&#45;&gt;e94656313418720 -->
<g id="edge2" class="edge">
<title>p9:f0&#45;&gt;e94656313418720:head</title>
<path fill="none" stroke="black" d="M159,-271.5C166.78,-271.5 159.44,-244.15 158,-236.5 152.01,-204.77 138.67,-170.16 128.63,-146.88"/>
<polygon fill="black" stroke="black" points="131.79,-145.38 124.55,-137.64 125.38,-148.2 131.79,-145.38"/>
</g>
<!-- e94656313418032 -->
<g id="node14" class="node">
<title>e94656313418032</title>
<path fill="grey" stroke="black" d="M564.5,-101.5C564.5,-101.5 773.5,-101.5 773.5,-101.5 779.5,-101.5 785.5,-107.5 785.5,-113.5 785.5,-113.5 785.5,-125.5 785.5,-125.5 785.5,-131.5 779.5,-137.5 773.5,-137.5 773.5,-137.5 564.5,-137.5 564.5,-137.5 558.5,-137.5 552.5,-131.5 552.5,-125.5 552.5,-125.5 552.5,-113.5 552.5,-113.5 552.5,-107.5 558.5,-101.5 564.5,-101.5"/>
<text text-anchor="middle" x="669" y="-115.8" font-family="Times,serif" font-size="14.00">Out of heap : 0x5616e3efe130</text>
</g>
<!-- p10&#45;&gt;e94656313418032 -->
<g id="edge4" class="edge">
<title>p10:f0&#45;&gt;e94656313418032:head</title>
<path fill="none" stroke="black" d="M511,-283.5C585.93,-283.5 636.51,-193.62 657.73,-146.94"/>
<polygon fill="black" stroke="black" points="660.98,-148.24 661.81,-137.68 654.57,-145.42 660.98,-148.24"/>
</g>
<!-- e94656313466160 -->
<g id="node15" class="node">
<title>e94656313466160</title>
<path fill="grey" stroke="black" d="M312,-101.5C312,-101.5 522,-101.5 522,-101.5 528,-101.5 534,-107.5 534,-113.5 534,-113.5 534,-125.5 534,-125.5 534,-131.5 528,-137.5 522,-137.5 522,-137.5 312,-137.5 312,-137.5 306,-137.5 300,-131.5 300,-125.5 300,-125.5 300,-113.5 300,-113.5 300,-107.5 306,-101.5 312,-101.5"/>
<text text-anchor="middle" x="417" y="-115.8" font-family="Times,serif" font-size="14.00">Out of heap : 0x5616e3f09d30</text>
</g>
<!-- p10&#45;&gt;e94656313466160 -->
<g id="edge5" class="edge">
<title>p10:f2&#45;&gt;e94656313466160:head</title>
<path fill="none" stroke="black" d="M468,-224.5C468,-195.42 451.98,-165.95 437.89,-145.66"/>
<polygon fill="black" stroke="black" points="440.72,-143.61 432.03,-137.56 435.05,-147.71 440.72,-143.61"/>
</g>
<!-- p8&#45;&gt;p9 -->
<g id="edge8" class="edge">
<title>p8:f2&#45;&gt;p9:head</title>
<path fill="none" stroke="black" d="M249,-492.5C172.22,-492.5 190.54,-413.75 166,-341 163.68,-334.12 166.25,-314.32 164.52,-302.9"/>
<polygon fill="black" stroke="black" points="167.42,-300.93 159,-294.5 161.57,-304.78 167.42,-300.93"/>
</g>
<!-- p8&#45;&gt;p10 -->
<g id="edge9" class="edge">
<title>p8:f3&#45;&gt;p10:head</title>
<path fill="none" stroke="black" d="M335,-469.5C402.75,-469.5 390.75,-403.46 417,-341 420.96,-331.59 416.53,-319.88 417.22,-312.81"/>
<polygon fill="black" stroke="black" points="419.43,-315.51 425,-306.5 415.03,-310.07 419.43,-315.51"/>
</g>
<!-- e94656313420160 -->
<g id="node17" class="node">
<title>e94656313420160</title>
<path fill="grey" stroke="black" d="M187.5,-253.5C187.5,-253.5 396.5,-253.5 396.5,-253.5 402.5,-253.5 408.5,-259.5 408.5,-265.5 408.5,-265.5 408.5,-277.5 408.5,-277.5 408.5,-283.5 402.5,-289.5 396.5,-289.5 396.5,-289.5 187.5,-289.5 187.5,-289.5 181.5,-289.5 175.5,-283.5 175.5,-277.5 175.5,-277.5 175.5,-265.5 175.5,-265.5 175.5,-259.5 181.5,-253.5 187.5,-253.5"/>
<text text-anchor="middle" x="292" y="-267.8" font-family="Times,serif" font-size="14.00">Out of heap : 0x5616e3efe980</text>
</g>
<!-- p8&#45;&gt;e94656313420160 -->
<g id="edge7" class="edge">
<title>p8:f0&#45;&gt;e94656313420160:head</title>
<path fill="none" stroke="black" d="M335,-538.5C431.41,-538.5 345.49,-366.71 307.71,-298.73"/>
<polygon fill="black" stroke="black" points="310.67,-296.86 302.72,-289.85 304.57,-300.28 310.67,-296.86"/>
</g>
<!-- e94656313417792 -->
<g id="node19" class="node">
<title>e94656313417792</title>
<path fill="grey" stroke="black" d="M1350.5,-0.5C1350.5,-0.5 1559.5,-0.5 1559.5,-0.5 1565.5,-0.5 1571.5,-6.5 1571.5,-12.5 1571.5,-12.5 1571.5,-24.5 1571.5,-24.5 1571.5,-30.5 1565.5,-36.5 1559.5,-36.5 1559.5,-36.5 1350.5,-36.5 1350.5,-36.5 1344.5,-36.5 1338.5,-30.5 1338.5,-24.5 1338.5,-24.5 1338.5,-12.5 1338.5,-12.5 1338.5,-6.5 1344.5,-0.5 1350.5,-0.5"/>
<text text-anchor="middle" x="1455" y="-14.8" font-family="Times,serif" font-size="14.00">Out of heap : 0x5616e3efe040</text>
</g>
<!-- p6&#45;&gt;e94656313417792 -->
<g id="edge11" class="edge">
<title>p6:f0&#45;&gt;e94656313417792:head</title>
<path fill="none" stroke="black" d="M1139,-131.5C1152.12,-131.5 1137.91,-82.46 1147,-73 1150.42,-69.44 1249.43,-52.32 1334.28,-38.21"/>
<polygon fill="black" stroke="black" points="1334.99,-41.64 1344.28,-36.55 1333.85,-34.73 1334.99,-41.64"/>
</g>
<!-- e94656313418736 -->
<g id="node20" class="node">
<title>e94656313418736</title>
<path fill="grey" stroke="black" d="M993.5,-0.5C993.5,-0.5 1198.5,-0.5 1198.5,-0.5 1204.5,-0.5 1210.5,-6.5 1210.5,-12.5 1210.5,-12.5 1210.5,-24.5 1210.5,-24.5 1210.5,-30.5 1204.5,-36.5 1198.5,-36.5 1198.5,-36.5 993.5,-36.5 993.5,-36.5 987.5,-36.5 981.5,-30.5 981.5,-24.5 981.5,-24.5 981.5,-12.5 981.5,-12.5 981.5,-6.5 987.5,-0.5 993.5,-0.5"/>
<text text-anchor="middle" x="1096" y="-14.8" font-family="Times,serif" font-size="14.00">Out of heap : 0x5616e3efe3f0</text>
</g>
<!-- p6&#45;&gt;e94656313418736 -->
<g id="edge12" class="edge">
<title>p6:f2&#45;&gt;e94656313418736:head</title>
<path fill="none" stroke="black" d="M1096,-73C1096,-64.48 1096,-55.22 1096,-46.79"/>
<polygon fill="black" stroke="black" points="1099.5,-46.67 1096,-36.67 1092.5,-46.67 1099.5,-46.67"/>
</g>
<!-- p5&#45;&gt;e94656313418032 -->
<g id="edge14" class="edge">
<title>p5:f0&#45;&gt;e94656313418032:head</title>
<path fill="none" stroke="black" d="M662,-306.5C598.97,-306.5 635.49,-199.11 656.88,-147.09"/>
<polygon fill="black" stroke="black" points="660.15,-148.35 660.79,-137.77 653.69,-145.64 660.15,-148.35"/>
</g>
<!-- p5&#45;&gt;p6 -->
<g id="edge16" class="edge">
<title>p5:f4&#45;&gt;p6:head</title>
<path fill="none" stroke="black" d="M748,-213.5C754.23,-213.5 750.67,-205.22 756,-202 867.18,-134.86 936.92,-236.5 1046,-166 1047.1,-165.29 1047.77,-164.34 1048.2,-163.29"/>
<polygon fill="black" stroke="black" points="1051.28,-164.95 1053,-154.5 1045.14,-161.6 1051.28,-164.95"/>
</g>
<!-- e94656313418752 -->
<g id="node22" class="node">
<title>e94656313418752</title>
<path fill="grey" stroke="black" d="M815.5,-101.5C815.5,-101.5 1024.5,-101.5 1024.5,-101.5 1030.5,-101.5 1036.5,-107.5 1036.5,-113.5 1036.5,-113.5 1036.5,-125.5 1036.5,-125.5 1036.5,-131.5 1030.5,-137.5 1024.5,-137.5 1024.5,-137.5 815.5,-137.5 815.5,-137.5 809.5,-137.5 803.5,-131.5 803.5,-125.5 803.5,-125.5 803.5,-113.5 803.5,-113.5 803.5,-107.5 809.5,-101.5 815.5,-101.5"/>
<text text-anchor="middle" x="920" y="-115.8" font-family="Times,serif" font-size="14.00">Out of heap : 0x5616e3efe400</text>
</g>
<!-- p5&#45;&gt;e94656313418752 -->
<g id="edge15" class="edge">
<title>p5:f2&#45;&gt;e94656313418752:head</title>
<path fill="none" stroke="black" d="M748,-259.5C760.9,-259.5 748.49,-212.49 756,-202 769.63,-182.97 821.61,-158.62 863.45,-141.31"/>
<polygon fill="black" stroke="black" points="864.81,-144.54 872.75,-137.51 862.16,-138.06 864.81,-144.54"/>
</g>
<!-- p7&#45;&gt;e94656313418032 -->
<g id="edge18" class="edge">
<title>p7:f0&#45;&gt;e94656313418032:head</title>
<path fill="none" stroke="black" d="M1026,-306.5C978.79,-306.5 1040.57,-235.18 1007,-202 939.03,-134.82 887.34,-190.65 795,-166 770.26,-159.4 743.56,-149.9 721.14,-141.21"/>
<polygon fill="black" stroke="black" points="722.39,-137.94 711.8,-137.55 719.83,-144.46 722.39,-137.94"/>
</g>
<!-- p7&#45;&gt;p6 -->
<g id="edge20" class="edge">
<title>p7:f4&#45;&gt;p6:head</title>
<path fill="none" stroke="black" d="M1069,-202C1069,-186.06 1086.15,-185.37 1093.11,-175.62"/>
<polygon fill="black" stroke="black" points="1096.48,-176.58 1096,-166 1089.77,-174.57 1096.48,-176.58"/>
</g>
<!-- e94656313418768 -->
<g id="node24" class="node">
<title>e94656313418768</title>
<path fill="grey" stroke="black" d="M1167.5,-101.5C1167.5,-101.5 1376.5,-101.5 1376.5,-101.5 1382.5,-101.5 1388.5,-107.5 1388.5,-113.5 1388.5,-113.5 1388.5,-125.5 1388.5,-125.5 1388.5,-131.5 1382.5,-137.5 1376.5,-137.5 1376.5,-137.5 1167.5,-137.5 1167.5,-137.5 1161.5,-137.5 1155.5,-131.5 1155.5,-125.5 1155.5,-125.5 1155.5,-113.5 1155.5,-113.5 1155.5,-107.5 1161.5,-101.5 1167.5,-101.5"/>
<text text-anchor="middle" x="1272" y="-115.8" font-family="Times,serif" font-size="14.00">Out of heap : 0x5616e3efe410</text>
</g>
<!-- p7&#45;&gt;e94656313418768 -->
<g id="edge19" class="edge">
<title>p7:f2&#45;&gt;e94656313418768:head</title>
<path fill="none" stroke="black" d="M1112,-259.5C1147.06,-259.5 1140.09,-225.62 1166,-202 1188.98,-181.06 1216.77,-159.56 1238.13,-143.76"/>
<polygon fill="black" stroke="black" points="1240.28,-146.52 1246.27,-137.78 1236.13,-140.88 1240.28,-146.52"/>
</g>
<!-- p4&#45;&gt;p5 -->
<g id="edge23" class="edge">
<title>p4:f3&#45;&gt;p5:head</title>
<path fill="none" stroke="black" d="M795,-469.5C788.05,-469.5 765.01,-368.91 753.15,-338.26"/>
<polygon fill="black" stroke="black" points="756.09,-336.35 748,-329.5 750.05,-339.89 756.09,-336.35"/>
</g>
<!-- e94656313418784 -->
<g id="node26" class="node">
<title>e94656313418784</title>
<path fill="grey" stroke="black" d="M776.5,-253.5C776.5,-253.5 985.5,-253.5 985.5,-253.5 991.5,-253.5 997.5,-259.5 997.5,-265.5 997.5,-265.5 997.5,-277.5 997.5,-277.5 997.5,-283.5 991.5,-289.5 985.5,-289.5 985.5,-289.5 776.5,-289.5 776.5,-289.5 770.5,-289.5 764.5,-283.5 764.5,-277.5 764.5,-277.5 764.5,-265.5 764.5,-265.5 764.5,-259.5 770.5,-253.5 776.5,-253.5"/>
<text text-anchor="middle" x="881" y="-267.8" font-family="Times,serif" font-size="14.00">Out of heap : 0x5616e3efe420</text>
</g>
<!-- p4&#45;&gt;e94656313418784 -->
<g id="edge22" class="edge">
<title>p4:f0&#45;&gt;e94656313418784:head</title>
<path fill="none" stroke="black" d="M881,-538.5C975.8,-538.5 919.14,-368.12 892.51,-299.57"/>
<polygon fill="black" stroke="black" points="895.6,-297.87 888.67,-289.85 889.09,-300.44 895.6,-297.87"/>
</g>
<!-- p2&#45;&gt;e94656313417792 -->
<g id="edge25" class="edge">
<title>p2:f0&#45;&gt;e94656313417792:head</title>
<path fill="none" stroke="black" d="M1469,-619.5C1454.5,-619.5 1454.63,-166.28 1454.91,-46.99"/>
<polygon fill="black" stroke="black" points="1458.41,-46.82 1454.94,-36.81 1451.41,-46.81 1458.41,-46.82"/>
</g>
<!-- p2&#45;&gt;e94656313417792 -->
<g id="edge27" class="edge">
<title>p2:f4&#45;&gt;e94656313417792:head</title>
<path fill="none" stroke="black" d="M1469,-527.5C1388.56,-527.5 1450.23,-246.44 1450,-166 1449.88,-124.67 1448.11,-114.29 1450,-73 1450.39,-64.46 1451.13,-55.19 1451.91,-46.75"/>
<polygon fill="black" stroke="black" points="1455.41,-46.94 1452.92,-36.64 1448.45,-46.24 1455.41,-46.94"/>
</g>
<!-- p2&#45;&gt;e94656313417792 -->
<g id="edge29" class="edge">
<title>p2:f8&#45;&gt;e94656313417792:head</title>
<path fill="none" stroke="black" d="M1555,-434.5C1611.6,-434.5 1532.08,-341.19 1532,-341 1531.82,-340.57 1480.53,-125.55 1461.77,-46.89"/>
<polygon fill="black" stroke="black" points="1465.07,-45.65 1459.35,-36.73 1458.26,-47.27 1465.07,-45.65"/>
</g>
<!-- e94656313418880 -->
<g id="node28" class="node">
<title>e94656313418880</title>
<path fill="grey" stroke="black" d="M1186.5,-253.5C1186.5,-253.5 1395.5,-253.5 1395.5,-253.5 1401.5,-253.5 1407.5,-259.5 1407.5,-265.5 1407.5,-265.5 1407.5,-277.5 1407.5,-277.5 1407.5,-283.5 1401.5,-289.5 1395.5,-289.5 1395.5,-289.5 1186.5,-289.5 1186.5,-289.5 1180.5,-289.5 1174.5,-283.5 1174.5,-277.5 1174.5,-277.5 1174.5,-265.5 1174.5,-265.5 1174.5,-259.5 1180.5,-253.5 1186.5,-253.5"/>
<text text-anchor="middle" x="1291" y="-267.8" font-family="Times,serif" font-size="14.00">Out of heap : 0x5616e3efe480</text>
</g>
<!-- p2&#45;&gt;e94656313418880 -->
<g id="edge26" class="edge">
<title>p2:f2&#45;&gt;e94656313418880:head</title>
<path fill="none" stroke="black" d="M1469,-573.5C1342.83,-573.5 1304.28,-375.46 1294.18,-300.12"/>
<polygon fill="black" stroke="black" points="1297.61,-299.42 1292.89,-289.94 1290.67,-300.3 1297.61,-299.42"/>
</g>
<!-- e94656313418896 -->
<g id="node29" class="node">
<title>e94656313418896</title>
<path fill="grey" stroke="black" d="M1552.5,-253.5C1552.5,-253.5 1761.5,-253.5 1761.5,-253.5 1767.5,-253.5 1773.5,-259.5 1773.5,-265.5 1773.5,-265.5 1773.5,-277.5 1773.5,-277.5 1773.5,-283.5 1767.5,-289.5 1761.5,-289.5 1761.5,-289.5 1552.5,-289.5 1552.5,-289.5 1546.5,-289.5 1540.5,-283.5 1540.5,-277.5 1540.5,-277.5 1540.5,-265.5 1540.5,-265.5 1540.5,-259.5 1546.5,-253.5 1552.5,-253.5"/>
<text text-anchor="middle" x="1657" y="-267.8" font-family="Times,serif" font-size="14.00">Out of heap : 0x5616e3efe490</text>
</g>
<!-- p2&#45;&gt;e94656313418896 -->
<g id="edge28" class="edge">
<title>p2:f6&#45;&gt;e94656313418896:head</title>
<path fill="none" stroke="black" d="M1555,-480.5C1634.46,-480.5 1652.03,-356.97 1655.91,-299.85"/>
<polygon fill="black" stroke="black" points="1659.41,-299.87 1656.5,-289.68 1652.42,-299.46 1659.41,-299.87"/>
</g>
<!-- e94656313418912 -->
<g id="node30" class="node">
<title>e94656313418912</title>
<path fill="grey" stroke="black" d="M1804,-253.5C1804,-253.5 2012,-253.5 2012,-253.5 2018,-253.5 2024,-259.5 2024,-265.5 2024,-265.5 2024,-277.5 2024,-277.5 2024,-283.5 2018,-289.5 2012,-289.5 2012,-289.5 1804,-289.5 1804,-289.5 1798,-289.5 1792,-283.5 1792,-277.5 1792,-277.5 1792,-265.5 1792,-265.5 1792,-259.5 1798,-253.5 1804,-253.5"/>
<text text-anchor="middle" x="1908" y="-267.8" font-family="Times,serif" font-size="14.00">Out of heap : 0x5616e3efe4a0</text>
</g>
<!-- p2&#45;&gt;e94656313418912 -->
<g id="edge30" class="edge">
<title>p2:f10&#45;&gt;e94656313418912:head</title>
<path fill="none" stroke="black" d="M1555,-388.5C1658.51,-388.5 1686,-377.12 1783,-341 1814.71,-329.19 1848.08,-310.27 1872.35,-295.14"/>
<polygon fill="black" stroke="black" points="1874.28,-298.06 1880.87,-289.76 1870.54,-292.14 1874.28,-298.06"/>
</g>
</g>
</svg>
