<?xml version="1.0" encoding="UTF-8" standalone="no"?>
<!DOCTYPE svg PUBLIC "-//W3C//DTD SVG 1.1//EN"
 "http://www.w3.org/Graphics/SVG/1.1/DTD/svg11.dtd">
<!-- Generated by graphviz version 7.0.4 (0)
 -->
<!-- Title: g Pages: 1 -->
<svg width="1902pt" height="745pt"
 viewBox="0.00 0.00 1901.50 745.00" xmlns="http://www.w3.org/2000/svg" xmlns:xlink="http://www.w3.org/1999/xlink">
<g id="graph0" class="graph" transform="scale(1 1) rotate(0) translate(4 741)">
<title>g</title>
<!-- entry_9 -->
<g id="node1" class="node">
<title>entry_9</title>
<polygon fill="yellow" stroke="black" points="382,-690.5 382,-736.5 552,-736.5 552,-690.5 382,-690.5"/>
<text text-anchor="middle" x="467" y="-721.3" font-family="Times,serif" font-size="14.00">val : j z1 z2 z3 = h z1 z2 z3</text>
<polyline fill="none" stroke="black" points="382,-713.5 552,-713.5"/>
<text text-anchor="middle" x="467" y="-698.3" font-family="Times,serif" font-size="14.00">.</text>
</g>
<!-- p2 -->
<g id="node27" class="node">
<title>p2</title>
<path fill="lightblue" stroke="black" d="M228.5,-377.5C228.5,-377.5 327.5,-377.5 327.5,-377.5 333.5,-377.5 339.5,-383.5 339.5,-389.5 339.5,-389.5 339.5,-641.5 339.5,-641.5 339.5,-647.5 333.5,-653.5 327.5,-653.5 327.5,-653.5 228.5,-653.5 228.5,-653.5 222.5,-653.5 216.5,-647.5 216.5,-641.5 216.5,-641.5 216.5,-389.5 216.5,-389.5 216.5,-383.5 222.5,-377.5 228.5,-377.5"/>
<text text-anchor="middle" x="278" y="-638.3" font-family="Times,serif" font-size="14.00">Tag : 247</text>
<polyline fill="none" stroke="black" points="216.5,-630.5 339.5,-630.5"/>
<text text-anchor="middle" x="278" y="-615.3" font-family="Times,serif" font-size="14.00">.</text>
<polyline fill="none" stroke="black" points="216.5,-607.5 339.5,-607.5"/>
<text text-anchor="middle" x="278" y="-592.3" font-family="Times,serif" font-size="14.00">arity:3 / startenv:11</text>
<polyline fill="none" stroke="black" points="216.5,-584.5 339.5,-584.5"/>
<text text-anchor="middle" x="278" y="-569.3" font-family="Times,serif" font-size="14.00">.</text>
<polyline fill="none" stroke="black" points="216.5,-561.5 339.5,-561.5"/>
<text text-anchor="middle" x="278" y="-546.3" font-family="Times,serif" font-size="14.00">Infix</text>
<polyline fill="none" stroke="black" points="216.5,-538.5 339.5,-538.5"/>
<text text-anchor="middle" x="278" y="-523.3" font-family="Times,serif" font-size="14.00">.</text>
<polyline fill="none" stroke="black" points="216.5,-515.5 339.5,-515.5"/>
<text text-anchor="middle" x="278" y="-500.3" font-family="Times,serif" font-size="14.00">arity:3 / startenv:7</text>
<polyline fill="none" stroke="black" points="216.5,-492.5 339.5,-492.5"/>
<text text-anchor="middle" x="278" y="-477.3" font-family="Times,serif" font-size="14.00">.</text>
<polyline fill="none" stroke="black" points="216.5,-469.5 339.5,-469.5"/>
<text text-anchor="middle" x="278" y="-454.3" font-family="Times,serif" font-size="14.00">Infix</text>
<polyline fill="none" stroke="black" points="216.5,-446.5 339.5,-446.5"/>
<text text-anchor="middle" x="278" y="-431.3" font-family="Times,serif" font-size="14.00">.</text>
<polyline fill="none" stroke="black" points="216.5,-423.5 339.5,-423.5"/>
<text text-anchor="middle" x="278" y="-408.3" font-family="Times,serif" font-size="14.00">arity:3 / startenv:3</text>
<polyline fill="none" stroke="black" points="216.5,-400.5 339.5,-400.5"/>
<text text-anchor="middle" x="278" y="-385.3" font-family="Times,serif" font-size="14.00">.</text>
</g>
<!-- entry_9&#45;&gt;p2 -->
<g id="edge32" class="edge">
<title>entry_9&#45;&gt;p2:f7</title>
<path fill="none" stroke="black" d="M466.3,-690.76C463.18,-631.44 446.08,-470.41 352.48,-458.23"/>
<polygon fill="black" stroke="black" points="352.71,-454.74 342.51,-457.6 352.27,-461.72 352.71,-454.74"/>
</g>
<!-- entry_8 -->
<g id="node2" class="node">
<title>entry_8</title>
<polygon fill="yellow" stroke="black" points="192.5,-690.5 192.5,-736.5 363.5,-736.5 363.5,-690.5 192.5,-690.5"/>
<text text-anchor="middle" x="278" y="-721.3" font-family="Times,serif" font-size="14.00">val : i y1 y2 y3 = j y1 y2 y3</text>
<polyline fill="none" stroke="black" points="192.5,-713.5 363.5,-713.5"/>
<text text-anchor="middle" x="278" y="-698.3" font-family="Times,serif" font-size="14.00">.</text>
</g>
<!-- entry_8&#45;&gt;p2 -->
<g id="edge31" class="edge">
<title>entry_8&#45;&gt;p2:f3</title>
<path fill="none" stroke="black" d="M310.44,-690.59C322.01,-680.87 333.72,-668.37 340,-654 356.7,-615.8 381.73,-561.83 352.04,-552.05"/>
<polygon fill="black" stroke="black" points="352.89,-548.64 342.5,-550.71 351.91,-555.57 352.89,-548.64"/>
</g>
<!-- entry_7 -->
<g id="node3" class="node">
<title>entry_7</title>
<polygon fill="yellow" stroke="black" points="0,-690.5 0,-736.5 174,-736.5 174,-690.5 0,-690.5"/>
<text text-anchor="middle" x="87" y="-721.3" font-family="Times,serif" font-size="14.00">val : h x1 x2 x3 = i x1 x2 x3</text>
<polyline fill="none" stroke="black" points="0,-713.5 174,-713.5"/>
<text text-anchor="middle" x="87" y="-698.3" font-family="Times,serif" font-size="14.00">.</text>
</g>
<!-- entry_7&#45;&gt;p2 -->
<g id="edge24" class="edge">
<title>entry_7&#45;&gt;p2:head</title>
<path fill="none" stroke="black" d="M109.95,-690.74C131.84,-672.11 166.84,-647.63 203.56,-643.2"/>
<polygon fill="black" stroke="black" points="203.72,-646.7 213.49,-642.59 203.29,-639.71 203.72,-646.7"/>
</g>
<!-- entry_6 -->
<g id="node4" class="node">
<title>entry_6</title>
<polygon fill="yellow" stroke="black" points="1737,-690.5 1737,-736.5 1841,-736.5 1841,-690.5 1737,-690.5"/>
<text text-anchor="middle" x="1789" y="-721.3" font-family="Times,serif" font-size="14.00">val : g3 = g1 42</text>
<polyline fill="none" stroke="black" points="1737,-713.5 1841,-713.5"/>
<text text-anchor="middle" x="1789" y="-698.3" font-family="Times,serif" font-size="14.00">.</text>
</g>
<!-- p4 -->
<g id="node25" class="node">
<title>p4</title>
<path fill="lightblue" stroke="black" d="M1743,-458C1743,-458 1835,-458 1835,-458 1841,-458 1847,-464 1847,-470 1847,-470 1847,-561 1847,-561 1847,-567 1841,-573 1835,-573 1835,-573 1743,-573 1743,-573 1737,-573 1731,-567 1731,-561 1731,-561 1731,-470 1731,-470 1731,-464 1737,-458 1743,-458"/>
<text text-anchor="middle" x="1789" y="-557.8" font-family="Times,serif" font-size="14.00">Tag : 247</text>
<polyline fill="none" stroke="black" points="1731,-550 1847,-550"/>
<text text-anchor="middle" x="1789" y="-534.8" font-family="Times,serif" font-size="14.00">.</text>
<polyline fill="none" stroke="black" points="1731,-527 1847,-527"/>
<text text-anchor="middle" x="1789" y="-511.8" font-family="Times,serif" font-size="14.00">arity:1 / startenv:2</text>
<polyline fill="none" stroke="black" points="1731,-504 1847,-504"/>
<text text-anchor="middle" x="1789" y="-488.8" font-family="Times,serif" font-size="14.00">42</text>
<polyline fill="none" stroke="black" points="1731,-481 1847,-481"/>
<text text-anchor="middle" x="1789" y="-465.8" font-family="Times,serif" font-size="14.00">.</text>
</g>
<!-- entry_6&#45;&gt;p4 -->
<g id="edge21" class="edge">
<title>entry_6&#45;&gt;p4:head</title>
<path fill="none" stroke="black" d="M1789,-690.51C1789,-665.73 1789,-623.89 1789,-585.69"/>
<polygon fill="black" stroke="black" points="1792.5,-586.01 1789,-576.01 1785.5,-586.01 1792.5,-586.01"/>
</g>
<!-- entry_5 -->
<g id="node5" class="node">
<title>entry_5</title>
<polygon fill="yellow" stroke="black" points="1310.5,-690.5 1310.5,-736.5 1401.5,-736.5 1401.5,-690.5 1310.5,-690.5"/>
<text text-anchor="middle" x="1356" y="-721.3" font-family="Times,serif" font-size="14.00">val : g2 = g 7</text>
<polyline fill="none" stroke="black" points="1310.5,-713.5 1401.5,-713.5"/>
<text text-anchor="middle" x="1356" y="-698.3" font-family="Times,serif" font-size="14.00">.</text>
</g>
<!-- p7 -->
<g id="node23" class="node">
<title>p7</title>
<path fill="lightblue" stroke="black" d="M1310,-202.5C1310,-202.5 1402,-202.5 1402,-202.5 1408,-202.5 1414,-208.5 1414,-214.5 1414,-214.5 1414,-328.5 1414,-328.5 1414,-334.5 1408,-340.5 1402,-340.5 1402,-340.5 1310,-340.5 1310,-340.5 1304,-340.5 1298,-334.5 1298,-328.5 1298,-328.5 1298,-214.5 1298,-214.5 1298,-208.5 1304,-202.5 1310,-202.5"/>
<text text-anchor="middle" x="1356" y="-325.3" font-family="Times,serif" font-size="14.00">Tag : 247</text>
<polyline fill="none" stroke="black" points="1298,-317.5 1414,-317.5"/>
<text text-anchor="middle" x="1356" y="-302.3" font-family="Times,serif" font-size="14.00">.</text>
<polyline fill="none" stroke="black" points="1298,-294.5 1414,-294.5"/>
<text text-anchor="middle" x="1356" y="-279.3" font-family="Times,serif" font-size="14.00">arity:2 / startenv:3</text>
<polyline fill="none" stroke="black" points="1298,-271.5 1414,-271.5"/>
<text text-anchor="middle" x="1356" y="-256.3" font-family="Times,serif" font-size="14.00">.</text>
<polyline fill="none" stroke="black" points="1298,-248.5 1414,-248.5"/>
<text text-anchor="middle" x="1356" y="-233.3" font-family="Times,serif" font-size="14.00">7</text>
<polyline fill="none" stroke="black" points="1298,-225.5 1414,-225.5"/>
<text text-anchor="middle" x="1356" y="-210.3" font-family="Times,serif" font-size="14.00">.</text>
</g>
<!-- entry_5&#45;&gt;p7 -->
<g id="edge17" class="edge">
<title>entry_5&#45;&gt;p7:head</title>
<path fill="none" stroke="black" d="M1356,-690.73C1356,-635.08 1356,-482.82 1356,-352.35"/>
<polygon fill="black" stroke="black" points="1359.5,-352.51 1356,-342.51 1352.5,-352.51 1359.5,-352.51"/>
</g>
<!-- entry_4 -->
<g id="node6" class="node">
<title>entry_4</title>
<polygon fill="yellow" stroke="black" points="1601.5,-690.5 1601.5,-736.5 1692.5,-736.5 1692.5,-690.5 1601.5,-690.5"/>
<text text-anchor="middle" x="1647" y="-721.3" font-family="Times,serif" font-size="14.00">val : g1 = g 5</text>
<polyline fill="none" stroke="black" points="1601.5,-713.5 1692.5,-713.5"/>
<text text-anchor="middle" x="1647" y="-698.3" font-family="Times,serif" font-size="14.00">.</text>
</g>
<!-- p5 -->
<g id="node21" class="node">
<title>p5</title>
<path fill="lightblue" stroke="black" d="M1588,-202.5C1588,-202.5 1680,-202.5 1680,-202.5 1686,-202.5 1692,-208.5 1692,-214.5 1692,-214.5 1692,-328.5 1692,-328.5 1692,-334.5 1686,-340.5 1680,-340.5 1680,-340.5 1588,-340.5 1588,-340.5 1582,-340.5 1576,-334.5 1576,-328.5 1576,-328.5 1576,-214.5 1576,-214.5 1576,-208.5 1582,-202.5 1588,-202.5"/>
<text text-anchor="middle" x="1634" y="-325.3" font-family="Times,serif" font-size="14.00">Tag : 247</text>
<polyline fill="none" stroke="black" points="1576,-317.5 1692,-317.5"/>
<text text-anchor="middle" x="1634" y="-302.3" font-family="Times,serif" font-size="14.00">.</text>
<polyline fill="none" stroke="black" points="1576,-294.5 1692,-294.5"/>
<text text-anchor="middle" x="1634" y="-279.3" font-family="Times,serif" font-size="14.00">arity:2 / startenv:3</text>
<polyline fill="none" stroke="black" points="1576,-271.5 1692,-271.5"/>
<text text-anchor="middle" x="1634" y="-256.3" font-family="Times,serif" font-size="14.00">.</text>
<polyline fill="none" stroke="black" points="1576,-248.5 1692,-248.5"/>
<text text-anchor="middle" x="1634" y="-233.3" font-family="Times,serif" font-size="14.00">5</text>
<polyline fill="none" stroke="black" points="1576,-225.5 1692,-225.5"/>
<text text-anchor="middle" x="1634" y="-210.3" font-family="Times,serif" font-size="14.00">.</text>
</g>
<!-- entry_4&#45;&gt;p5 -->
<g id="edge13" class="edge">
<title>entry_4&#45;&gt;p5:head</title>
<path fill="none" stroke="black" d="M1645.71,-690.74C1642.51,-635.11 1634.47,-482.9 1634.02,-352.36"/>
<polygon fill="black" stroke="black" points="1637.52,-352.51 1634,-342.51 1630.52,-352.52 1637.52,-352.51"/>
</g>
<!-- entry_3 -->
<g id="node7" class="node">
<title>entry_3</title>
<polygon fill="yellow" stroke="black" points="1434.5,-690.5 1434.5,-736.5 1583.5,-736.5 1583.5,-690.5 1434.5,-690.5"/>
<text text-anchor="middle" x="1509" y="-721.3" font-family="Times,serif" font-size="14.00">val : g x y z = x + y + z</text>
<polyline fill="none" stroke="black" points="1434.5,-713.5 1583.5,-713.5"/>
<text text-anchor="middle" x="1509" y="-698.3" font-family="Times,serif" font-size="14.00">.</text>
</g>
<!-- p6 -->
<g id="node18" class="node">
<title>p6</title>
<path fill="lightblue" stroke="black" d="M1478,-73.5C1478,-73.5 1570,-73.5 1570,-73.5 1576,-73.5 1582,-79.5 1582,-85.5 1582,-85.5 1582,-153.5 1582,-153.5 1582,-159.5 1576,-165.5 1570,-165.5 1570,-165.5 1478,-165.5 1478,-165.5 1472,-165.5 1466,-159.5 1466,-153.5 1466,-153.5 1466,-85.5 1466,-85.5 1466,-79.5 1472,-73.5 1478,-73.5"/>
<text text-anchor="middle" x="1524" y="-150.3" font-family="Times,serif" font-size="14.00">Tag : 247</text>
<polyline fill="none" stroke="black" points="1466,-142.5 1582,-142.5"/>
<text text-anchor="middle" x="1524" y="-127.3" font-family="Times,serif" font-size="14.00">.</text>
<polyline fill="none" stroke="black" points="1466,-119.5 1582,-119.5"/>
<text text-anchor="middle" x="1524" y="-104.3" font-family="Times,serif" font-size="14.00">arity:3 / startenv:3</text>
<polyline fill="none" stroke="black" points="1466,-96.5 1582,-96.5"/>
<text text-anchor="middle" x="1524" y="-81.3" font-family="Times,serif" font-size="14.00">.</text>
</g>
<!-- entry_3&#45;&gt;p6 -->
<g id="edge10" class="edge">
<title>entry_3&#45;&gt;p6:head</title>
<path fill="none" stroke="black" d="M1510.03,-690.64C1513.36,-618.2 1523.61,-379.16 1523.99,-177.4"/>
<polygon fill="black" stroke="black" points="1527.49,-177.52 1524,-167.51 1520.49,-177.51 1527.49,-177.52"/>
</g>
<!-- entry_2 -->
<g id="node8" class="node">
<title>entry_2</title>
<polygon fill="yellow" stroke="black" points="903.5,-690.5 903.5,-736.5 1004.5,-736.5 1004.5,-690.5 903.5,-690.5"/>
<text text-anchor="middle" x="954" y="-721.3" font-family="Times,serif" font-size="14.00">val : List.map f</text>
<polyline fill="none" stroke="black" points="903.5,-713.5 1004.5,-713.5"/>
<text text-anchor="middle" x="954" y="-698.3" font-family="Times,serif" font-size="14.00">.</text>
</g>
<!-- p8 -->
<g id="node16" class="node">
<title>p8</title>
<path fill="lightblue" stroke="black" d="M908,-458C908,-458 1000,-458 1000,-458 1006,-458 1012,-464 1012,-470 1012,-470 1012,-561 1012,-561 1012,-567 1006,-573 1000,-573 1000,-573 908,-573 908,-573 902,-573 896,-567 896,-561 896,-561 896,-470 896,-470 896,-464 902,-458 908,-458"/>
<text text-anchor="middle" x="954" y="-557.8" font-family="Times,serif" font-size="14.00">Tag : 247</text>
<polyline fill="none" stroke="black" points="896,-550 1012,-550"/>
<text text-anchor="middle" x="954" y="-534.8" font-family="Times,serif" font-size="14.00">.</text>
<polyline fill="none" stroke="black" points="896,-527 1012,-527"/>
<text text-anchor="middle" x="954" y="-511.8" font-family="Times,serif" font-size="14.00">arity:1 / startenv:2</text>
<polyline fill="none" stroke="black" points="896,-504 1012,-504"/>
<text text-anchor="middle" x="954" y="-488.8" font-family="Times,serif" font-size="14.00">.</text>
<polyline fill="none" stroke="black" points="896,-481 1012,-481"/>
<text text-anchor="middle" x="954" y="-465.8" font-family="Times,serif" font-size="14.00">.</text>
</g>
<!-- entry_2&#45;&gt;p8 -->
<g id="edge6" class="edge">
<title>entry_2&#45;&gt;p8:head</title>
<path fill="none" stroke="black" d="M954,-690.51C954,-665.73 954,-623.89 954,-585.69"/>
<polygon fill="black" stroke="black" points="957.5,-586.01 954,-576.01 950.5,-586.01 957.5,-586.01"/>
</g>
<!-- entry_1 -->
<g id="node9" class="node">
<title>entry_1</title>
<polygon fill="yellow" stroke="black" points="1074.5,-690.5 1074.5,-736.5 1167.5,-736.5 1167.5,-690.5 1074.5,-690.5"/>
<text text-anchor="middle" x="1121" y="-721.3" font-family="Times,serif" font-size="14.00">val : List.map</text>
<polyline fill="none" stroke="black" points="1074.5,-713.5 1167.5,-713.5"/>
<text text-anchor="middle" x="1121" y="-698.3" font-family="Times,serif" font-size="14.00">.</text>
</g>
<!-- p10 -->
<g id="node13" class="node">
<title>p10</title>
<path fill="lightblue" stroke="black" d="M1075,-225.5C1075,-225.5 1167,-225.5 1167,-225.5 1173,-225.5 1179,-231.5 1179,-237.5 1179,-237.5 1179,-305.5 1179,-305.5 1179,-311.5 1173,-317.5 1167,-317.5 1167,-317.5 1075,-317.5 1075,-317.5 1069,-317.5 1063,-311.5 1063,-305.5 1063,-305.5 1063,-237.5 1063,-237.5 1063,-231.5 1069,-225.5 1075,-225.5"/>
<text text-anchor="middle" x="1121" y="-302.3" font-family="Times,serif" font-size="14.00">Tag : 247</text>
<polyline fill="none" stroke="black" points="1063,-294.5 1179,-294.5"/>
<text text-anchor="middle" x="1121" y="-279.3" font-family="Times,serif" font-size="14.00">.</text>
<polyline fill="none" stroke="black" points="1063,-271.5 1179,-271.5"/>
<text text-anchor="middle" x="1121" y="-256.3" font-family="Times,serif" font-size="14.00">arity:2 / startenv:3</text>
<polyline fill="none" stroke="black" points="1063,-248.5 1179,-248.5"/>
<text text-anchor="middle" x="1121" y="-233.3" font-family="Times,serif" font-size="14.00">.</text>
</g>
<!-- entry_1&#45;&gt;p10 -->
<g id="edge3" class="edge">
<title>entry_1&#45;&gt;p10:head</title>
<path fill="none" stroke="black" d="M1121,-690.72C1121,-632.7 1121,-469.36 1121,-329.78"/>
<polygon fill="black" stroke="black" points="1124.5,-330.01 1121,-320.01 1117.5,-330.01 1124.5,-330.01"/>
</g>
<!-- entry_0 -->
<g id="node10" class="node">
<title>entry_0</title>
<polygon fill="yellow" stroke="black" points="735,-690.5 735,-736.5 839,-736.5 839,-690.5 735,-690.5"/>
<text text-anchor="middle" x="787" y="-721.3" font-family="Times,serif" font-size="14.00">val : f x = x + 1</text>
<polyline fill="none" stroke="black" points="735,-713.5 839,-713.5"/>
<text text-anchor="middle" x="787" y="-698.3" font-family="Times,serif" font-size="14.00">.</text>
</g>
<!-- p9 -->
<g id="node11" class="node">
<title>p9</title>
<path fill="lightblue" stroke="black" d="M741,-237C741,-237 833,-237 833,-237 839,-237 845,-243 845,-249 845,-249 845,-294 845,-294 845,-300 839,-306 833,-306 833,-306 741,-306 741,-306 735,-306 729,-300 729,-294 729,-294 729,-249 729,-249 729,-243 735,-237 741,-237"/>
<text text-anchor="middle" x="787" y="-290.8" font-family="Times,serif" font-size="14.00">Tag : 247</text>
<polyline fill="none" stroke="black" points="729,-283 845,-283"/>
<text text-anchor="middle" x="787" y="-267.8" font-family="Times,serif" font-size="14.00">.</text>
<polyline fill="none" stroke="black" points="729,-260 845,-260"/>
<text text-anchor="middle" x="787" y="-244.8" font-family="Times,serif" font-size="14.00">arity:1 / startenv:2</text>
</g>
<!-- entry_0&#45;&gt;p9 -->
<g id="edge1" class="edge">
<title>entry_0&#45;&gt;p9:head</title>
<path fill="none" stroke="black" d="M787,-690.55C787,-631.25 787,-462.61 787,-318.7"/>
<polygon fill="black" stroke="black" points="790.5,-319.01 787,-309.01 783.5,-319.01 790.5,-319.01"/>
</g>
<!-- e94344237698112 -->
<g id="node12" class="node">
<title>e94344237698112</title>
<path fill="grey" stroke="black" d="M673.5,-101.5C673.5,-101.5 832.5,-101.5 832.5,-101.5 838.5,-101.5 844.5,-107.5 844.5,-113.5 844.5,-113.5 844.5,-125.5 844.5,-125.5 844.5,-131.5 838.5,-137.5 832.5,-137.5 832.5,-137.5 673.5,-137.5 673.5,-137.5 667.5,-137.5 661.5,-131.5 661.5,-125.5 661.5,-125.5 661.5,-113.5 661.5,-113.5 661.5,-107.5 667.5,-101.5 673.5,-101.5"/>
<text text-anchor="middle" x="753" y="-115.8" font-family="Times,serif" font-size="14.00">Out of heap : 0x55ce3ac64c40</text>
</g>
<!-- p9&#45;&gt;e94344237698112 -->
<g id="edge2" class="edge">
<title>p9:f0&#45;&gt;e94344237698112:head</title>
<path fill="none" stroke="black" d="M728,-271.5C715.63,-271.5 734.19,-192.15 745.44,-148.11"/>
<polygon fill="black" stroke="black" points="748.76,-149.26 747.87,-138.7 741.98,-147.5 748.76,-149.26"/>
</g>
<!-- e94344237696720 -->
<g id="node14" class="node">
<title>e94344237696720</title>
<path fill="grey" stroke="black" d="M1074,-101.5C1074,-101.5 1234,-101.5 1234,-101.5 1240,-101.5 1246,-107.5 1246,-113.5 1246,-113.5 1246,-125.5 1246,-125.5 1246,-131.5 1240,-137.5 1234,-137.5 1234,-137.5 1074,-137.5 1074,-137.5 1068,-137.5 1062,-131.5 1062,-125.5 1062,-125.5 1062,-113.5 1062,-113.5 1062,-107.5 1068,-101.5 1074,-101.5"/>
<text text-anchor="middle" x="1154" y="-115.8" font-family="Times,serif" font-size="14.00">Out of heap : 0x55ce3ac646d0</text>
</g>
<!-- p10&#45;&gt;e94344237696720 -->
<g id="edge4" class="edge">
<title>p10:f0&#45;&gt;e94344237696720:head</title>
<path fill="none" stroke="black" d="M1180,-283.5C1234.43,-283.5 1194.44,-194.31 1169.69,-147.47"/>
<polygon fill="black" stroke="black" points="1172.78,-145.83 1164.95,-138.7 1166.62,-149.16 1172.78,-145.83"/>
</g>
<!-- e94344237786608 -->
<g id="node15" class="node">
<title>e94344237786608</title>
<path fill="grey" stroke="black" d="M874.5,-101.5C874.5,-101.5 1031.5,-101.5 1031.5,-101.5 1037.5,-101.5 1043.5,-107.5 1043.5,-113.5 1043.5,-113.5 1043.5,-125.5 1043.5,-125.5 1043.5,-131.5 1037.5,-137.5 1031.5,-137.5 1031.5,-137.5 874.5,-137.5 874.5,-137.5 868.5,-137.5 862.5,-131.5 862.5,-125.5 862.5,-125.5 862.5,-113.5 862.5,-113.5 862.5,-107.5 868.5,-101.5 874.5,-101.5"/>
<text text-anchor="middle" x="953" y="-115.8" font-family="Times,serif" font-size="14.00">Out of heap : 0x55ce3ac7a5f0</text>
</g>
<!-- p10&#45;&gt;e94344237786608 -->
<g id="edge5" class="edge">
<title>p10:f2&#45;&gt;e94344237786608:head</title>
<path fill="none" stroke="black" d="M1062,-236.5C1046.26,-236.5 1062.32,-215.36 1054,-202 1039.16,-178.17 1015,-158.06 994.03,-143.67"/>
<polygon fill="black" stroke="black" points="996.19,-140.91 985.92,-138.3 992.33,-146.74 996.19,-140.91"/>
</g>
<!-- p8&#45;&gt;p9 -->
<g id="edge8" class="edge">
<title>p8:f2&#45;&gt;p9:head</title>
<path fill="none" stroke="black" d="M895,-492.5C825.24,-492.5 869.04,-409.11 854,-341 852.48,-334.12 854.12,-315.49 852.19,-304.01"/>
<polygon fill="black" stroke="black" points="855.21,-302.24 846.83,-295.77 849.34,-306.06 855.21,-302.24"/>
</g>
<!-- p8&#45;&gt;p10 -->
<g id="edge9" class="edge">
<title>p8:f3&#45;&gt;p10:head</title>
<path fill="none" stroke="black" d="M1013,-469.5C1072.95,-469.5 1038.11,-398.8 1054,-341 1055.26,-336.44 1055.05,-324.88 1056.4,-316.39"/>
<polygon fill="black" stroke="black" points="1059.37,-318.24 1061.25,-307.82 1053.28,-314.79 1059.37,-318.24"/>
</g>
<!-- e94344237699568 -->
<g id="node17" class="node">
<title>e94344237699568</title>
<path fill="grey" stroke="black" d="M875,-253.5C875,-253.5 1033,-253.5 1033,-253.5 1039,-253.5 1045,-259.5 1045,-265.5 1045,-265.5 1045,-277.5 1045,-277.5 1045,-283.5 1039,-289.5 1033,-289.5 1033,-289.5 875,-289.5 875,-289.5 869,-289.5 863,-283.5 863,-277.5 863,-277.5 863,-265.5 863,-265.5 863,-259.5 869,-253.5 875,-253.5"/>
<text text-anchor="middle" x="954" y="-267.8" font-family="Times,serif" font-size="14.00">Out of heap : 0x55ce3ac651f0</text>
</g>
<!-- p8&#45;&gt;e94344237699568 -->
<g id="edge7" class="edge">
<title>p8:f0&#45;&gt;e94344237699568:head</title>
<path fill="none" stroke="black" d="M1013,-538.5C1110.31,-538.5 1013.96,-367.32 971.69,-299.09"/>
<polygon fill="black" stroke="black" points="974.72,-297.33 966.45,-290.72 968.79,-301.05 974.72,-297.33"/>
</g>
<!-- e94344237696448 -->
<g id="node19" class="node">
<title>e94344237696448</title>
<path fill="grey" stroke="black" d="M198.5,-0.5C198.5,-0.5 357.5,-0.5 357.5,-0.5 363.5,-0.5 369.5,-6.5 369.5,-12.5 369.5,-12.5 369.5,-24.5 369.5,-24.5 369.5,-30.5 363.5,-36.5 357.5,-36.5 357.5,-36.5 198.5,-36.5 198.5,-36.5 192.5,-36.5 186.5,-30.5 186.5,-24.5 186.5,-24.5 186.5,-12.5 186.5,-12.5 186.5,-6.5 192.5,-0.5 198.5,-0.5"/>
<text text-anchor="middle" x="278" y="-14.8" font-family="Times,serif" font-size="14.00">Out of heap : 0x55ce3ac645c0</text>
</g>
<!-- p6&#45;&gt;e94344237696448 -->
<g id="edge11" class="edge">
<title>p6:f0&#45;&gt;e94344237696448:head</title>
<path fill="none" stroke="black" d="M1465,-131.5C1451.88,-131.5 1466.74,-81.79 1457,-73 1413.83,-34.05 503.03,-43.21 376.38,-37.24"/>
<polygon fill="black" stroke="black" points="376.85,-33.77 366.63,-36.57 376.37,-40.75 376.85,-33.77"/>
</g>
<!-- e94344237698128 -->
<g id="node20" class="node">
<title>e94344237698128</title>
<path fill="grey" stroke="black" d="M1444.5,-0.5C1444.5,-0.5 1603.5,-0.5 1603.5,-0.5 1609.5,-0.5 1615.5,-6.5 1615.5,-12.5 1615.5,-12.5 1615.5,-24.5 1615.5,-24.5 1615.5,-30.5 1609.5,-36.5 1603.5,-36.5 1603.5,-36.5 1444.5,-36.5 1444.5,-36.5 1438.5,-36.5 1432.5,-30.5 1432.5,-24.5 1432.5,-24.5 1432.5,-12.5 1432.5,-12.5 1432.5,-6.5 1438.5,-0.5 1444.5,-0.5"/>
<text text-anchor="middle" x="1524" y="-14.8" font-family="Times,serif" font-size="14.00">Out of heap : 0x55ce3ac64c50</text>
</g>
<!-- p6&#45;&gt;e94344237698128 -->
<g id="edge12" class="edge">
<title>p6:f2&#45;&gt;e94344237698128:head</title>
<path fill="none" stroke="black" d="M1524,-73C1524,-64.74 1524,-55.77 1524,-47.54"/>
<polygon fill="black" stroke="black" points="1527.5,-47.69 1524,-37.69 1520.5,-47.69 1527.5,-47.69"/>
</g>
<!-- p5&#45;&gt;e94344237696720 -->
<g id="edge14" class="edge">
<title>p5:f0&#45;&gt;e94344237696720:head</title>
<path fill="none" stroke="black" d="M1575,-306.5C1493.02,-306.5 1498.27,-234.48 1423,-202 1353.28,-171.92 1328.07,-189.89 1256,-166 1236.54,-159.55 1215.83,-150.54 1198.19,-142.16"/>
<polygon fill="black" stroke="black" points="1200.08,-139.19 1189.55,-137.99 1197.03,-145.49 1200.08,-139.19"/>
</g>
<!-- p5&#45;&gt;p6 -->
<g id="edge16" class="edge">
<title>p5:f4&#45;&gt;p6:head</title>
<path fill="none" stroke="black" d="M1575,-213.5C1555.36,-213.5 1583.86,-181 1589.04,-164.24"/>
<polygon fill="black" stroke="black" points="1592.04,-162.44 1583.8,-155.79 1586.09,-166.13 1592.04,-162.44"/>
</g>
<!-- e94344237698144 -->
<g id="node22" class="node">
<title>e94344237698144</title>
<path fill="grey" stroke="black" d="M1612.5,-101.5C1612.5,-101.5 1771.5,-101.5 1771.5,-101.5 1777.5,-101.5 1783.5,-107.5 1783.5,-113.5 1783.5,-113.5 1783.5,-125.5 1783.5,-125.5 1783.5,-131.5 1777.5,-137.5 1771.5,-137.5 1771.5,-137.5 1612.5,-137.5 1612.5,-137.5 1606.5,-137.5 1600.5,-131.5 1600.5,-125.5 1600.5,-125.5 1600.5,-113.5 1600.5,-113.5 1600.5,-107.5 1606.5,-101.5 1612.5,-101.5"/>
<text text-anchor="middle" x="1692" y="-115.8" font-family="Times,serif" font-size="14.00">Out of heap : 0x55ce3ac64c60</text>
</g>
<!-- p5&#45;&gt;e94344237698144 -->
<g id="edge15" class="edge">
<title>p5:f2&#45;&gt;e94344237698144:head</title>
<path fill="none" stroke="black" d="M1693,-259.5C1704.01,-259.5 1698.94,-189.42 1695.03,-148.43"/>
<polygon fill="black" stroke="black" points="1698.54,-148.34 1694.07,-138.74 1691.57,-149.03 1698.54,-148.34"/>
</g>
<!-- p7&#45;&gt;e94344237696720 -->
<g id="edge18" class="edge">
<title>p7:f0&#45;&gt;e94344237696720:head</title>
<path fill="none" stroke="black" d="M1297,-306.5C1257.43,-306.5 1195.89,-199.49 1168.27,-147.37"/>
<polygon fill="black" stroke="black" points="1171.51,-146 1163.76,-138.77 1165.31,-149.25 1171.51,-146"/>
</g>
<!-- p7&#45;&gt;p6 -->
<g id="edge20" class="edge">
<title>p7:f4&#45;&gt;p6:head</title>
<path fill="none" stroke="black" d="M1415,-213.5C1443.18,-213.5 1439.59,-188.16 1457,-166 1457.6,-165.24 1458.06,-164.43 1458.42,-163.61"/>
<polygon fill="black" stroke="black" points="1461.1,-165.88 1464.11,-155.73 1455.42,-161.79 1461.1,-165.88"/>
</g>
<!-- e94344237698160 -->
<g id="node24" class="node">
<title>e94344237698160</title>
<path fill="grey" stroke="black" d="M1276.5,-101.5C1276.5,-101.5 1435.5,-101.5 1435.5,-101.5 1441.5,-101.5 1447.5,-107.5 1447.5,-113.5 1447.5,-113.5 1447.5,-125.5 1447.5,-125.5 1447.5,-131.5 1441.5,-137.5 1435.5,-137.5 1435.5,-137.5 1276.5,-137.5 1276.5,-137.5 1270.5,-137.5 1264.5,-131.5 1264.5,-125.5 1264.5,-125.5 1264.5,-113.5 1264.5,-113.5 1264.5,-107.5 1270.5,-101.5 1276.5,-101.5"/>
<text text-anchor="middle" x="1356" y="-115.8" font-family="Times,serif" font-size="14.00">Out of heap : 0x55ce3ac64c70</text>
</g>
<!-- p7&#45;&gt;e94344237698160 -->
<g id="edge19" class="edge">
<title>p7:f2&#45;&gt;e94344237698160:head</title>
<path fill="none" stroke="black" d="M1415,-259.5C1463.69,-259.5 1411.47,-186.69 1378.56,-146.08"/>
<polygon fill="black" stroke="black" points="1381.3,-143.9 1372.24,-138.4 1375.89,-148.35 1381.3,-143.9"/>
</g>
<!-- p4&#45;&gt;p5 -->
<g id="edge23" class="edge">
<title>p4:f3&#45;&gt;p5:head</title>
<path fill="none" stroke="black" d="M1730,-469.5C1716.42,-469.5 1710.87,-369.83 1699.8,-338.69"/>
<polygon fill="black" stroke="black" points="1702.66,-336.67 1693.9,-330.72 1697.04,-340.84 1702.66,-336.67"/>
</g>
<!-- e94344237698176 -->
<g id="node26" class="node">
<title>e94344237698176</title>
<path fill="grey" stroke="black" d="M1722.5,-253.5C1722.5,-253.5 1881.5,-253.5 1881.5,-253.5 1887.5,-253.5 1893.5,-259.5 1893.5,-265.5 1893.5,-265.5 1893.5,-277.5 1893.5,-277.5 1893.5,-283.5 1887.5,-289.5 1881.5,-289.5 1881.5,-289.5 1722.5,-289.5 1722.5,-289.5 1716.5,-289.5 1710.5,-283.5 1710.5,-277.5 1710.5,-277.5 1710.5,-265.5 1710.5,-265.5 1710.5,-259.5 1716.5,-253.5 1722.5,-253.5"/>
<text text-anchor="middle" x="1802" y="-267.8" font-family="Times,serif" font-size="14.00">Out of heap : 0x55ce3ac64c80</text>
</g>
<!-- p4&#45;&gt;e94344237698176 -->
<g id="edge22" class="edge">
<title>p4:f0&#45;&gt;e94344237698176:head</title>
<path fill="none" stroke="black" d="M1848,-538.5C1944.42,-538.5 1856.94,-367.32 1818.24,-299.09"/>
<polygon fill="black" stroke="black" points="1821.47,-297.68 1813.45,-290.75 1815.4,-301.16 1821.47,-297.68"/>
</g>
<!-- p2&#45;&gt;e94344237696448 -->
<g id="edge25" class="edge">
<title>p2:f0&#45;&gt;e94344237696448:head</title>
<path fill="none" stroke="black" d="M215,-619.5C107.22,-619.5 189.87,-481.56 216,-377 220.39,-359.45 229.5,-358.23 235,-341 268.3,-236.73 275.82,-105.53 277.51,-47.91"/>
<polygon fill="black" stroke="black" points="281.01,-48.06 277.76,-37.97 274.01,-47.88 281.01,-48.06"/>
</g>
<!-- p2&#45;&gt;e94344237696448 -->
<g id="edge27" class="edge">
<title>p2:f4&#45;&gt;e94344237696448:head</title>
<path fill="none" stroke="black" d="M215,-527.5C148.11,-527.5 212.16,-443.78 216,-377 220.49,-298.89 221.83,-279.12 235,-202 244.43,-146.8 260.47,-83.39 270.07,-47.42"/>
<polygon fill="black" stroke="black" points="273.44,-48.35 272.66,-37.79 266.68,-46.53 273.44,-48.35"/>
</g>
<!-- p2&#45;&gt;e94344237696448 -->
<g id="edge29" class="edge">
<title>p2:f8&#45;&gt;e94344237696448:head</title>
<path fill="none" stroke="black" d="M341,-434.5C402.12,-434.5 317.06,-343.88 316,-341 305.97,-313.75 287.47,-121.47 280.63,-47.45"/>
<polygon fill="black" stroke="black" points="284.14,-47.38 279.74,-37.74 277.17,-48.02 284.14,-47.38"/>
</g>
<!-- e94344237698304 -->
<g id="node28" class="node">
<title>e94344237698304</title>
<path fill="grey" stroke="black" d="M21,-253.5C21,-253.5 181,-253.5 181,-253.5 187,-253.5 193,-259.5 193,-265.5 193,-265.5 193,-277.5 193,-277.5 193,-283.5 187,-289.5 181,-289.5 181,-289.5 21,-289.5 21,-289.5 15,-289.5 9,-283.5 9,-277.5 9,-277.5 9,-265.5 9,-265.5 9,-259.5 15,-253.5 21,-253.5"/>
<text text-anchor="middle" x="101" y="-267.8" font-family="Times,serif" font-size="14.00">Out of heap : 0x55ce3ac64d00</text>
</g>
<!-- p2&#45;&gt;e94344237698304 -->
<g id="edge26" class="edge">
<title>p2:f2&#45;&gt;e94344237698304:head</title>
<path fill="none" stroke="black" d="M215,-573.5C99.03,-573.5 96.06,-376.18 99.18,-300.53"/>
<polygon fill="black" stroke="black" points="102.65,-301.16 99.64,-291 95.66,-300.82 102.65,-301.16"/>
</g>
<!-- e94344237698336 -->
<g id="node29" class="node">
<title>e94344237698336</title>
<path fill="grey" stroke="black" d="M337,-253.5C337,-253.5 497,-253.5 497,-253.5 503,-253.5 509,-259.5 509,-265.5 509,-265.5 509,-277.5 509,-277.5 509,-283.5 503,-289.5 497,-289.5 497,-289.5 337,-289.5 337,-289.5 331,-289.5 325,-283.5 325,-277.5 325,-277.5 325,-265.5 325,-265.5 325,-259.5 331,-253.5 337,-253.5"/>
<text text-anchor="middle" x="417" y="-267.8" font-family="Times,serif" font-size="14.00">Out of heap : 0x55ce3ac64d20</text>
</g>
<!-- p2&#45;&gt;e94344237698336 -->
<g id="edge28" class="edge">
<title>p2:f6&#45;&gt;e94344237698336:head</title>
<path fill="none" stroke="black" d="M341,-480.5C416.7,-480.5 421.02,-357.92 418.9,-300.51"/>
<polygon fill="black" stroke="black" points="422.41,-300.66 418.45,-290.83 415.42,-300.98 422.41,-300.66"/>
</g>
<!-- e94344237698368 -->
<g id="node30" class="node">
<title>e94344237698368</title>
<path fill="grey" stroke="black" d="M539,-253.5C539,-253.5 699,-253.5 699,-253.5 705,-253.5 711,-259.5 711,-265.5 711,-265.5 711,-277.5 711,-277.5 711,-283.5 705,-289.5 699,-289.5 699,-289.5 539,-289.5 539,-289.5 533,-289.5 527,-283.5 527,-277.5 527,-277.5 527,-265.5 527,-265.5 527,-259.5 533,-253.5 539,-253.5"/>
<text text-anchor="middle" x="619" y="-267.8" font-family="Times,serif" font-size="14.00">Out of heap : 0x55ce3ac64d40</text>
</g>
<!-- p2&#45;&gt;e94344237698368 -->
<g id="edge30" class="edge">
<title>p2:f10&#45;&gt;e94344237698368:head</title>
<path fill="none" stroke="black" d="M341,-388.5C422.45,-388.5 444.05,-375.14 518,-341 543.58,-329.19 569.7,-311.02 588.97,-296.22"/>
<polygon fill="black" stroke="black" points="590.94,-299.12 596.66,-290.2 586.63,-293.61 590.94,-299.12"/>
</g>
</g>
</svg>
