<?xml version="1.0" encoding="UTF-8" standalone="no"?>
<!DOCTYPE svg PUBLIC "-//W3C//DTD SVG 1.1//EN"
 "http://www.w3.org/Graphics/SVG/1.1/DTD/svg11.dtd">
<!-- Generated by graphviz version 2.50.0 (0)
 -->
<!-- Title: g Pages: 1 -->
<svg width="2246pt" height="745pt"
 viewBox="0.00 0.00 2245.50 745.00" xmlns="http://www.w3.org/2000/svg" xmlns:xlink="http://www.w3.org/1999/xlink">
<g id="graph0" class="graph" transform="scale(1 1) rotate(0) translate(4 741)">
<title>g</title>
<polygon fill="white" stroke="transparent" points="-4,4 -4,-741 2241.5,-741 2241.5,4 -4,4"/>
<!-- entry_0 -->
<g id="node1" class="node">
<title>entry_0</title>
<polygon fill="yellow" stroke="black" points="54.5,-690.5 54.5,-736.5 182.5,-736.5 182.5,-690.5 54.5,-690.5"/>
<text text-anchor="middle" x="118.5" y="-721.3" font-family="Times,serif" font-size="14.00">val : f x = x + 1</text>
<polyline fill="none" stroke="black" points="54.5,-713.5 182.5,-713.5 "/>
<text text-anchor="middle" x="118.5" y="-698.3" font-family="Times,serif" font-size="14.00">.</text>
</g>
<!-- p9 -->
<g id="node11" class="node">
<title>p9</title>
<path fill="lightblue" stroke="black" d="M45.5,-237C45.5,-237 191.5,-237 191.5,-237 197.5,-237 203.5,-243 203.5,-249 203.5,-249 203.5,-294 203.5,-294 203.5,-300 197.5,-306 191.5,-306 191.5,-306 45.5,-306 45.5,-306 39.5,-306 33.5,-300 33.5,-294 33.5,-294 33.5,-249 33.5,-249 33.5,-243 39.5,-237 45.5,-237"/>
<text text-anchor="middle" x="118.5" y="-290.8" font-family="Times,serif" font-size="14.00">Tag : 247</text>
<polyline fill="none" stroke="black" points="33.5,-283 203.5,-283 "/>
<text text-anchor="middle" x="118.5" y="-267.8" font-family="Times,serif" font-size="14.00">.</text>
<polyline fill="none" stroke="black" points="33.5,-260 203.5,-260 "/>
<text text-anchor="middle" x="118.5" y="-244.8" font-family="Times,serif" font-size="14.00">36028797018963970</text>
</g>
<!-- entry_0&#45;&gt;p9 -->
<g id="edge1" class="edge">
<title>entry_0&#45;&gt;p9:head</title>
<path fill="none" stroke="black" d="M118.5,-690.11C118.5,-630.3 118.5,-461.56 118.5,-317.81"/>
<polygon fill="black" stroke="black" points="122,-317.5 118.5,-307.5 115,-317.5 122,-317.5"/>
</g>
<!-- entry_1 -->
<g id="node2" class="node">
<title>entry_1</title>
<polygon fill="yellow" stroke="black" points="506,-690.5 506,-736.5 619,-736.5 619,-690.5 506,-690.5"/>
<text text-anchor="middle" x="562.5" y="-721.3" font-family="Times,serif" font-size="14.00">val : List.map</text>
<polyline fill="none" stroke="black" points="506,-713.5 619,-713.5 "/>
<text text-anchor="middle" x="562.5" y="-698.3" font-family="Times,serif" font-size="14.00">.</text>
</g>
<!-- p10 -->
<g id="node13" class="node">
<title>p10</title>
<path fill="lightblue" stroke="black" d="M489.5,-225.5C489.5,-225.5 635.5,-225.5 635.5,-225.5 641.5,-225.5 647.5,-231.5 647.5,-237.5 647.5,-237.5 647.5,-305.5 647.5,-305.5 647.5,-311.5 641.5,-317.5 635.5,-317.5 635.5,-317.5 489.5,-317.5 489.5,-317.5 483.5,-317.5 477.5,-311.5 477.5,-305.5 477.5,-305.5 477.5,-237.5 477.5,-237.5 477.5,-231.5 483.5,-225.5 489.5,-225.5"/>
<text text-anchor="middle" x="562.5" y="-302.3" font-family="Times,serif" font-size="14.00">Tag : 247</text>
<polyline fill="none" stroke="black" points="477.5,-294.5 647.5,-294.5 "/>
<text text-anchor="middle" x="562.5" y="-279.3" font-family="Times,serif" font-size="14.00">.</text>
<polyline fill="none" stroke="black" points="477.5,-271.5 647.5,-271.5 "/>
<text text-anchor="middle" x="562.5" y="-256.3" font-family="Times,serif" font-size="14.00">72057594037927939</text>
<polyline fill="none" stroke="black" points="477.5,-248.5 647.5,-248.5 "/>
<text text-anchor="middle" x="562.5" y="-233.3" font-family="Times,serif" font-size="14.00">.</text>
</g>
<!-- entry_1&#45;&gt;p10 -->
<g id="edge3" class="edge">
<title>entry_1&#45;&gt;p10:head</title>
<path fill="none" stroke="black" d="M562.5,-690.28C562.5,-631.72 562.5,-468.01 562.5,-328.5"/>
<polygon fill="black" stroke="black" points="566,-328.5 562.5,-318.5 559,-328.5 566,-328.5"/>
</g>
<!-- entry_2 -->
<g id="node3" class="node">
<title>entry_2</title>
<polygon fill="yellow" stroke="black" points="279,-690.5 279,-736.5 402,-736.5 402,-690.5 279,-690.5"/>
<text text-anchor="middle" x="340.5" y="-721.3" font-family="Times,serif" font-size="14.00">val : List.map f</text>
<polyline fill="none" stroke="black" points="279,-713.5 402,-713.5 "/>
<text text-anchor="middle" x="340.5" y="-698.3" font-family="Times,serif" font-size="14.00">.</text>
</g>
<!-- p8 -->
<g id="node16" class="node">
<title>p8</title>
<path fill="lightblue" stroke="black" d="M267.5,-458C267.5,-458 413.5,-458 413.5,-458 419.5,-458 425.5,-464 425.5,-470 425.5,-470 425.5,-561 425.5,-561 425.5,-567 419.5,-573 413.5,-573 413.5,-573 267.5,-573 267.5,-573 261.5,-573 255.5,-567 255.5,-561 255.5,-561 255.5,-470 255.5,-470 255.5,-464 261.5,-458 267.5,-458"/>
<text text-anchor="middle" x="340.5" y="-557.8" font-family="Times,serif" font-size="14.00">Tag : 247</text>
<polyline fill="none" stroke="black" points="255.5,-550 425.5,-550 "/>
<text text-anchor="middle" x="340.5" y="-534.8" font-family="Times,serif" font-size="14.00">.</text>
<polyline fill="none" stroke="black" points="255.5,-527 425.5,-527 "/>
<text text-anchor="middle" x="340.5" y="-511.8" font-family="Times,serif" font-size="14.00">36028797018963970</text>
<polyline fill="none" stroke="black" points="255.5,-504 425.5,-504 "/>
<text text-anchor="middle" x="340.5" y="-488.8" font-family="Times,serif" font-size="14.00">.</text>
<polyline fill="none" stroke="black" points="255.5,-481 425.5,-481 "/>
<text text-anchor="middle" x="340.5" y="-465.8" font-family="Times,serif" font-size="14.00">.</text>
</g>
<!-- entry_2&#45;&gt;p8 -->
<g id="edge6" class="edge">
<title>entry_2&#45;&gt;p8:head</title>
<path fill="none" stroke="black" d="M340.5,-690.03C340.5,-664.96 340.5,-622.88 340.5,-584.64"/>
<polygon fill="black" stroke="black" points="344,-584.5 340.5,-574.5 337,-584.5 344,-584.5"/>
</g>
<!-- entry_3 -->
<g id="node4" class="node">
<title>entry_3</title>
<polygon fill="yellow" stroke="black" points="1259,-690.5 1259,-736.5 1444,-736.5 1444,-690.5 1259,-690.5"/>
<text text-anchor="middle" x="1351.5" y="-721.3" font-family="Times,serif" font-size="14.00">val : g x y z = x + y + z</text>
<polyline fill="none" stroke="black" points="1259,-713.5 1444,-713.5 "/>
<text text-anchor="middle" x="1351.5" y="-698.3" font-family="Times,serif" font-size="14.00">.</text>
</g>
<!-- p6 -->
<g id="node18" class="node">
<title>p6</title>
<path fill="lightblue" stroke="black" d="M1177,-73.5C1177,-73.5 1332,-73.5 1332,-73.5 1338,-73.5 1344,-79.5 1344,-85.5 1344,-85.5 1344,-153.5 1344,-153.5 1344,-159.5 1338,-165.5 1332,-165.5 1332,-165.5 1177,-165.5 1177,-165.5 1171,-165.5 1165,-159.5 1165,-153.5 1165,-153.5 1165,-85.5 1165,-85.5 1165,-79.5 1171,-73.5 1177,-73.5"/>
<text text-anchor="middle" x="1254.5" y="-150.3" font-family="Times,serif" font-size="14.00">Tag : 247</text>
<polyline fill="none" stroke="black" points="1165,-142.5 1344,-142.5 "/>
<text text-anchor="middle" x="1254.5" y="-127.3" font-family="Times,serif" font-size="14.00">.</text>
<polyline fill="none" stroke="black" points="1165,-119.5 1344,-119.5 "/>
<text text-anchor="middle" x="1254.5" y="-104.3" font-family="Times,serif" font-size="14.00">108086391056891907</text>
<polyline fill="none" stroke="black" points="1165,-96.5 1344,-96.5 "/>
<text text-anchor="middle" x="1254.5" y="-81.3" font-family="Times,serif" font-size="14.00">.</text>
</g>
<!-- entry_3&#45;&gt;p6 -->
<g id="edge10" class="edge">
<title>entry_3&#45;&gt;p6:head</title>
<path fill="none" stroke="black" d="M1352.44,-690.28C1356.35,-595.01 1370.22,-223.17 1351.37,-162.8"/>
<polygon fill="black" stroke="black" points="1354.13,-160.65 1345.5,-154.5 1348.41,-164.69 1354.13,-160.65"/>
</g>
<!-- entry_4 -->
<g id="node5" class="node">
<title>entry_4</title>
<polygon fill="yellow" stroke="black" points="738,-690.5 738,-736.5 851,-736.5 851,-690.5 738,-690.5"/>
<text text-anchor="middle" x="794.5" y="-721.3" font-family="Times,serif" font-size="14.00">val : g1 = g 5</text>
<polyline fill="none" stroke="black" points="738,-713.5 851,-713.5 "/>
<text text-anchor="middle" x="794.5" y="-698.3" font-family="Times,serif" font-size="14.00">.</text>
</g>
<!-- p5 -->
<g id="node21" class="node">
<title>p5</title>
<path fill="lightblue" stroke="black" d="M721.5,-202.5C721.5,-202.5 867.5,-202.5 867.5,-202.5 873.5,-202.5 879.5,-208.5 879.5,-214.5 879.5,-214.5 879.5,-328.5 879.5,-328.5 879.5,-334.5 873.5,-340.5 867.5,-340.5 867.5,-340.5 721.5,-340.5 721.5,-340.5 715.5,-340.5 709.5,-334.5 709.5,-328.5 709.5,-328.5 709.5,-214.5 709.5,-214.5 709.5,-208.5 715.5,-202.5 721.5,-202.5"/>
<text text-anchor="middle" x="794.5" y="-325.3" font-family="Times,serif" font-size="14.00">Tag : 247</text>
<polyline fill="none" stroke="black" points="709.5,-317.5 879.5,-317.5 "/>
<text text-anchor="middle" x="794.5" y="-302.3" font-family="Times,serif" font-size="14.00">.</text>
<polyline fill="none" stroke="black" points="709.5,-294.5 879.5,-294.5 "/>
<text text-anchor="middle" x="794.5" y="-279.3" font-family="Times,serif" font-size="14.00">72057594037927939</text>
<polyline fill="none" stroke="black" points="709.5,-271.5 879.5,-271.5 "/>
<text text-anchor="middle" x="794.5" y="-256.3" font-family="Times,serif" font-size="14.00">.</text>
<polyline fill="none" stroke="black" points="709.5,-248.5 879.5,-248.5 "/>
<text text-anchor="middle" x="794.5" y="-233.3" font-family="Times,serif" font-size="14.00">5</text>
<polyline fill="none" stroke="black" points="709.5,-225.5 879.5,-225.5 "/>
<text text-anchor="middle" x="794.5" y="-210.3" font-family="Times,serif" font-size="14.00">.</text>
</g>
<!-- entry_4&#45;&gt;p5 -->
<g id="edge13" class="edge">
<title>entry_4&#45;&gt;p5:head</title>
<path fill="none" stroke="black" d="M794.5,-690.31C794.5,-634.14 794.5,-481.56 794.5,-351.15"/>
<polygon fill="black" stroke="black" points="798,-351 794.5,-341 791,-351 798,-351"/>
</g>
<!-- entry_5 -->
<g id="node6" class="node">
<title>entry_5</title>
<polygon fill="yellow" stroke="black" points="1128,-690.5 1128,-736.5 1241,-736.5 1241,-690.5 1128,-690.5"/>
<text text-anchor="middle" x="1184.5" y="-721.3" font-family="Times,serif" font-size="14.00">val : g2 = g 7</text>
<polyline fill="none" stroke="black" points="1128,-713.5 1241,-713.5 "/>
<text text-anchor="middle" x="1184.5" y="-698.3" font-family="Times,serif" font-size="14.00">.</text>
</g>
<!-- p7 -->
<g id="node23" class="node">
<title>p7</title>
<path fill="lightblue" stroke="black" d="M1165.5,-202.5C1165.5,-202.5 1311.5,-202.5 1311.5,-202.5 1317.5,-202.5 1323.5,-208.5 1323.5,-214.5 1323.5,-214.5 1323.5,-328.5 1323.5,-328.5 1323.5,-334.5 1317.5,-340.5 1311.5,-340.5 1311.5,-340.5 1165.5,-340.5 1165.5,-340.5 1159.5,-340.5 1153.5,-334.5 1153.5,-328.5 1153.5,-328.5 1153.5,-214.5 1153.5,-214.5 1153.5,-208.5 1159.5,-202.5 1165.5,-202.5"/>
<text text-anchor="middle" x="1238.5" y="-325.3" font-family="Times,serif" font-size="14.00">Tag : 247</text>
<polyline fill="none" stroke="black" points="1153.5,-317.5 1323.5,-317.5 "/>
<text text-anchor="middle" x="1238.5" y="-302.3" font-family="Times,serif" font-size="14.00">.</text>
<polyline fill="none" stroke="black" points="1153.5,-294.5 1323.5,-294.5 "/>
<text text-anchor="middle" x="1238.5" y="-279.3" font-family="Times,serif" font-size="14.00">72057594037927939</text>
<polyline fill="none" stroke="black" points="1153.5,-271.5 1323.5,-271.5 "/>
<text text-anchor="middle" x="1238.5" y="-256.3" font-family="Times,serif" font-size="14.00">.</text>
<polyline fill="none" stroke="black" points="1153.5,-248.5 1323.5,-248.5 "/>
<text text-anchor="middle" x="1238.5" y="-233.3" font-family="Times,serif" font-size="14.00">7</text>
<polyline fill="none" stroke="black" points="1153.5,-225.5 1323.5,-225.5 "/>
<text text-anchor="middle" x="1238.5" y="-210.3" font-family="Times,serif" font-size="14.00">.</text>
</g>
<!-- entry_5&#45;&gt;p7 -->
<g id="edge17" class="edge">
<title>entry_5&#45;&gt;p7:head</title>
<path fill="none" stroke="black" d="M1189.97,-690.47C1203.35,-634.68 1236.75,-482.91 1238.43,-351.25"/>
<polygon fill="black" stroke="black" points="1241.94,-351.02 1238.5,-341 1234.94,-350.98 1241.94,-351.02"/>
</g>
<!-- entry_6 -->
<g id="node7" class="node">
<title>entry_6</title>
<polygon fill="yellow" stroke="black" points="910,-690.5 910,-736.5 1041,-736.5 1041,-690.5 910,-690.5"/>
<text text-anchor="middle" x="975.5" y="-721.3" font-family="Times,serif" font-size="14.00">val : g3 = g1 42</text>
<polyline fill="none" stroke="black" points="910,-713.5 1041,-713.5 "/>
<text text-anchor="middle" x="975.5" y="-698.3" font-family="Times,serif" font-size="14.00">.</text>
</g>
<!-- p4 -->
<g id="node25" class="node">
<title>p4</title>
<path fill="lightblue" stroke="black" d="M902.5,-458C902.5,-458 1048.5,-458 1048.5,-458 1054.5,-458 1060.5,-464 1060.5,-470 1060.5,-470 1060.5,-561 1060.5,-561 1060.5,-567 1054.5,-573 1048.5,-573 1048.5,-573 902.5,-573 902.5,-573 896.5,-573 890.5,-567 890.5,-561 890.5,-561 890.5,-470 890.5,-470 890.5,-464 896.5,-458 902.5,-458"/>
<text text-anchor="middle" x="975.5" y="-557.8" font-family="Times,serif" font-size="14.00">Tag : 247</text>
<polyline fill="none" stroke="black" points="890.5,-550 1060.5,-550 "/>
<text text-anchor="middle" x="975.5" y="-534.8" font-family="Times,serif" font-size="14.00">.</text>
<polyline fill="none" stroke="black" points="890.5,-527 1060.5,-527 "/>
<text text-anchor="middle" x="975.5" y="-511.8" font-family="Times,serif" font-size="14.00">36028797018963970</text>
<polyline fill="none" stroke="black" points="890.5,-504 1060.5,-504 "/>
<text text-anchor="middle" x="975.5" y="-488.8" font-family="Times,serif" font-size="14.00">42</text>
<polyline fill="none" stroke="black" points="890.5,-481 1060.5,-481 "/>
<text text-anchor="middle" x="975.5" y="-465.8" font-family="Times,serif" font-size="14.00">.</text>
</g>
<!-- entry_6&#45;&gt;p4 -->
<g id="edge21" class="edge">
<title>entry_6&#45;&gt;p4:head</title>
<path fill="none" stroke="black" d="M975.5,-690.03C975.5,-664.96 975.5,-622.88 975.5,-584.64"/>
<polygon fill="black" stroke="black" points="979,-584.5 975.5,-574.5 972,-584.5 979,-584.5"/>
</g>
<!-- entry_7 -->
<g id="node8" class="node">
<title>entry_7</title>
<polygon fill="yellow" stroke="black" points="1462,-690.5 1462,-736.5 1623,-736.5 1623,-690.5 1462,-690.5"/>
<text text-anchor="middle" x="1542.5" y="-721.3" font-family="Times,serif" font-size="14.00">val : let rec h x = i x</text>
<polyline fill="none" stroke="black" points="1462,-713.5 1623,-713.5 "/>
<text text-anchor="middle" x="1542.5" y="-698.3" font-family="Times,serif" font-size="14.00">.</text>
</g>
<!-- p2 -->
<g id="node27" class="node">
<title>p2</title>
<path fill="lightblue" stroke="black" d="M1642,-377.5C1642,-377.5 1797,-377.5 1797,-377.5 1803,-377.5 1809,-383.5 1809,-389.5 1809,-389.5 1809,-641.5 1809,-641.5 1809,-647.5 1803,-653.5 1797,-653.5 1797,-653.5 1642,-653.5 1642,-653.5 1636,-653.5 1630,-647.5 1630,-641.5 1630,-641.5 1630,-389.5 1630,-389.5 1630,-383.5 1636,-377.5 1642,-377.5"/>
<text text-anchor="middle" x="1719.5" y="-638.3" font-family="Times,serif" font-size="14.00">Tag : 247</text>
<polyline fill="none" stroke="black" points="1630,-630.5 1809,-630.5 "/>
<text text-anchor="middle" x="1719.5" y="-615.3" font-family="Times,serif" font-size="14.00">.</text>
<polyline fill="none" stroke="black" points="1630,-607.5 1809,-607.5 "/>
<text text-anchor="middle" x="1719.5" y="-592.3" font-family="Times,serif" font-size="14.00">108086391056891915</text>
<polyline fill="none" stroke="black" points="1630,-584.5 1809,-584.5 "/>
<text text-anchor="middle" x="1719.5" y="-569.3" font-family="Times,serif" font-size="14.00">.</text>
<polyline fill="none" stroke="black" points="1630,-561.5 1809,-561.5 "/>
<text text-anchor="middle" x="1719.5" y="-546.3" font-family="Times,serif" font-size="14.00">Infix</text>
<polyline fill="none" stroke="black" points="1630,-538.5 1809,-538.5 "/>
<text text-anchor="middle" x="1719.5" y="-523.3" font-family="Times,serif" font-size="14.00">.</text>
<polyline fill="none" stroke="black" points="1630,-515.5 1809,-515.5 "/>
<text text-anchor="middle" x="1719.5" y="-500.3" font-family="Times,serif" font-size="14.00">108086391056891911</text>
<polyline fill="none" stroke="black" points="1630,-492.5 1809,-492.5 "/>
<text text-anchor="middle" x="1719.5" y="-477.3" font-family="Times,serif" font-size="14.00">.</text>
<polyline fill="none" stroke="black" points="1630,-469.5 1809,-469.5 "/>
<text text-anchor="middle" x="1719.5" y="-454.3" font-family="Times,serif" font-size="14.00">Infix</text>
<polyline fill="none" stroke="black" points="1630,-446.5 1809,-446.5 "/>
<text text-anchor="middle" x="1719.5" y="-431.3" font-family="Times,serif" font-size="14.00">.</text>
<polyline fill="none" stroke="black" points="1630,-423.5 1809,-423.5 "/>
<text text-anchor="middle" x="1719.5" y="-408.3" font-family="Times,serif" font-size="14.00">108086391056891907</text>
<polyline fill="none" stroke="black" points="1630,-400.5 1809,-400.5 "/>
<text text-anchor="middle" x="1719.5" y="-385.3" font-family="Times,serif" font-size="14.00">.</text>
</g>
<!-- entry_7&#45;&gt;p2 -->
<g id="edge24" class="edge">
<title>entry_7&#45;&gt;p2:head</title>
<path fill="none" stroke="black" d="M1556.72,-690.35C1570.1,-672.17 1591.97,-648.61 1618.23,-643.5"/>
<polygon fill="black" stroke="black" points="1618.89,-646.96 1628.5,-642.5 1618.21,-639.99 1618.89,-646.96"/>
</g>
<!-- entry_8 -->
<g id="node9" class="node">
<title>entry_8</title>
<polygon fill="yellow" stroke="black" points="1641,-690.5 1641,-736.5 1798,-736.5 1798,-690.5 1641,-690.5"/>
<text text-anchor="middle" x="1719.5" y="-721.3" font-family="Times,serif" font-size="14.00">val : let rec i y = j y</text>
<polyline fill="none" stroke="black" points="1641,-713.5 1798,-713.5 "/>
<text text-anchor="middle" x="1719.5" y="-698.3" font-family="Times,serif" font-size="14.00">.</text>
</g>
<!-- entry_8&#45;&gt;p2 -->
<g id="edge31" class="edge">
<title>entry_8&#45;&gt;p2:f3</title>
<path fill="none" stroke="black" d="M1771.88,-690.32C1786.7,-681.32 1801.07,-669.36 1809.5,-654 1829.82,-616.98 1852.44,-560.71 1820.43,-551.73"/>
<polygon fill="black" stroke="black" points="1820.85,-548.25 1810.5,-550.5 1819.99,-555.2 1820.85,-548.25"/>
</g>
<!-- entry_9 -->
<g id="node10" class="node">
<title>entry_9</title>
<polygon fill="yellow" stroke="black" points="1816.5,-690.5 1816.5,-736.5 1976.5,-736.5 1976.5,-690.5 1816.5,-690.5"/>
<text text-anchor="middle" x="1896.5" y="-721.3" font-family="Times,serif" font-size="14.00">val : let rec j z = h z</text>
<polyline fill="none" stroke="black" points="1816.5,-713.5 1976.5,-713.5 "/>
<text text-anchor="middle" x="1896.5" y="-698.3" font-family="Times,serif" font-size="14.00">.</text>
</g>
<!-- entry_9&#45;&gt;p2 -->
<g id="edge32" class="edge">
<title>entry_9&#45;&gt;p2:f7</title>
<path fill="none" stroke="black" d="M1898.71,-690.32C1903.47,-630.52 1908.04,-469.7 1820.71,-458.16"/>
<polygon fill="black" stroke="black" points="1820.7,-454.65 1810.5,-457.5 1820.26,-461.63 1820.7,-454.65"/>
</g>
<!-- e94275045132288 -->
<g id="node12" class="node">
<title>e94275045132288</title>
<path fill="grey" stroke="black" d="M12,-101.5C12,-101.5 225,-101.5 225,-101.5 231,-101.5 237,-107.5 237,-113.5 237,-113.5 237,-125.5 237,-125.5 237,-131.5 231,-137.5 225,-137.5 225,-137.5 12,-137.5 12,-137.5 6,-137.5 0,-131.5 0,-125.5 0,-125.5 0,-113.5 0,-113.5 0,-107.5 6,-101.5 12,-101.5"/>
<text text-anchor="middle" x="118.5" y="-115.8" font-family="Times,serif" font-size="14.00">Out of heap : 0x55be1e938800</text>
</g>
<!-- p9&#45;&gt;e94275045132288 -->
<g id="edge2" class="edge">
<title>p9:f0&#45;&gt;e94275045132288:head</title>
<path fill="none" stroke="black" d="M204.5,-271.5C220.06,-271.5 208.52,-251.23 203.5,-236.5 191.4,-201 164.48,-167.09 144.15,-145"/>
<polygon fill="black" stroke="black" points="146.68,-142.58 137.27,-137.7 141.58,-147.38 146.68,-142.58"/>
</g>
<!-- e94275045131344 -->
<g id="node14" class="node">
<title>e94275045131344</title>
<path fill="grey" stroke="black" d="M667,-101.5C667,-101.5 880,-101.5 880,-101.5 886,-101.5 892,-107.5 892,-113.5 892,-113.5 892,-125.5 892,-125.5 892,-131.5 886,-137.5 880,-137.5 880,-137.5 667,-137.5 667,-137.5 661,-137.5 655,-131.5 655,-125.5 655,-125.5 655,-113.5 655,-113.5 655,-107.5 661,-101.5 667,-101.5"/>
<text text-anchor="middle" x="773.5" y="-115.8" font-family="Times,serif" font-size="14.00">Out of heap : 0x55be1e938450</text>
</g>
<!-- p10&#45;&gt;e94275045131344 -->
<g id="edge4" class="edge">
<title>p10:f0&#45;&gt;e94275045131344:head</title>
<path fill="none" stroke="black" d="M648.5,-283.5C691.47,-283.5 674.63,-236.31 700.5,-202 715.54,-182.05 734.24,-160.98 748.95,-145.13"/>
<polygon fill="black" stroke="black" points="751.53,-147.49 755.81,-137.79 746.42,-142.7 751.53,-147.49"/>
</g>
<!-- e94275045179792 -->
<g id="node15" class="node">
<title>e94275045179792</title>
<path fill="grey" stroke="black" d="M412,-101.5C412,-101.5 625,-101.5 625,-101.5 631,-101.5 637,-107.5 637,-113.5 637,-113.5 637,-125.5 637,-125.5 637,-131.5 631,-137.5 625,-137.5 625,-137.5 412,-137.5 412,-137.5 406,-137.5 400,-131.5 400,-125.5 400,-125.5 400,-113.5 400,-113.5 400,-107.5 406,-101.5 412,-101.5"/>
<text text-anchor="middle" x="518.5" y="-115.8" font-family="Times,serif" font-size="14.00">Out of heap : 0x55be1e944190</text>
</g>
<!-- p10&#45;&gt;e94275045179792 -->
<g id="edge5" class="edge">
<title>p10:f2&#45;&gt;e94275045179792:head</title>
<path fill="none" stroke="black" d="M562.5,-224.5C562.5,-196.22 548.75,-166.75 536.63,-146.26"/>
<polygon fill="black" stroke="black" points="539.46,-144.18 531.23,-137.51 533.5,-147.86 539.46,-144.18"/>
</g>
<!-- p8&#45;&gt;p9 -->
<g id="edge8" class="edge">
<title>p8:f2&#45;&gt;p9:head</title>
<path fill="none" stroke="black" d="M254.5,-492.5C184.63,-492.5 227.78,-409.18 212.5,-341 210.91,-333.89 212.73,-314.18 210.47,-302.84"/>
<polygon fill="black" stroke="black" points="213.16,-300.6 204.5,-294.5 207.47,-304.67 213.16,-300.6"/>
</g>
<!-- p8&#45;&gt;p10 -->
<g id="edge9" class="edge">
<title>p8:f3&#45;&gt;p10:head</title>
<path fill="none" stroke="black" d="M426.5,-469.5C486.58,-469.5 452.36,-398.88 468.5,-341 469.84,-336.2 469.53,-323.66 471.13,-315.1"/>
<polygon fill="black" stroke="black" points="474.17,-316.83 476.5,-306.5 468.23,-313.12 474.17,-316.83"/>
</g>
<!-- e94275045133680 -->
<g id="node17" class="node">
<title>e94275045133680</title>
<path fill="grey" stroke="black" d="M234,-253.5C234,-253.5 447,-253.5 447,-253.5 453,-253.5 459,-259.5 459,-265.5 459,-265.5 459,-277.5 459,-277.5 459,-283.5 453,-289.5 447,-289.5 447,-289.5 234,-289.5 234,-289.5 228,-289.5 222,-283.5 222,-277.5 222,-277.5 222,-265.5 222,-265.5 222,-259.5 228,-253.5 234,-253.5"/>
<text text-anchor="middle" x="340.5" y="-267.8" font-family="Times,serif" font-size="14.00">Out of heap : 0x55be1e938d70</text>
</g>
<!-- p8&#45;&gt;e94275045133680 -->
<g id="edge7" class="edge">
<title>p8:f0&#45;&gt;e94275045133680:head</title>
<path fill="none" stroke="black" d="M426.5,-538.5C526.91,-538.5 409.79,-365.31 360.41,-297.9"/>
<polygon fill="black" stroke="black" points="363.22,-295.82 354.47,-289.85 357.59,-299.98 363.22,-295.82"/>
</g>
<!-- e94275045131072 -->
<g id="node19" class="node">
<title>e94275045131072</title>
<path fill="grey" stroke="black" d="M1556,-0.5C1556,-0.5 1769,-0.5 1769,-0.5 1775,-0.5 1781,-6.5 1781,-12.5 1781,-12.5 1781,-24.5 1781,-24.5 1781,-30.5 1775,-36.5 1769,-36.5 1769,-36.5 1556,-36.5 1556,-36.5 1550,-36.5 1544,-30.5 1544,-24.5 1544,-24.5 1544,-12.5 1544,-12.5 1544,-6.5 1550,-0.5 1556,-0.5"/>
<text text-anchor="middle" x="1662.5" y="-14.8" font-family="Times,serif" font-size="14.00">Out of heap : 0x55be1e938340</text>
</g>
<!-- p6&#45;&gt;e94275045131072 -->
<g id="edge11" class="edge">
<title>p6:f0&#45;&gt;e94275045131072:head</title>
<path fill="none" stroke="black" d="M1345.5,-131.5C1358.62,-131.5 1344.4,-82.46 1353.5,-73 1356.93,-69.43 1456.27,-52.32 1541.39,-38.2"/>
<polygon fill="black" stroke="black" points="1542.13,-41.63 1551.43,-36.54 1540.99,-34.72 1542.13,-41.63"/>
</g>
<!-- e94275045132304 -->
<g id="node20" class="node">
<title>e94275045132304</title>
<path fill="grey" stroke="black" d="M1148,-0.5C1148,-0.5 1361,-0.5 1361,-0.5 1367,-0.5 1373,-6.5 1373,-12.5 1373,-12.5 1373,-24.5 1373,-24.5 1373,-30.5 1367,-36.5 1361,-36.5 1361,-36.5 1148,-36.5 1148,-36.5 1142,-36.5 1136,-30.5 1136,-24.5 1136,-24.5 1136,-12.5 1136,-12.5 1136,-6.5 1142,-0.5 1148,-0.5"/>
<text text-anchor="middle" x="1254.5" y="-14.8" font-family="Times,serif" font-size="14.00">Out of heap : 0x55be1e938810</text>
</g>
<!-- p6&#45;&gt;e94275045132304 -->
<g id="edge12" class="edge">
<title>p6:f2&#45;&gt;e94275045132304:head</title>
<path fill="none" stroke="black" d="M1254.5,-73C1254.5,-64.48 1254.5,-55.22 1254.5,-46.79"/>
<polygon fill="black" stroke="black" points="1258,-46.67 1254.5,-36.67 1251,-46.67 1258,-46.67"/>
</g>
<!-- p5&#45;&gt;e94275045131344 -->
<g id="edge14" class="edge">
<title>p5:f0&#45;&gt;e94275045131344:head</title>
<path fill="none" stroke="black" d="M708.5,-306.5C662.05,-306.5 694.24,-245.87 709.5,-202 717,-180.42 732.63,-160.09 746.56,-145.02"/>
<polygon fill="black" stroke="black" points="749.25,-147.27 753.64,-137.63 744.2,-142.43 749.25,-147.27"/>
</g>
<!-- p5&#45;&gt;p6 -->
<g id="edge16" class="edge">
<title>p5:f4&#45;&gt;p6:head</title>
<path fill="none" stroke="black" d="M880.5,-213.5C886.99,-213.5 883.87,-205.23 889.5,-202 993.39,-142.46 1056.28,-231.52 1156.5,-166 1157.6,-165.28 1158.26,-164.33 1158.69,-163.28"/>
<polygon fill="black" stroke="black" points="1161.77,-164.95 1163.5,-154.5 1155.63,-161.59 1161.77,-164.95"/>
</g>
<!-- e94275045132320 -->
<g id="node22" class="node">
<title>e94275045132320</title>
<path fill="grey" stroke="black" d="M922,-101.5C922,-101.5 1135,-101.5 1135,-101.5 1141,-101.5 1147,-107.5 1147,-113.5 1147,-113.5 1147,-125.5 1147,-125.5 1147,-131.5 1141,-137.5 1135,-137.5 1135,-137.5 922,-137.5 922,-137.5 916,-137.5 910,-131.5 910,-125.5 910,-125.5 910,-113.5 910,-113.5 910,-107.5 916,-101.5 922,-101.5"/>
<text text-anchor="middle" x="1028.5" y="-115.8" font-family="Times,serif" font-size="14.00">Out of heap : 0x55be1e938820</text>
</g>
<!-- p5&#45;&gt;e94275045132320 -->
<g id="edge15" class="edge">
<title>p5:f2&#45;&gt;e94275045132320:head</title>
<path fill="none" stroke="black" d="M880.5,-259.5C893.43,-259.5 882.25,-212.71 889.5,-202 908.02,-174.65 938.89,-155.01 966.84,-141.77"/>
<polygon fill="black" stroke="black" points="968.53,-144.85 976.19,-137.53 965.63,-138.48 968.53,-144.85"/>
</g>
<!-- p7&#45;&gt;e94275045131344 -->
<g id="edge18" class="edge">
<title>p7:f0&#45;&gt;e94275045131344:head</title>
<path fill="none" stroke="black" d="M1152.5,-306.5C1140.85,-306.5 1152.44,-210.52 1144.5,-202 1107.29,-162.06 954.42,-179.39 901.5,-166 876.13,-159.58 848.77,-150.02 825.88,-141.23"/>
<polygon fill="black" stroke="black" points="826.95,-137.9 816.37,-137.53 824.41,-144.42 826.95,-137.9"/>
</g>
<!-- p7&#45;&gt;p6 -->
<g id="edge20" class="edge">
<title>p7:f4&#45;&gt;p6:head</title>
<path fill="none" stroke="black" d="M1238.5,-202C1238.5,-188.59 1247.88,-184.88 1252.28,-176.01"/>
<polygon fill="black" stroke="black" points="1255.75,-176.52 1254.5,-166 1248.91,-175 1255.75,-176.52"/>
</g>
<!-- e94275045132336 -->
<g id="node24" class="node">
<title>e94275045132336</title>
<path fill="grey" stroke="black" d="M1374,-101.5C1374,-101.5 1587,-101.5 1587,-101.5 1593,-101.5 1599,-107.5 1599,-113.5 1599,-113.5 1599,-125.5 1599,-125.5 1599,-131.5 1593,-137.5 1587,-137.5 1587,-137.5 1374,-137.5 1374,-137.5 1368,-137.5 1362,-131.5 1362,-125.5 1362,-125.5 1362,-113.5 1362,-113.5 1362,-107.5 1368,-101.5 1374,-101.5"/>
<text text-anchor="middle" x="1480.5" y="-115.8" font-family="Times,serif" font-size="14.00">Out of heap : 0x55be1e938830</text>
</g>
<!-- p7&#45;&gt;e94275045132336 -->
<g id="edge19" class="edge">
<title>p7:f2&#45;&gt;e94275045132336:head</title>
<path fill="none" stroke="black" d="M1324.5,-259.5C1357.23,-259.5 1347,-224.78 1370.5,-202 1393.05,-180.15 1421.47,-158.97 1443.77,-143.54"/>
<polygon fill="black" stroke="black" points="1446.02,-146.25 1452.3,-137.72 1442.07,-140.47 1446.02,-146.25"/>
</g>
<!-- p4&#45;&gt;p5 -->
<g id="edge23" class="edge">
<title>p4:f3&#45;&gt;p5:head</title>
<path fill="none" stroke="black" d="M889.5,-469.5C876.35,-469.5 890.08,-369.83 885.33,-338.69"/>
<polygon fill="black" stroke="black" points="888.25,-336.72 880.5,-329.5 882.06,-339.98 888.25,-336.72"/>
</g>
<!-- e94275045132352 -->
<g id="node26" class="node">
<title>e94275045132352</title>
<path fill="grey" stroke="black" d="M910,-253.5C910,-253.5 1123,-253.5 1123,-253.5 1129,-253.5 1135,-259.5 1135,-265.5 1135,-265.5 1135,-277.5 1135,-277.5 1135,-283.5 1129,-289.5 1123,-289.5 1123,-289.5 910,-289.5 910,-289.5 904,-289.5 898,-283.5 898,-277.5 898,-277.5 898,-265.5 898,-265.5 898,-259.5 904,-253.5 910,-253.5"/>
<text text-anchor="middle" x="1016.5" y="-267.8" font-family="Times,serif" font-size="14.00">Out of heap : 0x55be1e938840</text>
</g>
<!-- p4&#45;&gt;e94275045132352 -->
<g id="edge22" class="edge">
<title>p4:f0&#45;&gt;e94275045132352:head</title>
<path fill="none" stroke="black" d="M1061.5,-538.5C1158.03,-538.5 1070.75,-366.71 1032.43,-298.73"/>
<polygon fill="black" stroke="black" points="1035.36,-296.81 1027.37,-289.85 1029.28,-300.27 1035.36,-296.81"/>
</g>
<!-- p2&#45;&gt;e94275045131072 -->
<g id="edge25" class="edge">
<title>p2:f0&#45;&gt;e94275045131072:head</title>
<path fill="none" stroke="black" d="M1628.5,-619.5C1520.72,-619.5 1594.31,-478.87 1629.5,-377 1636.12,-357.84 1650.77,-360.12 1657.5,-341 1693.81,-237.78 1677.6,-104.24 1667.9,-46.8"/>
<polygon fill="black" stroke="black" points="1671.29,-45.92 1666.12,-36.67 1664.4,-47.13 1671.29,-45.92"/>
</g>
<!-- p2&#45;&gt;e94275045131072 -->
<g id="edge27" class="edge">
<title>p2:f4&#45;&gt;e94275045131072:head</title>
<path fill="none" stroke="black" d="M1628.5,-527.5C1604.2,-527.5 1646.55,-153.42 1659.14,-46.65"/>
<polygon fill="black" stroke="black" points="1662.62,-46.96 1660.32,-36.62 1655.67,-46.13 1662.62,-46.96"/>
</g>
<!-- p2&#45;&gt;e94275045131072 -->
<g id="edge29" class="edge">
<title>p2:f8&#45;&gt;e94275045131072:head</title>
<path fill="none" stroke="black" d="M1810.5,-434.5C1836.06,-434.5 1823.07,-398.66 1809.5,-377 1790.72,-347.01 1759.66,-369.35 1738.5,-341 1666.07,-243.96 1727.64,-187.92 1689.5,-73 1686.46,-63.83 1682.14,-54.24 1677.84,-45.72"/>
<polygon fill="black" stroke="black" points="1680.82,-43.85 1673.07,-36.62 1674.62,-47.1 1680.82,-43.85"/>
</g>
<!-- e94275045132448 -->
<g id="node28" class="node">
<title>e94275045132448</title>
<path fill="grey" stroke="black" d="M1391.5,-253.5C1391.5,-253.5 1603.5,-253.5 1603.5,-253.5 1609.5,-253.5 1615.5,-259.5 1615.5,-265.5 1615.5,-265.5 1615.5,-277.5 1615.5,-277.5 1615.5,-283.5 1609.5,-289.5 1603.5,-289.5 1603.5,-289.5 1391.5,-289.5 1391.5,-289.5 1385.5,-289.5 1379.5,-283.5 1379.5,-277.5 1379.5,-277.5 1379.5,-265.5 1379.5,-265.5 1379.5,-259.5 1385.5,-253.5 1391.5,-253.5"/>
<text text-anchor="middle" x="1497.5" y="-267.8" font-family="Times,serif" font-size="14.00">Out of heap : 0x55be1e9388a0</text>
</g>
<!-- p2&#45;&gt;e94275045132448 -->
<g id="edge26" class="edge">
<title>p2:f2&#45;&gt;e94275045132448:head</title>
<path fill="none" stroke="black" d="M1628.5,-573.5C1510.02,-573.5 1497.52,-375.46 1497.06,-300.12"/>
<polygon fill="black" stroke="black" points="1500.56,-299.94 1497.06,-289.94 1493.56,-299.93 1500.56,-299.94"/>
</g>
<!-- e94275045132480 -->
<g id="node29" class="node">
<title>e94275045132480</title>
<path fill="grey" stroke="black" d="M1759.5,-253.5C1759.5,-253.5 1971.5,-253.5 1971.5,-253.5 1977.5,-253.5 1983.5,-259.5 1983.5,-265.5 1983.5,-265.5 1983.5,-277.5 1983.5,-277.5 1983.5,-283.5 1977.5,-289.5 1971.5,-289.5 1971.5,-289.5 1759.5,-289.5 1759.5,-289.5 1753.5,-289.5 1747.5,-283.5 1747.5,-277.5 1747.5,-277.5 1747.5,-265.5 1747.5,-265.5 1747.5,-259.5 1753.5,-253.5 1759.5,-253.5"/>
<text text-anchor="middle" x="1865.5" y="-267.8" font-family="Times,serif" font-size="14.00">Out of heap : 0x55be1e9388c0</text>
</g>
<!-- p2&#45;&gt;e94275045132480 -->
<g id="edge28" class="edge">
<title>p2:f6&#45;&gt;e94275045132480:head</title>
<path fill="none" stroke="black" d="M1810.5,-480.5C1884.35,-480.5 1877.15,-356.97 1869.88,-299.85"/>
<polygon fill="black" stroke="black" points="1873.31,-299.12 1868.5,-289.68 1866.38,-300.06 1873.31,-299.12"/>
</g>
<!-- e94275045132512 -->
<g id="node30" class="node">
<title>e94275045132512</title>
<path fill="grey" stroke="black" d="M2013.5,-253.5C2013.5,-253.5 2225.5,-253.5 2225.5,-253.5 2231.5,-253.5 2237.5,-259.5 2237.5,-265.5 2237.5,-265.5 2237.5,-277.5 2237.5,-277.5 2237.5,-283.5 2231.5,-289.5 2225.5,-289.5 2225.5,-289.5 2013.5,-289.5 2013.5,-289.5 2007.5,-289.5 2001.5,-283.5 2001.5,-277.5 2001.5,-277.5 2001.5,-265.5 2001.5,-265.5 2001.5,-259.5 2007.5,-253.5 2013.5,-253.5"/>
<text text-anchor="middle" x="2119.5" y="-267.8" font-family="Times,serif" font-size="14.00">Out of heap : 0x55be1e9388e0</text>
</g>
<!-- p2&#45;&gt;e94275045132512 -->
<g id="edge30" class="edge">
<title>p2:f10&#45;&gt;e94275045132512:head</title>
<path fill="none" stroke="black" d="M1810.5,-388.5C1915.1,-388.5 2027.46,-329.14 2083.46,-294.98"/>
<polygon fill="black" stroke="black" points="2085.62,-297.76 2092.28,-289.52 2081.93,-291.81 2085.62,-297.76"/>
</g>
</g>
</svg>
