<?xml version="1.0" encoding="UTF-8" standalone="no"?>
<!DOCTYPE svg PUBLIC "-//W3C//DTD SVG 1.1//EN"
 "http://www.w3.org/Graphics/SVG/1.1/DTD/svg11.dtd">
<!-- Generated by graphviz version 7.1.0 (0)
 -->
<!-- Title: g Pages: 1 -->
<svg width="2444pt" height="441pt"
 viewBox="0.00 0.00 2443.50 441.00" xmlns="http://www.w3.org/2000/svg" xmlns:xlink="http://www.w3.org/1999/xlink">
<g id="graph0" class="graph" transform="scale(1 1) rotate(0) translate(4 437)">
<title>g</title>
<!-- entry_9 -->
<g id="node1" class="node">
<title>entry_9</title>
<polygon fill="yellow" stroke="black" points="237,-386.5 237,-432.5 407,-432.5 407,-386.5 237,-386.5"/>
<text text-anchor="middle" x="322" y="-417.3" font-family="Times,serif" font-size="14.00">val : j z1 z2 z3 = h z1 z2 z3</text>
<polyline fill="none" stroke="black" points="237,-409.5 407,-409.5"/>
<text text-anchor="middle" x="322" y="-394.3" font-family="Times,serif" font-size="14.00">.</text>
</g>
<!-- p2 -->
<g id="node27" class="node">
<title>p2</title>
<path fill="lightblue" stroke="black" d="M461.5,-73.5C461.5,-73.5 560.5,-73.5 560.5,-73.5 566.5,-73.5 572.5,-79.5 572.5,-85.5 572.5,-85.5 572.5,-337.5 572.5,-337.5 572.5,-343.5 566.5,-349.5 560.5,-349.5 560.5,-349.5 461.5,-349.5 461.5,-349.5 455.5,-349.5 449.5,-343.5 449.5,-337.5 449.5,-337.5 449.5,-85.5 449.5,-85.5 449.5,-79.5 455.5,-73.5 461.5,-73.5"/>
<text text-anchor="middle" x="511" y="-334.3" font-family="Times,serif" font-size="14.00">Tag : 247</text>
<polyline fill="none" stroke="black" points="449.5,-326.5 572.5,-326.5"/>
<text text-anchor="middle" x="511" y="-311.3" font-family="Times,serif" font-size="14.00">.</text>
<polyline fill="none" stroke="black" points="449.5,-303.5 572.5,-303.5"/>
<text text-anchor="middle" x="511" y="-288.3" font-family="Times,serif" font-size="14.00">arity:3 / startenv:11</text>
<polyline fill="none" stroke="black" points="449.5,-280.5 572.5,-280.5"/>
<text text-anchor="middle" x="511" y="-265.3" font-family="Times,serif" font-size="14.00">.</text>
<polyline fill="none" stroke="black" points="449.5,-257.5 572.5,-257.5"/>
<text text-anchor="middle" x="511" y="-242.3" font-family="Times,serif" font-size="14.00">Infix</text>
<polyline fill="none" stroke="black" points="449.5,-234.5 572.5,-234.5"/>
<text text-anchor="middle" x="511" y="-219.3" font-family="Times,serif" font-size="14.00">.</text>
<polyline fill="none" stroke="black" points="449.5,-211.5 572.5,-211.5"/>
<text text-anchor="middle" x="511" y="-196.3" font-family="Times,serif" font-size="14.00">arity:3 / startenv:7</text>
<polyline fill="none" stroke="black" points="449.5,-188.5 572.5,-188.5"/>
<text text-anchor="middle" x="511" y="-173.3" font-family="Times,serif" font-size="14.00">.</text>
<polyline fill="none" stroke="black" points="449.5,-165.5 572.5,-165.5"/>
<text text-anchor="middle" x="511" y="-150.3" font-family="Times,serif" font-size="14.00">Infix</text>
<polyline fill="none" stroke="black" points="449.5,-142.5 572.5,-142.5"/>
<text text-anchor="middle" x="511" y="-127.3" font-family="Times,serif" font-size="14.00">.</text>
<polyline fill="none" stroke="black" points="449.5,-119.5 572.5,-119.5"/>
<text text-anchor="middle" x="511" y="-104.3" font-family="Times,serif" font-size="14.00">arity:3 / startenv:3</text>
<polyline fill="none" stroke="black" points="449.5,-96.5 572.5,-96.5"/>
<text text-anchor="middle" x="511" y="-81.3" font-family="Times,serif" font-size="14.00">.</text>
</g>
<!-- entry_9&#45;&gt;p2 -->
<g id="edge27" class="edge">
<title>entry_9&#45;&gt;p2:f7</title>
<path fill="none" stroke="black" d="M322.7,-386.76C325.82,-327.44 342.92,-166.41 436.52,-154.23"/>
<polygon fill="black" stroke="black" points="436.73,-157.72 446.49,-153.6 436.29,-150.74 436.73,-157.72"/>
</g>
<!-- entry_8 -->
<g id="node2" class="node">
<title>entry_8</title>
<polygon fill="yellow" stroke="black" points="425.5,-386.5 425.5,-432.5 596.5,-432.5 596.5,-386.5 425.5,-386.5"/>
<text text-anchor="middle" x="511" y="-417.3" font-family="Times,serif" font-size="14.00">val : i y1 y2 y3 = j y1 y2 y3</text>
<polyline fill="none" stroke="black" points="425.5,-409.5 596.5,-409.5"/>
<text text-anchor="middle" x="511" y="-394.3" font-family="Times,serif" font-size="14.00">.</text>
</g>
<!-- entry_8&#45;&gt;p2 -->
<g id="edge26" class="edge">
<title>entry_8&#45;&gt;p2:f3</title>
<path fill="none" stroke="black" d="M543.44,-386.59C555.01,-376.87 566.72,-364.37 573,-350 589.7,-311.8 614.73,-257.83 585.04,-248.05"/>
<polygon fill="black" stroke="black" points="585.89,-244.64 575.5,-246.71 584.91,-251.57 585.89,-244.64"/>
</g>
<!-- entry_7 -->
<g id="node3" class="node">
<title>entry_7</title>
<polygon fill="yellow" stroke="black" points="615,-386.5 615,-432.5 789,-432.5 789,-386.5 615,-386.5"/>
<text text-anchor="middle" x="702" y="-417.3" font-family="Times,serif" font-size="14.00">val : h x1 x2 x3 = i x1 x2 x3</text>
<polyline fill="none" stroke="black" points="615,-409.5 789,-409.5"/>
<text text-anchor="middle" x="702" y="-394.3" font-family="Times,serif" font-size="14.00">.</text>
</g>
<!-- entry_7&#45;&gt;p2 -->
<g id="edge19" class="edge">
<title>entry_7&#45;&gt;p2:head</title>
<path fill="none" stroke="black" d="M679.05,-386.74C657.16,-368.11 622.16,-343.63 585.44,-339.2"/>
<polygon fill="black" stroke="black" points="585.71,-335.71 575.51,-338.59 585.28,-342.7 585.71,-335.71"/>
</g>
<!-- entry_6 -->
<g id="node4" class="node">
<title>entry_6</title>
<polygon fill="yellow" stroke="black" points="1063,-386.5 1063,-432.5 1167,-432.5 1167,-386.5 1063,-386.5"/>
<text text-anchor="middle" x="1115" y="-417.3" font-family="Times,serif" font-size="14.00">val : g3 = g1 42</text>
<polyline fill="none" stroke="black" points="1063,-409.5 1167,-409.5"/>
<text text-anchor="middle" x="1115" y="-394.3" font-family="Times,serif" font-size="14.00">.</text>
</g>
<!-- p4 -->
<g id="node25" class="node">
<title>p4</title>
<path fill="lightblue" stroke="black" d="M1069,-177C1069,-177 1161,-177 1161,-177 1167,-177 1173,-183 1173,-189 1173,-189 1173,-234 1173,-234 1173,-240 1167,-246 1161,-246 1161,-246 1069,-246 1069,-246 1063,-246 1057,-240 1057,-234 1057,-234 1057,-189 1057,-189 1057,-183 1063,-177 1069,-177"/>
<text text-anchor="middle" x="1115" y="-230.8" font-family="Times,serif" font-size="14.00">Tag : 247</text>
<polyline fill="none" stroke="black" points="1057,-223 1173,-223"/>
<text text-anchor="middle" x="1115" y="-207.8" font-family="Times,serif" font-size="14.00">.</text>
<polyline fill="none" stroke="black" points="1057,-200 1173,-200"/>
<text text-anchor="middle" x="1115" y="-184.8" font-family="Times,serif" font-size="14.00">arity:1 / startenv:2</text>
</g>
<!-- entry_6&#45;&gt;p4 -->
<g id="edge17" class="edge">
<title>entry_6&#45;&gt;p4:head</title>
<path fill="none" stroke="black" d="M1115,-386.63C1115,-358.01 1115,-305.99 1115,-259"/>
<polygon fill="black" stroke="black" points="1118.5,-259.01 1115,-249.01 1111.5,-259.01 1118.5,-259.01"/>
</g>
<!-- entry_5 -->
<g id="node5" class="node">
<title>entry_5</title>
<polygon fill="yellow" stroke="black" points="1748.5,-386.5 1748.5,-432.5 1839.5,-432.5 1839.5,-386.5 1748.5,-386.5"/>
<text text-anchor="middle" x="1794" y="-417.3" font-family="Times,serif" font-size="14.00">val : g2 = g 7</text>
<polyline fill="none" stroke="black" points="1748.5,-409.5 1839.5,-409.5"/>
<text text-anchor="middle" x="1794" y="-394.3" font-family="Times,serif" font-size="14.00">.</text>
</g>
<!-- p5 -->
<g id="node23" class="node">
<title>p5</title>
<path fill="lightblue" stroke="black" d="M1748,-165.5C1748,-165.5 1840,-165.5 1840,-165.5 1846,-165.5 1852,-171.5 1852,-177.5 1852,-177.5 1852,-245.5 1852,-245.5 1852,-251.5 1846,-257.5 1840,-257.5 1840,-257.5 1748,-257.5 1748,-257.5 1742,-257.5 1736,-251.5 1736,-245.5 1736,-245.5 1736,-177.5 1736,-177.5 1736,-171.5 1742,-165.5 1748,-165.5"/>
<text text-anchor="middle" x="1794" y="-242.3" font-family="Times,serif" font-size="14.00">Tag : 247</text>
<polyline fill="none" stroke="black" points="1736,-234.5 1852,-234.5"/>
<text text-anchor="middle" x="1794" y="-219.3" font-family="Times,serif" font-size="14.00">.</text>
<polyline fill="none" stroke="black" points="1736,-211.5 1852,-211.5"/>
<text text-anchor="middle" x="1794" y="-196.3" font-family="Times,serif" font-size="14.00">arity:2 / startenv:3</text>
<polyline fill="none" stroke="black" points="1736,-188.5 1852,-188.5"/>
<text text-anchor="middle" x="1794" y="-173.3" font-family="Times,serif" font-size="14.00">.</text>
</g>
<!-- entry_5&#45;&gt;p5 -->
<g id="edge14" class="edge">
<title>entry_5&#45;&gt;p5:head</title>
<path fill="none" stroke="black" d="M1794,-386.64C1794,-359.83 1794,-312.66 1794,-269.85"/>
<polygon fill="black" stroke="black" points="1797.5,-270.01 1794,-260.01 1790.5,-270.01 1797.5,-270.01"/>
</g>
<!-- entry_4 -->
<g id="node6" class="node">
<title>entry_4</title>
<polygon fill="yellow" stroke="black" points="1545.5,-386.5 1545.5,-432.5 1636.5,-432.5 1636.5,-386.5 1545.5,-386.5"/>
<text text-anchor="middle" x="1591" y="-417.3" font-family="Times,serif" font-size="14.00">val : g1 = g 5</text>
<polyline fill="none" stroke="black" points="1545.5,-409.5 1636.5,-409.5"/>
<text text-anchor="middle" x="1591" y="-394.3" font-family="Times,serif" font-size="14.00">.</text>
</g>
<!-- p6 -->
<g id="node21" class="node">
<title>p6</title>
<path fill="lightblue" stroke="black" d="M1545,-165.5C1545,-165.5 1637,-165.5 1637,-165.5 1643,-165.5 1649,-171.5 1649,-177.5 1649,-177.5 1649,-245.5 1649,-245.5 1649,-251.5 1643,-257.5 1637,-257.5 1637,-257.5 1545,-257.5 1545,-257.5 1539,-257.5 1533,-251.5 1533,-245.5 1533,-245.5 1533,-177.5 1533,-177.5 1533,-171.5 1539,-165.5 1545,-165.5"/>
<text text-anchor="middle" x="1591" y="-242.3" font-family="Times,serif" font-size="14.00">Tag : 247</text>
<polyline fill="none" stroke="black" points="1533,-234.5 1649,-234.5"/>
<text text-anchor="middle" x="1591" y="-219.3" font-family="Times,serif" font-size="14.00">.</text>
<polyline fill="none" stroke="black" points="1533,-211.5 1649,-211.5"/>
<text text-anchor="middle" x="1591" y="-196.3" font-family="Times,serif" font-size="14.00">arity:2 / startenv:3</text>
<polyline fill="none" stroke="black" points="1533,-188.5 1649,-188.5"/>
<text text-anchor="middle" x="1591" y="-173.3" font-family="Times,serif" font-size="14.00">.</text>
</g>
<!-- entry_4&#45;&gt;p6 -->
<g id="edge11" class="edge">
<title>entry_4&#45;&gt;p6:head</title>
<path fill="none" stroke="black" d="M1591,-386.64C1591,-359.83 1591,-312.66 1591,-269.85"/>
<polygon fill="black" stroke="black" points="1594.5,-270.01 1591,-260.01 1587.5,-270.01 1594.5,-270.01"/>
</g>
<!-- entry_3 -->
<g id="node7" class="node">
<title>entry_3</title>
<polygon fill="yellow" stroke="black" points="817.5,-386.5 817.5,-432.5 966.5,-432.5 966.5,-386.5 817.5,-386.5"/>
<text text-anchor="middle" x="892" y="-417.3" font-family="Times,serif" font-size="14.00">val : g x y z = x + y + z</text>
<polyline fill="none" stroke="black" points="817.5,-409.5 966.5,-409.5"/>
<text text-anchor="middle" x="892" y="-394.3" font-family="Times,serif" font-size="14.00">.</text>
</g>
<!-- p7 -->
<g id="node18" class="node">
<title>p7</title>
<path fill="lightblue" stroke="black" d="M846,-165.5C846,-165.5 938,-165.5 938,-165.5 944,-165.5 950,-171.5 950,-177.5 950,-177.5 950,-245.5 950,-245.5 950,-251.5 944,-257.5 938,-257.5 938,-257.5 846,-257.5 846,-257.5 840,-257.5 834,-251.5 834,-245.5 834,-245.5 834,-177.5 834,-177.5 834,-171.5 840,-165.5 846,-165.5"/>
<text text-anchor="middle" x="892" y="-242.3" font-family="Times,serif" font-size="14.00">Tag : 247</text>
<polyline fill="none" stroke="black" points="834,-234.5 950,-234.5"/>
<text text-anchor="middle" x="892" y="-219.3" font-family="Times,serif" font-size="14.00">.</text>
<polyline fill="none" stroke="black" points="834,-211.5 950,-211.5"/>
<text text-anchor="middle" x="892" y="-196.3" font-family="Times,serif" font-size="14.00">arity:3 / startenv:3</text>
<polyline fill="none" stroke="black" points="834,-188.5 950,-188.5"/>
<text text-anchor="middle" x="892" y="-173.3" font-family="Times,serif" font-size="14.00">.</text>
</g>
<!-- entry_3&#45;&gt;p7 -->
<g id="edge8" class="edge">
<title>entry_3&#45;&gt;p7:head</title>
<path fill="none" stroke="black" d="M892,-386.64C892,-359.83 892,-312.66 892,-269.85"/>
<polygon fill="black" stroke="black" points="895.5,-270.01 892,-260.01 888.5,-270.01 895.5,-270.01"/>
</g>
<!-- entry_2 -->
<g id="node8" class="node">
<title>entry_2</title>
<polygon fill="yellow" stroke="black" points="2086.5,-386.5 2086.5,-432.5 2187.5,-432.5 2187.5,-386.5 2086.5,-386.5"/>
<text text-anchor="middle" x="2137" y="-417.3" font-family="Times,serif" font-size="14.00">val : List.map f</text>
<polyline fill="none" stroke="black" points="2086.5,-409.5 2187.5,-409.5"/>
<text text-anchor="middle" x="2137" y="-394.3" font-family="Times,serif" font-size="14.00">.</text>
</g>
<!-- p8 -->
<g id="node16" class="node">
<title>p8</title>
<path fill="lightblue" stroke="black" d="M2091,-177C2091,-177 2183,-177 2183,-177 2189,-177 2195,-183 2195,-189 2195,-189 2195,-234 2195,-234 2195,-240 2189,-246 2183,-246 2183,-246 2091,-246 2091,-246 2085,-246 2079,-240 2079,-234 2079,-234 2079,-189 2079,-189 2079,-183 2085,-177 2091,-177"/>
<text text-anchor="middle" x="2137" y="-230.8" font-family="Times,serif" font-size="14.00">Tag : 247</text>
<polyline fill="none" stroke="black" points="2079,-223 2195,-223"/>
<text text-anchor="middle" x="2137" y="-207.8" font-family="Times,serif" font-size="14.00">.</text>
<polyline fill="none" stroke="black" points="2079,-200 2195,-200"/>
<text text-anchor="middle" x="2137" y="-184.8" font-family="Times,serif" font-size="14.00">arity:1 / startenv:2</text>
</g>
<!-- entry_2&#45;&gt;p8 -->
<g id="edge6" class="edge">
<title>entry_2&#45;&gt;p8:head</title>
<path fill="none" stroke="black" d="M2137,-386.63C2137,-358.01 2137,-305.99 2137,-259"/>
<polygon fill="black" stroke="black" points="2140.5,-259.01 2137,-249.01 2133.5,-259.01 2140.5,-259.01"/>
</g>
<!-- entry_1 -->
<g id="node9" class="node">
<title>entry_1</title>
<polygon fill="yellow" stroke="black" points="1306.5,-386.5 1306.5,-432.5 1399.5,-432.5 1399.5,-386.5 1306.5,-386.5"/>
<text text-anchor="middle" x="1353" y="-417.3" font-family="Times,serif" font-size="14.00">val : List.map</text>
<polyline fill="none" stroke="black" points="1306.5,-409.5 1399.5,-409.5"/>
<text text-anchor="middle" x="1353" y="-394.3" font-family="Times,serif" font-size="14.00">.</text>
</g>
<!-- p9 -->
<g id="node13" class="node">
<title>p9</title>
<path fill="lightblue" stroke="black" d="M1307,-165.5C1307,-165.5 1399,-165.5 1399,-165.5 1405,-165.5 1411,-171.5 1411,-177.5 1411,-177.5 1411,-245.5 1411,-245.5 1411,-251.5 1405,-257.5 1399,-257.5 1399,-257.5 1307,-257.5 1307,-257.5 1301,-257.5 1295,-251.5 1295,-245.5 1295,-245.5 1295,-177.5 1295,-177.5 1295,-171.5 1301,-165.5 1307,-165.5"/>
<text text-anchor="middle" x="1353" y="-242.3" font-family="Times,serif" font-size="14.00">Tag : 247</text>
<polyline fill="none" stroke="black" points="1295,-234.5 1411,-234.5"/>
<text text-anchor="middle" x="1353" y="-219.3" font-family="Times,serif" font-size="14.00">.</text>
<polyline fill="none" stroke="black" points="1295,-211.5 1411,-211.5"/>
<text text-anchor="middle" x="1353" y="-196.3" font-family="Times,serif" font-size="14.00">arity:2 / startenv:3</text>
<polyline fill="none" stroke="black" points="1295,-188.5 1411,-188.5"/>
<text text-anchor="middle" x="1353" y="-173.3" font-family="Times,serif" font-size="14.00">.</text>
</g>
<!-- entry_1&#45;&gt;p9 -->
<g id="edge3" class="edge">
<title>entry_1&#45;&gt;p9:head</title>
<path fill="none" stroke="black" d="M1353,-386.64C1353,-359.83 1353,-312.66 1353,-269.85"/>
<polygon fill="black" stroke="black" points="1356.5,-270.01 1353,-260.01 1349.5,-270.01 1356.5,-270.01"/>
</g>
<!-- entry_0 -->
<g id="node10" class="node">
<title>entry_0</title>
<polygon fill="yellow" stroke="black" points="2290,-386.5 2290,-432.5 2394,-432.5 2394,-386.5 2290,-386.5"/>
<text text-anchor="middle" x="2342" y="-417.3" font-family="Times,serif" font-size="14.00">val : f x = x + 1</text>
<polyline fill="none" stroke="black" points="2290,-409.5 2394,-409.5"/>
<text text-anchor="middle" x="2342" y="-394.3" font-family="Times,serif" font-size="14.00">.</text>
</g>
<!-- p10 -->
<g id="node11" class="node">
<title>p10</title>
<path fill="lightblue" stroke="black" d="M2296,-177C2296,-177 2388,-177 2388,-177 2394,-177 2400,-183 2400,-189 2400,-189 2400,-234 2400,-234 2400,-240 2394,-246 2388,-246 2388,-246 2296,-246 2296,-246 2290,-246 2284,-240 2284,-234 2284,-234 2284,-189 2284,-189 2284,-183 2290,-177 2296,-177"/>
<text text-anchor="middle" x="2342" y="-230.8" font-family="Times,serif" font-size="14.00">Tag : 247</text>
<polyline fill="none" stroke="black" points="2284,-223 2400,-223"/>
<text text-anchor="middle" x="2342" y="-207.8" font-family="Times,serif" font-size="14.00">.</text>
<polyline fill="none" stroke="black" points="2284,-200 2400,-200"/>
<text text-anchor="middle" x="2342" y="-184.8" font-family="Times,serif" font-size="14.00">arity:1 / startenv:2</text>
</g>
<!-- entry_0&#45;&gt;p10 -->
<g id="edge1" class="edge">
<title>entry_0&#45;&gt;p10:head</title>
<path fill="none" stroke="black" d="M2342,-386.63C2342,-358.01 2342,-305.99 2342,-259"/>
<polygon fill="black" stroke="black" points="2345.5,-259.01 2342,-249.01 2338.5,-259.01 2345.5,-259.01"/>
</g>
<!-- e94379222378880 -->
<g id="node12" class="node">
<title>e94379222378880</title>
<path fill="grey" stroke="black" d="M2260.5,-0.5C2260.5,-0.5 2423.5,-0.5 2423.5,-0.5 2429.5,-0.5 2435.5,-6.5 2435.5,-12.5 2435.5,-12.5 2435.5,-24.5 2435.5,-24.5 2435.5,-30.5 2429.5,-36.5 2423.5,-36.5 2423.5,-36.5 2260.5,-36.5 2260.5,-36.5 2254.5,-36.5 2248.5,-30.5 2248.5,-24.5 2248.5,-24.5 2248.5,-12.5 2248.5,-12.5 2248.5,-6.5 2254.5,-0.5 2260.5,-0.5"/>
<text text-anchor="middle" x="2342" y="-14.8" font-family="Times,serif" font-size="14.00">Out of heap : 0x55d660062980</text>
</g>
<!-- p10&#45;&gt;e94379222378880 -->
<g id="edge2" class="edge">
<title>p10:f0&#45;&gt;e94379222378880:head</title>
<path fill="none" stroke="black" d="M2401,-211.5C2469.61,-211.5 2398.74,-98.58 2361.63,-45.49"/>
<polygon fill="black" stroke="black" points="2364.64,-43.69 2356.01,-37.55 2358.93,-47.73 2364.64,-43.69"/>
</g>
<!-- e94379222377664 -->
<g id="node14" class="node">
<title>e94379222377664</title>
<path fill="grey" stroke="black" d="M1441,-0.5C1441,-0.5 1603,-0.5 1603,-0.5 1609,-0.5 1615,-6.5 1615,-12.5 1615,-12.5 1615,-24.5 1615,-24.5 1615,-30.5 1609,-36.5 1603,-36.5 1603,-36.5 1441,-36.5 1441,-36.5 1435,-36.5 1429,-30.5 1429,-24.5 1429,-24.5 1429,-12.5 1429,-12.5 1429,-6.5 1435,-0.5 1441,-0.5"/>
<text text-anchor="middle" x="1522" y="-14.8" font-family="Times,serif" font-size="14.00">Out of heap : 0x55d6600624c0</text>
</g>
<!-- p9&#45;&gt;e94379222377664 -->
<g id="edge4" class="edge">
<title>p9:f0&#45;&gt;e94379222377664:head</title>
<path fill="none" stroke="black" d="M1412,-223.5C1490.83,-223.5 1513.4,-104.34 1519.67,-47.72"/>
<polygon fill="black" stroke="black" points="1523.15,-48.14 1520.66,-37.84 1516.18,-47.44 1523.15,-48.14"/>
</g>
<!-- e94379222441872 -->
<g id="node15" class="node">
<title>e94379222441872</title>
<path fill="grey" stroke="black" d="M1237.5,-0.5C1237.5,-0.5 1398.5,-0.5 1398.5,-0.5 1404.5,-0.5 1410.5,-6.5 1410.5,-12.5 1410.5,-12.5 1410.5,-24.5 1410.5,-24.5 1410.5,-30.5 1404.5,-36.5 1398.5,-36.5 1398.5,-36.5 1237.5,-36.5 1237.5,-36.5 1231.5,-36.5 1225.5,-30.5 1225.5,-24.5 1225.5,-24.5 1225.5,-12.5 1225.5,-12.5 1225.5,-6.5 1231.5,-0.5 1237.5,-0.5"/>
<text text-anchor="middle" x="1318" y="-14.8" font-family="Times,serif" font-size="14.00">Out of heap : 0x55d660071f90</text>
</g>
<!-- p9&#45;&gt;e94379222441872 -->
<g id="edge5" class="edge">
<title>p9:f2&#45;&gt;e94379222441872:head</title>
<path fill="none" stroke="black" d="M1353,-164.5C1353,-122.62 1339.21,-75.8 1328.95,-46.74"/>
<polygon fill="black" stroke="black" points="1332.32,-45.77 1325.6,-37.58 1325.74,-48.17 1332.32,-45.77"/>
</g>
<!-- e94379222378720 -->
<g id="node17" class="node">
<title>e94379222378720</title>
<path fill="grey" stroke="black" d="M2056,-0.5C2056,-0.5 2218,-0.5 2218,-0.5 2224,-0.5 2230,-6.5 2230,-12.5 2230,-12.5 2230,-24.5 2230,-24.5 2230,-30.5 2224,-36.5 2218,-36.5 2218,-36.5 2056,-36.5 2056,-36.5 2050,-36.5 2044,-30.5 2044,-24.5 2044,-24.5 2044,-12.5 2044,-12.5 2044,-6.5 2050,-0.5 2056,-0.5"/>
<text text-anchor="middle" x="2137" y="-14.8" font-family="Times,serif" font-size="14.00">Out of heap : 0x55d6600628e0</text>
</g>
<!-- p8&#45;&gt;e94379222378720 -->
<g id="edge7" class="edge">
<title>p8:f0&#45;&gt;e94379222378720:head</title>
<path fill="none" stroke="black" d="M2196,-211.5C2264.61,-211.5 2193.74,-98.58 2156.63,-45.49"/>
<polygon fill="black" stroke="black" points="2159.64,-43.69 2151.01,-37.55 2153.93,-47.73 2159.64,-43.69"/>
</g>
<!-- e94379222377392 -->
<g id="node19" class="node">
<title>e94379222377392</title>
<path fill="grey" stroke="black" d="M624.5,-0.5C624.5,-0.5 787.5,-0.5 787.5,-0.5 793.5,-0.5 799.5,-6.5 799.5,-12.5 799.5,-12.5 799.5,-24.5 799.5,-24.5 799.5,-30.5 793.5,-36.5 787.5,-36.5 787.5,-36.5 624.5,-36.5 624.5,-36.5 618.5,-36.5 612.5,-30.5 612.5,-24.5 612.5,-24.5 612.5,-12.5 612.5,-12.5 612.5,-6.5 618.5,-0.5 624.5,-0.5"/>
<text text-anchor="middle" x="706" y="-14.8" font-family="Times,serif" font-size="14.00">Out of heap : 0x55d6600623b0</text>
</g>
<!-- p7&#45;&gt;e94379222377392 -->
<g id="edge9" class="edge">
<title>p7:f0&#45;&gt;e94379222377392:head</title>
<path fill="none" stroke="black" d="M833,-223.5C751.11,-223.5 720.22,-103.84 710.2,-47.36"/>
<polygon fill="black" stroke="black" points="713.71,-47.12 708.61,-37.83 706.8,-48.27 713.71,-47.12"/>
</g>
<!-- e94379222378896 -->
<g id="node20" class="node">
<title>e94379222378896</title>
<path fill="grey" stroke="black" d="M829.5,-0.5C829.5,-0.5 992.5,-0.5 992.5,-0.5 998.5,-0.5 1004.5,-6.5 1004.5,-12.5 1004.5,-12.5 1004.5,-24.5 1004.5,-24.5 1004.5,-30.5 998.5,-36.5 992.5,-36.5 992.5,-36.5 829.5,-36.5 829.5,-36.5 823.5,-36.5 817.5,-30.5 817.5,-24.5 817.5,-24.5 817.5,-12.5 817.5,-12.5 817.5,-6.5 823.5,-0.5 829.5,-0.5"/>
<text text-anchor="middle" x="911" y="-14.8" font-family="Times,serif" font-size="14.00">Out of heap : 0x55d660062990</text>
</g>
<!-- p7&#45;&gt;e94379222378896 -->
<g id="edge10" class="edge">
<title>p7:f2&#45;&gt;e94379222378896:head</title>
<path fill="none" stroke="black" d="M892,-164.5C892,-123.61 899.42,-76.82 904.98,-47.46"/>
<polygon fill="black" stroke="black" points="908.38,-48.36 906.86,-37.87 901.51,-47.01 908.38,-48.36"/>
</g>
<!-- p6&#45;&gt;e94379222377664 -->
<g id="edge12" class="edge">
<title>p6:f0&#45;&gt;e94379222377664:head</title>
<path fill="none" stroke="black" d="M1532,-223.5C1462.16,-223.5 1493.4,-103.34 1511.88,-47.01"/>
<polygon fill="black" stroke="black" points="1515.12,-48.36 1515,-37.77 1508.48,-46.12 1515.12,-48.36"/>
</g>
<!-- e94379222378832 -->
<g id="node22" class="node">
<title>e94379222378832</title>
<path fill="grey" stroke="black" d="M1645.5,-0.5C1645.5,-0.5 1808.5,-0.5 1808.5,-0.5 1814.5,-0.5 1820.5,-6.5 1820.5,-12.5 1820.5,-12.5 1820.5,-24.5 1820.5,-24.5 1820.5,-30.5 1814.5,-36.5 1808.5,-36.5 1808.5,-36.5 1645.5,-36.5 1645.5,-36.5 1639.5,-36.5 1633.5,-30.5 1633.5,-24.5 1633.5,-24.5 1633.5,-12.5 1633.5,-12.5 1633.5,-6.5 1639.5,-0.5 1645.5,-0.5"/>
<text text-anchor="middle" x="1727" y="-14.8" font-family="Times,serif" font-size="14.00">Out of heap : 0x55d660062950</text>
</g>
<!-- p6&#45;&gt;e94379222378832 -->
<g id="edge13" class="edge">
<title>p6:f2&#45;&gt;e94379222378832:head</title>
<path fill="none" stroke="black" d="M1650,-176.5C1706.72,-176.5 1721.67,-93.19 1725.6,-47.56"/>
<polygon fill="black" stroke="black" points="1729.07,-48.05 1726.3,-37.83 1722.09,-47.55 1729.07,-48.05"/>
</g>
<!-- p5&#45;&gt;e94379222377664 -->
<g id="edge15" class="edge">
<title>p5:f0&#45;&gt;e94379222377664:head</title>
<path fill="none" stroke="black" d="M1735,-223.5C1659.86,-223.5 1713.51,-123.64 1658,-73 1642.78,-59.11 1623.57,-48.56 1604.43,-40.62"/>
<polygon fill="black" stroke="black" points="1605.82,-37.41 1595.24,-37.02 1603.27,-43.92 1605.82,-37.41"/>
</g>
<!-- e94379222378784 -->
<g id="node24" class="node">
<title>e94379222378784</title>
<path fill="grey" stroke="black" d="M1850.5,-0.5C1850.5,-0.5 2013.5,-0.5 2013.5,-0.5 2019.5,-0.5 2025.5,-6.5 2025.5,-12.5 2025.5,-12.5 2025.5,-24.5 2025.5,-24.5 2025.5,-30.5 2019.5,-36.5 2013.5,-36.5 2013.5,-36.5 1850.5,-36.5 1850.5,-36.5 1844.5,-36.5 1838.5,-30.5 1838.5,-24.5 1838.5,-24.5 1838.5,-12.5 1838.5,-12.5 1838.5,-6.5 1844.5,-0.5 1850.5,-0.5"/>
<text text-anchor="middle" x="1932" y="-14.8" font-family="Times,serif" font-size="14.00">Out of heap : 0x55d660062920</text>
</g>
<!-- p5&#45;&gt;e94379222378784 -->
<g id="edge16" class="edge">
<title>p5:f2&#45;&gt;e94379222378784:head</title>
<path fill="none" stroke="black" d="M1853,-176.5C1910.01,-176.5 1925.88,-93.19 1930.3,-47.56"/>
<polygon fill="black" stroke="black" points="1933.77,-48.08 1931.1,-37.83 1926.79,-47.5 1933.77,-48.08"/>
</g>
<!-- e94379222378736 -->
<g id="node26" class="node">
<title>e94379222378736</title>
<path fill="grey" stroke="black" d="M1034.5,-0.5C1034.5,-0.5 1195.5,-0.5 1195.5,-0.5 1201.5,-0.5 1207.5,-6.5 1207.5,-12.5 1207.5,-12.5 1207.5,-24.5 1207.5,-24.5 1207.5,-30.5 1201.5,-36.5 1195.5,-36.5 1195.5,-36.5 1034.5,-36.5 1034.5,-36.5 1028.5,-36.5 1022.5,-30.5 1022.5,-24.5 1022.5,-24.5 1022.5,-12.5 1022.5,-12.5 1022.5,-6.5 1028.5,-0.5 1034.5,-0.5"/>
<text text-anchor="middle" x="1115" y="-14.8" font-family="Times,serif" font-size="14.00">Out of heap : 0x55d6600628f0</text>
</g>
<!-- p4&#45;&gt;e94379222378736 -->
<g id="edge18" class="edge">
<title>p4:f0&#45;&gt;e94379222378736:head</title>
<path fill="none" stroke="black" d="M1174,-211.5C1242.61,-211.5 1171.74,-98.58 1134.63,-45.49"/>
<polygon fill="black" stroke="black" points="1137.64,-43.69 1129.01,-37.55 1131.93,-47.73 1137.64,-43.69"/>
</g>
<!-- p2&#45;&gt;e94379222377392 -->
<g id="edge20" class="edge">
<title>p2:f0&#45;&gt;e94379222377392:head</title>
<path fill="none" stroke="black" d="M574,-315.5C690.52,-315.5 704.95,-122.24 706.17,-47.51"/>
<polygon fill="black" stroke="black" points="709.67,-47.73 706.26,-37.7 702.67,-47.67 709.67,-47.73"/>
</g>
<!-- p2&#45;&gt;e94379222377392 -->
<g id="edge22" class="edge">
<title>p2:f4&#45;&gt;e94379222377392:head</title>
<path fill="none" stroke="black" d="M574,-223.5C656.79,-223.5 690.13,-103.84 701.25,-47.36"/>
<polygon fill="black" stroke="black" points="704.64,-48.29 703.02,-37.82 697.75,-47.02 704.64,-48.29"/>
</g>
<!-- p2&#45;&gt;e94379222377392 -->
<g id="edge24" class="edge">
<title>p2:f8&#45;&gt;e94379222377392:head</title>
<path fill="none" stroke="black" d="M574,-130.5C626.02,-130.5 668.04,-79.3 689.8,-46.13"/>
<polygon fill="black" stroke="black" points="692.7,-48.1 695.09,-37.77 686.78,-44.36 692.7,-48.1"/>
</g>
<!-- e94379222378976 -->
<g id="node28" class="node">
<title>e94379222378976</title>
<path fill="grey" stroke="black" d="M12,-0.5C12,-0.5 174,-0.5 174,-0.5 180,-0.5 186,-6.5 186,-12.5 186,-12.5 186,-24.5 186,-24.5 186,-30.5 180,-36.5 174,-36.5 174,-36.5 12,-36.5 12,-36.5 6,-36.5 0,-30.5 0,-24.5 0,-24.5 0,-12.5 0,-12.5 0,-6.5 6,-0.5 12,-0.5"/>
<text text-anchor="middle" x="93" y="-14.8" font-family="Times,serif" font-size="14.00">Out of heap : 0x55d6600629e0</text>
</g>
<!-- p2&#45;&gt;e94379222378976 -->
<g id="edge21" class="edge">
<title>p2:f2&#45;&gt;e94379222378976:head</title>
<path fill="none" stroke="black" d="M448,-269.5C294,-269.5 159.98,-110.07 111.91,-45.34"/>
<polygon fill="black" stroke="black" points="114.82,-43.38 106.09,-37.37 109.17,-47.51 114.82,-43.38"/>
</g>
<!-- e94379222379008 -->
<g id="node29" class="node">
<title>e94379222379008</title>
<path fill="grey" stroke="black" d="M216,-0.5C216,-0.5 378,-0.5 378,-0.5 384,-0.5 390,-6.5 390,-12.5 390,-12.5 390,-24.5 390,-24.5 390,-30.5 384,-36.5 378,-36.5 378,-36.5 216,-36.5 216,-36.5 210,-36.5 204,-30.5 204,-24.5 204,-24.5 204,-12.5 204,-12.5 204,-6.5 210,-0.5 216,-0.5"/>
<text text-anchor="middle" x="297" y="-14.8" font-family="Times,serif" font-size="14.00">Out of heap : 0x55d660062a00</text>
</g>
<!-- p2&#45;&gt;e94379222379008 -->
<g id="edge23" class="edge">
<title>p2:f6&#45;&gt;e94379222379008:head</title>
<path fill="none" stroke="black" d="M448,-176.5C377.02,-176.5 329.14,-92.13 308.51,-46.69"/>
<polygon fill="black" stroke="black" points="311.79,-45.46 304.57,-37.7 305.38,-48.27 311.79,-45.46"/>
</g>
<!-- e94379222379040 -->
<g id="node30" class="node">
<title>e94379222379040</title>
<path fill="grey" stroke="black" d="M420,-0.5C420,-0.5 582,-0.5 582,-0.5 588,-0.5 594,-6.5 594,-12.5 594,-12.5 594,-24.5 594,-24.5 594,-30.5 588,-36.5 582,-36.5 582,-36.5 420,-36.5 420,-36.5 414,-36.5 408,-30.5 408,-24.5 408,-24.5 408,-12.5 408,-12.5 408,-6.5 414,-0.5 420,-0.5"/>
<text text-anchor="middle" x="501" y="-14.8" font-family="Times,serif" font-size="14.00">Out of heap : 0x55d660062a20</text>
</g>
<!-- p2&#45;&gt;e94379222379040 -->
<g id="edge25" class="edge">
<title>p2:f10&#45;&gt;e94379222379040:head</title>
<path fill="none" stroke="black" d="M511,-73C511,-64.5 509.81,-55.38 508.25,-47.07"/>
<polygon fill="black" stroke="black" points="511.72,-46.55 506.2,-37.5 504.87,-48.01 511.72,-46.55"/>
</g>
</g>
</svg>
