<?xml version="1.0" encoding="UTF-8" standalone="no"?>
<!DOCTYPE svg PUBLIC "-//W3C//DTD SVG 1.1//EN"
 "http://www.w3.org/Graphics/SVG/1.1/DTD/svg11.dtd">
<!-- Generated by graphviz version 2.43.0 (0)
 -->
<!-- Title: g Pages: 1 -->
<svg width="662pt" height="432pt"
 viewBox="0.00 0.00 662.00 432.00" xmlns="http://www.w3.org/2000/svg" xmlns:xlink="http://www.w3.org/1999/xlink">
<g id="graph0" class="graph" transform="scale(1 1) rotate(0) translate(4 428)">
<title>g</title>
<!-- entry_1 -->
<g id="node1" class="node">
<title>entry_1</title>
<polygon fill="yellow" stroke="black" points="329.5,-377.5 329.5,-423.5 402.5,-423.5 402.5,-377.5 329.5,-377.5"/>
<text text-anchor="middle" x="366" y="-408.3" font-family="Times,serif" font-size="14.00">val : f2 18</text>
<polyline fill="none" stroke="black" points="329.5,-400.5 402.5,-400.5 "/>
<text text-anchor="middle" x="366" y="-385.3" font-family="Times,serif" font-size="14.00">.</text>
</g>
<!-- p1 -->
<g id="node6" class="node">
<title>p1</title>
<path fill="lightblue" stroke="black" d="M312.5,-202.5C312.5,-202.5 419.5,-202.5 419.5,-202.5 425.5,-202.5 431.5,-208.5 431.5,-214.5 431.5,-214.5 431.5,-328.5 431.5,-328.5 431.5,-334.5 425.5,-340.5 419.5,-340.5 419.5,-340.5 312.5,-340.5 312.5,-340.5 306.5,-340.5 300.5,-334.5 300.5,-328.5 300.5,-328.5 300.5,-214.5 300.5,-214.5 300.5,-208.5 306.5,-202.5 312.5,-202.5"/>
<text text-anchor="middle" x="366" y="-325.3" font-family="Times,serif" font-size="14.00">Tag : 247</text>
<polyline fill="none" stroke="black" points="300.5,-317.5 431.5,-317.5 "/>
<text text-anchor="middle" x="366" y="-302.3" font-family="Times,serif" font-size="14.00">.</text>
<polyline fill="none" stroke="black" points="300.5,-294.5 431.5,-294.5 "/>
<text text-anchor="middle" x="366" y="-279.3" font-family="Times,serif" font-size="14.00">72057594037927939</text>
<polyline fill="none" stroke="black" points="300.5,-271.5 431.5,-271.5 "/>
<text text-anchor="middle" x="366" y="-256.3" font-family="Times,serif" font-size="14.00">.</text>
<polyline fill="none" stroke="black" points="300.5,-248.5 431.5,-248.5 "/>
<text text-anchor="middle" x="366" y="-233.3" font-family="Times,serif" font-size="14.00">18</text>
<polyline fill="none" stroke="black" points="300.5,-225.5 431.5,-225.5 "/>
<text text-anchor="middle" x="366" y="-210.3" font-family="Times,serif" font-size="14.00">.</text>
</g>
<!-- entry_1&#45;&gt;p1 -->
<g id="edge4" class="edge">
<title>entry_1&#45;&gt;p1:head</title>
<path fill="none" stroke="black" d="M366,-377.28C366,-369.34 366,-360.11 366,-351.06"/>
<polygon fill="black" stroke="black" points="369.5,-351 366,-341 362.5,-351 369.5,-351"/>
</g>
<!-- entry_0 -->
<g id="node2" class="node">
<title>entry_0</title>
<polygon fill="yellow" stroke="black" points="161,-377.5 161,-423.5 217,-423.5 217,-377.5 161,-377.5"/>
<text text-anchor="middle" x="189" y="-408.3" font-family="Times,serif" font-size="14.00">val : f2</text>
<polyline fill="none" stroke="black" points="161,-400.5 217,-400.5 "/>
<text text-anchor="middle" x="189" y="-385.3" font-family="Times,serif" font-size="14.00">.</text>
</g>
<!-- p2 -->
<g id="node3" class="node">
<title>p2</title>
<path fill="lightblue" stroke="black" d="M132,-73.5C132,-73.5 246,-73.5 246,-73.5 252,-73.5 258,-79.5 258,-85.5 258,-85.5 258,-153.5 258,-153.5 258,-159.5 252,-165.5 246,-165.5 246,-165.5 132,-165.5 132,-165.5 126,-165.5 120,-159.5 120,-153.5 120,-153.5 120,-85.5 120,-85.5 120,-79.5 126,-73.5 132,-73.5"/>
<text text-anchor="middle" x="189" y="-150.3" font-family="Times,serif" font-size="14.00">Tag : 247</text>
<polyline fill="none" stroke="black" points="120,-142.5 258,-142.5 "/>
<text text-anchor="middle" x="189" y="-127.3" font-family="Times,serif" font-size="14.00">.</text>
<polyline fill="none" stroke="black" points="120,-119.5 258,-119.5 "/>
<text text-anchor="middle" x="189" y="-104.3" font-family="Times,serif" font-size="14.00">108086391056891907</text>
<polyline fill="none" stroke="black" points="120,-96.5 258,-96.5 "/>
<text text-anchor="middle" x="189" y="-81.3" font-family="Times,serif" font-size="14.00">.</text>
</g>
<!-- entry_0&#45;&gt;p2 -->
<g id="edge1" class="edge">
<title>entry_0&#45;&gt;p2:head</title>
<path fill="none" stroke="black" d="M189,-377.29C189,-337.56 189,-251.46 189,-176.08"/>
<polygon fill="black" stroke="black" points="192.5,-176 189,-166 185.5,-176 192.5,-176"/>
</g>
<!-- e94514915463424 -->
<g id="node4" class="node">
<title>e94514915463424</title>
<path fill="grey" stroke="black" d="M12,-0.5C12,-0.5 168,-0.5 168,-0.5 174,-0.5 180,-6.5 180,-12.5 180,-12.5 180,-24.5 180,-24.5 180,-30.5 174,-36.5 168,-36.5 168,-36.5 12,-36.5 12,-36.5 6,-36.5 0,-30.5 0,-24.5 0,-24.5 0,-12.5 0,-12.5 0,-6.5 6,-0.5 12,-0.5"/>
<text text-anchor="middle" x="90" y="-14.8" font-family="Times,serif" font-size="14.00">Out of heap : 0x55f5f7f65100</text>
</g>
<!-- p2&#45;&gt;e94514915463424 -->
<g id="edge2" class="edge">
<title>p2:f0&#45;&gt;e94514915463424:head</title>
<path fill="none" stroke="black" d="M119,-131.5C84.09,-131.5 83.04,-80.28 86.08,-46.81"/>
<polygon fill="black" stroke="black" points="89.59,-46.97 87.18,-36.66 82.63,-46.22 89.59,-46.97"/>
</g>
<!-- e94514915464768 -->
<g id="node5" class="node">
<title>e94514915464768</title>
<path fill="grey" stroke="black" d="M210,-0.5C210,-0.5 366,-0.5 366,-0.5 372,-0.5 378,-6.5 378,-12.5 378,-12.5 378,-24.5 378,-24.5 378,-30.5 372,-36.5 366,-36.5 366,-36.5 210,-36.5 210,-36.5 204,-36.5 198,-30.5 198,-24.5 198,-24.5 198,-12.5 198,-12.5 198,-6.5 204,-0.5 210,-0.5"/>
<text text-anchor="middle" x="288" y="-14.8" font-family="Times,serif" font-size="14.00">Out of heap : 0x55f5f7f65640</text>
</g>
<!-- p2&#45;&gt;e94514915464768 -->
<g id="edge3" class="edge">
<title>p2:f2&#45;&gt;e94514915464768:head</title>
<path fill="none" stroke="black" d="M259,-84.5C261.22,-84.5 269.87,-64.26 277.15,-46.2"/>
<polygon fill="black" stroke="black" points="280.55,-47.12 281.01,-36.53 274.05,-44.53 280.55,-47.12"/>
</g>
<!-- p1&#45;&gt;p2 -->
<g id="edge7" class="edge">
<title>p1:f4&#45;&gt;p2:head</title>
<path fill="none" stroke="black" d="M299,-213.5C298.62,-213.5 275.9,-179.27 264.87,-162.95"/>
<polygon fill="black" stroke="black" points="267.58,-160.72 259,-154.5 261.83,-164.71 267.58,-160.72"/>
</g>
<!-- e94514915463552 -->
<g id="node7" class="node">
<title>e94514915463552</title>
<path fill="grey" stroke="black" d="M288,-101.5C288,-101.5 444,-101.5 444,-101.5 450,-101.5 456,-107.5 456,-113.5 456,-113.5 456,-125.5 456,-125.5 456,-131.5 450,-137.5 444,-137.5 444,-137.5 288,-137.5 288,-137.5 282,-137.5 276,-131.5 276,-125.5 276,-125.5 276,-113.5 276,-113.5 276,-107.5 282,-101.5 288,-101.5"/>
<text text-anchor="middle" x="366" y="-115.8" font-family="Times,serif" font-size="14.00">Out of heap : 0x55f5f7f65180</text>
</g>
<!-- p1&#45;&gt;e94514915463552 -->
<g id="edge5" class="edge">
<title>p1:f0&#45;&gt;e94514915463552:head</title>
<path fill="none" stroke="black" d="M433,-306.5C479.45,-306.5 447.58,-245.75 432,-202 424.24,-180.22 408.13,-159.89 393.76,-144.86"/>
<polygon fill="black" stroke="black" points="395.99,-142.14 386.47,-137.51 391.02,-147.07 395.99,-142.14"/>
</g>
<!-- e94514915463520 -->
<g id="node8" class="node">
<title>e94514915463520</title>
<path fill="grey" stroke="black" d="M486,-101.5C486,-101.5 642,-101.5 642,-101.5 648,-101.5 654,-107.5 654,-113.5 654,-113.5 654,-125.5 654,-125.5 654,-131.5 648,-137.5 642,-137.5 642,-137.5 486,-137.5 486,-137.5 480,-137.5 474,-131.5 474,-125.5 474,-125.5 474,-113.5 474,-113.5 474,-107.5 480,-101.5 486,-101.5"/>
<text text-anchor="middle" x="564" y="-115.8" font-family="Times,serif" font-size="14.00">Out of heap : 0x55f5f7f65160</text>
</g>
<!-- p1&#45;&gt;e94514915463520 -->
<g id="edge6" class="edge">
<title>p1:f2&#45;&gt;e94514915463520:head</title>
<path fill="none" stroke="black" d="M433,-259.5C494.04,-259.5 534.85,-187.66 553.09,-146.91"/>
<polygon fill="black" stroke="black" points="556.4,-148.08 557.14,-137.52 549.97,-145.31 556.4,-148.08"/>
</g>
</g>
</svg>
