<?xml version="1.0" encoding="UTF-8" standalone="no"?>
<!DOCTYPE svg PUBLIC "-//W3C//DTD SVG 1.1//EN"
 "http://www.w3.org/Graphics/SVG/1.1/DTD/svg11.dtd">
<!-- Generated by graphviz version 2.40.1 (20161225.0304)
 -->
<!-- Title: g Pages: 1 -->
<svg width="1142pt" height="465pt"
 viewBox="0.00 0.00 1142.00 465.00" xmlns="http://www.w3.org/2000/svg" xmlns:xlink="http://www.w3.org/1999/xlink">
<g id="graph0" class="graph" transform="scale(1 1) rotate(0) translate(4 461)">
<title>g</title>
<polygon fill="#ffffff" stroke="transparent" points="-4,4 -4,-461 1138,-461 1138,4 -4,4"/>
<!-- entry_0 -->
<g id="node1" class="node">
<title>entry_0</title>
<polygon fill="#ffff00" stroke="#000000" points="0,-410.5 0,-456.5 107,-456.5 107,-410.5 0,-410.5"/>
<text text-anchor="middle" x="53.5" y="-441.3" font-family="Times,serif" font-size="14.00" fill="#000000">val : [|4;5;6|]</text>
<polyline fill="none" stroke="#000000" points="0,-433.5 107,-433.5 "/>
<text text-anchor="middle" x="53.5" y="-418.3" font-family="Times,serif" font-size="14.00" fill="#000000">.</text>
</g>
<!-- p15 -->
<g id="node6" class="node">
<title>p15</title>
<path fill="#add8e6" stroke="#000000" d="M33,-270C33,-270 74,-270 74,-270 80,-270 86,-276 86,-282 86,-282 86,-350 86,-350 86,-356 80,-362 74,-362 74,-362 33,-362 33,-362 27,-362 21,-356 21,-350 21,-350 21,-282 21,-282 21,-276 27,-270 33,-270"/>
<text text-anchor="middle" x="53.5" y="-346.8" font-family="Times,serif" font-size="14.00" fill="#000000">Tag : 0</text>
<polyline fill="none" stroke="#000000" points="21,-339 86,-339 "/>
<text text-anchor="middle" x="53.5" y="-323.8" font-family="Times,serif" font-size="14.00" fill="#000000">4</text>
<polyline fill="none" stroke="#000000" points="21,-316 86,-316 "/>
<text text-anchor="middle" x="53.5" y="-300.8" font-family="Times,serif" font-size="14.00" fill="#000000">5</text>
<polyline fill="none" stroke="#000000" points="21,-293 86,-293 "/>
<text text-anchor="middle" x="53.5" y="-277.8" font-family="Times,serif" font-size="14.00" fill="#000000">6</text>
</g>
<!-- entry_0&#45;&gt;p15 -->
<g id="edge1" class="edge">
<title>entry_0&#45;&gt;p15:head</title>
<path fill="none" stroke="#000000" d="M53.5,-410.3154C53.5,-399.1652 53.5,-385.3521 53.5,-372.0348"/>
<polygon fill="#000000" stroke="#000000" points="57.0001,-372 53.5,-362 50.0001,-372 57.0001,-372"/>
</g>
<!-- entry_1 -->
<g id="node2" class="node">
<title>entry_1</title>
<polygon fill="#ffff00" stroke="#000000" points="125.5,-410.5 125.5,-456.5 299.5,-456.5 299.5,-410.5 125.5,-410.5"/>
<text text-anchor="middle" x="212.5" y="-441.3" font-family="Times,serif" font-size="14.00" fill="#000000">val : [|1.0;2.0;3.0;4.0|]</text>
<polyline fill="none" stroke="#000000" points="125.5,-433.5 299.5,-433.5 "/>
<text text-anchor="middle" x="212.5" y="-418.3" font-family="Times,serif" font-size="14.00" fill="#000000">.</text>
</g>
<!-- p14 -->
<g id="node7" class="node">
<title>p14</title>
<path fill="#add8e6" stroke="#000000" d="M182.5,-258.5C182.5,-258.5 242.5,-258.5 242.5,-258.5 248.5,-258.5 254.5,-264.5 254.5,-270.5 254.5,-270.5 254.5,-361.5 254.5,-361.5 254.5,-367.5 248.5,-373.5 242.5,-373.5 242.5,-373.5 182.5,-373.5 182.5,-373.5 176.5,-373.5 170.5,-367.5 170.5,-361.5 170.5,-361.5 170.5,-270.5 170.5,-270.5 170.5,-264.5 176.5,-258.5 182.5,-258.5"/>
<text text-anchor="middle" x="212.5" y="-358.3" font-family="Times,serif" font-size="14.00" fill="#000000">Tag : 254</text>
<polyline fill="none" stroke="#000000" points="170.5,-350.5 254.5,-350.5 "/>
<text text-anchor="middle" x="212.5" y="-335.3" font-family="Times,serif" font-size="14.00" fill="#000000">1.000000</text>
<polyline fill="none" stroke="#000000" points="170.5,-327.5 254.5,-327.5 "/>
<text text-anchor="middle" x="212.5" y="-312.3" font-family="Times,serif" font-size="14.00" fill="#000000">2.000000</text>
<polyline fill="none" stroke="#000000" points="170.5,-304.5 254.5,-304.5 "/>
<text text-anchor="middle" x="212.5" y="-289.3" font-family="Times,serif" font-size="14.00" fill="#000000">3.000000</text>
<polyline fill="none" stroke="#000000" points="170.5,-281.5 254.5,-281.5 "/>
<text text-anchor="middle" x="212.5" y="-266.3" font-family="Times,serif" font-size="14.00" fill="#000000">4.000000</text>
</g>
<!-- entry_1&#45;&gt;p14 -->
<g id="edge2" class="edge">
<title>entry_1&#45;&gt;p14:head</title>
<path fill="none" stroke="#000000" d="M212.5,-410.3297C212.5,-402.3324 212.5,-393.1035 212.5,-384.0585"/>
<polygon fill="#000000" stroke="#000000" points="216.0001,-384 212.5,-374 209.0001,-384 216.0001,-384"/>
</g>
<!-- entry_2 -->
<g id="node3" class="node">
<title>entry_2</title>
<polygon fill="#ffff00" stroke="#000000" points="318,-410.5 318,-456.5 573,-456.5 573,-410.5 318,-410.5"/>
<text text-anchor="middle" x="445.5" y="-441.3" font-family="Times,serif" font-size="14.00" fill="#000000">val : [| (5,8.0); (42, 1.0); (0, 1.5) |]</text>
<polyline fill="none" stroke="#000000" points="318,-433.5 573,-433.5 "/>
<text text-anchor="middle" x="445.5" y="-418.3" font-family="Times,serif" font-size="14.00" fill="#000000">.</text>
</g>
<!-- p7 -->
<g id="node8" class="node">
<title>p7</title>
<path fill="#add8e6" stroke="#000000" d="M425,-270C425,-270 466,-270 466,-270 472,-270 478,-276 478,-282 478,-282 478,-350 478,-350 478,-356 472,-362 466,-362 466,-362 425,-362 425,-362 419,-362 413,-356 413,-350 413,-350 413,-282 413,-282 413,-276 419,-270 425,-270"/>
<text text-anchor="middle" x="445.5" y="-346.8" font-family="Times,serif" font-size="14.00" fill="#000000">Tag : 0</text>
<polyline fill="none" stroke="#000000" points="413,-339 478,-339 "/>
<text text-anchor="middle" x="445.5" y="-323.8" font-family="Times,serif" font-size="14.00" fill="#000000">.</text>
<polyline fill="none" stroke="#000000" points="413,-316 478,-316 "/>
<text text-anchor="middle" x="445.5" y="-300.8" font-family="Times,serif" font-size="14.00" fill="#000000">.</text>
<polyline fill="none" stroke="#000000" points="413,-293 478,-293 "/>
<text text-anchor="middle" x="445.5" y="-277.8" font-family="Times,serif" font-size="14.00" fill="#000000">.</text>
</g>
<!-- entry_2&#45;&gt;p7 -->
<g id="edge3" class="edge">
<title>entry_2&#45;&gt;p7:head</title>
<path fill="none" stroke="#000000" d="M445.5,-410.3154C445.5,-399.1652 445.5,-385.3521 445.5,-372.0348"/>
<polygon fill="#000000" stroke="#000000" points="449.0001,-372 445.5,-362 442.0001,-372 449.0001,-372"/>
</g>
<!-- entry_3 -->
<g id="node4" class="node">
<title>entry_3</title>
<polygon fill="#ffff00" stroke="#000000" points="596.5,-410.5 596.5,-456.5 834.5,-456.5 834.5,-410.5 596.5,-410.5"/>
<text text-anchor="middle" x="715.5" y="-441.3" font-family="Times,serif" font-size="14.00" fill="#000000">val : Array.make_matrix 3 5 42</text>
<polyline fill="none" stroke="#000000" points="596.5,-433.5 834.5,-433.5 "/>
<text text-anchor="middle" x="715.5" y="-418.3" font-family="Times,serif" font-size="14.00" fill="#000000">.</text>
</g>
<!-- p3 -->
<g id="node15" class="node">
<title>p3</title>
<path fill="#add8e6" stroke="#000000" d="M695,-270C695,-270 736,-270 736,-270 742,-270 748,-276 748,-282 748,-282 748,-350 748,-350 748,-356 742,-362 736,-362 736,-362 695,-362 695,-362 689,-362 683,-356 683,-350 683,-350 683,-282 683,-282 683,-276 689,-270 695,-270"/>
<text text-anchor="middle" x="715.5" y="-346.8" font-family="Times,serif" font-size="14.00" fill="#000000">Tag : 0</text>
<polyline fill="none" stroke="#000000" points="683,-339 748,-339 "/>
<text text-anchor="middle" x="715.5" y="-323.8" font-family="Times,serif" font-size="14.00" fill="#000000">.</text>
<polyline fill="none" stroke="#000000" points="683,-316 748,-316 "/>
<text text-anchor="middle" x="715.5" y="-300.8" font-family="Times,serif" font-size="14.00" fill="#000000">.</text>
<polyline fill="none" stroke="#000000" points="683,-293 748,-293 "/>
<text text-anchor="middle" x="715.5" y="-277.8" font-family="Times,serif" font-size="14.00" fill="#000000">.</text>
</g>
<!-- entry_3&#45;&gt;p3 -->
<g id="edge10" class="edge">
<title>entry_3&#45;&gt;p3:head</title>
<path fill="none" stroke="#000000" d="M715.5,-410.3154C715.5,-399.1652 715.5,-385.3521 715.5,-372.0348"/>
<polygon fill="#000000" stroke="#000000" points="719.0001,-372 715.5,-362 712.0001,-372 719.0001,-372"/>
</g>
<!-- entry_4 -->
<g id="node5" class="node">
<title>entry_4</title>
<polygon fill="#ffff00" stroke="#000000" points="853,-410.5 853,-456.5 1134,-456.5 1134,-410.5 853,-410.5"/>
<text text-anchor="middle" x="993.5" y="-441.3" font-family="Times,serif" font-size="14.00" fill="#000000">val : Array.make 3 (Array.make 5 42)</text>
<polyline fill="none" stroke="#000000" points="853,-433.5 1134,-433.5 "/>
<text text-anchor="middle" x="993.5" y="-418.3" font-family="Times,serif" font-size="14.00" fill="#000000">.</text>
</g>
<!-- p1 -->
<g id="node19" class="node">
<title>p1</title>
<path fill="#add8e6" stroke="#000000" d="M973,-270C973,-270 1014,-270 1014,-270 1020,-270 1026,-276 1026,-282 1026,-282 1026,-350 1026,-350 1026,-356 1020,-362 1014,-362 1014,-362 973,-362 973,-362 967,-362 961,-356 961,-350 961,-350 961,-282 961,-282 961,-276 967,-270 973,-270"/>
<text text-anchor="middle" x="993.5" y="-346.8" font-family="Times,serif" font-size="14.00" fill="#000000">Tag : 0</text>
<polyline fill="none" stroke="#000000" points="961,-339 1026,-339 "/>
<text text-anchor="middle" x="993.5" y="-323.8" font-family="Times,serif" font-size="14.00" fill="#000000">.</text>
<polyline fill="none" stroke="#000000" points="961,-316 1026,-316 "/>
<text text-anchor="middle" x="993.5" y="-300.8" font-family="Times,serif" font-size="14.00" fill="#000000">.</text>
<polyline fill="none" stroke="#000000" points="961,-293 1026,-293 "/>
<text text-anchor="middle" x="993.5" y="-277.8" font-family="Times,serif" font-size="14.00" fill="#000000">.</text>
</g>
<!-- entry_4&#45;&gt;p1 -->
<g id="edge14" class="edge">
<title>entry_4&#45;&gt;p1:head</title>
<path fill="none" stroke="#000000" d="M993.5,-410.3154C993.5,-399.1652 993.5,-385.3521 993.5,-372.0348"/>
<polygon fill="#000000" stroke="#000000" points="997.0001,-372 993.5,-362 990.0001,-372 997.0001,-372"/>
</g>
<!-- p8 -->
<g id="node9" class="node">
<title>p8</title>
<path fill="#add8e6" stroke="#000000" d="M333,-118C333,-118 374,-118 374,-118 380,-118 386,-124 386,-130 386,-130 386,-175 386,-175 386,-181 380,-187 374,-187 374,-187 333,-187 333,-187 327,-187 321,-181 321,-175 321,-175 321,-130 321,-130 321,-124 327,-118 333,-118"/>
<text text-anchor="middle" x="353.5" y="-171.8" font-family="Times,serif" font-size="14.00" fill="#000000">Tag : 0</text>
<polyline fill="none" stroke="#000000" points="321,-164 386,-164 "/>
<text text-anchor="middle" x="353.5" y="-148.8" font-family="Times,serif" font-size="14.00" fill="#000000">5</text>
<polyline fill="none" stroke="#000000" points="321,-141 386,-141 "/>
<text text-anchor="middle" x="353.5" y="-125.8" font-family="Times,serif" font-size="14.00" fill="#000000">.</text>
</g>
<!-- p7&#45;&gt;p8 -->
<g id="edge4" class="edge">
<title>p7:f0&#45;&gt;p8:head</title>
<path fill="none" stroke="#000000" d="M412.5,-328C381.8822,-328 412.4478,-207.035 395.2139,-180.5739"/>
<polygon fill="#000000" stroke="#000000" points="396.9029,-177.5074 386.5,-175.5 393.3805,-183.5566 396.9029,-177.5074"/>
</g>
<!-- p10 -->
<g id="node10" class="node">
<title>p10</title>
<path fill="#add8e6" stroke="#000000" d="M425,-118C425,-118 466,-118 466,-118 472,-118 478,-124 478,-130 478,-130 478,-175 478,-175 478,-181 472,-187 466,-187 466,-187 425,-187 425,-187 419,-187 413,-181 413,-175 413,-175 413,-130 413,-130 413,-124 419,-118 425,-118"/>
<text text-anchor="middle" x="445.5" y="-171.8" font-family="Times,serif" font-size="14.00" fill="#000000">Tag : 0</text>
<polyline fill="none" stroke="#000000" points="413,-164 478,-164 "/>
<text text-anchor="middle" x="445.5" y="-148.8" font-family="Times,serif" font-size="14.00" fill="#000000">42</text>
<polyline fill="none" stroke="#000000" points="413,-141 478,-141 "/>
<text text-anchor="middle" x="445.5" y="-125.8" font-family="Times,serif" font-size="14.00" fill="#000000">.</text>
</g>
<!-- p7&#45;&gt;p10 -->
<g id="edge5" class="edge">
<title>p7:f1&#45;&gt;p10:head</title>
<path fill="none" stroke="#000000" d="M478.5,-304C493.8333,-304 481.4155,-284.5536 478.5,-269.5 471.7307,-234.5475 450.1282,-227.865 446.1372,-197.6797"/>
<polygon fill="#000000" stroke="#000000" points="449.618,-197.2618 445.5,-187.5 442.6317,-197.6992 449.618,-197.2618"/>
</g>
<!-- p12 -->
<g id="node11" class="node">
<title>p12</title>
<path fill="#add8e6" stroke="#000000" d="M521,-118C521,-118 562,-118 562,-118 568,-118 574,-124 574,-130 574,-130 574,-175 574,-175 574,-181 568,-187 562,-187 562,-187 521,-187 521,-187 515,-187 509,-181 509,-175 509,-175 509,-130 509,-130 509,-124 515,-118 521,-118"/>
<text text-anchor="middle" x="541.5" y="-171.8" font-family="Times,serif" font-size="14.00" fill="#000000">Tag : 0</text>
<polyline fill="none" stroke="#000000" points="509,-164 574,-164 "/>
<text text-anchor="middle" x="541.5" y="-148.8" font-family="Times,serif" font-size="14.00" fill="#000000">0</text>
<polyline fill="none" stroke="#000000" points="509,-141 574,-141 "/>
<text text-anchor="middle" x="541.5" y="-125.8" font-family="Times,serif" font-size="14.00" fill="#000000">.</text>
</g>
<!-- p7&#45;&gt;p12 -->
<g id="edge6" class="edge">
<title>p7:f2&#45;&gt;p12:head</title>
<path fill="none" stroke="#000000" d="M478.5,-281C523.0585,-281 470.4945,-192.8537 498.3601,-177.7035"/>
<polygon fill="#000000" stroke="#000000" points="499.4713,-181.0438 508.5,-175.5 497.9848,-174.2035 499.4713,-181.0438"/>
</g>
<!-- p9 -->
<g id="node14" class="node">
<title>p9</title>
<path fill="#add8e6" stroke="#000000" d="M313.5,-.5C313.5,-.5 373.5,-.5 373.5,-.5 379.5,-.5 385.5,-6.5 385.5,-12.5 385.5,-12.5 385.5,-34.5 385.5,-34.5 385.5,-40.5 379.5,-46.5 373.5,-46.5 373.5,-46.5 313.5,-46.5 313.5,-46.5 307.5,-46.5 301.5,-40.5 301.5,-34.5 301.5,-34.5 301.5,-12.5 301.5,-12.5 301.5,-6.5 307.5,-.5 313.5,-.5"/>
<text text-anchor="middle" x="343.5" y="-31.3" font-family="Times,serif" font-size="14.00" fill="#000000">Tag : 253</text>
<polyline fill="none" stroke="#000000" points="301.5,-23.5 385.5,-23.5 "/>
<text text-anchor="middle" x="343.5" y="-8.3" font-family="Times,serif" font-size="14.00" fill="#000000">8.000000</text>
</g>
<!-- p8&#45;&gt;p9 -->
<g id="edge9" class="edge">
<title>p8:f1&#45;&gt;p9:head</title>
<path fill="none" stroke="#000000" d="M353.5,-117.5C353.5,-89.3674 345.7064,-80.4078 343.8798,-56.7689"/>
<polygon fill="#000000" stroke="#000000" points="347.3673,-56.3638 343.5,-46.5 340.3721,-56.6226 347.3673,-56.3638"/>
</g>
<!-- p11 -->
<g id="node13" class="node">
<title>p11</title>
<path fill="#add8e6" stroke="#000000" d="M415.5,-.5C415.5,-.5 475.5,-.5 475.5,-.5 481.5,-.5 487.5,-6.5 487.5,-12.5 487.5,-12.5 487.5,-34.5 487.5,-34.5 487.5,-40.5 481.5,-46.5 475.5,-46.5 475.5,-46.5 415.5,-46.5 415.5,-46.5 409.5,-46.5 403.5,-40.5 403.5,-34.5 403.5,-34.5 403.5,-12.5 403.5,-12.5 403.5,-6.5 409.5,-.5 415.5,-.5"/>
<text text-anchor="middle" x="445.5" y="-31.3" font-family="Times,serif" font-size="14.00" fill="#000000">Tag : 253</text>
<polyline fill="none" stroke="#000000" points="403.5,-23.5 487.5,-23.5 "/>
<text text-anchor="middle" x="445.5" y="-8.3" font-family="Times,serif" font-size="14.00" fill="#000000">1.000000</text>
</g>
<!-- p10&#45;&gt;p11 -->
<g id="edge8" class="edge">
<title>p10:f1&#45;&gt;p11:head</title>
<path fill="none" stroke="#000000" d="M445.5,-117.5C445.5,-89.6424 445.5,-80.2295 445.5,-56.6949"/>
<polygon fill="#000000" stroke="#000000" points="449.0001,-56.5 445.5,-46.5 442.0001,-56.5 449.0001,-56.5"/>
</g>
<!-- p13 -->
<g id="node12" class="node">
<title>p13</title>
<path fill="#add8e6" stroke="#000000" d="M517.5,-.5C517.5,-.5 577.5,-.5 577.5,-.5 583.5,-.5 589.5,-6.5 589.5,-12.5 589.5,-12.5 589.5,-34.5 589.5,-34.5 589.5,-40.5 583.5,-46.5 577.5,-46.5 577.5,-46.5 517.5,-46.5 517.5,-46.5 511.5,-46.5 505.5,-40.5 505.5,-34.5 505.5,-34.5 505.5,-12.5 505.5,-12.5 505.5,-6.5 511.5,-.5 517.5,-.5"/>
<text text-anchor="middle" x="547.5" y="-31.3" font-family="Times,serif" font-size="14.00" fill="#000000">Tag : 253</text>
<polyline fill="none" stroke="#000000" points="505.5,-23.5 589.5,-23.5 "/>
<text text-anchor="middle" x="547.5" y="-8.3" font-family="Times,serif" font-size="14.00" fill="#000000">1.500000</text>
</g>
<!-- p12&#45;&gt;p13 -->
<g id="edge7" class="edge">
<title>p12:f1&#45;&gt;p13:head</title>
<path fill="none" stroke="#000000" d="M541.5,-117.5C541.5,-89.5431 546.1761,-80.2939 547.2721,-56.7216"/>
<polygon fill="#000000" stroke="#000000" points="550.7762,-56.5756 547.5,-46.5 543.7779,-56.4195 550.7762,-56.5756"/>
</g>
<!-- p4 -->
<g id="node16" class="node">
<title>p4</title>
<path fill="#add8e6" stroke="#000000" d="M612,-83.5C612,-83.5 653,-83.5 653,-83.5 659,-83.5 665,-89.5 665,-95.5 665,-95.5 665,-209.5 665,-209.5 665,-215.5 659,-221.5 653,-221.5 653,-221.5 612,-221.5 612,-221.5 606,-221.5 600,-215.5 600,-209.5 600,-209.5 600,-95.5 600,-95.5 600,-89.5 606,-83.5 612,-83.5"/>
<text text-anchor="middle" x="632.5" y="-206.3" font-family="Times,serif" font-size="14.00" fill="#000000">Tag : 0</text>
<polyline fill="none" stroke="#000000" points="600,-198.5 665,-198.5 "/>
<text text-anchor="middle" x="632.5" y="-183.3" font-family="Times,serif" font-size="14.00" fill="#000000">42</text>
<polyline fill="none" stroke="#000000" points="600,-175.5 665,-175.5 "/>
<text text-anchor="middle" x="632.5" y="-160.3" font-family="Times,serif" font-size="14.00" fill="#000000">42</text>
<polyline fill="none" stroke="#000000" points="600,-152.5 665,-152.5 "/>
<text text-anchor="middle" x="632.5" y="-137.3" font-family="Times,serif" font-size="14.00" fill="#000000">42</text>
<polyline fill="none" stroke="#000000" points="600,-129.5 665,-129.5 "/>
<text text-anchor="middle" x="632.5" y="-114.3" font-family="Times,serif" font-size="14.00" fill="#000000">42</text>
<polyline fill="none" stroke="#000000" points="600,-106.5 665,-106.5 "/>
<text text-anchor="middle" x="632.5" y="-91.3" font-family="Times,serif" font-size="14.00" fill="#000000">42</text>
</g>
<!-- p3&#45;&gt;p4 -->
<g id="edge11" class="edge">
<title>p3:f0&#45;&gt;p4:head</title>
<path fill="none" stroke="#000000" d="M682.5,-328C671.5243,-328 676.1763,-246.6576 670.4505,-219.3316"/>
<polygon fill="#000000" stroke="#000000" points="673.4428,-217.5116 665.5,-210.5 667.3366,-220.9344 673.4428,-217.5116"/>
</g>
<!-- p5 -->
<g id="node17" class="node">
<title>p5</title>
<path fill="#add8e6" stroke="#000000" d="M695,-83.5C695,-83.5 736,-83.5 736,-83.5 742,-83.5 748,-89.5 748,-95.5 748,-95.5 748,-209.5 748,-209.5 748,-215.5 742,-221.5 736,-221.5 736,-221.5 695,-221.5 695,-221.5 689,-221.5 683,-215.5 683,-209.5 683,-209.5 683,-95.5 683,-95.5 683,-89.5 689,-83.5 695,-83.5"/>
<text text-anchor="middle" x="715.5" y="-206.3" font-family="Times,serif" font-size="14.00" fill="#000000">Tag : 0</text>
<polyline fill="none" stroke="#000000" points="683,-198.5 748,-198.5 "/>
<text text-anchor="middle" x="715.5" y="-183.3" font-family="Times,serif" font-size="14.00" fill="#000000">42</text>
<polyline fill="none" stroke="#000000" points="683,-175.5 748,-175.5 "/>
<text text-anchor="middle" x="715.5" y="-160.3" font-family="Times,serif" font-size="14.00" fill="#000000">42</text>
<polyline fill="none" stroke="#000000" points="683,-152.5 748,-152.5 "/>
<text text-anchor="middle" x="715.5" y="-137.3" font-family="Times,serif" font-size="14.00" fill="#000000">42</text>
<polyline fill="none" stroke="#000000" points="683,-129.5 748,-129.5 "/>
<text text-anchor="middle" x="715.5" y="-114.3" font-family="Times,serif" font-size="14.00" fill="#000000">42</text>
<polyline fill="none" stroke="#000000" points="683,-106.5 748,-106.5 "/>
<text text-anchor="middle" x="715.5" y="-91.3" font-family="Times,serif" font-size="14.00" fill="#000000">42</text>
</g>
<!-- p3&#45;&gt;p5 -->
<g id="edge12" class="edge">
<title>p3:f1&#45;&gt;p5:head</title>
<path fill="none" stroke="#000000" d="M748.5,-304C763.8333,-304 753.0481,-284.1433 748.5,-269.5 742.0209,-248.6395 722.9821,-247.2397 717.1907,-231.7608"/>
<polygon fill="#000000" stroke="#000000" points="720.5793,-230.7979 715.5,-221.5 713.6724,-231.936 720.5793,-230.7979"/>
</g>
<!-- p6 -->
<g id="node18" class="node">
<title>p6</title>
<path fill="#add8e6" stroke="#000000" d="M778,-83.5C778,-83.5 819,-83.5 819,-83.5 825,-83.5 831,-89.5 831,-95.5 831,-95.5 831,-209.5 831,-209.5 831,-215.5 825,-221.5 819,-221.5 819,-221.5 778,-221.5 778,-221.5 772,-221.5 766,-215.5 766,-209.5 766,-209.5 766,-95.5 766,-95.5 766,-89.5 772,-83.5 778,-83.5"/>
<text text-anchor="middle" x="798.5" y="-206.3" font-family="Times,serif" font-size="14.00" fill="#000000">Tag : 0</text>
<polyline fill="none" stroke="#000000" points="766,-198.5 831,-198.5 "/>
<text text-anchor="middle" x="798.5" y="-183.3" font-family="Times,serif" font-size="14.00" fill="#000000">42</text>
<polyline fill="none" stroke="#000000" points="766,-175.5 831,-175.5 "/>
<text text-anchor="middle" x="798.5" y="-160.3" font-family="Times,serif" font-size="14.00" fill="#000000">42</text>
<polyline fill="none" stroke="#000000" points="766,-152.5 831,-152.5 "/>
<text text-anchor="middle" x="798.5" y="-137.3" font-family="Times,serif" font-size="14.00" fill="#000000">42</text>
<polyline fill="none" stroke="#000000" points="766,-129.5 831,-129.5 "/>
<text text-anchor="middle" x="798.5" y="-114.3" font-family="Times,serif" font-size="14.00" fill="#000000">42</text>
<polyline fill="none" stroke="#000000" points="766,-106.5 831,-106.5 "/>
<text text-anchor="middle" x="798.5" y="-91.3" font-family="Times,serif" font-size="14.00" fill="#000000">42</text>
</g>
<!-- p3&#45;&gt;p6 -->
<g id="edge13" class="edge">
<title>p3:f2&#45;&gt;p6:head</title>
<path fill="none" stroke="#000000" d="M748.5,-281C761.2793,-281 754.3475,-236.6696 758.9651,-218.3141"/>
<polygon fill="#000000" stroke="#000000" points="761.7696,-220.4164 765.5,-210.5 756.3999,-215.9257 761.7696,-220.4164"/>
</g>
<!-- p2 -->
<g id="node20" class="node">
<title>p2</title>
<path fill="#add8e6" stroke="#000000" d="M973,-83.5C973,-83.5 1014,-83.5 1014,-83.5 1020,-83.5 1026,-89.5 1026,-95.5 1026,-95.5 1026,-209.5 1026,-209.5 1026,-215.5 1020,-221.5 1014,-221.5 1014,-221.5 973,-221.5 973,-221.5 967,-221.5 961,-215.5 961,-209.5 961,-209.5 961,-95.5 961,-95.5 961,-89.5 967,-83.5 973,-83.5"/>
<text text-anchor="middle" x="993.5" y="-206.3" font-family="Times,serif" font-size="14.00" fill="#000000">Tag : 0</text>
<polyline fill="none" stroke="#000000" points="961,-198.5 1026,-198.5 "/>
<text text-anchor="middle" x="993.5" y="-183.3" font-family="Times,serif" font-size="14.00" fill="#000000">42</text>
<polyline fill="none" stroke="#000000" points="961,-175.5 1026,-175.5 "/>
<text text-anchor="middle" x="993.5" y="-160.3" font-family="Times,serif" font-size="14.00" fill="#000000">42</text>
<polyline fill="none" stroke="#000000" points="961,-152.5 1026,-152.5 "/>
<text text-anchor="middle" x="993.5" y="-137.3" font-family="Times,serif" font-size="14.00" fill="#000000">42</text>
<polyline fill="none" stroke="#000000" points="961,-129.5 1026,-129.5 "/>
<text text-anchor="middle" x="993.5" y="-114.3" font-family="Times,serif" font-size="14.00" fill="#000000">42</text>
<polyline fill="none" stroke="#000000" points="961,-106.5 1026,-106.5 "/>
<text text-anchor="middle" x="993.5" y="-91.3" font-family="Times,serif" font-size="14.00" fill="#000000">42</text>
</g>
<!-- p1&#45;&gt;p2 -->
<g id="edge15" class="edge">
<title>p1:f0&#45;&gt;p2:head</title>
<path fill="none" stroke="#000000" d="M1026.5,-328C1052.5,-328 1034.2119,-294.3299 1026.5,-269.5 1020.0209,-248.6395 1000.9821,-247.2397 995.1907,-231.7608"/>
<polygon fill="#000000" stroke="#000000" points="998.5793,-230.7979 993.5,-221.5 991.6724,-231.936 998.5793,-230.7979"/>
</g>
<!-- p1&#45;&gt;p2 -->
<g id="edge16" class="edge">
<title>p1:f1&#45;&gt;p2:head</title>
<path fill="none" stroke="#000000" d="M1026.5,-304C1041.8333,-304 1031.0481,-284.1433 1026.5,-269.5 1020.0209,-248.6395 1000.9821,-247.2397 995.1907,-231.7608"/>
<polygon fill="#000000" stroke="#000000" points="998.5793,-230.7979 993.5,-221.5 991.6724,-231.936 998.5793,-230.7979"/>
</g>
<!-- p1&#45;&gt;p2 -->
<g id="edge17" class="edge">
<title>p1:f2&#45;&gt;p2:head</title>
<path fill="none" stroke="#000000" d="M993.5,-270C993.5,-252.3177 993.5,-245.5142 993.5,-231.7414"/>
<polygon fill="#000000" stroke="#000000" points="997.0001,-231.5 993.5,-221.5 990.0001,-231.5 997.0001,-231.5"/>
</g>
</g>
</svg>
