<?xml version="1.0" encoding="UTF-8" standalone="no"?>
<!DOCTYPE svg PUBLIC "-//W3C//DTD SVG 1.1//EN"
 "http://www.w3.org/Graphics/SVG/1.1/DTD/svg11.dtd">
<!-- Generated by graphviz version 2.38.0 (20140413.2041)
 -->
<!-- Title: g Pages: 1 -->
<svg width="759pt" height="382pt"
 viewBox="0.00 0.00 759.00 382.00" xmlns="http://www.w3.org/2000/svg" xmlns:xlink="http://www.w3.org/1999/xlink">
<g id="graph0" class="graph" transform="scale(1 1) rotate(0) translate(4 378)">
<title>g</title>
<polygon fill="white" stroke="none" points="-4,4 -4,-378 755,-378 755,4 -4,4"/>
<!-- entry_0 -->
<g id="node1" class="node"><title>entry_0</title>
<polygon fill="yellow" stroke="black" points="4.5,-281.5 4.5,-373.5 60.5,-373.5 60.5,-281.5 4.5,-281.5"/>
<text text-anchor="middle" x="32.5" y="-358.3" font-family="Times,serif" font-size="14.00">val : [</text>
<polyline fill="none" stroke="black" points="4.5,-350.5 60.5,-350.5 "/>
<text text-anchor="middle" x="32.5" y="-335.3" font-family="Times,serif" font-size="14.00">4;5;6</text>
<polyline fill="none" stroke="black" points="4.5,-327.5 60.5,-327.5 "/>
<text text-anchor="middle" x="32.5" y="-312.3" font-family="Times,serif" font-size="14.00">]</text>
<polyline fill="none" stroke="black" points="4.5,-304.5 60.5,-304.5 "/>
<text text-anchor="middle" x="32.5" y="-289.3" font-family="Times,serif" font-size="14.00">.</text>
</g>
<!-- p8 -->
<g id="node5" class="node"><title>p8</title>
<path fill="lightblue" stroke="black" d="M12,-141C12,-141 53,-141 53,-141 59,-141 65,-147 65,-153 65,-153 65,-221 65,-221 65,-227 59,-233 53,-233 53,-233 12,-233 12,-233 6,-233 0,-227 0,-221 0,-221 0,-153 0,-153 0,-147 6,-141 12,-141"/>
<text text-anchor="middle" x="32.5" y="-217.8" font-family="Times,serif" font-size="14.00">Tag : 0</text>
<polyline fill="none" stroke="black" points="0,-210 65,-210 "/>
<text text-anchor="middle" x="32.5" y="-194.8" font-family="Times,serif" font-size="14.00">4</text>
<polyline fill="none" stroke="black" points="0,-187 65,-187 "/>
<text text-anchor="middle" x="32.5" y="-171.8" font-family="Times,serif" font-size="14.00">5</text>
<polyline fill="none" stroke="black" points="0,-164 65,-164 "/>
<text text-anchor="middle" x="32.5" y="-148.8" font-family="Times,serif" font-size="14.00">6</text>
</g>
<!-- entry_0&#45;&gt;p8 -->
<g id="edge1" class="edge"><title>entry_0&#45;&gt;p8</title>
<path fill="none" stroke="black" d="M32.5,-281.15C32.5,-269.193 32.5,-256.152 32.5,-243.718"/>
<polygon fill="black" stroke="black" points="36.0001,-243.452 32.5,-233.452 29.0001,-243.452 36.0001,-243.452"/>
</g>
<!-- entry_1 -->
<g id="node2" class="node"><title>entry_1</title>
<polygon fill="yellow" stroke="black" points="78.5,-281.5 78.5,-373.5 198.5,-373.5 198.5,-281.5 78.5,-281.5"/>
<text text-anchor="middle" x="138.5" y="-358.3" font-family="Times,serif" font-size="14.00">val : [</text>
<polyline fill="none" stroke="black" points="78.5,-350.5 198.5,-350.5 "/>
<text text-anchor="middle" x="138.5" y="-335.3" font-family="Times,serif" font-size="14.00">1.0;2.0;3.0;4.0</text>
<polyline fill="none" stroke="black" points="78.5,-327.5 198.5,-327.5 "/>
<text text-anchor="middle" x="138.5" y="-312.3" font-family="Times,serif" font-size="14.00">]</text>
<polyline fill="none" stroke="black" points="78.5,-304.5 198.5,-304.5 "/>
<text text-anchor="middle" x="138.5" y="-289.3" font-family="Times,serif" font-size="14.00">.</text>
</g>
<!-- p7 -->
<g id="node6" class="node"><title>p7</title>
<path fill="lightblue" stroke="black" d="M108.5,-129.5C108.5,-129.5 168.5,-129.5 168.5,-129.5 174.5,-129.5 180.5,-135.5 180.5,-141.5 180.5,-141.5 180.5,-232.5 180.5,-232.5 180.5,-238.5 174.5,-244.5 168.5,-244.5 168.5,-244.5 108.5,-244.5 108.5,-244.5 102.5,-244.5 96.5,-238.5 96.5,-232.5 96.5,-232.5 96.5,-141.5 96.5,-141.5 96.5,-135.5 102.5,-129.5 108.5,-129.5"/>
<text text-anchor="middle" x="138.5" y="-229.3" font-family="Times,serif" font-size="14.00">Tag : 254</text>
<polyline fill="none" stroke="black" points="96.5,-221.5 180.5,-221.5 "/>
<text text-anchor="middle" x="138.5" y="-206.3" font-family="Times,serif" font-size="14.00">1.000000</text>
<polyline fill="none" stroke="black" points="96.5,-198.5 180.5,-198.5 "/>
<text text-anchor="middle" x="138.5" y="-183.3" font-family="Times,serif" font-size="14.00">2.000000</text>
<polyline fill="none" stroke="black" points="96.5,-175.5 180.5,-175.5 "/>
<text text-anchor="middle" x="138.5" y="-160.3" font-family="Times,serif" font-size="14.00">3.000000</text>
<polyline fill="none" stroke="black" points="96.5,-152.5 180.5,-152.5 "/>
<text text-anchor="middle" x="138.5" y="-137.3" font-family="Times,serif" font-size="14.00">4.000000</text>
</g>
<!-- entry_1&#45;&gt;p7 -->
<g id="edge2" class="edge"><title>entry_1&#45;&gt;p7</title>
<path fill="none" stroke="black" d="M138.5,-281.15C138.5,-272.667 138.5,-263.638 138.5,-254.667"/>
<polygon fill="black" stroke="black" points="142,-254.595 138.5,-244.595 135,-254.595 142,-254.595"/>
</g>
<!-- entry_2 -->
<g id="node3" class="node"><title>entry_2</title>
<polygon fill="yellow" stroke="black" points="217,-304.5 217,-350.5 454,-350.5 454,-304.5 217,-304.5"/>
<text text-anchor="middle" x="335.5" y="-335.3" font-family="Times,serif" font-size="14.00">val : Array.make_matrix 3 3 42</text>
<polyline fill="none" stroke="black" points="217,-327.5 454,-327.5 "/>
<text text-anchor="middle" x="335.5" y="-312.3" font-family="Times,serif" font-size="14.00">.</text>
</g>
<!-- p3 -->
<g id="node7" class="node"><title>p3</title>
<path fill="lightblue" stroke="black" d="M315,-141C315,-141 356,-141 356,-141 362,-141 368,-147 368,-153 368,-153 368,-221 368,-221 368,-227 362,-233 356,-233 356,-233 315,-233 315,-233 309,-233 303,-227 303,-221 303,-221 303,-153 303,-153 303,-147 309,-141 315,-141"/>
<text text-anchor="middle" x="335.5" y="-217.8" font-family="Times,serif" font-size="14.00">Tag : 0</text>
<polyline fill="none" stroke="black" points="303,-210 368,-210 "/>
<text text-anchor="middle" x="335.5" y="-194.8" font-family="Times,serif" font-size="14.00">.</text>
<polyline fill="none" stroke="black" points="303,-187 368,-187 "/>
<text text-anchor="middle" x="335.5" y="-171.8" font-family="Times,serif" font-size="14.00">.</text>
<polyline fill="none" stroke="black" points="303,-164 368,-164 "/>
<text text-anchor="middle" x="335.5" y="-148.8" font-family="Times,serif" font-size="14.00">.</text>
</g>
<!-- entry_2&#45;&gt;p3 -->
<g id="edge3" class="edge"><title>entry_2&#45;&gt;p3</title>
<path fill="none" stroke="black" d="M335.5,-304.248C335.5,-287.819 335.5,-264.709 335.5,-243.418"/>
<polygon fill="black" stroke="black" points="339,-243.149 335.5,-233.149 332,-243.149 339,-243.149"/>
</g>
<!-- entry_3 -->
<g id="node4" class="node"><title>entry_3</title>
<polygon fill="yellow" stroke="black" points="472,-304.5 472,-350.5 751,-350.5 751,-304.5 472,-304.5"/>
<text text-anchor="middle" x="611.5" y="-335.3" font-family="Times,serif" font-size="14.00">val : Array.make 3 (Array.make 3 42)</text>
<polyline fill="none" stroke="black" points="472,-327.5 751,-327.5 "/>
<text text-anchor="middle" x="611.5" y="-312.3" font-family="Times,serif" font-size="14.00">.</text>
</g>
<!-- p1 -->
<g id="node11" class="node"><title>p1</title>
<path fill="lightblue" stroke="black" d="M591,-141C591,-141 632,-141 632,-141 638,-141 644,-147 644,-153 644,-153 644,-221 644,-221 644,-227 638,-233 632,-233 632,-233 591,-233 591,-233 585,-233 579,-227 579,-221 579,-221 579,-153 579,-153 579,-147 585,-141 591,-141"/>
<text text-anchor="middle" x="611.5" y="-217.8" font-family="Times,serif" font-size="14.00">Tag : 0</text>
<polyline fill="none" stroke="black" points="579,-210 644,-210 "/>
<text text-anchor="middle" x="611.5" y="-194.8" font-family="Times,serif" font-size="14.00">.</text>
<polyline fill="none" stroke="black" points="579,-187 644,-187 "/>
<text text-anchor="middle" x="611.5" y="-171.8" font-family="Times,serif" font-size="14.00">.</text>
<polyline fill="none" stroke="black" points="579,-164 644,-164 "/>
<text text-anchor="middle" x="611.5" y="-148.8" font-family="Times,serif" font-size="14.00">.</text>
</g>
<!-- entry_3&#45;&gt;p1 -->
<g id="edge7" class="edge"><title>entry_3&#45;&gt;p1</title>
<path fill="none" stroke="black" d="M611.5,-304.248C611.5,-287.819 611.5,-264.709 611.5,-243.418"/>
<polygon fill="black" stroke="black" points="615,-243.149 611.5,-233.149 608,-243.149 615,-243.149"/>
</g>
<!-- p4 -->
<g id="node8" class="node"><title>p4</title>
<path fill="lightblue" stroke="black" d="M232,-0.5C232,-0.5 273,-0.5 273,-0.5 279,-0.5 285,-6.5 285,-12.5 285,-12.5 285,-80.5 285,-80.5 285,-86.5 279,-92.5 273,-92.5 273,-92.5 232,-92.5 232,-92.5 226,-92.5 220,-86.5 220,-80.5 220,-80.5 220,-12.5 220,-12.5 220,-6.5 226,-0.5 232,-0.5"/>
<text text-anchor="middle" x="252.5" y="-77.3" font-family="Times,serif" font-size="14.00">Tag : 0</text>
<polyline fill="none" stroke="black" points="220,-69.5 285,-69.5 "/>
<text text-anchor="middle" x="252.5" y="-54.3" font-family="Times,serif" font-size="14.00">42</text>
<polyline fill="none" stroke="black" points="220,-46.5 285,-46.5 "/>
<text text-anchor="middle" x="252.5" y="-31.3" font-family="Times,serif" font-size="14.00">42</text>
<polyline fill="none" stroke="black" points="220,-23.5 285,-23.5 "/>
<text text-anchor="middle" x="252.5" y="-8.3" font-family="Times,serif" font-size="14.00">42</text>
</g>
<!-- p3&#45;&gt;p4 -->
<g id="edge4" class="edge"><title>p3:f0&#45;&gt;p4:head</title>
<path fill="none" stroke="black" d="M301.5,-199C290.549,-199 296.548,-117.658 291.292,-90.3316"/>
<polygon fill="black" stroke="black" points="294.345,-88.6204 286.5,-81.5 288.193,-91.9587 294.345,-88.6204"/>
</g>
<!-- p5 -->
<g id="node9" class="node"><title>p5</title>
<path fill="lightblue" stroke="black" d="M315,-0.5C315,-0.5 356,-0.5 356,-0.5 362,-0.5 368,-6.5 368,-12.5 368,-12.5 368,-80.5 368,-80.5 368,-86.5 362,-92.5 356,-92.5 356,-92.5 315,-92.5 315,-92.5 309,-92.5 303,-86.5 303,-80.5 303,-80.5 303,-12.5 303,-12.5 303,-6.5 309,-0.5 315,-0.5"/>
<text text-anchor="middle" x="335.5" y="-77.3" font-family="Times,serif" font-size="14.00">Tag : 0</text>
<polyline fill="none" stroke="black" points="303,-69.5 368,-69.5 "/>
<text text-anchor="middle" x="335.5" y="-54.3" font-family="Times,serif" font-size="14.00">42</text>
<polyline fill="none" stroke="black" points="303,-46.5 368,-46.5 "/>
<text text-anchor="middle" x="335.5" y="-31.3" font-family="Times,serif" font-size="14.00">42</text>
<polyline fill="none" stroke="black" points="303,-23.5 368,-23.5 "/>
<text text-anchor="middle" x="335.5" y="-8.3" font-family="Times,serif" font-size="14.00">42</text>
</g>
<!-- p3&#45;&gt;p5 -->
<g id="edge5" class="edge"><title>p3:f1&#45;&gt;p5:head</title>
<path fill="none" stroke="black" d="M369.5,-175C384.84,-175 373.297,-155.07 368.5,-140.5 361.717,-119.899 342.887,-118.547 337.168,-103.186"/>
<polygon fill="black" stroke="black" points="340.57,-102.303 335.5,-93 333.663,-103.434 340.57,-102.303"/>
</g>
<!-- p6 -->
<g id="node10" class="node"><title>p6</title>
<path fill="lightblue" stroke="black" d="M398,-0.5C398,-0.5 439,-0.5 439,-0.5 445,-0.5 451,-6.5 451,-12.5 451,-12.5 451,-80.5 451,-80.5 451,-86.5 445,-92.5 439,-92.5 439,-92.5 398,-92.5 398,-92.5 392,-92.5 386,-86.5 386,-80.5 386,-80.5 386,-12.5 386,-12.5 386,-6.5 392,-0.5 398,-0.5"/>
<text text-anchor="middle" x="418.5" y="-77.3" font-family="Times,serif" font-size="14.00">Tag : 0</text>
<polyline fill="none" stroke="black" points="386,-69.5 451,-69.5 "/>
<text text-anchor="middle" x="418.5" y="-54.3" font-family="Times,serif" font-size="14.00">42</text>
<polyline fill="none" stroke="black" points="386,-46.5 451,-46.5 "/>
<text text-anchor="middle" x="418.5" y="-31.3" font-family="Times,serif" font-size="14.00">42</text>
<polyline fill="none" stroke="black" points="386,-23.5 451,-23.5 "/>
<text text-anchor="middle" x="418.5" y="-8.3" font-family="Times,serif" font-size="14.00">42</text>
</g>
<!-- p3&#45;&gt;p6 -->
<g id="edge6" class="edge"><title>p3:f2&#45;&gt;p6:head</title>
<path fill="none" stroke="black" d="M369.5,-152C382.201,-152 374.119,-107.67 378.215,-89.3141"/>
<polygon fill="black" stroke="black" points="380.96,-91.4859 384.5,-81.5 375.505,-87.0988 380.96,-91.4859"/>
</g>
<!-- p2 -->
<g id="node12" class="node"><title>p2</title>
<path fill="lightblue" stroke="black" d="M591,-0.5C591,-0.5 632,-0.5 632,-0.5 638,-0.5 644,-6.5 644,-12.5 644,-12.5 644,-80.5 644,-80.5 644,-86.5 638,-92.5 632,-92.5 632,-92.5 591,-92.5 591,-92.5 585,-92.5 579,-86.5 579,-80.5 579,-80.5 579,-12.5 579,-12.5 579,-6.5 585,-0.5 591,-0.5"/>
<text text-anchor="middle" x="611.5" y="-77.3" font-family="Times,serif" font-size="14.00">Tag : 0</text>
<polyline fill="none" stroke="black" points="579,-69.5 644,-69.5 "/>
<text text-anchor="middle" x="611.5" y="-54.3" font-family="Times,serif" font-size="14.00">42</text>
<polyline fill="none" stroke="black" points="579,-46.5 644,-46.5 "/>
<text text-anchor="middle" x="611.5" y="-31.3" font-family="Times,serif" font-size="14.00">42</text>
<polyline fill="none" stroke="black" points="579,-23.5 644,-23.5 "/>
<text text-anchor="middle" x="611.5" y="-8.3" font-family="Times,serif" font-size="14.00">42</text>
</g>
<!-- p1&#45;&gt;p2 -->
<g id="edge8" class="edge"><title>p1:f0&#45;&gt;p2:head</title>
<path fill="none" stroke="black" d="M645.5,-199C671.504,-199 652.486,-165.247 644.5,-140.5 637.839,-119.859 618.925,-118.534 613.177,-103.183"/>
<polygon fill="black" stroke="black" points="616.579,-102.298 611.5,-93 609.672,-103.436 616.579,-102.298"/>
</g>
<!-- p1&#45;&gt;p2 -->
<g id="edge9" class="edge"><title>p1:f1&#45;&gt;p2:head</title>
<path fill="none" stroke="black" d="M645.5,-175C660.84,-175 649.297,-155.07 644.5,-140.5 637.717,-119.899 618.887,-118.547 613.168,-103.186"/>
<polygon fill="black" stroke="black" points="616.57,-102.303 611.5,-93 609.663,-103.434 616.57,-102.303"/>
</g>
<!-- p1&#45;&gt;p2 -->
<g id="edge10" class="edge"><title>p1:f2&#45;&gt;p2:head</title>
<path fill="none" stroke="black" d="M611.5,-140C611.5,-123.028 611.5,-116.398 611.5,-103.304"/>
<polygon fill="black" stroke="black" points="615,-103 611.5,-93 608,-103 615,-103"/>
</g>
</g>
</svg>
