<?xml version="1.0" encoding="UTF-8" standalone="no"?>
<!DOCTYPE svg PUBLIC "-//W3C//DTD SVG 1.1//EN"
 "http://www.w3.org/Graphics/SVG/1.1/DTD/svg11.dtd">
<!-- Generated by graphviz version 2.38.0 (20140413.2041)
 -->
<!-- Title: g Pages: 1 -->
<svg width="1133pt" height="465pt"
 viewBox="0.00 0.00 1133.00 465.00" xmlns="http://www.w3.org/2000/svg" xmlns:xlink="http://www.w3.org/1999/xlink">
<g id="graph0" class="graph" transform="scale(1 1) rotate(0) translate(4 461)">
<title>g</title>
<polygon fill="white" stroke="none" points="-4,4 -4,-461 1129,-461 1129,4 -4,4"/>
<!-- entry_0 -->
<g id="node1" class="node"><title>entry_0</title>
<polygon fill="yellow" stroke="black" points="0,-410.5 0,-456.5 107,-456.5 107,-410.5 0,-410.5"/>
<text text-anchor="middle" x="53.5" y="-441.3" font-family="Times,serif" font-size="14.00">val : [|4;5;6|]</text>
<polyline fill="none" stroke="black" points="0,-433.5 107,-433.5 "/>
<text text-anchor="middle" x="53.5" y="-418.3" font-family="Times,serif" font-size="14.00">.</text>
</g>
<!-- p15 -->
<g id="node6" class="node"><title>p15</title>
<path fill="lightblue" stroke="black" d="M33,-270C33,-270 74,-270 74,-270 80,-270 86,-276 86,-282 86,-282 86,-350 86,-350 86,-356 80,-362 74,-362 74,-362 33,-362 33,-362 27,-362 21,-356 21,-350 21,-350 21,-282 21,-282 21,-276 27,-270 33,-270"/>
<text text-anchor="middle" x="53.5" y="-346.8" font-family="Times,serif" font-size="14.00">Tag : 0</text>
<polyline fill="none" stroke="black" points="21,-339 86,-339 "/>
<text text-anchor="middle" x="53.5" y="-323.8" font-family="Times,serif" font-size="14.00">4</text>
<polyline fill="none" stroke="black" points="21,-316 86,-316 "/>
<text text-anchor="middle" x="53.5" y="-300.8" font-family="Times,serif" font-size="14.00">5</text>
<polyline fill="none" stroke="black" points="21,-293 86,-293 "/>
<text text-anchor="middle" x="53.5" y="-277.8" font-family="Times,serif" font-size="14.00">6</text>
</g>
<!-- entry_0&#45;&gt;p15 -->
<g id="edge1" class="edge"><title>entry_0&#45;&gt;p15</title>
<path fill="none" stroke="black" d="M53.5,-410.23C53.5,-399.365 53.5,-385.764 53.5,-372.337"/>
<polygon fill="black" stroke="black" points="57.0001,-372.152 53.5,-362.152 50.0001,-372.152 57.0001,-372.152"/>
</g>
<!-- entry_1 -->
<g id="node2" class="node"><title>entry_1</title>
<polygon fill="yellow" stroke="black" points="125.5,-410.5 125.5,-456.5 299.5,-456.5 299.5,-410.5 125.5,-410.5"/>
<text text-anchor="middle" x="212.5" y="-441.3" font-family="Times,serif" font-size="14.00">val : [|1.0;2.0;3.0;4.0|]</text>
<polyline fill="none" stroke="black" points="125.5,-433.5 299.5,-433.5 "/>
<text text-anchor="middle" x="212.5" y="-418.3" font-family="Times,serif" font-size="14.00">.</text>
</g>
<!-- p14 -->
<g id="node7" class="node"><title>p14</title>
<path fill="lightblue" stroke="black" d="M182.5,-258.5C182.5,-258.5 242.5,-258.5 242.5,-258.5 248.5,-258.5 254.5,-264.5 254.5,-270.5 254.5,-270.5 254.5,-361.5 254.5,-361.5 254.5,-367.5 248.5,-373.5 242.5,-373.5 242.5,-373.5 182.5,-373.5 182.5,-373.5 176.5,-373.5 170.5,-367.5 170.5,-361.5 170.5,-361.5 170.5,-270.5 170.5,-270.5 170.5,-264.5 176.5,-258.5 182.5,-258.5"/>
<text text-anchor="middle" x="212.5" y="-358.3" font-family="Times,serif" font-size="14.00">Tag : 254</text>
<polyline fill="none" stroke="black" points="170.5,-350.5 254.5,-350.5 "/>
<text text-anchor="middle" x="212.5" y="-335.3" font-family="Times,serif" font-size="14.00">1.000000</text>
<polyline fill="none" stroke="black" points="170.5,-327.5 254.5,-327.5 "/>
<text text-anchor="middle" x="212.5" y="-312.3" font-family="Times,serif" font-size="14.00">2.000000</text>
<polyline fill="none" stroke="black" points="170.5,-304.5 254.5,-304.5 "/>
<text text-anchor="middle" x="212.5" y="-289.3" font-family="Times,serif" font-size="14.00">3.000000</text>
<polyline fill="none" stroke="black" points="170.5,-281.5 254.5,-281.5 "/>
<text text-anchor="middle" x="212.5" y="-266.3" font-family="Times,serif" font-size="14.00">4.000000</text>
</g>
<!-- entry_1&#45;&gt;p14 -->
<g id="edge2" class="edge"><title>entry_1&#45;&gt;p14</title>
<path fill="none" stroke="black" d="M212.5,-410.23C212.5,-402.528 212.5,-393.451 212.5,-384.035"/>
<polygon fill="black" stroke="black" points="216,-383.735 212.5,-373.735 209,-383.735 216,-383.735"/>
</g>
<!-- entry_2 -->
<g id="node3" class="node"><title>entry_2</title>
<polygon fill="yellow" stroke="black" points="318,-410.5 318,-456.5 573,-456.5 573,-410.5 318,-410.5"/>
<text text-anchor="middle" x="445.5" y="-441.3" font-family="Times,serif" font-size="14.00">val : [| (5,8.0); (42, 1.0); (0, 1.5) |]</text>
<polyline fill="none" stroke="black" points="318,-433.5 573,-433.5 "/>
<text text-anchor="middle" x="445.5" y="-418.3" font-family="Times,serif" font-size="14.00">.</text>
</g>
<!-- p7 -->
<g id="node8" class="node"><title>p7</title>
<path fill="lightblue" stroke="black" d="M425,-270C425,-270 466,-270 466,-270 472,-270 478,-276 478,-282 478,-282 478,-350 478,-350 478,-356 472,-362 466,-362 466,-362 425,-362 425,-362 419,-362 413,-356 413,-350 413,-350 413,-282 413,-282 413,-276 419,-270 425,-270"/>
<text text-anchor="middle" x="445.5" y="-346.8" font-family="Times,serif" font-size="14.00">Tag : 0</text>
<polyline fill="none" stroke="black" points="413,-339 478,-339 "/>
<text text-anchor="middle" x="445.5" y="-323.8" font-family="Times,serif" font-size="14.00">.</text>
<polyline fill="none" stroke="black" points="413,-316 478,-316 "/>
<text text-anchor="middle" x="445.5" y="-300.8" font-family="Times,serif" font-size="14.00">.</text>
<polyline fill="none" stroke="black" points="413,-293 478,-293 "/>
<text text-anchor="middle" x="445.5" y="-277.8" font-family="Times,serif" font-size="14.00">.</text>
</g>
<!-- entry_2&#45;&gt;p7 -->
<g id="edge3" class="edge"><title>entry_2&#45;&gt;p7</title>
<path fill="none" stroke="black" d="M445.5,-410.23C445.5,-399.365 445.5,-385.764 445.5,-372.337"/>
<polygon fill="black" stroke="black" points="449,-372.152 445.5,-362.152 442,-372.152 449,-372.152"/>
</g>
<!-- entry_3 -->
<g id="node4" class="node"><title>entry_3</title>
<polygon fill="yellow" stroke="black" points="591,-410.5 591,-456.5 828,-456.5 828,-410.5 591,-410.5"/>
<text text-anchor="middle" x="709.5" y="-441.3" font-family="Times,serif" font-size="14.00">val : Array.make_matrix 3 5 42</text>
<polyline fill="none" stroke="black" points="591,-433.5 828,-433.5 "/>
<text text-anchor="middle" x="709.5" y="-418.3" font-family="Times,serif" font-size="14.00">.</text>
</g>
<!-- p3 -->
<g id="node15" class="node"><title>p3</title>
<path fill="lightblue" stroke="black" d="M689,-270C689,-270 730,-270 730,-270 736,-270 742,-276 742,-282 742,-282 742,-350 742,-350 742,-356 736,-362 730,-362 730,-362 689,-362 689,-362 683,-362 677,-356 677,-350 677,-350 677,-282 677,-282 677,-276 683,-270 689,-270"/>
<text text-anchor="middle" x="709.5" y="-346.8" font-family="Times,serif" font-size="14.00">Tag : 0</text>
<polyline fill="none" stroke="black" points="677,-339 742,-339 "/>
<text text-anchor="middle" x="709.5" y="-323.8" font-family="Times,serif" font-size="14.00">.</text>
<polyline fill="none" stroke="black" points="677,-316 742,-316 "/>
<text text-anchor="middle" x="709.5" y="-300.8" font-family="Times,serif" font-size="14.00">.</text>
<polyline fill="none" stroke="black" points="677,-293 742,-293 "/>
<text text-anchor="middle" x="709.5" y="-277.8" font-family="Times,serif" font-size="14.00">.</text>
</g>
<!-- entry_3&#45;&gt;p3 -->
<g id="edge10" class="edge"><title>entry_3&#45;&gt;p3</title>
<path fill="none" stroke="black" d="M709.5,-410.23C709.5,-399.365 709.5,-385.764 709.5,-372.337"/>
<polygon fill="black" stroke="black" points="713,-372.152 709.5,-362.152 706,-372.152 713,-372.152"/>
</g>
<!-- entry_4 -->
<g id="node5" class="node"><title>entry_4</title>
<polygon fill="yellow" stroke="black" points="846,-410.5 846,-456.5 1125,-456.5 1125,-410.5 846,-410.5"/>
<text text-anchor="middle" x="985.5" y="-441.3" font-family="Times,serif" font-size="14.00">val : Array.make 3 (Array.make 5 42)</text>
<polyline fill="none" stroke="black" points="846,-433.5 1125,-433.5 "/>
<text text-anchor="middle" x="985.5" y="-418.3" font-family="Times,serif" font-size="14.00">.</text>
</g>
<!-- p1 -->
<g id="node19" class="node"><title>p1</title>
<path fill="lightblue" stroke="black" d="M965,-270C965,-270 1006,-270 1006,-270 1012,-270 1018,-276 1018,-282 1018,-282 1018,-350 1018,-350 1018,-356 1012,-362 1006,-362 1006,-362 965,-362 965,-362 959,-362 953,-356 953,-350 953,-350 953,-282 953,-282 953,-276 959,-270 965,-270"/>
<text text-anchor="middle" x="985.5" y="-346.8" font-family="Times,serif" font-size="14.00">Tag : 0</text>
<polyline fill="none" stroke="black" points="953,-339 1018,-339 "/>
<text text-anchor="middle" x="985.5" y="-323.8" font-family="Times,serif" font-size="14.00">.</text>
<polyline fill="none" stroke="black" points="953,-316 1018,-316 "/>
<text text-anchor="middle" x="985.5" y="-300.8" font-family="Times,serif" font-size="14.00">.</text>
<polyline fill="none" stroke="black" points="953,-293 1018,-293 "/>
<text text-anchor="middle" x="985.5" y="-277.8" font-family="Times,serif" font-size="14.00">.</text>
</g>
<!-- entry_4&#45;&gt;p1 -->
<g id="edge14" class="edge"><title>entry_4&#45;&gt;p1</title>
<path fill="none" stroke="black" d="M985.5,-410.23C985.5,-399.365 985.5,-385.764 985.5,-372.337"/>
<polygon fill="black" stroke="black" points="989,-372.152 985.5,-362.152 982,-372.152 989,-372.152"/>
</g>
<!-- p8 -->
<g id="node9" class="node"><title>p8</title>
<path fill="lightblue" stroke="black" d="M332,-118C332,-118 373,-118 373,-118 379,-118 385,-124 385,-130 385,-130 385,-175 385,-175 385,-181 379,-187 373,-187 373,-187 332,-187 332,-187 326,-187 320,-181 320,-175 320,-175 320,-130 320,-130 320,-124 326,-118 332,-118"/>
<text text-anchor="middle" x="352.5" y="-171.8" font-family="Times,serif" font-size="14.00">Tag : 0</text>
<polyline fill="none" stroke="black" points="320,-164 385,-164 "/>
<text text-anchor="middle" x="352.5" y="-148.8" font-family="Times,serif" font-size="14.00">5</text>
<polyline fill="none" stroke="black" points="320,-141 385,-141 "/>
<text text-anchor="middle" x="352.5" y="-125.8" font-family="Times,serif" font-size="14.00">.</text>
</g>
<!-- p7&#45;&gt;p8 -->
<g id="edge4" class="edge"><title>p7:f0&#45;&gt;p8:head</title>
<path fill="none" stroke="black" d="M411.5,-328C380.915,-328 412.219,-207.035 395.172,-180.574"/>
<polygon fill="black" stroke="black" points="396.899,-177.529 386.5,-175.5 393.364,-183.571 396.899,-177.529"/>
</g>
<!-- p10 -->
<g id="node10" class="node"><title>p10</title>
<path fill="lightblue" stroke="black" d="M425,-118C425,-118 466,-118 466,-118 472,-118 478,-124 478,-130 478,-130 478,-175 478,-175 478,-181 472,-187 466,-187 466,-187 425,-187 425,-187 419,-187 413,-181 413,-175 413,-175 413,-130 413,-130 413,-124 419,-118 425,-118"/>
<text text-anchor="middle" x="445.5" y="-171.8" font-family="Times,serif" font-size="14.00">Tag : 0</text>
<polyline fill="none" stroke="black" points="413,-164 478,-164 "/>
<text text-anchor="middle" x="445.5" y="-148.8" font-family="Times,serif" font-size="14.00">42</text>
<polyline fill="none" stroke="black" points="413,-141 478,-141 "/>
<text text-anchor="middle" x="445.5" y="-125.8" font-family="Times,serif" font-size="14.00">.</text>
</g>
<!-- p7&#45;&gt;p10 -->
<g id="edge5" class="edge"><title>p7:f1&#45;&gt;p10:head</title>
<path fill="none" stroke="black" d="M479.5,-304C494.84,-304 481.667,-284.509 478.5,-269.5 471.228,-235.03 450.034,-228.438 446.124,-198.573"/>
<polygon fill="black" stroke="black" points="449.612,-198.264 445.5,-188.5 442.625,-198.697 449.612,-198.264"/>
</g>
<!-- p12 -->
<g id="node11" class="node"><title>p12</title>
<path fill="lightblue" stroke="black" d="M515,-118C515,-118 556,-118 556,-118 562,-118 568,-124 568,-130 568,-130 568,-175 568,-175 568,-181 562,-187 556,-187 556,-187 515,-187 515,-187 509,-187 503,-181 503,-175 503,-175 503,-130 503,-130 503,-124 509,-118 515,-118"/>
<text text-anchor="middle" x="535.5" y="-171.8" font-family="Times,serif" font-size="14.00">Tag : 0</text>
<polyline fill="none" stroke="black" points="503,-164 568,-164 "/>
<text text-anchor="middle" x="535.5" y="-148.8" font-family="Times,serif" font-size="14.00">0</text>
<polyline fill="none" stroke="black" points="503,-141 568,-141 "/>
<text text-anchor="middle" x="535.5" y="-125.8" font-family="Times,serif" font-size="14.00">.</text>
</g>
<!-- p7&#45;&gt;p12 -->
<g id="edge6" class="edge"><title>p7:f2&#45;&gt;p12:head</title>
<path fill="none" stroke="black" d="M479.5,-281C499.8,-281 484.285,-205.196 493.673,-182.099"/>
<polygon fill="black" stroke="black" points="496.111,-184.622 501.5,-175.5 491.599,-179.27 496.111,-184.622"/>
</g>
<!-- p9 -->
<g id="node14" class="node"><title>p9</title>
<path fill="lightblue" stroke="black" d="M313.5,-0.5C313.5,-0.5 373.5,-0.5 373.5,-0.5 379.5,-0.5 385.5,-6.5 385.5,-12.5 385.5,-12.5 385.5,-34.5 385.5,-34.5 385.5,-40.5 379.5,-46.5 373.5,-46.5 373.5,-46.5 313.5,-46.5 313.5,-46.5 307.5,-46.5 301.5,-40.5 301.5,-34.5 301.5,-34.5 301.5,-12.5 301.5,-12.5 301.5,-6.5 307.5,-0.5 313.5,-0.5"/>
<text text-anchor="middle" x="343.5" y="-31.3" font-family="Times,serif" font-size="14.00">Tag : 253</text>
<polyline fill="none" stroke="black" points="301.5,-23.5 385.5,-23.5 "/>
<text text-anchor="middle" x="343.5" y="-8.3" font-family="Times,serif" font-size="14.00">8.000000</text>
</g>
<!-- p8&#45;&gt;p9 -->
<g id="edge9" class="edge"><title>p8:f1&#45;&gt;p9:head</title>
<path fill="none" stroke="black" d="M352.5,-116.5C352.5,-89.0032 345.486,-80.1646 343.842,-57.0408"/>
<polygon fill="black" stroke="black" points="347.338,-56.8751 343.5,-47 340.342,-57.1133 347.338,-56.8751"/>
</g>
<!-- p11 -->
<g id="node13" class="node"><title>p11</title>
<path fill="lightblue" stroke="black" d="M415.5,-0.5C415.5,-0.5 475.5,-0.5 475.5,-0.5 481.5,-0.5 487.5,-6.5 487.5,-12.5 487.5,-12.5 487.5,-34.5 487.5,-34.5 487.5,-40.5 481.5,-46.5 475.5,-46.5 475.5,-46.5 415.5,-46.5 415.5,-46.5 409.5,-46.5 403.5,-40.5 403.5,-34.5 403.5,-34.5 403.5,-12.5 403.5,-12.5 403.5,-6.5 409.5,-0.5 415.5,-0.5"/>
<text text-anchor="middle" x="445.5" y="-31.3" font-family="Times,serif" font-size="14.00">Tag : 253</text>
<polyline fill="none" stroke="black" points="403.5,-23.5 487.5,-23.5 "/>
<text text-anchor="middle" x="445.5" y="-8.3" font-family="Times,serif" font-size="14.00">1.000000</text>
</g>
<!-- p10&#45;&gt;p11 -->
<g id="edge8" class="edge"><title>p10:f1&#45;&gt;p11:head</title>
<path fill="none" stroke="black" d="M445.5,-116.5C445.5,-89.3516 445.5,-80.0988 445.5,-57.2845"/>
<polygon fill="black" stroke="black" points="449,-57 445.5,-47 442,-57 449,-57"/>
</g>
<!-- p13 -->
<g id="node12" class="node"><title>p13</title>
<path fill="lightblue" stroke="black" d="M517.5,-0.5C517.5,-0.5 577.5,-0.5 577.5,-0.5 583.5,-0.5 589.5,-6.5 589.5,-12.5 589.5,-12.5 589.5,-34.5 589.5,-34.5 589.5,-40.5 583.5,-46.5 577.5,-46.5 577.5,-46.5 517.5,-46.5 517.5,-46.5 511.5,-46.5 505.5,-40.5 505.5,-34.5 505.5,-34.5 505.5,-12.5 505.5,-12.5 505.5,-6.5 511.5,-0.5 517.5,-0.5"/>
<text text-anchor="middle" x="547.5" y="-31.3" font-family="Times,serif" font-size="14.00">Tag : 253</text>
<polyline fill="none" stroke="black" points="505.5,-23.5 589.5,-23.5 "/>
<text text-anchor="middle" x="547.5" y="-8.3" font-family="Times,serif" font-size="14.00">1.500000</text>
</g>
<!-- p12&#45;&gt;p13 -->
<g id="edge7" class="edge"><title>p12:f1&#45;&gt;p13:head</title>
<path fill="none" stroke="black" d="M535.5,-116.5C535.5,-88.8274 544.852,-80.2786 547.044,-57.0881"/>
<polygon fill="black" stroke="black" points="550.545,-57.1478 547.5,-47 543.552,-56.8318 550.545,-57.1478"/>
</g>
<!-- p4 -->
<g id="node16" class="node"><title>p4</title>
<path fill="lightblue" stroke="black" d="M606,-83.5C606,-83.5 647,-83.5 647,-83.5 653,-83.5 659,-89.5 659,-95.5 659,-95.5 659,-209.5 659,-209.5 659,-215.5 653,-221.5 647,-221.5 647,-221.5 606,-221.5 606,-221.5 600,-221.5 594,-215.5 594,-209.5 594,-209.5 594,-95.5 594,-95.5 594,-89.5 600,-83.5 606,-83.5"/>
<text text-anchor="middle" x="626.5" y="-206.3" font-family="Times,serif" font-size="14.00">Tag : 0</text>
<polyline fill="none" stroke="black" points="594,-198.5 659,-198.5 "/>
<text text-anchor="middle" x="626.5" y="-183.3" font-family="Times,serif" font-size="14.00">42</text>
<polyline fill="none" stroke="black" points="594,-175.5 659,-175.5 "/>
<text text-anchor="middle" x="626.5" y="-160.3" font-family="Times,serif" font-size="14.00">42</text>
<polyline fill="none" stroke="black" points="594,-152.5 659,-152.5 "/>
<text text-anchor="middle" x="626.5" y="-137.3" font-family="Times,serif" font-size="14.00">42</text>
<polyline fill="none" stroke="black" points="594,-129.5 659,-129.5 "/>
<text text-anchor="middle" x="626.5" y="-114.3" font-family="Times,serif" font-size="14.00">42</text>
<polyline fill="none" stroke="black" points="594,-106.5 659,-106.5 "/>
<text text-anchor="middle" x="626.5" y="-91.3" font-family="Times,serif" font-size="14.00">42</text>
</g>
<!-- p3&#45;&gt;p4 -->
<g id="edge11" class="edge"><title>p3:f0&#45;&gt;p4:head</title>
<path fill="none" stroke="black" d="M675.5,-328C664.549,-328 670.548,-246.658 665.292,-219.332"/>
<polygon fill="black" stroke="black" points="668.345,-217.62 660.5,-210.5 662.193,-220.959 668.345,-217.62"/>
</g>
<!-- p5 -->
<g id="node17" class="node"><title>p5</title>
<path fill="lightblue" stroke="black" d="M689,-83.5C689,-83.5 730,-83.5 730,-83.5 736,-83.5 742,-89.5 742,-95.5 742,-95.5 742,-209.5 742,-209.5 742,-215.5 736,-221.5 730,-221.5 730,-221.5 689,-221.5 689,-221.5 683,-221.5 677,-215.5 677,-209.5 677,-209.5 677,-95.5 677,-95.5 677,-89.5 683,-83.5 689,-83.5"/>
<text text-anchor="middle" x="709.5" y="-206.3" font-family="Times,serif" font-size="14.00">Tag : 0</text>
<polyline fill="none" stroke="black" points="677,-198.5 742,-198.5 "/>
<text text-anchor="middle" x="709.5" y="-183.3" font-family="Times,serif" font-size="14.00">42</text>
<polyline fill="none" stroke="black" points="677,-175.5 742,-175.5 "/>
<text text-anchor="middle" x="709.5" y="-160.3" font-family="Times,serif" font-size="14.00">42</text>
<polyline fill="none" stroke="black" points="677,-152.5 742,-152.5 "/>
<text text-anchor="middle" x="709.5" y="-137.3" font-family="Times,serif" font-size="14.00">42</text>
<polyline fill="none" stroke="black" points="677,-129.5 742,-129.5 "/>
<text text-anchor="middle" x="709.5" y="-114.3" font-family="Times,serif" font-size="14.00">42</text>
<polyline fill="none" stroke="black" points="677,-106.5 742,-106.5 "/>
<text text-anchor="middle" x="709.5" y="-91.3" font-family="Times,serif" font-size="14.00">42</text>
</g>
<!-- p3&#45;&gt;p5 -->
<g id="edge12" class="edge"><title>p3:f1&#45;&gt;p5:head</title>
<path fill="none" stroke="black" d="M743.5,-304C758.84,-304 747.297,-284.07 742.5,-269.5 735.717,-248.899 716.887,-247.547 711.168,-232.186"/>
<polygon fill="black" stroke="black" points="714.57,-231.303 709.5,-222 707.663,-232.434 714.57,-231.303"/>
</g>
<!-- p6 -->
<g id="node18" class="node"><title>p6</title>
<path fill="lightblue" stroke="black" d="M772,-83.5C772,-83.5 813,-83.5 813,-83.5 819,-83.5 825,-89.5 825,-95.5 825,-95.5 825,-209.5 825,-209.5 825,-215.5 819,-221.5 813,-221.5 813,-221.5 772,-221.5 772,-221.5 766,-221.5 760,-215.5 760,-209.5 760,-209.5 760,-95.5 760,-95.5 760,-89.5 766,-83.5 772,-83.5"/>
<text text-anchor="middle" x="792.5" y="-206.3" font-family="Times,serif" font-size="14.00">Tag : 0</text>
<polyline fill="none" stroke="black" points="760,-198.5 825,-198.5 "/>
<text text-anchor="middle" x="792.5" y="-183.3" font-family="Times,serif" font-size="14.00">42</text>
<polyline fill="none" stroke="black" points="760,-175.5 825,-175.5 "/>
<text text-anchor="middle" x="792.5" y="-160.3" font-family="Times,serif" font-size="14.00">42</text>
<polyline fill="none" stroke="black" points="760,-152.5 825,-152.5 "/>
<text text-anchor="middle" x="792.5" y="-137.3" font-family="Times,serif" font-size="14.00">42</text>
<polyline fill="none" stroke="black" points="760,-129.5 825,-129.5 "/>
<text text-anchor="middle" x="792.5" y="-114.3" font-family="Times,serif" font-size="14.00">42</text>
<polyline fill="none" stroke="black" points="760,-106.5 825,-106.5 "/>
<text text-anchor="middle" x="792.5" y="-91.3" font-family="Times,serif" font-size="14.00">42</text>
</g>
<!-- p3&#45;&gt;p6 -->
<g id="edge13" class="edge"><title>p3:f2&#45;&gt;p6:head</title>
<path fill="none" stroke="black" d="M743.5,-281C756.201,-281 748.119,-236.67 752.215,-218.314"/>
<polygon fill="black" stroke="black" points="754.96,-220.486 758.5,-210.5 749.505,-216.099 754.96,-220.486"/>
</g>
<!-- p2 -->
<g id="node20" class="node"><title>p2</title>
<path fill="lightblue" stroke="black" d="M965,-83.5C965,-83.5 1006,-83.5 1006,-83.5 1012,-83.5 1018,-89.5 1018,-95.5 1018,-95.5 1018,-209.5 1018,-209.5 1018,-215.5 1012,-221.5 1006,-221.5 1006,-221.5 965,-221.5 965,-221.5 959,-221.5 953,-215.5 953,-209.5 953,-209.5 953,-95.5 953,-95.5 953,-89.5 959,-83.5 965,-83.5"/>
<text text-anchor="middle" x="985.5" y="-206.3" font-family="Times,serif" font-size="14.00">Tag : 0</text>
<polyline fill="none" stroke="black" points="953,-198.5 1018,-198.5 "/>
<text text-anchor="middle" x="985.5" y="-183.3" font-family="Times,serif" font-size="14.00">42</text>
<polyline fill="none" stroke="black" points="953,-175.5 1018,-175.5 "/>
<text text-anchor="middle" x="985.5" y="-160.3" font-family="Times,serif" font-size="14.00">42</text>
<polyline fill="none" stroke="black" points="953,-152.5 1018,-152.5 "/>
<text text-anchor="middle" x="985.5" y="-137.3" font-family="Times,serif" font-size="14.00">42</text>
<polyline fill="none" stroke="black" points="953,-129.5 1018,-129.5 "/>
<text text-anchor="middle" x="985.5" y="-114.3" font-family="Times,serif" font-size="14.00">42</text>
<polyline fill="none" stroke="black" points="953,-106.5 1018,-106.5 "/>
<text text-anchor="middle" x="985.5" y="-91.3" font-family="Times,serif" font-size="14.00">42</text>
</g>
<!-- p1&#45;&gt;p2 -->
<g id="edge15" class="edge"><title>p1:f0&#45;&gt;p2:head</title>
<path fill="none" stroke="black" d="M1019.5,-328C1045.5,-328 1026.49,-294.247 1018.5,-269.5 1011.84,-248.859 992.925,-247.534 987.177,-232.183"/>
<polygon fill="black" stroke="black" points="990.579,-231.298 985.5,-222 983.672,-232.436 990.579,-231.298"/>
</g>
<!-- p1&#45;&gt;p2 -->
<g id="edge16" class="edge"><title>p1:f1&#45;&gt;p2:head</title>
<path fill="none" stroke="black" d="M1019.5,-304C1034.84,-304 1023.3,-284.07 1018.5,-269.5 1011.72,-248.899 992.887,-247.547 987.168,-232.186"/>
<polygon fill="black" stroke="black" points="990.57,-231.303 985.5,-222 983.663,-232.434 990.57,-231.303"/>
</g>
<!-- p1&#45;&gt;p2 -->
<g id="edge17" class="edge"><title>p1:f2&#45;&gt;p2:head</title>
<path fill="none" stroke="black" d="M985.5,-269C985.5,-252.028 985.5,-245.398 985.5,-232.304"/>
<polygon fill="black" stroke="black" points="989,-232 985.5,-222 982,-232 989,-232"/>
</g>
</g>
</svg>
