<?xml version="1.0" encoding="UTF-8" standalone="no"?>
<!DOCTYPE svg PUBLIC "-//W3C//DTD SVG 1.1//EN"
 "http://www.w3.org/Graphics/SVG/1.1/DTD/svg11.dtd">
<!-- Generated by graphviz version 2.40.1 (20161225.0304)
 -->
<!-- Title: g Pages: 1 -->
<svg width="1405pt" height="584pt"
 viewBox="0.00 0.00 1405.00 584.00" xmlns="http://www.w3.org/2000/svg" xmlns:xlink="http://www.w3.org/1999/xlink">
<g id="graph0" class="graph" transform="scale(1 1) rotate(0) translate(4 580)">
<title>g</title>
<polygon fill="#ffffff" stroke="transparent" points="-4,4 -4,-580 1401,-580 1401,4 -4,4"/>
<!-- entry_0 -->
<g id="node1" class="node">
<title>entry_0</title>
<polygon fill="#ffff00" stroke="#000000" points="53,-529.5 53,-575.5 181,-575.5 181,-529.5 53,-529.5"/>
<text text-anchor="middle" x="117" y="-560.3" font-family="Times,serif" font-size="14.00" fill="#000000">val : f x = x + 1</text>
<polyline fill="none" stroke="#000000" points="53,-552.5 181,-552.5 "/>
<text text-anchor="middle" x="117" y="-537.3" font-family="Times,serif" font-size="14.00" fill="#000000">.</text>
</g>
<!-- p6 -->
<g id="node8" class="node">
<title>p6</title>
<path fill="#add8e6" stroke="#000000" d="M87.5,-237C87.5,-237 146.5,-237 146.5,-237 152.5,-237 158.5,-243 158.5,-249 158.5,-249 158.5,-294 158.5,-294 158.5,-300 152.5,-306 146.5,-306 146.5,-306 87.5,-306 87.5,-306 81.5,-306 75.5,-300 75.5,-294 75.5,-294 75.5,-249 75.5,-249 75.5,-243 81.5,-237 87.5,-237"/>
<text text-anchor="middle" x="117" y="-290.8" font-family="Times,serif" font-size="14.00" fill="#000000">Tag : 247</text>
<polyline fill="none" stroke="#000000" points="75.5,-283 158.5,-283 "/>
<text text-anchor="middle" x="117" y="-267.8" font-family="Times,serif" font-size="14.00" fill="#000000">.</text>
<polyline fill="none" stroke="#000000" points="75.5,-260 158.5,-260 "/>
<text text-anchor="middle" x="117" y="-244.8" font-family="Times,serif" font-size="14.00" fill="#000000">1</text>
</g>
<!-- entry_0&#45;&gt;p6 -->
<g id="edge1" class="edge">
<title>entry_0&#45;&gt;p6</title>
<path fill="none" stroke="#000000" d="M117,-529.0254C117,-482.266 117,-376.8053 117,-316.3443"/>
<polygon fill="#000000" stroke="#000000" points="120.5001,-316.3229 117,-306.3229 113.5001,-316.3229 120.5001,-316.3229"/>
</g>
<!-- entry_1 -->
<g id="node2" class="node">
<title>entry_1</title>
<polygon fill="#ffff00" stroke="#000000" points="414,-529.5 414,-575.5 528,-575.5 528,-529.5 414,-529.5"/>
<text text-anchor="middle" x="471" y="-560.3" font-family="Times,serif" font-size="14.00" fill="#000000">val : List.map</text>
<polyline fill="none" stroke="#000000" points="414,-552.5 528,-552.5 "/>
<text text-anchor="middle" x="471" y="-537.3" font-family="Times,serif" font-size="14.00" fill="#000000">.</text>
</g>
<!-- p7 -->
<g id="node10" class="node">
<title>p7</title>
<path fill="#add8e6" stroke="#000000" d="M441.5,-225.5C441.5,-225.5 500.5,-225.5 500.5,-225.5 506.5,-225.5 512.5,-231.5 512.5,-237.5 512.5,-237.5 512.5,-305.5 512.5,-305.5 512.5,-311.5 506.5,-317.5 500.5,-317.5 500.5,-317.5 441.5,-317.5 441.5,-317.5 435.5,-317.5 429.5,-311.5 429.5,-305.5 429.5,-305.5 429.5,-237.5 429.5,-237.5 429.5,-231.5 435.5,-225.5 441.5,-225.5"/>
<text text-anchor="middle" x="471" y="-302.3" font-family="Times,serif" font-size="14.00" fill="#000000">Tag : 247</text>
<polyline fill="none" stroke="#000000" points="429.5,-294.5 512.5,-294.5 "/>
<text text-anchor="middle" x="471" y="-279.3" font-family="Times,serif" font-size="14.00" fill="#000000">.</text>
<polyline fill="none" stroke="#000000" points="429.5,-271.5 512.5,-271.5 "/>
<text text-anchor="middle" x="471" y="-256.3" font-family="Times,serif" font-size="14.00" fill="#000000">2</text>
<polyline fill="none" stroke="#000000" points="429.5,-248.5 512.5,-248.5 "/>
<text text-anchor="middle" x="471" y="-233.3" font-family="Times,serif" font-size="14.00" fill="#000000">.</text>
</g>
<!-- entry_1&#45;&gt;p7 -->
<g id="edge3" class="edge">
<title>entry_1&#45;&gt;p7</title>
<path fill="none" stroke="#000000" d="M471,-529.0254C471,-485.1339 471,-389.521 471,-327.953"/>
<polygon fill="#000000" stroke="#000000" points="474.5001,-327.626 471,-317.6261 467.5001,-327.6261 474.5001,-327.626"/>
</g>
<!-- entry_2 -->
<g id="node3" class="node">
<title>entry_2</title>
<polygon fill="#ffff00" stroke="#000000" points="232,-529.5 232,-575.5 356,-575.5 356,-529.5 232,-529.5"/>
<text text-anchor="middle" x="294" y="-560.3" font-family="Times,serif" font-size="14.00" fill="#000000">val : List.map f</text>
<polyline fill="none" stroke="#000000" points="232,-552.5 356,-552.5 "/>
<text text-anchor="middle" x="294" y="-537.3" font-family="Times,serif" font-size="14.00" fill="#000000">.</text>
</g>
<!-- p5 -->
<g id="node13" class="node">
<title>p5</title>
<path fill="#add8e6" stroke="#000000" d="M264.5,-377.5C264.5,-377.5 323.5,-377.5 323.5,-377.5 329.5,-377.5 335.5,-383.5 335.5,-389.5 335.5,-389.5 335.5,-480.5 335.5,-480.5 335.5,-486.5 329.5,-492.5 323.5,-492.5 323.5,-492.5 264.5,-492.5 264.5,-492.5 258.5,-492.5 252.5,-486.5 252.5,-480.5 252.5,-480.5 252.5,-389.5 252.5,-389.5 252.5,-383.5 258.5,-377.5 264.5,-377.5"/>
<text text-anchor="middle" x="294" y="-477.3" font-family="Times,serif" font-size="14.00" fill="#000000">Tag : 247</text>
<polyline fill="none" stroke="#000000" points="252.5,-469.5 335.5,-469.5 "/>
<text text-anchor="middle" x="294" y="-454.3" font-family="Times,serif" font-size="14.00" fill="#000000">.</text>
<polyline fill="none" stroke="#000000" points="252.5,-446.5 335.5,-446.5 "/>
<text text-anchor="middle" x="294" y="-431.3" font-family="Times,serif" font-size="14.00" fill="#000000">1</text>
<polyline fill="none" stroke="#000000" points="252.5,-423.5 335.5,-423.5 "/>
<text text-anchor="middle" x="294" y="-408.3" font-family="Times,serif" font-size="14.00" fill="#000000">.</text>
<polyline fill="none" stroke="#000000" points="252.5,-400.5 335.5,-400.5 "/>
<text text-anchor="middle" x="294" y="-385.3" font-family="Times,serif" font-size="14.00" fill="#000000">.</text>
</g>
<!-- entry_2&#45;&gt;p5 -->
<g id="edge6" class="edge">
<title>entry_2&#45;&gt;p5</title>
<path fill="none" stroke="#000000" d="M294,-529.2858C294,-521.5255 294,-512.4402 294,-503.029"/>
<polygon fill="#000000" stroke="#000000" points="297.5001,-502.7361 294,-492.7362 290.5001,-502.7362 297.5001,-502.7361"/>
</g>
<!-- entry_3 -->
<g id="node4" class="node">
<title>entry_3</title>
<polygon fill="#ffff00" stroke="#000000" points="1010.5,-529.5 1010.5,-575.5 1195.5,-575.5 1195.5,-529.5 1010.5,-529.5"/>
<text text-anchor="middle" x="1103" y="-560.3" font-family="Times,serif" font-size="14.00" fill="#000000">val : g x y z = x + y + z</text>
<polyline fill="none" stroke="#000000" points="1010.5,-552.5 1195.5,-552.5 "/>
<text text-anchor="middle" x="1103" y="-537.3" font-family="Times,serif" font-size="14.00" fill="#000000">.</text>
</g>
<!-- p3 -->
<g id="node15" class="node">
<title>p3</title>
<path fill="#add8e6" stroke="#000000" d="M1073.5,-73.5C1073.5,-73.5 1132.5,-73.5 1132.5,-73.5 1138.5,-73.5 1144.5,-79.5 1144.5,-85.5 1144.5,-85.5 1144.5,-153.5 1144.5,-153.5 1144.5,-159.5 1138.5,-165.5 1132.5,-165.5 1132.5,-165.5 1073.5,-165.5 1073.5,-165.5 1067.5,-165.5 1061.5,-159.5 1061.5,-153.5 1061.5,-153.5 1061.5,-85.5 1061.5,-85.5 1061.5,-79.5 1067.5,-73.5 1073.5,-73.5"/>
<text text-anchor="middle" x="1103" y="-150.3" font-family="Times,serif" font-size="14.00" fill="#000000">Tag : 247</text>
<polyline fill="none" stroke="#000000" points="1061.5,-142.5 1144.5,-142.5 "/>
<text text-anchor="middle" x="1103" y="-127.3" font-family="Times,serif" font-size="14.00" fill="#000000">.</text>
<polyline fill="none" stroke="#000000" points="1061.5,-119.5 1144.5,-119.5 "/>
<text text-anchor="middle" x="1103" y="-104.3" font-family="Times,serif" font-size="14.00" fill="#000000">3</text>
<polyline fill="none" stroke="#000000" points="1061.5,-96.5 1144.5,-96.5 "/>
<text text-anchor="middle" x="1103" y="-81.3" font-family="Times,serif" font-size="14.00" fill="#000000">.</text>
</g>
<!-- entry_3&#45;&gt;p3 -->
<g id="edge10" class="edge">
<title>entry_3&#45;&gt;p3</title>
<path fill="none" stroke="#000000" d="M1103,-529.22C1103,-462.9512 1103,-271.8983 1103,-175.9272"/>
<polygon fill="#000000" stroke="#000000" points="1106.5001,-175.8257 1103,-165.8258 1099.5001,-175.8258 1106.5001,-175.8257"/>
</g>
<!-- entry_4 -->
<g id="node5" class="node">
<title>entry_4</title>
<polygon fill="#ffff00" stroke="#000000" points="724.5,-529.5 724.5,-575.5 837.5,-575.5 837.5,-529.5 724.5,-529.5"/>
<text text-anchor="middle" x="781" y="-560.3" font-family="Times,serif" font-size="14.00" fill="#000000">val : g1 = g 5</text>
<polyline fill="none" stroke="#000000" points="724.5,-552.5 837.5,-552.5 "/>
<text text-anchor="middle" x="781" y="-537.3" font-family="Times,serif" font-size="14.00" fill="#000000">.</text>
</g>
<!-- p2 -->
<g id="node18" class="node">
<title>p2</title>
<path fill="#add8e6" stroke="#000000" d="M751.5,-202.5C751.5,-202.5 810.5,-202.5 810.5,-202.5 816.5,-202.5 822.5,-208.5 822.5,-214.5 822.5,-214.5 822.5,-328.5 822.5,-328.5 822.5,-334.5 816.5,-340.5 810.5,-340.5 810.5,-340.5 751.5,-340.5 751.5,-340.5 745.5,-340.5 739.5,-334.5 739.5,-328.5 739.5,-328.5 739.5,-214.5 739.5,-214.5 739.5,-208.5 745.5,-202.5 751.5,-202.5"/>
<text text-anchor="middle" x="781" y="-325.3" font-family="Times,serif" font-size="14.00" fill="#000000">Tag : 247</text>
<polyline fill="none" stroke="#000000" points="739.5,-317.5 822.5,-317.5 "/>
<text text-anchor="middle" x="781" y="-302.3" font-family="Times,serif" font-size="14.00" fill="#000000">.</text>
<polyline fill="none" stroke="#000000" points="739.5,-294.5 822.5,-294.5 "/>
<text text-anchor="middle" x="781" y="-279.3" font-family="Times,serif" font-size="14.00" fill="#000000">2</text>
<polyline fill="none" stroke="#000000" points="739.5,-271.5 822.5,-271.5 "/>
<text text-anchor="middle" x="781" y="-256.3" font-family="Times,serif" font-size="14.00" fill="#000000">.</text>
<polyline fill="none" stroke="#000000" points="739.5,-248.5 822.5,-248.5 "/>
<text text-anchor="middle" x="781" y="-233.3" font-family="Times,serif" font-size="14.00" fill="#000000">5</text>
<polyline fill="none" stroke="#000000" points="739.5,-225.5 822.5,-225.5 "/>
<text text-anchor="middle" x="781" y="-210.3" font-family="Times,serif" font-size="14.00" fill="#000000">.</text>
</g>
<!-- entry_4&#45;&gt;p2 -->
<g id="edge13" class="edge">
<title>entry_4&#45;&gt;p2</title>
<path fill="none" stroke="#000000" d="M781,-529.0254C781,-490.3087 781,-411.3472 781,-351.0083"/>
<polygon fill="#000000" stroke="#000000" points="784.5001,-350.7346 781,-340.7346 777.5001,-350.7347 784.5001,-350.7346"/>
</g>
<!-- entry_5 -->
<g id="node6" class="node">
<title>entry_5</title>
<polygon fill="#ffff00" stroke="#000000" points="1213.5,-529.5 1213.5,-575.5 1326.5,-575.5 1326.5,-529.5 1213.5,-529.5"/>
<text text-anchor="middle" x="1270" y="-560.3" font-family="Times,serif" font-size="14.00" fill="#000000">val : g2 = g 7</text>
<polyline fill="none" stroke="#000000" points="1213.5,-552.5 1326.5,-552.5 "/>
<text text-anchor="middle" x="1270" y="-537.3" font-family="Times,serif" font-size="14.00" fill="#000000">.</text>
</g>
<!-- p4 -->
<g id="node20" class="node">
<title>p4</title>
<path fill="#add8e6" stroke="#000000" d="M1192.5,-202.5C1192.5,-202.5 1251.5,-202.5 1251.5,-202.5 1257.5,-202.5 1263.5,-208.5 1263.5,-214.5 1263.5,-214.5 1263.5,-328.5 1263.5,-328.5 1263.5,-334.5 1257.5,-340.5 1251.5,-340.5 1251.5,-340.5 1192.5,-340.5 1192.5,-340.5 1186.5,-340.5 1180.5,-334.5 1180.5,-328.5 1180.5,-328.5 1180.5,-214.5 1180.5,-214.5 1180.5,-208.5 1186.5,-202.5 1192.5,-202.5"/>
<text text-anchor="middle" x="1222" y="-325.3" font-family="Times,serif" font-size="14.00" fill="#000000">Tag : 247</text>
<polyline fill="none" stroke="#000000" points="1180.5,-317.5 1263.5,-317.5 "/>
<text text-anchor="middle" x="1222" y="-302.3" font-family="Times,serif" font-size="14.00" fill="#000000">.</text>
<polyline fill="none" stroke="#000000" points="1180.5,-294.5 1263.5,-294.5 "/>
<text text-anchor="middle" x="1222" y="-279.3" font-family="Times,serif" font-size="14.00" fill="#000000">2</text>
<polyline fill="none" stroke="#000000" points="1180.5,-271.5 1263.5,-271.5 "/>
<text text-anchor="middle" x="1222" y="-256.3" font-family="Times,serif" font-size="14.00" fill="#000000">.</text>
<polyline fill="none" stroke="#000000" points="1180.5,-248.5 1263.5,-248.5 "/>
<text text-anchor="middle" x="1222" y="-233.3" font-family="Times,serif" font-size="14.00" fill="#000000">7</text>
<polyline fill="none" stroke="#000000" points="1180.5,-225.5 1263.5,-225.5 "/>
<text text-anchor="middle" x="1222" y="-210.3" font-family="Times,serif" font-size="14.00" fill="#000000">.</text>
</g>
<!-- entry_5&#45;&gt;p4 -->
<g id="edge17" class="edge">
<title>entry_5&#45;&gt;p4</title>
<path fill="none" stroke="#000000" d="M1265.9901,-529.0254C1259.3629,-490.2287 1245.8327,-411.0207 1235.5176,-350.6345"/>
<polygon fill="#000000" stroke="#000000" points="1238.9605,-350.0025 1233.8266,-340.7346 1232.0604,-351.1812 1238.9605,-350.0025"/>
</g>
<!-- entry_6 -->
<g id="node7" class="node">
<title>entry_6</title>
<polygon fill="#ffff00" stroke="#000000" points="858.5,-529.5 858.5,-575.5 989.5,-575.5 989.5,-529.5 858.5,-529.5"/>
<text text-anchor="middle" x="924" y="-560.3" font-family="Times,serif" font-size="14.00" fill="#000000">val : g3 = g1 42</text>
<polyline fill="none" stroke="#000000" points="858.5,-552.5 989.5,-552.5 "/>
<text text-anchor="middle" x="924" y="-537.3" font-family="Times,serif" font-size="14.00" fill="#000000">.</text>
</g>
<!-- p1 -->
<g id="node22" class="node">
<title>p1</title>
<path fill="#add8e6" stroke="#000000" d="M894.5,-377.5C894.5,-377.5 953.5,-377.5 953.5,-377.5 959.5,-377.5 965.5,-383.5 965.5,-389.5 965.5,-389.5 965.5,-480.5 965.5,-480.5 965.5,-486.5 959.5,-492.5 953.5,-492.5 953.5,-492.5 894.5,-492.5 894.5,-492.5 888.5,-492.5 882.5,-486.5 882.5,-480.5 882.5,-480.5 882.5,-389.5 882.5,-389.5 882.5,-383.5 888.5,-377.5 894.5,-377.5"/>
<text text-anchor="middle" x="924" y="-477.3" font-family="Times,serif" font-size="14.00" fill="#000000">Tag : 247</text>
<polyline fill="none" stroke="#000000" points="882.5,-469.5 965.5,-469.5 "/>
<text text-anchor="middle" x="924" y="-454.3" font-family="Times,serif" font-size="14.00" fill="#000000">.</text>
<polyline fill="none" stroke="#000000" points="882.5,-446.5 965.5,-446.5 "/>
<text text-anchor="middle" x="924" y="-431.3" font-family="Times,serif" font-size="14.00" fill="#000000">1</text>
<polyline fill="none" stroke="#000000" points="882.5,-423.5 965.5,-423.5 "/>
<text text-anchor="middle" x="924" y="-408.3" font-family="Times,serif" font-size="14.00" fill="#000000">42</text>
<polyline fill="none" stroke="#000000" points="882.5,-400.5 965.5,-400.5 "/>
<text text-anchor="middle" x="924" y="-385.3" font-family="Times,serif" font-size="14.00" fill="#000000">.</text>
</g>
<!-- entry_6&#45;&gt;p1 -->
<g id="edge21" class="edge">
<title>entry_6&#45;&gt;p1</title>
<path fill="none" stroke="#000000" d="M924,-529.2858C924,-521.5255 924,-512.4402 924,-503.029"/>
<polygon fill="#000000" stroke="#000000" points="927.5001,-502.7361 924,-492.7362 920.5001,-502.7362 927.5001,-502.7361"/>
</g>
<!-- e47285573477320 -->
<g id="node9" class="node">
<title>e47285573477320</title>
<path fill="#c0c0c0" stroke="#000000" d="M12,-101.5C12,-101.5 222,-101.5 222,-101.5 228,-101.5 234,-107.5 234,-113.5 234,-113.5 234,-125.5 234,-125.5 234,-131.5 228,-137.5 222,-137.5 222,-137.5 12,-137.5 12,-137.5 6,-137.5 0,-131.5 0,-125.5 0,-125.5 0,-113.5 0,-113.5 0,-107.5 6,-101.5 12,-101.5"/>
<text text-anchor="middle" x="117" y="-115.8" font-family="Times,serif" font-size="14.00" fill="#000000">Out of heap : 0x2b0187cf63c8</text>
</g>
<!-- p6&#45;&gt;e47285573477320 -->
<g id="edge2" class="edge">
<title>p6:f0&#45;&gt;e47285573477320:head</title>
<path fill="none" stroke="#000000" d="M159,-271.5C174.5556,-271.5 161.6673,-251.8252 159,-236.5 153.4629,-204.6868 140.0508,-170.0933 129.8607,-146.8372"/>
<polygon fill="#000000" stroke="#000000" points="133.007,-145.2994 125.7231,-137.6056 126.6193,-148.1625 133.007,-145.2994"/>
</g>
<!-- e47285573476976 -->
<g id="node11" class="node">
<title>e47285573476976</title>
<path fill="#c0c0c0" stroke="#000000" d="M567.5,-101.5C567.5,-101.5 778.5,-101.5 778.5,-101.5 784.5,-101.5 790.5,-107.5 790.5,-113.5 790.5,-113.5 790.5,-125.5 790.5,-125.5 790.5,-131.5 784.5,-137.5 778.5,-137.5 778.5,-137.5 567.5,-137.5 567.5,-137.5 561.5,-137.5 555.5,-131.5 555.5,-125.5 555.5,-125.5 555.5,-113.5 555.5,-113.5 555.5,-107.5 561.5,-101.5 567.5,-101.5"/>
<text text-anchor="middle" x="673" y="-115.8" font-family="Times,serif" font-size="14.00" fill="#000000">Out of heap : 0x2b0187cf6270</text>
</g>
<!-- p7&#45;&gt;e47285573476976 -->
<g id="edge4" class="edge">
<title>p7:f0&#45;&gt;e47285573476976:head</title>
<path fill="none" stroke="#000000" d="M513,-283.5C588.3867,-283.5 639.8438,-193.6182 661.4856,-146.9355"/>
<polygon fill="#000000" stroke="#000000" points="664.7396,-148.2332 665.649,-137.6775 658.3554,-145.3621 664.7396,-148.2332"/>
</g>
<!-- e47285573503800 -->
<g id="node12" class="node">
<title>e47285573503800</title>
<path fill="#c0c0c0" stroke="#000000" d="M315,-101.5C315,-101.5 525,-101.5 525,-101.5 531,-101.5 537,-107.5 537,-113.5 537,-113.5 537,-125.5 537,-125.5 537,-131.5 531,-137.5 525,-137.5 525,-137.5 315,-137.5 315,-137.5 309,-137.5 303,-131.5 303,-125.5 303,-125.5 303,-113.5 303,-113.5 303,-107.5 309,-101.5 315,-101.5"/>
<text text-anchor="middle" x="420" y="-115.8" font-family="Times,serif" font-size="14.00" fill="#000000">Out of heap : 0x2b0187cfcb38</text>
</g>
<!-- p7&#45;&gt;e47285573503800 -->
<g id="edge5" class="edge">
<title>p7:f2&#45;&gt;e47285573503800:head</title>
<path fill="none" stroke="#000000" d="M471,-225.5C471,-196.1944 454.9751,-166.4366 440.8908,-145.9417"/>
<polygon fill="#000000" stroke="#000000" points="443.6944,-143.8452 435.0258,-137.7536 438.0036,-147.9214 443.6944,-143.8452"/>
</g>
<!-- p5&#45;&gt;p6 -->
<g id="edge8" class="edge">
<title>p5:f2&#45;&gt;p6:head</title>
<path fill="none" stroke="#000000" d="M252,-412C203.1172,-412 192.7173,-383.1733 168,-341 164.2996,-334.6863 166.4824,-314.6717 164.618,-303.0615"/>
<polygon fill="#000000" stroke="#000000" points="167.4125,-300.9405 159,-294.5 161.56,-304.7809 167.4125,-300.9405"/>
</g>
<!-- p5&#45;&gt;p7 -->
<g id="edge9" class="edge">
<title>p5:f3&#45;&gt;p7:head</title>
<path fill="none" stroke="#000000" d="M336,-389C378.9987,-389 393.861,-375.1415 420,-341 426.1712,-332.9395 421.6258,-321.0477 421.7279,-313.5415"/>
<polygon fill="#000000" stroke="#000000" points="424.2506,-315.9707 429,-306.5 419.3812,-310.9419 424.2506,-315.9707"/>
</g>
<!-- e47285573477792 -->
<g id="node14" class="node">
<title>e47285573477792</title>
<path fill="#c0c0c0" stroke="#000000" d="M189,-253.5C189,-253.5 399,-253.5 399,-253.5 405,-253.5 411,-259.5 411,-265.5 411,-265.5 411,-277.5 411,-277.5 411,-283.5 405,-289.5 399,-289.5 399,-289.5 189,-289.5 189,-289.5 183,-289.5 177,-283.5 177,-277.5 177,-277.5 177,-265.5 177,-265.5 177,-259.5 183,-253.5 189,-253.5"/>
<text text-anchor="middle" x="294" y="-267.8" font-family="Times,serif" font-size="14.00" fill="#000000">Out of heap : 0x2b0187cf65a0</text>
</g>
<!-- p5&#45;&gt;e47285573477792 -->
<g id="edge7" class="edge">
<title>p5:f0&#45;&gt;e47285573477792:head</title>
<path fill="none" stroke="#000000" d="M336,-458C400.6541,-458 342.5909,-350.0076 311.1365,-298.3768"/>
<polygon fill="#000000" stroke="#000000" points="314.0236,-296.3907 305.7909,-289.722 308.068,-300.0692 314.0236,-296.3907"/>
</g>
<!-- e47285573476856 -->
<g id="node16" class="node">
<title>e47285573476856</title>
<path fill="#c0c0c0" stroke="#000000" d="M873.5,-.5C873.5,-.5 1080.5,-.5 1080.5,-.5 1086.5,-.5 1092.5,-6.5 1092.5,-12.5 1092.5,-12.5 1092.5,-24.5 1092.5,-24.5 1092.5,-30.5 1086.5,-36.5 1080.5,-36.5 1080.5,-36.5 873.5,-36.5 873.5,-36.5 867.5,-36.5 861.5,-30.5 861.5,-24.5 861.5,-24.5 861.5,-12.5 861.5,-12.5 861.5,-6.5 867.5,-.5 873.5,-.5"/>
<text text-anchor="middle" x="977" y="-14.8" font-family="Times,serif" font-size="14.00" fill="#000000">Out of heap : 0x2b0187cf61f8</text>
</g>
<!-- p3&#45;&gt;e47285573476856 -->
<g id="edge11" class="edge">
<title>p3:f0&#45;&gt;e47285573476856:head</title>
<path fill="none" stroke="#000000" d="M1061,-131.5C1047.879,-131.5 1059.7718,-84.2385 1053,-73 1045.5827,-60.6903 1034.2087,-50.3774 1022.5008,-42.1522"/>
<polygon fill="#000000" stroke="#000000" points="1024.2452,-39.1102 1013.9685,-36.5333 1020.3952,-44.9564 1024.2452,-39.1102"/>
</g>
<!-- e47285573477328 -->
<g id="node17" class="node">
<title>e47285573477328</title>
<path fill="#c0c0c0" stroke="#000000" d="M1122.5,-.5C1122.5,-.5 1333.5,-.5 1333.5,-.5 1339.5,-.5 1345.5,-6.5 1345.5,-12.5 1345.5,-12.5 1345.5,-24.5 1345.5,-24.5 1345.5,-30.5 1339.5,-36.5 1333.5,-36.5 1333.5,-36.5 1122.5,-36.5 1122.5,-36.5 1116.5,-36.5 1110.5,-30.5 1110.5,-24.5 1110.5,-24.5 1110.5,-12.5 1110.5,-12.5 1110.5,-6.5 1116.5,-.5 1122.5,-.5"/>
<text text-anchor="middle" x="1228" y="-14.8" font-family="Times,serif" font-size="14.00" fill="#000000">Out of heap : 0x2b0187cf63d0</text>
</g>
<!-- p3&#45;&gt;e47285573477328 -->
<g id="edge12" class="edge">
<title>p3:f2&#45;&gt;e47285573477328:head</title>
<path fill="none" stroke="#000000" d="M1145,-84.5C1151.4903,-84.5 1149.3441,-77.5217 1154,-73 1165.3459,-61.9813 1179.0001,-51.3244 1191.474,-42.4013"/>
<polygon fill="#000000" stroke="#000000" points="1193.6936,-45.1199 1199.8783,-36.5176 1189.679,-39.3855 1193.6936,-45.1199"/>
</g>
<!-- p2&#45;&gt;e47285573476976 -->
<g id="edge14" class="edge">
<title>p2:f0&#45;&gt;e47285573476976:head</title>
<path fill="none" stroke="#000000" d="M739,-306.5C672.6272,-306.5 668.7918,-200.4483 670.9445,-148.0746"/>
<polygon fill="#000000" stroke="#000000" points="674.4561,-147.9374 671.4744,-137.7708 667.4653,-147.5778 674.4561,-147.9374"/>
</g>
<!-- p2&#45;&gt;p3 -->
<g id="edge16" class="edge">
<title>p2:f4&#45;&gt;p3:head</title>
<path fill="none" stroke="#000000" d="M823,-213.5C829.4903,-213.5 826.4137,-205.3041 832,-202 917.6562,-151.3381 968.8022,-219.0504 1053,-166 1054.1523,-165.274 1054.8854,-164.3153 1055.3926,-163.2605"/>
<polygon fill="#000000" stroke="#000000" points="1058.5568,-164.8093 1061,-154.5 1052.6611,-161.0356 1058.5568,-164.8093"/>
</g>
<!-- e47285573477336 -->
<g id="node19" class="node">
<title>e47285573477336</title>
<path fill="#c0c0c0" stroke="#000000" d="M820.5,-101.5C820.5,-101.5 1031.5,-101.5 1031.5,-101.5 1037.5,-101.5 1043.5,-107.5 1043.5,-113.5 1043.5,-113.5 1043.5,-125.5 1043.5,-125.5 1043.5,-131.5 1037.5,-137.5 1031.5,-137.5 1031.5,-137.5 820.5,-137.5 820.5,-137.5 814.5,-137.5 808.5,-131.5 808.5,-125.5 808.5,-125.5 808.5,-113.5 808.5,-113.5 808.5,-107.5 814.5,-101.5 820.5,-101.5"/>
<text text-anchor="middle" x="926" y="-115.8" font-family="Times,serif" font-size="14.00" fill="#000000">Out of heap : 0x2b0187cf63d8</text>
</g>
<!-- p2&#45;&gt;e47285573477336 -->
<g id="edge15" class="edge">
<title>p2:f2&#45;&gt;e47285573477336:head</title>
<path fill="none" stroke="#000000" d="M823,-259.5C835.9334,-259.5 825.767,-213.3323 832,-202 845.0936,-178.1945 867.8439,-157.9509 887.6831,-143.4743"/>
<polygon fill="#000000" stroke="#000000" points="889.8157,-146.2532 895.9707,-137.6296 885.7814,-140.5327 889.8157,-146.2532"/>
</g>
<!-- p4&#45;&gt;e47285573476976 -->
<g id="edge18" class="edge">
<title>p4:f0&#45;&gt;e47285573476976:head</title>
<path fill="none" stroke="#000000" d="M1180,-306.5C1116.9323,-306.5 1140.0299,-230.9513 1084,-202 970.9656,-143.5938 923.6297,-196.0624 800,-166 774.5468,-159.8107 747.1591,-150.1849 724.3569,-141.2932"/>
<polygon fill="#000000" stroke="#000000" points="725.4703,-137.9697 714.8842,-137.5396 722.8916,-144.4774 725.4703,-137.9697"/>
</g>
<!-- p4&#45;&gt;p3 -->
<g id="edge20" class="edge">
<title>p4:f4&#45;&gt;p3:head</title>
<path fill="none" stroke="#000000" d="M1180,-213.5C1174.1047,-213.5 1160.9512,-178.2059 1151.767,-162.2132"/>
<polygon fill="#000000" stroke="#000000" points="1154.2259,-159.7089 1145,-154.5 1148.9639,-164.3254 1154.2259,-159.7089"/>
</g>
<!-- e47285573477344 -->
<g id="node21" class="node">
<title>e47285573477344</title>
<path fill="#c0c0c0" stroke="#000000" d="M1175,-101.5C1175,-101.5 1385,-101.5 1385,-101.5 1391,-101.5 1397,-107.5 1397,-113.5 1397,-113.5 1397,-125.5 1397,-125.5 1397,-131.5 1391,-137.5 1385,-137.5 1385,-137.5 1175,-137.5 1175,-137.5 1169,-137.5 1163,-131.5 1163,-125.5 1163,-125.5 1163,-113.5 1163,-113.5 1163,-107.5 1169,-101.5 1175,-101.5"/>
<text text-anchor="middle" x="1280" y="-115.8" font-family="Times,serif" font-size="14.00" fill="#000000">Out of heap : 0x2b0187cf63e0</text>
</g>
<!-- p4&#45;&gt;e47285573477344 -->
<g id="edge19" class="edge">
<title>p4:f2&#45;&gt;e47285573477344:head</title>
<path fill="none" stroke="#000000" d="M1264,-259.5C1308.6719,-259.5 1297.7557,-188.2687 1287.8244,-147.4245"/>
<polygon fill="#000000" stroke="#000000" points="1291.159,-146.337 1285.2906,-137.5159 1284.3773,-148.0713 1291.159,-146.337"/>
</g>
<!-- p1&#45;&gt;p2 -->
<g id="edge23" class="edge">
<title>p1:f3&#45;&gt;p2:head</title>
<path fill="none" stroke="#000000" d="M882,-389C851.1952,-389 852.6556,-363.8535 832,-341 830.912,-339.7962 830.2112,-338.4756 829.6705,-337.1718"/>
<polygon fill="#000000" stroke="#000000" points="832.2027,-334.7499 823,-329.5 826.9202,-339.3429 832.2027,-334.7499"/>
</g>
<!-- e47285573477352 -->
<g id="node23" class="node">
<title>e47285573477352</title>
<path fill="#c0c0c0" stroke="#000000" d="M853,-253.5C853,-253.5 1063,-253.5 1063,-253.5 1069,-253.5 1075,-259.5 1075,-265.5 1075,-265.5 1075,-277.5 1075,-277.5 1075,-283.5 1069,-289.5 1063,-289.5 1063,-289.5 853,-289.5 853,-289.5 847,-289.5 841,-283.5 841,-277.5 841,-277.5 841,-265.5 841,-265.5 841,-259.5 847,-253.5 853,-253.5"/>
<text text-anchor="middle" x="958" y="-267.8" font-family="Times,serif" font-size="14.00" fill="#000000">Out of heap : 0x2b0187cf63e8</text>
</g>
<!-- p1&#45;&gt;e47285573477352 -->
<g id="edge22" class="edge">
<title>p1:f0&#45;&gt;e47285573477352:head</title>
<path fill="none" stroke="#000000" d="M966,-458C1028.871,-458 991.8605,-350.9001 970.2446,-299.0211"/>
<polygon fill="#000000" stroke="#000000" points="973.4238,-297.5533 966.288,-289.722 966.9827,-300.294 973.4238,-297.5533"/>
</g>
</g>
</svg>
