<?xml version="1.0" encoding="UTF-8" standalone="no"?>
<!DOCTYPE svg PUBLIC "-//W3C//DTD SVG 1.1//EN"
 "http://www.w3.org/Graphics/SVG/1.1/DTD/svg11.dtd">
<!-- Generated by graphviz version 2.38.0 (20140413.2041)
 -->
<!-- Title: g Pages: 1 -->
<svg width="1025pt" height="594pt"
 viewBox="0.00 0.00 1024.50 594.00" xmlns="http://www.w3.org/2000/svg" xmlns:xlink="http://www.w3.org/1999/xlink">
<g id="graph0" class="graph" transform="scale(1 1) rotate(0) translate(4 590)">
<title>g</title>
<polygon fill="white" stroke="none" points="-4,4 -4,-590 1020.5,-590 1020.5,4 -4,4"/>
<!-- entry_0 -->
<g id="node1" class="node"><title>entry_0</title>
<polygon fill="yellow" stroke="black" points="0,-539.5 0,-585.5 128,-585.5 128,-539.5 0,-539.5"/>
<text text-anchor="middle" x="64" y="-570.3" font-family="Times,serif" font-size="14.00">val : f x = x + 1</text>
<polyline fill="none" stroke="black" points="0,-562.5 128,-562.5 "/>
<text text-anchor="middle" x="64" y="-547.3" font-family="Times,serif" font-size="14.00">.</text>
</g>
<!-- p12 -->
<g id="node8" class="node"><title>p12</title>
<path fill="lightblue" stroke="black" d="M51.5,-247C51.5,-247 110.5,-247 110.5,-247 116.5,-247 122.5,-253 122.5,-259 122.5,-259 122.5,-304 122.5,-304 122.5,-310 116.5,-316 110.5,-316 110.5,-316 51.5,-316 51.5,-316 45.5,-316 39.5,-310 39.5,-304 39.5,-304 39.5,-259 39.5,-259 39.5,-253 45.5,-247 51.5,-247"/>
<text text-anchor="middle" x="81" y="-300.8" font-family="Times,serif" font-size="14.00">Tag : 247</text>
<polyline fill="none" stroke="black" points="39.5,-293 122.5,-293 "/>
<text text-anchor="middle" x="81" y="-277.8" font-family="Times,serif" font-size="14.00">.</text>
<polyline fill="none" stroke="black" points="39.5,-270 122.5,-270 "/>
<text text-anchor="middle" x="81" y="-254.8" font-family="Times,serif" font-size="14.00">1</text>
</g>
<!-- entry_0&#45;&gt;p12 -->
<g id="edge1" class="edge"><title>entry_0&#45;&gt;p12</title>
<path fill="none" stroke="black" d="M65.3624,-539.14C68.1704,-493.057 74.6457,-386.785 78.3226,-326.442"/>
<polygon fill="black" stroke="black" points="81.8166,-326.645 78.9313,-316.45 74.8295,-326.219 81.8166,-326.645"/>
</g>
<!-- entry_1 -->
<g id="node2" class="node"><title>entry_1</title>
<polygon fill="yellow" stroke="black" points="288,-539.5 288,-585.5 402,-585.5 402,-539.5 288,-539.5"/>
<text text-anchor="middle" x="345" y="-570.3" font-family="Times,serif" font-size="14.00">val : List.map</text>
<polyline fill="none" stroke="black" points="288,-562.5 402,-562.5 "/>
<text text-anchor="middle" x="345" y="-547.3" font-family="Times,serif" font-size="14.00">.</text>
</g>
<!-- p14 -->
<g id="node10" class="node"><title>p14</title>
<path fill="lightblue" stroke="black" d="M302.5,-235.5C302.5,-235.5 361.5,-235.5 361.5,-235.5 367.5,-235.5 373.5,-241.5 373.5,-247.5 373.5,-247.5 373.5,-315.5 373.5,-315.5 373.5,-321.5 367.5,-327.5 361.5,-327.5 361.5,-327.5 302.5,-327.5 302.5,-327.5 296.5,-327.5 290.5,-321.5 290.5,-315.5 290.5,-315.5 290.5,-247.5 290.5,-247.5 290.5,-241.5 296.5,-235.5 302.5,-235.5"/>
<text text-anchor="middle" x="332" y="-312.3" font-family="Times,serif" font-size="14.00">Tag : 247</text>
<polyline fill="none" stroke="black" points="290.5,-304.5 373.5,-304.5 "/>
<text text-anchor="middle" x="332" y="-289.3" font-family="Times,serif" font-size="14.00">.</text>
<polyline fill="none" stroke="black" points="290.5,-281.5 373.5,-281.5 "/>
<text text-anchor="middle" x="332" y="-266.3" font-family="Times,serif" font-size="14.00">2</text>
<polyline fill="none" stroke="black" points="290.5,-258.5 373.5,-258.5 "/>
<text text-anchor="middle" x="332" y="-243.3" font-family="Times,serif" font-size="14.00">.</text>
</g>
<!-- entry_1&#45;&gt;p14 -->
<g id="edge3" class="edge"><title>entry_1&#45;&gt;p14</title>
<path fill="none" stroke="black" d="M343.958,-539.14C341.942,-495.868 337.453,-399.528 334.585,-337.975"/>
<polygon fill="black" stroke="black" points="338.066,-337.484 334.104,-327.658 331.073,-337.81 338.066,-337.484"/>
</g>
<!-- entry_2 -->
<g id="node3" class="node"><title>entry_2</title>
<polygon fill="yellow" stroke="black" points="146,-539.5 146,-585.5 270,-585.5 270,-539.5 146,-539.5"/>
<text text-anchor="middle" x="208" y="-570.3" font-family="Times,serif" font-size="14.00">val : List.map f</text>
<polyline fill="none" stroke="black" points="146,-562.5 270,-562.5 "/>
<text text-anchor="middle" x="208" y="-547.3" font-family="Times,serif" font-size="14.00">.</text>
</g>
<!-- p10 -->
<g id="node13" class="node"><title>p10</title>
<path fill="lightblue" stroke="black" d="M178.5,-387.5C178.5,-387.5 237.5,-387.5 237.5,-387.5 243.5,-387.5 249.5,-393.5 249.5,-399.5 249.5,-399.5 249.5,-490.5 249.5,-490.5 249.5,-496.5 243.5,-502.5 237.5,-502.5 237.5,-502.5 178.5,-502.5 178.5,-502.5 172.5,-502.5 166.5,-496.5 166.5,-490.5 166.5,-490.5 166.5,-399.5 166.5,-399.5 166.5,-393.5 172.5,-387.5 178.5,-387.5"/>
<text text-anchor="middle" x="208" y="-487.3" font-family="Times,serif" font-size="14.00">Tag : 247</text>
<polyline fill="none" stroke="black" points="166.5,-479.5 249.5,-479.5 "/>
<text text-anchor="middle" x="208" y="-464.3" font-family="Times,serif" font-size="14.00">.</text>
<polyline fill="none" stroke="black" points="166.5,-456.5 249.5,-456.5 "/>
<text text-anchor="middle" x="208" y="-441.3" font-family="Times,serif" font-size="14.00">1</text>
<polyline fill="none" stroke="black" points="166.5,-433.5 249.5,-433.5 "/>
<text text-anchor="middle" x="208" y="-418.3" font-family="Times,serif" font-size="14.00">.</text>
<polyline fill="none" stroke="black" points="166.5,-410.5 249.5,-410.5 "/>
<text text-anchor="middle" x="208" y="-395.3" font-family="Times,serif" font-size="14.00">.</text>
</g>
<!-- entry_2&#45;&gt;p10 -->
<g id="edge6" class="edge"><title>entry_2&#45;&gt;p10</title>
<path fill="none" stroke="black" d="M208,-539.23C208,-531.528 208,-522.451 208,-513.035"/>
<polygon fill="black" stroke="black" points="211.5,-512.735 208,-502.735 204.5,-512.735 211.5,-512.735"/>
</g>
<!-- entry_3 -->
<g id="node4" class="node"><title>entry_3</title>
<polygon fill="yellow" stroke="black" points="420.5,-539.5 420.5,-585.5 605.5,-585.5 605.5,-539.5 420.5,-539.5"/>
<text text-anchor="middle" x="513" y="-570.3" font-family="Times,serif" font-size="14.00">val : g x y z = x + y + z</text>
<polyline fill="none" stroke="black" points="420.5,-562.5 605.5,-562.5 "/>
<text text-anchor="middle" x="513" y="-547.3" font-family="Times,serif" font-size="14.00">.</text>
</g>
<!-- p6 -->
<g id="node15" class="node"><title>p6</title>
<path fill="lightblue" stroke="black" d="M654.5,-83.5C654.5,-83.5 713.5,-83.5 713.5,-83.5 719.5,-83.5 725.5,-89.5 725.5,-95.5 725.5,-95.5 725.5,-163.5 725.5,-163.5 725.5,-169.5 719.5,-175.5 713.5,-175.5 713.5,-175.5 654.5,-175.5 654.5,-175.5 648.5,-175.5 642.5,-169.5 642.5,-163.5 642.5,-163.5 642.5,-95.5 642.5,-95.5 642.5,-89.5 648.5,-83.5 654.5,-83.5"/>
<text text-anchor="middle" x="684" y="-160.3" font-family="Times,serif" font-size="14.00">Tag : 247</text>
<polyline fill="none" stroke="black" points="642.5,-152.5 725.5,-152.5 "/>
<text text-anchor="middle" x="684" y="-137.3" font-family="Times,serif" font-size="14.00">.</text>
<polyline fill="none" stroke="black" points="642.5,-129.5 725.5,-129.5 "/>
<text text-anchor="middle" x="684" y="-114.3" font-family="Times,serif" font-size="14.00">3</text>
<polyline fill="none" stroke="black" points="642.5,-106.5 725.5,-106.5 "/>
<text text-anchor="middle" x="684" y="-91.3" font-family="Times,serif" font-size="14.00">.</text>
</g>
<!-- entry_3&#45;&gt;p6 -->
<g id="edge10" class="edge"><title>entry_3&#45;&gt;p6</title>
<path fill="none" stroke="black" d="M520.243,-539.492C538.757,-483.854 590.094,-333.36 643,-212 646.852,-203.164 651.19,-193.923 655.565,-184.969"/>
<polygon fill="black" stroke="black" points="658.818,-186.285 660.118,-175.771 652.545,-183.18 658.818,-186.285"/>
</g>
<!-- entry_4 -->
<g id="node5" class="node"><title>entry_4</title>
<polygon fill="yellow" stroke="black" points="623.5,-539.5 623.5,-585.5 736.5,-585.5 736.5,-539.5 623.5,-539.5"/>
<text text-anchor="middle" x="680" y="-570.3" font-family="Times,serif" font-size="14.00">val : g1 = g 5</text>
<polyline fill="none" stroke="black" points="623.5,-562.5 736.5,-562.5 "/>
<text text-anchor="middle" x="680" y="-547.3" font-family="Times,serif" font-size="14.00">.</text>
</g>
<!-- p3 -->
<g id="node18" class="node"><title>p3</title>
<path fill="lightblue" stroke="black" d="M664.5,-212.5C664.5,-212.5 723.5,-212.5 723.5,-212.5 729.5,-212.5 735.5,-218.5 735.5,-224.5 735.5,-224.5 735.5,-338.5 735.5,-338.5 735.5,-344.5 729.5,-350.5 723.5,-350.5 723.5,-350.5 664.5,-350.5 664.5,-350.5 658.5,-350.5 652.5,-344.5 652.5,-338.5 652.5,-338.5 652.5,-224.5 652.5,-224.5 652.5,-218.5 658.5,-212.5 664.5,-212.5"/>
<text text-anchor="middle" x="694" y="-335.3" font-family="Times,serif" font-size="14.00">Tag : 247</text>
<polyline fill="none" stroke="black" points="652.5,-327.5 735.5,-327.5 "/>
<text text-anchor="middle" x="694" y="-312.3" font-family="Times,serif" font-size="14.00">.</text>
<polyline fill="none" stroke="black" points="652.5,-304.5 735.5,-304.5 "/>
<text text-anchor="middle" x="694" y="-289.3" font-family="Times,serif" font-size="14.00">2</text>
<polyline fill="none" stroke="black" points="652.5,-281.5 735.5,-281.5 "/>
<text text-anchor="middle" x="694" y="-266.3" font-family="Times,serif" font-size="14.00">.</text>
<polyline fill="none" stroke="black" points="652.5,-258.5 735.5,-258.5 "/>
<text text-anchor="middle" x="694" y="-243.3" font-family="Times,serif" font-size="14.00">5</text>
<polyline fill="none" stroke="black" points="652.5,-235.5 735.5,-235.5 "/>
<text text-anchor="middle" x="694" y="-220.3" font-family="Times,serif" font-size="14.00">.</text>
</g>
<!-- entry_4&#45;&gt;p3 -->
<g id="edge13" class="edge"><title>entry_4&#45;&gt;p3</title>
<path fill="none" stroke="black" d="M681.122,-539.14C683.039,-500.941 687.031,-421.387 690.065,-360.915"/>
<polygon fill="black" stroke="black" points="693.576,-360.786 690.582,-350.623 686.585,-360.435 693.576,-360.786"/>
</g>
<!-- entry_5 -->
<g id="node6" class="node"><title>entry_5</title>
<polygon fill="yellow" stroke="black" points="903.5,-539.5 903.5,-585.5 1016.5,-585.5 1016.5,-539.5 903.5,-539.5"/>
<text text-anchor="middle" x="960" y="-570.3" font-family="Times,serif" font-size="14.00">val : g2 = g 7</text>
<polyline fill="none" stroke="black" points="903.5,-562.5 1016.5,-562.5 "/>
<text text-anchor="middle" x="960" y="-547.3" font-family="Times,serif" font-size="14.00">.</text>
</g>
<!-- p9 -->
<g id="node21" class="node"><title>p9</title>
<path fill="lightblue" stroke="black" d="M886.5,-212.5C886.5,-212.5 945.5,-212.5 945.5,-212.5 951.5,-212.5 957.5,-218.5 957.5,-224.5 957.5,-224.5 957.5,-338.5 957.5,-338.5 957.5,-344.5 951.5,-350.5 945.5,-350.5 945.5,-350.5 886.5,-350.5 886.5,-350.5 880.5,-350.5 874.5,-344.5 874.5,-338.5 874.5,-338.5 874.5,-224.5 874.5,-224.5 874.5,-218.5 880.5,-212.5 886.5,-212.5"/>
<text text-anchor="middle" x="916" y="-335.3" font-family="Times,serif" font-size="14.00">Tag : 247</text>
<polyline fill="none" stroke="black" points="874.5,-327.5 957.5,-327.5 "/>
<text text-anchor="middle" x="916" y="-312.3" font-family="Times,serif" font-size="14.00">.</text>
<polyline fill="none" stroke="black" points="874.5,-304.5 957.5,-304.5 "/>
<text text-anchor="middle" x="916" y="-289.3" font-family="Times,serif" font-size="14.00">2</text>
<polyline fill="none" stroke="black" points="874.5,-281.5 957.5,-281.5 "/>
<text text-anchor="middle" x="916" y="-266.3" font-family="Times,serif" font-size="14.00">.</text>
<polyline fill="none" stroke="black" points="874.5,-258.5 957.5,-258.5 "/>
<text text-anchor="middle" x="916" y="-243.3" font-family="Times,serif" font-size="14.00">7</text>
<polyline fill="none" stroke="black" points="874.5,-235.5 957.5,-235.5 "/>
<text text-anchor="middle" x="916" y="-220.3" font-family="Times,serif" font-size="14.00">.</text>
</g>
<!-- entry_5&#45;&gt;p9 -->
<g id="edge17" class="edge"><title>entry_5&#45;&gt;p9</title>
<path fill="none" stroke="black" d="M956.474,-539.14C950.437,-500.862 937.851,-421.058 928.307,-360.541"/>
<polygon fill="black" stroke="black" points="931.759,-359.956 926.743,-350.623 924.844,-361.047 931.759,-359.956"/>
</g>
<!-- entry_6 -->
<g id="node7" class="node"><title>entry_6</title>
<polygon fill="yellow" stroke="black" points="754.5,-539.5 754.5,-585.5 885.5,-585.5 885.5,-539.5 754.5,-539.5"/>
<text text-anchor="middle" x="820" y="-570.3" font-family="Times,serif" font-size="14.00">val : g3 = g1 42</text>
<polyline fill="none" stroke="black" points="754.5,-562.5 885.5,-562.5 "/>
<text text-anchor="middle" x="820" y="-547.3" font-family="Times,serif" font-size="14.00">.</text>
</g>
<!-- p1 -->
<g id="node22" class="node"><title>p1</title>
<path fill="lightblue" stroke="black" d="M775.5,-387.5C775.5,-387.5 834.5,-387.5 834.5,-387.5 840.5,-387.5 846.5,-393.5 846.5,-399.5 846.5,-399.5 846.5,-490.5 846.5,-490.5 846.5,-496.5 840.5,-502.5 834.5,-502.5 834.5,-502.5 775.5,-502.5 775.5,-502.5 769.5,-502.5 763.5,-496.5 763.5,-490.5 763.5,-490.5 763.5,-399.5 763.5,-399.5 763.5,-393.5 769.5,-387.5 775.5,-387.5"/>
<text text-anchor="middle" x="805" y="-487.3" font-family="Times,serif" font-size="14.00">Tag : 247</text>
<polyline fill="none" stroke="black" points="763.5,-479.5 846.5,-479.5 "/>
<text text-anchor="middle" x="805" y="-464.3" font-family="Times,serif" font-size="14.00">.</text>
<polyline fill="none" stroke="black" points="763.5,-456.5 846.5,-456.5 "/>
<text text-anchor="middle" x="805" y="-441.3" font-family="Times,serif" font-size="14.00">1</text>
<polyline fill="none" stroke="black" points="763.5,-433.5 846.5,-433.5 "/>
<text text-anchor="middle" x="805" y="-418.3" font-family="Times,serif" font-size="14.00">42</text>
<polyline fill="none" stroke="black" points="763.5,-410.5 846.5,-410.5 "/>
<text text-anchor="middle" x="805" y="-395.3" font-family="Times,serif" font-size="14.00">.</text>
</g>
<!-- entry_6&#45;&gt;p1 -->
<g id="edge21" class="edge"><title>entry_6&#45;&gt;p1</title>
<path fill="none" stroke="black" d="M817.108,-539.23C816.097,-531.446 814.904,-522.257 813.667,-512.735"/>
<polygon fill="black" stroke="black" points="817.127,-512.201 812.368,-502.735 810.185,-513.102 817.127,-512.201"/>
</g>
<!-- p13 -->
<g id="node9" class="node"><title>p13</title>
<path fill="lightblue" stroke="black" d="M41.5,-106.5C41.5,-106.5 120.5,-106.5 120.5,-106.5 126.5,-106.5 132.5,-112.5 132.5,-118.5 132.5,-118.5 132.5,-140.5 132.5,-140.5 132.5,-146.5 126.5,-152.5 120.5,-152.5 120.5,-152.5 41.5,-152.5 41.5,-152.5 35.5,-152.5 29.5,-146.5 29.5,-140.5 29.5,-140.5 29.5,-118.5 29.5,-118.5 29.5,-112.5 35.5,-106.5 41.5,-106.5"/>
<text text-anchor="middle" x="81" y="-137.3" font-family="Times,serif" font-size="14.00">Tag : 1001</text>
<polyline fill="none" stroke="black" points="29.5,-129.5 132.5,-129.5 "/>
<text text-anchor="middle" x="81" y="-114.3" font-family="Times,serif" font-size="14.00">&lt;Abstract&gt;</text>
</g>
<!-- p12&#45;&gt;p13 -->
<g id="edge2" class="edge"><title>p12:f0&#45;&gt;p13:head</title>
<path fill="none" stroke="black" d="M124,-281.5C139.562,-281.5 126.493,-261.665 123,-246.5 113.656,-205.93 86.0749,-199.693 81.6129,-163.861"/>
<polygon fill="black" stroke="black" points="85.0845,-163.276 81,-153.5 78.0967,-163.689 85.0845,-163.276"/>
</g>
<!-- p15 -->
<g id="node11" class="node"><title>p15</title>
<path fill="lightblue" stroke="black" d="M232.5,-106.5C232.5,-106.5 311.5,-106.5 311.5,-106.5 317.5,-106.5 323.5,-112.5 323.5,-118.5 323.5,-118.5 323.5,-140.5 323.5,-140.5 323.5,-146.5 317.5,-152.5 311.5,-152.5 311.5,-152.5 232.5,-152.5 232.5,-152.5 226.5,-152.5 220.5,-146.5 220.5,-140.5 220.5,-140.5 220.5,-118.5 220.5,-118.5 220.5,-112.5 226.5,-106.5 232.5,-106.5"/>
<text text-anchor="middle" x="272" y="-137.3" font-family="Times,serif" font-size="14.00">Tag : 1001</text>
<polyline fill="none" stroke="black" points="220.5,-129.5 323.5,-129.5 "/>
<text text-anchor="middle" x="272" y="-114.3" font-family="Times,serif" font-size="14.00">&lt;Abstract&gt;</text>
</g>
<!-- p14&#45;&gt;p15 -->
<g id="edge4" class="edge"><title>p14:f0&#45;&gt;p15:head</title>
<path fill="none" stroke="black" d="M289,-293.5C262.996,-293.5 284.705,-260.459 290,-235 293.547,-217.946 326.778,-170.032 330.154,-150.231"/>
<polygon fill="black" stroke="black" points="333.097,-148.332 325,-141.5 327.069,-151.891 333.097,-148.332"/>
</g>
<!-- p16 -->
<g id="node12" class="node"><title>p16</title>
<path fill="lightblue" stroke="black" d="M353.5,-106.5C353.5,-106.5 432.5,-106.5 432.5,-106.5 438.5,-106.5 444.5,-112.5 444.5,-118.5 444.5,-118.5 444.5,-140.5 444.5,-140.5 444.5,-146.5 438.5,-152.5 432.5,-152.5 432.5,-152.5 353.5,-152.5 353.5,-152.5 347.5,-152.5 341.5,-146.5 341.5,-140.5 341.5,-140.5 341.5,-118.5 341.5,-118.5 341.5,-112.5 347.5,-106.5 353.5,-106.5"/>
<text text-anchor="middle" x="393" y="-137.3" font-family="Times,serif" font-size="14.00">Tag : 1001</text>
<polyline fill="none" stroke="black" points="341.5,-129.5 444.5,-129.5 "/>
<text text-anchor="middle" x="393" y="-114.3" font-family="Times,serif" font-size="14.00">&lt;Abstract&gt;</text>
</g>
<!-- p14&#45;&gt;p16 -->
<g id="edge5" class="edge"><title>p14:f2&#45;&gt;p16:head</title>
<path fill="none" stroke="black" d="M375,-246.5C395.08,-246.5 342.652,-176.515 336.107,-150.818"/>
<polygon fill="black" stroke="black" points="339.375,-152.076 340,-141.5 332.916,-149.378 339.375,-152.076"/>
</g>
<!-- p10&#45;&gt;p12 -->
<g id="edge8" class="edge"><title>p10:f2&#45;&gt;p12:head</title>
<path fill="none" stroke="black" d="M165,-422C113.579,-422 170.137,-320.443 133.901,-306.161"/>
<polygon fill="black" stroke="black" points="134.441,-302.703 124,-304.5 133.283,-309.606 134.441,-302.703"/>
</g>
<!-- p10&#45;&gt;p14 -->
<g id="edge9" class="edge"><title>p10:f3&#45;&gt;p14:head</title>
<path fill="none" stroke="black" d="M251,-399C287.269,-399 256.455,-332.407 279.098,-318.88"/>
<polygon fill="black" stroke="black" points="280.095,-322.24 289,-316.5 278.459,-315.434 280.095,-322.24"/>
</g>
<!-- p11 -->
<g id="node14" class="node"><title>p11</title>
<path fill="lightblue" stroke="black" d="M168.5,-258.5C168.5,-258.5 247.5,-258.5 247.5,-258.5 253.5,-258.5 259.5,-264.5 259.5,-270.5 259.5,-270.5 259.5,-292.5 259.5,-292.5 259.5,-298.5 253.5,-304.5 247.5,-304.5 247.5,-304.5 168.5,-304.5 168.5,-304.5 162.5,-304.5 156.5,-298.5 156.5,-292.5 156.5,-292.5 156.5,-270.5 156.5,-270.5 156.5,-264.5 162.5,-258.5 168.5,-258.5"/>
<text text-anchor="middle" x="208" y="-289.3" font-family="Times,serif" font-size="14.00">Tag : 1001</text>
<polyline fill="none" stroke="black" points="156.5,-281.5 259.5,-281.5 "/>
<text text-anchor="middle" x="208" y="-266.3" font-family="Times,serif" font-size="14.00">&lt;Abstract&gt;</text>
</g>
<!-- p10&#45;&gt;p11 -->
<g id="edge7" class="edge"><title>p10:f0&#45;&gt;p11:head</title>
<path fill="none" stroke="black" d="M251,-468C287.003,-468 258.701,-421.936 250,-387 241.037,-351.011 213.597,-346.776 208.739,-315.582"/>
<polygon fill="black" stroke="black" points="212.222,-315.217 208,-305.5 205.241,-315.729 212.222,-315.217"/>
</g>
<!-- p7 -->
<g id="node16" class="node"><title>p7</title>
<path fill="lightblue" stroke="black" d="M583.5,-0.5C583.5,-0.5 662.5,-0.5 662.5,-0.5 668.5,-0.5 674.5,-6.5 674.5,-12.5 674.5,-12.5 674.5,-34.5 674.5,-34.5 674.5,-40.5 668.5,-46.5 662.5,-46.5 662.5,-46.5 583.5,-46.5 583.5,-46.5 577.5,-46.5 571.5,-40.5 571.5,-34.5 571.5,-34.5 571.5,-12.5 571.5,-12.5 571.5,-6.5 577.5,-0.5 583.5,-0.5"/>
<text text-anchor="middle" x="623" y="-31.3" font-family="Times,serif" font-size="14.00">Tag : 1001</text>
<polyline fill="none" stroke="black" points="571.5,-23.5 674.5,-23.5 "/>
<text text-anchor="middle" x="623" y="-8.3" font-family="Times,serif" font-size="14.00">&lt;Abstract&gt;</text>
</g>
<!-- p6&#45;&gt;p7 -->
<g id="edge11" class="edge"><title>p6:f0&#45;&gt;p7:head</title>
<path fill="none" stroke="black" d="M641,-141.5C614.996,-141.5 632.366,-107.153 642,-83 650.041,-62.8394 666.262,-66.8684 675,-47 675.194,-46.5597 675.405,-46.1009 675.624,-45.6309"/>
<polygon fill="black" stroke="black" points="679.127,-45.6228 676,-35.5 672.132,-45.3634 679.127,-45.6228"/>
</g>
<!-- p8 -->
<g id="node17" class="node"><title>p8</title>
<path fill="lightblue" stroke="black" d="M704.5,-0.5C704.5,-0.5 783.5,-0.5 783.5,-0.5 789.5,-0.5 795.5,-6.5 795.5,-12.5 795.5,-12.5 795.5,-34.5 795.5,-34.5 795.5,-40.5 789.5,-46.5 783.5,-46.5 783.5,-46.5 704.5,-46.5 704.5,-46.5 698.5,-46.5 692.5,-40.5 692.5,-34.5 692.5,-34.5 692.5,-12.5 692.5,-12.5 692.5,-6.5 698.5,-0.5 704.5,-0.5"/>
<text text-anchor="middle" x="744" y="-31.3" font-family="Times,serif" font-size="14.00">Tag : 1001</text>
<polyline fill="none" stroke="black" points="692.5,-23.5 795.5,-23.5 "/>
<text text-anchor="middle" x="744" y="-8.3" font-family="Times,serif" font-size="14.00">&lt;Abstract&gt;</text>
</g>
<!-- p6&#45;&gt;p8 -->
<g id="edge12" class="edge"><title>p6:f2&#45;&gt;p8:head</title>
<path fill="none" stroke="black" d="M727,-94.5C749.799,-94.5 702.004,-62.0003 688.404,-45.2427"/>
<polygon fill="black" stroke="black" points="691.807,-46.0641 691,-35.5 685.043,-44.2614 691.807,-46.0641"/>
</g>
<!-- p3&#45;&gt;p6 -->
<g id="edge16" class="edge"><title>p3:f4&#45;&gt;p6:head</title>
<path fill="none" stroke="black" d="M694,-212C694,-199.416 688.257,-194.767 685.476,-186.026"/>
<polygon fill="black" stroke="black" points="688.919,-185.384 684,-176 681.993,-186.403 688.919,-185.384"/>
</g>
<!-- p4 -->
<g id="node19" class="node"><title>p4</title>
<path fill="lightblue" stroke="black" d="M755.5,-106.5C755.5,-106.5 834.5,-106.5 834.5,-106.5 840.5,-106.5 846.5,-112.5 846.5,-118.5 846.5,-118.5 846.5,-140.5 846.5,-140.5 846.5,-146.5 840.5,-152.5 834.5,-152.5 834.5,-152.5 755.5,-152.5 755.5,-152.5 749.5,-152.5 743.5,-146.5 743.5,-140.5 743.5,-140.5 743.5,-118.5 743.5,-118.5 743.5,-112.5 749.5,-106.5 755.5,-106.5"/>
<text text-anchor="middle" x="795" y="-137.3" font-family="Times,serif" font-size="14.00">Tag : 1001</text>
<polyline fill="none" stroke="black" points="743.5,-129.5 846.5,-129.5 "/>
<text text-anchor="middle" x="795" y="-114.3" font-family="Times,serif" font-size="14.00">&lt;Abstract&gt;</text>
</g>
<!-- p3&#45;&gt;p4 -->
<g id="edge14" class="edge"><title>p3:f0&#45;&gt;p4:head</title>
<path fill="none" stroke="black" d="M737,-316.5C753.793,-316.5 730.821,-186.08 736.741,-150.419"/>
<polygon fill="black" stroke="black" points="739.935,-151.892 742,-141.5 733.906,-148.336 739.935,-151.892"/>
</g>
<!-- p5 -->
<g id="node20" class="node"><title>p5</title>
<path fill="lightblue" stroke="black" d="M876.5,-106.5C876.5,-106.5 955.5,-106.5 955.5,-106.5 961.5,-106.5 967.5,-112.5 967.5,-118.5 967.5,-118.5 967.5,-140.5 967.5,-140.5 967.5,-146.5 961.5,-152.5 955.5,-152.5 955.5,-152.5 876.5,-152.5 876.5,-152.5 870.5,-152.5 864.5,-146.5 864.5,-140.5 864.5,-140.5 864.5,-118.5 864.5,-118.5 864.5,-112.5 870.5,-106.5 876.5,-106.5"/>
<text text-anchor="middle" x="916" y="-137.3" font-family="Times,serif" font-size="14.00">Tag : 1001</text>
<polyline fill="none" stroke="black" points="864.5,-129.5 967.5,-129.5 "/>
<text text-anchor="middle" x="916" y="-114.3" font-family="Times,serif" font-size="14.00">&lt;Abstract&gt;</text>
</g>
<!-- p3&#45;&gt;p5 -->
<g id="edge15" class="edge"><title>p3:f2&#45;&gt;p5:head</title>
<path fill="none" stroke="black" d="M737,-269.5C749.872,-269.5 735.815,-221.934 744,-212 776.979,-171.973 819.933,-214.211 855,-176 861.735,-168.661 856.846,-156.795 856.337,-149.07"/>
<polygon fill="black" stroke="black" points="859.02,-151.319 863,-141.5 853.766,-146.694 859.02,-151.319"/>
</g>
<!-- p9&#45;&gt;p6 -->
<g id="edge20" class="edge"><title>p9:f4&#45;&gt;p6:head</title>
<path fill="none" stroke="black" d="M873,-223.5C866.774,-223.5 870.083,-215.595 865,-212 815.703,-177.134 782.21,-212.354 734,-176 733.104,-175.325 732.509,-174.498 732.093,-173.601"/>
<polygon fill="black" stroke="black" points="734.938,-171.517 727,-164.5 728.829,-174.936 734.938,-171.517"/>
</g>
<!-- p9&#45;&gt;p4 -->
<g id="edge18" class="edge"><title>p9:f0&#45;&gt;p4:head</title>
<path fill="none" stroke="black" d="M873,-316.5C861.355,-316.5 867.012,-223.47 865,-212 862.13,-195.644 858.876,-192.147 855,-176 853.845,-171.186 854.481,-158.649 853.122,-150.092"/>
<polygon fill="black" stroke="black" points="856.127,-148.297 848,-141.5 850.114,-151.882 856.127,-148.297"/>
</g>
<!-- p9&#45;&gt;p5 -->
<g id="edge19" class="edge"><title>p9:f2&#45;&gt;p5:head</title>
<path fill="none" stroke="black" d="M959,-269.5C984.559,-269.5 966.041,-236.262 958,-212 949.15,-185.297 923.413,-185.068 917.309,-163.673"/>
<polygon fill="black" stroke="black" points="920.748,-162.971 916,-153.5 913.805,-163.865 920.748,-162.971"/>
</g>
<!-- p1&#45;&gt;p3 -->
<g id="edge23" class="edge"><title>p1:f3&#45;&gt;p3:head</title>
<path fill="none" stroke="black" d="M762,-399C756.538,-399 749.052,-364.477 742.626,-348.025"/>
<polygon fill="black" stroke="black" points="745.429,-345.919 737,-339.5 739.587,-349.774 745.429,-345.919"/>
</g>
<!-- p2 -->
<g id="node23" class="node"><title>p2</title>
<path fill="lightblue" stroke="black" d="M765.5,-258.5C765.5,-258.5 844.5,-258.5 844.5,-258.5 850.5,-258.5 856.5,-264.5 856.5,-270.5 856.5,-270.5 856.5,-292.5 856.5,-292.5 856.5,-298.5 850.5,-304.5 844.5,-304.5 844.5,-304.5 765.5,-304.5 765.5,-304.5 759.5,-304.5 753.5,-298.5 753.5,-292.5 753.5,-292.5 753.5,-270.5 753.5,-270.5 753.5,-264.5 759.5,-258.5 765.5,-258.5"/>
<text text-anchor="middle" x="805" y="-289.3" font-family="Times,serif" font-size="14.00">Tag : 1001</text>
<polyline fill="none" stroke="black" points="753.5,-281.5 856.5,-281.5 "/>
<text text-anchor="middle" x="805" y="-266.3" font-family="Times,serif" font-size="14.00">&lt;Abstract&gt;</text>
</g>
<!-- p1&#45;&gt;p2 -->
<g id="edge22" class="edge"><title>p1:f0&#45;&gt;p2:head</title>
<path fill="none" stroke="black" d="M848,-468C884.003,-468 855.701,-421.936 847,-387 838.037,-351.011 810.597,-346.776 805.739,-315.582"/>
<polygon fill="black" stroke="black" points="809.222,-315.217 805,-305.5 802.241,-315.729 809.222,-315.217"/>
</g>
</g>
</svg>
