<?xml version="1.0" encoding="UTF-8" standalone="no"?>
<!DOCTYPE svg PUBLIC "-//W3C//DTD SVG 1.1//EN"
 "http://www.w3.org/Graphics/SVG/1.1/DTD/svg11.dtd">
<!-- Generated by graphviz version 2.40.1 (20161225.0304)
 -->
<!-- Title: g Pages: 1 -->
<svg width="2047pt" height="745pt"
 viewBox="0.00 0.00 2047.00 745.00" xmlns="http://www.w3.org/2000/svg" xmlns:xlink="http://www.w3.org/1999/xlink">
<g id="graph0" class="graph" transform="scale(1 1) rotate(0) translate(4 741)">
<title>g</title>
<polygon fill="#ffffff" stroke="transparent" points="-4,4 -4,-741 2043,-741 2043,4 -4,4"/>
<!-- entry_0 -->
<g id="node1" class="node">
<title>entry_0</title>
<polygon fill="#ffff00" stroke="#000000" points="53.5,-690.5 53.5,-736.5 181.5,-736.5 181.5,-690.5 53.5,-690.5"/>
<text text-anchor="middle" x="117.5" y="-721.3" font-family="Times,serif" font-size="14.00" fill="#000000">val : f x = x + 1</text>
<polyline fill="none" stroke="#000000" points="53.5,-713.5 181.5,-713.5 "/>
<text text-anchor="middle" x="117.5" y="-698.3" font-family="Times,serif" font-size="14.00" fill="#000000">.</text>
</g>
<!-- p9 -->
<g id="node11" class="node">
<title>p9</title>
<path fill="#add8e6" stroke="#000000" d="M88,-237C88,-237 147,-237 147,-237 153,-237 159,-243 159,-249 159,-249 159,-294 159,-294 159,-300 153,-306 147,-306 147,-306 88,-306 88,-306 82,-306 76,-300 76,-294 76,-294 76,-249 76,-249 76,-243 82,-237 88,-237"/>
<text text-anchor="middle" x="117.5" y="-290.8" font-family="Times,serif" font-size="14.00" fill="#000000">Tag : 247</text>
<polyline fill="none" stroke="#000000" points="76,-283 159,-283 "/>
<text text-anchor="middle" x="117.5" y="-267.8" font-family="Times,serif" font-size="14.00" fill="#000000">.</text>
<polyline fill="none" stroke="#000000" points="76,-260 159,-260 "/>
<text text-anchor="middle" x="117.5" y="-244.8" font-family="Times,serif" font-size="14.00" fill="#000000">1</text>
</g>
<!-- entry_0&#45;&gt;p9 -->
<g id="edge1" class="edge">
<title>entry_0&#45;&gt;p9:head</title>
<path fill="none" stroke="#000000" d="M117.5,-690.1001C117.5,-629.2107 117.5,-460.5692 117.5,-316.8061"/>
<polygon fill="#000000" stroke="#000000" points="121.0001,-316.5 117.5,-306.5 114.0001,-316.5 121.0001,-316.5"/>
</g>
<!-- entry_1 -->
<g id="node2" class="node">
<title>entry_1</title>
<polygon fill="#ffff00" stroke="#000000" points="414.5,-690.5 414.5,-736.5 528.5,-736.5 528.5,-690.5 414.5,-690.5"/>
<text text-anchor="middle" x="471.5" y="-721.3" font-family="Times,serif" font-size="14.00" fill="#000000">val : List.map</text>
<polyline fill="none" stroke="#000000" points="414.5,-713.5 528.5,-713.5 "/>
<text text-anchor="middle" x="471.5" y="-698.3" font-family="Times,serif" font-size="14.00" fill="#000000">.</text>
</g>
<!-- p10 -->
<g id="node13" class="node">
<title>p10</title>
<path fill="#add8e6" stroke="#000000" d="M442,-225.5C442,-225.5 501,-225.5 501,-225.5 507,-225.5 513,-231.5 513,-237.5 513,-237.5 513,-305.5 513,-305.5 513,-311.5 507,-317.5 501,-317.5 501,-317.5 442,-317.5 442,-317.5 436,-317.5 430,-311.5 430,-305.5 430,-305.5 430,-237.5 430,-237.5 430,-231.5 436,-225.5 442,-225.5"/>
<text text-anchor="middle" x="471.5" y="-302.3" font-family="Times,serif" font-size="14.00" fill="#000000">Tag : 247</text>
<polyline fill="none" stroke="#000000" points="430,-294.5 513,-294.5 "/>
<text text-anchor="middle" x="471.5" y="-279.3" font-family="Times,serif" font-size="14.00" fill="#000000">.</text>
<polyline fill="none" stroke="#000000" points="430,-271.5 513,-271.5 "/>
<text text-anchor="middle" x="471.5" y="-256.3" font-family="Times,serif" font-size="14.00" fill="#000000">2</text>
<polyline fill="none" stroke="#000000" points="430,-248.5 513,-248.5 "/>
<text text-anchor="middle" x="471.5" y="-233.3" font-family="Times,serif" font-size="14.00" fill="#000000">.</text>
</g>
<!-- entry_1&#45;&gt;p10 -->
<g id="edge3" class="edge">
<title>entry_1&#45;&gt;p10:head</title>
<path fill="none" stroke="#000000" d="M471.5,-690.29C471.5,-630.6718 471.5,-467.0393 471.5,-327.5032"/>
<polygon fill="#000000" stroke="#000000" points="475.0001,-327.5 471.5,-317.5 468.0001,-327.5 475.0001,-327.5"/>
</g>
<!-- entry_2 -->
<g id="node3" class="node">
<title>entry_2</title>
<polygon fill="#ffff00" stroke="#000000" points="232.5,-690.5 232.5,-736.5 356.5,-736.5 356.5,-690.5 232.5,-690.5"/>
<text text-anchor="middle" x="294.5" y="-721.3" font-family="Times,serif" font-size="14.00" fill="#000000">val : List.map f</text>
<polyline fill="none" stroke="#000000" points="232.5,-713.5 356.5,-713.5 "/>
<text text-anchor="middle" x="294.5" y="-698.3" font-family="Times,serif" font-size="14.00" fill="#000000">.</text>
</g>
<!-- p8 -->
<g id="node16" class="node">
<title>p8</title>
<path fill="#add8e6" stroke="#000000" d="M265,-458C265,-458 324,-458 324,-458 330,-458 336,-464 336,-470 336,-470 336,-561 336,-561 336,-567 330,-573 324,-573 324,-573 265,-573 265,-573 259,-573 253,-567 253,-561 253,-561 253,-470 253,-470 253,-464 259,-458 265,-458"/>
<text text-anchor="middle" x="294.5" y="-557.8" font-family="Times,serif" font-size="14.00" fill="#000000">Tag : 247</text>
<polyline fill="none" stroke="#000000" points="253,-550 336,-550 "/>
<text text-anchor="middle" x="294.5" y="-534.8" font-family="Times,serif" font-size="14.00" fill="#000000">.</text>
<polyline fill="none" stroke="#000000" points="253,-527 336,-527 "/>
<text text-anchor="middle" x="294.5" y="-511.8" font-family="Times,serif" font-size="14.00" fill="#000000">1</text>
<polyline fill="none" stroke="#000000" points="253,-504 336,-504 "/>
<text text-anchor="middle" x="294.5" y="-488.8" font-family="Times,serif" font-size="14.00" fill="#000000">.</text>
<polyline fill="none" stroke="#000000" points="253,-481 336,-481 "/>
<text text-anchor="middle" x="294.5" y="-465.8" font-family="Times,serif" font-size="14.00" fill="#000000">.</text>
</g>
<!-- entry_2&#45;&gt;p8 -->
<g id="edge6" class="edge">
<title>entry_2&#45;&gt;p8:head</title>
<path fill="none" stroke="#000000" d="M294.5,-690.2148C294.5,-664.711 294.5,-622.2926 294.5,-583.7307"/>
<polygon fill="#000000" stroke="#000000" points="298.0001,-583.5 294.5,-573.5 291.0001,-583.5 298.0001,-583.5"/>
</g>
<!-- entry_3 -->
<g id="node4" class="node">
<title>entry_3</title>
<polygon fill="#ffff00" stroke="#000000" points="1061,-690.5 1061,-736.5 1246,-736.5 1246,-690.5 1061,-690.5"/>
<text text-anchor="middle" x="1153.5" y="-721.3" font-family="Times,serif" font-size="14.00" fill="#000000">val : g x y z = x + y + z</text>
<polyline fill="none" stroke="#000000" points="1061,-713.5 1246,-713.5 "/>
<text text-anchor="middle" x="1153.5" y="-698.3" font-family="Times,serif" font-size="14.00" fill="#000000">.</text>
</g>
<!-- p6 -->
<g id="node18" class="node">
<title>p6</title>
<path fill="#add8e6" stroke="#000000" d="M1075,-73.5C1075,-73.5 1134,-73.5 1134,-73.5 1140,-73.5 1146,-79.5 1146,-85.5 1146,-85.5 1146,-153.5 1146,-153.5 1146,-159.5 1140,-165.5 1134,-165.5 1134,-165.5 1075,-165.5 1075,-165.5 1069,-165.5 1063,-159.5 1063,-153.5 1063,-153.5 1063,-85.5 1063,-85.5 1063,-79.5 1069,-73.5 1075,-73.5"/>
<text text-anchor="middle" x="1104.5" y="-150.3" font-family="Times,serif" font-size="14.00" fill="#000000">Tag : 247</text>
<polyline fill="none" stroke="#000000" points="1063,-142.5 1146,-142.5 "/>
<text text-anchor="middle" x="1104.5" y="-127.3" font-family="Times,serif" font-size="14.00" fill="#000000">.</text>
<polyline fill="none" stroke="#000000" points="1063,-119.5 1146,-119.5 "/>
<text text-anchor="middle" x="1104.5" y="-104.3" font-family="Times,serif" font-size="14.00" fill="#000000">3</text>
<polyline fill="none" stroke="#000000" points="1063,-96.5 1146,-96.5 "/>
<text text-anchor="middle" x="1104.5" y="-81.3" font-family="Times,serif" font-size="14.00" fill="#000000">.</text>
</g>
<!-- entry_3&#45;&gt;p6 -->
<g id="edge10" class="edge">
<title>entry_3&#45;&gt;p6:head</title>
<path fill="none" stroke="#000000" d="M1156.5906,-690.2932C1165.5316,-616.582 1187.2154,-382.0419 1128.5,-202 1123.7502,-187.4354 1111.5533,-185.218 1106.6191,-175.3924"/>
<polygon fill="#000000" stroke="#000000" points="1110.0171,-174.545 1104.5,-165.5 1103.1723,-176.0113 1110.0171,-174.545"/>
</g>
<!-- entry_4 -->
<g id="node5" class="node">
<title>entry_4</title>
<polygon fill="#ffff00" stroke="#000000" points="650,-690.5 650,-736.5 763,-736.5 763,-690.5 650,-690.5"/>
<text text-anchor="middle" x="706.5" y="-721.3" font-family="Times,serif" font-size="14.00" fill="#000000">val : g1 = g 5</text>
<polyline fill="none" stroke="#000000" points="650,-713.5 763,-713.5 "/>
<text text-anchor="middle" x="706.5" y="-698.3" font-family="Times,serif" font-size="14.00" fill="#000000">.</text>
</g>
<!-- p5 -->
<g id="node21" class="node">
<title>p5</title>
<path fill="#add8e6" stroke="#000000" d="M683,-202.5C683,-202.5 742,-202.5 742,-202.5 748,-202.5 754,-208.5 754,-214.5 754,-214.5 754,-328.5 754,-328.5 754,-334.5 748,-340.5 742,-340.5 742,-340.5 683,-340.5 683,-340.5 677,-340.5 671,-334.5 671,-328.5 671,-328.5 671,-214.5 671,-214.5 671,-208.5 677,-202.5 683,-202.5"/>
<text text-anchor="middle" x="712.5" y="-325.3" font-family="Times,serif" font-size="14.00" fill="#000000">Tag : 247</text>
<polyline fill="none" stroke="#000000" points="671,-317.5 754,-317.5 "/>
<text text-anchor="middle" x="712.5" y="-302.3" font-family="Times,serif" font-size="14.00" fill="#000000">.</text>
<polyline fill="none" stroke="#000000" points="671,-294.5 754,-294.5 "/>
<text text-anchor="middle" x="712.5" y="-279.3" font-family="Times,serif" font-size="14.00" fill="#000000">2</text>
<polyline fill="none" stroke="#000000" points="671,-271.5 754,-271.5 "/>
<text text-anchor="middle" x="712.5" y="-256.3" font-family="Times,serif" font-size="14.00" fill="#000000">.</text>
<polyline fill="none" stroke="#000000" points="671,-248.5 754,-248.5 "/>
<text text-anchor="middle" x="712.5" y="-233.3" font-family="Times,serif" font-size="14.00" fill="#000000">5</text>
<polyline fill="none" stroke="#000000" points="671,-225.5 754,-225.5 "/>
<text text-anchor="middle" x="712.5" y="-210.3" font-family="Times,serif" font-size="14.00" fill="#000000">.</text>
</g>
<!-- entry_4&#45;&gt;p5 -->
<g id="edge13" class="edge">
<title>entry_4&#45;&gt;p5:head</title>
<path fill="none" stroke="#000000" d="M707.1308,-690.3677C708.6321,-633.2964 712.307,-480.9478 712.4927,-350.6376"/>
<polygon fill="#000000" stroke="#000000" points="715.9927,-350.5026 712.5,-340.5 708.9927,-350.4974 715.9927,-350.5026"/>
</g>
<!-- entry_5 -->
<g id="node6" class="node">
<title>entry_5</title>
<polygon fill="#ffff00" stroke="#000000" points="930,-690.5 930,-736.5 1043,-736.5 1043,-690.5 930,-690.5"/>
<text text-anchor="middle" x="986.5" y="-721.3" font-family="Times,serif" font-size="14.00" fill="#000000">val : g2 = g 7</text>
<polyline fill="none" stroke="#000000" points="930,-713.5 1043,-713.5 "/>
<text text-anchor="middle" x="986.5" y="-698.3" font-family="Times,serif" font-size="14.00" fill="#000000">.</text>
</g>
<!-- p7 -->
<g id="node23" class="node">
<title>p7</title>
<path fill="#add8e6" stroke="#000000" d="M1048,-202.5C1048,-202.5 1107,-202.5 1107,-202.5 1113,-202.5 1119,-208.5 1119,-214.5 1119,-214.5 1119,-328.5 1119,-328.5 1119,-334.5 1113,-340.5 1107,-340.5 1107,-340.5 1048,-340.5 1048,-340.5 1042,-340.5 1036,-334.5 1036,-328.5 1036,-328.5 1036,-214.5 1036,-214.5 1036,-208.5 1042,-202.5 1048,-202.5"/>
<text text-anchor="middle" x="1077.5" y="-325.3" font-family="Times,serif" font-size="14.00" fill="#000000">Tag : 247</text>
<polyline fill="none" stroke="#000000" points="1036,-317.5 1119,-317.5 "/>
<text text-anchor="middle" x="1077.5" y="-302.3" font-family="Times,serif" font-size="14.00" fill="#000000">.</text>
<polyline fill="none" stroke="#000000" points="1036,-294.5 1119,-294.5 "/>
<text text-anchor="middle" x="1077.5" y="-279.3" font-family="Times,serif" font-size="14.00" fill="#000000">2</text>
<polyline fill="none" stroke="#000000" points="1036,-271.5 1119,-271.5 "/>
<text text-anchor="middle" x="1077.5" y="-256.3" font-family="Times,serif" font-size="14.00" fill="#000000">.</text>
<polyline fill="none" stroke="#000000" points="1036,-248.5 1119,-248.5 "/>
<text text-anchor="middle" x="1077.5" y="-233.3" font-family="Times,serif" font-size="14.00" fill="#000000">7</text>
<polyline fill="none" stroke="#000000" points="1036,-225.5 1119,-225.5 "/>
<text text-anchor="middle" x="1077.5" y="-210.3" font-family="Times,serif" font-size="14.00" fill="#000000">.</text>
</g>
<!-- entry_5&#45;&gt;p7 -->
<g id="edge17" class="edge">
<title>entry_5&#45;&gt;p7:head</title>
<path fill="none" stroke="#000000" d="M987.0045,-690.3438C988.9426,-614.133 997.3583,-373.7694 1027.0267,-334.8476"/>
<polygon fill="#000000" stroke="#000000" points="1028.9113,-337.797 1035.5,-329.5 1025.1753,-331.8773 1028.9113,-337.797"/>
</g>
<!-- entry_6 -->
<g id="node7" class="node">
<title>entry_6</title>
<polygon fill="#ffff00" stroke="#000000" points="781,-690.5 781,-736.5 912,-736.5 912,-690.5 781,-690.5"/>
<text text-anchor="middle" x="846.5" y="-721.3" font-family="Times,serif" font-size="14.00" fill="#000000">val : g3 = g1 42</text>
<polyline fill="none" stroke="#000000" points="781,-713.5 912,-713.5 "/>
<text text-anchor="middle" x="846.5" y="-698.3" font-family="Times,serif" font-size="14.00" fill="#000000">.</text>
</g>
<!-- p4 -->
<g id="node25" class="node">
<title>p4</title>
<path fill="#add8e6" stroke="#000000" d="M817,-458C817,-458 876,-458 876,-458 882,-458 888,-464 888,-470 888,-470 888,-561 888,-561 888,-567 882,-573 876,-573 876,-573 817,-573 817,-573 811,-573 805,-567 805,-561 805,-561 805,-470 805,-470 805,-464 811,-458 817,-458"/>
<text text-anchor="middle" x="846.5" y="-557.8" font-family="Times,serif" font-size="14.00" fill="#000000">Tag : 247</text>
<polyline fill="none" stroke="#000000" points="805,-550 888,-550 "/>
<text text-anchor="middle" x="846.5" y="-534.8" font-family="Times,serif" font-size="14.00" fill="#000000">.</text>
<polyline fill="none" stroke="#000000" points="805,-527 888,-527 "/>
<text text-anchor="middle" x="846.5" y="-511.8" font-family="Times,serif" font-size="14.00" fill="#000000">1</text>
<polyline fill="none" stroke="#000000" points="805,-504 888,-504 "/>
<text text-anchor="middle" x="846.5" y="-488.8" font-family="Times,serif" font-size="14.00" fill="#000000">42</text>
<polyline fill="none" stroke="#000000" points="805,-481 888,-481 "/>
<text text-anchor="middle" x="846.5" y="-465.8" font-family="Times,serif" font-size="14.00" fill="#000000">.</text>
</g>
<!-- entry_6&#45;&gt;p4 -->
<g id="edge21" class="edge">
<title>entry_6&#45;&gt;p4:head</title>
<path fill="none" stroke="#000000" d="M846.5,-690.2148C846.5,-664.711 846.5,-622.2926 846.5,-583.7307"/>
<polygon fill="#000000" stroke="#000000" points="850.0001,-583.5 846.5,-573.5 843.0001,-583.5 850.0001,-583.5"/>
</g>
<!-- entry_7 -->
<g id="node8" class="node">
<title>entry_7</title>
<polygon fill="#ffff00" stroke="#000000" points="1264.5,-690.5 1264.5,-736.5 1426.5,-736.5 1426.5,-690.5 1264.5,-690.5"/>
<text text-anchor="middle" x="1345.5" y="-721.3" font-family="Times,serif" font-size="14.00" fill="#000000">val : let rec h x = i x</text>
<polyline fill="none" stroke="#000000" points="1264.5,-713.5 1426.5,-713.5 "/>
<text text-anchor="middle" x="1345.5" y="-698.3" font-family="Times,serif" font-size="14.00" fill="#000000">.</text>
</g>
<!-- p2 -->
<g id="node27" class="node">
<title>p2</title>
<path fill="#add8e6" stroke="#000000" d="M1493,-377.5C1493,-377.5 1552,-377.5 1552,-377.5 1558,-377.5 1564,-383.5 1564,-389.5 1564,-389.5 1564,-641.5 1564,-641.5 1564,-647.5 1558,-653.5 1552,-653.5 1552,-653.5 1493,-653.5 1493,-653.5 1487,-653.5 1481,-647.5 1481,-641.5 1481,-641.5 1481,-389.5 1481,-389.5 1481,-383.5 1487,-377.5 1493,-377.5"/>
<text text-anchor="middle" x="1522.5" y="-638.3" font-family="Times,serif" font-size="14.00" fill="#000000">Tag : 247</text>
<polyline fill="none" stroke="#000000" points="1481,-630.5 1564,-630.5 "/>
<text text-anchor="middle" x="1522.5" y="-615.3" font-family="Times,serif" font-size="14.00" fill="#000000">.</text>
<polyline fill="none" stroke="#000000" points="1481,-607.5 1564,-607.5 "/>
<text text-anchor="middle" x="1522.5" y="-592.3" font-family="Times,serif" font-size="14.00" fill="#000000">3</text>
<polyline fill="none" stroke="#000000" points="1481,-584.5 1564,-584.5 "/>
<text text-anchor="middle" x="1522.5" y="-569.3" font-family="Times,serif" font-size="14.00" fill="#000000">.</text>
<polyline fill="none" stroke="#000000" points="1481,-561.5 1564,-561.5 "/>
<text text-anchor="middle" x="1522.5" y="-546.3" font-family="Times,serif" font-size="14.00" fill="#000000">Infix</text>
<polyline fill="none" stroke="#000000" points="1481,-538.5 1564,-538.5 "/>
<text text-anchor="middle" x="1522.5" y="-523.3" font-family="Times,serif" font-size="14.00" fill="#000000">.</text>
<polyline fill="none" stroke="#000000" points="1481,-515.5 1564,-515.5 "/>
<text text-anchor="middle" x="1522.5" y="-500.3" font-family="Times,serif" font-size="14.00" fill="#000000">3</text>
<polyline fill="none" stroke="#000000" points="1481,-492.5 1564,-492.5 "/>
<text text-anchor="middle" x="1522.5" y="-477.3" font-family="Times,serif" font-size="14.00" fill="#000000">.</text>
<polyline fill="none" stroke="#000000" points="1481,-469.5 1564,-469.5 "/>
<text text-anchor="middle" x="1522.5" y="-454.3" font-family="Times,serif" font-size="14.00" fill="#000000">Infix</text>
<polyline fill="none" stroke="#000000" points="1481,-446.5 1564,-446.5 "/>
<text text-anchor="middle" x="1522.5" y="-431.3" font-family="Times,serif" font-size="14.00" fill="#000000">.</text>
<polyline fill="none" stroke="#000000" points="1481,-423.5 1564,-423.5 "/>
<text text-anchor="middle" x="1522.5" y="-408.3" font-family="Times,serif" font-size="14.00" fill="#000000">3</text>
<polyline fill="none" stroke="#000000" points="1481,-400.5 1564,-400.5 "/>
<text text-anchor="middle" x="1522.5" y="-385.3" font-family="Times,serif" font-size="14.00" fill="#000000">.</text>
</g>
<!-- entry_7&#45;&gt;p2 -->
<g id="edge24" class="edge">
<title>entry_7&#45;&gt;p2:head</title>
<path fill="none" stroke="#000000" d="M1371.3095,-690.2519C1394.9309,-671.2439 1431.9386,-646.8945 1470.2165,-643.0275"/>
<polygon fill="#000000" stroke="#000000" points="1470.6925,-646.5078 1480.5,-642.5 1470.3338,-639.517 1470.6925,-646.5078"/>
</g>
<!-- entry_8 -->
<g id="node9" class="node">
<title>entry_8</title>
<polygon fill="#ffff00" stroke="#000000" points="1444.5,-690.5 1444.5,-736.5 1602.5,-736.5 1602.5,-690.5 1444.5,-690.5"/>
<text text-anchor="middle" x="1523.5" y="-721.3" font-family="Times,serif" font-size="14.00" fill="#000000">val : let rec i y = j y</text>
<polyline fill="none" stroke="#000000" points="1444.5,-713.5 1602.5,-713.5 "/>
<text text-anchor="middle" x="1523.5" y="-698.3" font-family="Times,serif" font-size="14.00" fill="#000000">.</text>
</g>
<!-- entry_8&#45;&gt;p2 -->
<g id="edge31" class="edge">
<title>entry_8&#45;&gt;p2:f3</title>
<path fill="none" stroke="#000000" d="M1544.295,-690.3728C1552.2534,-680.0146 1560.3999,-667.1761 1564.5,-654 1576.9931,-613.852 1605.0807,-560.6243 1574.6854,-551.7722"/>
<polygon fill="#000000" stroke="#000000" points="1574.8567,-548.2665 1564.5,-550.5 1573.9891,-555.2125 1574.8567,-548.2665"/>
</g>
<!-- entry_9 -->
<g id="node10" class="node">
<title>entry_9</title>
<polygon fill="#ffff00" stroke="#000000" points="1621,-690.5 1621,-736.5 1782,-736.5 1782,-690.5 1621,-690.5"/>
<text text-anchor="middle" x="1701.5" y="-721.3" font-family="Times,serif" font-size="14.00" fill="#000000">val : let rec j z = h z</text>
<polyline fill="none" stroke="#000000" points="1621,-713.5 1782,-713.5 "/>
<text text-anchor="middle" x="1701.5" y="-698.3" font-family="Times,serif" font-size="14.00" fill="#000000">.</text>
</g>
<!-- entry_9&#45;&gt;p2 -->
<g id="edge32" class="edge">
<title>entry_9&#45;&gt;p2:f7</title>
<path fill="none" stroke="#000000" d="M1699.9558,-690.3302C1694.5645,-629.4058 1671.226,-468.6589 1574.7057,-458.0515"/>
<polygon fill="#000000" stroke="#000000" points="1574.6743,-454.5448 1564.5,-457.5 1574.2965,-461.5346 1574.6743,-454.5448"/>
</g>
<!-- e94219519190928 -->
<g id="node12" class="node">
<title>e94219519190928</title>
<path fill="#c0c0c0" stroke="#000000" d="M12,-101.5C12,-101.5 223,-101.5 223,-101.5 229,-101.5 235,-107.5 235,-113.5 235,-113.5 235,-125.5 235,-125.5 235,-131.5 229,-137.5 223,-137.5 223,-137.5 12,-137.5 12,-137.5 6,-137.5 0,-131.5 0,-125.5 0,-125.5 0,-113.5 0,-113.5 0,-107.5 6,-101.5 12,-101.5"/>
<text text-anchor="middle" x="117.5" y="-115.8" font-family="Times,serif" font-size="14.00" fill="#000000">Out of heap : 0x55b130f8e790</text>
</g>
<!-- p9&#45;&gt;e94219519190928 -->
<g id="edge2" class="edge">
<title>p9:f0&#45;&gt;e94219519190928:head</title>
<path fill="none" stroke="#000000" d="M159.5,-271.5C175.0556,-271.5 162.1673,-251.8252 159.5,-236.5 153.9629,-204.6868 140.5508,-170.0933 130.3607,-146.8372"/>
<polygon fill="#000000" stroke="#000000" points="133.507,-145.2994 126.2231,-137.6056 127.1193,-148.1625 133.507,-145.2994"/>
</g>
<!-- e94219519190240 -->
<g id="node14" class="node">
<title>e94219519190240</title>
<path fill="#c0c0c0" stroke="#000000" d="M569.5,-101.5C569.5,-101.5 779.5,-101.5 779.5,-101.5 785.5,-101.5 791.5,-107.5 791.5,-113.5 791.5,-113.5 791.5,-125.5 791.5,-125.5 791.5,-131.5 785.5,-137.5 779.5,-137.5 779.5,-137.5 569.5,-137.5 569.5,-137.5 563.5,-137.5 557.5,-131.5 557.5,-125.5 557.5,-125.5 557.5,-113.5 557.5,-113.5 557.5,-107.5 563.5,-101.5 569.5,-101.5"/>
<text text-anchor="middle" x="674.5" y="-115.8" font-family="Times,serif" font-size="14.00" fill="#000000">Out of heap : 0x55b130f8e4e0</text>
</g>
<!-- p10&#45;&gt;e94219519190240 -->
<g id="edge4" class="edge">
<title>p10:f0&#45;&gt;e94219519190240:head</title>
<path fill="none" stroke="#000000" d="M513.5,-283.5C589.1168,-283.5 641.0114,-193.6182 662.8649,-146.9355"/>
<polygon fill="#000000" stroke="#000000" points="666.1211,-148.2298 667.0699,-137.6775 659.7477,-145.3349 666.1211,-148.2298"/>
</g>
<!-- e94219519245696 -->
<g id="node15" class="node">
<title>e94219519245696</title>
<path fill="#c0c0c0" stroke="#000000" d="M315.5,-101.5C315.5,-101.5 527.5,-101.5 527.5,-101.5 533.5,-101.5 539.5,-107.5 539.5,-113.5 539.5,-113.5 539.5,-125.5 539.5,-125.5 539.5,-131.5 533.5,-137.5 527.5,-137.5 527.5,-137.5 315.5,-137.5 315.5,-137.5 309.5,-137.5 303.5,-131.5 303.5,-125.5 303.5,-125.5 303.5,-113.5 303.5,-113.5 303.5,-107.5 309.5,-101.5 315.5,-101.5"/>
<text text-anchor="middle" x="421.5" y="-115.8" font-family="Times,serif" font-size="14.00" fill="#000000">Out of heap : 0x55b130f9bd80</text>
</g>
<!-- p10&#45;&gt;e94219519245696 -->
<g id="edge5" class="edge">
<title>p10:f2&#45;&gt;e94219519245696:head</title>
<path fill="none" stroke="#000000" d="M471.5,-225.5C471.5,-196.3016 455.7894,-166.5308 441.9812,-146.0038"/>
<polygon fill="#000000" stroke="#000000" points="444.8373,-143.9806 436.2312,-137.8011 439.1053,-147.9986 444.8373,-143.9806"/>
</g>
<!-- p8&#45;&gt;p9 -->
<g id="edge8" class="edge">
<title>p8:f2&#45;&gt;p9:head</title>
<path fill="none" stroke="#000000" d="M252.5,-492.5C175.2929,-492.5 193.3082,-413.7659 167.5,-341 165.063,-334.1289 167.2164,-314.3321 165.2303,-302.9062"/>
<polygon fill="#000000" stroke="#000000" points="168.0246,-300.7915 159.5,-294.5 162.2406,-304.7343 168.0246,-300.7915"/>
</g>
<!-- p8&#45;&gt;p10 -->
<g id="edge9" class="edge">
<title>p8:f3&#45;&gt;p10:head</title>
<path fill="none" stroke="#000000" d="M336.5,-469.5C404.9751,-469.5 394.4484,-403.9051 421.5,-341 425.5322,-331.6237 421.0806,-319.901 421.7438,-312.8174"/>
<polygon fill="#000000" stroke="#000000" points="423.9568,-315.529 429.5,-306.5 419.5361,-310.1015 423.9568,-315.529"/>
</g>
<!-- e94219519192320 -->
<g id="node17" class="node">
<title>e94219519192320</title>
<path fill="#c0c0c0" stroke="#000000" d="M189,-253.5C189,-253.5 400,-253.5 400,-253.5 406,-253.5 412,-259.5 412,-265.5 412,-265.5 412,-277.5 412,-277.5 412,-283.5 406,-289.5 400,-289.5 400,-289.5 189,-289.5 189,-289.5 183,-289.5 177,-283.5 177,-277.5 177,-277.5 177,-265.5 177,-265.5 177,-259.5 183,-253.5 189,-253.5"/>
<text text-anchor="middle" x="294.5" y="-267.8" font-family="Times,serif" font-size="14.00" fill="#000000">Out of heap : 0x55b130f8ed00</text>
</g>
<!-- p8&#45;&gt;e94219519192320 -->
<g id="edge7" class="edge">
<title>p8:f0&#45;&gt;e94219519192320:head</title>
<path fill="none" stroke="#000000" d="M336.5,-538.5C432.8549,-538.5 347.6117,-366.7147 310.1022,-298.7277"/>
<polygon fill="#000000" stroke="#000000" points="313.0789,-296.8794 305.1501,-289.852 306.966,-300.2901 313.0789,-296.8794"/>
</g>
<!-- e94219519190000 -->
<g id="node19" class="node">
<title>e94219519190000</title>
<path fill="#c0c0c0" stroke="#000000" d="M1362,-.5C1362,-.5 1569,-.5 1569,-.5 1575,-.5 1581,-6.5 1581,-12.5 1581,-12.5 1581,-24.5 1581,-24.5 1581,-30.5 1575,-36.5 1569,-36.5 1569,-36.5 1362,-36.5 1362,-36.5 1356,-36.5 1350,-30.5 1350,-24.5 1350,-24.5 1350,-12.5 1350,-12.5 1350,-6.5 1356,-.5 1362,-.5"/>
<text text-anchor="middle" x="1465.5" y="-14.8" font-family="Times,serif" font-size="14.00" fill="#000000">Out of heap : 0x55b130f8e3f0</text>
</g>
<!-- p6&#45;&gt;e94219519190000 -->
<g id="edge11" class="edge">
<title>p6:f0&#45;&gt;e94219519190000:head</title>
<path fill="none" stroke="#000000" d="M1146.5,-131.5C1159.6529,-131.5 1146.2994,-82.3994 1155.5,-73 1158.9758,-69.4491 1258.6265,-52.3316 1344.0135,-38.2146"/>
<polygon fill="#000000" stroke="#000000" points="1344.7854,-41.6346 1354.082,-36.5529 1343.6455,-34.7281 1344.7854,-41.6346"/>
</g>
<!-- e94219519190944 -->
<g id="node20" class="node">
<title>e94219519190944</title>
<path fill="#c0c0c0" stroke="#000000" d="M999.5,-.5C999.5,-.5 1209.5,-.5 1209.5,-.5 1215.5,-.5 1221.5,-6.5 1221.5,-12.5 1221.5,-12.5 1221.5,-24.5 1221.5,-24.5 1221.5,-30.5 1215.5,-36.5 1209.5,-36.5 1209.5,-36.5 999.5,-36.5 999.5,-36.5 993.5,-36.5 987.5,-30.5 987.5,-24.5 987.5,-24.5 987.5,-12.5 987.5,-12.5 987.5,-6.5 993.5,-.5 999.5,-.5"/>
<text text-anchor="middle" x="1104.5" y="-14.8" font-family="Times,serif" font-size="14.00" fill="#000000">Out of heap : 0x55b130f8e7a0</text>
</g>
<!-- p6&#45;&gt;e94219519190944 -->
<g id="edge12" class="edge">
<title>p6:f2&#45;&gt;e94219519190944:head</title>
<path fill="none" stroke="#000000" d="M1104.5,-73.5C1104.5,-64.9063 1104.5,-55.5572 1104.5,-47.0461"/>
<polygon fill="#000000" stroke="#000000" points="1108.0001,-46.8333 1104.5,-36.8333 1101.0001,-46.8334 1108.0001,-46.8333"/>
</g>
<!-- p5&#45;&gt;e94219519190240 -->
<g id="edge14" class="edge">
<title>p5:f0&#45;&gt;e94219519190240:head</title>
<path fill="none" stroke="#000000" d="M670.5,-306.5C607.5039,-306.5 642.2819,-199.1129 662.8236,-147.0949"/>
<polygon fill="#000000" stroke="#000000" points="666.0897,-148.3539 666.5879,-137.7708 659.5987,-145.7334 666.0897,-148.3539"/>
</g>
<!-- p5&#45;&gt;p6 -->
<g id="edge16" class="edge">
<title>p5:f4&#45;&gt;p6:head</title>
<path fill="none" stroke="#000000" d="M754.5,-213.5C760.9903,-213.5 757.8513,-205.1962 763.5,-202 876.9212,-137.8225 942.9282,-233.3413 1054.5,-166 1055.666,-165.2962 1056.4068,-164.35 1056.9178,-163.3012"/>
<polygon fill="#000000" stroke="#000000" points="1060.0995,-164.8193 1062.5,-154.5 1054.1882,-161.07 1060.0995,-164.8193"/>
</g>
<!-- e94219519190960 -->
<g id="node22" class="node">
<title>e94219519190960</title>
<path fill="#c0c0c0" stroke="#000000" d="M822,-101.5C822,-101.5 1033,-101.5 1033,-101.5 1039,-101.5 1045,-107.5 1045,-113.5 1045,-113.5 1045,-125.5 1045,-125.5 1045,-131.5 1039,-137.5 1033,-137.5 1033,-137.5 822,-137.5 822,-137.5 816,-137.5 810,-131.5 810,-125.5 810,-125.5 810,-113.5 810,-113.5 810,-107.5 816,-101.5 822,-101.5"/>
<text text-anchor="middle" x="927.5" y="-115.8" font-family="Times,serif" font-size="14.00" fill="#000000">Out of heap : 0x55b130f8e7b0</text>
</g>
<!-- p5&#45;&gt;e94219519190960 -->
<g id="edge15" class="edge">
<title>p5:f2&#45;&gt;e94219519190960:head</title>
<path fill="none" stroke="#000000" d="M754.5,-259.5C767.4334,-259.5 755.8805,-212.4506 763.5,-202 784.4303,-173.2928 818.2269,-153.9437 849.7171,-141.2459"/>
<polygon fill="#000000" stroke="#000000" points="851.3259,-144.377 859.399,-137.5158 848.8093,-137.845 851.3259,-144.377"/>
</g>
<!-- p7&#45;&gt;e94219519190240 -->
<g id="edge18" class="edge">
<title>p7:f0&#45;&gt;e94219519190240:head</title>
<path fill="none" stroke="#000000" d="M1035.5,-306.5C988.2941,-306.5 1050.1116,-235.146 1016.5,-202 947.5152,-133.9709 895.1682,-190.7616 801.5,-166 776.5723,-159.4102 749.662,-149.9178 727.0567,-141.2254"/>
<polygon fill="#000000" stroke="#000000" points="728.2391,-137.9299 717.6507,-137.5599 725.6973,-144.4521 728.2391,-137.9299"/>
</g>
<!-- p7&#45;&gt;p6 -->
<g id="edge20" class="edge">
<title>p7:f4&#45;&gt;p6:head</title>
<path fill="none" stroke="#000000" d="M1077.5,-202.5C1077.5,-186.2778 1094.6453,-185.3414 1101.6105,-175.3291"/>
<polygon fill="#000000" stroke="#000000" points="1105.0375,-176.0812 1104.5,-165.5 1098.3216,-174.1069 1105.0375,-176.0812"/>
</g>
<!-- e94219519190976 -->
<g id="node24" class="node">
<title>e94219519190976</title>
<path fill="#c0c0c0" stroke="#000000" d="M1176.5,-101.5C1176.5,-101.5 1386.5,-101.5 1386.5,-101.5 1392.5,-101.5 1398.5,-107.5 1398.5,-113.5 1398.5,-113.5 1398.5,-125.5 1398.5,-125.5 1398.5,-131.5 1392.5,-137.5 1386.5,-137.5 1386.5,-137.5 1176.5,-137.5 1176.5,-137.5 1170.5,-137.5 1164.5,-131.5 1164.5,-125.5 1164.5,-125.5 1164.5,-113.5 1164.5,-113.5 1164.5,-107.5 1170.5,-101.5 1176.5,-101.5"/>
<text text-anchor="middle" x="1281.5" y="-115.8" font-family="Times,serif" font-size="14.00" fill="#000000">Out of heap : 0x55b130f8e7c0</text>
</g>
<!-- p7&#45;&gt;e94219519190976 -->
<g id="edge19" class="edge">
<title>p7:f2&#45;&gt;e94219519190976:head</title>
<path fill="none" stroke="#000000" d="M1119.5,-259.5C1154.8641,-259.5 1148.2,-225.6417 1174.5,-202 1197.7547,-181.0958 1225.8041,-159.5922 1247.3492,-143.7816"/>
<polygon fill="#000000" stroke="#000000" points="1249.537,-146.5181 1255.5589,-137.801 1245.4153,-140.8602 1249.537,-146.5181"/>
</g>
<!-- p4&#45;&gt;p5 -->
<g id="edge23" class="edge">
<title>p4:f3&#45;&gt;p5:head</title>
<path fill="none" stroke="#000000" d="M804.5,-469.5C790.305,-469.5 775.7802,-366.1064 761.4925,-337.027"/>
<polygon fill="#000000" stroke="#000000" points="763.8704,-334.4443 754.5,-329.5 758.7419,-339.2086 763.8704,-334.4443"/>
</g>
<!-- e94219519190992 -->
<g id="node26" class="node">
<title>e94219519190992</title>
<path fill="#c0c0c0" stroke="#000000" d="M784,-253.5C784,-253.5 995,-253.5 995,-253.5 1001,-253.5 1007,-259.5 1007,-265.5 1007,-265.5 1007,-277.5 1007,-277.5 1007,-283.5 1001,-289.5 995,-289.5 995,-289.5 784,-289.5 784,-289.5 778,-289.5 772,-283.5 772,-277.5 772,-277.5 772,-265.5 772,-265.5 772,-259.5 778,-253.5 784,-253.5"/>
<text text-anchor="middle" x="889.5" y="-267.8" font-family="Times,serif" font-size="14.00" fill="#000000">Out of heap : 0x55b130f8e7d0</text>
</g>
<!-- p4&#45;&gt;e94219519190992 -->
<g id="edge22" class="edge">
<title>p4:f0&#45;&gt;e94219519190992:head</title>
<path fill="none" stroke="#000000" d="M888.5,-538.5C983.2958,-538.5 927.2772,-368.117 900.9032,-299.5671"/>
<polygon fill="#000000" stroke="#000000" points="904.0047,-297.8882 897.1003,-289.852 897.4863,-300.4398 904.0047,-297.8882"/>
</g>
<!-- p2&#45;&gt;e94219519190000 -->
<g id="edge25" class="edge">
<title>p2:f0&#45;&gt;e94219519190000:head</title>
<path fill="none" stroke="#000000" d="M1480.5,-619.5C1465.9981,-619.5 1465.3713,-166.2771 1465.4575,-46.9868"/>
<polygon fill="#000000" stroke="#000000" points="1468.9576,-46.8183 1465.4673,-36.8149 1461.9576,-46.8115 1468.9576,-46.8183"/>
</g>
<!-- p2&#45;&gt;e94219519190000 -->
<g id="edge27" class="edge">
<title>p2:f4&#45;&gt;e94219519190000:head</title>
<path fill="none" stroke="#000000" d="M1480.5,-527.5C1400.0438,-527.5 1460.7299,-246.4559 1460.5,-166 1460.3819,-124.6668 1458.6099,-114.2901 1460.5,-73 1460.891,-64.4576 1461.6251,-55.1855 1462.4127,-46.7527"/>
<polygon fill="#000000" stroke="#000000" points="1465.9117,-46.935 1463.4171,-36.6381 1458.946,-46.2432 1465.9117,-46.935"/>
</g>
<!-- p2&#45;&gt;e94219519190000 -->
<g id="edge29" class="edge">
<title>p2:f8&#45;&gt;e94219519190000:head</title>
<path fill="none" stroke="#000000" d="M1564.5,-434.5C1622.7547,-434.5 1542.5845,-341.2058 1542.5,-341 1496.0131,-227.8169 1508.723,-191.817 1479.5,-73 1477.3768,-64.3675 1474.9941,-54.9856 1472.8046,-46.478"/>
<polygon fill="#000000" stroke="#000000" points="1476.1534,-45.4477 1470.2602,-36.6432 1469.3765,-47.2011 1476.1534,-45.4477"/>
</g>
<!-- e94219519191088 -->
<g id="node28" class="node">
<title>e94219519191088</title>
<path fill="#c0c0c0" stroke="#000000" d="M1195,-253.5C1195,-253.5 1406,-253.5 1406,-253.5 1412,-253.5 1418,-259.5 1418,-265.5 1418,-265.5 1418,-277.5 1418,-277.5 1418,-283.5 1412,-289.5 1406,-289.5 1406,-289.5 1195,-289.5 1195,-289.5 1189,-289.5 1183,-283.5 1183,-277.5 1183,-277.5 1183,-265.5 1183,-265.5 1183,-259.5 1189,-253.5 1195,-253.5"/>
<text text-anchor="middle" x="1300.5" y="-267.8" font-family="Times,serif" font-size="14.00" fill="#000000">Out of heap : 0x55b130f8e830</text>
</g>
<!-- p2&#45;&gt;e94219519191088 -->
<g id="edge26" class="edge">
<title>p2:f2&#45;&gt;e94219519191088:head</title>
<path fill="none" stroke="#000000" d="M1480.5,-573.5C1353.9673,-573.5 1314.3279,-375.4635 1303.826,-300.124"/>
<polygon fill="#000000" stroke="#000000" points="1307.2599,-299.3927 1302.4811,-289.9368 1300.3201,-300.3089 1307.2599,-299.3927"/>
</g>
<!-- e94219519191104 -->
<g id="node29" class="node">
<title>e94219519191104</title>
<path fill="#c0c0c0" stroke="#000000" d="M1563,-253.5C1563,-253.5 1774,-253.5 1774,-253.5 1780,-253.5 1786,-259.5 1786,-265.5 1786,-265.5 1786,-277.5 1786,-277.5 1786,-283.5 1780,-289.5 1774,-289.5 1774,-289.5 1563,-289.5 1563,-289.5 1557,-289.5 1551,-283.5 1551,-277.5 1551,-277.5 1551,-265.5 1551,-265.5 1551,-259.5 1557,-253.5 1563,-253.5"/>
<text text-anchor="middle" x="1668.5" y="-267.8" font-family="Times,serif" font-size="14.00" fill="#000000">Out of heap : 0x55b130f8e840</text>
</g>
<!-- p2&#45;&gt;e94219519191104 -->
<g id="edge28" class="edge">
<title>p2:f6&#45;&gt;e94219519191104:head</title>
<path fill="none" stroke="#000000" d="M1564.5,-480.5C1644.2669,-480.5 1662.8538,-356.9665 1667.1845,-299.8472"/>
<polygon fill="#000000" stroke="#000000" points="1670.6892,-299.891 1667.8568,-289.6818 1663.7045,-299.429 1670.6892,-299.891"/>
</g>
<!-- e94219519191120 -->
<g id="node30" class="node">
<title>e94219519191120</title>
<path fill="#c0c0c0" stroke="#000000" d="M1816,-253.5C1816,-253.5 2027,-253.5 2027,-253.5 2033,-253.5 2039,-259.5 2039,-265.5 2039,-265.5 2039,-277.5 2039,-277.5 2039,-283.5 2033,-289.5 2027,-289.5 2027,-289.5 1816,-289.5 1816,-289.5 1810,-289.5 1804,-283.5 1804,-277.5 1804,-277.5 1804,-265.5 1804,-265.5 1804,-259.5 1810,-253.5 1816,-253.5"/>
<text text-anchor="middle" x="1921.5" y="-267.8" font-family="Times,serif" font-size="14.00" fill="#000000">Out of heap : 0x55b130f8e850</text>
</g>
<!-- p2&#45;&gt;e94219519191120 -->
<g id="edge30" class="edge">
<title>p2:f10&#45;&gt;e94219519191120:head</title>
<path fill="none" stroke="#000000" d="M1564.5,-388.5C1669.3147,-388.5 1697.1638,-377.2783 1795.5,-341 1827.4379,-329.2174 1861.075,-310.2869 1885.5536,-295.1562"/>
<polygon fill="#000000" stroke="#000000" points="1887.5245,-298.0516 1894.1375,-289.774 1883.8058,-292.121 1887.5245,-298.0516"/>
</g>
</g>
</svg>
