<?xml version="1.0" encoding="UTF-8" standalone="no"?>
<!DOCTYPE svg PUBLIC "-//W3C//DTD SVG 1.1//EN"
 "http://www.w3.org/Graphics/SVG/1.1/DTD/svg11.dtd">
<!-- Generated by graphviz version 2.40.1 (20161225.0304)
 -->
<!-- Title: g Pages: 1 -->
<svg width="272pt" height="419pt"
 viewBox="0.00 0.00 272.00 419.00" xmlns="http://www.w3.org/2000/svg" xmlns:xlink="http://www.w3.org/1999/xlink">
<g id="graph0" class="graph" transform="scale(1 1) rotate(0) translate(4 415)">
<title>g</title>
<polygon fill="#ffffff" stroke="transparent" points="-4,4 -4,-415 268,-415 268,4 -4,4"/>
<!-- entry_0 -->
<g id="node1" class="node">
<title>entry_0</title>
<polygon fill="#ffff00" stroke="#000000" points="2,-364.5 2,-410.5 123,-410.5 123,-364.5 2,-364.5"/>
<text text-anchor="middle" x="62.5" y="-395.3" font-family="Times,serif" font-size="14.00" fill="#000000">val : env_tuple</text>
<polyline fill="none" stroke="#000000" points="2,-387.5 123,-387.5 "/>
<text text-anchor="middle" x="62.5" y="-372.3" font-family="Times,serif" font-size="14.00" fill="#000000">.</text>
</g>
<!-- p2 -->
<g id="node3" class="node">
<title>p2</title>
<path fill="#add8e6" stroke="#000000" d="M42,-201C42,-201 83,-201 83,-201 89,-201 95,-207 95,-213 95,-213 95,-304 95,-304 95,-310 89,-316 83,-316 83,-316 42,-316 42,-316 36,-316 30,-310 30,-304 30,-304 30,-213 30,-213 30,-207 36,-201 42,-201"/>
<text text-anchor="middle" x="62.5" y="-300.8" font-family="Times,serif" font-size="14.00" fill="#000000">Tag : 0</text>
<polyline fill="none" stroke="#000000" points="30,-293 95,-293 "/>
<text text-anchor="middle" x="62.5" y="-277.8" font-family="Times,serif" font-size="14.00" fill="#000000">0</text>
<polyline fill="none" stroke="#000000" points="30,-270 95,-270 "/>
<text text-anchor="middle" x="62.5" y="-254.8" font-family="Times,serif" font-size="14.00" fill="#000000">1</text>
<polyline fill="none" stroke="#000000" points="30,-247 95,-247 "/>
<text text-anchor="middle" x="62.5" y="-231.8" font-family="Times,serif" font-size="14.00" fill="#000000">2</text>
<polyline fill="none" stroke="#000000" points="30,-224 95,-224 "/>
<text text-anchor="middle" x="62.5" y="-208.8" font-family="Times,serif" font-size="14.00" fill="#000000">.</text>
</g>
<!-- entry_0&#45;&gt;p2 -->
<g id="edge1" class="edge">
<title>entry_0&#45;&gt;p2</title>
<path fill="none" stroke="#000000" d="M62.5,-364.4374C62.5,-353.5906 62.5,-340.0325 62.5,-326.2752"/>
<polygon fill="#000000" stroke="#000000" points="66.0001,-326.2584 62.5,-316.2584 59.0001,-326.2585 66.0001,-326.2584"/>
</g>
<!-- entry_1 -->
<g id="node2" class="node">
<title>entry_1</title>
<polygon fill="#ffff00" stroke="#000000" points="141,-364.5 141,-410.5 264,-410.5 264,-364.5 141,-364.5"/>
<text text-anchor="middle" x="202.5" y="-395.3" font-family="Times,serif" font-size="14.00" fill="#000000">val : env_fields</text>
<polyline fill="none" stroke="#000000" points="141,-387.5 264,-387.5 "/>
<text text-anchor="middle" x="202.5" y="-372.3" font-family="Times,serif" font-size="14.00" fill="#000000">.</text>
</g>
<!-- p1 -->
<g id="node6" class="node">
<title>p1</title>
<path fill="#add8e6" stroke="#000000" d="M182,-189.5C182,-189.5 223,-189.5 223,-189.5 229,-189.5 235,-195.5 235,-201.5 235,-201.5 235,-315.5 235,-315.5 235,-321.5 229,-327.5 223,-327.5 223,-327.5 182,-327.5 182,-327.5 176,-327.5 170,-321.5 170,-315.5 170,-315.5 170,-201.5 170,-201.5 170,-195.5 176,-189.5 182,-189.5"/>
<text text-anchor="middle" x="202.5" y="-312.3" font-family="Times,serif" font-size="14.00" fill="#000000">Tag : 0</text>
<polyline fill="none" stroke="#000000" points="170,-304.5 235,-304.5 "/>
<text text-anchor="middle" x="202.5" y="-289.3" font-family="Times,serif" font-size="14.00" fill="#000000">0</text>
<polyline fill="none" stroke="#000000" points="170,-281.5 235,-281.5 "/>
<text text-anchor="middle" x="202.5" y="-266.3" font-family="Times,serif" font-size="14.00" fill="#000000">1</text>
<polyline fill="none" stroke="#000000" points="170,-258.5 235,-258.5 "/>
<text text-anchor="middle" x="202.5" y="-243.3" font-family="Times,serif" font-size="14.00" fill="#000000">2</text>
<polyline fill="none" stroke="#000000" points="170,-235.5 235,-235.5 "/>
<text text-anchor="middle" x="202.5" y="-220.3" font-family="Times,serif" font-size="14.00" fill="#000000">1</text>
<polyline fill="none" stroke="#000000" points="170,-212.5 235,-212.5 "/>
<text text-anchor="middle" x="202.5" y="-197.3" font-family="Times,serif" font-size="14.00" fill="#000000">.</text>
</g>
<!-- entry_1&#45;&gt;p1 -->
<g id="edge5" class="edge">
<title>entry_1&#45;&gt;p1</title>
<path fill="none" stroke="#000000" d="M202.5,-364.4374C202.5,-356.6383 202.5,-347.4375 202.5,-337.7688"/>
<polygon fill="#000000" stroke="#000000" points="206.0001,-337.5627 202.5,-327.5628 199.0001,-337.5628 206.0001,-337.5627"/>
</g>
<!-- p3 -->
<g id="node4" class="node">
<title>p3</title>
<path fill="#add8e6" stroke="#000000" d="M12,-106.5C12,-106.5 53,-106.5 53,-106.5 59,-106.5 65,-112.5 65,-118.5 65,-118.5 65,-140.5 65,-140.5 65,-146.5 59,-152.5 53,-152.5 53,-152.5 12,-152.5 12,-152.5 6,-152.5 0,-146.5 0,-140.5 0,-140.5 0,-118.5 0,-118.5 0,-112.5 6,-106.5 12,-106.5"/>
<text text-anchor="middle" x="32.5" y="-137.3" font-family="Times,serif" font-size="14.00" fill="#000000">Tag : 0</text>
<polyline fill="none" stroke="#000000" points="0,-129.5 65,-129.5 "/>
<text text-anchor="middle" x="32.5" y="-114.3" font-family="Times,serif" font-size="14.00" fill="#000000">.</text>
</g>
<!-- p2&#45;&gt;p3 -->
<g id="edge2" class="edge">
<title>p2:f3&#45;&gt;p3:head</title>
<path fill="none" stroke="#000000" d="M62.5,-200.5C62.5,-179.2735 41.1426,-177.6047 34.4684,-162.49"/>
<polygon fill="#000000" stroke="#000000" points="37.8672,-161.6347 32.5,-152.5 30.9993,-162.988 37.8672,-161.6347"/>
</g>
<!-- p4 -->
<g id="node5" class="node">
<title>p4</title>
<path fill="#add8e6" stroke="#000000" d="M42,-.5C42,-.5 83,-.5 83,-.5 89,-.5 95,-6.5 95,-12.5 95,-12.5 95,-57.5 95,-57.5 95,-63.5 89,-69.5 83,-69.5 83,-69.5 42,-69.5 42,-69.5 36,-69.5 30,-63.5 30,-57.5 30,-57.5 30,-12.5 30,-12.5 30,-6.5 36,-.5 42,-.5"/>
<text text-anchor="middle" x="62.5" y="-54.3" font-family="Times,serif" font-size="14.00" fill="#000000">Tag : 0</text>
<polyline fill="none" stroke="#000000" points="30,-46.5 95,-46.5 "/>
<text text-anchor="middle" x="62.5" y="-31.3" font-family="Times,serif" font-size="14.00" fill="#000000">1</text>
<polyline fill="none" stroke="#000000" points="30,-23.5 95,-23.5 "/>
<text text-anchor="middle" x="62.5" y="-8.3" font-family="Times,serif" font-size="14.00" fill="#000000">.</text>
</g>
<!-- p3&#45;&gt;p4 -->
<g id="edge3" class="edge">
<title>p3:f0&#45;&gt;p4:head</title>
<path fill="none" stroke="#000000" d="M32.5,-106.5C32.5,-89.6027 51.9257,-89.862 59.5138,-79.6665"/>
<polygon fill="#000000" stroke="#000000" points="62.8924,-80.5876 62.5,-70 56.2043,-78.5214 62.8924,-80.5876"/>
</g>
<!-- p4&#45;&gt;p2 -->
<g id="edge4" class="edge">
<title>p4:f1&#45;&gt;p2:head</title>
<path fill="none" stroke="#000000" d="M95.5,-12C157.0723,-12 160.3192,-274.4638 105.2409,-302.1455"/>
<polygon fill="#000000" stroke="#000000" points="104.3978,-298.7485 95.5,-304.5 106.0424,-305.5525 104.3978,-298.7485"/>
</g>
<!-- p1&#45;&gt;p1 -->
<g id="edge6" class="edge">
<title>p1:f4&#45;&gt;p1:head</title>
<path fill="none" stroke="#000000" d="M204.4446,-212.6875C211.4451,-267.0715 210.7969,-392 202.5,-392 195.3611,-392 193.8848,-365.1547 198.0713,-337.6658"/>
<polygon fill="#000000" stroke="#000000" points="201.5638,-338.0162 199.8699,-327.5576 194.6721,-336.7898 201.5638,-338.0162"/>
</g>
</g>
</svg>
