<?xml version="1.0" encoding="UTF-8" standalone="no"?>
<!DOCTYPE svg PUBLIC "-//W3C//DTD SVG 1.1//EN"
 "http://www.w3.org/Graphics/SVG/1.1/DTD/svg11.dtd">
<!-- Generated by graphviz version 2.40.1 (20161225.0304)
 -->
<!-- Title: g Pages: 1 -->
<svg width="692pt" height="373pt"
 viewBox="0.00 0.00 691.50 373.00" xmlns="http://www.w3.org/2000/svg" xmlns:xlink="http://www.w3.org/1999/xlink">
<g id="graph0" class="graph" transform="scale(1 1) rotate(0) translate(4 369)">
<title>g</title>
<polygon fill="#ffffff" stroke="transparent" points="-4,4 -4,-369 687.5,-369 687.5,4 -4,4"/>
<!-- entry_0 -->
<g id="node1" class="node">
<title>entry_0</title>
<polygon fill="#ffff00" stroke="#000000" points="25,-318.5 25,-364.5 148,-364.5 148,-318.5 25,-318.5"/>
<text text-anchor="middle" x="86.5" y="-349.3" font-family="Times,serif" font-size="14.00" fill="#000000">val : Exception</text>
<polyline fill="none" stroke="#000000" points="25,-341.5 148,-341.5 "/>
<text text-anchor="middle" x="86.5" y="-326.3" font-family="Times,serif" font-size="14.00" fill="#000000">.</text>
</g>
<!-- p10 -->
<g id="node5" class="node">
<title>p10</title>
<path fill="#add8e6" stroke="#000000" d="M57,-201C57,-201 116,-201 116,-201 122,-201 128,-207 128,-213 128,-213 128,-258 128,-258 128,-264 122,-270 116,-270 116,-270 57,-270 57,-270 51,-270 45,-264 45,-258 45,-258 45,-213 45,-213 45,-207 51,-201 57,-201"/>
<text text-anchor="middle" x="86.5" y="-254.8" font-family="Times,serif" font-size="14.00" fill="#000000">Tag : 248</text>
<polyline fill="none" stroke="#000000" points="45,-247 128,-247 "/>
<text text-anchor="middle" x="86.5" y="-231.8" font-family="Times,serif" font-size="14.00" fill="#000000">.</text>
<polyline fill="none" stroke="#000000" points="45,-224 128,-224 "/>
<text text-anchor="middle" x="86.5" y="-208.8" font-family="Times,serif" font-size="14.00" fill="#000000">8</text>
</g>
<!-- entry_0&#45;&gt;p10 -->
<g id="edge1" class="edge">
<title>entry_0&#45;&gt;p10</title>
<path fill="none" stroke="#000000" d="M86.5,-318.4996C86.5,-307.353 86.5,-293.5667 86.5,-280.4533"/>
<polygon fill="#000000" stroke="#000000" points="90.0001,-280.1441 86.5,-270.1442 83.0001,-280.1442 90.0001,-280.1441"/>
</g>
<!-- entry_1 -->
<g id="node2" class="node">
<title>entry_1</title>
<polygon fill="#ffff00" stroke="#000000" points="173,-318.5 173,-364.5 292,-364.5 292,-318.5 173,-318.5"/>
<text text-anchor="middle" x="232.5" y="-349.3" font-family="Times,serif" font-size="14.00" fill="#000000">val : Exc_int 0</text>
<polyline fill="none" stroke="#000000" points="173,-341.5 292,-341.5 "/>
<text text-anchor="middle" x="232.5" y="-326.3" font-family="Times,serif" font-size="14.00" fill="#000000">.</text>
</g>
<!-- p7 -->
<g id="node7" class="node">
<title>p7</title>
<path fill="#add8e6" stroke="#000000" d="M212,-201C212,-201 253,-201 253,-201 259,-201 265,-207 265,-213 265,-213 265,-258 265,-258 265,-264 259,-270 253,-270 253,-270 212,-270 212,-270 206,-270 200,-264 200,-258 200,-258 200,-213 200,-213 200,-207 206,-201 212,-201"/>
<text text-anchor="middle" x="232.5" y="-254.8" font-family="Times,serif" font-size="14.00" fill="#000000">Tag : 0</text>
<polyline fill="none" stroke="#000000" points="200,-247 265,-247 "/>
<text text-anchor="middle" x="232.5" y="-231.8" font-family="Times,serif" font-size="14.00" fill="#000000">.</text>
<polyline fill="none" stroke="#000000" points="200,-224 265,-224 "/>
<text text-anchor="middle" x="232.5" y="-208.8" font-family="Times,serif" font-size="14.00" fill="#000000">0</text>
</g>
<!-- entry_1&#45;&gt;p7 -->
<g id="edge3" class="edge">
<title>entry_1&#45;&gt;p7</title>
<path fill="none" stroke="#000000" d="M232.5,-318.4996C232.5,-307.353 232.5,-293.5667 232.5,-280.4533"/>
<polygon fill="#000000" stroke="#000000" points="236.0001,-280.1441 232.5,-270.1442 229.0001,-280.1442 236.0001,-280.1441"/>
</g>
<!-- entry_2 -->
<g id="node3" class="node">
<title>entry_2</title>
<polygon fill="#ffff00" stroke="#000000" points="337,-318.5 337,-364.5 474,-364.5 474,-318.5 337,-318.5"/>
<text text-anchor="middle" x="405.5" y="-349.3" font-family="Times,serif" font-size="14.00" fill="#000000">val : Exc_int 123</text>
<polyline fill="none" stroke="#000000" points="337,-341.5 474,-341.5 "/>
<text text-anchor="middle" x="405.5" y="-326.3" font-family="Times,serif" font-size="14.00" fill="#000000">.</text>
</g>
<!-- p4 -->
<g id="node10" class="node">
<title>p4</title>
<path fill="#add8e6" stroke="#000000" d="M385,-201C385,-201 426,-201 426,-201 432,-201 438,-207 438,-213 438,-213 438,-258 438,-258 438,-264 432,-270 426,-270 426,-270 385,-270 385,-270 379,-270 373,-264 373,-258 373,-258 373,-213 373,-213 373,-207 379,-201 385,-201"/>
<text text-anchor="middle" x="405.5" y="-254.8" font-family="Times,serif" font-size="14.00" fill="#000000">Tag : 0</text>
<polyline fill="none" stroke="#000000" points="373,-247 438,-247 "/>
<text text-anchor="middle" x="405.5" y="-231.8" font-family="Times,serif" font-size="14.00" fill="#000000">.</text>
<polyline fill="none" stroke="#000000" points="373,-224 438,-224 "/>
<text text-anchor="middle" x="405.5" y="-208.8" font-family="Times,serif" font-size="14.00" fill="#000000">123</text>
</g>
<!-- entry_2&#45;&gt;p4 -->
<g id="edge6" class="edge">
<title>entry_2&#45;&gt;p4</title>
<path fill="none" stroke="#000000" d="M405.5,-318.4996C405.5,-307.353 405.5,-293.5667 405.5,-280.4533"/>
<polygon fill="#000000" stroke="#000000" points="409.0001,-280.1441 405.5,-270.1442 402.0001,-280.1442 409.0001,-280.1441"/>
</g>
<!-- entry_3 -->
<g id="node4" class="node">
<title>entry_3</title>
<polygon fill="#ffff00" stroke="#000000" points="526.5,-318.5 526.5,-364.5 658.5,-364.5 658.5,-318.5 526.5,-318.5"/>
<text text-anchor="middle" x="592.5" y="-349.3" font-family="Times,serif" font-size="14.00" fill="#000000">val : Exc_int_int</text>
<polyline fill="none" stroke="#000000" points="526.5,-341.5 658.5,-341.5 "/>
<text text-anchor="middle" x="592.5" y="-326.3" font-family="Times,serif" font-size="14.00" fill="#000000">.</text>
</g>
<!-- p1 -->
<g id="node13" class="node">
<title>p1</title>
<path fill="#add8e6" stroke="#000000" d="M572,-189.5C572,-189.5 613,-189.5 613,-189.5 619,-189.5 625,-195.5 625,-201.5 625,-201.5 625,-269.5 625,-269.5 625,-275.5 619,-281.5 613,-281.5 613,-281.5 572,-281.5 572,-281.5 566,-281.5 560,-275.5 560,-269.5 560,-269.5 560,-201.5 560,-201.5 560,-195.5 566,-189.5 572,-189.5"/>
<text text-anchor="middle" x="592.5" y="-266.3" font-family="Times,serif" font-size="14.00" fill="#000000">Tag : 0</text>
<polyline fill="none" stroke="#000000" points="560,-258.5 625,-258.5 "/>
<text text-anchor="middle" x="592.5" y="-243.3" font-family="Times,serif" font-size="14.00" fill="#000000">.</text>
<polyline fill="none" stroke="#000000" points="560,-235.5 625,-235.5 "/>
<text text-anchor="middle" x="592.5" y="-220.3" font-family="Times,serif" font-size="14.00" fill="#000000">456</text>
<polyline fill="none" stroke="#000000" points="560,-212.5 625,-212.5 "/>
<text text-anchor="middle" x="592.5" y="-197.3" font-family="Times,serif" font-size="14.00" fill="#000000">789</text>
</g>
<!-- entry_3&#45;&gt;p1 -->
<g id="edge9" class="edge">
<title>entry_3&#45;&gt;p1</title>
<path fill="none" stroke="#000000" d="M592.5,-318.4996C592.5,-310.5402 592.5,-301.2348 592.5,-291.7896"/>
<polygon fill="#000000" stroke="#000000" points="596.0001,-291.5427 592.5,-281.5427 589.0001,-291.5428 596.0001,-291.5427"/>
</g>
<!-- p11 -->
<g id="node6" class="node">
<title>p11</title>
<path fill="#add8e6" stroke="#000000" d="M12,-95C12,-95 161,-95 161,-95 167,-95 173,-101 173,-107 173,-107 173,-129 173,-129 173,-135 167,-141 161,-141 161,-141 12,-141 12,-141 6,-141 0,-135 0,-129 0,-129 0,-107 0,-107 0,-101 6,-95 12,-95"/>
<text text-anchor="middle" x="86.5" y="-125.8" font-family="Times,serif" font-size="14.00" fill="#000000">Tag : 252</text>
<polyline fill="none" stroke="#000000" points="0,-118 173,-118 "/>
<text text-anchor="middle" x="86.5" y="-102.8" font-family="Times,serif" font-size="14.00" fill="#000000">&#39;Exception.Exception&#39;</text>
</g>
<!-- p10&#45;&gt;p11 -->
<g id="edge2" class="edge">
<title>p10:f0&#45;&gt;p11:head</title>
<path fill="none" stroke="#000000" d="M128.5,-235.5C144.0556,-235.5 133.2058,-215.3267 128.5,-200.5 119.8554,-173.2632 93.7409,-172.9716 87.739,-151.0066"/>
<polygon fill="#000000" stroke="#000000" points="91.2024,-150.4941 86.5,-141 84.2554,-151.3543 91.2024,-150.4941"/>
</g>
<!-- p8 -->
<g id="node8" class="node">
<title>p8</title>
<path fill="#add8e6" stroke="#000000" d="M203,-83.5C203,-83.5 262,-83.5 262,-83.5 268,-83.5 274,-89.5 274,-95.5 274,-95.5 274,-140.5 274,-140.5 274,-146.5 268,-152.5 262,-152.5 262,-152.5 203,-152.5 203,-152.5 197,-152.5 191,-146.5 191,-140.5 191,-140.5 191,-95.5 191,-95.5 191,-89.5 197,-83.5 203,-83.5"/>
<text text-anchor="middle" x="232.5" y="-137.3" font-family="Times,serif" font-size="14.00" fill="#000000">Tag : 248</text>
<polyline fill="none" stroke="#000000" points="191,-129.5 274,-129.5 "/>
<text text-anchor="middle" x="232.5" y="-114.3" font-family="Times,serif" font-size="14.00" fill="#000000">.</text>
<polyline fill="none" stroke="#000000" points="191,-106.5 274,-106.5 "/>
<text text-anchor="middle" x="232.5" y="-91.3" font-family="Times,serif" font-size="14.00" fill="#000000">9</text>
</g>
<!-- p7&#45;&gt;p8 -->
<g id="edge4" class="edge">
<title>p7:f0&#45;&gt;p8:head</title>
<path fill="none" stroke="#000000" d="M265.5,-235.5C281.0556,-235.5 270.1503,-215.3442 265.5,-200.5 259.016,-179.8026 239.9806,-178.5165 234.1903,-163.179"/>
<polygon fill="#000000" stroke="#000000" points="237.591,-162.2915 232.5,-153 230.6855,-163.4383 237.591,-162.2915"/>
</g>
<!-- p9 -->
<g id="node9" class="node">
<title>p9</title>
<path fill="#add8e6" stroke="#000000" d="M167,-.5C167,-.5 298,-.5 298,-.5 304,-.5 310,-6.5 310,-12.5 310,-12.5 310,-34.5 310,-34.5 310,-40.5 304,-46.5 298,-46.5 298,-46.5 167,-46.5 167,-46.5 161,-46.5 155,-40.5 155,-34.5 155,-34.5 155,-12.5 155,-12.5 155,-6.5 161,-.5 167,-.5"/>
<text text-anchor="middle" x="232.5" y="-31.3" font-family="Times,serif" font-size="14.00" fill="#000000">Tag : 252</text>
<polyline fill="none" stroke="#000000" points="155,-23.5 310,-23.5 "/>
<text text-anchor="middle" x="232.5" y="-8.3" font-family="Times,serif" font-size="14.00" fill="#000000">&#39;Exception.Exc_int&#39;</text>
</g>
<!-- p8&#45;&gt;p9 -->
<g id="edge5" class="edge">
<title>p8:f0&#45;&gt;p9:head</title>
<path fill="none" stroke="#000000" d="M274.5,-118C290.0556,-118 280.9517,-97.1545 274.5,-83 266.0058,-64.3645 242.7769,-68.5227 235.0429,-56.4576"/>
<polygon fill="#000000" stroke="#000000" points="238.3656,-55.323 232.5,-46.5 231.5832,-57.0551 238.3656,-55.323"/>
</g>
<!-- p5 -->
<g id="node11" class="node">
<title>p5</title>
<path fill="#add8e6" stroke="#000000" d="M376,-83.5C376,-83.5 435,-83.5 435,-83.5 441,-83.5 447,-89.5 447,-95.5 447,-95.5 447,-140.5 447,-140.5 447,-146.5 441,-152.5 435,-152.5 435,-152.5 376,-152.5 376,-152.5 370,-152.5 364,-146.5 364,-140.5 364,-140.5 364,-95.5 364,-95.5 364,-89.5 370,-83.5 376,-83.5"/>
<text text-anchor="middle" x="405.5" y="-137.3" font-family="Times,serif" font-size="14.00" fill="#000000">Tag : 248</text>
<polyline fill="none" stroke="#000000" points="364,-129.5 447,-129.5 "/>
<text text-anchor="middle" x="405.5" y="-114.3" font-family="Times,serif" font-size="14.00" fill="#000000">.</text>
<polyline fill="none" stroke="#000000" points="364,-106.5 447,-106.5 "/>
<text text-anchor="middle" x="405.5" y="-91.3" font-family="Times,serif" font-size="14.00" fill="#000000">9</text>
</g>
<!-- p4&#45;&gt;p5 -->
<g id="edge7" class="edge">
<title>p4:f0&#45;&gt;p5:head</title>
<path fill="none" stroke="#000000" d="M438.5,-235.5C454.0556,-235.5 443.1503,-215.3442 438.5,-200.5 432.016,-179.8026 412.9806,-178.5165 407.1903,-163.179"/>
<polygon fill="#000000" stroke="#000000" points="410.591,-162.2915 405.5,-153 403.6855,-163.4383 410.591,-162.2915"/>
</g>
<!-- p6 -->
<g id="node12" class="node">
<title>p6</title>
<path fill="#add8e6" stroke="#000000" d="M340,-.5C340,-.5 471,-.5 471,-.5 477,-.5 483,-6.5 483,-12.5 483,-12.5 483,-34.5 483,-34.5 483,-40.5 477,-46.5 471,-46.5 471,-46.5 340,-46.5 340,-46.5 334,-46.5 328,-40.5 328,-34.5 328,-34.5 328,-12.5 328,-12.5 328,-6.5 334,-.5 340,-.5"/>
<text text-anchor="middle" x="405.5" y="-31.3" font-family="Times,serif" font-size="14.00" fill="#000000">Tag : 252</text>
<polyline fill="none" stroke="#000000" points="328,-23.5 483,-23.5 "/>
<text text-anchor="middle" x="405.5" y="-8.3" font-family="Times,serif" font-size="14.00" fill="#000000">&#39;Exception.Exc_int&#39;</text>
</g>
<!-- p5&#45;&gt;p6 -->
<g id="edge8" class="edge">
<title>p5:f0&#45;&gt;p6:head</title>
<path fill="none" stroke="#000000" d="M447.5,-118C463.0556,-118 453.9517,-97.1545 447.5,-83 439.0058,-64.3645 415.7769,-68.5227 408.0429,-56.4576"/>
<polygon fill="#000000" stroke="#000000" points="411.3656,-55.323 405.5,-46.5 404.5832,-57.0551 411.3656,-55.323"/>
</g>
<!-- p2 -->
<g id="node14" class="node">
<title>p2</title>
<path fill="#add8e6" stroke="#000000" d="M563,-83.5C563,-83.5 622,-83.5 622,-83.5 628,-83.5 634,-89.5 634,-95.5 634,-95.5 634,-140.5 634,-140.5 634,-146.5 628,-152.5 622,-152.5 622,-152.5 563,-152.5 563,-152.5 557,-152.5 551,-146.5 551,-140.5 551,-140.5 551,-95.5 551,-95.5 551,-89.5 557,-83.5 563,-83.5"/>
<text text-anchor="middle" x="592.5" y="-137.3" font-family="Times,serif" font-size="14.00" fill="#000000">Tag : 248</text>
<polyline fill="none" stroke="#000000" points="551,-129.5 634,-129.5 "/>
<text text-anchor="middle" x="592.5" y="-114.3" font-family="Times,serif" font-size="14.00" fill="#000000">.</text>
<polyline fill="none" stroke="#000000" points="551,-106.5 634,-106.5 "/>
<text text-anchor="middle" x="592.5" y="-91.3" font-family="Times,serif" font-size="14.00" fill="#000000">10</text>
</g>
<!-- p1&#45;&gt;p2 -->
<g id="edge10" class="edge">
<title>p1:f0&#45;&gt;p2:head</title>
<path fill="none" stroke="#000000" d="M625.5,-247.5C651.5,-247.5 634.9256,-213.2313 625.5,-189 619.1682,-172.7223 601.6584,-173.3853 595.0602,-162.9557"/>
<polygon fill="#000000" stroke="#000000" points="598.3804,-161.8132 592.5,-153 591.6009,-163.5566 598.3804,-161.8132"/>
</g>
<!-- p3 -->
<g id="node15" class="node">
<title>p3</title>
<path fill="#add8e6" stroke="#000000" d="M513.5,-.5C513.5,-.5 671.5,-.5 671.5,-.5 677.5,-.5 683.5,-6.5 683.5,-12.5 683.5,-12.5 683.5,-34.5 683.5,-34.5 683.5,-40.5 677.5,-46.5 671.5,-46.5 671.5,-46.5 513.5,-46.5 513.5,-46.5 507.5,-46.5 501.5,-40.5 501.5,-34.5 501.5,-34.5 501.5,-12.5 501.5,-12.5 501.5,-6.5 507.5,-.5 513.5,-.5"/>
<text text-anchor="middle" x="592.5" y="-31.3" font-family="Times,serif" font-size="14.00" fill="#000000">Tag : 252</text>
<polyline fill="none" stroke="#000000" points="501.5,-23.5 683.5,-23.5 "/>
<text text-anchor="middle" x="592.5" y="-8.3" font-family="Times,serif" font-size="14.00" fill="#000000">&#39;Exception.Exc_int_int&#39;</text>
</g>
<!-- p2&#45;&gt;p3 -->
<g id="edge11" class="edge">
<title>p2:f0&#45;&gt;p3:head</title>
<path fill="none" stroke="#000000" d="M634.5,-118C650.0556,-118 640.9517,-97.1545 634.5,-83 626.0058,-64.3645 602.7769,-68.5227 595.0429,-56.4576"/>
<polygon fill="#000000" stroke="#000000" points="598.3656,-55.323 592.5,-46.5 591.5832,-57.0551 598.3656,-55.323"/>
</g>
</g>
</svg>
