<?xml version="1.0" encoding="UTF-8" standalone="no"?>
<!DOCTYPE svg PUBLIC "-//W3C//DTD SVG 1.1//EN"
 "http://www.w3.org/Graphics/SVG/1.1/DTD/svg11.dtd">
<!-- Generated by graphviz version 2.38.0 (20140413.2041)
 -->
<!-- Title: g Pages: 1 -->
<svg width="692pt" height="373pt"
 viewBox="0.00 0.00 691.50 373.00" xmlns="http://www.w3.org/2000/svg" xmlns:xlink="http://www.w3.org/1999/xlink">
<g id="graph0" class="graph" transform="scale(1 1) rotate(0) translate(4 369)">
<title>g</title>
<polygon fill="white" stroke="none" points="-4,4 -4,-369 687.5,-369 687.5,4 -4,4"/>
<!-- entry_0 -->
<g id="node1" class="node"><title>entry_0</title>
<polygon fill="yellow" stroke="black" points="25,-318.5 25,-364.5 148,-364.5 148,-318.5 25,-318.5"/>
<text text-anchor="middle" x="86.5" y="-349.3" font-family="Times,serif" font-size="14.00">val : Exception</text>
<polyline fill="none" stroke="black" points="25,-341.5 148,-341.5 "/>
<text text-anchor="middle" x="86.5" y="-326.3" font-family="Times,serif" font-size="14.00">.</text>
</g>
<!-- p10 -->
<g id="node5" class="node"><title>p10</title>
<path fill="lightblue" stroke="black" d="M57,-201C57,-201 116,-201 116,-201 122,-201 128,-207 128,-213 128,-213 128,-258 128,-258 128,-264 122,-270 116,-270 116,-270 57,-270 57,-270 51,-270 45,-264 45,-258 45,-258 45,-213 45,-213 45,-207 51,-201 57,-201"/>
<text text-anchor="middle" x="86.5" y="-254.8" font-family="Times,serif" font-size="14.00">Tag : 248</text>
<polyline fill="none" stroke="black" points="45,-247 128,-247 "/>
<text text-anchor="middle" x="86.5" y="-231.8" font-family="Times,serif" font-size="14.00">.</text>
<polyline fill="none" stroke="black" points="45,-224 128,-224 "/>
<text text-anchor="middle" x="86.5" y="-208.8" font-family="Times,serif" font-size="14.00">8</text>
</g>
<!-- entry_0&#45;&gt;p10 -->
<g id="edge1" class="edge"><title>entry_0&#45;&gt;p10</title>
<path fill="none" stroke="black" d="M86.5,-318.444C86.5,-307.435 86.5,-293.709 86.5,-280.658"/>
<polygon fill="black" stroke="black" points="90.0001,-280.401 86.5,-270.401 83.0001,-280.401 90.0001,-280.401"/>
</g>
<!-- entry_1 -->
<g id="node2" class="node"><title>entry_1</title>
<polygon fill="yellow" stroke="black" points="173,-318.5 173,-364.5 292,-364.5 292,-318.5 173,-318.5"/>
<text text-anchor="middle" x="232.5" y="-349.3" font-family="Times,serif" font-size="14.00">val : Exc_int 0</text>
<polyline fill="none" stroke="black" points="173,-341.5 292,-341.5 "/>
<text text-anchor="middle" x="232.5" y="-326.3" font-family="Times,serif" font-size="14.00">.</text>
</g>
<!-- p7 -->
<g id="node7" class="node"><title>p7</title>
<path fill="lightblue" stroke="black" d="M212,-201C212,-201 253,-201 253,-201 259,-201 265,-207 265,-213 265,-213 265,-258 265,-258 265,-264 259,-270 253,-270 253,-270 212,-270 212,-270 206,-270 200,-264 200,-258 200,-258 200,-213 200,-213 200,-207 206,-201 212,-201"/>
<text text-anchor="middle" x="232.5" y="-254.8" font-family="Times,serif" font-size="14.00">Tag : 0</text>
<polyline fill="none" stroke="black" points="200,-247 265,-247 "/>
<text text-anchor="middle" x="232.5" y="-231.8" font-family="Times,serif" font-size="14.00">.</text>
<polyline fill="none" stroke="black" points="200,-224 265,-224 "/>
<text text-anchor="middle" x="232.5" y="-208.8" font-family="Times,serif" font-size="14.00">0</text>
</g>
<!-- entry_1&#45;&gt;p7 -->
<g id="edge3" class="edge"><title>entry_1&#45;&gt;p7</title>
<path fill="none" stroke="black" d="M232.5,-318.444C232.5,-307.435 232.5,-293.709 232.5,-280.658"/>
<polygon fill="black" stroke="black" points="236,-280.401 232.5,-270.401 229,-280.401 236,-280.401"/>
</g>
<!-- entry_2 -->
<g id="node3" class="node"><title>entry_2</title>
<polygon fill="yellow" stroke="black" points="337,-318.5 337,-364.5 474,-364.5 474,-318.5 337,-318.5"/>
<text text-anchor="middle" x="405.5" y="-349.3" font-family="Times,serif" font-size="14.00">val : Exc_int 123</text>
<polyline fill="none" stroke="black" points="337,-341.5 474,-341.5 "/>
<text text-anchor="middle" x="405.5" y="-326.3" font-family="Times,serif" font-size="14.00">.</text>
</g>
<!-- p4 -->
<g id="node10" class="node"><title>p4</title>
<path fill="lightblue" stroke="black" d="M385,-201C385,-201 426,-201 426,-201 432,-201 438,-207 438,-213 438,-213 438,-258 438,-258 438,-264 432,-270 426,-270 426,-270 385,-270 385,-270 379,-270 373,-264 373,-258 373,-258 373,-213 373,-213 373,-207 379,-201 385,-201"/>
<text text-anchor="middle" x="405.5" y="-254.8" font-family="Times,serif" font-size="14.00">Tag : 0</text>
<polyline fill="none" stroke="black" points="373,-247 438,-247 "/>
<text text-anchor="middle" x="405.5" y="-231.8" font-family="Times,serif" font-size="14.00">.</text>
<polyline fill="none" stroke="black" points="373,-224 438,-224 "/>
<text text-anchor="middle" x="405.5" y="-208.8" font-family="Times,serif" font-size="14.00">123</text>
</g>
<!-- entry_2&#45;&gt;p4 -->
<g id="edge6" class="edge"><title>entry_2&#45;&gt;p4</title>
<path fill="none" stroke="black" d="M405.5,-318.444C405.5,-307.435 405.5,-293.709 405.5,-280.658"/>
<polygon fill="black" stroke="black" points="409,-280.401 405.5,-270.401 402,-280.401 409,-280.401"/>
</g>
<!-- entry_3 -->
<g id="node4" class="node"><title>entry_3</title>
<polygon fill="yellow" stroke="black" points="526.5,-318.5 526.5,-364.5 658.5,-364.5 658.5,-318.5 526.5,-318.5"/>
<text text-anchor="middle" x="592.5" y="-349.3" font-family="Times,serif" font-size="14.00">val : Exc_int_int</text>
<polyline fill="none" stroke="black" points="526.5,-341.5 658.5,-341.5 "/>
<text text-anchor="middle" x="592.5" y="-326.3" font-family="Times,serif" font-size="14.00">.</text>
</g>
<!-- p1 -->
<g id="node13" class="node"><title>p1</title>
<path fill="lightblue" stroke="black" d="M572,-189.5C572,-189.5 613,-189.5 613,-189.5 619,-189.5 625,-195.5 625,-201.5 625,-201.5 625,-269.5 625,-269.5 625,-275.5 619,-281.5 613,-281.5 613,-281.5 572,-281.5 572,-281.5 566,-281.5 560,-275.5 560,-269.5 560,-269.5 560,-201.5 560,-201.5 560,-195.5 566,-189.5 572,-189.5"/>
<text text-anchor="middle" x="592.5" y="-266.3" font-family="Times,serif" font-size="14.00">Tag : 0</text>
<polyline fill="none" stroke="black" points="560,-258.5 625,-258.5 "/>
<text text-anchor="middle" x="592.5" y="-243.3" font-family="Times,serif" font-size="14.00">.</text>
<polyline fill="none" stroke="black" points="560,-235.5 625,-235.5 "/>
<text text-anchor="middle" x="592.5" y="-220.3" font-family="Times,serif" font-size="14.00">456</text>
<polyline fill="none" stroke="black" points="560,-212.5 625,-212.5 "/>
<text text-anchor="middle" x="592.5" y="-197.3" font-family="Times,serif" font-size="14.00">789</text>
</g>
<!-- entry_3&#45;&gt;p1 -->
<g id="edge9" class="edge"><title>entry_3&#45;&gt;p1</title>
<path fill="none" stroke="black" d="M592.5,-318.444C592.5,-310.563 592.5,-301.288 592.5,-291.866"/>
<polygon fill="black" stroke="black" points="596,-291.643 592.5,-281.643 589,-291.643 596,-291.643"/>
</g>
<!-- p11 -->
<g id="node6" class="node"><title>p11</title>
<path fill="lightblue" stroke="black" d="M12,-95C12,-95 161,-95 161,-95 167,-95 173,-101 173,-107 173,-107 173,-129 173,-129 173,-135 167,-141 161,-141 161,-141 12,-141 12,-141 6,-141 0,-135 0,-129 0,-129 0,-107 0,-107 0,-101 6,-95 12,-95"/>
<text text-anchor="middle" x="86.5" y="-125.8" font-family="Times,serif" font-size="14.00">Tag : 252</text>
<polyline fill="none" stroke="black" points="0,-118 173,-118 "/>
<text text-anchor="middle" x="86.5" y="-102.8" font-family="Times,serif" font-size="14.00">&#39;Exception.Exception&#39;</text>
</g>
<!-- p10&#45;&gt;p11 -->
<g id="edge2" class="edge"><title>p10:f0&#45;&gt;p11:head</title>
<path fill="none" stroke="black" d="M129.5,-235.5C145.062,-235.5 133.478,-215.244 128.5,-200.5 119.501,-173.847 93.8766,-173.58 87.8026,-152.175"/>
<polygon fill="black" stroke="black" points="91.2416,-151.475 86.5,-142 84.2982,-152.364 91.2416,-151.475"/>
</g>
<!-- p8 -->
<g id="node8" class="node"><title>p8</title>
<path fill="lightblue" stroke="black" d="M203,-83.5C203,-83.5 262,-83.5 262,-83.5 268,-83.5 274,-89.5 274,-95.5 274,-95.5 274,-140.5 274,-140.5 274,-146.5 268,-152.5 262,-152.5 262,-152.5 203,-152.5 203,-152.5 197,-152.5 191,-146.5 191,-140.5 191,-140.5 191,-95.5 191,-95.5 191,-89.5 197,-83.5 203,-83.5"/>
<text text-anchor="middle" x="232.5" y="-137.3" font-family="Times,serif" font-size="14.00">Tag : 248</text>
<polyline fill="none" stroke="black" points="191,-129.5 274,-129.5 "/>
<text text-anchor="middle" x="232.5" y="-114.3" font-family="Times,serif" font-size="14.00">.</text>
<polyline fill="none" stroke="black" points="191,-106.5 274,-106.5 "/>
<text text-anchor="middle" x="232.5" y="-91.3" font-family="Times,serif" font-size="14.00">9</text>
</g>
<!-- p7&#45;&gt;p8 -->
<g id="edge4" class="edge"><title>p7:f0&#45;&gt;p8:head</title>
<path fill="none" stroke="black" d="M266.5,-235.5C282.062,-235.5 270.364,-215.282 265.5,-200.5 258.721,-179.897 239.888,-178.546 234.169,-163.186"/>
<polygon fill="black" stroke="black" points="237.571,-162.303 232.5,-153 230.663,-163.434 237.571,-162.303"/>
</g>
<!-- p9 -->
<g id="node9" class="node"><title>p9</title>
<path fill="lightblue" stroke="black" d="M167,-0.5C167,-0.5 298,-0.5 298,-0.5 304,-0.5 310,-6.5 310,-12.5 310,-12.5 310,-34.5 310,-34.5 310,-40.5 304,-46.5 298,-46.5 298,-46.5 167,-46.5 167,-46.5 161,-46.5 155,-40.5 155,-34.5 155,-34.5 155,-12.5 155,-12.5 155,-6.5 161,-0.5 167,-0.5"/>
<text text-anchor="middle" x="232.5" y="-31.3" font-family="Times,serif" font-size="14.00">Tag : 252</text>
<polyline fill="none" stroke="black" points="155,-23.5 310,-23.5 "/>
<text text-anchor="middle" x="232.5" y="-8.3" font-family="Times,serif" font-size="14.00">&#39;Exception.Exc_int&#39;</text>
</g>
<!-- p8&#45;&gt;p9 -->
<g id="edge5" class="edge"><title>p8:f0&#45;&gt;p9:head</title>
<path fill="none" stroke="black" d="M275.5,-118C291.062,-118 281.204,-97.0439 274.5,-83 265.729,-64.6262 242.682,-68.856 235.018,-56.8902"/>
<polygon fill="black" stroke="black" points="238.359,-55.8271 232.5,-47 231.576,-57.5545 238.359,-55.8271"/>
</g>
<!-- p5 -->
<g id="node11" class="node"><title>p5</title>
<path fill="lightblue" stroke="black" d="M376,-83.5C376,-83.5 435,-83.5 435,-83.5 441,-83.5 447,-89.5 447,-95.5 447,-95.5 447,-140.5 447,-140.5 447,-146.5 441,-152.5 435,-152.5 435,-152.5 376,-152.5 376,-152.5 370,-152.5 364,-146.5 364,-140.5 364,-140.5 364,-95.5 364,-95.5 364,-89.5 370,-83.5 376,-83.5"/>
<text text-anchor="middle" x="405.5" y="-137.3" font-family="Times,serif" font-size="14.00">Tag : 248</text>
<polyline fill="none" stroke="black" points="364,-129.5 447,-129.5 "/>
<text text-anchor="middle" x="405.5" y="-114.3" font-family="Times,serif" font-size="14.00">.</text>
<polyline fill="none" stroke="black" points="364,-106.5 447,-106.5 "/>
<text text-anchor="middle" x="405.5" y="-91.3" font-family="Times,serif" font-size="14.00">9</text>
</g>
<!-- p4&#45;&gt;p5 -->
<g id="edge7" class="edge"><title>p4:f0&#45;&gt;p5:head</title>
<path fill="none" stroke="black" d="M439.5,-235.5C455.062,-235.5 443.364,-215.282 438.5,-200.5 431.721,-179.897 412.888,-178.546 407.169,-163.186"/>
<polygon fill="black" stroke="black" points="410.571,-162.303 405.5,-153 403.663,-163.434 410.571,-162.303"/>
</g>
<!-- p6 -->
<g id="node12" class="node"><title>p6</title>
<path fill="lightblue" stroke="black" d="M340,-0.5C340,-0.5 471,-0.5 471,-0.5 477,-0.5 483,-6.5 483,-12.5 483,-12.5 483,-34.5 483,-34.5 483,-40.5 477,-46.5 471,-46.5 471,-46.5 340,-46.5 340,-46.5 334,-46.5 328,-40.5 328,-34.5 328,-34.5 328,-12.5 328,-12.5 328,-6.5 334,-0.5 340,-0.5"/>
<text text-anchor="middle" x="405.5" y="-31.3" font-family="Times,serif" font-size="14.00">Tag : 252</text>
<polyline fill="none" stroke="black" points="328,-23.5 483,-23.5 "/>
<text text-anchor="middle" x="405.5" y="-8.3" font-family="Times,serif" font-size="14.00">&#39;Exception.Exc_int&#39;</text>
</g>
<!-- p5&#45;&gt;p6 -->
<g id="edge8" class="edge"><title>p5:f0&#45;&gt;p6:head</title>
<path fill="none" stroke="black" d="M448.5,-118C464.062,-118 454.204,-97.0439 447.5,-83 438.729,-64.6262 415.682,-68.856 408.018,-56.8902"/>
<polygon fill="black" stroke="black" points="411.359,-55.8271 405.5,-47 404.576,-57.5545 411.359,-55.8271"/>
</g>
<!-- p2 -->
<g id="node14" class="node"><title>p2</title>
<path fill="lightblue" stroke="black" d="M563,-83.5C563,-83.5 622,-83.5 622,-83.5 628,-83.5 634,-89.5 634,-95.5 634,-95.5 634,-140.5 634,-140.5 634,-146.5 628,-152.5 622,-152.5 622,-152.5 563,-152.5 563,-152.5 557,-152.5 551,-146.5 551,-140.5 551,-140.5 551,-95.5 551,-95.5 551,-89.5 557,-83.5 563,-83.5"/>
<text text-anchor="middle" x="592.5" y="-137.3" font-family="Times,serif" font-size="14.00">Tag : 248</text>
<polyline fill="none" stroke="black" points="551,-129.5 634,-129.5 "/>
<text text-anchor="middle" x="592.5" y="-114.3" font-family="Times,serif" font-size="14.00">.</text>
<polyline fill="none" stroke="black" points="551,-106.5 634,-106.5 "/>
<text text-anchor="middle" x="592.5" y="-91.3" font-family="Times,serif" font-size="14.00">10</text>
</g>
<!-- p1&#45;&gt;p2 -->
<g id="edge10" class="edge"><title>p1:f0&#45;&gt;p2:head</title>
<path fill="none" stroke="black" d="M626.5,-247.5C652.504,-247.5 635.134,-213.153 625.5,-189 619.029,-172.777 601.604,-173.407 595.044,-162.962"/>
<polygon fill="black" stroke="black" points="598.366,-161.823 592.5,-153 591.584,-163.555 598.366,-161.823"/>
</g>
<!-- p3 -->
<g id="node15" class="node"><title>p3</title>
<path fill="lightblue" stroke="black" d="M513.5,-0.5C513.5,-0.5 671.5,-0.5 671.5,-0.5 677.5,-0.5 683.5,-6.5 683.5,-12.5 683.5,-12.5 683.5,-34.5 683.5,-34.5 683.5,-40.5 677.5,-46.5 671.5,-46.5 671.5,-46.5 513.5,-46.5 513.5,-46.5 507.5,-46.5 501.5,-40.5 501.5,-34.5 501.5,-34.5 501.5,-12.5 501.5,-12.5 501.5,-6.5 507.5,-0.5 513.5,-0.5"/>
<text text-anchor="middle" x="592.5" y="-31.3" font-family="Times,serif" font-size="14.00">Tag : 252</text>
<polyline fill="none" stroke="black" points="501.5,-23.5 683.5,-23.5 "/>
<text text-anchor="middle" x="592.5" y="-8.3" font-family="Times,serif" font-size="14.00">&#39;Exception.Exc_int_int&#39;</text>
</g>
<!-- p2&#45;&gt;p3 -->
<g id="edge11" class="edge"><title>p2:f0&#45;&gt;p3:head</title>
<path fill="none" stroke="black" d="M635.5,-118C651.062,-118 641.204,-97.0439 634.5,-83 625.729,-64.6262 602.682,-68.856 595.018,-56.8902"/>
<polygon fill="black" stroke="black" points="598.359,-55.8271 592.5,-47 591.576,-57.5545 598.359,-55.8271"/>
</g>
</g>
</svg>
