<?xml version="1.0" encoding="UTF-8" standalone="no"?>
<!DOCTYPE svg PUBLIC "-//W3C//DTD SVG 1.1//EN"
 "http://www.w3.org/Graphics/SVG/1.1/DTD/svg11.dtd">
<!-- Generated by graphviz version 2.38.0 (20140413.2041)
 -->
<!-- Title: g Pages: 1 -->
<svg width="888pt" height="456pt"
 viewBox="0.00 0.00 888.19 456.00" xmlns="http://www.w3.org/2000/svg" xmlns:xlink="http://www.w3.org/1999/xlink">
<g id="graph0" class="graph" transform="scale(1 1) rotate(0) translate(4 452)">
<title>g</title>
<polygon fill="white" stroke="none" points="-4,4 -4,-452 884.189,-452 884.189,4 -4,4"/>
<!-- entry_0 -->
<g id="node1" class="node"><title>entry_0</title>
<polygon fill="yellow" stroke="black" points="0,-401.5 0,-447.5 62,-447.5 62,-401.5 0,-401.5"/>
<text text-anchor="middle" x="31" y="-432.3" font-family="Times,serif" font-size="14.00">val : []</text>
<polyline fill="none" stroke="black" points="0,-424.5 62,-424.5 "/>
<text text-anchor="middle" x="31" y="-409.3" font-family="Times,serif" font-size="14.00">0</text>
</g>
<!-- entry_1 -->
<g id="node2" class="node"><title>entry_1</title>
<polygon fill="yellow" stroke="black" points="80,-401.5 80,-447.5 178,-447.5 178,-401.5 80,-401.5"/>
<text text-anchor="middle" x="129" y="-432.3" font-family="Times,serif" font-size="14.00">val : [1;2;3]</text>
<polyline fill="none" stroke="black" points="80,-424.5 178,-424.5 "/>
<text text-anchor="middle" x="129" y="-409.3" font-family="Times,serif" font-size="14.00">.</text>
</g>
<!-- p15 -->
<g id="node8" class="node"><title>p15</title>
<path fill="lightblue" stroke="black" d="M108.5,-295.5C108.5,-295.5 149.5,-295.5 149.5,-295.5 155.5,-295.5 161.5,-301.5 161.5,-307.5 161.5,-307.5 161.5,-352.5 161.5,-352.5 161.5,-358.5 155.5,-364.5 149.5,-364.5 149.5,-364.5 108.5,-364.5 108.5,-364.5 102.5,-364.5 96.5,-358.5 96.5,-352.5 96.5,-352.5 96.5,-307.5 96.5,-307.5 96.5,-301.5 102.5,-295.5 108.5,-295.5"/>
<text text-anchor="middle" x="129" y="-349.3" font-family="Times,serif" font-size="14.00">Tag : 0</text>
<polyline fill="none" stroke="black" points="96.5,-341.5 161.5,-341.5 "/>
<text text-anchor="middle" x="129" y="-326.3" font-family="Times,serif" font-size="14.00">1</text>
<polyline fill="none" stroke="black" points="96.5,-318.5 161.5,-318.5 "/>
<text text-anchor="middle" x="129" y="-303.3" font-family="Times,serif" font-size="14.00">.</text>
</g>
<!-- entry_1&#45;&gt;p15 -->
<g id="edge1" class="edge"><title>entry_1&#45;&gt;p15</title>
<path fill="none" stroke="black" d="M129,-401.108C129,-393.183 129,-383.971 129,-374.882"/>
<polygon fill="black" stroke="black" points="132.5,-374.746 129,-364.746 125.5,-374.746 132.5,-374.746"/>
</g>
<!-- entry_2 -->
<g id="node3" class="node"><title>entry_2</title>
<polygon fill="yellow" stroke="black" points="196.5,-401.5 196.5,-447.5 307.5,-447.5 307.5,-401.5 196.5,-401.5"/>
<text text-anchor="middle" x="252" y="-432.3" font-family="Times,serif" font-size="14.00">val : [1.;2.;3.]</text>
<polyline fill="none" stroke="black" points="196.5,-424.5 307.5,-424.5 "/>
<text text-anchor="middle" x="252" y="-409.3" font-family="Times,serif" font-size="14.00">.</text>
</g>
<!-- p9 -->
<g id="node11" class="node"><title>p9</title>
<path fill="lightblue" stroke="black" d="M231.5,-295.5C231.5,-295.5 272.5,-295.5 272.5,-295.5 278.5,-295.5 284.5,-301.5 284.5,-307.5 284.5,-307.5 284.5,-352.5 284.5,-352.5 284.5,-358.5 278.5,-364.5 272.5,-364.5 272.5,-364.5 231.5,-364.5 231.5,-364.5 225.5,-364.5 219.5,-358.5 219.5,-352.5 219.5,-352.5 219.5,-307.5 219.5,-307.5 219.5,-301.5 225.5,-295.5 231.5,-295.5"/>
<text text-anchor="middle" x="252" y="-349.3" font-family="Times,serif" font-size="14.00">Tag : 0</text>
<polyline fill="none" stroke="black" points="219.5,-341.5 284.5,-341.5 "/>
<text text-anchor="middle" x="252" y="-326.3" font-family="Times,serif" font-size="14.00">.</text>
<polyline fill="none" stroke="black" points="219.5,-318.5 284.5,-318.5 "/>
<text text-anchor="middle" x="252" y="-303.3" font-family="Times,serif" font-size="14.00">.</text>
</g>
<!-- entry_2&#45;&gt;p9 -->
<g id="edge4" class="edge"><title>entry_2&#45;&gt;p9</title>
<path fill="none" stroke="black" d="M252,-401.108C252,-393.183 252,-383.971 252,-374.882"/>
<polygon fill="black" stroke="black" points="255.5,-374.746 252,-364.746 248.5,-374.746 255.5,-374.746"/>
</g>
<!-- entry_3 -->
<g id="node4" class="node"><title>entry_3</title>
<polygon fill="yellow" stroke="black" points="339.5,-401.5 339.5,-447.5 444.5,-447.5 444.5,-401.5 339.5,-401.5"/>
<text text-anchor="middle" x="392" y="-432.3" font-family="Times,serif" font-size="14.00">val : l = [42]</text>
<polyline fill="none" stroke="black" points="339.5,-424.5 444.5,-424.5 "/>
<text text-anchor="middle" x="392" y="-409.3" font-family="Times,serif" font-size="14.00">.</text>
</g>
<!-- p6 -->
<g id="node17" class="node"><title>p6</title>
<path fill="lightblue" stroke="black" d="M497.5,-83.5C497.5,-83.5 538.5,-83.5 538.5,-83.5 544.5,-83.5 550.5,-89.5 550.5,-95.5 550.5,-95.5 550.5,-140.5 550.5,-140.5 550.5,-146.5 544.5,-152.5 538.5,-152.5 538.5,-152.5 497.5,-152.5 497.5,-152.5 491.5,-152.5 485.5,-146.5 485.5,-140.5 485.5,-140.5 485.5,-95.5 485.5,-95.5 485.5,-89.5 491.5,-83.5 497.5,-83.5"/>
<text text-anchor="middle" x="518" y="-137.3" font-family="Times,serif" font-size="14.00">Tag : 0</text>
<polyline fill="none" stroke="black" points="485.5,-129.5 550.5,-129.5 "/>
<text text-anchor="middle" x="518" y="-114.3" font-family="Times,serif" font-size="14.00">42</text>
<polyline fill="none" stroke="black" points="485.5,-106.5 550.5,-106.5 "/>
<text text-anchor="middle" x="518" y="-91.3" font-family="Times,serif" font-size="14.00">0</text>
</g>
<!-- entry_3&#45;&gt;p6 -->
<g id="edge10" class="edge"><title>entry_3&#45;&gt;p6</title>
<path fill="none" stroke="black" d="M398.558,-401.302C411.369,-359.031 441.585,-264.463 477,-189 481.308,-179.82 486.436,-170.267 491.582,-161.276"/>
<polygon fill="black" stroke="black" points="494.682,-162.908 496.704,-152.508 488.638,-159.377 494.682,-162.908"/>
</g>
<!-- entry_4 -->
<g id="node5" class="node"><title>entry_4</title>
<polygon fill="yellow" stroke="black" points="463,-401.5 463,-447.5 573,-447.5 573,-401.5 463,-401.5"/>
<text text-anchor="middle" x="518" y="-432.3" font-family="Times,serif" font-size="14.00">val : 1 :: 2 :: l</text>
<polyline fill="none" stroke="black" points="463,-424.5 573,-424.5 "/>
<text text-anchor="middle" x="518" y="-409.3" font-family="Times,serif" font-size="14.00">.</text>
</g>
<!-- p7 -->
<g id="node18" class="node"><title>p7</title>
<path fill="lightblue" stroke="black" d="M497.5,-295.5C497.5,-295.5 538.5,-295.5 538.5,-295.5 544.5,-295.5 550.5,-301.5 550.5,-307.5 550.5,-307.5 550.5,-352.5 550.5,-352.5 550.5,-358.5 544.5,-364.5 538.5,-364.5 538.5,-364.5 497.5,-364.5 497.5,-364.5 491.5,-364.5 485.5,-358.5 485.5,-352.5 485.5,-352.5 485.5,-307.5 485.5,-307.5 485.5,-301.5 491.5,-295.5 497.5,-295.5"/>
<text text-anchor="middle" x="518" y="-349.3" font-family="Times,serif" font-size="14.00">Tag : 0</text>
<polyline fill="none" stroke="black" points="485.5,-341.5 550.5,-341.5 "/>
<text text-anchor="middle" x="518" y="-326.3" font-family="Times,serif" font-size="14.00">1</text>
<polyline fill="none" stroke="black" points="485.5,-318.5 550.5,-318.5 "/>
<text text-anchor="middle" x="518" y="-303.3" font-family="Times,serif" font-size="14.00">.</text>
</g>
<!-- entry_4&#45;&gt;p7 -->
<g id="edge11" class="edge"><title>entry_4&#45;&gt;p7</title>
<path fill="none" stroke="black" d="M518,-401.108C518,-393.183 518,-383.971 518,-374.882"/>
<polygon fill="black" stroke="black" points="521.5,-374.746 518,-364.746 514.5,-374.746 521.5,-374.746"/>
</g>
<!-- entry_5 -->
<g id="node6" class="node"><title>entry_5</title>
<polygon fill="yellow" stroke="black" points="591,-401.5 591,-447.5 701,-447.5 701,-401.5 591,-401.5"/>
<text text-anchor="middle" x="646" y="-432.3" font-family="Times,serif" font-size="14.00">val : 3 :: 4 :: l</text>
<polyline fill="none" stroke="black" points="591,-424.5 701,-424.5 "/>
<text text-anchor="middle" x="646" y="-409.3" font-family="Times,serif" font-size="14.00">.</text>
</g>
<!-- p4 -->
<g id="node20" class="node"><title>p4</title>
<path fill="lightblue" stroke="black" d="M608.5,-295.5C608.5,-295.5 649.5,-295.5 649.5,-295.5 655.5,-295.5 661.5,-301.5 661.5,-307.5 661.5,-307.5 661.5,-352.5 661.5,-352.5 661.5,-358.5 655.5,-364.5 649.5,-364.5 649.5,-364.5 608.5,-364.5 608.5,-364.5 602.5,-364.5 596.5,-358.5 596.5,-352.5 596.5,-352.5 596.5,-307.5 596.5,-307.5 596.5,-301.5 602.5,-295.5 608.5,-295.5"/>
<text text-anchor="middle" x="629" y="-349.3" font-family="Times,serif" font-size="14.00">Tag : 0</text>
<polyline fill="none" stroke="black" points="596.5,-341.5 661.5,-341.5 "/>
<text text-anchor="middle" x="629" y="-326.3" font-family="Times,serif" font-size="14.00">3</text>
<polyline fill="none" stroke="black" points="596.5,-318.5 661.5,-318.5 "/>
<text text-anchor="middle" x="629" y="-303.3" font-family="Times,serif" font-size="14.00">.</text>
</g>
<!-- entry_5&#45;&gt;p4 -->
<g id="edge14" class="edge"><title>entry_5&#45;&gt;p4</title>
<path fill="none" stroke="black" d="M641.885,-401.108C640.413,-393.098 638.699,-383.773 637.011,-374.589"/>
<polygon fill="black" stroke="black" points="640.452,-373.949 635.202,-364.746 633.567,-375.214 640.452,-373.949"/>
</g>
<!-- entry_6 -->
<g id="node7" class="node"><title>entry_6</title>
<polygon fill="yellow" stroke="black" points="723.5,-401.5 723.5,-447.5 816.5,-447.5 816.5,-401.5 723.5,-401.5"/>
<text text-anchor="middle" x="770" y="-432.3" font-family="Times,serif" font-size="14.00">val : cyclic</text>
<polyline fill="none" stroke="black" points="723.5,-424.5 816.5,-424.5 "/>
<text text-anchor="middle" x="770" y="-409.3" font-family="Times,serif" font-size="14.00">.</text>
</g>
<!-- p1 -->
<g id="node22" class="node"><title>p1</title>
<path fill="lightblue" stroke="black" d="M749.5,-295.5C749.5,-295.5 790.5,-295.5 790.5,-295.5 796.5,-295.5 802.5,-301.5 802.5,-307.5 802.5,-307.5 802.5,-352.5 802.5,-352.5 802.5,-358.5 796.5,-364.5 790.5,-364.5 790.5,-364.5 749.5,-364.5 749.5,-364.5 743.5,-364.5 737.5,-358.5 737.5,-352.5 737.5,-352.5 737.5,-307.5 737.5,-307.5 737.5,-301.5 743.5,-295.5 749.5,-295.5"/>
<text text-anchor="middle" x="770" y="-349.3" font-family="Times,serif" font-size="14.00">Tag : 0</text>
<polyline fill="none" stroke="black" points="737.5,-341.5 802.5,-341.5 "/>
<text text-anchor="middle" x="770" y="-326.3" font-family="Times,serif" font-size="14.00">1</text>
<polyline fill="none" stroke="black" points="737.5,-318.5 802.5,-318.5 "/>
<text text-anchor="middle" x="770" y="-303.3" font-family="Times,serif" font-size="14.00">.</text>
</g>
<!-- entry_6&#45;&gt;p1 -->
<g id="edge17" class="edge"><title>entry_6&#45;&gt;p1</title>
<path fill="none" stroke="black" d="M770,-401.108C770,-393.183 770,-383.971 770,-374.882"/>
<polygon fill="black" stroke="black" points="773.5,-374.746 770,-364.746 766.5,-374.746 773.5,-374.746"/>
</g>
<!-- p16 -->
<g id="node9" class="node"><title>p16</title>
<path fill="lightblue" stroke="black" d="M108.5,-189.5C108.5,-189.5 149.5,-189.5 149.5,-189.5 155.5,-189.5 161.5,-195.5 161.5,-201.5 161.5,-201.5 161.5,-246.5 161.5,-246.5 161.5,-252.5 155.5,-258.5 149.5,-258.5 149.5,-258.5 108.5,-258.5 108.5,-258.5 102.5,-258.5 96.5,-252.5 96.5,-246.5 96.5,-246.5 96.5,-201.5 96.5,-201.5 96.5,-195.5 102.5,-189.5 108.5,-189.5"/>
<text text-anchor="middle" x="129" y="-243.3" font-family="Times,serif" font-size="14.00">Tag : 0</text>
<polyline fill="none" stroke="black" points="96.5,-235.5 161.5,-235.5 "/>
<text text-anchor="middle" x="129" y="-220.3" font-family="Times,serif" font-size="14.00">2</text>
<polyline fill="none" stroke="black" points="96.5,-212.5 161.5,-212.5 "/>
<text text-anchor="middle" x="129" y="-197.3" font-family="Times,serif" font-size="14.00">.</text>
</g>
<!-- p15&#45;&gt;p16 -->
<g id="edge2" class="edge"><title>p15:f1&#45;&gt;p16:head</title>
<path fill="none" stroke="black" d="M129,-295C129,-283 129,-277.75 129,-269.125"/>
<polygon fill="black" stroke="black" points="132.5,-269 129,-259 125.5,-269 132.5,-269"/>
</g>
<!-- p17 -->
<g id="node10" class="node"><title>p17</title>
<path fill="lightblue" stroke="black" d="M108.5,-83.5C108.5,-83.5 149.5,-83.5 149.5,-83.5 155.5,-83.5 161.5,-89.5 161.5,-95.5 161.5,-95.5 161.5,-140.5 161.5,-140.5 161.5,-146.5 155.5,-152.5 149.5,-152.5 149.5,-152.5 108.5,-152.5 108.5,-152.5 102.5,-152.5 96.5,-146.5 96.5,-140.5 96.5,-140.5 96.5,-95.5 96.5,-95.5 96.5,-89.5 102.5,-83.5 108.5,-83.5"/>
<text text-anchor="middle" x="129" y="-137.3" font-family="Times,serif" font-size="14.00">Tag : 0</text>
<polyline fill="none" stroke="black" points="96.5,-129.5 161.5,-129.5 "/>
<text text-anchor="middle" x="129" y="-114.3" font-family="Times,serif" font-size="14.00">3</text>
<polyline fill="none" stroke="black" points="96.5,-106.5 161.5,-106.5 "/>
<text text-anchor="middle" x="129" y="-91.3" font-family="Times,serif" font-size="14.00">0</text>
</g>
<!-- p16&#45;&gt;p17 -->
<g id="edge3" class="edge"><title>p16:f1&#45;&gt;p17:head</title>
<path fill="none" stroke="black" d="M129,-189C129,-177 129,-171.75 129,-163.125"/>
<polygon fill="black" stroke="black" points="132.5,-163 129,-153 125.5,-163 132.5,-163"/>
</g>
<!-- p10 -->
<g id="node12" class="node"><title>p10</title>
<path fill="lightblue" stroke="black" d="M207,-201C207,-201 267,-201 267,-201 273,-201 279,-207 279,-213 279,-213 279,-235 279,-235 279,-241 273,-247 267,-247 267,-247 207,-247 207,-247 201,-247 195,-241 195,-235 195,-235 195,-213 195,-213 195,-207 201,-201 207,-201"/>
<text text-anchor="middle" x="237" y="-231.8" font-family="Times,serif" font-size="14.00">Tag : 253</text>
<polyline fill="none" stroke="black" points="195,-224 279,-224 "/>
<text text-anchor="middle" x="237" y="-208.8" font-family="Times,serif" font-size="14.00">1.000000</text>
</g>
<!-- p9&#45;&gt;p10 -->
<g id="edge5" class="edge"><title>p9:f0&#45;&gt;p10:head</title>
<path fill="none" stroke="black" d="M218,-330C202.438,-330 215.952,-310.26 219,-295 222.628,-276.835 232.592,-271.864 235.909,-257.988"/>
<polygon fill="black" stroke="black" points="239.393,-258.321 237,-248 232.435,-257.561 239.393,-258.321"/>
</g>
<!-- p11 -->
<g id="node13" class="node"><title>p11</title>
<path fill="lightblue" stroke="black" d="M309.5,-189.5C309.5,-189.5 350.5,-189.5 350.5,-189.5 356.5,-189.5 362.5,-195.5 362.5,-201.5 362.5,-201.5 362.5,-246.5 362.5,-246.5 362.5,-252.5 356.5,-258.5 350.5,-258.5 350.5,-258.5 309.5,-258.5 309.5,-258.5 303.5,-258.5 297.5,-252.5 297.5,-246.5 297.5,-246.5 297.5,-201.5 297.5,-201.5 297.5,-195.5 303.5,-189.5 309.5,-189.5"/>
<text text-anchor="middle" x="330" y="-243.3" font-family="Times,serif" font-size="14.00">Tag : 0</text>
<polyline fill="none" stroke="black" points="297.5,-235.5 362.5,-235.5 "/>
<text text-anchor="middle" x="330" y="-220.3" font-family="Times,serif" font-size="14.00">.</text>
<polyline fill="none" stroke="black" points="297.5,-212.5 362.5,-212.5 "/>
<text text-anchor="middle" x="330" y="-197.3" font-family="Times,serif" font-size="14.00">.</text>
</g>
<!-- p9&#45;&gt;p11 -->
<g id="edge6" class="edge"><title>p9:f1&#45;&gt;p11:head</title>
<path fill="none" stroke="black" d="M286,-307C296.296,-307 288.866,-272.187 290.715,-255.597"/>
<polygon fill="black" stroke="black" points="293.744,-257.352 296,-247 287.781,-253.686 293.744,-257.352"/>
</g>
<!-- p12 -->
<g id="node14" class="node"><title>p12</title>
<path fill="lightblue" stroke="black" d="M253,-95C253,-95 313,-95 313,-95 319,-95 325,-101 325,-107 325,-107 325,-129 325,-129 325,-135 319,-141 313,-141 313,-141 253,-141 253,-141 247,-141 241,-135 241,-129 241,-129 241,-107 241,-107 241,-101 247,-95 253,-95"/>
<text text-anchor="middle" x="283" y="-125.8" font-family="Times,serif" font-size="14.00">Tag : 253</text>
<polyline fill="none" stroke="black" points="241,-118 325,-118 "/>
<text text-anchor="middle" x="283" y="-102.8" font-family="Times,serif" font-size="14.00">2.000000</text>
</g>
<!-- p11&#45;&gt;p12 -->
<g id="edge7" class="edge"><title>p11:f0&#45;&gt;p12:head</title>
<path fill="none" stroke="black" d="M296,-224C280.438,-224 292.69,-203.953 297,-189 299.813,-179.239 319.798,-154.528 326.803,-140.376"/>
<polygon fill="black" stroke="black" points="330.262,-139.7 326,-130 323.283,-140.24 330.262,-139.7"/>
</g>
<!-- p13 -->
<g id="node15" class="node"><title>p13</title>
<path fill="lightblue" stroke="black" d="M355.5,-83.5C355.5,-83.5 396.5,-83.5 396.5,-83.5 402.5,-83.5 408.5,-89.5 408.5,-95.5 408.5,-95.5 408.5,-140.5 408.5,-140.5 408.5,-146.5 402.5,-152.5 396.5,-152.5 396.5,-152.5 355.5,-152.5 355.5,-152.5 349.5,-152.5 343.5,-146.5 343.5,-140.5 343.5,-140.5 343.5,-95.5 343.5,-95.5 343.5,-89.5 349.5,-83.5 355.5,-83.5"/>
<text text-anchor="middle" x="376" y="-137.3" font-family="Times,serif" font-size="14.00">Tag : 0</text>
<polyline fill="none" stroke="black" points="343.5,-129.5 408.5,-129.5 "/>
<text text-anchor="middle" x="376" y="-114.3" font-family="Times,serif" font-size="14.00">.</text>
<polyline fill="none" stroke="black" points="343.5,-106.5 408.5,-106.5 "/>
<text text-anchor="middle" x="376" y="-91.3" font-family="Times,serif" font-size="14.00">0</text>
</g>
<!-- p11&#45;&gt;p13 -->
<g id="edge8" class="edge"><title>p11:f1&#45;&gt;p13:head</title>
<path fill="none" stroke="black" d="M364,-201C385.524,-201 345.48,-166.543 337.183,-149.853"/>
<polygon fill="black" stroke="black" points="340.295,-151.457 342,-141 334.146,-148.111 340.295,-151.457"/>
</g>
<!-- p14 -->
<g id="node16" class="node"><title>p14</title>
<path fill="lightblue" stroke="black" d="M346,-0.5C346,-0.5 406,-0.5 406,-0.5 412,-0.5 418,-6.5 418,-12.5 418,-12.5 418,-34.5 418,-34.5 418,-40.5 412,-46.5 406,-46.5 406,-46.5 346,-46.5 346,-46.5 340,-46.5 334,-40.5 334,-34.5 334,-34.5 334,-12.5 334,-12.5 334,-6.5 340,-0.5 346,-0.5"/>
<text text-anchor="middle" x="376" y="-31.3" font-family="Times,serif" font-size="14.00">Tag : 253</text>
<polyline fill="none" stroke="black" points="334,-23.5 418,-23.5 "/>
<text text-anchor="middle" x="376" y="-8.3" font-family="Times,serif" font-size="14.00">3.000000</text>
</g>
<!-- p13&#45;&gt;p14 -->
<g id="edge9" class="edge"><title>p13:f0&#45;&gt;p14:head</title>
<path fill="none" stroke="black" d="M410,-118C425.562,-118 414.848,-97.4213 409,-83 402.436,-66.8144 385.068,-67.4212 378.534,-56.9662"/>
<polygon fill="black" stroke="black" points="381.856,-55.8293 376,-47 375.072,-57.5541 381.856,-55.8293"/>
</g>
<!-- p8 -->
<g id="node19" class="node"><title>p8</title>
<path fill="lightblue" stroke="black" d="M497.5,-189.5C497.5,-189.5 538.5,-189.5 538.5,-189.5 544.5,-189.5 550.5,-195.5 550.5,-201.5 550.5,-201.5 550.5,-246.5 550.5,-246.5 550.5,-252.5 544.5,-258.5 538.5,-258.5 538.5,-258.5 497.5,-258.5 497.5,-258.5 491.5,-258.5 485.5,-252.5 485.5,-246.5 485.5,-246.5 485.5,-201.5 485.5,-201.5 485.5,-195.5 491.5,-189.5 497.5,-189.5"/>
<text text-anchor="middle" x="518" y="-243.3" font-family="Times,serif" font-size="14.00">Tag : 0</text>
<polyline fill="none" stroke="black" points="485.5,-235.5 550.5,-235.5 "/>
<text text-anchor="middle" x="518" y="-220.3" font-family="Times,serif" font-size="14.00">2</text>
<polyline fill="none" stroke="black" points="485.5,-212.5 550.5,-212.5 "/>
<text text-anchor="middle" x="518" y="-197.3" font-family="Times,serif" font-size="14.00">.</text>
</g>
<!-- p7&#45;&gt;p8 -->
<g id="edge12" class="edge"><title>p7:f1&#45;&gt;p8:head</title>
<path fill="none" stroke="black" d="M518,-295C518,-283 518,-277.75 518,-269.125"/>
<polygon fill="black" stroke="black" points="521.5,-269 518,-259 514.5,-269 521.5,-269"/>
</g>
<!-- p8&#45;&gt;p6 -->
<g id="edge13" class="edge"><title>p8:f1&#45;&gt;p6:head</title>
<path fill="none" stroke="black" d="M518,-189C518,-177 518,-171.75 518,-163.125"/>
<polygon fill="black" stroke="black" points="521.5,-163 518,-153 514.5,-163 521.5,-163"/>
</g>
<!-- p5 -->
<g id="node21" class="node"><title>p5</title>
<path fill="lightblue" stroke="black" d="M603.5,-189.5C603.5,-189.5 644.5,-189.5 644.5,-189.5 650.5,-189.5 656.5,-195.5 656.5,-201.5 656.5,-201.5 656.5,-246.5 656.5,-246.5 656.5,-252.5 650.5,-258.5 644.5,-258.5 644.5,-258.5 603.5,-258.5 603.5,-258.5 597.5,-258.5 591.5,-252.5 591.5,-246.5 591.5,-246.5 591.5,-201.5 591.5,-201.5 591.5,-195.5 597.5,-189.5 603.5,-189.5"/>
<text text-anchor="middle" x="624" y="-243.3" font-family="Times,serif" font-size="14.00">Tag : 0</text>
<polyline fill="none" stroke="black" points="591.5,-235.5 656.5,-235.5 "/>
<text text-anchor="middle" x="624" y="-220.3" font-family="Times,serif" font-size="14.00">4</text>
<polyline fill="none" stroke="black" points="591.5,-212.5 656.5,-212.5 "/>
<text text-anchor="middle" x="624" y="-197.3" font-family="Times,serif" font-size="14.00">.</text>
</g>
<!-- p4&#45;&gt;p5 -->
<g id="edge15" class="edge"><title>p4:f1&#45;&gt;p5:head</title>
<path fill="none" stroke="black" d="M629,-295C629,-282.885 626.188,-277.779 624.781,-269.168"/>
<polygon fill="black" stroke="black" points="628.256,-268.702 624,-259 621.276,-269.239 628.256,-268.702"/>
</g>
<!-- p5&#45;&gt;p6 -->
<g id="edge16" class="edge"><title>p5:f1&#45;&gt;p6:head</title>
<path fill="none" stroke="black" d="M590,-201C562.627,-201 577.89,-155.879 561.842,-143.894"/>
<polygon fill="black" stroke="black" points="562.581,-140.463 552,-141 560.607,-147.179 562.581,-140.463"/>
</g>
<!-- p2 -->
<g id="node23" class="node"><title>p2</title>
<path fill="lightblue" stroke="black" d="M696.5,-189.5C696.5,-189.5 737.5,-189.5 737.5,-189.5 743.5,-189.5 749.5,-195.5 749.5,-201.5 749.5,-201.5 749.5,-246.5 749.5,-246.5 749.5,-252.5 743.5,-258.5 737.5,-258.5 737.5,-258.5 696.5,-258.5 696.5,-258.5 690.5,-258.5 684.5,-252.5 684.5,-246.5 684.5,-246.5 684.5,-201.5 684.5,-201.5 684.5,-195.5 690.5,-189.5 696.5,-189.5"/>
<text text-anchor="middle" x="717" y="-243.3" font-family="Times,serif" font-size="14.00">Tag : 0</text>
<polyline fill="none" stroke="black" points="684.5,-235.5 749.5,-235.5 "/>
<text text-anchor="middle" x="717" y="-220.3" font-family="Times,serif" font-size="14.00">2</text>
<polyline fill="none" stroke="black" points="684.5,-212.5 749.5,-212.5 "/>
<text text-anchor="middle" x="717" y="-197.3" font-family="Times,serif" font-size="14.00">.</text>
</g>
<!-- p1&#45;&gt;p2 -->
<g id="edge18" class="edge"><title>p1:f1&#45;&gt;p2:head</title>
<path fill="none" stroke="black" d="M736,-307C714.955,-307 751.04,-271.829 756.775,-255.343"/>
<polygon fill="black" stroke="black" points="759.57,-253.23 751,-247 753.814,-257.214 759.57,-253.23"/>
</g>
<!-- p3 -->
<g id="node24" class="node"><title>p3</title>
<path fill="lightblue" stroke="black" d="M726.5,-83.5C726.5,-83.5 767.5,-83.5 767.5,-83.5 773.5,-83.5 779.5,-89.5 779.5,-95.5 779.5,-95.5 779.5,-140.5 779.5,-140.5 779.5,-146.5 773.5,-152.5 767.5,-152.5 767.5,-152.5 726.5,-152.5 726.5,-152.5 720.5,-152.5 714.5,-146.5 714.5,-140.5 714.5,-140.5 714.5,-95.5 714.5,-95.5 714.5,-89.5 720.5,-83.5 726.5,-83.5"/>
<text text-anchor="middle" x="747" y="-137.3" font-family="Times,serif" font-size="14.00">Tag : 0</text>
<polyline fill="none" stroke="black" points="714.5,-129.5 779.5,-129.5 "/>
<text text-anchor="middle" x="747" y="-114.3" font-family="Times,serif" font-size="14.00">3</text>
<polyline fill="none" stroke="black" points="714.5,-106.5 779.5,-106.5 "/>
<text text-anchor="middle" x="747" y="-91.3" font-family="Times,serif" font-size="14.00">.</text>
</g>
<!-- p2&#45;&gt;p3 -->
<g id="edge19" class="edge"><title>p2:f1&#45;&gt;p3:head</title>
<path fill="none" stroke="black" d="M717,-189C717,-172.241 736.426,-172.629 744.014,-162.568"/>
<polygon fill="black" stroke="black" points="747.362,-163.589 747,-153 740.679,-161.503 747.362,-163.589"/>
</g>
<!-- p3&#45;&gt;p1 -->
<g id="edge20" class="edge"><title>p3:f1&#45;&gt;p1:head</title>
<path fill="none" stroke="black" d="M781,-95C892.636,-95 917.644,-337.615 814.077,-352.305"/>
<polygon fill="black" stroke="black" points="813.735,-348.82 804,-353 814.217,-355.804 813.735,-348.82"/>
</g>
</g>
</svg>
