<?xml version="1.0" encoding="UTF-8" standalone="no"?>
<!DOCTYPE svg PUBLIC "-//W3C//DTD SVG 1.1//EN"
 "http://www.w3.org/Graphics/SVG/1.1/DTD/svg11.dtd">
<!-- Generated by graphviz version 2.38.0 (20140413.2041)
 -->
<!-- Title: g Pages: 1 -->
<svg width="821pt" height="479pt"
 viewBox="0.00 0.00 820.50 479.00" xmlns="http://www.w3.org/2000/svg" xmlns:xlink="http://www.w3.org/1999/xlink">
<g id="graph0" class="graph" transform="scale(1 1) rotate(0) translate(4 475)">
<title>g</title>
<polygon fill="white" stroke="none" points="-4,4 -4,-475 816.5,-475 816.5,4 -4,4"/>
<!-- entry_0 -->
<g id="node1" class="node"><title>entry_0</title>
<polygon fill="yellow" stroke="black" points="0,-424.5 0,-470.5 62,-470.5 62,-424.5 0,-424.5"/>
<text text-anchor="middle" x="31" y="-455.3" font-family="Times,serif" font-size="14.00">val : []</text>
<polyline fill="none" stroke="black" points="0,-447.5 62,-447.5 "/>
<text text-anchor="middle" x="31" y="-432.3" font-family="Times,serif" font-size="14.00">0</text>
</g>
<!-- entry_1 -->
<g id="node2" class="node"><title>entry_1</title>
<polygon fill="yellow" stroke="black" points="80,-424.5 80,-470.5 178,-470.5 178,-424.5 80,-424.5"/>
<text text-anchor="middle" x="129" y="-455.3" font-family="Times,serif" font-size="14.00">val : [1;2;3]</text>
<polyline fill="none" stroke="black" points="80,-447.5 178,-447.5 "/>
<text text-anchor="middle" x="129" y="-432.3" font-family="Times,serif" font-size="14.00">.</text>
</g>
<!-- p15 -->
<g id="node8" class="node"><title>p15</title>
<path fill="lightblue" stroke="black" d="M108.5,-318.5C108.5,-318.5 149.5,-318.5 149.5,-318.5 155.5,-318.5 161.5,-324.5 161.5,-330.5 161.5,-330.5 161.5,-375.5 161.5,-375.5 161.5,-381.5 155.5,-387.5 149.5,-387.5 149.5,-387.5 108.5,-387.5 108.5,-387.5 102.5,-387.5 96.5,-381.5 96.5,-375.5 96.5,-375.5 96.5,-330.5 96.5,-330.5 96.5,-324.5 102.5,-318.5 108.5,-318.5"/>
<text text-anchor="middle" x="129" y="-372.3" font-family="Times,serif" font-size="14.00">Tag : 0</text>
<polyline fill="none" stroke="black" points="96.5,-364.5 161.5,-364.5 "/>
<text text-anchor="middle" x="129" y="-349.3" font-family="Times,serif" font-size="14.00">1</text>
<polyline fill="none" stroke="black" points="96.5,-341.5 161.5,-341.5 "/>
<text text-anchor="middle" x="129" y="-326.3" font-family="Times,serif" font-size="14.00">.</text>
</g>
<!-- entry_1&#45;&gt;p15 -->
<g id="edge1" class="edge"><title>entry_1&#45;&gt;p15</title>
<path fill="none" stroke="black" d="M129,-424.108C129,-416.183 129,-406.971 129,-397.882"/>
<polygon fill="black" stroke="black" points="132.5,-397.746 129,-387.746 125.5,-397.746 132.5,-397.746"/>
</g>
<!-- entry_2 -->
<g id="node3" class="node"><title>entry_2</title>
<polygon fill="yellow" stroke="black" points="196.5,-424.5 196.5,-470.5 307.5,-470.5 307.5,-424.5 196.5,-424.5"/>
<text text-anchor="middle" x="252" y="-455.3" font-family="Times,serif" font-size="14.00">val : [1.;2.;3.]</text>
<polyline fill="none" stroke="black" points="196.5,-447.5 307.5,-447.5 "/>
<text text-anchor="middle" x="252" y="-432.3" font-family="Times,serif" font-size="14.00">.</text>
</g>
<!-- p9 -->
<g id="node11" class="node"><title>p9</title>
<path fill="lightblue" stroke="black" d="M231.5,-318.5C231.5,-318.5 272.5,-318.5 272.5,-318.5 278.5,-318.5 284.5,-324.5 284.5,-330.5 284.5,-330.5 284.5,-375.5 284.5,-375.5 284.5,-381.5 278.5,-387.5 272.5,-387.5 272.5,-387.5 231.5,-387.5 231.5,-387.5 225.5,-387.5 219.5,-381.5 219.5,-375.5 219.5,-375.5 219.5,-330.5 219.5,-330.5 219.5,-324.5 225.5,-318.5 231.5,-318.5"/>
<text text-anchor="middle" x="252" y="-372.3" font-family="Times,serif" font-size="14.00">Tag : 0</text>
<polyline fill="none" stroke="black" points="219.5,-364.5 284.5,-364.5 "/>
<text text-anchor="middle" x="252" y="-349.3" font-family="Times,serif" font-size="14.00">.</text>
<polyline fill="none" stroke="black" points="219.5,-341.5 284.5,-341.5 "/>
<text text-anchor="middle" x="252" y="-326.3" font-family="Times,serif" font-size="14.00">.</text>
</g>
<!-- entry_2&#45;&gt;p9 -->
<g id="edge4" class="edge"><title>entry_2&#45;&gt;p9</title>
<path fill="none" stroke="black" d="M252,-424.108C252,-416.183 252,-406.971 252,-397.882"/>
<polygon fill="black" stroke="black" points="255.5,-397.746 252,-387.746 248.5,-397.746 255.5,-397.746"/>
</g>
<!-- entry_3 -->
<g id="node4" class="node"><title>entry_3</title>
<polygon fill="yellow" stroke="black" points="339.5,-424.5 339.5,-470.5 444.5,-470.5 444.5,-424.5 339.5,-424.5"/>
<text text-anchor="middle" x="392" y="-455.3" font-family="Times,serif" font-size="14.00">val : l = [42]</text>
<polyline fill="none" stroke="black" points="339.5,-447.5 444.5,-447.5 "/>
<text text-anchor="middle" x="392" y="-432.3" font-family="Times,serif" font-size="14.00">.</text>
</g>
<!-- p4 -->
<g id="node17" class="node"><title>p4</title>
<path fill="lightblue" stroke="black" d="M570.5,-0.5C570.5,-0.5 611.5,-0.5 611.5,-0.5 617.5,-0.5 623.5,-6.5 623.5,-12.5 623.5,-12.5 623.5,-57.5 623.5,-57.5 623.5,-63.5 617.5,-69.5 611.5,-69.5 611.5,-69.5 570.5,-69.5 570.5,-69.5 564.5,-69.5 558.5,-63.5 558.5,-57.5 558.5,-57.5 558.5,-12.5 558.5,-12.5 558.5,-6.5 564.5,-0.5 570.5,-0.5"/>
<text text-anchor="middle" x="591" y="-54.3" font-family="Times,serif" font-size="14.00">Tag : 0</text>
<polyline fill="none" stroke="black" points="558.5,-46.5 623.5,-46.5 "/>
<text text-anchor="middle" x="591" y="-31.3" font-family="Times,serif" font-size="14.00">42</text>
<polyline fill="none" stroke="black" points="558.5,-23.5 623.5,-23.5 "/>
<text text-anchor="middle" x="591" y="-8.3" font-family="Times,serif" font-size="14.00">0</text>
</g>
<!-- entry_3&#45;&gt;p4 -->
<g id="edge10" class="edge"><title>entry_3&#45;&gt;p4</title>
<path fill="none" stroke="black" d="M396.573,-424.209C408.971,-367.399 447.144,-214.056 518,-106 526.925,-92.3891 538.958,-79.4573 550.678,-68.4973"/>
<polygon fill="black" stroke="black" points="553.238,-70.9007 558.298,-61.5925 548.537,-65.7134 553.238,-70.9007"/>
</g>
<!-- entry_4 -->
<g id="node5" class="node"><title>entry_4</title>
<polygon fill="yellow" stroke="black" points="463,-424.5 463,-470.5 573,-470.5 573,-424.5 463,-424.5"/>
<text text-anchor="middle" x="518" y="-455.3" font-family="Times,serif" font-size="14.00">val : 1 :: 2 :: l</text>
<polyline fill="none" stroke="black" points="463,-447.5 573,-447.5 "/>
<text text-anchor="middle" x="518" y="-432.3" font-family="Times,serif" font-size="14.00">.</text>
</g>
<!-- p7 -->
<g id="node18" class="node"><title>p7</title>
<path fill="lightblue" stroke="black" d="M507.5,-318.5C507.5,-318.5 548.5,-318.5 548.5,-318.5 554.5,-318.5 560.5,-324.5 560.5,-330.5 560.5,-330.5 560.5,-375.5 560.5,-375.5 560.5,-381.5 554.5,-387.5 548.5,-387.5 548.5,-387.5 507.5,-387.5 507.5,-387.5 501.5,-387.5 495.5,-381.5 495.5,-375.5 495.5,-375.5 495.5,-330.5 495.5,-330.5 495.5,-324.5 501.5,-318.5 507.5,-318.5"/>
<text text-anchor="middle" x="528" y="-372.3" font-family="Times,serif" font-size="14.00">Tag : 0</text>
<polyline fill="none" stroke="black" points="495.5,-364.5 560.5,-364.5 "/>
<text text-anchor="middle" x="528" y="-349.3" font-family="Times,serif" font-size="14.00">1</text>
<polyline fill="none" stroke="black" points="495.5,-341.5 560.5,-341.5 "/>
<text text-anchor="middle" x="528" y="-326.3" font-family="Times,serif" font-size="14.00">.</text>
</g>
<!-- entry_4&#45;&gt;p7 -->
<g id="edge11" class="edge"><title>entry_4&#45;&gt;p7</title>
<path fill="none" stroke="black" d="M520.421,-424.108C521.277,-416.183 522.273,-406.971 523.256,-397.882"/>
<polygon fill="black" stroke="black" points="526.757,-398.065 524.352,-387.746 519.797,-397.312 526.757,-398.065"/>
</g>
<!-- entry_5 -->
<g id="node6" class="node"><title>entry_5</title>
<polygon fill="yellow" stroke="black" points="591,-424.5 591,-470.5 701,-470.5 701,-424.5 591,-424.5"/>
<text text-anchor="middle" x="646" y="-455.3" font-family="Times,serif" font-size="14.00">val : 3 :: 4 :: l</text>
<polyline fill="none" stroke="black" points="591,-447.5 701,-447.5 "/>
<text text-anchor="middle" x="646" y="-432.3" font-family="Times,serif" font-size="14.00">.</text>
</g>
<!-- p5 -->
<g id="node20" class="node"><title>p5</title>
<path fill="lightblue" stroke="black" d="M610.5,-318.5C610.5,-318.5 651.5,-318.5 651.5,-318.5 657.5,-318.5 663.5,-324.5 663.5,-330.5 663.5,-330.5 663.5,-375.5 663.5,-375.5 663.5,-381.5 657.5,-387.5 651.5,-387.5 651.5,-387.5 610.5,-387.5 610.5,-387.5 604.5,-387.5 598.5,-381.5 598.5,-375.5 598.5,-375.5 598.5,-330.5 598.5,-330.5 598.5,-324.5 604.5,-318.5 610.5,-318.5"/>
<text text-anchor="middle" x="631" y="-372.3" font-family="Times,serif" font-size="14.00">Tag : 0</text>
<polyline fill="none" stroke="black" points="598.5,-364.5 663.5,-364.5 "/>
<text text-anchor="middle" x="631" y="-349.3" font-family="Times,serif" font-size="14.00">3</text>
<polyline fill="none" stroke="black" points="598.5,-341.5 663.5,-341.5 "/>
<text text-anchor="middle" x="631" y="-326.3" font-family="Times,serif" font-size="14.00">.</text>
</g>
<!-- entry_5&#45;&gt;p5 -->
<g id="edge14" class="edge"><title>entry_5&#45;&gt;p5</title>
<path fill="none" stroke="black" d="M642.369,-424.108C641.084,-416.183 639.59,-406.971 638.116,-397.882"/>
<polygon fill="black" stroke="black" points="641.528,-397.057 636.472,-387.746 634.618,-398.178 641.528,-397.057"/>
</g>
<!-- entry_6 -->
<g id="node7" class="node"><title>entry_6</title>
<polygon fill="yellow" stroke="black" points="719.5,-424.5 719.5,-470.5 812.5,-470.5 812.5,-424.5 719.5,-424.5"/>
<text text-anchor="middle" x="766" y="-455.3" font-family="Times,serif" font-size="14.00">val : cyclic</text>
<polyline fill="none" stroke="black" points="719.5,-447.5 812.5,-447.5 "/>
<text text-anchor="middle" x="766" y="-432.3" font-family="Times,serif" font-size="14.00">.</text>
</g>
<!-- p1 -->
<g id="node22" class="node"><title>p1</title>
<path fill="lightblue" stroke="black" d="M734.5,-318.5C734.5,-318.5 775.5,-318.5 775.5,-318.5 781.5,-318.5 787.5,-324.5 787.5,-330.5 787.5,-330.5 787.5,-375.5 787.5,-375.5 787.5,-381.5 781.5,-387.5 775.5,-387.5 775.5,-387.5 734.5,-387.5 734.5,-387.5 728.5,-387.5 722.5,-381.5 722.5,-375.5 722.5,-375.5 722.5,-330.5 722.5,-330.5 722.5,-324.5 728.5,-318.5 734.5,-318.5"/>
<text text-anchor="middle" x="755" y="-372.3" font-family="Times,serif" font-size="14.00">Tag : 0</text>
<polyline fill="none" stroke="black" points="722.5,-364.5 787.5,-364.5 "/>
<text text-anchor="middle" x="755" y="-349.3" font-family="Times,serif" font-size="14.00">1</text>
<polyline fill="none" stroke="black" points="722.5,-341.5 787.5,-341.5 "/>
<text text-anchor="middle" x="755" y="-326.3" font-family="Times,serif" font-size="14.00">.</text>
</g>
<!-- entry_6&#45;&gt;p1 -->
<g id="edge17" class="edge"><title>entry_6&#45;&gt;p1</title>
<path fill="none" stroke="black" d="M763.337,-424.108C762.395,-416.183 761.299,-406.971 760.218,-397.882"/>
<polygon fill="black" stroke="black" points="763.67,-397.263 759.013,-387.746 756.719,-398.09 763.67,-397.263"/>
</g>
<!-- p16 -->
<g id="node9" class="node"><title>p16</title>
<path fill="lightblue" stroke="black" d="M108.5,-212.5C108.5,-212.5 149.5,-212.5 149.5,-212.5 155.5,-212.5 161.5,-218.5 161.5,-224.5 161.5,-224.5 161.5,-269.5 161.5,-269.5 161.5,-275.5 155.5,-281.5 149.5,-281.5 149.5,-281.5 108.5,-281.5 108.5,-281.5 102.5,-281.5 96.5,-275.5 96.5,-269.5 96.5,-269.5 96.5,-224.5 96.5,-224.5 96.5,-218.5 102.5,-212.5 108.5,-212.5"/>
<text text-anchor="middle" x="129" y="-266.3" font-family="Times,serif" font-size="14.00">Tag : 0</text>
<polyline fill="none" stroke="black" points="96.5,-258.5 161.5,-258.5 "/>
<text text-anchor="middle" x="129" y="-243.3" font-family="Times,serif" font-size="14.00">2</text>
<polyline fill="none" stroke="black" points="96.5,-235.5 161.5,-235.5 "/>
<text text-anchor="middle" x="129" y="-220.3" font-family="Times,serif" font-size="14.00">.</text>
</g>
<!-- p15&#45;&gt;p16 -->
<g id="edge2" class="edge"><title>p15:f1&#45;&gt;p16:head</title>
<path fill="none" stroke="black" d="M129,-318C129,-306 129,-300.75 129,-292.125"/>
<polygon fill="black" stroke="black" points="132.5,-292 129,-282 125.5,-292 132.5,-292"/>
</g>
<!-- p17 -->
<g id="node10" class="node"><title>p17</title>
<path fill="lightblue" stroke="black" d="M108.5,-106.5C108.5,-106.5 149.5,-106.5 149.5,-106.5 155.5,-106.5 161.5,-112.5 161.5,-118.5 161.5,-118.5 161.5,-163.5 161.5,-163.5 161.5,-169.5 155.5,-175.5 149.5,-175.5 149.5,-175.5 108.5,-175.5 108.5,-175.5 102.5,-175.5 96.5,-169.5 96.5,-163.5 96.5,-163.5 96.5,-118.5 96.5,-118.5 96.5,-112.5 102.5,-106.5 108.5,-106.5"/>
<text text-anchor="middle" x="129" y="-160.3" font-family="Times,serif" font-size="14.00">Tag : 0</text>
<polyline fill="none" stroke="black" points="96.5,-152.5 161.5,-152.5 "/>
<text text-anchor="middle" x="129" y="-137.3" font-family="Times,serif" font-size="14.00">3</text>
<polyline fill="none" stroke="black" points="96.5,-129.5 161.5,-129.5 "/>
<text text-anchor="middle" x="129" y="-114.3" font-family="Times,serif" font-size="14.00">0</text>
</g>
<!-- p16&#45;&gt;p17 -->
<g id="edge3" class="edge"><title>p16:f1&#45;&gt;p17:head</title>
<path fill="none" stroke="black" d="M129,-212C129,-200 129,-194.75 129,-186.125"/>
<polygon fill="black" stroke="black" points="132.5,-186 129,-176 125.5,-186 132.5,-186"/>
</g>
<!-- p10 -->
<g id="node12" class="node"><title>p10</title>
<path fill="lightblue" stroke="black" d="M200,-224C200,-224 260,-224 260,-224 266,-224 272,-230 272,-236 272,-236 272,-258 272,-258 272,-264 266,-270 260,-270 260,-270 200,-270 200,-270 194,-270 188,-264 188,-258 188,-258 188,-236 188,-236 188,-230 194,-224 200,-224"/>
<text text-anchor="middle" x="230" y="-254.8" font-family="Times,serif" font-size="14.00">Tag : 253</text>
<polyline fill="none" stroke="black" points="188,-247 272,-247 "/>
<text text-anchor="middle" x="230" y="-231.8" font-family="Times,serif" font-size="14.00">1.000000</text>
</g>
<!-- p9&#45;&gt;p10 -->
<g id="edge5" class="edge"><title>p9:f0&#45;&gt;p10:head</title>
<path fill="none" stroke="black" d="M218,-353C202.438,-353 216.994,-333.432 219,-318 221.268,-300.548 227.217,-294.538 229.282,-281.099"/>
<polygon fill="black" stroke="black" points="232.782,-281.223 230,-271 225.799,-280.727 232.782,-281.223"/>
</g>
<!-- p11 -->
<g id="node13" class="node"><title>p11</title>
<path fill="lightblue" stroke="black" d="M302.5,-212.5C302.5,-212.5 343.5,-212.5 343.5,-212.5 349.5,-212.5 355.5,-218.5 355.5,-224.5 355.5,-224.5 355.5,-269.5 355.5,-269.5 355.5,-275.5 349.5,-281.5 343.5,-281.5 343.5,-281.5 302.5,-281.5 302.5,-281.5 296.5,-281.5 290.5,-275.5 290.5,-269.5 290.5,-269.5 290.5,-224.5 290.5,-224.5 290.5,-218.5 296.5,-212.5 302.5,-212.5"/>
<text text-anchor="middle" x="323" y="-266.3" font-family="Times,serif" font-size="14.00">Tag : 0</text>
<polyline fill="none" stroke="black" points="290.5,-258.5 355.5,-258.5 "/>
<text text-anchor="middle" x="323" y="-243.3" font-family="Times,serif" font-size="14.00">.</text>
<polyline fill="none" stroke="black" points="290.5,-235.5 355.5,-235.5 "/>
<text text-anchor="middle" x="323" y="-220.3" font-family="Times,serif" font-size="14.00">.</text>
</g>
<!-- p9&#45;&gt;p11 -->
<g id="edge6" class="edge"><title>p9:f1&#45;&gt;p11:head</title>
<path fill="none" stroke="black" d="M286,-330C296.065,-330 285.071,-295.898 284.771,-279.113"/>
<polygon fill="black" stroke="black" points="287.965,-280.544 289,-270 281.616,-277.597 287.965,-280.544"/>
</g>
<!-- p12 -->
<g id="node14" class="node"><title>p12</title>
<path fill="lightblue" stroke="black" d="M204,-118C204,-118 264,-118 264,-118 270,-118 276,-124 276,-130 276,-130 276,-152 276,-152 276,-158 270,-164 264,-164 264,-164 204,-164 204,-164 198,-164 192,-158 192,-152 192,-152 192,-130 192,-130 192,-124 198,-118 204,-118"/>
<text text-anchor="middle" x="234" y="-148.8" font-family="Times,serif" font-size="14.00">Tag : 253</text>
<polyline fill="none" stroke="black" points="192,-141 276,-141 "/>
<text text-anchor="middle" x="234" y="-125.8" font-family="Times,serif" font-size="14.00">2.000000</text>
</g>
<!-- p11&#45;&gt;p12 -->
<g id="edge7" class="edge"><title>p11:f0&#45;&gt;p12:head</title>
<path fill="none" stroke="black" d="M289,-247C271.561,-247 289.218,-182.536 283.843,-160.376"/>
<polygon fill="black" stroke="black" points="286.367,-157.951 277,-153 281.235,-162.712 286.367,-157.951"/>
</g>
<!-- p13 -->
<g id="node15" class="node"><title>p13</title>
<path fill="lightblue" stroke="black" d="M306.5,-106.5C306.5,-106.5 347.5,-106.5 347.5,-106.5 353.5,-106.5 359.5,-112.5 359.5,-118.5 359.5,-118.5 359.5,-163.5 359.5,-163.5 359.5,-169.5 353.5,-175.5 347.5,-175.5 347.5,-175.5 306.5,-175.5 306.5,-175.5 300.5,-175.5 294.5,-169.5 294.5,-163.5 294.5,-163.5 294.5,-118.5 294.5,-118.5 294.5,-112.5 300.5,-106.5 306.5,-106.5"/>
<text text-anchor="middle" x="327" y="-160.3" font-family="Times,serif" font-size="14.00">Tag : 0</text>
<polyline fill="none" stroke="black" points="294.5,-152.5 359.5,-152.5 "/>
<text text-anchor="middle" x="327" y="-137.3" font-family="Times,serif" font-size="14.00">.</text>
<polyline fill="none" stroke="black" points="294.5,-129.5 359.5,-129.5 "/>
<text text-anchor="middle" x="327" y="-114.3" font-family="Times,serif" font-size="14.00">0</text>
</g>
<!-- p11&#45;&gt;p13 -->
<g id="edge8" class="edge"><title>p11:f1&#45;&gt;p13:head</title>
<path fill="none" stroke="black" d="M323,-212C323,-199.926 325.25,-194.768 326.375,-186.153"/>
<polygon fill="black" stroke="black" points="329.879,-186.196 327,-176 322.892,-185.766 329.879,-186.196"/>
</g>
<!-- p14 -->
<g id="node16" class="node"><title>p14</title>
<path fill="lightblue" stroke="black" d="M297,-12C297,-12 357,-12 357,-12 363,-12 369,-18 369,-24 369,-24 369,-46 369,-46 369,-52 363,-58 357,-58 357,-58 297,-58 297,-58 291,-58 285,-52 285,-46 285,-46 285,-24 285,-24 285,-18 291,-12 297,-12"/>
<text text-anchor="middle" x="327" y="-42.8" font-family="Times,serif" font-size="14.00">Tag : 253</text>
<polyline fill="none" stroke="black" points="285,-35 369,-35 "/>
<text text-anchor="middle" x="327" y="-19.8" font-family="Times,serif" font-size="14.00">3.000000</text>
</g>
<!-- p13&#45;&gt;p14 -->
<g id="edge9" class="edge"><title>p13:f0&#45;&gt;p14:head</title>
<path fill="none" stroke="black" d="M361,-141C376.562,-141 364.901,-120.77 360,-106 353.218,-85.5601 334.388,-84.3232 328.669,-69.1042"/>
<polygon fill="black" stroke="black" points="332.083,-68.2961 327,-59 325.176,-69.4367 332.083,-68.2961"/>
</g>
<!-- p8 -->
<g id="node19" class="node"><title>p8</title>
<path fill="lightblue" stroke="black" d="M538.5,-106.5C538.5,-106.5 579.5,-106.5 579.5,-106.5 585.5,-106.5 591.5,-112.5 591.5,-118.5 591.5,-118.5 591.5,-163.5 591.5,-163.5 591.5,-169.5 585.5,-175.5 579.5,-175.5 579.5,-175.5 538.5,-175.5 538.5,-175.5 532.5,-175.5 526.5,-169.5 526.5,-163.5 526.5,-163.5 526.5,-118.5 526.5,-118.5 526.5,-112.5 532.5,-106.5 538.5,-106.5"/>
<text text-anchor="middle" x="559" y="-160.3" font-family="Times,serif" font-size="14.00">Tag : 0</text>
<polyline fill="none" stroke="black" points="526.5,-152.5 591.5,-152.5 "/>
<text text-anchor="middle" x="559" y="-137.3" font-family="Times,serif" font-size="14.00">2</text>
<polyline fill="none" stroke="black" points="526.5,-129.5 591.5,-129.5 "/>
<text text-anchor="middle" x="559" y="-114.3" font-family="Times,serif" font-size="14.00">.</text>
</g>
<!-- p7&#45;&gt;p8 -->
<g id="edge12" class="edge"><title>p7:f1&#45;&gt;p8:head</title>
<path fill="none" stroke="black" d="M528,-318C528,-256.935 555.702,-242.153 558.732,-186.15"/>
<polygon fill="black" stroke="black" points="562.235,-186.089 559,-176 555.237,-185.904 562.235,-186.089"/>
</g>
<!-- p8&#45;&gt;p4 -->
<g id="edge13" class="edge"><title>p8:f1&#45;&gt;p4:head</title>
<path fill="none" stroke="black" d="M559,-106C559,-88.7738 579.721,-89.8219 587.815,-79.7341"/>
<polygon fill="black" stroke="black" points="591.216,-80.5926 591,-70 584.563,-78.4156 591.216,-80.5926"/>
</g>
<!-- p6 -->
<g id="node21" class="node"><title>p6</title>
<path fill="lightblue" stroke="black" d="M607.5,-212.5C607.5,-212.5 648.5,-212.5 648.5,-212.5 654.5,-212.5 660.5,-218.5 660.5,-224.5 660.5,-224.5 660.5,-269.5 660.5,-269.5 660.5,-275.5 654.5,-281.5 648.5,-281.5 648.5,-281.5 607.5,-281.5 607.5,-281.5 601.5,-281.5 595.5,-275.5 595.5,-269.5 595.5,-269.5 595.5,-224.5 595.5,-224.5 595.5,-218.5 601.5,-212.5 607.5,-212.5"/>
<text text-anchor="middle" x="628" y="-266.3" font-family="Times,serif" font-size="14.00">Tag : 0</text>
<polyline fill="none" stroke="black" points="595.5,-258.5 660.5,-258.5 "/>
<text text-anchor="middle" x="628" y="-243.3" font-family="Times,serif" font-size="14.00">4</text>
<polyline fill="none" stroke="black" points="595.5,-235.5 660.5,-235.5 "/>
<text text-anchor="middle" x="628" y="-220.3" font-family="Times,serif" font-size="14.00">.</text>
</g>
<!-- p5&#45;&gt;p6 -->
<g id="edge15" class="edge"><title>p5:f1&#45;&gt;p6:head</title>
<path fill="none" stroke="black" d="M631,-318C631,-305.958 629.312,-300.76 628.469,-292.141"/>
<polygon fill="black" stroke="black" points="631.958,-291.828 628,-282 624.966,-292.151 631.958,-291.828"/>
</g>
<!-- p6&#45;&gt;p4 -->
<g id="edge16" class="edge"><title>p6:f1&#45;&gt;p4:head</title>
<path fill="none" stroke="black" d="M628,-212C628,-163.385 613.507,-152.979 601,-106 597.763,-93.8394 593.689,-88.972 591.906,-80.1009"/>
<polygon fill="black" stroke="black" points="595.379,-79.6474 591,-70 588.407,-80.2727 595.379,-79.6474"/>
</g>
<!-- p2 -->
<g id="node23" class="node"><title>p2</title>
<path fill="lightblue" stroke="black" d="M716.5,-212.5C716.5,-212.5 757.5,-212.5 757.5,-212.5 763.5,-212.5 769.5,-218.5 769.5,-224.5 769.5,-224.5 769.5,-269.5 769.5,-269.5 769.5,-275.5 763.5,-281.5 757.5,-281.5 757.5,-281.5 716.5,-281.5 716.5,-281.5 710.5,-281.5 704.5,-275.5 704.5,-269.5 704.5,-269.5 704.5,-224.5 704.5,-224.5 704.5,-218.5 710.5,-212.5 716.5,-212.5"/>
<text text-anchor="middle" x="737" y="-266.3" font-family="Times,serif" font-size="14.00">Tag : 0</text>
<polyline fill="none" stroke="black" points="704.5,-258.5 769.5,-258.5 "/>
<text text-anchor="middle" x="737" y="-243.3" font-family="Times,serif" font-size="14.00">2</text>
<polyline fill="none" stroke="black" points="704.5,-235.5 769.5,-235.5 "/>
<text text-anchor="middle" x="737" y="-220.3" font-family="Times,serif" font-size="14.00">.</text>
</g>
<!-- p1&#45;&gt;p2 -->
<g id="edge18" class="edge"><title>p1:f1&#45;&gt;p2:head</title>
<path fill="none" stroke="black" d="M755,-318C755,-304.164 744.232,-300.896 739.353,-291.849"/>
<polygon fill="black" stroke="black" points="742.728,-290.913 737,-282 735.92,-292.54 742.728,-290.913"/>
</g>
<!-- p3 -->
<g id="node24" class="node"><title>p3</title>
<path fill="lightblue" stroke="black" d="M698.5,-106.5C698.5,-106.5 739.5,-106.5 739.5,-106.5 745.5,-106.5 751.5,-112.5 751.5,-118.5 751.5,-118.5 751.5,-163.5 751.5,-163.5 751.5,-169.5 745.5,-175.5 739.5,-175.5 739.5,-175.5 698.5,-175.5 698.5,-175.5 692.5,-175.5 686.5,-169.5 686.5,-163.5 686.5,-163.5 686.5,-118.5 686.5,-118.5 686.5,-112.5 692.5,-106.5 698.5,-106.5"/>
<text text-anchor="middle" x="719" y="-160.3" font-family="Times,serif" font-size="14.00">Tag : 0</text>
<polyline fill="none" stroke="black" points="686.5,-152.5 751.5,-152.5 "/>
<text text-anchor="middle" x="719" y="-137.3" font-family="Times,serif" font-size="14.00">3</text>
<polyline fill="none" stroke="black" points="686.5,-129.5 751.5,-129.5 "/>
<text text-anchor="middle" x="719" y="-114.3" font-family="Times,serif" font-size="14.00">.</text>
</g>
<!-- p2&#45;&gt;p3 -->
<g id="edge19" class="edge"><title>p2:f1&#45;&gt;p3:head</title>
<path fill="none" stroke="black" d="M737,-212C737,-198.164 726.232,-194.896 721.353,-185.849"/>
<polygon fill="black" stroke="black" points="724.728,-184.913 719,-176 717.92,-186.54 724.728,-184.913"/>
</g>
<!-- p3&#45;&gt;p4 -->
<g id="edge20" class="edge"><title>p3:f1&#45;&gt;p4:head</title>
<path fill="none" stroke="black" d="M685,-118C651.118,-118 660.127,-69.5686 634.958,-59.731"/>
<polygon fill="black" stroke="black" points="635.452,-56.2645 625,-58 634.253,-63.161 635.452,-56.2645"/>
</g>
</g>
</svg>
