<?xml version="1.0" encoding="UTF-8" standalone="no"?>
<!DOCTYPE svg PUBLIC "-//W3C//DTD SVG 1.1//EN"
 "http://www.w3.org/Graphics/SVG/1.1/DTD/svg11.dtd">
<!-- Generated by graphviz version 2.40.1 (20161225.0304)
 -->
<!-- Title: g Pages: 1 -->
<svg width="761pt" height="607pt"
 viewBox="0.00 0.00 761.00 607.00" xmlns="http://www.w3.org/2000/svg" xmlns:xlink="http://www.w3.org/1999/xlink">
<g id="graph0" class="graph" transform="scale(1 1) rotate(0) translate(4 603)">
<title>g</title>
<polygon fill="#ffffff" stroke="transparent" points="-4,4 -4,-603 757,-603 757,4 -4,4"/>
<!-- entry_0 -->
<g id="node1" class="node">
<title>entry_0</title>
<polygon fill="#ffff00" stroke="#000000" points="278.5,-552.5 278.5,-598.5 472.5,-598.5 472.5,-552.5 278.5,-552.5"/>
<text text-anchor="middle" x="375.5" y="-583.3" font-family="Times,serif" font-size="14.00" fill="#000000">val : object:foo+factorial</text>
<polyline fill="none" stroke="#000000" points="278.5,-575.5 472.5,-575.5 "/>
<text text-anchor="middle" x="375.5" y="-560.3" font-family="Times,serif" font-size="14.00" fill="#000000">.</text>
</g>
<!-- p1 -->
<g id="node2" class="node">
<title>p1</title>
<path fill="#add8e6" stroke="#000000" d="M346,-423.5C346,-423.5 405,-423.5 405,-423.5 411,-423.5 417,-429.5 417,-435.5 417,-435.5 417,-503.5 417,-503.5 417,-509.5 411,-515.5 405,-515.5 405,-515.5 346,-515.5 346,-515.5 340,-515.5 334,-509.5 334,-503.5 334,-503.5 334,-435.5 334,-435.5 334,-429.5 340,-423.5 346,-423.5"/>
<text text-anchor="middle" x="375.5" y="-500.3" font-family="Times,serif" font-size="14.00" fill="#000000">Tag : 248</text>
<polyline fill="none" stroke="#000000" points="334,-492.5 417,-492.5 "/>
<text text-anchor="middle" x="375.5" y="-477.3" font-family="Times,serif" font-size="14.00" fill="#000000">.</text>
<polyline fill="none" stroke="#000000" points="334,-469.5 417,-469.5 "/>
<text text-anchor="middle" x="375.5" y="-454.3" font-family="Times,serif" font-size="14.00" fill="#000000">8</text>
<polyline fill="none" stroke="#000000" points="334,-446.5 417,-446.5 "/>
<text text-anchor="middle" x="375.5" y="-431.3" font-family="Times,serif" font-size="14.00" fill="#000000">5</text>
</g>
<!-- entry_0&#45;&gt;p1 -->
<g id="edge1" class="edge">
<title>entry_0&#45;&gt;p1:head</title>
<path fill="none" stroke="#000000" d="M375.5,-552.4215C375.5,-544.3174 375.5,-534.9327 375.5,-525.7318"/>
<polygon fill="#000000" stroke="#000000" points="379.0001,-525.5 375.5,-515.5 372.0001,-525.5 379.0001,-525.5"/>
</g>
<!-- p2 -->
<g id="node3" class="node">
<title>p2</title>
<path fill="#add8e6" stroke="#000000" d="M355,-225.5C355,-225.5 396,-225.5 396,-225.5 402,-225.5 408,-231.5 408,-237.5 408,-237.5 408,-374.5 408,-374.5 408,-380.5 402,-386.5 396,-386.5 396,-386.5 355,-386.5 355,-386.5 349,-386.5 343,-380.5 343,-374.5 343,-374.5 343,-237.5 343,-237.5 343,-231.5 349,-225.5 355,-225.5"/>
<text text-anchor="middle" x="375.5" y="-371.3" font-family="Times,serif" font-size="14.00" fill="#000000">Tag : 0</text>
<polyline fill="none" stroke="#000000" points="343,-363.5 408,-363.5 "/>
<text text-anchor="middle" x="375.5" y="-348.3" font-family="Times,serif" font-size="14.00" fill="#000000">2</text>
<polyline fill="none" stroke="#000000" points="343,-340.5 408,-340.5 "/>
<text text-anchor="middle" x="375.5" y="-325.3" font-family="Times,serif" font-size="14.00" fill="#000000">15</text>
<polyline fill="none" stroke="#000000" points="343,-317.5 408,-317.5 "/>
<text text-anchor="middle" x="375.5" y="-302.3" font-family="Times,serif" font-size="14.00" fill="#000000">.</text>
<polyline fill="none" stroke="#000000" points="343,-294.5 408,-294.5 "/>
<text text-anchor="middle" x="375.5" y="-279.3" font-family="Times,serif" font-size="14.00" fill="#000000">102</text>
<polyline fill="none" stroke="#000000" points="343,-271.5 408,-271.5 "/>
<text text-anchor="middle" x="375.5" y="-256.3" font-family="Times,serif" font-size="14.00" fill="#000000">.</text>
<polyline fill="none" stroke="#000000" points="343,-248.5 408,-248.5 "/>
<text text-anchor="middle" x="375.5" y="-233.3" font-family="Times,serif" font-size="14.00" fill="#000000">103</text>
</g>
<!-- p1&#45;&gt;p2 -->
<g id="edge2" class="edge">
<title>p1:f0&#45;&gt;p2:head</title>
<path fill="none" stroke="#000000" d="M417.5,-481.5C443.5,-481.5 428.3643,-446.6213 417.5,-423 408.9925,-404.5028 385.7723,-408.8136 378.0417,-396.8793"/>
<polygon fill="#000000" stroke="#000000" points="381.3813,-395.8125 375.5,-387 374.6021,-397.5567 381.3813,-395.8125"/>
</g>
<!-- p3 -->
<g id="node4" class="node">
<title>p3</title>
<path fill="#add8e6" stroke="#000000" d="M296,-73.5C296,-73.5 355,-73.5 355,-73.5 361,-73.5 367,-79.5 367,-85.5 367,-85.5 367,-176.5 367,-176.5 367,-182.5 361,-188.5 355,-188.5 355,-188.5 296,-188.5 296,-188.5 290,-188.5 284,-182.5 284,-176.5 284,-176.5 284,-85.5 284,-85.5 284,-79.5 290,-73.5 296,-73.5"/>
<text text-anchor="middle" x="325.5" y="-173.3" font-family="Times,serif" font-size="14.00" fill="#000000">Tag : 247</text>
<polyline fill="none" stroke="#000000" points="284,-165.5 367,-165.5 "/>
<text text-anchor="middle" x="325.5" y="-150.3" font-family="Times,serif" font-size="14.00" fill="#000000">.</text>
<polyline fill="none" stroke="#000000" points="284,-142.5 367,-142.5 "/>
<text text-anchor="middle" x="325.5" y="-127.3" font-family="Times,serif" font-size="14.00" fill="#000000">2</text>
<polyline fill="none" stroke="#000000" points="284,-119.5 367,-119.5 "/>
<text text-anchor="middle" x="325.5" y="-104.3" font-family="Times,serif" font-size="14.00" fill="#000000">.</text>
<polyline fill="none" stroke="#000000" points="284,-96.5 367,-96.5 "/>
<text text-anchor="middle" x="325.5" y="-81.3" font-family="Times,serif" font-size="14.00" fill="#000000">2</text>
</g>
<!-- p2&#45;&gt;p3 -->
<g id="edge3" class="edge">
<title>p2:f2&#45;&gt;p3:head</title>
<path fill="none" stroke="#000000" d="M342.5,-306C293.3407,-306 321.2838,-249.5868 325.0901,-199.2882"/>
<polygon fill="#000000" stroke="#000000" points="328.599,-199.1314 325.5,-189 321.6046,-198.8527 328.599,-199.1314"/>
</g>
<!-- p4 -->
<g id="node5" class="node">
<title>p4</title>
<path fill="#add8e6" stroke="#000000" d="M397,-73.5C397,-73.5 456,-73.5 456,-73.5 462,-73.5 468,-79.5 468,-85.5 468,-85.5 468,-176.5 468,-176.5 468,-182.5 462,-188.5 456,-188.5 456,-188.5 397,-188.5 397,-188.5 391,-188.5 385,-182.5 385,-176.5 385,-176.5 385,-85.5 385,-85.5 385,-79.5 391,-73.5 397,-73.5"/>
<text text-anchor="middle" x="426.5" y="-173.3" font-family="Times,serif" font-size="14.00" fill="#000000">Tag : 247</text>
<polyline fill="none" stroke="#000000" points="385,-165.5 468,-165.5 "/>
<text text-anchor="middle" x="426.5" y="-150.3" font-family="Times,serif" font-size="14.00" fill="#000000">.</text>
<polyline fill="none" stroke="#000000" points="385,-142.5 468,-142.5 "/>
<text text-anchor="middle" x="426.5" y="-127.3" font-family="Times,serif" font-size="14.00" fill="#000000">2</text>
<polyline fill="none" stroke="#000000" points="385,-119.5 468,-119.5 "/>
<text text-anchor="middle" x="426.5" y="-104.3" font-family="Times,serif" font-size="14.00" fill="#000000">.</text>
<polyline fill="none" stroke="#000000" points="385,-96.5 468,-96.5 "/>
<text text-anchor="middle" x="426.5" y="-81.3" font-family="Times,serif" font-size="14.00" fill="#000000">2</text>
</g>
<!-- p2&#45;&gt;p4 -->
<g id="edge4" class="edge">
<title>p2:f4&#45;&gt;p4:head</title>
<path fill="none" stroke="#000000" d="M408.5,-260C437.7476,-260 428.9703,-228.9667 426.8858,-199.0546"/>
<polygon fill="#000000" stroke="#000000" points="430.3809,-198.8584 426.5,-189 423.3861,-199.1269 430.3809,-198.8584"/>
</g>
<!-- e93978518299904 -->
<g id="node6" class="node">
<title>e93978518299904</title>
<path fill="#c0c0c0" stroke="#000000" d="M269,-.5C269,-.5 484,-.5 484,-.5 490,-.5 496,-6.5 496,-12.5 496,-12.5 496,-24.5 496,-24.5 496,-30.5 490,-36.5 484,-36.5 484,-36.5 269,-36.5 269,-36.5 263,-36.5 257,-30.5 257,-24.5 257,-24.5 257,-12.5 257,-12.5 257,-6.5 263,-.5 269,-.5"/>
<text text-anchor="middle" x="376.5" y="-14.8" font-family="Times,serif" font-size="14.00" fill="#000000">Out of heap : 0x557914332500</text>
</g>
<!-- p3&#45;&gt;e93978518299904 -->
<g id="edge7" class="edge">
<title>p3:f0&#45;&gt;e93978518299904:head</title>
<path fill="none" stroke="#000000" d="M367.5,-154C372.818,-154 375.1107,-86.6717 376.0007,-46.9349"/>
<polygon fill="#000000" stroke="#000000" points="379.5032,-46.8446 376.2113,-36.7741 372.5047,-46.6994 379.5032,-46.8446"/>
</g>
<!-- e93978518300704 -->
<g id="node8" class="node">
<title>e93978518300704</title>
<path fill="#c0c0c0" stroke="#000000" d="M12,-.5C12,-.5 227,-.5 227,-.5 233,-.5 239,-6.5 239,-12.5 239,-12.5 239,-24.5 239,-24.5 239,-30.5 233,-36.5 227,-36.5 227,-36.5 12,-36.5 12,-36.5 6,-36.5 0,-30.5 0,-24.5 0,-24.5 0,-12.5 0,-12.5 0,-6.5 6,-.5 12,-.5"/>
<text text-anchor="middle" x="119.5" y="-14.8" font-family="Times,serif" font-size="14.00" fill="#000000">Out of heap : 0x557914332820</text>
</g>
<!-- p3&#45;&gt;e93978518300704 -->
<g id="edge8" class="edge">
<title>p3:f2&#45;&gt;e93978518300704:head</title>
<path fill="none" stroke="#000000" d="M283.5,-108C229.3088,-108 176.0006,-69.881 145.5035,-43.3973"/>
<polygon fill="#000000" stroke="#000000" points="147.6839,-40.6522 137.8898,-36.6117 143.0265,-45.878 147.6839,-40.6522"/>
</g>
<!-- p4&#45;&gt;e93978518299904 -->
<g id="edge5" class="edge">
<title>p4:f0&#45;&gt;e93978518299904:head</title>
<path fill="none" stroke="#000000" d="M384.5,-154C379.1844,-154 377.3877,-86.6717 376.7901,-46.9349"/>
<polygon fill="#000000" stroke="#000000" points="380.2878,-46.7264 376.6542,-36.7741 373.2884,-46.8201 380.2878,-46.7264"/>
</g>
<!-- e93978518300688 -->
<g id="node7" class="node">
<title>e93978518300688</title>
<path fill="#c0c0c0" stroke="#000000" d="M526,-.5C526,-.5 741,-.5 741,-.5 747,-.5 753,-6.5 753,-12.5 753,-12.5 753,-24.5 753,-24.5 753,-30.5 747,-36.5 741,-36.5 741,-36.5 526,-36.5 526,-36.5 520,-36.5 514,-30.5 514,-24.5 514,-24.5 514,-12.5 514,-12.5 514,-6.5 520,-.5 526,-.5"/>
<text text-anchor="middle" x="633.5" y="-14.8" font-family="Times,serif" font-size="14.00" fill="#000000">Out of heap : 0x557914332810</text>
</g>
<!-- p4&#45;&gt;e93978518300688 -->
<g id="edge6" class="edge">
<title>p4:f2&#45;&gt;e93978518300688:head</title>
<path fill="none" stroke="#000000" d="M468.5,-108C522.9459,-108 576.6023,-69.881 607.3106,-43.3973"/>
<polygon fill="#000000" stroke="#000000" points="609.8088,-45.8602 614.9774,-36.6117 605.1694,-40.6184 609.8088,-45.8602"/>
</g>
</g>
</svg>
