<?xml version="1.0" encoding="UTF-8" standalone="no"?>
<!DOCTYPE svg PUBLIC "-//W3C//DTD SVG 1.1//EN"
 "http://www.w3.org/Graphics/SVG/1.1/DTD/svg11.dtd">
<!-- Generated by graphviz version 2.40.1 (20161225.0304)
 -->
<!-- Title: g Pages: 1 -->
<svg width="746pt" height="607pt"
 viewBox="0.00 0.00 746.00 607.00" xmlns="http://www.w3.org/2000/svg" xmlns:xlink="http://www.w3.org/1999/xlink">
<g id="graph0" class="graph" transform="scale(1 1) rotate(0) translate(4 603)">
<title>g</title>
<polygon fill="#ffffff" stroke="transparent" points="-4,4 -4,-603 742,-603 742,4 -4,4"/>
<!-- entry_0 -->
<g id="node1" class="node">
<title>entry_0</title>
<polygon fill="#ffff00" stroke="#000000" points="271,-552.5 271,-598.5 465,-598.5 465,-552.5 271,-552.5"/>
<text text-anchor="middle" x="368" y="-583.3" font-family="Times,serif" font-size="14.00" fill="#000000">val : object:foo+factorial</text>
<polyline fill="none" stroke="#000000" points="271,-575.5 465,-575.5 "/>
<text text-anchor="middle" x="368" y="-560.3" font-family="Times,serif" font-size="14.00" fill="#000000">.</text>
</g>
<!-- p1 -->
<g id="node2" class="node">
<title>p1</title>
<path fill="#add8e6" stroke="#000000" d="M338.5,-423.5C338.5,-423.5 397.5,-423.5 397.5,-423.5 403.5,-423.5 409.5,-429.5 409.5,-435.5 409.5,-435.5 409.5,-503.5 409.5,-503.5 409.5,-509.5 403.5,-515.5 397.5,-515.5 397.5,-515.5 338.5,-515.5 338.5,-515.5 332.5,-515.5 326.5,-509.5 326.5,-503.5 326.5,-503.5 326.5,-435.5 326.5,-435.5 326.5,-429.5 332.5,-423.5 338.5,-423.5"/>
<text text-anchor="middle" x="368" y="-500.3" font-family="Times,serif" font-size="14.00" fill="#000000">Tag : 248</text>
<polyline fill="none" stroke="#000000" points="326.5,-492.5 409.5,-492.5 "/>
<text text-anchor="middle" x="368" y="-477.3" font-family="Times,serif" font-size="14.00" fill="#000000">.</text>
<polyline fill="none" stroke="#000000" points="326.5,-469.5 409.5,-469.5 "/>
<text text-anchor="middle" x="368" y="-454.3" font-family="Times,serif" font-size="14.00" fill="#000000">8</text>
<polyline fill="none" stroke="#000000" points="326.5,-446.5 409.5,-446.5 "/>
<text text-anchor="middle" x="368" y="-431.3" font-family="Times,serif" font-size="14.00" fill="#000000">5</text>
</g>
<!-- entry_0&#45;&gt;p1 -->
<g id="edge1" class="edge">
<title>entry_0&#45;&gt;p1</title>
<path fill="none" stroke="#000000" d="M368,-552.4996C368,-544.5402 368,-535.2348 368,-525.7896"/>
<polygon fill="#000000" stroke="#000000" points="371.5001,-525.5427 368,-515.5427 364.5001,-525.5428 371.5001,-525.5427"/>
</g>
<!-- p2 -->
<g id="node3" class="node">
<title>p2</title>
<path fill="#add8e6" stroke="#000000" d="M347.5,-225.5C347.5,-225.5 388.5,-225.5 388.5,-225.5 394.5,-225.5 400.5,-231.5 400.5,-237.5 400.5,-237.5 400.5,-374.5 400.5,-374.5 400.5,-380.5 394.5,-386.5 388.5,-386.5 388.5,-386.5 347.5,-386.5 347.5,-386.5 341.5,-386.5 335.5,-380.5 335.5,-374.5 335.5,-374.5 335.5,-237.5 335.5,-237.5 335.5,-231.5 341.5,-225.5 347.5,-225.5"/>
<text text-anchor="middle" x="368" y="-371.3" font-family="Times,serif" font-size="14.00" fill="#000000">Tag : 0</text>
<polyline fill="none" stroke="#000000" points="335.5,-363.5 400.5,-363.5 "/>
<text text-anchor="middle" x="368" y="-348.3" font-family="Times,serif" font-size="14.00" fill="#000000">2</text>
<polyline fill="none" stroke="#000000" points="335.5,-340.5 400.5,-340.5 "/>
<text text-anchor="middle" x="368" y="-325.3" font-family="Times,serif" font-size="14.00" fill="#000000">15</text>
<polyline fill="none" stroke="#000000" points="335.5,-317.5 400.5,-317.5 "/>
<text text-anchor="middle" x="368" y="-302.3" font-family="Times,serif" font-size="14.00" fill="#000000">.</text>
<polyline fill="none" stroke="#000000" points="335.5,-294.5 400.5,-294.5 "/>
<text text-anchor="middle" x="368" y="-279.3" font-family="Times,serif" font-size="14.00" fill="#000000">102</text>
<polyline fill="none" stroke="#000000" points="335.5,-271.5 400.5,-271.5 "/>
<text text-anchor="middle" x="368" y="-256.3" font-family="Times,serif" font-size="14.00" fill="#000000">.</text>
<polyline fill="none" stroke="#000000" points="335.5,-248.5 400.5,-248.5 "/>
<text text-anchor="middle" x="368" y="-233.3" font-family="Times,serif" font-size="14.00" fill="#000000">103</text>
</g>
<!-- p1&#45;&gt;p2 -->
<g id="edge2" class="edge">
<title>p1:f0&#45;&gt;p2:head</title>
<path fill="none" stroke="#000000" d="M410,-481.5C436,-481.5 420.8643,-446.6213 410,-423 401.4925,-404.5028 378.2723,-408.8136 370.5417,-396.8793"/>
<polygon fill="#000000" stroke="#000000" points="373.8813,-395.8125 368,-387 367.1021,-397.5567 373.8813,-395.8125"/>
</g>
<!-- p3 -->
<g id="node4" class="node">
<title>p3</title>
<path fill="#add8e6" stroke="#000000" d="M288.5,-73.5C288.5,-73.5 347.5,-73.5 347.5,-73.5 353.5,-73.5 359.5,-79.5 359.5,-85.5 359.5,-85.5 359.5,-176.5 359.5,-176.5 359.5,-182.5 353.5,-188.5 347.5,-188.5 347.5,-188.5 288.5,-188.5 288.5,-188.5 282.5,-188.5 276.5,-182.5 276.5,-176.5 276.5,-176.5 276.5,-85.5 276.5,-85.5 276.5,-79.5 282.5,-73.5 288.5,-73.5"/>
<text text-anchor="middle" x="318" y="-173.3" font-family="Times,serif" font-size="14.00" fill="#000000">Tag : 247</text>
<polyline fill="none" stroke="#000000" points="276.5,-165.5 359.5,-165.5 "/>
<text text-anchor="middle" x="318" y="-150.3" font-family="Times,serif" font-size="14.00" fill="#000000">.</text>
<polyline fill="none" stroke="#000000" points="276.5,-142.5 359.5,-142.5 "/>
<text text-anchor="middle" x="318" y="-127.3" font-family="Times,serif" font-size="14.00" fill="#000000">2</text>
<polyline fill="none" stroke="#000000" points="276.5,-119.5 359.5,-119.5 "/>
<text text-anchor="middle" x="318" y="-104.3" font-family="Times,serif" font-size="14.00" fill="#000000">.</text>
<polyline fill="none" stroke="#000000" points="276.5,-96.5 359.5,-96.5 "/>
<text text-anchor="middle" x="318" y="-81.3" font-family="Times,serif" font-size="14.00" fill="#000000">2</text>
</g>
<!-- p2&#45;&gt;p3 -->
<g id="edge3" class="edge">
<title>p2:f2&#45;&gt;p3:head</title>
<path fill="none" stroke="#000000" d="M335,-306C285.8407,-306 313.7838,-249.5868 317.5901,-199.2882"/>
<polygon fill="#000000" stroke="#000000" points="321.099,-199.1314 318,-189 314.1046,-198.8527 321.099,-199.1314"/>
</g>
<!-- p4 -->
<g id="node5" class="node">
<title>p4</title>
<path fill="#add8e6" stroke="#000000" d="M389.5,-73.5C389.5,-73.5 448.5,-73.5 448.5,-73.5 454.5,-73.5 460.5,-79.5 460.5,-85.5 460.5,-85.5 460.5,-176.5 460.5,-176.5 460.5,-182.5 454.5,-188.5 448.5,-188.5 448.5,-188.5 389.5,-188.5 389.5,-188.5 383.5,-188.5 377.5,-182.5 377.5,-176.5 377.5,-176.5 377.5,-85.5 377.5,-85.5 377.5,-79.5 383.5,-73.5 389.5,-73.5"/>
<text text-anchor="middle" x="419" y="-173.3" font-family="Times,serif" font-size="14.00" fill="#000000">Tag : 247</text>
<polyline fill="none" stroke="#000000" points="377.5,-165.5 460.5,-165.5 "/>
<text text-anchor="middle" x="419" y="-150.3" font-family="Times,serif" font-size="14.00" fill="#000000">.</text>
<polyline fill="none" stroke="#000000" points="377.5,-142.5 460.5,-142.5 "/>
<text text-anchor="middle" x="419" y="-127.3" font-family="Times,serif" font-size="14.00" fill="#000000">2</text>
<polyline fill="none" stroke="#000000" points="377.5,-119.5 460.5,-119.5 "/>
<text text-anchor="middle" x="419" y="-104.3" font-family="Times,serif" font-size="14.00" fill="#000000">.</text>
<polyline fill="none" stroke="#000000" points="377.5,-96.5 460.5,-96.5 "/>
<text text-anchor="middle" x="419" y="-81.3" font-family="Times,serif" font-size="14.00" fill="#000000">2</text>
</g>
<!-- p2&#45;&gt;p4 -->
<g id="edge4" class="edge">
<title>p2:f4&#45;&gt;p4:head</title>
<path fill="none" stroke="#000000" d="M401,-260C430.2476,-260 421.4703,-228.9667 419.3858,-199.0546"/>
<polygon fill="#000000" stroke="#000000" points="422.8809,-198.8584 419,-189 415.8861,-199.1269 422.8809,-198.8584"/>
</g>
<!-- e47389824774784 -->
<g id="node6" class="node">
<title>e47389824774784</title>
<path fill="#c0c0c0" stroke="#000000" d="M264,-.5C264,-.5 474,-.5 474,-.5 480,-.5 486,-6.5 486,-12.5 486,-12.5 486,-24.5 486,-24.5 486,-30.5 480,-36.5 474,-36.5 474,-36.5 264,-36.5 264,-36.5 258,-36.5 252,-30.5 252,-24.5 252,-24.5 252,-12.5 252,-12.5 252,-6.5 258,-.5 264,-.5"/>
<text text-anchor="middle" x="369" y="-14.8" font-family="Times,serif" font-size="14.00" fill="#000000">Out of heap : 0x2b19cdabf280</text>
</g>
<!-- p3&#45;&gt;e47389824774784 -->
<g id="edge7" class="edge">
<title>p3:f0&#45;&gt;e47389824774784:head</title>
<path fill="none" stroke="#000000" d="M360,-154C365.318,-154 367.6107,-86.6717 368.5007,-46.9349"/>
<polygon fill="#000000" stroke="#000000" points="372.0032,-46.8446 368.7113,-36.7741 365.0047,-46.6994 372.0032,-46.8446"/>
</g>
<!-- e47389824775184 -->
<g id="node8" class="node">
<title>e47389824775184</title>
<path fill="#c0c0c0" stroke="#000000" d="M12,-.5C12,-.5 222,-.5 222,-.5 228,-.5 234,-6.5 234,-12.5 234,-12.5 234,-24.5 234,-24.5 234,-30.5 228,-36.5 222,-36.5 222,-36.5 12,-36.5 12,-36.5 6,-36.5 0,-30.5 0,-24.5 0,-24.5 0,-12.5 0,-12.5 0,-6.5 6,-.5 12,-.5"/>
<text text-anchor="middle" x="117" y="-14.8" font-family="Times,serif" font-size="14.00" fill="#000000">Out of heap : 0x2b19cdabf410</text>
</g>
<!-- p3&#45;&gt;e47389824775184 -->
<g id="edge8" class="edge">
<title>p3:f2&#45;&gt;e47389824775184:head</title>
<path fill="none" stroke="#000000" d="M276,-108C223.0773,-108 171.5115,-69.881 142.0718,-43.3973"/>
<polygon fill="#000000" stroke="#000000" points="144.4453,-40.8251 134.7243,-36.6117 139.6961,-45.9675 144.4453,-40.8251"/>
</g>
<!-- p4&#45;&gt;e47389824774784 -->
<g id="edge5" class="edge">
<title>p4:f0&#45;&gt;e47389824774784:head</title>
<path fill="none" stroke="#000000" d="M377,-154C371.6844,-154 369.8877,-86.6717 369.2901,-46.9349"/>
<polygon fill="#000000" stroke="#000000" points="372.7878,-46.7264 369.1542,-36.7741 365.7884,-46.8201 372.7878,-46.7264"/>
</g>
<!-- e47389824775176 -->
<g id="node7" class="node">
<title>e47389824775176</title>
<path fill="#c0c0c0" stroke="#000000" d="M516,-.5C516,-.5 726,-.5 726,-.5 732,-.5 738,-6.5 738,-12.5 738,-12.5 738,-24.5 738,-24.5 738,-30.5 732,-36.5 726,-36.5 726,-36.5 516,-36.5 516,-36.5 510,-36.5 504,-30.5 504,-24.5 504,-24.5 504,-12.5 504,-12.5 504,-6.5 510,-.5 516,-.5"/>
<text text-anchor="middle" x="621" y="-14.8" font-family="Times,serif" font-size="14.00" fill="#000000">Out of heap : 0x2b19cdabf408</text>
</g>
<!-- p4&#45;&gt;e47389824775176 -->
<g id="edge6" class="edge">
<title>p4:f2&#45;&gt;e47389824775176:head</title>
<path fill="none" stroke="#000000" d="M461,-108C514.1756,-108 566.0902,-69.881 595.7416,-43.3973"/>
<polygon fill="#000000" stroke="#000000" points="598.137,-45.9496 603.1424,-36.6117 593.4063,-40.79 598.137,-45.9496"/>
</g>
</g>
</svg>
