<?xml version="1.0" encoding="UTF-8" standalone="no"?>
<!DOCTYPE svg PUBLIC "-//W3C//DTD SVG 1.1//EN"
 "http://www.w3.org/Graphics/SVG/1.1/DTD/svg11.dtd">
<!-- Generated by graphviz version 2.40.1 (20161225.0304)
 -->
<!-- Title: g Pages: 1 -->
<svg width="870pt" height="442pt"
 viewBox="0.00 0.00 870.00 442.00" xmlns="http://www.w3.org/2000/svg" xmlns:xlink="http://www.w3.org/1999/xlink">
<g id="graph0" class="graph" transform="scale(1 1) rotate(0) translate(4 438)">
<title>g</title>
<polygon fill="#ffffff" stroke="transparent" points="-4,4 -4,-438 866,-438 866,4 -4,4"/>
<!-- entry_0 -->
<g id="node1" class="node">
<title>entry_0</title>
<polygon fill="#ffff00" stroke="#000000" points="0,-387.5 0,-433.5 320,-433.5 320,-387.5 0,-387.5"/>
<text text-anchor="middle" x="160" y="-418.3" font-family="Times,serif" font-size="14.00" fill="#000000">val : foo = { a = 1; b = 42.; c = 2; d = 3; }</text>
<polyline fill="none" stroke="#000000" points="0,-410.5 320,-410.5 "/>
<text text-anchor="middle" x="160" y="-395.3" font-family="Times,serif" font-size="14.00" fill="#000000">.</text>
</g>
<!-- p2 -->
<g id="node4" class="node">
<title>p2</title>
<path fill="#add8e6" stroke="#000000" d="M240.5,-83.5C240.5,-83.5 281.5,-83.5 281.5,-83.5 287.5,-83.5 293.5,-89.5 293.5,-95.5 293.5,-95.5 293.5,-186.5 293.5,-186.5 293.5,-192.5 287.5,-198.5 281.5,-198.5 281.5,-198.5 240.5,-198.5 240.5,-198.5 234.5,-198.5 228.5,-192.5 228.5,-186.5 228.5,-186.5 228.5,-95.5 228.5,-95.5 228.5,-89.5 234.5,-83.5 240.5,-83.5"/>
<text text-anchor="middle" x="261" y="-183.3" font-family="Times,serif" font-size="14.00" fill="#000000">Tag : 0</text>
<polyline fill="none" stroke="#000000" points="228.5,-175.5 293.5,-175.5 "/>
<text text-anchor="middle" x="261" y="-160.3" font-family="Times,serif" font-size="14.00" fill="#000000">1</text>
<polyline fill="none" stroke="#000000" points="228.5,-152.5 293.5,-152.5 "/>
<text text-anchor="middle" x="261" y="-137.3" font-family="Times,serif" font-size="14.00" fill="#000000">.</text>
<polyline fill="none" stroke="#000000" points="228.5,-129.5 293.5,-129.5 "/>
<text text-anchor="middle" x="261" y="-114.3" font-family="Times,serif" font-size="14.00" fill="#000000">2</text>
<polyline fill="none" stroke="#000000" points="228.5,-106.5 293.5,-106.5 "/>
<text text-anchor="middle" x="261" y="-91.3" font-family="Times,serif" font-size="14.00" fill="#000000">3</text>
</g>
<!-- entry_0&#45;&gt;p2 -->
<g id="edge1" class="edge">
<title>entry_0&#45;&gt;p2</title>
<path fill="none" stroke="#000000" d="M168.7864,-387.0551C183.5845,-347.5691 214.0019,-266.4058 235.8595,-208.0829"/>
<polygon fill="#000000" stroke="#000000" points="239.1942,-209.1582 239.4261,-198.5659 232.6393,-206.7016 239.1942,-209.1582"/>
</g>
<!-- entry_1 -->
<g id="node2" class="node">
<title>entry_1</title>
<polygon fill="#ffff00" stroke="#000000" points="590,-387.5 590,-433.5 862,-433.5 862,-387.5 590,-387.5"/>
<text text-anchor="middle" x="726" y="-418.3" font-family="Times,serif" font-size="14.00" fill="#000000">val : bar = { e = 5.; f = 7.; g = 8.; }</text>
<polyline fill="none" stroke="#000000" points="590,-410.5 862,-410.5 "/>
<text text-anchor="middle" x="726" y="-395.3" font-family="Times,serif" font-size="14.00" fill="#000000">.</text>
</g>
<!-- p4 -->
<g id="node6" class="node">
<title>p4</title>
<path fill="#add8e6" stroke="#000000" d="M612,-95C612,-95 672,-95 672,-95 678,-95 684,-101 684,-107 684,-107 684,-175 684,-175 684,-181 678,-187 672,-187 672,-187 612,-187 612,-187 606,-187 600,-181 600,-175 600,-175 600,-107 600,-107 600,-101 606,-95 612,-95"/>
<text text-anchor="middle" x="642" y="-171.8" font-family="Times,serif" font-size="14.00" fill="#000000">Tag : 254</text>
<polyline fill="none" stroke="#000000" points="600,-164 684,-164 "/>
<text text-anchor="middle" x="642" y="-148.8" font-family="Times,serif" font-size="14.00" fill="#000000">5.000000</text>
<polyline fill="none" stroke="#000000" points="600,-141 684,-141 "/>
<text text-anchor="middle" x="642" y="-125.8" font-family="Times,serif" font-size="14.00" fill="#000000">7.000000</text>
<polyline fill="none" stroke="#000000" points="600,-118 684,-118 "/>
<text text-anchor="middle" x="642" y="-102.8" font-family="Times,serif" font-size="14.00" fill="#000000">8.000000</text>
</g>
<!-- entry_1&#45;&gt;p4 -->
<g id="edge3" class="edge">
<title>entry_1&#45;&gt;p4</title>
<path fill="none" stroke="#000000" d="M718.6925,-387.0551C705.5804,-344.9873 677.7237,-255.6136 659.44,-196.9532"/>
<polygon fill="#000000" stroke="#000000" points="662.6848,-195.6015 656.3676,-187.096 656.0019,-197.6845 662.6848,-195.6015"/>
</g>
<!-- entry_2 -->
<g id="node3" class="node">
<title>entry_2</title>
<polygon fill="#ffff00" stroke="#000000" points="338.5,-387.5 338.5,-433.5 571.5,-433.5 571.5,-387.5 338.5,-387.5"/>
<text text-anchor="middle" x="455" y="-418.3" font-family="Times,serif" font-size="14.00" fill="#000000">val : { h = 0; foo; bar; i = 9.; }</text>
<polyline fill="none" stroke="#000000" points="338.5,-410.5 571.5,-410.5 "/>
<text text-anchor="middle" x="455" y="-395.3" font-family="Times,serif" font-size="14.00" fill="#000000">.</text>
</g>
<!-- p1 -->
<g id="node7" class="node">
<title>p1</title>
<path fill="#add8e6" stroke="#000000" d="M434.5,-235.5C434.5,-235.5 475.5,-235.5 475.5,-235.5 481.5,-235.5 487.5,-241.5 487.5,-247.5 487.5,-247.5 487.5,-338.5 487.5,-338.5 487.5,-344.5 481.5,-350.5 475.5,-350.5 475.5,-350.5 434.5,-350.5 434.5,-350.5 428.5,-350.5 422.5,-344.5 422.5,-338.5 422.5,-338.5 422.5,-247.5 422.5,-247.5 422.5,-241.5 428.5,-235.5 434.5,-235.5"/>
<text text-anchor="middle" x="455" y="-335.3" font-family="Times,serif" font-size="14.00" fill="#000000">Tag : 0</text>
<polyline fill="none" stroke="#000000" points="422.5,-327.5 487.5,-327.5 "/>
<text text-anchor="middle" x="455" y="-312.3" font-family="Times,serif" font-size="14.00" fill="#000000">0</text>
<polyline fill="none" stroke="#000000" points="422.5,-304.5 487.5,-304.5 "/>
<text text-anchor="middle" x="455" y="-289.3" font-family="Times,serif" font-size="14.00" fill="#000000">.</text>
<polyline fill="none" stroke="#000000" points="422.5,-281.5 487.5,-281.5 "/>
<text text-anchor="middle" x="455" y="-266.3" font-family="Times,serif" font-size="14.00" fill="#000000">.</text>
<polyline fill="none" stroke="#000000" points="422.5,-258.5 487.5,-258.5 "/>
<text text-anchor="middle" x="455" y="-243.3" font-family="Times,serif" font-size="14.00" fill="#000000">.</text>
</g>
<!-- entry_2&#45;&gt;p1 -->
<g id="edge4" class="edge">
<title>entry_2&#45;&gt;p1</title>
<path fill="none" stroke="#000000" d="M455,-387.2858C455,-379.5255 455,-370.4402 455,-361.029"/>
<polygon fill="#000000" stroke="#000000" points="458.5001,-360.7361 455,-350.7362 451.5001,-360.7362 458.5001,-360.7361"/>
</g>
<!-- p3 -->
<g id="node5" class="node">
<title>p3</title>
<path fill="#add8e6" stroke="#000000" d="M226.5,-.5C226.5,-.5 295.5,-.5 295.5,-.5 301.5,-.5 307.5,-6.5 307.5,-12.5 307.5,-12.5 307.5,-34.5 307.5,-34.5 307.5,-40.5 301.5,-46.5 295.5,-46.5 295.5,-46.5 226.5,-46.5 226.5,-46.5 220.5,-46.5 214.5,-40.5 214.5,-34.5 214.5,-34.5 214.5,-12.5 214.5,-12.5 214.5,-6.5 220.5,-.5 226.5,-.5"/>
<text text-anchor="middle" x="261" y="-31.3" font-family="Times,serif" font-size="14.00" fill="#000000">Tag : 253</text>
<polyline fill="none" stroke="#000000" points="214.5,-23.5 307.5,-23.5 "/>
<text text-anchor="middle" x="261" y="-8.3" font-family="Times,serif" font-size="14.00" fill="#000000">42.000000</text>
</g>
<!-- p2&#45;&gt;p3 -->
<g id="edge2" class="edge">
<title>p2:f1&#45;&gt;p3:head</title>
<path fill="none" stroke="#000000" d="M294,-141C319.7778,-141 303.2625,-107.0562 294,-83 287.6153,-66.4178 269.8206,-67.1232 263.372,-56.2405"/>
<polygon fill="#000000" stroke="#000000" points="266.7668,-55.3879 261,-46.5 259.9655,-57.0442 266.7668,-55.3879"/>
</g>
<!-- p1&#45;&gt;p2 -->
<g id="edge5" class="edge">
<title>p1:f1&#45;&gt;p2:head</title>
<path fill="none" stroke="#000000" d="M422,-293C351.7432,-293 366.1601,-197.0988 304.1722,-187.7335"/>
<polygon fill="#000000" stroke="#000000" points="304.2259,-184.2284 294,-187 303.7224,-191.2102 304.2259,-184.2284"/>
</g>
<!-- p1&#45;&gt;p4 -->
<g id="edge6" class="edge">
<title>p1:f2&#45;&gt;p4:head</title>
<path fill="none" stroke="#000000" d="M488,-270C549.3054,-270 536.7836,-186.3469 589.7257,-176.8705"/>
<polygon fill="#000000" stroke="#000000" points="590.3312,-180.3319 600,-176 589.7402,-173.3569 590.3312,-180.3319"/>
</g>
<!-- p5 -->
<g id="node8" class="node">
<title>p5</title>
<path fill="#add8e6" stroke="#000000" d="M425,-118C425,-118 485,-118 485,-118 491,-118 497,-124 497,-130 497,-130 497,-152 497,-152 497,-158 491,-164 485,-164 485,-164 425,-164 425,-164 419,-164 413,-158 413,-152 413,-152 413,-130 413,-130 413,-124 419,-118 425,-118"/>
<text text-anchor="middle" x="455" y="-148.8" font-family="Times,serif" font-size="14.00" fill="#000000">Tag : 253</text>
<polyline fill="none" stroke="#000000" points="413,-141 497,-141 "/>
<text text-anchor="middle" x="455" y="-125.8" font-family="Times,serif" font-size="14.00" fill="#000000">9.000000</text>
</g>
<!-- p1&#45;&gt;p5 -->
<g id="edge7" class="edge">
<title>p1:f3&#45;&gt;p5:head</title>
<path fill="none" stroke="#000000" d="M455,-235C455,-207.1424 455,-197.7295 455,-174.1949"/>
<polygon fill="#000000" stroke="#000000" points="458.5001,-174 455,-164 451.5001,-174 458.5001,-174"/>
</g>
</g>
</svg>
