<?xml version="1.0" encoding="UTF-8" standalone="no"?>
<!DOCTYPE svg PUBLIC "-//W3C//DTD SVG 1.1//EN"
 "http://www.w3.org/Graphics/SVG/1.1/DTD/svg11.dtd">
<!-- Generated by graphviz version 2.38.0 (20140413.2041)
 -->
<!-- Title: g Pages: 1 -->
<svg width="870pt" height="442pt"
 viewBox="0.00 0.00 870.00 442.00" xmlns="http://www.w3.org/2000/svg" xmlns:xlink="http://www.w3.org/1999/xlink">
<g id="graph0" class="graph" transform="scale(1 1) rotate(0) translate(4 438)">
<title>g</title>
<polygon fill="white" stroke="none" points="-4,4 -4,-438 866,-438 866,4 -4,4"/>
<!-- entry_0 -->
<g id="node1" class="node"><title>entry_0</title>
<polygon fill="yellow" stroke="black" points="0,-387.5 0,-433.5 320,-433.5 320,-387.5 0,-387.5"/>
<text text-anchor="middle" x="160" y="-418.3" font-family="Times,serif" font-size="14.00">val : foo = { a = 1; b = 42.; c = 2; d = 3; }</text>
<polyline fill="none" stroke="black" points="0,-410.5 320,-410.5 "/>
<text text-anchor="middle" x="160" y="-395.3" font-family="Times,serif" font-size="14.00">.</text>
</g>
<!-- p2 -->
<g id="node4" class="node"><title>p2</title>
<path fill="lightblue" stroke="black" d="M240.5,-83.5C240.5,-83.5 281.5,-83.5 281.5,-83.5 287.5,-83.5 293.5,-89.5 293.5,-95.5 293.5,-95.5 293.5,-186.5 293.5,-186.5 293.5,-192.5 287.5,-198.5 281.5,-198.5 281.5,-198.5 240.5,-198.5 240.5,-198.5 234.5,-198.5 228.5,-192.5 228.5,-186.5 228.5,-186.5 228.5,-95.5 228.5,-95.5 228.5,-89.5 234.5,-83.5 240.5,-83.5"/>
<text text-anchor="middle" x="261" y="-183.3" font-family="Times,serif" font-size="14.00">Tag : 0</text>
<polyline fill="none" stroke="black" points="228.5,-175.5 293.5,-175.5 "/>
<text text-anchor="middle" x="261" y="-160.3" font-family="Times,serif" font-size="14.00">1</text>
<polyline fill="none" stroke="black" points="228.5,-152.5 293.5,-152.5 "/>
<text text-anchor="middle" x="261" y="-137.3" font-family="Times,serif" font-size="14.00">.</text>
<polyline fill="none" stroke="black" points="228.5,-129.5 293.5,-129.5 "/>
<text text-anchor="middle" x="261" y="-114.3" font-family="Times,serif" font-size="14.00">2</text>
<polyline fill="none" stroke="black" points="228.5,-106.5 293.5,-106.5 "/>
<text text-anchor="middle" x="261" y="-91.3" font-family="Times,serif" font-size="14.00">3</text>
</g>
<!-- entry_0&#45;&gt;p2 -->
<g id="edge1" class="edge"><title>entry_0&#45;&gt;p2</title>
<path fill="none" stroke="black" d="M168.437,-387.153C183.146,-348.198 214.013,-266.446 236.057,-208.061"/>
<polygon fill="black" stroke="black" points="239.395,-209.131 239.653,-198.539 232.846,-206.658 239.395,-209.131"/>
</g>
<!-- entry_1 -->
<g id="node2" class="node"><title>entry_1</title>
<polygon fill="yellow" stroke="black" points="590,-387.5 590,-433.5 862,-433.5 862,-387.5 590,-387.5"/>
<text text-anchor="middle" x="726" y="-418.3" font-family="Times,serif" font-size="14.00">val : bar = { e = 5.; f = 7.; g = 8.; }</text>
<polyline fill="none" stroke="black" points="590,-410.5 862,-410.5 "/>
<text text-anchor="middle" x="726" y="-395.3" font-family="Times,serif" font-size="14.00">.</text>
</g>
<!-- p4 -->
<g id="node6" class="node"><title>p4</title>
<path fill="lightblue" stroke="black" d="M611,-95C611,-95 671,-95 671,-95 677,-95 683,-101 683,-107 683,-107 683,-175 683,-175 683,-181 677,-187 671,-187 671,-187 611,-187 611,-187 605,-187 599,-181 599,-175 599,-175 599,-107 599,-107 599,-101 605,-95 611,-95"/>
<text text-anchor="middle" x="641" y="-171.8" font-family="Times,serif" font-size="14.00">Tag : 254</text>
<polyline fill="none" stroke="black" points="599,-164 683,-164 "/>
<text text-anchor="middle" x="641" y="-148.8" font-family="Times,serif" font-size="14.00">5.000000</text>
<polyline fill="none" stroke="black" points="599,-141 683,-141 "/>
<text text-anchor="middle" x="641" y="-125.8" font-family="Times,serif" font-size="14.00">7.000000</text>
<polyline fill="none" stroke="black" points="599,-118 683,-118 "/>
<text text-anchor="middle" x="641" y="-102.8" font-family="Times,serif" font-size="14.00">8.000000</text>
</g>
<!-- entry_1&#45;&gt;p4 -->
<g id="edge3" class="edge"><title>entry_1&#45;&gt;p4</title>
<path fill="none" stroke="black" d="M718.899,-387.153C705.736,-345.726 677.192,-255.899 658.555,-197.246"/>
<polygon fill="black" stroke="black" points="661.789,-195.866 655.425,-187.395 655.118,-197.986 661.789,-195.866"/>
</g>
<!-- entry_2 -->
<g id="node3" class="node"><title>entry_2</title>
<polygon fill="yellow" stroke="black" points="338.5,-387.5 338.5,-433.5 571.5,-433.5 571.5,-387.5 338.5,-387.5"/>
<text text-anchor="middle" x="455" y="-418.3" font-family="Times,serif" font-size="14.00">val : { h = 0; foo; bar; i = 9.; }</text>
<polyline fill="none" stroke="black" points="338.5,-410.5 571.5,-410.5 "/>
<text text-anchor="middle" x="455" y="-395.3" font-family="Times,serif" font-size="14.00">.</text>
</g>
<!-- p1 -->
<g id="node7" class="node"><title>p1</title>
<path fill="lightblue" stroke="black" d="M434.5,-235.5C434.5,-235.5 475.5,-235.5 475.5,-235.5 481.5,-235.5 487.5,-241.5 487.5,-247.5 487.5,-247.5 487.5,-338.5 487.5,-338.5 487.5,-344.5 481.5,-350.5 475.5,-350.5 475.5,-350.5 434.5,-350.5 434.5,-350.5 428.5,-350.5 422.5,-344.5 422.5,-338.5 422.5,-338.5 422.5,-247.5 422.5,-247.5 422.5,-241.5 428.5,-235.5 434.5,-235.5"/>
<text text-anchor="middle" x="455" y="-335.3" font-family="Times,serif" font-size="14.00">Tag : 0</text>
<polyline fill="none" stroke="black" points="422.5,-327.5 487.5,-327.5 "/>
<text text-anchor="middle" x="455" y="-312.3" font-family="Times,serif" font-size="14.00">0</text>
<polyline fill="none" stroke="black" points="422.5,-304.5 487.5,-304.5 "/>
<text text-anchor="middle" x="455" y="-289.3" font-family="Times,serif" font-size="14.00">.</text>
<polyline fill="none" stroke="black" points="422.5,-281.5 487.5,-281.5 "/>
<text text-anchor="middle" x="455" y="-266.3" font-family="Times,serif" font-size="14.00">.</text>
<polyline fill="none" stroke="black" points="422.5,-258.5 487.5,-258.5 "/>
<text text-anchor="middle" x="455" y="-243.3" font-family="Times,serif" font-size="14.00">.</text>
</g>
<!-- entry_2&#45;&gt;p1 -->
<g id="edge4" class="edge"><title>entry_2&#45;&gt;p1</title>
<path fill="none" stroke="black" d="M455,-387.23C455,-379.528 455,-370.451 455,-361.035"/>
<polygon fill="black" stroke="black" points="458.5,-360.735 455,-350.735 451.5,-360.735 458.5,-360.735"/>
</g>
<!-- p3 -->
<g id="node5" class="node"><title>p3</title>
<path fill="lightblue" stroke="black" d="M226.5,-0.5C226.5,-0.5 295.5,-0.5 295.5,-0.5 301.5,-0.5 307.5,-6.5 307.5,-12.5 307.5,-12.5 307.5,-34.5 307.5,-34.5 307.5,-40.5 301.5,-46.5 295.5,-46.5 295.5,-46.5 226.5,-46.5 226.5,-46.5 220.5,-46.5 214.5,-40.5 214.5,-34.5 214.5,-34.5 214.5,-12.5 214.5,-12.5 214.5,-6.5 220.5,-0.5 226.5,-0.5"/>
<text text-anchor="middle" x="261" y="-31.3" font-family="Times,serif" font-size="14.00">Tag : 253</text>
<polyline fill="none" stroke="black" points="214.5,-23.5 307.5,-23.5 "/>
<text text-anchor="middle" x="261" y="-8.3" font-family="Times,serif" font-size="14.00">42.000000</text>
</g>
<!-- p2&#45;&gt;p3 -->
<g id="edge2" class="edge"><title>p2:f1&#45;&gt;p3:head</title>
<path fill="none" stroke="black" d="M295,-141C320.782,-141 303.553,-106.946 294,-83 287.528,-66.7775 270.104,-67.4068 263.544,-56.962"/>
<polygon fill="black" stroke="black" points="266.866,-55.8229 261,-47 260.083,-57.5551 266.866,-55.8229"/>
</g>
<!-- p1&#45;&gt;p2 -->
<g id="edge5" class="edge"><title>p1:f1&#45;&gt;p2:head</title>
<path fill="none" stroke="black" d="M421,-293C351.392,-293 366.416,-197.099 305.073,-187.733"/>
<polygon fill="black" stroke="black" points="305.228,-184.236 295,-187 304.719,-191.217 305.228,-184.236"/>
</g>
<!-- p1&#45;&gt;p4 -->
<g id="edge6" class="edge"><title>p1:f2&#45;&gt;p4:head</title>
<path fill="none" stroke="black" d="M489,-270C549.347,-270 535.909,-186.347 587.898,-176.871"/>
<polygon fill="black" stroke="black" points="588.337,-180.346 598,-176 587.736,-173.372 588.337,-180.346"/>
</g>
<!-- p5 -->
<g id="node8" class="node"><title>p5</title>
<path fill="lightblue" stroke="black" d="M425,-118C425,-118 485,-118 485,-118 491,-118 497,-124 497,-130 497,-130 497,-152 497,-152 497,-158 491,-164 485,-164 485,-164 425,-164 425,-164 419,-164 413,-158 413,-152 413,-152 413,-130 413,-130 413,-124 419,-118 425,-118"/>
<text text-anchor="middle" x="455" y="-148.8" font-family="Times,serif" font-size="14.00">Tag : 253</text>
<polyline fill="none" stroke="black" points="413,-141 497,-141 "/>
<text text-anchor="middle" x="455" y="-125.8" font-family="Times,serif" font-size="14.00">9.000000</text>
</g>
<!-- p1&#45;&gt;p5 -->
<g id="edge7" class="edge"><title>p1:f3&#45;&gt;p5:head</title>
<path fill="none" stroke="black" d="M455,-235C455,-207.535 455,-198.254 455,-175.051"/>
<polygon fill="black" stroke="black" points="458.5,-175 455,-165 451.5,-175 458.5,-175"/>
</g>
</g>
</svg>
