<?xml version="1.0" encoding="UTF-8" standalone="no"?>
<!DOCTYPE svg PUBLIC "-//W3C//DTD SVG 1.1//EN"
 "http://www.w3.org/Graphics/SVG/1.1/DTD/svg11.dtd">
<!-- Generated by graphviz version 2.38.0 (20140413.2041)
 -->
<!-- Title: g Pages: 1 -->
<svg width="625pt" height="350pt"
 viewBox="0.00 0.00 624.50 350.00" xmlns="http://www.w3.org/2000/svg" xmlns:xlink="http://www.w3.org/1999/xlink">
<g id="graph0" class="graph" transform="scale(1 1) rotate(0) translate(4 346)">
<title>g</title>
<polygon fill="white" stroke="none" points="-4,4 -4,-346 620.5,-346 620.5,4 -4,4"/>
<!-- entry_0 -->
<g id="node1" class="node"><title>entry_0</title>
<polygon fill="yellow" stroke="black" points="0,-295.5 0,-341.5 225,-341.5 225,-295.5 0,-295.5"/>
<text text-anchor="middle" x="112.5" y="-326.3" font-family="Times,serif" font-size="14.00">val : foo = { a = 1; b = 42.; }</text>
<polyline fill="none" stroke="black" points="0,-318.5 225,-318.5 "/>
<text text-anchor="middle" x="112.5" y="-303.3" font-family="Times,serif" font-size="14.00">.</text>
</g>
<!-- p2 -->
<g id="node4" class="node"><title>p2</title>
<path fill="lightblue" stroke="black" d="M168,-83.5C168,-83.5 209,-83.5 209,-83.5 215,-83.5 221,-89.5 221,-95.5 221,-95.5 221,-140.5 221,-140.5 221,-146.5 215,-152.5 209,-152.5 209,-152.5 168,-152.5 168,-152.5 162,-152.5 156,-146.5 156,-140.5 156,-140.5 156,-95.5 156,-95.5 156,-89.5 162,-83.5 168,-83.5"/>
<text text-anchor="middle" x="188.5" y="-137.3" font-family="Times,serif" font-size="14.00">Tag : 0</text>
<polyline fill="none" stroke="black" points="156,-129.5 221,-129.5 "/>
<text text-anchor="middle" x="188.5" y="-114.3" font-family="Times,serif" font-size="14.00">1</text>
<polyline fill="none" stroke="black" points="156,-106.5 221,-106.5 "/>
<text text-anchor="middle" x="188.5" y="-91.3" font-family="Times,serif" font-size="14.00">.</text>
</g>
<!-- entry_0&#45;&gt;p2 -->
<g id="edge1" class="edge"><title>entry_0&#45;&gt;p2</title>
<path fill="none" stroke="black" d="M120.924,-295.499C133.196,-263.445 156.239,-203.261 171.972,-162.169"/>
<polygon fill="black" stroke="black" points="175.299,-163.268 175.606,-152.678 168.761,-160.766 175.299,-163.268"/>
</g>
<!-- entry_1 -->
<g id="node2" class="node"><title>entry_1</title>
<polygon fill="yellow" stroke="black" points="398.5,-295.5 398.5,-341.5 616.5,-341.5 616.5,-295.5 398.5,-295.5"/>
<text text-anchor="middle" x="507.5" y="-326.3" font-family="Times,serif" font-size="14.00">val : bar = { c = 5.; b = 7. }</text>
<polyline fill="none" stroke="black" points="398.5,-318.5 616.5,-318.5 "/>
<text text-anchor="middle" x="507.5" y="-303.3" font-family="Times,serif" font-size="14.00">.</text>
</g>
<!-- p4 -->
<g id="node6" class="node"><title>p4</title>
<path fill="lightblue" stroke="black" d="M327.5,-83.5C327.5,-83.5 387.5,-83.5 387.5,-83.5 393.5,-83.5 399.5,-89.5 399.5,-95.5 399.5,-95.5 399.5,-140.5 399.5,-140.5 399.5,-146.5 393.5,-152.5 387.5,-152.5 387.5,-152.5 327.5,-152.5 327.5,-152.5 321.5,-152.5 315.5,-146.5 315.5,-140.5 315.5,-140.5 315.5,-95.5 315.5,-95.5 315.5,-89.5 321.5,-83.5 327.5,-83.5"/>
<text text-anchor="middle" x="357.5" y="-137.3" font-family="Times,serif" font-size="14.00">Tag : 254</text>
<polyline fill="none" stroke="black" points="315.5,-129.5 399.5,-129.5 "/>
<text text-anchor="middle" x="357.5" y="-114.3" font-family="Times,serif" font-size="14.00">5.000000</text>
<polyline fill="none" stroke="black" points="315.5,-106.5 399.5,-106.5 "/>
<text text-anchor="middle" x="357.5" y="-91.3" font-family="Times,serif" font-size="14.00">7.000000</text>
</g>
<!-- entry_1&#45;&gt;p4 -->
<g id="edge3" class="edge"><title>entry_1&#45;&gt;p4</title>
<path fill="none" stroke="black" d="M490.874,-295.499C466.397,-263.107 420.211,-201.988 389.143,-160.875"/>
<polygon fill="black" stroke="black" points="391.771,-158.546 382.949,-152.678 386.186,-162.766 391.771,-158.546"/>
</g>
<!-- entry_2 -->
<g id="node3" class="node"><title>entry_2</title>
<polygon fill="yellow" stroke="black" points="243,-295.5 243,-341.5 380,-341.5 380,-295.5 243,-295.5"/>
<text text-anchor="middle" x="311.5" y="-326.3" font-family="Times,serif" font-size="14.00">val : { foo; bar; }</text>
<polyline fill="none" stroke="black" points="243,-318.5 380,-318.5 "/>
<text text-anchor="middle" x="311.5" y="-303.3" font-family="Times,serif" font-size="14.00">.</text>
</g>
<!-- p1 -->
<g id="node7" class="node"><title>p1</title>
<path fill="lightblue" stroke="black" d="M291,-189.5C291,-189.5 332,-189.5 332,-189.5 338,-189.5 344,-195.5 344,-201.5 344,-201.5 344,-246.5 344,-246.5 344,-252.5 338,-258.5 332,-258.5 332,-258.5 291,-258.5 291,-258.5 285,-258.5 279,-252.5 279,-246.5 279,-246.5 279,-201.5 279,-201.5 279,-195.5 285,-189.5 291,-189.5"/>
<text text-anchor="middle" x="311.5" y="-243.3" font-family="Times,serif" font-size="14.00">Tag : 0</text>
<polyline fill="none" stroke="black" points="279,-235.5 344,-235.5 "/>
<text text-anchor="middle" x="311.5" y="-220.3" font-family="Times,serif" font-size="14.00">.</text>
<polyline fill="none" stroke="black" points="279,-212.5 344,-212.5 "/>
<text text-anchor="middle" x="311.5" y="-197.3" font-family="Times,serif" font-size="14.00">.</text>
</g>
<!-- entry_2&#45;&gt;p1 -->
<g id="edge4" class="edge"><title>entry_2&#45;&gt;p1</title>
<path fill="none" stroke="black" d="M311.5,-295.108C311.5,-287.183 311.5,-277.971 311.5,-268.882"/>
<polygon fill="black" stroke="black" points="315,-268.746 311.5,-258.746 308,-268.746 315,-268.746"/>
</g>
<!-- p3 -->
<g id="node5" class="node"><title>p3</title>
<path fill="lightblue" stroke="black" d="M154,-0.5C154,-0.5 223,-0.5 223,-0.5 229,-0.5 235,-6.5 235,-12.5 235,-12.5 235,-34.5 235,-34.5 235,-40.5 229,-46.5 223,-46.5 223,-46.5 154,-46.5 154,-46.5 148,-46.5 142,-40.5 142,-34.5 142,-34.5 142,-12.5 142,-12.5 142,-6.5 148,-0.5 154,-0.5"/>
<text text-anchor="middle" x="188.5" y="-31.3" font-family="Times,serif" font-size="14.00">Tag : 253</text>
<polyline fill="none" stroke="black" points="142,-23.5 235,-23.5 "/>
<text text-anchor="middle" x="188.5" y="-8.3" font-family="Times,serif" font-size="14.00">42.000000</text>
</g>
<!-- p2&#45;&gt;p3 -->
<g id="edge2" class="edge"><title>p2:f1&#45;&gt;p3:head</title>
<path fill="none" stroke="black" d="M188.5,-83C188.5,-71 188.5,-65.75 188.5,-57.125"/>
<polygon fill="black" stroke="black" points="192,-57 188.5,-47 185,-57 192,-57"/>
</g>
<!-- p1&#45;&gt;p2 -->
<g id="edge5" class="edge"><title>p1:f0&#45;&gt;p2:head</title>
<path fill="none" stroke="black" d="M277.5,-224C237.223,-224 261.36,-155.244 232.657,-142.89"/>
<polygon fill="black" stroke="black" points="232.971,-139.388 222.5,-141 231.691,-146.27 232.971,-139.388"/>
</g>
<!-- p1&#45;&gt;p4 -->
<g id="edge6" class="edge"><title>p1:f1&#45;&gt;p4:head</title>
<path fill="none" stroke="black" d="M345.5,-201C368.012,-201 322.435,-167.25 310.902,-150.375"/>
<polygon fill="black" stroke="black" points="314.184,-151.59 314.5,-141 307.649,-149.082 314.184,-151.59"/>
</g>
</g>
</svg>
