<?xml version="1.0" encoding="UTF-8" standalone="no"?>
<!DOCTYPE svg PUBLIC "-//W3C//DTD SVG 1.1//EN"
 "http://www.w3.org/Graphics/SVG/1.1/DTD/svg11.dtd">
<!-- Generated by graphviz version 2.38.0 (20140413.2041)
 -->
<!-- Title: g Pages: 1 -->
<svg width="1268pt" height="456pt"
 viewBox="0.00 0.00 1268.00 456.00" xmlns="http://www.w3.org/2000/svg" xmlns:xlink="http://www.w3.org/1999/xlink">
<g id="graph0" class="graph" transform="scale(1 1) rotate(0) translate(4 452)">
<title>g</title>
<polygon fill="white" stroke="none" points="-4,4 -4,-452 1264,-452 1264,4 -4,4"/>
<!-- entry_0 -->
<g id="node1" class="node"><title>entry_0</title>
<polygon fill="yellow" stroke="black" points="0,-401.5 0,-447.5 118,-447.5 118,-401.5 0,-401.5"/>
<text text-anchor="middle" x="59" y="-432.3" font-family="Times,serif" font-size="14.00">val : a = A 1,2</text>
<polyline fill="none" stroke="black" points="0,-424.5 118,-424.5 "/>
<text text-anchor="middle" x="59" y="-409.3" font-family="Times,serif" font-size="14.00">.</text>
</g>
<!-- p10 -->
<g id="node11" class="node"><title>p10</title>
<path fill="lightblue" stroke="black" d="M102.5,-189.5C102.5,-189.5 143.5,-189.5 143.5,-189.5 149.5,-189.5 155.5,-195.5 155.5,-201.5 155.5,-201.5 155.5,-246.5 155.5,-246.5 155.5,-252.5 149.5,-258.5 143.5,-258.5 143.5,-258.5 102.5,-258.5 102.5,-258.5 96.5,-258.5 90.5,-252.5 90.5,-246.5 90.5,-246.5 90.5,-201.5 90.5,-201.5 90.5,-195.5 96.5,-189.5 102.5,-189.5"/>
<text text-anchor="middle" x="123" y="-243.3" font-family="Times,serif" font-size="14.00">Tag : 0</text>
<polyline fill="none" stroke="black" points="90.5,-235.5 155.5,-235.5 "/>
<text text-anchor="middle" x="123" y="-220.3" font-family="Times,serif" font-size="14.00">1</text>
<polyline fill="none" stroke="black" points="90.5,-212.5 155.5,-212.5 "/>
<text text-anchor="middle" x="123" y="-197.3" font-family="Times,serif" font-size="14.00">2</text>
</g>
<!-- entry_0&#45;&gt;p10 -->
<g id="edge1" class="edge"><title>entry_0&#45;&gt;p10</title>
<path fill="none" stroke="black" d="M66.0937,-401.499C76.4064,-369.513 95.7509,-309.515 108.998,-268.429"/>
<polygon fill="black" stroke="black" points="112.404,-269.27 112.142,-258.678 105.742,-267.122 112.404,-269.27"/>
</g>
<!-- entry_1 -->
<g id="node2" class="node"><title>entry_1</title>
<polygon fill="yellow" stroke="black" points="254.5,-401.5 254.5,-447.5 379.5,-447.5 379.5,-401.5 254.5,-401.5"/>
<text text-anchor="middle" x="317" y="-432.3" font-family="Times,serif" font-size="14.00">val : b = B(3,4)</text>
<polyline fill="none" stroke="black" points="254.5,-424.5 379.5,-424.5 "/>
<text text-anchor="middle" x="317" y="-409.3" font-family="Times,serif" font-size="14.00">.</text>
</g>
<!-- p3 -->
<g id="node12" class="node"><title>p3</title>
<path fill="lightblue" stroke="black" d="M345.5,-106.5C345.5,-106.5 386.5,-106.5 386.5,-106.5 392.5,-106.5 398.5,-112.5 398.5,-118.5 398.5,-118.5 398.5,-140.5 398.5,-140.5 398.5,-146.5 392.5,-152.5 386.5,-152.5 386.5,-152.5 345.5,-152.5 345.5,-152.5 339.5,-152.5 333.5,-146.5 333.5,-140.5 333.5,-140.5 333.5,-118.5 333.5,-118.5 333.5,-112.5 339.5,-106.5 345.5,-106.5"/>
<text text-anchor="middle" x="366" y="-137.3" font-family="Times,serif" font-size="14.00">Tag : 1</text>
<polyline fill="none" stroke="black" points="333.5,-129.5 398.5,-129.5 "/>
<text text-anchor="middle" x="366" y="-114.3" font-family="Times,serif" font-size="14.00">.</text>
</g>
<!-- entry_1&#45;&gt;p3 -->
<g id="edge2" class="edge"><title>entry_1&#45;&gt;p3</title>
<path fill="none" stroke="black" d="M320.683,-401.477C329.249,-350.253 350.546,-222.911 360.592,-162.84"/>
<polygon fill="black" stroke="black" points="364.077,-163.219 362.274,-152.778 357.173,-162.064 364.077,-163.219"/>
</g>
<!-- entry_2 -->
<g id="node3" class="node"><title>entry_2</title>
<polygon fill="yellow" stroke="black" points="546.5,-401.5 546.5,-447.5 665.5,-447.5 665.5,-401.5 546.5,-401.5"/>
<text text-anchor="middle" x="606" y="-432.3" font-family="Times,serif" font-size="14.00">val : c = C 0.0</text>
<polyline fill="none" stroke="black" points="546.5,-424.5 665.5,-424.5 "/>
<text text-anchor="middle" x="606" y="-409.3" font-family="Times,serif" font-size="14.00">.</text>
</g>
<!-- p5 -->
<g id="node14" class="node"><title>p5</title>
<path fill="lightblue" stroke="black" d="M490.5,-106.5C490.5,-106.5 531.5,-106.5 531.5,-106.5 537.5,-106.5 543.5,-112.5 543.5,-118.5 543.5,-118.5 543.5,-140.5 543.5,-140.5 543.5,-146.5 537.5,-152.5 531.5,-152.5 531.5,-152.5 490.5,-152.5 490.5,-152.5 484.5,-152.5 478.5,-146.5 478.5,-140.5 478.5,-140.5 478.5,-118.5 478.5,-118.5 478.5,-112.5 484.5,-106.5 490.5,-106.5"/>
<text text-anchor="middle" x="511" y="-137.3" font-family="Times,serif" font-size="14.00">Tag : 2</text>
<polyline fill="none" stroke="black" points="478.5,-129.5 543.5,-129.5 "/>
<text text-anchor="middle" x="511" y="-114.3" font-family="Times,serif" font-size="14.00">.</text>
</g>
<!-- entry_2&#45;&gt;p5 -->
<g id="edge4" class="edge"><title>entry_2&#45;&gt;p5</title>
<path fill="none" stroke="black" d="M598.86,-401.477C582.217,-350.147 540.792,-222.383 521.365,-162.468"/>
<polygon fill="black" stroke="black" points="524.637,-161.211 518.223,-152.778 517.978,-163.37 524.637,-161.211"/>
</g>
<!-- entry_3 -->
<g id="node4" class="node"><title>entry_3</title>
<polygon fill="yellow" stroke="black" points="684,-401.5 684,-447.5 776,-447.5 776,-401.5 684,-401.5"/>
<text text-anchor="middle" x="730" y="-432.3" font-family="Times,serif" font-size="14.00">val : d = D</text>
<polyline fill="none" stroke="black" points="684,-424.5 776,-424.5 "/>
<text text-anchor="middle" x="730" y="-409.3" font-family="Times,serif" font-size="14.00">0</text>
</g>
<!-- entry_4 -->
<g id="node5" class="node"><title>entry_4</title>
<polygon fill="yellow" stroke="black" points="794.5,-401.5 794.5,-447.5 885.5,-447.5 885.5,-401.5 794.5,-401.5"/>
<text text-anchor="middle" x="840" y="-432.3" font-family="Times,serif" font-size="14.00">val : e = E</text>
<polyline fill="none" stroke="black" points="794.5,-424.5 885.5,-424.5 "/>
<text text-anchor="middle" x="840" y="-409.3" font-family="Times,serif" font-size="14.00">1</text>
</g>
<!-- entry_5 -->
<g id="node6" class="node"><title>entry_5</title>
<polygon fill="yellow" stroke="black" points="136,-401.5 136,-447.5 236,-447.5 236,-401.5 136,-401.5"/>
<text text-anchor="middle" x="186" y="-432.3" font-family="Times,serif" font-size="14.00">val : f = F a</text>
<polyline fill="none" stroke="black" points="136,-424.5 236,-424.5 "/>
<text text-anchor="middle" x="186" y="-409.3" font-family="Times,serif" font-size="14.00">.</text>
</g>
<!-- p9 -->
<g id="node16" class="node"><title>p9</title>
<path fill="lightblue" stroke="black" d="M132.5,-307C132.5,-307 173.5,-307 173.5,-307 179.5,-307 185.5,-313 185.5,-319 185.5,-319 185.5,-341 185.5,-341 185.5,-347 179.5,-353 173.5,-353 173.5,-353 132.5,-353 132.5,-353 126.5,-353 120.5,-347 120.5,-341 120.5,-341 120.5,-319 120.5,-319 120.5,-313 126.5,-307 132.5,-307"/>
<text text-anchor="middle" x="153" y="-337.8" font-family="Times,serif" font-size="14.00">Tag : 3</text>
<polyline fill="none" stroke="black" points="120.5,-330 185.5,-330 "/>
<text text-anchor="middle" x="153" y="-314.8" font-family="Times,serif" font-size="14.00">.</text>
</g>
<!-- entry_5&#45;&gt;p9 -->
<g id="edge6" class="edge"><title>entry_5&#45;&gt;p9</title>
<path fill="none" stroke="black" d="M178.012,-401.108C173.918,-389.633 168.861,-375.459 164.368,-362.865"/>
<polygon fill="black" stroke="black" points="167.572,-361.428 160.915,-353.185 160.979,-363.78 167.572,-361.428"/>
</g>
<!-- entry_6 -->
<g id="node7" class="node"><title>entry_6</title>
<polygon fill="yellow" stroke="black" points="904,-401.5 904,-447.5 1004,-447.5 1004,-401.5 904,-401.5"/>
<text text-anchor="middle" x="954" y="-432.3" font-family="Times,serif" font-size="14.00">val : g = `G</text>
<polyline fill="none" stroke="black" points="904,-424.5 1004,-424.5 "/>
<text text-anchor="middle" x="954" y="-409.3" font-family="Times,serif" font-size="14.00">71</text>
</g>
<!-- entry_7 -->
<g id="node8" class="node"><title>entry_7</title>
<polygon fill="yellow" stroke="black" points="1022.5,-401.5 1022.5,-447.5 1137.5,-447.5 1137.5,-401.5 1022.5,-401.5"/>
<text text-anchor="middle" x="1080" y="-432.3" font-family="Times,serif" font-size="14.00">val : h = `H 5</text>
<polyline fill="none" stroke="black" points="1022.5,-424.5 1137.5,-424.5 "/>
<text text-anchor="middle" x="1080" y="-409.3" font-family="Times,serif" font-size="14.00">.</text>
</g>
<!-- p8 -->
<g id="node17" class="node"><title>p8</title>
<path fill="lightblue" stroke="black" d="M1059.5,-295.5C1059.5,-295.5 1100.5,-295.5 1100.5,-295.5 1106.5,-295.5 1112.5,-301.5 1112.5,-307.5 1112.5,-307.5 1112.5,-352.5 1112.5,-352.5 1112.5,-358.5 1106.5,-364.5 1100.5,-364.5 1100.5,-364.5 1059.5,-364.5 1059.5,-364.5 1053.5,-364.5 1047.5,-358.5 1047.5,-352.5 1047.5,-352.5 1047.5,-307.5 1047.5,-307.5 1047.5,-301.5 1053.5,-295.5 1059.5,-295.5"/>
<text text-anchor="middle" x="1080" y="-349.3" font-family="Times,serif" font-size="14.00">Tag : 0</text>
<polyline fill="none" stroke="black" points="1047.5,-341.5 1112.5,-341.5 "/>
<text text-anchor="middle" x="1080" y="-326.3" font-family="Times,serif" font-size="14.00">72</text>
<polyline fill="none" stroke="black" points="1047.5,-318.5 1112.5,-318.5 "/>
<text text-anchor="middle" x="1080" y="-303.3" font-family="Times,serif" font-size="14.00">5</text>
</g>
<!-- entry_7&#45;&gt;p8 -->
<g id="edge8" class="edge"><title>entry_7&#45;&gt;p8</title>
<path fill="none" stroke="black" d="M1080,-401.108C1080,-393.183 1080,-383.971 1080,-374.882"/>
<polygon fill="black" stroke="black" points="1083.5,-374.746 1080,-364.746 1076.5,-374.746 1083.5,-374.746"/>
</g>
<!-- entry_8 -->
<g id="node9" class="node"><title>entry_8</title>
<polygon fill="yellow" stroke="black" points="1156,-401.5 1156,-447.5 1260,-447.5 1260,-401.5 1156,-401.5"/>
<text text-anchor="middle" x="1208" y="-432.3" font-family="Times,serif" font-size="14.00">val : i = `I d</text>
<polyline fill="none" stroke="black" points="1156,-424.5 1260,-424.5 "/>
<text text-anchor="middle" x="1208" y="-409.3" font-family="Times,serif" font-size="14.00">.</text>
</g>
<!-- p7 -->
<g id="node18" class="node"><title>p7</title>
<path fill="lightblue" stroke="black" d="M1187.5,-295.5C1187.5,-295.5 1228.5,-295.5 1228.5,-295.5 1234.5,-295.5 1240.5,-301.5 1240.5,-307.5 1240.5,-307.5 1240.5,-352.5 1240.5,-352.5 1240.5,-358.5 1234.5,-364.5 1228.5,-364.5 1228.5,-364.5 1187.5,-364.5 1187.5,-364.5 1181.5,-364.5 1175.5,-358.5 1175.5,-352.5 1175.5,-352.5 1175.5,-307.5 1175.5,-307.5 1175.5,-301.5 1181.5,-295.5 1187.5,-295.5"/>
<text text-anchor="middle" x="1208" y="-349.3" font-family="Times,serif" font-size="14.00">Tag : 0</text>
<polyline fill="none" stroke="black" points="1175.5,-341.5 1240.5,-341.5 "/>
<text text-anchor="middle" x="1208" y="-326.3" font-family="Times,serif" font-size="14.00">73</text>
<polyline fill="none" stroke="black" points="1175.5,-318.5 1240.5,-318.5 "/>
<text text-anchor="middle" x="1208" y="-303.3" font-family="Times,serif" font-size="14.00">0</text>
</g>
<!-- entry_8&#45;&gt;p7 -->
<g id="edge9" class="edge"><title>entry_8&#45;&gt;p7</title>
<path fill="none" stroke="black" d="M1208,-401.108C1208,-393.183 1208,-383.971 1208,-374.882"/>
<polygon fill="black" stroke="black" points="1211.5,-374.746 1208,-364.746 1204.5,-374.746 1211.5,-374.746"/>
</g>
<!-- entry_9 -->
<g id="node10" class="node"><title>entry_9</title>
<polygon fill="yellow" stroke="black" points="397.5,-401.5 397.5,-447.5 528.5,-447.5 528.5,-401.5 397.5,-401.5"/>
<text text-anchor="middle" x="463" y="-432.3" font-family="Times,serif" font-size="14.00">val : j = `J (b, c)</text>
<polyline fill="none" stroke="black" points="397.5,-424.5 528.5,-424.5 "/>
<text text-anchor="middle" x="463" y="-409.3" font-family="Times,serif" font-size="14.00">.</text>
</g>
<!-- p1 -->
<g id="node19" class="node"><title>p1</title>
<path fill="lightblue" stroke="black" d="M442.5,-295.5C442.5,-295.5 483.5,-295.5 483.5,-295.5 489.5,-295.5 495.5,-301.5 495.5,-307.5 495.5,-307.5 495.5,-352.5 495.5,-352.5 495.5,-358.5 489.5,-364.5 483.5,-364.5 483.5,-364.5 442.5,-364.5 442.5,-364.5 436.5,-364.5 430.5,-358.5 430.5,-352.5 430.5,-352.5 430.5,-307.5 430.5,-307.5 430.5,-301.5 436.5,-295.5 442.5,-295.5"/>
<text text-anchor="middle" x="463" y="-349.3" font-family="Times,serif" font-size="14.00">Tag : 0</text>
<polyline fill="none" stroke="black" points="430.5,-341.5 495.5,-341.5 "/>
<text text-anchor="middle" x="463" y="-326.3" font-family="Times,serif" font-size="14.00">74</text>
<polyline fill="none" stroke="black" points="430.5,-318.5 495.5,-318.5 "/>
<text text-anchor="middle" x="463" y="-303.3" font-family="Times,serif" font-size="14.00">.</text>
</g>
<!-- entry_9&#45;&gt;p1 -->
<g id="edge10" class="edge"><title>entry_9&#45;&gt;p1</title>
<path fill="none" stroke="black" d="M463,-401.108C463,-393.183 463,-383.971 463,-374.882"/>
<polygon fill="black" stroke="black" points="466.5,-374.746 463,-364.746 459.5,-374.746 466.5,-374.746"/>
</g>
<!-- p4 -->
<g id="node13" class="node"><title>p4</title>
<path fill="lightblue" stroke="black" d="M345.5,-0.5C345.5,-0.5 386.5,-0.5 386.5,-0.5 392.5,-0.5 398.5,-6.5 398.5,-12.5 398.5,-12.5 398.5,-57.5 398.5,-57.5 398.5,-63.5 392.5,-69.5 386.5,-69.5 386.5,-69.5 345.5,-69.5 345.5,-69.5 339.5,-69.5 333.5,-63.5 333.5,-57.5 333.5,-57.5 333.5,-12.5 333.5,-12.5 333.5,-6.5 339.5,-0.5 345.5,-0.5"/>
<text text-anchor="middle" x="366" y="-54.3" font-family="Times,serif" font-size="14.00">Tag : 0</text>
<polyline fill="none" stroke="black" points="333.5,-46.5 398.5,-46.5 "/>
<text text-anchor="middle" x="366" y="-31.3" font-family="Times,serif" font-size="14.00">3</text>
<polyline fill="none" stroke="black" points="333.5,-23.5 398.5,-23.5 "/>
<text text-anchor="middle" x="366" y="-8.3" font-family="Times,serif" font-size="14.00">4</text>
</g>
<!-- p3&#45;&gt;p4 -->
<g id="edge3" class="edge"><title>p3:f0&#45;&gt;p4:head</title>
<path fill="none" stroke="black" d="M366,-106C366,-94 366,-88.75 366,-80.125"/>
<polygon fill="black" stroke="black" points="369.5,-80 366,-70 362.5,-80 369.5,-80"/>
</g>
<!-- p6 -->
<g id="node15" class="node"><title>p6</title>
<path fill="lightblue" stroke="black" d="M476.5,-12C476.5,-12 545.5,-12 545.5,-12 551.5,-12 557.5,-18 557.5,-24 557.5,-24 557.5,-46 557.5,-46 557.5,-52 551.5,-58 545.5,-58 545.5,-58 476.5,-58 476.5,-58 470.5,-58 464.5,-52 464.5,-46 464.5,-46 464.5,-24 464.5,-24 464.5,-18 470.5,-12 476.5,-12"/>
<text text-anchor="middle" x="511" y="-42.8" font-family="Times,serif" font-size="14.00">Tag : 253</text>
<polyline fill="none" stroke="black" points="464.5,-35 557.5,-35 "/>
<text text-anchor="middle" x="511" y="-19.8" font-family="Times,serif" font-size="14.00">42.000000</text>
</g>
<!-- p5&#45;&gt;p6 -->
<g id="edge5" class="edge"><title>p5:f0&#45;&gt;p6:head</title>
<path fill="none" stroke="black" d="M511,-106C511,-89.0278 511,-82.398 511,-69.3042"/>
<polygon fill="black" stroke="black" points="514.5,-69 511,-59 507.5,-69 514.5,-69"/>
</g>
<!-- p9&#45;&gt;p10 -->
<g id="edge7" class="edge"><title>p9:f0&#45;&gt;p10:head</title>
<path fill="none" stroke="black" d="M153,-306C153,-285.091 131.643,-283.648 124.968,-268.822"/>
<polygon fill="black" stroke="black" points="128.397,-268.117 123,-259 121.533,-269.493 128.397,-268.117"/>
</g>
<!-- p2 -->
<g id="node20" class="node"><title>p2</title>
<path fill="lightblue" stroke="black" d="M442.5,-189.5C442.5,-189.5 483.5,-189.5 483.5,-189.5 489.5,-189.5 495.5,-195.5 495.5,-201.5 495.5,-201.5 495.5,-246.5 495.5,-246.5 495.5,-252.5 489.5,-258.5 483.5,-258.5 483.5,-258.5 442.5,-258.5 442.5,-258.5 436.5,-258.5 430.5,-252.5 430.5,-246.5 430.5,-246.5 430.5,-201.5 430.5,-201.5 430.5,-195.5 436.5,-189.5 442.5,-189.5"/>
<text text-anchor="middle" x="463" y="-243.3" font-family="Times,serif" font-size="14.00">Tag : 0</text>
<polyline fill="none" stroke="black" points="430.5,-235.5 495.5,-235.5 "/>
<text text-anchor="middle" x="463" y="-220.3" font-family="Times,serif" font-size="14.00">.</text>
<polyline fill="none" stroke="black" points="430.5,-212.5 495.5,-212.5 "/>
<text text-anchor="middle" x="463" y="-197.3" font-family="Times,serif" font-size="14.00">.</text>
</g>
<!-- p1&#45;&gt;p2 -->
<g id="edge11" class="edge"><title>p1:f1&#45;&gt;p2:head</title>
<path fill="none" stroke="black" d="M463,-295C463,-283 463,-277.75 463,-269.125"/>
<polygon fill="black" stroke="black" points="466.5,-269 463,-259 459.5,-269 466.5,-269"/>
</g>
<!-- p2&#45;&gt;p3 -->
<g id="edge12" class="edge"><title>p2:f0&#45;&gt;p3:head</title>
<path fill="none" stroke="black" d="M429,-224C394.385,-224 429.254,-158.56 409.838,-144.245"/>
<polygon fill="black" stroke="black" points="410.573,-140.816 400,-141.5 408.692,-147.559 410.573,-140.816"/>
</g>
<!-- p2&#45;&gt;p5 -->
<g id="edge13" class="edge"><title>p2:f1&#45;&gt;p5:head</title>
<path fill="none" stroke="black" d="M497,-201C518.142,-201 479.733,-166.83 472.031,-150.279"/>
<polygon fill="black" stroke="black" points="475.12,-151.927 477,-141.5 469.028,-148.479 475.12,-151.927"/>
</g>
</g>
</svg>
