<?xml version="1.0" encoding="UTF-8" standalone="no"?>
<!DOCTYPE svg PUBLIC "-//W3C//DTD SVG 1.1//EN"
 "http://www.w3.org/Graphics/SVG/1.1/DTD/svg11.dtd">
<!-- Generated by graphviz version 2.40.1 (20161225.0304)
 -->
<!-- Title: g Pages: 1 -->
<svg width="1302pt" height="456pt"
 viewBox="0.00 0.00 1302.00 456.00" xmlns="http://www.w3.org/2000/svg" xmlns:xlink="http://www.w3.org/1999/xlink">
<g id="graph0" class="graph" transform="scale(1 1) rotate(0) translate(4 452)">
<title>g</title>
<polygon fill="#ffffff" stroke="transparent" points="-4,4 -4,-452 1298,-452 1298,4 -4,4"/>
<!-- entry_0 -->
<g id="node1" class="node">
<title>entry_0</title>
<polygon fill="#ffff00" stroke="#000000" points="0,-401.5 0,-447.5 128,-447.5 128,-401.5 0,-401.5"/>
<text text-anchor="middle" x="64" y="-432.3" font-family="Times,serif" font-size="14.00" fill="#000000">val : a = A (1,2)</text>
<polyline fill="none" stroke="#000000" points="0,-424.5 128,-424.5 "/>
<text text-anchor="middle" x="64" y="-409.3" font-family="Times,serif" font-size="14.00" fill="#000000">.</text>
</g>
<!-- p10 -->
<g id="node11" class="node">
<title>p10</title>
<path fill="#add8e6" stroke="#000000" d="M92.5,-189.5C92.5,-189.5 133.5,-189.5 133.5,-189.5 139.5,-189.5 145.5,-195.5 145.5,-201.5 145.5,-201.5 145.5,-246.5 145.5,-246.5 145.5,-252.5 139.5,-258.5 133.5,-258.5 133.5,-258.5 92.5,-258.5 92.5,-258.5 86.5,-258.5 80.5,-252.5 80.5,-246.5 80.5,-246.5 80.5,-201.5 80.5,-201.5 80.5,-195.5 86.5,-189.5 92.5,-189.5"/>
<text text-anchor="middle" x="113" y="-243.3" font-family="Times,serif" font-size="14.00" fill="#000000">Tag : 0</text>
<polyline fill="none" stroke="#000000" points="80.5,-235.5 145.5,-235.5 "/>
<text text-anchor="middle" x="113" y="-220.3" font-family="Times,serif" font-size="14.00" fill="#000000">1</text>
<polyline fill="none" stroke="#000000" points="80.5,-212.5 145.5,-212.5 "/>
<text text-anchor="middle" x="113" y="-197.3" font-family="Times,serif" font-size="14.00" fill="#000000">2</text>
</g>
<!-- entry_0&#45;&gt;p10 -->
<g id="edge1" class="edge">
<title>entry_0&#45;&gt;p10</title>
<path fill="none" stroke="#000000" d="M69.7168,-401.1077C77.6465,-368.661 92.1367,-309.3693 102.1536,-268.3819"/>
<polygon fill="#000000" stroke="#000000" points="105.5597,-269.187 104.5339,-258.642 98.7598,-267.5251 105.5597,-269.187"/>
</g>
<!-- entry_1 -->
<g id="node2" class="node">
<title>entry_1</title>
<polygon fill="#ffff00" stroke="#000000" points="264,-401.5 264,-447.5 404,-447.5 404,-401.5 264,-401.5"/>
<text text-anchor="middle" x="334" y="-432.3" font-family="Times,serif" font-size="14.00" fill="#000000">val : b = B ((3,4))</text>
<polyline fill="none" stroke="#000000" points="264,-424.5 404,-424.5 "/>
<text text-anchor="middle" x="334" y="-409.3" font-family="Times,serif" font-size="14.00" fill="#000000">.</text>
</g>
<!-- p3 -->
<g id="node12" class="node">
<title>p3</title>
<path fill="#add8e6" stroke="#000000" d="M404.5,-106.5C404.5,-106.5 445.5,-106.5 445.5,-106.5 451.5,-106.5 457.5,-112.5 457.5,-118.5 457.5,-118.5 457.5,-140.5 457.5,-140.5 457.5,-146.5 451.5,-152.5 445.5,-152.5 445.5,-152.5 404.5,-152.5 404.5,-152.5 398.5,-152.5 392.5,-146.5 392.5,-140.5 392.5,-140.5 392.5,-118.5 392.5,-118.5 392.5,-112.5 398.5,-106.5 404.5,-106.5"/>
<text text-anchor="middle" x="425" y="-137.3" font-family="Times,serif" font-size="14.00" fill="#000000">Tag : 1</text>
<polyline fill="none" stroke="#000000" points="392.5,-129.5 457.5,-129.5 "/>
<text text-anchor="middle" x="425" y="-114.3" font-family="Times,serif" font-size="14.00" fill="#000000">.</text>
</g>
<!-- entry_1&#45;&gt;p3 -->
<g id="edge2" class="edge">
<title>entry_1&#45;&gt;p3</title>
<path fill="none" stroke="#000000" d="M341.1406,-401.3518C357.2214,-349.2218 396.3148,-222.4905 414.8842,-162.2928"/>
<polygon fill="#000000" stroke="#000000" points="418.2893,-163.128 417.8926,-152.5406 411.6003,-161.0646 418.2893,-163.128"/>
</g>
<!-- entry_2 -->
<g id="node3" class="node">
<title>entry_2</title>
<polygon fill="#ffff00" stroke="#000000" points="572,-401.5 572,-447.5 700,-447.5 700,-401.5 572,-401.5"/>
<text text-anchor="middle" x="636" y="-432.3" font-family="Times,serif" font-size="14.00" fill="#000000">val : c = C 42.0</text>
<polyline fill="none" stroke="#000000" points="572,-424.5 700,-424.5 "/>
<text text-anchor="middle" x="636" y="-409.3" font-family="Times,serif" font-size="14.00" fill="#000000">.</text>
</g>
<!-- p5 -->
<g id="node14" class="node">
<title>p5</title>
<path fill="#add8e6" stroke="#000000" d="M529.5,-106.5C529.5,-106.5 570.5,-106.5 570.5,-106.5 576.5,-106.5 582.5,-112.5 582.5,-118.5 582.5,-118.5 582.5,-140.5 582.5,-140.5 582.5,-146.5 576.5,-152.5 570.5,-152.5 570.5,-152.5 529.5,-152.5 529.5,-152.5 523.5,-152.5 517.5,-146.5 517.5,-140.5 517.5,-140.5 517.5,-118.5 517.5,-118.5 517.5,-112.5 523.5,-106.5 529.5,-106.5"/>
<text text-anchor="middle" x="550" y="-137.3" font-family="Times,serif" font-size="14.00" fill="#000000">Tag : 2</text>
<polyline fill="none" stroke="#000000" points="517.5,-129.5 582.5,-129.5 "/>
<text text-anchor="middle" x="550" y="-114.3" font-family="Times,serif" font-size="14.00" fill="#000000">.</text>
</g>
<!-- entry_2&#45;&gt;p5 -->
<g id="edge4" class="edge">
<title>entry_2&#45;&gt;p5</title>
<path fill="none" stroke="#000000" d="M629.2517,-401.3518C614.0545,-349.2218 577.1091,-222.4905 559.5599,-162.2928"/>
<polygon fill="#000000" stroke="#000000" points="562.8759,-161.1614 556.7169,-152.5406 556.1556,-163.1206 562.8759,-161.1614"/>
</g>
<!-- entry_3 -->
<g id="node4" class="node">
<title>entry_3</title>
<polygon fill="#ffff00" stroke="#000000" points="718,-401.5 718,-447.5 810,-447.5 810,-401.5 718,-401.5"/>
<text text-anchor="middle" x="764" y="-432.3" font-family="Times,serif" font-size="14.00" fill="#000000">val : d = D</text>
<polyline fill="none" stroke="#000000" points="718,-424.5 810,-424.5 "/>
<text text-anchor="middle" x="764" y="-409.3" font-family="Times,serif" font-size="14.00" fill="#000000">0</text>
</g>
<!-- entry_4 -->
<g id="node5" class="node">
<title>entry_4</title>
<polygon fill="#ffff00" stroke="#000000" points="828.5,-401.5 828.5,-447.5 919.5,-447.5 919.5,-401.5 828.5,-401.5"/>
<text text-anchor="middle" x="874" y="-432.3" font-family="Times,serif" font-size="14.00" fill="#000000">val : e = E</text>
<polyline fill="none" stroke="#000000" points="828.5,-424.5 919.5,-424.5 "/>
<text text-anchor="middle" x="874" y="-409.3" font-family="Times,serif" font-size="14.00" fill="#000000">1</text>
</g>
<!-- entry_5 -->
<g id="node6" class="node">
<title>entry_5</title>
<polygon fill="#ffff00" stroke="#000000" points="146,-401.5 146,-447.5 246,-447.5 246,-401.5 146,-401.5"/>
<text text-anchor="middle" x="196" y="-432.3" font-family="Times,serif" font-size="14.00" fill="#000000">val : f = F a</text>
<polyline fill="none" stroke="#000000" points="146,-424.5 246,-424.5 "/>
<text text-anchor="middle" x="196" y="-409.3" font-family="Times,serif" font-size="14.00" fill="#000000">.</text>
</g>
<!-- p9 -->
<g id="node16" class="node">
<title>p9</title>
<path fill="#add8e6" stroke="#000000" d="M140.5,-307C140.5,-307 181.5,-307 181.5,-307 187.5,-307 193.5,-313 193.5,-319 193.5,-319 193.5,-341 193.5,-341 193.5,-347 187.5,-353 181.5,-353 181.5,-353 140.5,-353 140.5,-353 134.5,-353 128.5,-347 128.5,-341 128.5,-341 128.5,-319 128.5,-319 128.5,-313 134.5,-307 140.5,-307"/>
<text text-anchor="middle" x="161" y="-337.8" font-family="Times,serif" font-size="14.00" fill="#000000">Tag : 3</text>
<polyline fill="none" stroke="#000000" points="128.5,-330 193.5,-330 "/>
<text text-anchor="middle" x="161" y="-314.8" font-family="Times,serif" font-size="14.00" fill="#000000">.</text>
</g>
<!-- entry_5&#45;&gt;p9 -->
<g id="edge6" class="edge">
<title>entry_5&#45;&gt;p9</title>
<path fill="none" stroke="#000000" d="M187.3483,-401.1404C183.0675,-389.5823 177.8281,-375.4359 173.1522,-362.8111"/>
<polygon fill="#000000" stroke="#000000" points="176.3075,-361.2527 169.5522,-353.0909 169.7433,-363.684 176.3075,-361.2527"/>
</g>
<!-- entry_6 -->
<g id="node7" class="node">
<title>entry_6</title>
<polygon fill="#ffff00" stroke="#000000" points="938,-401.5 938,-447.5 1038,-447.5 1038,-401.5 938,-401.5"/>
<text text-anchor="middle" x="988" y="-432.3" font-family="Times,serif" font-size="14.00" fill="#000000">val : g = `G</text>
<polyline fill="none" stroke="#000000" points="938,-424.5 1038,-424.5 "/>
<text text-anchor="middle" x="988" y="-409.3" font-family="Times,serif" font-size="14.00" fill="#000000">71</text>
</g>
<!-- entry_7 -->
<g id="node8" class="node">
<title>entry_7</title>
<polygon fill="#ffff00" stroke="#000000" points="1056.5,-401.5 1056.5,-447.5 1171.5,-447.5 1171.5,-401.5 1056.5,-401.5"/>
<text text-anchor="middle" x="1114" y="-432.3" font-family="Times,serif" font-size="14.00" fill="#000000">val : h = `H 5</text>
<polyline fill="none" stroke="#000000" points="1056.5,-424.5 1171.5,-424.5 "/>
<text text-anchor="middle" x="1114" y="-409.3" font-family="Times,serif" font-size="14.00" fill="#000000">.</text>
</g>
<!-- p8 -->
<g id="node17" class="node">
<title>p8</title>
<path fill="#add8e6" stroke="#000000" d="M1093.5,-295.5C1093.5,-295.5 1134.5,-295.5 1134.5,-295.5 1140.5,-295.5 1146.5,-301.5 1146.5,-307.5 1146.5,-307.5 1146.5,-352.5 1146.5,-352.5 1146.5,-358.5 1140.5,-364.5 1134.5,-364.5 1134.5,-364.5 1093.5,-364.5 1093.5,-364.5 1087.5,-364.5 1081.5,-358.5 1081.5,-352.5 1081.5,-352.5 1081.5,-307.5 1081.5,-307.5 1081.5,-301.5 1087.5,-295.5 1093.5,-295.5"/>
<text text-anchor="middle" x="1114" y="-349.3" font-family="Times,serif" font-size="14.00" fill="#000000">Tag : 0</text>
<polyline fill="none" stroke="#000000" points="1081.5,-341.5 1146.5,-341.5 "/>
<text text-anchor="middle" x="1114" y="-326.3" font-family="Times,serif" font-size="14.00" fill="#000000">72</text>
<polyline fill="none" stroke="#000000" points="1081.5,-318.5 1146.5,-318.5 "/>
<text text-anchor="middle" x="1114" y="-303.3" font-family="Times,serif" font-size="14.00" fill="#000000">5</text>
</g>
<!-- entry_7&#45;&gt;p8 -->
<g id="edge8" class="edge">
<title>entry_7&#45;&gt;p8</title>
<path fill="none" stroke="#000000" d="M1114,-401.1404C1114,-393.1187 1114,-383.8504 1114,-374.7092"/>
<polygon fill="#000000" stroke="#000000" points="1117.5001,-374.5157 1114,-364.5157 1110.5001,-374.5157 1117.5001,-374.5157"/>
</g>
<!-- entry_8 -->
<g id="node9" class="node">
<title>entry_8</title>
<polygon fill="#ffff00" stroke="#000000" points="1190,-401.5 1190,-447.5 1294,-447.5 1294,-401.5 1190,-401.5"/>
<text text-anchor="middle" x="1242" y="-432.3" font-family="Times,serif" font-size="14.00" fill="#000000">val : i = `I d</text>
<polyline fill="none" stroke="#000000" points="1190,-424.5 1294,-424.5 "/>
<text text-anchor="middle" x="1242" y="-409.3" font-family="Times,serif" font-size="14.00" fill="#000000">.</text>
</g>
<!-- p7 -->
<g id="node18" class="node">
<title>p7</title>
<path fill="#add8e6" stroke="#000000" d="M1221.5,-295.5C1221.5,-295.5 1262.5,-295.5 1262.5,-295.5 1268.5,-295.5 1274.5,-301.5 1274.5,-307.5 1274.5,-307.5 1274.5,-352.5 1274.5,-352.5 1274.5,-358.5 1268.5,-364.5 1262.5,-364.5 1262.5,-364.5 1221.5,-364.5 1221.5,-364.5 1215.5,-364.5 1209.5,-358.5 1209.5,-352.5 1209.5,-352.5 1209.5,-307.5 1209.5,-307.5 1209.5,-301.5 1215.5,-295.5 1221.5,-295.5"/>
<text text-anchor="middle" x="1242" y="-349.3" font-family="Times,serif" font-size="14.00" fill="#000000">Tag : 0</text>
<polyline fill="none" stroke="#000000" points="1209.5,-341.5 1274.5,-341.5 "/>
<text text-anchor="middle" x="1242" y="-326.3" font-family="Times,serif" font-size="14.00" fill="#000000">73</text>
<polyline fill="none" stroke="#000000" points="1209.5,-318.5 1274.5,-318.5 "/>
<text text-anchor="middle" x="1242" y="-303.3" font-family="Times,serif" font-size="14.00" fill="#000000">0</text>
</g>
<!-- entry_8&#45;&gt;p7 -->
<g id="edge9" class="edge">
<title>entry_8&#45;&gt;p7</title>
<path fill="none" stroke="#000000" d="M1242,-401.1404C1242,-393.1187 1242,-383.8504 1242,-374.7092"/>
<polygon fill="#000000" stroke="#000000" points="1245.5001,-374.5157 1242,-364.5157 1238.5001,-374.5157 1245.5001,-374.5157"/>
</g>
<!-- entry_9 -->
<g id="node10" class="node">
<title>entry_9</title>
<polygon fill="#ffff00" stroke="#000000" points="422.5,-401.5 422.5,-447.5 553.5,-447.5 553.5,-401.5 422.5,-401.5"/>
<text text-anchor="middle" x="488" y="-432.3" font-family="Times,serif" font-size="14.00" fill="#000000">val : j = `J (b, c)</text>
<polyline fill="none" stroke="#000000" points="422.5,-424.5 553.5,-424.5 "/>
<text text-anchor="middle" x="488" y="-409.3" font-family="Times,serif" font-size="14.00" fill="#000000">.</text>
</g>
<!-- p1 -->
<g id="node19" class="node">
<title>p1</title>
<path fill="#add8e6" stroke="#000000" d="M467.5,-295.5C467.5,-295.5 508.5,-295.5 508.5,-295.5 514.5,-295.5 520.5,-301.5 520.5,-307.5 520.5,-307.5 520.5,-352.5 520.5,-352.5 520.5,-358.5 514.5,-364.5 508.5,-364.5 508.5,-364.5 467.5,-364.5 467.5,-364.5 461.5,-364.5 455.5,-358.5 455.5,-352.5 455.5,-352.5 455.5,-307.5 455.5,-307.5 455.5,-301.5 461.5,-295.5 467.5,-295.5"/>
<text text-anchor="middle" x="488" y="-349.3" font-family="Times,serif" font-size="14.00" fill="#000000">Tag : 0</text>
<polyline fill="none" stroke="#000000" points="455.5,-341.5 520.5,-341.5 "/>
<text text-anchor="middle" x="488" y="-326.3" font-family="Times,serif" font-size="14.00" fill="#000000">74</text>
<polyline fill="none" stroke="#000000" points="455.5,-318.5 520.5,-318.5 "/>
<text text-anchor="middle" x="488" y="-303.3" font-family="Times,serif" font-size="14.00" fill="#000000">.</text>
</g>
<!-- entry_9&#45;&gt;p1 -->
<g id="edge10" class="edge">
<title>entry_9&#45;&gt;p1</title>
<path fill="none" stroke="#000000" d="M488,-401.1404C488,-393.1187 488,-383.8504 488,-374.7092"/>
<polygon fill="#000000" stroke="#000000" points="491.5001,-374.5157 488,-364.5157 484.5001,-374.5157 491.5001,-374.5157"/>
</g>
<!-- p4 -->
<g id="node13" class="node">
<title>p4</title>
<path fill="#add8e6" stroke="#000000" d="M404.5,-.5C404.5,-.5 445.5,-.5 445.5,-.5 451.5,-.5 457.5,-6.5 457.5,-12.5 457.5,-12.5 457.5,-57.5 457.5,-57.5 457.5,-63.5 451.5,-69.5 445.5,-69.5 445.5,-69.5 404.5,-69.5 404.5,-69.5 398.5,-69.5 392.5,-63.5 392.5,-57.5 392.5,-57.5 392.5,-12.5 392.5,-12.5 392.5,-6.5 398.5,-.5 404.5,-.5"/>
<text text-anchor="middle" x="425" y="-54.3" font-family="Times,serif" font-size="14.00" fill="#000000">Tag : 0</text>
<polyline fill="none" stroke="#000000" points="392.5,-46.5 457.5,-46.5 "/>
<text text-anchor="middle" x="425" y="-31.3" font-family="Times,serif" font-size="14.00" fill="#000000">3</text>
<polyline fill="none" stroke="#000000" points="392.5,-23.5 457.5,-23.5 "/>
<text text-anchor="middle" x="425" y="-8.3" font-family="Times,serif" font-size="14.00" fill="#000000">4</text>
</g>
<!-- p3&#45;&gt;p4 -->
<g id="edge3" class="edge">
<title>p3:f0&#45;&gt;p4:head</title>
<path fill="none" stroke="#000000" d="M425,-106.5C425,-94.3333 425,-89.0104 425,-80.2656"/>
<polygon fill="#000000" stroke="#000000" points="428.5001,-80 425,-70 421.5001,-80 428.5001,-80"/>
</g>
<!-- p6 -->
<g id="node15" class="node">
<title>p6</title>
<path fill="#add8e6" stroke="#000000" d="M515.5,-12C515.5,-12 584.5,-12 584.5,-12 590.5,-12 596.5,-18 596.5,-24 596.5,-24 596.5,-46 596.5,-46 596.5,-52 590.5,-58 584.5,-58 584.5,-58 515.5,-58 515.5,-58 509.5,-58 503.5,-52 503.5,-46 503.5,-46 503.5,-24 503.5,-24 503.5,-18 509.5,-12 515.5,-12"/>
<text text-anchor="middle" x="550" y="-42.8" font-family="Times,serif" font-size="14.00" fill="#000000">Tag : 253</text>
<polyline fill="none" stroke="#000000" points="503.5,-35 596.5,-35 "/>
<text text-anchor="middle" x="550" y="-19.8" font-family="Times,serif" font-size="14.00" fill="#000000">42.000000</text>
</g>
<!-- p5&#45;&gt;p6 -->
<g id="edge5" class="edge">
<title>p5:f0&#45;&gt;p6:head</title>
<path fill="none" stroke="#000000" d="M550,-106.5C550,-88.8177 550,-82.0142 550,-68.2414"/>
<polygon fill="#000000" stroke="#000000" points="553.5001,-68 550,-58 546.5001,-68 553.5001,-68"/>
</g>
<!-- p9&#45;&gt;p10 -->
<g id="edge7" class="edge">
<title>p9:f0&#45;&gt;p10:head</title>
<path fill="none" stroke="#000000" d="M161,-307C161,-283.8075 169.8899,-257.0375 156.157,-249.2381"/>
<polygon fill="#000000" stroke="#000000" points="156.5189,-245.734 146,-247 155.0125,-252.57 156.5189,-245.734"/>
</g>
<!-- p2 -->
<g id="node20" class="node">
<title>p2</title>
<path fill="#add8e6" stroke="#000000" d="M467.5,-189.5C467.5,-189.5 508.5,-189.5 508.5,-189.5 514.5,-189.5 520.5,-195.5 520.5,-201.5 520.5,-201.5 520.5,-246.5 520.5,-246.5 520.5,-252.5 514.5,-258.5 508.5,-258.5 508.5,-258.5 467.5,-258.5 467.5,-258.5 461.5,-258.5 455.5,-252.5 455.5,-246.5 455.5,-246.5 455.5,-201.5 455.5,-201.5 455.5,-195.5 461.5,-189.5 467.5,-189.5"/>
<text text-anchor="middle" x="488" y="-243.3" font-family="Times,serif" font-size="14.00" fill="#000000">Tag : 0</text>
<polyline fill="none" stroke="#000000" points="455.5,-235.5 520.5,-235.5 "/>
<text text-anchor="middle" x="488" y="-220.3" font-family="Times,serif" font-size="14.00" fill="#000000">.</text>
<polyline fill="none" stroke="#000000" points="455.5,-212.5 520.5,-212.5 "/>
<text text-anchor="middle" x="488" y="-197.3" font-family="Times,serif" font-size="14.00" fill="#000000">.</text>
</g>
<!-- p1&#45;&gt;p2 -->
<g id="edge11" class="edge">
<title>p1:f1&#45;&gt;p2:head</title>
<path fill="none" stroke="#000000" d="M488,-295C488,-283 488,-277.75 488,-269.125"/>
<polygon fill="#000000" stroke="#000000" points="491.5001,-269 488,-259 484.5001,-269 491.5001,-269"/>
</g>
<!-- p2&#45;&gt;p3 -->
<g id="edge12" class="edge">
<title>p2:f0&#45;&gt;p3:head</title>
<path fill="none" stroke="#000000" d="M455,-224C423.4688,-224 475.4446,-163.0717 467.3997,-145.9356"/>
<polygon fill="#000000" stroke="#000000" points="468.5373,-142.6023 458,-141.5 465.55,-148.9329 468.5373,-142.6023"/>
</g>
<!-- p2&#45;&gt;p5 -->
<g id="edge13" class="edge">
<title>p2:f1&#45;&gt;p5:head</title>
<path fill="none" stroke="#000000" d="M521,-201C541.7064,-201 511.4408,-164.6841 509.8469,-148.7959"/>
<polygon fill="#000000" stroke="#000000" points="512.4983,-151.0909 517,-141.5 507.4999,-146.1903 512.4983,-151.0909"/>
</g>
</g>
</svg>
