<?xml version="1.0" encoding="UTF-8" standalone="no"?>
<!DOCTYPE svg PUBLIC "-//W3C//DTD SVG 1.1//EN"
 "http://www.w3.org/Graphics/SVG/1.1/DTD/svg11.dtd">
<!-- Generated by graphviz version 2.38.0 (20140413.2041)
 -->
<!-- Title: g Pages: 1 -->
<svg width="785pt" height="419pt"
 viewBox="0.00 0.00 785.23 419.00" xmlns="http://www.w3.org/2000/svg" xmlns:xlink="http://www.w3.org/1999/xlink">
<g id="graph0" class="graph" transform="scale(1 1) rotate(0) translate(4 415)">
<title>g</title>
<polygon fill="white" stroke="none" points="-4,4 -4,-415 781.228,-415 781.228,4 -4,4"/>
<!-- entry_0 -->
<g id="node1" class="node"><title>entry_0</title>
<polygon fill="yellow" stroke="black" points="0,-364.5 0,-410.5 65,-410.5 65,-364.5 0,-364.5"/>
<text text-anchor="middle" x="32.5" y="-395.3" font-family="Times,serif" font-size="14.00">val : l1</text>
<polyline fill="none" stroke="black" points="0,-387.5 65,-387.5 "/>
<text text-anchor="middle" x="32.5" y="-372.3" font-family="Times,serif" font-size="14.00">.</text>
</g>
<!-- p20 -->
<g id="node7" class="node"><title>p20</title>
<path fill="lightblue" stroke="black" d="M12,-235.5C12,-235.5 53,-235.5 53,-235.5 59,-235.5 65,-241.5 65,-247.5 65,-247.5 65,-292.5 65,-292.5 65,-298.5 59,-304.5 53,-304.5 53,-304.5 12,-304.5 12,-304.5 6,-304.5 0,-298.5 0,-292.5 0,-292.5 0,-247.5 0,-247.5 0,-241.5 6,-235.5 12,-235.5"/>
<text text-anchor="middle" x="32.5" y="-289.3" font-family="Times,serif" font-size="14.00">Tag : 0</text>
<polyline fill="none" stroke="black" points="0,-281.5 65,-281.5 "/>
<text text-anchor="middle" x="32.5" y="-266.3" font-family="Times,serif" font-size="14.00">2</text>
<polyline fill="none" stroke="black" points="0,-258.5 65,-258.5 "/>
<text text-anchor="middle" x="32.5" y="-243.3" font-family="Times,serif" font-size="14.00">.</text>
</g>
<!-- entry_0&#45;&gt;p20 -->
<g id="edge1" class="edge"><title>entry_0&#45;&gt;p20</title>
<path fill="none" stroke="black" d="M32.5,-364.23C32.5,-350.225 32.5,-331.673 32.5,-314.809"/>
<polygon fill="black" stroke="black" points="36.0001,-314.582 32.5,-304.582 29.0001,-314.582 36.0001,-314.582"/>
</g>
<!-- entry_1 -->
<g id="node2" class="node"><title>entry_1</title>
<polygon fill="yellow" stroke="black" points="83,-364.5 83,-410.5 148,-410.5 148,-364.5 83,-364.5"/>
<text text-anchor="middle" x="115.5" y="-395.3" font-family="Times,serif" font-size="14.00">val : l2</text>
<polyline fill="none" stroke="black" points="83,-387.5 148,-387.5 "/>
<text text-anchor="middle" x="115.5" y="-372.3" font-family="Times,serif" font-size="14.00">.</text>
</g>
<!-- p17 -->
<g id="node10" class="node"><title>p17</title>
<path fill="lightblue" stroke="black" d="M95,-235.5C95,-235.5 136,-235.5 136,-235.5 142,-235.5 148,-241.5 148,-247.5 148,-247.5 148,-292.5 148,-292.5 148,-298.5 142,-304.5 136,-304.5 136,-304.5 95,-304.5 95,-304.5 89,-304.5 83,-298.5 83,-292.5 83,-292.5 83,-247.5 83,-247.5 83,-241.5 89,-235.5 95,-235.5"/>
<text text-anchor="middle" x="115.5" y="-289.3" font-family="Times,serif" font-size="14.00">Tag : 0</text>
<polyline fill="none" stroke="black" points="83,-281.5 148,-281.5 "/>
<text text-anchor="middle" x="115.5" y="-266.3" font-family="Times,serif" font-size="14.00">3</text>
<polyline fill="none" stroke="black" points="83,-258.5 148,-258.5 "/>
<text text-anchor="middle" x="115.5" y="-243.3" font-family="Times,serif" font-size="14.00">.</text>
</g>
<!-- entry_1&#45;&gt;p17 -->
<g id="edge4" class="edge"><title>entry_1&#45;&gt;p17</title>
<path fill="none" stroke="black" d="M115.5,-364.23C115.5,-350.225 115.5,-331.673 115.5,-314.809"/>
<polygon fill="black" stroke="black" points="119,-314.582 115.5,-304.582 112,-314.582 119,-314.582"/>
</g>
<!-- entry_2 -->
<g id="node3" class="node"><title>entry_2</title>
<polygon fill="yellow" stroke="black" points="236.5,-364.5 236.5,-410.5 292.5,-410.5 292.5,-364.5 236.5,-364.5"/>
<text text-anchor="middle" x="264.5" y="-395.3" font-family="Times,serif" font-size="14.00">val : f</text>
<polyline fill="none" stroke="black" points="236.5,-387.5 292.5,-387.5 "/>
<text text-anchor="middle" x="264.5" y="-372.3" font-family="Times,serif" font-size="14.00">.</text>
</g>
<!-- p14 -->
<g id="node11" class="node"><title>p14</title>
<path fill="lightblue" stroke="black" d="M235,-224C235,-224 294,-224 294,-224 300,-224 306,-230 306,-236 306,-236 306,-304 306,-304 306,-310 300,-316 294,-316 294,-316 235,-316 235,-316 229,-316 223,-310 223,-304 223,-304 223,-236 223,-236 223,-230 229,-224 235,-224"/>
<text text-anchor="middle" x="264.5" y="-300.8" font-family="Times,serif" font-size="14.00">Tag : 247</text>
<polyline fill="none" stroke="black" points="223,-293 306,-293 "/>
<text text-anchor="middle" x="264.5" y="-277.8" font-family="Times,serif" font-size="14.00">.</text>
<polyline fill="none" stroke="black" points="223,-270 306,-270 "/>
<text text-anchor="middle" x="264.5" y="-254.8" font-family="Times,serif" font-size="14.00">3</text>
<polyline fill="none" stroke="black" points="223,-247 306,-247 "/>
<text text-anchor="middle" x="264.5" y="-231.8" font-family="Times,serif" font-size="14.00">.</text>
</g>
<!-- entry_2&#45;&gt;p14 -->
<g id="edge6" class="edge"><title>entry_2&#45;&gt;p14</title>
<path fill="none" stroke="black" d="M264.5,-364.23C264.5,-353.365 264.5,-339.764 264.5,-326.337"/>
<polygon fill="black" stroke="black" points="268,-326.152 264.5,-316.152 261,-326.152 268,-326.152"/>
</g>
<!-- entry_3 -->
<g id="node4" class="node"><title>entry_3</title>
<polygon fill="yellow" stroke="black" points="413,-364.5 413,-410.5 482,-410.5 482,-364.5 413,-364.5"/>
<text text-anchor="middle" x="447.5" y="-395.3" font-family="Times,serif" font-size="14.00">val : g1</text>
<polyline fill="none" stroke="black" points="413,-387.5 482,-387.5 "/>
<text text-anchor="middle" x="447.5" y="-372.3" font-family="Times,serif" font-size="14.00">.</text>
</g>
<!-- p12 -->
<g id="node14" class="node"><title>p12</title>
<path fill="lightblue" stroke="black" d="M418,-212.5C418,-212.5 477,-212.5 477,-212.5 483,-212.5 489,-218.5 489,-224.5 489,-224.5 489,-315.5 489,-315.5 489,-321.5 483,-327.5 477,-327.5 477,-327.5 418,-327.5 418,-327.5 412,-327.5 406,-321.5 406,-315.5 406,-315.5 406,-224.5 406,-224.5 406,-218.5 412,-212.5 418,-212.5"/>
<text text-anchor="middle" x="447.5" y="-312.3" font-family="Times,serif" font-size="14.00">Tag : 247</text>
<polyline fill="none" stroke="black" points="406,-304.5 489,-304.5 "/>
<text text-anchor="middle" x="447.5" y="-289.3" font-family="Times,serif" font-size="14.00">.</text>
<polyline fill="none" stroke="black" points="406,-281.5 489,-281.5 "/>
<text text-anchor="middle" x="447.5" y="-266.3" font-family="Times,serif" font-size="14.00">2</text>
<polyline fill="none" stroke="black" points="406,-258.5 489,-258.5 "/>
<text text-anchor="middle" x="447.5" y="-243.3" font-family="Times,serif" font-size="14.00">.</text>
<polyline fill="none" stroke="black" points="406,-235.5 489,-235.5 "/>
<text text-anchor="middle" x="447.5" y="-220.3" font-family="Times,serif" font-size="14.00">5</text>
</g>
<!-- entry_3&#45;&gt;p12 -->
<g id="edge9" class="edge"><title>entry_3&#45;&gt;p12</title>
<path fill="none" stroke="black" d="M447.5,-364.23C447.5,-356.528 447.5,-347.451 447.5,-338.035"/>
<polygon fill="black" stroke="black" points="451,-337.735 447.5,-327.735 444,-337.735 451,-337.735"/>
</g>
<!-- entry_4 -->
<g id="node5" class="node"><title>entry_4</title>
<polygon fill="yellow" stroke="black" points="686,-364.5 686,-410.5 755,-410.5 755,-364.5 686,-364.5"/>
<text text-anchor="middle" x="720.5" y="-395.3" font-family="Times,serif" font-size="14.00">val : g2</text>
<polyline fill="none" stroke="black" points="686,-387.5 755,-387.5 "/>
<text text-anchor="middle" x="720.5" y="-372.3" font-family="Times,serif" font-size="14.00">.</text>
</g>
<!-- p10 -->
<g id="node17" class="node"><title>p10</title>
<path fill="lightblue" stroke="black" d="M691,-224C691,-224 750,-224 750,-224 756,-224 762,-230 762,-236 762,-236 762,-304 762,-304 762,-310 756,-316 750,-316 750,-316 691,-316 691,-316 685,-316 679,-310 679,-304 679,-304 679,-236 679,-236 679,-230 685,-224 691,-224"/>
<text text-anchor="middle" x="720.5" y="-300.8" font-family="Times,serif" font-size="14.00">Tag : 247</text>
<polyline fill="none" stroke="black" points="679,-293 762,-293 "/>
<text text-anchor="middle" x="720.5" y="-277.8" font-family="Times,serif" font-size="14.00">.</text>
<polyline fill="none" stroke="black" points="679,-270 762,-270 "/>
<text text-anchor="middle" x="720.5" y="-254.8" font-family="Times,serif" font-size="14.00">1</text>
<polyline fill="none" stroke="black" points="679,-247 762,-247 "/>
<text text-anchor="middle" x="720.5" y="-231.8" font-family="Times,serif" font-size="14.00">42</text>
</g>
<!-- entry_4&#45;&gt;p10 -->
<g id="edge12" class="edge"><title>entry_4&#45;&gt;p10</title>
<path fill="none" stroke="black" d="M720.5,-364.23C720.5,-353.365 720.5,-339.764 720.5,-326.337"/>
<polygon fill="black" stroke="black" points="724,-326.152 720.5,-316.152 717,-326.152 724,-326.152"/>
</g>
<!-- entry_5 -->
<g id="node6" class="node"><title>entry_5</title>
<polygon fill="yellow" stroke="black" points="518,-364.5 518,-410.5 587,-410.5 587,-364.5 518,-364.5"/>
<text text-anchor="middle" x="552.5" y="-395.3" font-family="Times,serif" font-size="14.00">val : g3</text>
<polyline fill="none" stroke="black" points="518,-387.5 587,-387.5 "/>
<text text-anchor="middle" x="552.5" y="-372.3" font-family="Times,serif" font-size="14.00">.</text>
</g>
<!-- p7 -->
<g id="node19" class="node"><title>p7</title>
<path fill="lightblue" stroke="black" d="M523,-212.5C523,-212.5 582,-212.5 582,-212.5 588,-212.5 594,-218.5 594,-224.5 594,-224.5 594,-315.5 594,-315.5 594,-321.5 588,-327.5 582,-327.5 582,-327.5 523,-327.5 523,-327.5 517,-327.5 511,-321.5 511,-315.5 511,-315.5 511,-224.5 511,-224.5 511,-218.5 517,-212.5 523,-212.5"/>
<text text-anchor="middle" x="552.5" y="-312.3" font-family="Times,serif" font-size="14.00">Tag : 247</text>
<polyline fill="none" stroke="black" points="511,-304.5 594,-304.5 "/>
<text text-anchor="middle" x="552.5" y="-289.3" font-family="Times,serif" font-size="14.00">.</text>
<polyline fill="none" stroke="black" points="511,-281.5 594,-281.5 "/>
<text text-anchor="middle" x="552.5" y="-266.3" font-family="Times,serif" font-size="14.00">2</text>
<polyline fill="none" stroke="black" points="511,-258.5 594,-258.5 "/>
<text text-anchor="middle" x="552.5" y="-243.3" font-family="Times,serif" font-size="14.00">.</text>
<polyline fill="none" stroke="black" points="511,-235.5 594,-235.5 "/>
<text text-anchor="middle" x="552.5" y="-220.3" font-family="Times,serif" font-size="14.00">7</text>
</g>
<!-- entry_5&#45;&gt;p7 -->
<g id="edge14" class="edge"><title>entry_5&#45;&gt;p7</title>
<path fill="none" stroke="black" d="M552.5,-364.23C552.5,-356.528 552.5,-347.451 552.5,-338.035"/>
<polygon fill="black" stroke="black" points="556,-337.735 552.5,-327.735 549,-337.735 556,-337.735"/>
</g>
<!-- p18 -->
<g id="node8" class="node"><title>p18</title>
<path fill="lightblue" stroke="black" d="M53,-106.5C53,-106.5 94,-106.5 94,-106.5 100,-106.5 106,-112.5 106,-118.5 106,-118.5 106,-163.5 106,-163.5 106,-169.5 100,-175.5 94,-175.5 94,-175.5 53,-175.5 53,-175.5 47,-175.5 41,-169.5 41,-163.5 41,-163.5 41,-118.5 41,-118.5 41,-112.5 47,-106.5 53,-106.5"/>
<text text-anchor="middle" x="73.5" y="-160.3" font-family="Times,serif" font-size="14.00">Tag : 0</text>
<polyline fill="none" stroke="black" points="41,-152.5 106,-152.5 "/>
<text text-anchor="middle" x="73.5" y="-137.3" font-family="Times,serif" font-size="14.00">5</text>
<polyline fill="none" stroke="black" points="41,-129.5 106,-129.5 "/>
<text text-anchor="middle" x="73.5" y="-114.3" font-family="Times,serif" font-size="14.00">.</text>
</g>
<!-- p20&#45;&gt;p18 -->
<g id="edge2" class="edge"><title>p20:f1&#45;&gt;p18:head</title>
<path fill="none" stroke="black" d="M32.5,-234C32.5,-206.255 64.1715,-206.862 71.842,-185.984"/>
<polygon fill="black" stroke="black" points="75.3143,-186.438 73.5,-176 68.4089,-185.291 75.3143,-186.438"/>
</g>
<!-- p19 -->
<g id="node9" class="node"><title>p19</title>
<path fill="lightblue" stroke="black" d="M53,-0.5C53,-0.5 94,-0.5 94,-0.5 100,-0.5 106,-6.5 106,-12.5 106,-12.5 106,-57.5 106,-57.5 106,-63.5 100,-69.5 94,-69.5 94,-69.5 53,-69.5 53,-69.5 47,-69.5 41,-63.5 41,-57.5 41,-57.5 41,-12.5 41,-12.5 41,-6.5 47,-0.5 53,-0.5"/>
<text text-anchor="middle" x="73.5" y="-54.3" font-family="Times,serif" font-size="14.00">Tag : 0</text>
<polyline fill="none" stroke="black" points="41,-46.5 106,-46.5 "/>
<text text-anchor="middle" x="73.5" y="-31.3" font-family="Times,serif" font-size="14.00">6</text>
<polyline fill="none" stroke="black" points="41,-23.5 106,-23.5 "/>
<text text-anchor="middle" x="73.5" y="-8.3" font-family="Times,serif" font-size="14.00">0</text>
</g>
<!-- p18&#45;&gt;p19 -->
<g id="edge3" class="edge"><title>p18:f1&#45;&gt;p19:head</title>
<path fill="none" stroke="black" d="M73.5,-106C73.5,-94 73.5,-88.75 73.5,-80.125"/>
<polygon fill="black" stroke="black" points="77.0001,-80 73.5,-70 70.0001,-80 77.0001,-80"/>
</g>
<!-- p17&#45;&gt;p18 -->
<g id="edge5" class="edge"><title>p17:f1&#45;&gt;p18:head</title>
<path fill="none" stroke="black" d="M115.5,-234C115.5,-206.027 83.056,-207.007 75.1985,-186.046"/>
<polygon fill="black" stroke="black" points="78.6181,-185.277 73.5,-176 71.716,-186.444 78.6181,-185.277"/>
</g>
<!-- p15 -->
<g id="node12" class="node"><title>p15</title>
<path fill="lightblue" stroke="black" d="M136.5,-118C136.5,-118 204.5,-118 204.5,-118 210.5,-118 216.5,-124 216.5,-130 216.5,-130 216.5,-152 216.5,-152 216.5,-158 210.5,-164 204.5,-164 204.5,-164 136.5,-164 136.5,-164 130.5,-164 124.5,-158 124.5,-152 124.5,-152 124.5,-130 124.5,-130 124.5,-124 130.5,-118 136.5,-118"/>
<text text-anchor="middle" x="170.5" y="-148.8" font-family="Times,serif" font-size="14.00">Tag : 1001</text>
<polyline fill="none" stroke="black" points="124.5,-141 216.5,-141 "/>
<text text-anchor="middle" x="170.5" y="-125.8" font-family="Times,serif" font-size="14.00">?</text>
</g>
<!-- p14&#45;&gt;p15 -->
<g id="edge7" class="edge"><title>p14:f0&#45;&gt;p15:head</title>
<path fill="none" stroke="black" d="M221.5,-282C209.512,-282 224.792,-191.856 221.752,-162.277"/>
<polygon fill="black" stroke="black" points="224.848,-160.633 217.5,-153 218.485,-163.549 224.848,-160.633"/>
</g>
<!-- p16 -->
<g id="node13" class="node"><title>p16</title>
<path fill="lightblue" stroke="black" d="M246.5,-118C246.5,-118 314.5,-118 314.5,-118 320.5,-118 326.5,-124 326.5,-130 326.5,-130 326.5,-152 326.5,-152 326.5,-158 320.5,-164 314.5,-164 314.5,-164 246.5,-164 246.5,-164 240.5,-164 234.5,-158 234.5,-152 234.5,-152 234.5,-130 234.5,-130 234.5,-124 240.5,-118 246.5,-118"/>
<text text-anchor="middle" x="280.5" y="-148.8" font-family="Times,serif" font-size="14.00">Tag : 1001</text>
<polyline fill="none" stroke="black" points="234.5,-141 326.5,-141 "/>
<text text-anchor="middle" x="280.5" y="-125.8" font-family="Times,serif" font-size="14.00">?</text>
</g>
<!-- p14&#45;&gt;p16 -->
<g id="edge8" class="edge"><title>p14:f2&#45;&gt;p16:head</title>
<path fill="none" stroke="black" d="M264.5,-223C264.5,-200.02 276.316,-193.451 279.64,-175.086"/>
<polygon fill="black" stroke="black" points="283.137,-175.261 280.5,-165 276.163,-174.666 283.137,-175.261"/>
</g>
<!-- p8 -->
<g id="node15" class="node"><title>p8</title>
<path fill="lightblue" stroke="black" d="M466.5,-118C466.5,-118 534.5,-118 534.5,-118 540.5,-118 546.5,-124 546.5,-130 546.5,-130 546.5,-152 546.5,-152 546.5,-158 540.5,-164 534.5,-164 534.5,-164 466.5,-164 466.5,-164 460.5,-164 454.5,-158 454.5,-152 454.5,-152 454.5,-130 454.5,-130 454.5,-124 460.5,-118 466.5,-118"/>
<text text-anchor="middle" x="500.5" y="-148.8" font-family="Times,serif" font-size="14.00">Tag : 1001</text>
<polyline fill="none" stroke="black" points="454.5,-141 546.5,-141 "/>
<text text-anchor="middle" x="500.5" y="-125.8" font-family="Times,serif" font-size="14.00">?</text>
</g>
<!-- p12&#45;&gt;p8 -->
<g id="edge10" class="edge"><title>p12:f0&#45;&gt;p8:head</title>
<path fill="none" stroke="black" d="M490.5,-293C508.501,-293 495.226,-229.067 489.5,-212 481.159,-187.139 463.759,-189.034 454.5,-164.5 454.33,-164.05 454.138,-163.583 453.934,-163.107"/>
<polygon fill="black" stroke="black" points="457.426,-162.841 453.5,-153 450.433,-163.141 457.426,-162.841"/>
</g>
<!-- p13 -->
<g id="node16" class="node"><title>p13</title>
<path fill="lightblue" stroke="black" d="M356.5,-118C356.5,-118 424.5,-118 424.5,-118 430.5,-118 436.5,-124 436.5,-130 436.5,-130 436.5,-152 436.5,-152 436.5,-158 430.5,-164 424.5,-164 424.5,-164 356.5,-164 356.5,-164 350.5,-164 344.5,-158 344.5,-152 344.5,-152 344.5,-130 344.5,-130 344.5,-124 350.5,-118 356.5,-118"/>
<text text-anchor="middle" x="390.5" y="-148.8" font-family="Times,serif" font-size="14.00">Tag : 1001</text>
<polyline fill="none" stroke="black" points="344.5,-141 436.5,-141 "/>
<text text-anchor="middle" x="390.5" y="-125.8" font-family="Times,serif" font-size="14.00">?</text>
</g>
<!-- p12&#45;&gt;p13 -->
<g id="edge11" class="edge"><title>p12:f2&#45;&gt;p13:head</title>
<path fill="none" stroke="black" d="M404.5,-247C388.938,-247 400.851,-226.851 405.5,-212 408.598,-202.103 430.07,-177.445 437.852,-163.338"/>
<polygon fill="black" stroke="black" points="441.339,-162.875 437.5,-153 434.343,-163.113 441.339,-162.875"/>
</g>
<!-- p11 -->
<g id="node18" class="node"><title>p11</title>
<path fill="lightblue" stroke="black" d="M686.5,-118C686.5,-118 754.5,-118 754.5,-118 760.5,-118 766.5,-124 766.5,-130 766.5,-130 766.5,-152 766.5,-152 766.5,-158 760.5,-164 754.5,-164 754.5,-164 686.5,-164 686.5,-164 680.5,-164 674.5,-158 674.5,-152 674.5,-152 674.5,-130 674.5,-130 674.5,-124 680.5,-118 686.5,-118"/>
<text text-anchor="middle" x="720.5" y="-148.8" font-family="Times,serif" font-size="14.00">Tag : 1001</text>
<polyline fill="none" stroke="black" points="674.5,-141 766.5,-141 "/>
<text text-anchor="middle" x="720.5" y="-125.8" font-family="Times,serif" font-size="14.00">?</text>
</g>
<!-- p10&#45;&gt;p11 -->
<g id="edge13" class="edge"><title>p10:f0&#45;&gt;p11:head</title>
<path fill="none" stroke="black" d="M763.5,-282C789.504,-282 770.677,-248.185 762.5,-223.5 753.654,-196.796 727.914,-196.567 721.809,-175.173"/>
<polygon fill="black" stroke="black" points="725.248,-174.471 720.5,-165 718.305,-175.365 725.248,-174.471"/>
</g>
<!-- p7&#45;&gt;p8 -->
<g id="edge15" class="edge"><title>p7:f0&#45;&gt;p8:head</title>
<path fill="none" stroke="black" d="M509.5,-293C497.081,-293 499.469,-206.692 500.291,-175.016"/>
<polygon fill="black" stroke="black" points="503.791,-175.071 500.5,-165 496.792,-174.925 503.791,-175.071"/>
</g>
<!-- p9 -->
<g id="node20" class="node"><title>p9</title>
<path fill="lightblue" stroke="black" d="M576.5,-118C576.5,-118 644.5,-118 644.5,-118 650.5,-118 656.5,-124 656.5,-130 656.5,-130 656.5,-152 656.5,-152 656.5,-158 650.5,-164 644.5,-164 644.5,-164 576.5,-164 576.5,-164 570.5,-164 564.5,-158 564.5,-152 564.5,-152 564.5,-130 564.5,-130 564.5,-124 570.5,-118 576.5,-118"/>
<text text-anchor="middle" x="610.5" y="-148.8" font-family="Times,serif" font-size="14.00">Tag : 1001</text>
<polyline fill="none" stroke="black" points="564.5,-141 656.5,-141 "/>
<text text-anchor="middle" x="610.5" y="-125.8" font-family="Times,serif" font-size="14.00">?</text>
</g>
<!-- p7&#45;&gt;p9 -->
<g id="edge16" class="edge"><title>p7:f2&#45;&gt;p9:head</title>
<path fill="none" stroke="black" d="M595.5,-247C611.062,-247 599.038,-226.885 594.5,-212 591.497,-202.15 570.522,-177.473 562.998,-163.351"/>
<polygon fill="black" stroke="black" points="566.512,-163.158 563.5,-153 559.52,-162.819 566.512,-163.158"/>
</g>
</g>
</svg>
