<?xml version="1.0" encoding="UTF-8" standalone="no"?>
<!DOCTYPE svg PUBLIC "-//W3C//DTD SVG 1.1//EN"
 "http://www.w3.org/Graphics/SVG/1.1/DTD/svg11.dtd">
<!-- Generated by graphviz version 2.38.0 (20140413.2041)
 -->
<!-- Title: g Pages: 1 -->
<svg width="808pt" height="594pt"
 viewBox="0.00 0.00 807.99 594.00" xmlns="http://www.w3.org/2000/svg" xmlns:xlink="http://www.w3.org/1999/xlink">
<g id="graph0" class="graph" transform="scale(1 1) rotate(0) translate(4 590)">
<title>g</title>
<polygon fill="white" stroke="none" points="-4,4 -4,-590 803.99,-590 803.99,4 -4,4"/>
<!-- entry_0 -->
<g id="node1" class="node"><title>entry_0</title>
<polygon fill="yellow" stroke="black" points="4.5,-539.5 4.5,-585.5 60.5,-585.5 60.5,-539.5 4.5,-539.5"/>
<text text-anchor="middle" x="32.5" y="-570.3" font-family="Times,serif" font-size="14.00">val : l</text>
<polyline fill="none" stroke="black" points="4.5,-562.5 60.5,-562.5 "/>
<text text-anchor="middle" x="32.5" y="-547.3" font-family="Times,serif" font-size="14.00">.</text>
</g>
<!-- p23 -->
<g id="node9" class="node"><title>p23</title>
<path fill="lightblue" stroke="black" d="M12,-410.5C12,-410.5 53,-410.5 53,-410.5 59,-410.5 65,-416.5 65,-422.5 65,-422.5 65,-467.5 65,-467.5 65,-473.5 59,-479.5 53,-479.5 53,-479.5 12,-479.5 12,-479.5 6,-479.5 0,-473.5 0,-467.5 0,-467.5 0,-422.5 0,-422.5 0,-416.5 6,-410.5 12,-410.5"/>
<text text-anchor="middle" x="32.5" y="-464.3" font-family="Times,serif" font-size="14.00">Tag : 0</text>
<polyline fill="none" stroke="black" points="0,-456.5 65,-456.5 "/>
<text text-anchor="middle" x="32.5" y="-441.3" font-family="Times,serif" font-size="14.00">5</text>
<polyline fill="none" stroke="black" points="0,-433.5 65,-433.5 "/>
<text text-anchor="middle" x="32.5" y="-418.3" font-family="Times,serif" font-size="14.00">.</text>
</g>
<!-- entry_0&#45;&gt;p23 -->
<g id="edge1" class="edge"><title>entry_0&#45;&gt;p23</title>
<path fill="none" stroke="black" d="M32.5,-539.23C32.5,-525.225 32.5,-506.673 32.5,-489.809"/>
<polygon fill="black" stroke="black" points="36.0001,-489.582 32.5,-479.582 29.0001,-489.582 36.0001,-489.582"/>
</g>
<!-- entry_1 -->
<g id="node2" class="node"><title>entry_1</title>
<polygon fill="yellow" stroke="black" points="96.5,-539.5 96.5,-585.5 152.5,-585.5 152.5,-539.5 96.5,-539.5"/>
<text text-anchor="middle" x="124.5" y="-570.3" font-family="Times,serif" font-size="14.00">val : f</text>
<polyline fill="none" stroke="black" points="96.5,-562.5 152.5,-562.5 "/>
<text text-anchor="middle" x="124.5" y="-547.3" font-family="Times,serif" font-size="14.00">.</text>
</g>
<!-- p18 -->
<g id="node11" class="node"><title>p18</title>
<path fill="lightblue" stroke="black" d="M95,-247C95,-247 154,-247 154,-247 160,-247 166,-253 166,-259 166,-259 166,-304 166,-304 166,-310 160,-316 154,-316 154,-316 95,-316 95,-316 89,-316 83,-310 83,-304 83,-304 83,-259 83,-259 83,-253 89,-247 95,-247"/>
<text text-anchor="middle" x="124.5" y="-300.8" font-family="Times,serif" font-size="14.00">Tag : 247</text>
<polyline fill="none" stroke="black" points="83,-293 166,-293 "/>
<text text-anchor="middle" x="124.5" y="-277.8" font-family="Times,serif" font-size="14.00">.</text>
<polyline fill="none" stroke="black" points="83,-270 166,-270 "/>
<text text-anchor="middle" x="124.5" y="-254.8" font-family="Times,serif" font-size="14.00">1</text>
</g>
<!-- entry_1&#45;&gt;p18 -->
<g id="edge3" class="edge"><title>entry_1&#45;&gt;p18</title>
<path fill="none" stroke="black" d="M124.5,-539.14C124.5,-493.152 124.5,-387.224 124.5,-326.816"/>
<polygon fill="black" stroke="black" points="128,-326.45 124.5,-316.45 121,-326.45 128,-326.45"/>
</g>
<!-- entry_2 -->
<g id="node3" class="node"><title>entry_2</title>
<polygon fill="yellow" stroke="black" points="295.5,-539.5 295.5,-585.5 377.5,-585.5 377.5,-539.5 295.5,-539.5"/>
<text text-anchor="middle" x="336.5" y="-570.3" font-family="Times,serif" font-size="14.00">val : map</text>
<polyline fill="none" stroke="black" points="295.5,-562.5 377.5,-562.5 "/>
<text text-anchor="middle" x="336.5" y="-547.3" font-family="Times,serif" font-size="14.00">.</text>
</g>
<!-- p20 -->
<g id="node13" class="node"><title>p20</title>
<path fill="lightblue" stroke="black" d="M307,-235.5C307,-235.5 366,-235.5 366,-235.5 372,-235.5 378,-241.5 378,-247.5 378,-247.5 378,-315.5 378,-315.5 378,-321.5 372,-327.5 366,-327.5 366,-327.5 307,-327.5 307,-327.5 301,-327.5 295,-321.5 295,-315.5 295,-315.5 295,-247.5 295,-247.5 295,-241.5 301,-235.5 307,-235.5"/>
<text text-anchor="middle" x="336.5" y="-312.3" font-family="Times,serif" font-size="14.00">Tag : 247</text>
<polyline fill="none" stroke="black" points="295,-304.5 378,-304.5 "/>
<text text-anchor="middle" x="336.5" y="-289.3" font-family="Times,serif" font-size="14.00">.</text>
<polyline fill="none" stroke="black" points="295,-281.5 378,-281.5 "/>
<text text-anchor="middle" x="336.5" y="-266.3" font-family="Times,serif" font-size="14.00">2</text>
<polyline fill="none" stroke="black" points="295,-258.5 378,-258.5 "/>
<text text-anchor="middle" x="336.5" y="-243.3" font-family="Times,serif" font-size="14.00">.</text>
</g>
<!-- entry_2&#45;&gt;p20 -->
<g id="edge5" class="edge"><title>entry_2&#45;&gt;p20</title>
<path fill="none" stroke="black" d="M336.5,-539.14C336.5,-495.868 336.5,-399.528 336.5,-337.975"/>
<polygon fill="black" stroke="black" points="340,-337.658 336.5,-327.658 333,-337.658 340,-337.658"/>
</g>
<!-- entry_3 -->
<g id="node4" class="node"><title>entry_3</title>
<polygon fill="yellow" stroke="black" points="182,-539.5 182,-585.5 277,-585.5 277,-539.5 182,-539.5"/>
<text text-anchor="middle" x="229.5" y="-570.3" font-family="Times,serif" font-size="14.00">val : map_f</text>
<polyline fill="none" stroke="black" points="182,-562.5 277,-562.5 "/>
<text text-anchor="middle" x="229.5" y="-547.3" font-family="Times,serif" font-size="14.00">.</text>
</g>
<!-- p16 -->
<g id="node16" class="node"><title>p16</title>
<path fill="lightblue" stroke="black" d="M200,-387.5C200,-387.5 259,-387.5 259,-387.5 265,-387.5 271,-393.5 271,-399.5 271,-399.5 271,-490.5 271,-490.5 271,-496.5 265,-502.5 259,-502.5 259,-502.5 200,-502.5 200,-502.5 194,-502.5 188,-496.5 188,-490.5 188,-490.5 188,-399.5 188,-399.5 188,-393.5 194,-387.5 200,-387.5"/>
<text text-anchor="middle" x="229.5" y="-487.3" font-family="Times,serif" font-size="14.00">Tag : 247</text>
<polyline fill="none" stroke="black" points="188,-479.5 271,-479.5 "/>
<text text-anchor="middle" x="229.5" y="-464.3" font-family="Times,serif" font-size="14.00">.</text>
<polyline fill="none" stroke="black" points="188,-456.5 271,-456.5 "/>
<text text-anchor="middle" x="229.5" y="-441.3" font-family="Times,serif" font-size="14.00">1</text>
<polyline fill="none" stroke="black" points="188,-433.5 271,-433.5 "/>
<text text-anchor="middle" x="229.5" y="-418.3" font-family="Times,serif" font-size="14.00">.</text>
<polyline fill="none" stroke="black" points="188,-410.5 271,-410.5 "/>
<text text-anchor="middle" x="229.5" y="-395.3" font-family="Times,serif" font-size="14.00">.</text>
</g>
<!-- entry_3&#45;&gt;p16 -->
<g id="edge8" class="edge"><title>entry_3&#45;&gt;p16</title>
<path fill="none" stroke="black" d="M229.5,-539.23C229.5,-531.528 229.5,-522.451 229.5,-513.035"/>
<polygon fill="black" stroke="black" points="233,-512.735 229.5,-502.735 226,-512.735 233,-512.735"/>
</g>
<!-- entry_4 -->
<g id="node5" class="node"><title>entry_4</title>
<polygon fill="yellow" stroke="black" points="425.5,-539.5 425.5,-585.5 485.5,-585.5 485.5,-539.5 425.5,-539.5"/>
<text text-anchor="middle" x="455.5" y="-570.3" font-family="Times,serif" font-size="14.00">val : g</text>
<polyline fill="none" stroke="black" points="425.5,-562.5 485.5,-562.5 "/>
<text text-anchor="middle" x="455.5" y="-547.3" font-family="Times,serif" font-size="14.00">.</text>
</g>
<!-- p10 -->
<g id="node18" class="node"><title>p10</title>
<path fill="lightblue" stroke="black" d="M498,-83.5C498,-83.5 557,-83.5 557,-83.5 563,-83.5 569,-89.5 569,-95.5 569,-95.5 569,-163.5 569,-163.5 569,-169.5 563,-175.5 557,-175.5 557,-175.5 498,-175.5 498,-175.5 492,-175.5 486,-169.5 486,-163.5 486,-163.5 486,-95.5 486,-95.5 486,-89.5 492,-83.5 498,-83.5"/>
<text text-anchor="middle" x="527.5" y="-160.3" font-family="Times,serif" font-size="14.00">Tag : 247</text>
<polyline fill="none" stroke="black" points="486,-152.5 569,-152.5 "/>
<text text-anchor="middle" x="527.5" y="-137.3" font-family="Times,serif" font-size="14.00">.</text>
<polyline fill="none" stroke="black" points="486,-129.5 569,-129.5 "/>
<text text-anchor="middle" x="527.5" y="-114.3" font-family="Times,serif" font-size="14.00">3</text>
<polyline fill="none" stroke="black" points="486,-106.5 569,-106.5 "/>
<text text-anchor="middle" x="527.5" y="-91.3" font-family="Times,serif" font-size="14.00">.</text>
</g>
<!-- entry_4&#45;&gt;p10 -->
<g id="edge12" class="edge"><title>entry_4&#45;&gt;p10</title>
<path fill="none" stroke="black" d="M453.704,-539.199C449.887,-482.882 444.063,-330.946 480.5,-212 483.305,-202.843 487.291,-193.606 491.769,-184.805"/>
<polygon fill="black" stroke="black" points="494.949,-186.28 496.585,-175.813 488.778,-182.975 494.949,-186.28"/>
</g>
<!-- entry_5 -->
<g id="node6" class="node"><title>entry_5</title>
<polygon fill="yellow" stroke="black" points="504,-539.5 504,-585.5 573,-585.5 573,-539.5 504,-539.5"/>
<text text-anchor="middle" x="538.5" y="-570.3" font-family="Times,serif" font-size="14.00">val : g1</text>
<polyline fill="none" stroke="black" points="504,-562.5 573,-562.5 "/>
<text text-anchor="middle" x="538.5" y="-547.3" font-family="Times,serif" font-size="14.00">.</text>
</g>
<!-- p15 -->
<g id="node21" class="node"><title>p15</title>
<path fill="lightblue" stroke="black" d="M502,-212.5C502,-212.5 561,-212.5 561,-212.5 567,-212.5 573,-218.5 573,-224.5 573,-224.5 573,-338.5 573,-338.5 573,-344.5 567,-350.5 561,-350.5 561,-350.5 502,-350.5 502,-350.5 496,-350.5 490,-344.5 490,-338.5 490,-338.5 490,-224.5 490,-224.5 490,-218.5 496,-212.5 502,-212.5"/>
<text text-anchor="middle" x="531.5" y="-335.3" font-family="Times,serif" font-size="14.00">Tag : 247</text>
<polyline fill="none" stroke="black" points="490,-327.5 573,-327.5 "/>
<text text-anchor="middle" x="531.5" y="-312.3" font-family="Times,serif" font-size="14.00">.</text>
<polyline fill="none" stroke="black" points="490,-304.5 573,-304.5 "/>
<text text-anchor="middle" x="531.5" y="-289.3" font-family="Times,serif" font-size="14.00">2</text>
<polyline fill="none" stroke="black" points="490,-281.5 573,-281.5 "/>
<text text-anchor="middle" x="531.5" y="-266.3" font-family="Times,serif" font-size="14.00">.</text>
<polyline fill="none" stroke="black" points="490,-258.5 573,-258.5 "/>
<text text-anchor="middle" x="531.5" y="-243.3" font-family="Times,serif" font-size="14.00">5</text>
<polyline fill="none" stroke="black" points="490,-235.5 573,-235.5 "/>
<text text-anchor="middle" x="531.5" y="-220.3" font-family="Times,serif" font-size="14.00">.</text>
</g>
<!-- entry_5&#45;&gt;p15 -->
<g id="edge15" class="edge"><title>entry_5&#45;&gt;p15</title>
<path fill="none" stroke="black" d="M537.939,-539.14C536.981,-500.941 534.985,-421.387 533.467,-360.915"/>
<polygon fill="black" stroke="black" points="536.959,-360.533 533.209,-350.623 529.961,-360.708 536.959,-360.533"/>
</g>
<!-- entry_6 -->
<g id="node7" class="node"><title>entry_6</title>
<polygon fill="yellow" stroke="black" points="600,-539.5 600,-585.5 669,-585.5 669,-539.5 600,-539.5"/>
<text text-anchor="middle" x="634.5" y="-570.3" font-family="Times,serif" font-size="14.00">val : g2</text>
<polyline fill="none" stroke="black" points="600,-562.5 669,-562.5 "/>
<text text-anchor="middle" x="634.5" y="-547.3" font-family="Times,serif" font-size="14.00">.</text>
</g>
<!-- p13 -->
<g id="node24" class="node"><title>p13</title>
<path fill="lightblue" stroke="black" d="M605,-387.5C605,-387.5 664,-387.5 664,-387.5 670,-387.5 676,-393.5 676,-399.5 676,-399.5 676,-490.5 676,-490.5 676,-496.5 670,-502.5 664,-502.5 664,-502.5 605,-502.5 605,-502.5 599,-502.5 593,-496.5 593,-490.5 593,-490.5 593,-399.5 593,-399.5 593,-393.5 599,-387.5 605,-387.5"/>
<text text-anchor="middle" x="634.5" y="-487.3" font-family="Times,serif" font-size="14.00">Tag : 247</text>
<polyline fill="none" stroke="black" points="593,-479.5 676,-479.5 "/>
<text text-anchor="middle" x="634.5" y="-464.3" font-family="Times,serif" font-size="14.00">.</text>
<polyline fill="none" stroke="black" points="593,-456.5 676,-456.5 "/>
<text text-anchor="middle" x="634.5" y="-441.3" font-family="Times,serif" font-size="14.00">1</text>
<polyline fill="none" stroke="black" points="593,-433.5 676,-433.5 "/>
<text text-anchor="middle" x="634.5" y="-418.3" font-family="Times,serif" font-size="14.00">42</text>
<polyline fill="none" stroke="black" points="593,-410.5 676,-410.5 "/>
<text text-anchor="middle" x="634.5" y="-395.3" font-family="Times,serif" font-size="14.00">.</text>
</g>
<!-- entry_6&#45;&gt;p13 -->
<g id="edge19" class="edge"><title>entry_6&#45;&gt;p13</title>
<path fill="none" stroke="black" d="M634.5,-539.23C634.5,-531.528 634.5,-522.451 634.5,-513.035"/>
<polygon fill="black" stroke="black" points="638,-512.735 634.5,-502.735 631,-512.735 638,-512.735"/>
</g>
<!-- entry_7 -->
<g id="node8" class="node"><title>entry_7</title>
<polygon fill="yellow" stroke="black" points="709,-539.5 709,-585.5 778,-585.5 778,-539.5 709,-539.5"/>
<text text-anchor="middle" x="743.5" y="-570.3" font-family="Times,serif" font-size="14.00">val : g3</text>
<polyline fill="none" stroke="black" points="709,-562.5 778,-562.5 "/>
<text text-anchor="middle" x="743.5" y="-547.3" font-family="Times,serif" font-size="14.00">.</text>
</g>
<!-- p7 -->
<g id="node26" class="node"><title>p7</title>
<path fill="lightblue" stroke="black" d="M714,-212.5C714,-212.5 773,-212.5 773,-212.5 779,-212.5 785,-218.5 785,-224.5 785,-224.5 785,-338.5 785,-338.5 785,-344.5 779,-350.5 773,-350.5 773,-350.5 714,-350.5 714,-350.5 708,-350.5 702,-344.5 702,-338.5 702,-338.5 702,-224.5 702,-224.5 702,-218.5 708,-212.5 714,-212.5"/>
<text text-anchor="middle" x="743.5" y="-335.3" font-family="Times,serif" font-size="14.00">Tag : 247</text>
<polyline fill="none" stroke="black" points="702,-327.5 785,-327.5 "/>
<text text-anchor="middle" x="743.5" y="-312.3" font-family="Times,serif" font-size="14.00">.</text>
<polyline fill="none" stroke="black" points="702,-304.5 785,-304.5 "/>
<text text-anchor="middle" x="743.5" y="-289.3" font-family="Times,serif" font-size="14.00">2</text>
<polyline fill="none" stroke="black" points="702,-281.5 785,-281.5 "/>
<text text-anchor="middle" x="743.5" y="-266.3" font-family="Times,serif" font-size="14.00">.</text>
<polyline fill="none" stroke="black" points="702,-258.5 785,-258.5 "/>
<text text-anchor="middle" x="743.5" y="-243.3" font-family="Times,serif" font-size="14.00">7</text>
<polyline fill="none" stroke="black" points="702,-235.5 785,-235.5 "/>
<text text-anchor="middle" x="743.5" y="-220.3" font-family="Times,serif" font-size="14.00">.</text>
</g>
<!-- entry_7&#45;&gt;p7 -->
<g id="edge22" class="edge"><title>entry_7&#45;&gt;p7</title>
<path fill="none" stroke="black" d="M743.5,-539.14C743.5,-500.941 743.5,-421.387 743.5,-360.915"/>
<polygon fill="black" stroke="black" points="747,-360.623 743.5,-350.623 740,-360.624 747,-360.623"/>
</g>
<!-- p24 -->
<g id="node10" class="node"><title>p24</title>
<path fill="lightblue" stroke="black" d="M12,-247C12,-247 53,-247 53,-247 59,-247 65,-253 65,-259 65,-259 65,-304 65,-304 65,-310 59,-316 53,-316 53,-316 12,-316 12,-316 6,-316 0,-310 0,-304 0,-304 0,-259 0,-259 0,-253 6,-247 12,-247"/>
<text text-anchor="middle" x="32.5" y="-300.8" font-family="Times,serif" font-size="14.00">Tag : 0</text>
<polyline fill="none" stroke="black" points="0,-293 65,-293 "/>
<text text-anchor="middle" x="32.5" y="-277.8" font-family="Times,serif" font-size="14.00">6</text>
<polyline fill="none" stroke="black" points="0,-270 65,-270 "/>
<text text-anchor="middle" x="32.5" y="-254.8" font-family="Times,serif" font-size="14.00">0</text>
</g>
<!-- p23&#45;&gt;p24 -->
<g id="edge2" class="edge"><title>p23:f1&#45;&gt;p24:head</title>
<path fill="none" stroke="black" d="M32.5,-409C32.5,-371.987 32.5,-360.24 32.5,-327.767"/>
<polygon fill="black" stroke="black" points="36.0001,-327.5 32.5,-317.5 29.0001,-327.5 36.0001,-327.5"/>
</g>
<!-- p19 -->
<g id="node12" class="node"><title>p19</title>
<path fill="lightblue" stroke="black" d="M90.5,-106.5C90.5,-106.5 158.5,-106.5 158.5,-106.5 164.5,-106.5 170.5,-112.5 170.5,-118.5 170.5,-118.5 170.5,-140.5 170.5,-140.5 170.5,-146.5 164.5,-152.5 158.5,-152.5 158.5,-152.5 90.5,-152.5 90.5,-152.5 84.5,-152.5 78.5,-146.5 78.5,-140.5 78.5,-140.5 78.5,-118.5 78.5,-118.5 78.5,-112.5 84.5,-106.5 90.5,-106.5"/>
<text text-anchor="middle" x="124.5" y="-137.3" font-family="Times,serif" font-size="14.00">Tag : 1001</text>
<polyline fill="none" stroke="black" points="78.5,-129.5 170.5,-129.5 "/>
<text text-anchor="middle" x="124.5" y="-114.3" font-family="Times,serif" font-size="14.00">? 2110256</text>
</g>
<!-- p18&#45;&gt;p19 -->
<g id="edge4" class="edge"><title>p18:f0&#45;&gt;p19:head</title>
<path fill="none" stroke="black" d="M167.5,-281.5C183.062,-281.5 169.993,-261.665 166.5,-246.5 157.156,-205.93 129.575,-199.693 125.113,-163.861"/>
<polygon fill="black" stroke="black" points="128.584,-163.276 124.5,-153.5 121.597,-163.689 128.584,-163.276"/>
</g>
<!-- p21 -->
<g id="node14" class="node"><title>p21</title>
<path fill="lightblue" stroke="black" d="M239.5,-106.5C239.5,-106.5 307.5,-106.5 307.5,-106.5 313.5,-106.5 319.5,-112.5 319.5,-118.5 319.5,-118.5 319.5,-140.5 319.5,-140.5 319.5,-146.5 313.5,-152.5 307.5,-152.5 307.5,-152.5 239.5,-152.5 239.5,-152.5 233.5,-152.5 227.5,-146.5 227.5,-140.5 227.5,-140.5 227.5,-118.5 227.5,-118.5 227.5,-112.5 233.5,-106.5 239.5,-106.5"/>
<text text-anchor="middle" x="273.5" y="-137.3" font-family="Times,serif" font-size="14.00">Tag : 1001</text>
<polyline fill="none" stroke="black" points="227.5,-129.5 319.5,-129.5 "/>
<text text-anchor="middle" x="273.5" y="-114.3" font-family="Times,serif" font-size="14.00">? 2109808</text>
</g>
<!-- p20&#45;&gt;p21 -->
<g id="edge6" class="edge"><title>p20:f0&#45;&gt;p21:head</title>
<path fill="none" stroke="black" d="M293.5,-293.5C280.498,-293.5 292.473,-247.843 294.5,-235 297.166,-218.108 325.513,-169.213 326.383,-149.691"/>
<polygon fill="black" stroke="black" points="329.177,-147.58 320.5,-141.5 323.491,-151.664 329.177,-147.58"/>
</g>
<!-- p22 -->
<g id="node15" class="node"><title>p22</title>
<path fill="lightblue" stroke="black" d="M349.5,-106.5C349.5,-106.5 417.5,-106.5 417.5,-106.5 423.5,-106.5 429.5,-112.5 429.5,-118.5 429.5,-118.5 429.5,-140.5 429.5,-140.5 429.5,-146.5 423.5,-152.5 417.5,-152.5 417.5,-152.5 349.5,-152.5 349.5,-152.5 343.5,-152.5 337.5,-146.5 337.5,-140.5 337.5,-140.5 337.5,-118.5 337.5,-118.5 337.5,-112.5 343.5,-106.5 349.5,-106.5"/>
<text text-anchor="middle" x="383.5" y="-137.3" font-family="Times,serif" font-size="14.00">Tag : 1001</text>
<polyline fill="none" stroke="black" points="337.5,-129.5 429.5,-129.5 "/>
<text text-anchor="middle" x="383.5" y="-114.3" font-family="Times,serif" font-size="14.00">? 2133224</text>
</g>
<!-- p20&#45;&gt;p22 -->
<g id="edge7" class="edge"><title>p20:f2&#45;&gt;p22:head</title>
<path fill="none" stroke="black" d="M336.5,-234.5C336.5,-196.618 375.434,-195.073 382.43,-163.72"/>
<polygon fill="black" stroke="black" points="385.94,-163.81 383.5,-153.5 378.978,-163.081 385.94,-163.81"/>
</g>
<!-- p16&#45;&gt;p18 -->
<g id="edge10" class="edge"><title>p16:f2&#45;&gt;p18:head</title>
<path fill="none" stroke="black" d="M186.5,-422C183.788,-422 174.965,-342.933 170.057,-314.518"/>
<polygon fill="black" stroke="black" points="173.364,-313.324 167.5,-304.5 166.581,-315.055 173.364,-313.324"/>
</g>
<!-- p16&#45;&gt;p20 -->
<g id="edge11" class="edge"><title>p16:f3&#45;&gt;p20:head</title>
<path fill="none" stroke="black" d="M272.5,-399C294.602,-399 280.114,-372.436 285.5,-351 286.714,-346.17 286.443,-333.637 288.075,-325.085"/>
<polygon fill="black" stroke="black" points="291.117,-326.823 293.5,-316.5 285.199,-323.084 291.117,-326.823"/>
</g>
<!-- p17 -->
<g id="node17" class="node"><title>p17</title>
<path fill="lightblue" stroke="black" d="M196.5,-258.5C196.5,-258.5 264.5,-258.5 264.5,-258.5 270.5,-258.5 276.5,-264.5 276.5,-270.5 276.5,-270.5 276.5,-292.5 276.5,-292.5 276.5,-298.5 270.5,-304.5 264.5,-304.5 264.5,-304.5 196.5,-304.5 196.5,-304.5 190.5,-304.5 184.5,-298.5 184.5,-292.5 184.5,-292.5 184.5,-270.5 184.5,-270.5 184.5,-264.5 190.5,-258.5 196.5,-258.5"/>
<text text-anchor="middle" x="230.5" y="-289.3" font-family="Times,serif" font-size="14.00">Tag : 1001</text>
<polyline fill="none" stroke="black" points="184.5,-281.5 276.5,-281.5 "/>
<text text-anchor="middle" x="230.5" y="-266.3" font-family="Times,serif" font-size="14.00">? 2109848</text>
</g>
<!-- p16&#45;&gt;p17 -->
<g id="edge9" class="edge"><title>p16:f0&#45;&gt;p17:head</title>
<path fill="none" stroke="black" d="M272.5,-468C308.503,-468 280.031,-421.977 271.5,-387 262.756,-351.146 235.965,-346.633 231.222,-315.54"/>
<polygon fill="black" stroke="black" points="234.708,-315.223 230.5,-305.5 227.726,-315.725 234.708,-315.223"/>
</g>
<!-- p11 -->
<g id="node19" class="node"><title>p11</title>
<path fill="lightblue" stroke="black" d="M438.5,-0.5C438.5,-0.5 506.5,-0.5 506.5,-0.5 512.5,-0.5 518.5,-6.5 518.5,-12.5 518.5,-12.5 518.5,-34.5 518.5,-34.5 518.5,-40.5 512.5,-46.5 506.5,-46.5 506.5,-46.5 438.5,-46.5 438.5,-46.5 432.5,-46.5 426.5,-40.5 426.5,-34.5 426.5,-34.5 426.5,-12.5 426.5,-12.5 426.5,-6.5 432.5,-0.5 438.5,-0.5"/>
<text text-anchor="middle" x="472.5" y="-31.3" font-family="Times,serif" font-size="14.00">Tag : 1001</text>
<polyline fill="none" stroke="black" points="426.5,-23.5 518.5,-23.5 "/>
<text text-anchor="middle" x="472.5" y="-8.3" font-family="Times,serif" font-size="14.00">? 2109688</text>
</g>
<!-- p10&#45;&gt;p11 -->
<g id="edge13" class="edge"><title>p10:f0&#45;&gt;p11:head</title>
<path fill="none" stroke="black" d="M484.5,-141.5C458.496,-141.5 475.866,-107.153 485.5,-83 491.211,-68.682 511.279,-54.621 521.208,-45.5595"/>
<polygon fill="black" stroke="black" points="524.624,-44.7732 519.5,-35.5 517.723,-45.9447 524.624,-44.7732"/>
</g>
<!-- p12 -->
<g id="node20" class="node"><title>p12</title>
<path fill="lightblue" stroke="black" d="M548.5,-0.5C548.5,-0.5 616.5,-0.5 616.5,-0.5 622.5,-0.5 628.5,-6.5 628.5,-12.5 628.5,-12.5 628.5,-34.5 628.5,-34.5 628.5,-40.5 622.5,-46.5 616.5,-46.5 616.5,-46.5 548.5,-46.5 548.5,-46.5 542.5,-46.5 536.5,-40.5 536.5,-34.5 536.5,-34.5 536.5,-12.5 536.5,-12.5 536.5,-6.5 542.5,-0.5 548.5,-0.5"/>
<text text-anchor="middle" x="582.5" y="-31.3" font-family="Times,serif" font-size="14.00">Tag : 1001</text>
<polyline fill="none" stroke="black" points="536.5,-23.5 628.5,-23.5 "/>
<text text-anchor="middle" x="582.5" y="-8.3" font-family="Times,serif" font-size="14.00">? 2110264</text>
</g>
<!-- p10&#45;&gt;p12 -->
<g id="edge14" class="edge"><title>p10:f2&#45;&gt;p12:head</title>
<path fill="none" stroke="black" d="M570.5,-94.5C593.129,-94.5 546.094,-62.0003 532.802,-45.2427"/>
<polygon fill="black" stroke="black" points="536.204,-46.0714 535.5,-35.5 529.458,-44.2032 536.204,-46.0714"/>
</g>
<!-- p15&#45;&gt;p10 -->
<g id="edge18" class="edge"><title>p15:f4&#45;&gt;p10:head</title>
<path fill="none" stroke="black" d="M531.5,-212C531.5,-199.926 529.25,-194.768 528.125,-186.153"/>
<polygon fill="black" stroke="black" points="531.608,-185.766 527.5,-176 524.621,-186.196 531.608,-185.766"/>
</g>
<!-- p8 -->
<g id="node22" class="node"><title>p8</title>
<path fill="lightblue" stroke="black" d="M599.5,-106.5C599.5,-106.5 667.5,-106.5 667.5,-106.5 673.5,-106.5 679.5,-112.5 679.5,-118.5 679.5,-118.5 679.5,-140.5 679.5,-140.5 679.5,-146.5 673.5,-152.5 667.5,-152.5 667.5,-152.5 599.5,-152.5 599.5,-152.5 593.5,-152.5 587.5,-146.5 587.5,-140.5 587.5,-140.5 587.5,-118.5 587.5,-118.5 587.5,-112.5 593.5,-106.5 599.5,-106.5"/>
<text text-anchor="middle" x="633.5" y="-137.3" font-family="Times,serif" font-size="14.00">Tag : 1001</text>
<polyline fill="none" stroke="black" points="587.5,-129.5 679.5,-129.5 "/>
<text text-anchor="middle" x="633.5" y="-114.3" font-family="Times,serif" font-size="14.00">? 2109752</text>
</g>
<!-- p15&#45;&gt;p8 -->
<g id="edge16" class="edge"><title>p15:f0&#45;&gt;p8:head</title>
<path fill="none" stroke="black" d="M574.5,-316.5C591.402,-316.5 573.357,-184.898 580.976,-149.941"/>
<polygon fill="black" stroke="black" points="583.952,-151.784 586.5,-141.5 578.095,-147.951 583.952,-151.784"/>
</g>
<!-- p9 -->
<g id="node23" class="node"><title>p9</title>
<path fill="lightblue" stroke="black" d="M709.5,-106.5C709.5,-106.5 777.5,-106.5 777.5,-106.5 783.5,-106.5 789.5,-112.5 789.5,-118.5 789.5,-118.5 789.5,-140.5 789.5,-140.5 789.5,-146.5 783.5,-152.5 777.5,-152.5 777.5,-152.5 709.5,-152.5 709.5,-152.5 703.5,-152.5 697.5,-146.5 697.5,-140.5 697.5,-140.5 697.5,-118.5 697.5,-118.5 697.5,-112.5 703.5,-106.5 709.5,-106.5"/>
<text text-anchor="middle" x="743.5" y="-137.3" font-family="Times,serif" font-size="14.00">Tag : 1001</text>
<polyline fill="none" stroke="black" points="697.5,-129.5 789.5,-129.5 "/>
<text text-anchor="middle" x="743.5" y="-114.3" font-family="Times,serif" font-size="14.00">? 2109736</text>
</g>
<!-- p15&#45;&gt;p9 -->
<g id="edge17" class="edge"><title>p15:f2&#45;&gt;p9:head</title>
<path fill="none" stroke="black" d="M574.5,-269.5C587.401,-269.5 574.28,-221.943 582.5,-212 614.202,-173.653 655.113,-212.888 688.5,-176 695.184,-168.615 690.309,-156.761 689.816,-149.052"/>
<polygon fill="black" stroke="black" points="692.493,-151.308 696.5,-141.5 687.251,-146.669 692.493,-151.308"/>
</g>
<!-- p13&#45;&gt;p15 -->
<g id="edge21" class="edge"><title>p13:f3&#45;&gt;p15:head</title>
<path fill="none" stroke="black" d="M591.5,-399C580.972,-399 584.661,-364.122 580.796,-347.773"/>
<polygon fill="black" stroke="black" points="583.341,-345.338 574.5,-339.5 577.771,-349.577 583.341,-345.338"/>
</g>
<!-- p14 -->
<g id="node25" class="node"><title>p14</title>
<path fill="lightblue" stroke="black" d="M603.5,-258.5C603.5,-258.5 671.5,-258.5 671.5,-258.5 677.5,-258.5 683.5,-264.5 683.5,-270.5 683.5,-270.5 683.5,-292.5 683.5,-292.5 683.5,-298.5 677.5,-304.5 671.5,-304.5 671.5,-304.5 603.5,-304.5 603.5,-304.5 597.5,-304.5 591.5,-298.5 591.5,-292.5 591.5,-292.5 591.5,-270.5 591.5,-270.5 591.5,-264.5 597.5,-258.5 603.5,-258.5"/>
<text text-anchor="middle" x="637.5" y="-289.3" font-family="Times,serif" font-size="14.00">Tag : 1001</text>
<polyline fill="none" stroke="black" points="591.5,-281.5 683.5,-281.5 "/>
<text text-anchor="middle" x="637.5" y="-266.3" font-family="Times,serif" font-size="14.00">? 2109792</text>
</g>
<!-- p13&#45;&gt;p14 -->
<g id="edge20" class="edge"><title>p13:f0&#45;&gt;p14:head</title>
<path fill="none" stroke="black" d="M677.5,-468C713.503,-468 684.684,-422.06 676.5,-387 668.227,-351.562 642.919,-346.4 638.246,-315.856"/>
<polygon fill="black" stroke="black" points="641.709,-315.223 637.5,-305.5 634.728,-315.726 641.709,-315.223"/>
</g>
<!-- p7&#45;&gt;p10 -->
<g id="edge25" class="edge"><title>p7:f4&#45;&gt;p10:head</title>
<path fill="none" stroke="black" d="M700.5,-223.5C694.274,-223.5 697.515,-215.69 692.5,-212 649.706,-180.507 621.294,-207.493 578.5,-176 577.403,-175.193 576.701,-174.188 576.209,-173.112"/>
<polygon fill="black" stroke="black" points="578.943,-170.901 570.5,-164.5 573.108,-174.769 578.943,-170.901"/>
</g>
<!-- p7&#45;&gt;p8 -->
<g id="edge23" class="edge"><title>p7:f0&#45;&gt;p8:head</title>
<path fill="none" stroke="black" d="M700.5,-316.5C688.855,-316.5 693.923,-223.558 692.5,-212 692.13,-208.996 687.666,-169.663 683.804,-151.089"/>
<polygon fill="black" stroke="black" points="687.067,-149.814 680.5,-141.5 680.449,-152.095 687.067,-149.814"/>
</g>
<!-- p7&#45;&gt;p9 -->
<g id="edge24" class="edge"><title>p7:f2&#45;&gt;p9:head</title>
<path fill="none" stroke="black" d="M786.5,-269.5C812.059,-269.5 793.541,-236.262 785.5,-212 776.65,-185.297 750.913,-185.068 744.809,-163.673"/>
<polygon fill="black" stroke="black" points="748.248,-162.971 743.5,-153.5 741.305,-163.865 748.248,-162.971"/>
</g>
</g>
</svg>
