<?xml version="1.0" encoding="UTF-8" standalone="no"?>
<!DOCTYPE svg PUBLIC "-//W3C//DTD SVG 1.1//EN"
 "http://www.w3.org/Graphics/SVG/1.1/DTD/svg11.dtd">
<!-- Generated by graphviz version 2.44.1 (0)
 -->
<!-- Title: g Pages: 1 -->
<svg width="892pt" height="456pt"
 viewBox="0.00 0.00 892.45 456.00" xmlns="http://www.w3.org/2000/svg" xmlns:xlink="http://www.w3.org/1999/xlink">
<g id="graph0" class="graph" transform="scale(1 1) rotate(0) translate(4 452)">
<title>g</title>
<polygon fill="white" stroke="transparent" points="-4,4 -4,-452 888.45,-452 888.45,4 -4,4"/>
<!-- entry_0 -->
<g id="node1" class="node">
<title>entry_0</title>
<polygon fill="yellow" stroke="black" points="0,-401.5 0,-447.5 62,-447.5 62,-401.5 0,-401.5"/>
<text text-anchor="middle" x="31" y="-432.3" font-family="Times,serif" font-size="14.00">val : []</text>
<polyline fill="none" stroke="black" points="0,-424.5 62,-424.5 "/>
<text text-anchor="middle" x="31" y="-409.3" font-family="Times,serif" font-size="14.00">0</text>
</g>
<!-- entry_1 -->
<g id="node2" class="node">
<title>entry_1</title>
<polygon fill="yellow" stroke="black" points="80,-401.5 80,-447.5 178,-447.5 178,-401.5 80,-401.5"/>
<text text-anchor="middle" x="129" y="-432.3" font-family="Times,serif" font-size="14.00">val : [1;2;3]</text>
<polyline fill="none" stroke="black" points="80,-424.5 178,-424.5 "/>
<text text-anchor="middle" x="129" y="-409.3" font-family="Times,serif" font-size="14.00">.</text>
</g>
<!-- p15 -->
<g id="node8" class="node">
<title>p15</title>
<path fill="lightblue" stroke="black" d="M108.5,-295.5C108.5,-295.5 149.5,-295.5 149.5,-295.5 155.5,-295.5 161.5,-301.5 161.5,-307.5 161.5,-307.5 161.5,-352.5 161.5,-352.5 161.5,-358.5 155.5,-364.5 149.5,-364.5 149.5,-364.5 108.5,-364.5 108.5,-364.5 102.5,-364.5 96.5,-358.5 96.5,-352.5 96.5,-352.5 96.5,-307.5 96.5,-307.5 96.5,-301.5 102.5,-295.5 108.5,-295.5"/>
<text text-anchor="middle" x="129" y="-349.3" font-family="Times,serif" font-size="14.00">Tag : 0</text>
<polyline fill="none" stroke="black" points="96.5,-341.5 161.5,-341.5 "/>
<text text-anchor="middle" x="129" y="-326.3" font-family="Times,serif" font-size="14.00">1</text>
<polyline fill="none" stroke="black" points="96.5,-318.5 161.5,-318.5 "/>
<text text-anchor="middle" x="129" y="-303.3" font-family="Times,serif" font-size="14.00">.</text>
</g>
<!-- entry_1&#45;&gt;p15 -->
<g id="edge1" class="edge">
<title>entry_1&#45;&gt;p15:head</title>
<path fill="none" stroke="black" d="M129,-401.28C129,-393.34 129,-384.11 129,-375.06"/>
<polygon fill="black" stroke="black" points="132.5,-375 129,-365 125.5,-375 132.5,-375"/>
</g>
<!-- entry_2 -->
<g id="node3" class="node">
<title>entry_2</title>
<polygon fill="yellow" stroke="black" points="196.5,-401.5 196.5,-447.5 307.5,-447.5 307.5,-401.5 196.5,-401.5"/>
<text text-anchor="middle" x="252" y="-432.3" font-family="Times,serif" font-size="14.00">val : [1.;2.;3.]</text>
<polyline fill="none" stroke="black" points="196.5,-424.5 307.5,-424.5 "/>
<text text-anchor="middle" x="252" y="-409.3" font-family="Times,serif" font-size="14.00">.</text>
</g>
<!-- p9 -->
<g id="node11" class="node">
<title>p9</title>
<path fill="lightblue" stroke="black" d="M231.5,-295.5C231.5,-295.5 272.5,-295.5 272.5,-295.5 278.5,-295.5 284.5,-301.5 284.5,-307.5 284.5,-307.5 284.5,-352.5 284.5,-352.5 284.5,-358.5 278.5,-364.5 272.5,-364.5 272.5,-364.5 231.5,-364.5 231.5,-364.5 225.5,-364.5 219.5,-358.5 219.5,-352.5 219.5,-352.5 219.5,-307.5 219.5,-307.5 219.5,-301.5 225.5,-295.5 231.5,-295.5"/>
<text text-anchor="middle" x="252" y="-349.3" font-family="Times,serif" font-size="14.00">Tag : 0</text>
<polyline fill="none" stroke="black" points="219.5,-341.5 284.5,-341.5 "/>
<text text-anchor="middle" x="252" y="-326.3" font-family="Times,serif" font-size="14.00">.</text>
<polyline fill="none" stroke="black" points="219.5,-318.5 284.5,-318.5 "/>
<text text-anchor="middle" x="252" y="-303.3" font-family="Times,serif" font-size="14.00">.</text>
</g>
<!-- entry_2&#45;&gt;p9 -->
<g id="edge4" class="edge">
<title>entry_2&#45;&gt;p9:head</title>
<path fill="none" stroke="black" d="M252,-401.28C252,-393.34 252,-384.11 252,-375.06"/>
<polygon fill="black" stroke="black" points="255.5,-375 252,-365 248.5,-375 255.5,-375"/>
</g>
<!-- entry_3 -->
<g id="node4" class="node">
<title>entry_3</title>
<polygon fill="yellow" stroke="black" points="339.5,-401.5 339.5,-447.5 444.5,-447.5 444.5,-401.5 339.5,-401.5"/>
<text text-anchor="middle" x="392" y="-432.3" font-family="Times,serif" font-size="14.00">val : l = [42]</text>
<polyline fill="none" stroke="black" points="339.5,-424.5 444.5,-424.5 "/>
<text text-anchor="middle" x="392" y="-409.3" font-family="Times,serif" font-size="14.00">.</text>
</g>
<!-- p6 -->
<g id="node17" class="node">
<title>p6</title>
<path fill="lightblue" stroke="black" d="M497.5,-83.5C497.5,-83.5 538.5,-83.5 538.5,-83.5 544.5,-83.5 550.5,-89.5 550.5,-95.5 550.5,-95.5 550.5,-140.5 550.5,-140.5 550.5,-146.5 544.5,-152.5 538.5,-152.5 538.5,-152.5 497.5,-152.5 497.5,-152.5 491.5,-152.5 485.5,-146.5 485.5,-140.5 485.5,-140.5 485.5,-95.5 485.5,-95.5 485.5,-89.5 491.5,-83.5 497.5,-83.5"/>
<text text-anchor="middle" x="518" y="-137.3" font-family="Times,serif" font-size="14.00">Tag : 0</text>
<polyline fill="none" stroke="black" points="485.5,-129.5 550.5,-129.5 "/>
<text text-anchor="middle" x="518" y="-114.3" font-family="Times,serif" font-size="14.00">42</text>
<polyline fill="none" stroke="black" points="485.5,-106.5 550.5,-106.5 "/>
<text text-anchor="middle" x="518" y="-91.3" font-family="Times,serif" font-size="14.00">0</text>
</g>
<!-- entry_3&#45;&gt;p6 -->
<g id="edge10" class="edge">
<title>entry_3&#45;&gt;p6:head</title>
<path fill="none" stroke="black" d="M389.53,-401.33C383.52,-336.88 375.21,-153.35 473.79,-141.59"/>
<polygon fill="black" stroke="black" points="474.22,-145.07 484,-141 473.81,-138.09 474.22,-145.07"/>
</g>
<!-- entry_4 -->
<g id="node5" class="node">
<title>entry_4</title>
<polygon fill="yellow" stroke="black" points="463,-401.5 463,-447.5 573,-447.5 573,-401.5 463,-401.5"/>
<text text-anchor="middle" x="518" y="-432.3" font-family="Times,serif" font-size="14.00">val : 1 :: 2 :: l</text>
<polyline fill="none" stroke="black" points="463,-424.5 573,-424.5 "/>
<text text-anchor="middle" x="518" y="-409.3" font-family="Times,serif" font-size="14.00">.</text>
</g>
<!-- p7 -->
<g id="node18" class="node">
<title>p7</title>
<path fill="lightblue" stroke="black" d="M497.5,-295.5C497.5,-295.5 538.5,-295.5 538.5,-295.5 544.5,-295.5 550.5,-301.5 550.5,-307.5 550.5,-307.5 550.5,-352.5 550.5,-352.5 550.5,-358.5 544.5,-364.5 538.5,-364.5 538.5,-364.5 497.5,-364.5 497.5,-364.5 491.5,-364.5 485.5,-358.5 485.5,-352.5 485.5,-352.5 485.5,-307.5 485.5,-307.5 485.5,-301.5 491.5,-295.5 497.5,-295.5"/>
<text text-anchor="middle" x="518" y="-349.3" font-family="Times,serif" font-size="14.00">Tag : 0</text>
<polyline fill="none" stroke="black" points="485.5,-341.5 550.5,-341.5 "/>
<text text-anchor="middle" x="518" y="-326.3" font-family="Times,serif" font-size="14.00">1</text>
<polyline fill="none" stroke="black" points="485.5,-318.5 550.5,-318.5 "/>
<text text-anchor="middle" x="518" y="-303.3" font-family="Times,serif" font-size="14.00">.</text>
</g>
<!-- entry_4&#45;&gt;p7 -->
<g id="edge11" class="edge">
<title>entry_4&#45;&gt;p7:head</title>
<path fill="none" stroke="black" d="M518,-401.28C518,-393.34 518,-384.11 518,-375.06"/>
<polygon fill="black" stroke="black" points="521.5,-375 518,-365 514.5,-375 521.5,-375"/>
</g>
<!-- entry_5 -->
<g id="node6" class="node">
<title>entry_5</title>
<polygon fill="yellow" stroke="black" points="591,-401.5 591,-447.5 701,-447.5 701,-401.5 591,-401.5"/>
<text text-anchor="middle" x="646" y="-432.3" font-family="Times,serif" font-size="14.00">val : 3 :: 4 :: l</text>
<polyline fill="none" stroke="black" points="591,-424.5 701,-424.5 "/>
<text text-anchor="middle" x="646" y="-409.3" font-family="Times,serif" font-size="14.00">.</text>
</g>
<!-- p4 -->
<g id="node20" class="node">
<title>p4</title>
<path fill="lightblue" stroke="black" d="M613.5,-295.5C613.5,-295.5 654.5,-295.5 654.5,-295.5 660.5,-295.5 666.5,-301.5 666.5,-307.5 666.5,-307.5 666.5,-352.5 666.5,-352.5 666.5,-358.5 660.5,-364.5 654.5,-364.5 654.5,-364.5 613.5,-364.5 613.5,-364.5 607.5,-364.5 601.5,-358.5 601.5,-352.5 601.5,-352.5 601.5,-307.5 601.5,-307.5 601.5,-301.5 607.5,-295.5 613.5,-295.5"/>
<text text-anchor="middle" x="634" y="-349.3" font-family="Times,serif" font-size="14.00">Tag : 0</text>
<polyline fill="none" stroke="black" points="601.5,-341.5 666.5,-341.5 "/>
<text text-anchor="middle" x="634" y="-326.3" font-family="Times,serif" font-size="14.00">3</text>
<polyline fill="none" stroke="black" points="601.5,-318.5 666.5,-318.5 "/>
<text text-anchor="middle" x="634" y="-303.3" font-family="Times,serif" font-size="14.00">.</text>
</g>
<!-- entry_5&#45;&gt;p4 -->
<g id="edge14" class="edge">
<title>entry_5&#45;&gt;p4:head</title>
<path fill="none" stroke="black" d="M639.3,-401.49C637.3,-393.59 635.41,-384.37 634.52,-375.22"/>
<polygon fill="black" stroke="black" points="638.01,-374.81 634,-365 631.02,-375.17 638.01,-374.81"/>
</g>
<!-- entry_6 -->
<g id="node7" class="node">
<title>entry_6</title>
<polygon fill="yellow" stroke="black" points="729.5,-401.5 729.5,-447.5 820.5,-447.5 820.5,-401.5 729.5,-401.5"/>
<text text-anchor="middle" x="775" y="-432.3" font-family="Times,serif" font-size="14.00">val : cyclic</text>
<polyline fill="none" stroke="black" points="729.5,-424.5 820.5,-424.5 "/>
<text text-anchor="middle" x="775" y="-409.3" font-family="Times,serif" font-size="14.00">.</text>
</g>
<!-- p1 -->
<g id="node22" class="node">
<title>p1</title>
<path fill="lightblue" stroke="black" d="M754.5,-295.5C754.5,-295.5 795.5,-295.5 795.5,-295.5 801.5,-295.5 807.5,-301.5 807.5,-307.5 807.5,-307.5 807.5,-352.5 807.5,-352.5 807.5,-358.5 801.5,-364.5 795.5,-364.5 795.5,-364.5 754.5,-364.5 754.5,-364.5 748.5,-364.5 742.5,-358.5 742.5,-352.5 742.5,-352.5 742.5,-307.5 742.5,-307.5 742.5,-301.5 748.5,-295.5 754.5,-295.5"/>
<text text-anchor="middle" x="775" y="-349.3" font-family="Times,serif" font-size="14.00">Tag : 0</text>
<polyline fill="none" stroke="black" points="742.5,-341.5 807.5,-341.5 "/>
<text text-anchor="middle" x="775" y="-326.3" font-family="Times,serif" font-size="14.00">1</text>
<polyline fill="none" stroke="black" points="742.5,-318.5 807.5,-318.5 "/>
<text text-anchor="middle" x="775" y="-303.3" font-family="Times,serif" font-size="14.00">.</text>
</g>
<!-- entry_6&#45;&gt;p1 -->
<g id="edge17" class="edge">
<title>entry_6&#45;&gt;p1:head</title>
<path fill="none" stroke="black" d="M775,-401.28C775,-393.34 775,-384.11 775,-375.06"/>
<polygon fill="black" stroke="black" points="778.5,-375 775,-365 771.5,-375 778.5,-375"/>
</g>
<!-- p16 -->
<g id="node9" class="node">
<title>p16</title>
<path fill="lightblue" stroke="black" d="M108.5,-189.5C108.5,-189.5 149.5,-189.5 149.5,-189.5 155.5,-189.5 161.5,-195.5 161.5,-201.5 161.5,-201.5 161.5,-246.5 161.5,-246.5 161.5,-252.5 155.5,-258.5 149.5,-258.5 149.5,-258.5 108.5,-258.5 108.5,-258.5 102.5,-258.5 96.5,-252.5 96.5,-246.5 96.5,-246.5 96.5,-201.5 96.5,-201.5 96.5,-195.5 102.5,-189.5 108.5,-189.5"/>
<text text-anchor="middle" x="129" y="-243.3" font-family="Times,serif" font-size="14.00">Tag : 0</text>
<polyline fill="none" stroke="black" points="96.5,-235.5 161.5,-235.5 "/>
<text text-anchor="middle" x="129" y="-220.3" font-family="Times,serif" font-size="14.00">2</text>
<polyline fill="none" stroke="black" points="96.5,-212.5 161.5,-212.5 "/>
<text text-anchor="middle" x="129" y="-197.3" font-family="Times,serif" font-size="14.00">.</text>
</g>
<!-- p15&#45;&gt;p16 -->
<g id="edge2" class="edge">
<title>p15:f1&#45;&gt;p16:head</title>
<path fill="none" stroke="black" d="M129,-295C129,-283 129,-277.75 129,-269.12"/>
<polygon fill="black" stroke="black" points="132.5,-269 129,-259 125.5,-269 132.5,-269"/>
</g>
<!-- p17 -->
<g id="node10" class="node">
<title>p17</title>
<path fill="lightblue" stroke="black" d="M108.5,-83.5C108.5,-83.5 149.5,-83.5 149.5,-83.5 155.5,-83.5 161.5,-89.5 161.5,-95.5 161.5,-95.5 161.5,-140.5 161.5,-140.5 161.5,-146.5 155.5,-152.5 149.5,-152.5 149.5,-152.5 108.5,-152.5 108.5,-152.5 102.5,-152.5 96.5,-146.5 96.5,-140.5 96.5,-140.5 96.5,-95.5 96.5,-95.5 96.5,-89.5 102.5,-83.5 108.5,-83.5"/>
<text text-anchor="middle" x="129" y="-137.3" font-family="Times,serif" font-size="14.00">Tag : 0</text>
<polyline fill="none" stroke="black" points="96.5,-129.5 161.5,-129.5 "/>
<text text-anchor="middle" x="129" y="-114.3" font-family="Times,serif" font-size="14.00">3</text>
<polyline fill="none" stroke="black" points="96.5,-106.5 161.5,-106.5 "/>
<text text-anchor="middle" x="129" y="-91.3" font-family="Times,serif" font-size="14.00">0</text>
</g>
<!-- p16&#45;&gt;p17 -->
<g id="edge3" class="edge">
<title>p16:f1&#45;&gt;p17:head</title>
<path fill="none" stroke="black" d="M129,-189C129,-177 129,-171.75 129,-163.12"/>
<polygon fill="black" stroke="black" points="132.5,-163 129,-153 125.5,-163 132.5,-163"/>
</g>
<!-- p10 -->
<g id="node12" class="node">
<title>p10</title>
<path fill="lightblue" stroke="black" d="M207,-201C207,-201 267,-201 267,-201 273,-201 279,-207 279,-213 279,-213 279,-235 279,-235 279,-241 273,-247 267,-247 267,-247 207,-247 207,-247 201,-247 195,-241 195,-235 195,-235 195,-213 195,-213 195,-207 201,-201 207,-201"/>
<text text-anchor="middle" x="237" y="-231.8" font-family="Times,serif" font-size="14.00">Tag : 253</text>
<polyline fill="none" stroke="black" points="195,-224 279,-224 "/>
<text text-anchor="middle" x="237" y="-208.8" font-family="Times,serif" font-size="14.00">1.000000</text>
</g>
<!-- p9&#45;&gt;p10 -->
<g id="edge5" class="edge">
<title>p9:f0&#45;&gt;p10:head</title>
<path fill="none" stroke="black" d="M218,-330C202.44,-330 215.95,-310.26 219,-295 222.63,-276.84 232.59,-271.86 235.91,-257.99"/>
<polygon fill="black" stroke="black" points="239.39,-258.32 237,-248 232.43,-257.56 239.39,-258.32"/>
</g>
<!-- p11 -->
<g id="node13" class="node">
<title>p11</title>
<path fill="lightblue" stroke="black" d="M309.5,-189.5C309.5,-189.5 350.5,-189.5 350.5,-189.5 356.5,-189.5 362.5,-195.5 362.5,-201.5 362.5,-201.5 362.5,-246.5 362.5,-246.5 362.5,-252.5 356.5,-258.5 350.5,-258.5 350.5,-258.5 309.5,-258.5 309.5,-258.5 303.5,-258.5 297.5,-252.5 297.5,-246.5 297.5,-246.5 297.5,-201.5 297.5,-201.5 297.5,-195.5 303.5,-189.5 309.5,-189.5"/>
<text text-anchor="middle" x="330" y="-243.3" font-family="Times,serif" font-size="14.00">Tag : 0</text>
<polyline fill="none" stroke="black" points="297.5,-235.5 362.5,-235.5 "/>
<text text-anchor="middle" x="330" y="-220.3" font-family="Times,serif" font-size="14.00">.</text>
<polyline fill="none" stroke="black" points="297.5,-212.5 362.5,-212.5 "/>
<text text-anchor="middle" x="330" y="-197.3" font-family="Times,serif" font-size="14.00">.</text>
</g>
<!-- p9&#45;&gt;p11 -->
<g id="edge6" class="edge">
<title>p9:f1&#45;&gt;p11:head</title>
<path fill="none" stroke="black" d="M286,-307C296.3,-307 288.87,-272.19 290.71,-255.6"/>
<polygon fill="black" stroke="black" points="293.74,-257.35 296,-247 287.78,-253.69 293.74,-257.35"/>
</g>
<!-- p12 -->
<g id="node14" class="node">
<title>p12</title>
<path fill="lightblue" stroke="black" d="M254,-95C254,-95 314,-95 314,-95 320,-95 326,-101 326,-107 326,-107 326,-129 326,-129 326,-135 320,-141 314,-141 314,-141 254,-141 254,-141 248,-141 242,-135 242,-129 242,-129 242,-107 242,-107 242,-101 248,-95 254,-95"/>
<text text-anchor="middle" x="284" y="-125.8" font-family="Times,serif" font-size="14.00">Tag : 253</text>
<polyline fill="none" stroke="black" points="242,-118 326,-118 "/>
<text text-anchor="middle" x="284" y="-102.8" font-family="Times,serif" font-size="14.00">2.000000</text>
</g>
<!-- p11&#45;&gt;p12 -->
<g id="edge7" class="edge">
<title>p11:f0&#45;&gt;p12:head</title>
<path fill="none" stroke="black" d="M296,-224C292.31,-224 286.84,-174.37 284.8,-152.23"/>
<polygon fill="black" stroke="black" points="288.27,-151.7 284,-142 281.29,-152.24 288.27,-151.7"/>
</g>
<!-- p13 -->
<g id="node15" class="node">
<title>p13</title>
<path fill="lightblue" stroke="black" d="M356.5,-83.5C356.5,-83.5 397.5,-83.5 397.5,-83.5 403.5,-83.5 409.5,-89.5 409.5,-95.5 409.5,-95.5 409.5,-140.5 409.5,-140.5 409.5,-146.5 403.5,-152.5 397.5,-152.5 397.5,-152.5 356.5,-152.5 356.5,-152.5 350.5,-152.5 344.5,-146.5 344.5,-140.5 344.5,-140.5 344.5,-95.5 344.5,-95.5 344.5,-89.5 350.5,-83.5 356.5,-83.5"/>
<text text-anchor="middle" x="377" y="-137.3" font-family="Times,serif" font-size="14.00">Tag : 0</text>
<polyline fill="none" stroke="black" points="344.5,-129.5 409.5,-129.5 "/>
<text text-anchor="middle" x="377" y="-114.3" font-family="Times,serif" font-size="14.00">.</text>
<polyline fill="none" stroke="black" points="344.5,-106.5 409.5,-106.5 "/>
<text text-anchor="middle" x="377" y="-91.3" font-family="Times,serif" font-size="14.00">0</text>
</g>
<!-- p11&#45;&gt;p13 -->
<g id="edge8" class="edge">
<title>p11:f1&#45;&gt;p13:head</title>
<path fill="none" stroke="black" d="M364,-201C385.41,-201 346.09,-166.54 338.08,-149.85"/>
<polygon fill="black" stroke="black" points="341.2,-151.44 343,-141 335.08,-148.04 341.2,-151.44"/>
</g>
<!-- p14 -->
<g id="node16" class="node">
<title>p14</title>
<path fill="lightblue" stroke="black" d="M347,-0.5C347,-0.5 407,-0.5 407,-0.5 413,-0.5 419,-6.5 419,-12.5 419,-12.5 419,-34.5 419,-34.5 419,-40.5 413,-46.5 407,-46.5 407,-46.5 347,-46.5 347,-46.5 341,-46.5 335,-40.5 335,-34.5 335,-34.5 335,-12.5 335,-12.5 335,-6.5 341,-0.5 347,-0.5"/>
<text text-anchor="middle" x="377" y="-31.3" font-family="Times,serif" font-size="14.00">Tag : 253</text>
<polyline fill="none" stroke="black" points="335,-23.5 419,-23.5 "/>
<text text-anchor="middle" x="377" y="-8.3" font-family="Times,serif" font-size="14.00">3.000000</text>
</g>
<!-- p13&#45;&gt;p14 -->
<g id="edge9" class="edge">
<title>p13:f0&#45;&gt;p14:head</title>
<path fill="none" stroke="black" d="M411,-118C426.56,-118 415.85,-97.42 410,-83 403.44,-66.81 386.07,-67.42 379.53,-56.97"/>
<polygon fill="black" stroke="black" points="382.86,-55.83 377,-47 376.07,-57.55 382.86,-55.83"/>
</g>
<!-- p8 -->
<g id="node19" class="node">
<title>p8</title>
<path fill="lightblue" stroke="black" d="M497.5,-189.5C497.5,-189.5 538.5,-189.5 538.5,-189.5 544.5,-189.5 550.5,-195.5 550.5,-201.5 550.5,-201.5 550.5,-246.5 550.5,-246.5 550.5,-252.5 544.5,-258.5 538.5,-258.5 538.5,-258.5 497.5,-258.5 497.5,-258.5 491.5,-258.5 485.5,-252.5 485.5,-246.5 485.5,-246.5 485.5,-201.5 485.5,-201.5 485.5,-195.5 491.5,-189.5 497.5,-189.5"/>
<text text-anchor="middle" x="518" y="-243.3" font-family="Times,serif" font-size="14.00">Tag : 0</text>
<polyline fill="none" stroke="black" points="485.5,-235.5 550.5,-235.5 "/>
<text text-anchor="middle" x="518" y="-220.3" font-family="Times,serif" font-size="14.00">2</text>
<polyline fill="none" stroke="black" points="485.5,-212.5 550.5,-212.5 "/>
<text text-anchor="middle" x="518" y="-197.3" font-family="Times,serif" font-size="14.00">.</text>
</g>
<!-- p7&#45;&gt;p8 -->
<g id="edge12" class="edge">
<title>p7:f1&#45;&gt;p8:head</title>
<path fill="none" stroke="black" d="M518,-295C518,-283 518,-277.75 518,-269.12"/>
<polygon fill="black" stroke="black" points="521.5,-269 518,-259 514.5,-269 521.5,-269"/>
</g>
<!-- p8&#45;&gt;p6 -->
<g id="edge13" class="edge">
<title>p8:f1&#45;&gt;p6:head</title>
<path fill="none" stroke="black" d="M518,-189C518,-177 518,-171.75 518,-163.12"/>
<polygon fill="black" stroke="black" points="521.5,-163 518,-153 514.5,-163 521.5,-163"/>
</g>
<!-- p5 -->
<g id="node21" class="node">
<title>p5</title>
<path fill="lightblue" stroke="black" d="M603.5,-189.5C603.5,-189.5 644.5,-189.5 644.5,-189.5 650.5,-189.5 656.5,-195.5 656.5,-201.5 656.5,-201.5 656.5,-246.5 656.5,-246.5 656.5,-252.5 650.5,-258.5 644.5,-258.5 644.5,-258.5 603.5,-258.5 603.5,-258.5 597.5,-258.5 591.5,-252.5 591.5,-246.5 591.5,-246.5 591.5,-201.5 591.5,-201.5 591.5,-195.5 597.5,-189.5 603.5,-189.5"/>
<text text-anchor="middle" x="624" y="-243.3" font-family="Times,serif" font-size="14.00">Tag : 0</text>
<polyline fill="none" stroke="black" points="591.5,-235.5 656.5,-235.5 "/>
<text text-anchor="middle" x="624" y="-220.3" font-family="Times,serif" font-size="14.00">4</text>
<polyline fill="none" stroke="black" points="591.5,-212.5 656.5,-212.5 "/>
<text text-anchor="middle" x="624" y="-197.3" font-family="Times,serif" font-size="14.00">.</text>
</g>
<!-- p4&#45;&gt;p5 -->
<g id="edge15" class="edge">
<title>p4:f1&#45;&gt;p5:head</title>
<path fill="none" stroke="black" d="M634,-295C634,-282.42 628.26,-277.77 625.48,-269.03"/>
<polygon fill="black" stroke="black" points="628.92,-268.38 624,-259 621.99,-269.4 628.92,-268.38"/>
</g>
<!-- p5&#45;&gt;p6 -->
<g id="edge16" class="edge">
<title>p5:f1&#45;&gt;p6:head</title>
<path fill="none" stroke="black" d="M590,-201C562.63,-201 577.89,-155.88 561.84,-143.89"/>
<polygon fill="black" stroke="black" points="562.58,-140.46 552,-141 560.61,-147.18 562.58,-140.46"/>
</g>
<!-- p2 -->
<g id="node23" class="node">
<title>p2</title>
<path fill="lightblue" stroke="black" d="M699.5,-189.5C699.5,-189.5 740.5,-189.5 740.5,-189.5 746.5,-189.5 752.5,-195.5 752.5,-201.5 752.5,-201.5 752.5,-246.5 752.5,-246.5 752.5,-252.5 746.5,-258.5 740.5,-258.5 740.5,-258.5 699.5,-258.5 699.5,-258.5 693.5,-258.5 687.5,-252.5 687.5,-246.5 687.5,-246.5 687.5,-201.5 687.5,-201.5 687.5,-195.5 693.5,-189.5 699.5,-189.5"/>
<text text-anchor="middle" x="720" y="-243.3" font-family="Times,serif" font-size="14.00">Tag : 0</text>
<polyline fill="none" stroke="black" points="687.5,-235.5 752.5,-235.5 "/>
<text text-anchor="middle" x="720" y="-220.3" font-family="Times,serif" font-size="14.00">2</text>
<polyline fill="none" stroke="black" points="687.5,-212.5 752.5,-212.5 "/>
<text text-anchor="middle" x="720" y="-197.3" font-family="Times,serif" font-size="14.00">.</text>
</g>
<!-- p1&#45;&gt;p2 -->
<g id="edge18" class="edge">
<title>p1:f1&#45;&gt;p2:head</title>
<path fill="none" stroke="black" d="M741,-307C720.11,-307 754.82,-271.83 760,-255.34"/>
<polygon fill="black" stroke="black" points="762.68,-253.08 754,-247 756.99,-257.16 762.68,-253.08"/>
</g>
<!-- p3 -->
<g id="node24" class="node">
<title>p3</title>
<path fill="lightblue" stroke="black" d="M729.5,-83.5C729.5,-83.5 770.5,-83.5 770.5,-83.5 776.5,-83.5 782.5,-89.5 782.5,-95.5 782.5,-95.5 782.5,-140.5 782.5,-140.5 782.5,-146.5 776.5,-152.5 770.5,-152.5 770.5,-152.5 729.5,-152.5 729.5,-152.5 723.5,-152.5 717.5,-146.5 717.5,-140.5 717.5,-140.5 717.5,-95.5 717.5,-95.5 717.5,-89.5 723.5,-83.5 729.5,-83.5"/>
<text text-anchor="middle" x="750" y="-137.3" font-family="Times,serif" font-size="14.00">Tag : 0</text>
<polyline fill="none" stroke="black" points="717.5,-129.5 782.5,-129.5 "/>
<text text-anchor="middle" x="750" y="-114.3" font-family="Times,serif" font-size="14.00">3</text>
<polyline fill="none" stroke="black" points="717.5,-106.5 782.5,-106.5 "/>
<text text-anchor="middle" x="750" y="-91.3" font-family="Times,serif" font-size="14.00">.</text>
</g>
<!-- p2&#45;&gt;p3 -->
<g id="edge19" class="edge">
<title>p2:f1&#45;&gt;p3:head</title>
<path fill="none" stroke="black" d="M720,-189C720,-172.24 739.43,-172.63 747.01,-162.57"/>
<polygon fill="black" stroke="black" points="750.36,-163.59 750,-153 743.68,-161.5 750.36,-163.59"/>
</g>
<!-- p3&#45;&gt;p1 -->
<g id="edge20" class="edge">
<title>p3:f1&#45;&gt;p1:head</title>
<path fill="none" stroke="black" d="M784,-95C895.72,-95 922.61,-337.62 819.08,-352.3"/>
<polygon fill="black" stroke="black" points="818.74,-348.82 809,-353 819.22,-355.8 818.74,-348.82"/>
</g>
</g>
</svg>
