<?xml version="1.0" encoding="UTF-8" standalone="no"?>
<!DOCTYPE svg PUBLIC "-//W3C//DTD SVG 1.1//EN"
 "http://www.w3.org/Graphics/SVG/1.1/DTD/svg11.dtd">
<!-- Generated by graphviz version 7.1.0 (0)
 -->
<!-- Title: g Pages: 1 -->
<svg width="724pt" height="456pt"
 viewBox="0.00 0.00 724.00 456.00" xmlns="http://www.w3.org/2000/svg" xmlns:xlink="http://www.w3.org/1999/xlink">
<g id="graph0" class="graph" transform="scale(1 1) rotate(0) translate(4 452)">
<title>g</title>
<!-- entry_6 -->
<g id="node1" class="node">
<title>entry_6</title>
<polygon fill="yellow" stroke="black" points="17.5,-401.5 17.5,-447.5 94.5,-447.5 94.5,-401.5 17.5,-401.5"/>
<text text-anchor="middle" x="56" y="-432.3" font-family="Times,serif" font-size="14.00">val : cyclic</text>
<polyline fill="none" stroke="black" points="17.5,-424.5 94.5,-424.5"/>
<text text-anchor="middle" x="56" y="-409.3" font-family="Times,serif" font-size="14.00">.</text>
</g>
<!-- p1 -->
<g id="node22" class="node">
<title>p1</title>
<path fill="lightblue" stroke="black" d="M40,-295.5C40,-295.5 72,-295.5 72,-295.5 78,-295.5 84,-301.5 84,-307.5 84,-307.5 84,-352.5 84,-352.5 84,-358.5 78,-364.5 72,-364.5 72,-364.5 40,-364.5 40,-364.5 34,-364.5 28,-358.5 28,-352.5 28,-352.5 28,-307.5 28,-307.5 28,-301.5 34,-295.5 40,-295.5"/>
<text text-anchor="middle" x="56" y="-349.3" font-family="Times,serif" font-size="14.00">Tag : 0</text>
<polyline fill="none" stroke="black" points="28,-341.5 84,-341.5"/>
<text text-anchor="middle" x="56" y="-326.3" font-family="Times,serif" font-size="14.00">1</text>
<polyline fill="none" stroke="black" points="28,-318.5 84,-318.5"/>
<text text-anchor="middle" x="56" y="-303.3" font-family="Times,serif" font-size="14.00">.</text>
</g>
<!-- entry_6&#45;&gt;p1 -->
<g id="edge17" class="edge">
<title>entry_6&#45;&gt;p1:head</title>
<path fill="none" stroke="black" d="M56,-401.55C56,-393.92 56,-385.07 56,-376.33"/>
<polygon fill="black" stroke="black" points="59.5,-376.51 56,-366.51 52.5,-376.51 59.5,-376.51"/>
</g>
<!-- entry_5 -->
<g id="node2" class="node">
<title>entry_5</title>
<polygon fill="yellow" stroke="black" points="113,-401.5 113,-447.5 205,-447.5 205,-401.5 113,-401.5"/>
<text text-anchor="middle" x="159" y="-432.3" font-family="Times,serif" font-size="14.00">val : 3 :: 4 :: l</text>
<polyline fill="none" stroke="black" points="113,-424.5 205,-424.5"/>
<text text-anchor="middle" x="159" y="-409.3" font-family="Times,serif" font-size="14.00">.</text>
</g>
<!-- p4 -->
<g id="node20" class="node">
<title>p4</title>
<path fill="lightblue" stroke="black" d="M156,-295.5C156,-295.5 188,-295.5 188,-295.5 194,-295.5 200,-301.5 200,-307.5 200,-307.5 200,-352.5 200,-352.5 200,-358.5 194,-364.5 188,-364.5 188,-364.5 156,-364.5 156,-364.5 150,-364.5 144,-358.5 144,-352.5 144,-352.5 144,-307.5 144,-307.5 144,-301.5 150,-295.5 156,-295.5"/>
<text text-anchor="middle" x="172" y="-349.3" font-family="Times,serif" font-size="14.00">Tag : 0</text>
<polyline fill="none" stroke="black" points="144,-341.5 200,-341.5"/>
<text text-anchor="middle" x="172" y="-326.3" font-family="Times,serif" font-size="14.00">3</text>
<polyline fill="none" stroke="black" points="144,-318.5 200,-318.5"/>
<text text-anchor="middle" x="172" y="-303.3" font-family="Times,serif" font-size="14.00">.</text>
</g>
<!-- entry_5&#45;&gt;p4 -->
<g id="edge14" class="edge">
<title>entry_5&#45;&gt;p4:head</title>
<path fill="none" stroke="black" d="M166.26,-401.53C168.33,-393.98 170.3,-385.2 171.3,-376.43"/>
<polygon fill="black" stroke="black" points="174.79,-376.71 171.91,-366.51 167.81,-376.28 174.79,-376.71"/>
</g>
<!-- entry_4 -->
<g id="node3" class="node">
<title>entry_4</title>
<polygon fill="yellow" stroke="black" points="327,-401.5 327,-447.5 419,-447.5 419,-401.5 327,-401.5"/>
<text text-anchor="middle" x="373" y="-432.3" font-family="Times,serif" font-size="14.00">val : 1 :: 2 :: l</text>
<polyline fill="none" stroke="black" points="327,-424.5 419,-424.5"/>
<text text-anchor="middle" x="373" y="-409.3" font-family="Times,serif" font-size="14.00">.</text>
</g>
<!-- p7 -->
<g id="node18" class="node">
<title>p7</title>
<path fill="lightblue" stroke="black" d="M338,-295.5C338,-295.5 370,-295.5 370,-295.5 376,-295.5 382,-301.5 382,-307.5 382,-307.5 382,-352.5 382,-352.5 382,-358.5 376,-364.5 370,-364.5 370,-364.5 338,-364.5 338,-364.5 332,-364.5 326,-358.5 326,-352.5 326,-352.5 326,-307.5 326,-307.5 326,-301.5 332,-295.5 338,-295.5"/>
<text text-anchor="middle" x="354" y="-349.3" font-family="Times,serif" font-size="14.00">Tag : 0</text>
<polyline fill="none" stroke="black" points="326,-341.5 382,-341.5"/>
<text text-anchor="middle" x="354" y="-326.3" font-family="Times,serif" font-size="14.00">1</text>
<polyline fill="none" stroke="black" points="326,-318.5 382,-318.5"/>
<text text-anchor="middle" x="354" y="-303.3" font-family="Times,serif" font-size="14.00">.</text>
</g>
<!-- entry_4&#45;&gt;p7 -->
<g id="edge11" class="edge">
<title>entry_4&#45;&gt;p7:head</title>
<path fill="none" stroke="black" d="M362.28,-401.54C359.25,-393.98 356.39,-385.16 354.95,-376.25"/>
<polygon fill="black" stroke="black" points="358.46,-376.18 354.13,-366.51 351.49,-376.77 358.46,-376.18"/>
</g>
<!-- entry_3 -->
<g id="node4" class="node">
<title>entry_3</title>
<polygon fill="yellow" stroke="black" points="223,-401.5 223,-447.5 309,-447.5 309,-401.5 223,-401.5"/>
<text text-anchor="middle" x="266" y="-432.3" font-family="Times,serif" font-size="14.00">val : l = [42]</text>
<polyline fill="none" stroke="black" points="223,-424.5 309,-424.5"/>
<text text-anchor="middle" x="266" y="-409.3" font-family="Times,serif" font-size="14.00">.</text>
</g>
<!-- p6 -->
<g id="node17" class="node">
<title>p6</title>
<path fill="lightblue" stroke="black" d="M250,-83.5C250,-83.5 282,-83.5 282,-83.5 288,-83.5 294,-89.5 294,-95.5 294,-95.5 294,-140.5 294,-140.5 294,-146.5 288,-152.5 282,-152.5 282,-152.5 250,-152.5 250,-152.5 244,-152.5 238,-146.5 238,-140.5 238,-140.5 238,-95.5 238,-95.5 238,-89.5 244,-83.5 250,-83.5"/>
<text text-anchor="middle" x="266" y="-137.3" font-family="Times,serif" font-size="14.00">Tag : 0</text>
<polyline fill="none" stroke="black" points="238,-129.5 294,-129.5"/>
<text text-anchor="middle" x="266" y="-114.3" font-family="Times,serif" font-size="14.00">42</text>
<polyline fill="none" stroke="black" points="238,-106.5 294,-106.5"/>
<text text-anchor="middle" x="266" y="-91.3" font-family="Times,serif" font-size="14.00">0</text>
</g>
<!-- entry_3&#45;&gt;p6 -->
<g id="edge10" class="edge">
<title>entry_3&#45;&gt;p6:head</title>
<path fill="none" stroke="black" d="M266,-401.76C266,-357.71 266,-254.46 266,-164.47"/>
<polygon fill="black" stroke="black" points="269.5,-164.51 266,-154.51 262.5,-164.51 269.5,-164.51"/>
</g>
<!-- entry_2 -->
<g id="node5" class="node">
<title>entry_2</title>
<polygon fill="yellow" stroke="black" points="447,-401.5 447,-447.5 539,-447.5 539,-401.5 447,-401.5"/>
<text text-anchor="middle" x="493" y="-432.3" font-family="Times,serif" font-size="14.00">val : [1.;2.;3.]</text>
<polyline fill="none" stroke="black" points="447,-424.5 539,-424.5"/>
<text text-anchor="middle" x="493" y="-409.3" font-family="Times,serif" font-size="14.00">.</text>
</g>
<!-- p9 -->
<g id="node11" class="node">
<title>p9</title>
<path fill="lightblue" stroke="black" d="M477,-295.5C477,-295.5 509,-295.5 509,-295.5 515,-295.5 521,-301.5 521,-307.5 521,-307.5 521,-352.5 521,-352.5 521,-358.5 515,-364.5 509,-364.5 509,-364.5 477,-364.5 477,-364.5 471,-364.5 465,-358.5 465,-352.5 465,-352.5 465,-307.5 465,-307.5 465,-301.5 471,-295.5 477,-295.5"/>
<text text-anchor="middle" x="493" y="-349.3" font-family="Times,serif" font-size="14.00">Tag : 0</text>
<polyline fill="none" stroke="black" points="465,-341.5 521,-341.5"/>
<text text-anchor="middle" x="493" y="-326.3" font-family="Times,serif" font-size="14.00">.</text>
<polyline fill="none" stroke="black" points="465,-318.5 521,-318.5"/>
<text text-anchor="middle" x="493" y="-303.3" font-family="Times,serif" font-size="14.00">.</text>
</g>
<!-- entry_2&#45;&gt;p9 -->
<g id="edge4" class="edge">
<title>entry_2&#45;&gt;p9:head</title>
<path fill="none" stroke="black" d="M493,-401.55C493,-393.92 493,-385.07 493,-376.33"/>
<polygon fill="black" stroke="black" points="496.5,-376.51 493,-366.51 489.5,-376.51 496.5,-376.51"/>
</g>
<!-- entry_1 -->
<g id="node6" class="node">
<title>entry_1</title>
<polygon fill="yellow" stroke="black" points="562.5,-401.5 562.5,-447.5 643.5,-447.5 643.5,-401.5 562.5,-401.5"/>
<text text-anchor="middle" x="603" y="-432.3" font-family="Times,serif" font-size="14.00">val : [1;2;3]</text>
<polyline fill="none" stroke="black" points="562.5,-424.5 643.5,-424.5"/>
<text text-anchor="middle" x="603" y="-409.3" font-family="Times,serif" font-size="14.00">.</text>
</g>
<!-- p15 -->
<g id="node8" class="node">
<title>p15</title>
<path fill="lightblue" stroke="black" d="M587,-295.5C587,-295.5 619,-295.5 619,-295.5 625,-295.5 631,-301.5 631,-307.5 631,-307.5 631,-352.5 631,-352.5 631,-358.5 625,-364.5 619,-364.5 619,-364.5 587,-364.5 587,-364.5 581,-364.5 575,-358.5 575,-352.5 575,-352.5 575,-307.5 575,-307.5 575,-301.5 581,-295.5 587,-295.5"/>
<text text-anchor="middle" x="603" y="-349.3" font-family="Times,serif" font-size="14.00">Tag : 0</text>
<polyline fill="none" stroke="black" points="575,-341.5 631,-341.5"/>
<text text-anchor="middle" x="603" y="-326.3" font-family="Times,serif" font-size="14.00">1</text>
<polyline fill="none" stroke="black" points="575,-318.5 631,-318.5"/>
<text text-anchor="middle" x="603" y="-303.3" font-family="Times,serif" font-size="14.00">.</text>
</g>
<!-- entry_1&#45;&gt;p15 -->
<g id="edge1" class="edge">
<title>entry_1&#45;&gt;p15:head</title>
<path fill="none" stroke="black" d="M603,-401.55C603,-393.92 603,-385.07 603,-376.33"/>
<polygon fill="black" stroke="black" points="606.5,-376.51 603,-366.51 599.5,-376.51 606.5,-376.51"/>
</g>
<!-- entry_0 -->
<g id="node7" class="node">
<title>entry_0</title>
<polygon fill="yellow" stroke="black" points="662,-401.5 662,-447.5 716,-447.5 716,-401.5 662,-401.5"/>
<text text-anchor="middle" x="689" y="-432.3" font-family="Times,serif" font-size="14.00">val : []</text>
<polyline fill="none" stroke="black" points="662,-424.5 716,-424.5"/>
<text text-anchor="middle" x="689" y="-409.3" font-family="Times,serif" font-size="14.00">0</text>
</g>
<!-- p16 -->
<g id="node9" class="node">
<title>p16</title>
<path fill="lightblue" stroke="black" d="M587,-189.5C587,-189.5 619,-189.5 619,-189.5 625,-189.5 631,-195.5 631,-201.5 631,-201.5 631,-246.5 631,-246.5 631,-252.5 625,-258.5 619,-258.5 619,-258.5 587,-258.5 587,-258.5 581,-258.5 575,-252.5 575,-246.5 575,-246.5 575,-201.5 575,-201.5 575,-195.5 581,-189.5 587,-189.5"/>
<text text-anchor="middle" x="603" y="-243.3" font-family="Times,serif" font-size="14.00">Tag : 0</text>
<polyline fill="none" stroke="black" points="575,-235.5 631,-235.5"/>
<text text-anchor="middle" x="603" y="-220.3" font-family="Times,serif" font-size="14.00">2</text>
<polyline fill="none" stroke="black" points="575,-212.5 631,-212.5"/>
<text text-anchor="middle" x="603" y="-197.3" font-family="Times,serif" font-size="14.00">.</text>
</g>
<!-- p15&#45;&gt;p16 -->
<g id="edge2" class="edge">
<title>p15:f1&#45;&gt;p16:head</title>
<path fill="none" stroke="black" d="M603,-295C603,-283.62 603,-278.32 603,-270.45"/>
<polygon fill="black" stroke="black" points="606.5,-270.51 603,-260.51 599.5,-270.51 606.5,-270.51"/>
</g>
<!-- p17 -->
<g id="node10" class="node">
<title>p17</title>
<path fill="lightblue" stroke="black" d="M587,-83.5C587,-83.5 619,-83.5 619,-83.5 625,-83.5 631,-89.5 631,-95.5 631,-95.5 631,-140.5 631,-140.5 631,-146.5 625,-152.5 619,-152.5 619,-152.5 587,-152.5 587,-152.5 581,-152.5 575,-146.5 575,-140.5 575,-140.5 575,-95.5 575,-95.5 575,-89.5 581,-83.5 587,-83.5"/>
<text text-anchor="middle" x="603" y="-137.3" font-family="Times,serif" font-size="14.00">Tag : 0</text>
<polyline fill="none" stroke="black" points="575,-129.5 631,-129.5"/>
<text text-anchor="middle" x="603" y="-114.3" font-family="Times,serif" font-size="14.00">3</text>
<polyline fill="none" stroke="black" points="575,-106.5 631,-106.5"/>
<text text-anchor="middle" x="603" y="-91.3" font-family="Times,serif" font-size="14.00">0</text>
</g>
<!-- p16&#45;&gt;p17 -->
<g id="edge3" class="edge">
<title>p16:f1&#45;&gt;p17:head</title>
<path fill="none" stroke="black" d="M603,-189C603,-177.62 603,-172.32 603,-164.45"/>
<polygon fill="black" stroke="black" points="606.5,-164.51 603,-154.51 599.5,-164.51 606.5,-164.51"/>
</g>
<!-- p10 -->
<g id="node12" class="node">
<title>p10</title>
<path fill="lightblue" stroke="black" d="M414.5,-201C414.5,-201 459.5,-201 459.5,-201 465.5,-201 471.5,-207 471.5,-213 471.5,-213 471.5,-235 471.5,-235 471.5,-241 465.5,-247 459.5,-247 459.5,-247 414.5,-247 414.5,-247 408.5,-247 402.5,-241 402.5,-235 402.5,-235 402.5,-213 402.5,-213 402.5,-207 408.5,-201 414.5,-201"/>
<text text-anchor="middle" x="437" y="-231.8" font-family="Times,serif" font-size="14.00">Tag : 253</text>
<polyline fill="none" stroke="black" points="402.5,-224 471.5,-224"/>
<text text-anchor="middle" x="437" y="-208.8" font-family="Times,serif" font-size="14.00">1.000000</text>
</g>
<!-- p9&#45;&gt;p10 -->
<g id="edge5" class="edge">
<title>p9:f0&#45;&gt;p10:head</title>
<path fill="none" stroke="black" d="M464,-330C456.24,-330 470.3,-262.01 472,-247.5 472.02,-247.34 472.04,-247.18 472.07,-247.02"/>
<polygon fill="black" stroke="black" points="475.52,-247.77 472.87,-237.51 468.54,-247.18 475.52,-247.77"/>
</g>
<!-- p11 -->
<g id="node13" class="node">
<title>p11</title>
<path fill="lightblue" stroke="black" d="M502,-189.5C502,-189.5 534,-189.5 534,-189.5 540,-189.5 546,-195.5 546,-201.5 546,-201.5 546,-246.5 546,-246.5 546,-252.5 540,-258.5 534,-258.5 534,-258.5 502,-258.5 502,-258.5 496,-258.5 490,-252.5 490,-246.5 490,-246.5 490,-201.5 490,-201.5 490,-195.5 496,-189.5 502,-189.5"/>
<text text-anchor="middle" x="518" y="-243.3" font-family="Times,serif" font-size="14.00">Tag : 0</text>
<polyline fill="none" stroke="black" points="490,-235.5 546,-235.5"/>
<text text-anchor="middle" x="518" y="-220.3" font-family="Times,serif" font-size="14.00">.</text>
<polyline fill="none" stroke="black" points="490,-212.5 546,-212.5"/>
<text text-anchor="middle" x="518" y="-197.3" font-family="Times,serif" font-size="14.00">.</text>
</g>
<!-- p9&#45;&gt;p11 -->
<g id="edge6" class="edge">
<title>p9:f1&#45;&gt;p11:head</title>
<path fill="none" stroke="black" d="M493,-295C493,-280.24 507.36,-278.36 514.31,-269.84"/>
<polygon fill="black" stroke="black" points="517.6,-271.03 517.51,-260.43 510.98,-268.77 517.6,-271.03"/>
</g>
<!-- p12 -->
<g id="node14" class="node">
<title>p12</title>
<path fill="lightblue" stroke="black" d="M419.5,-95C419.5,-95 464.5,-95 464.5,-95 470.5,-95 476.5,-101 476.5,-107 476.5,-107 476.5,-129 476.5,-129 476.5,-135 470.5,-141 464.5,-141 464.5,-141 419.5,-141 419.5,-141 413.5,-141 407.5,-135 407.5,-129 407.5,-129 407.5,-107 407.5,-107 407.5,-101 413.5,-95 419.5,-95"/>
<text text-anchor="middle" x="442" y="-125.8" font-family="Times,serif" font-size="14.00">Tag : 253</text>
<polyline fill="none" stroke="black" points="407.5,-118 476.5,-118"/>
<text text-anchor="middle" x="442" y="-102.8" font-family="Times,serif" font-size="14.00">2.000000</text>
</g>
<!-- p11&#45;&gt;p12 -->
<g id="edge7" class="edge">
<title>p11:f0&#45;&gt;p12:head</title>
<path fill="none" stroke="black" d="M489,-224C471.99,-224 489.05,-162.54 485.08,-139.01"/>
<polygon fill="black" stroke="black" points="487.87,-136.89 478.94,-131.19 482.36,-141.22 487.87,-136.89"/>
</g>
<!-- p13 -->
<g id="node15" class="node">
<title>p13</title>
<path fill="lightblue" stroke="black" d="M507,-83.5C507,-83.5 539,-83.5 539,-83.5 545,-83.5 551,-89.5 551,-95.5 551,-95.5 551,-140.5 551,-140.5 551,-146.5 545,-152.5 539,-152.5 539,-152.5 507,-152.5 507,-152.5 501,-152.5 495,-146.5 495,-140.5 495,-140.5 495,-95.5 495,-95.5 495,-89.5 501,-83.5 507,-83.5"/>
<text text-anchor="middle" x="523" y="-137.3" font-family="Times,serif" font-size="14.00">Tag : 0</text>
<polyline fill="none" stroke="black" points="495,-129.5 551,-129.5"/>
<text text-anchor="middle" x="523" y="-114.3" font-family="Times,serif" font-size="14.00">.</text>
<polyline fill="none" stroke="black" points="495,-106.5 551,-106.5"/>
<text text-anchor="middle" x="523" y="-91.3" font-family="Times,serif" font-size="14.00">0</text>
</g>
<!-- p11&#45;&gt;p13 -->
<g id="edge8" class="edge">
<title>p11:f1&#45;&gt;p13:head</title>
<path fill="none" stroke="black" d="M518,-189C518,-177.39 520.58,-172.22 522.04,-164.23"/>
<polygon fill="black" stroke="black" points="525.5,-164.77 522.87,-154.51 518.53,-164.17 525.5,-164.77"/>
</g>
<!-- p14 -->
<g id="node16" class="node">
<title>p14</title>
<path fill="lightblue" stroke="black" d="M500.5,-0.5C500.5,-0.5 545.5,-0.5 545.5,-0.5 551.5,-0.5 557.5,-6.5 557.5,-12.5 557.5,-12.5 557.5,-34.5 557.5,-34.5 557.5,-40.5 551.5,-46.5 545.5,-46.5 545.5,-46.5 500.5,-46.5 500.5,-46.5 494.5,-46.5 488.5,-40.5 488.5,-34.5 488.5,-34.5 488.5,-12.5 488.5,-12.5 488.5,-6.5 494.5,-0.5 500.5,-0.5"/>
<text text-anchor="middle" x="523" y="-31.3" font-family="Times,serif" font-size="14.00">Tag : 253</text>
<polyline fill="none" stroke="black" points="488.5,-23.5 557.5,-23.5"/>
<text text-anchor="middle" x="523" y="-8.3" font-family="Times,serif" font-size="14.00">3.000000</text>
</g>
<!-- p13&#45;&gt;p14 -->
<g id="edge9" class="edge">
<title>p13:f0&#45;&gt;p14:head</title>
<path fill="none" stroke="black" d="M552,-118C567.56,-118 556.26,-97.65 551,-83 545.75,-68.39 532.13,-66.93 526.03,-57.95"/>
<polygon fill="black" stroke="black" points="529.44,-57.16 523.4,-48.46 522.7,-59.03 529.44,-57.16"/>
</g>
<!-- p8 -->
<g id="node19" class="node">
<title>p8</title>
<path fill="lightblue" stroke="black" d="M318,-189.5C318,-189.5 350,-189.5 350,-189.5 356,-189.5 362,-195.5 362,-201.5 362,-201.5 362,-246.5 362,-246.5 362,-252.5 356,-258.5 350,-258.5 350,-258.5 318,-258.5 318,-258.5 312,-258.5 306,-252.5 306,-246.5 306,-246.5 306,-201.5 306,-201.5 306,-195.5 312,-189.5 318,-189.5"/>
<text text-anchor="middle" x="334" y="-243.3" font-family="Times,serif" font-size="14.00">Tag : 0</text>
<polyline fill="none" stroke="black" points="306,-235.5 362,-235.5"/>
<text text-anchor="middle" x="334" y="-220.3" font-family="Times,serif" font-size="14.00">2</text>
<polyline fill="none" stroke="black" points="306,-212.5 362,-212.5"/>
<text text-anchor="middle" x="334" y="-197.3" font-family="Times,serif" font-size="14.00">.</text>
</g>
<!-- p7&#45;&gt;p8 -->
<g id="edge12" class="edge">
<title>p7:f1&#45;&gt;p8:head</title>
<path fill="none" stroke="black" d="M354,-295C354,-281.27 342.75,-278.18 337.12,-269.77"/>
<polygon fill="black" stroke="black" points="340.57,-269.08 334.42,-260.45 333.85,-271.03 340.57,-269.08"/>
</g>
<!-- p8&#45;&gt;p6 -->
<g id="edge13" class="edge">
<title>p8:f1&#45;&gt;p6:head</title>
<path fill="none" stroke="black" d="M305,-201C283.67,-201 306.61,-163.64 303.95,-147.88"/>
<polygon fill="black" stroke="black" points="306.26,-145.24 296.2,-141.92 301.99,-150.79 306.26,-145.24"/>
</g>
<!-- p5 -->
<g id="node21" class="node">
<title>p5</title>
<path fill="lightblue" stroke="black" d="M169,-189.5C169,-189.5 201,-189.5 201,-189.5 207,-189.5 213,-195.5 213,-201.5 213,-201.5 213,-246.5 213,-246.5 213,-252.5 207,-258.5 201,-258.5 201,-258.5 169,-258.5 169,-258.5 163,-258.5 157,-252.5 157,-246.5 157,-246.5 157,-201.5 157,-201.5 157,-195.5 163,-189.5 169,-189.5"/>
<text text-anchor="middle" x="185" y="-243.3" font-family="Times,serif" font-size="14.00">Tag : 0</text>
<polyline fill="none" stroke="black" points="157,-235.5 213,-235.5"/>
<text text-anchor="middle" x="185" y="-220.3" font-family="Times,serif" font-size="14.00">4</text>
<polyline fill="none" stroke="black" points="157,-212.5 213,-212.5"/>
<text text-anchor="middle" x="185" y="-197.3" font-family="Times,serif" font-size="14.00">.</text>
</g>
<!-- p4&#45;&gt;p5 -->
<g id="edge15" class="edge">
<title>p4:f1&#45;&gt;p5:head</title>
<path fill="none" stroke="black" d="M172,-295C172,-282.64 178.86,-278.22 182.62,-270.2"/>
<polygon fill="black" stroke="black" points="186.03,-270.99 184.68,-260.48 179.18,-269.53 186.03,-270.99"/>
</g>
<!-- p5&#45;&gt;p6 -->
<g id="edge16" class="edge">
<title>p5:f1&#45;&gt;p6:head</title>
<path fill="none" stroke="black" d="M214,-201C237.43,-201 218.68,-160.63 226.95,-146.12"/>
<polygon fill="black" stroke="black" points="228.33,-149.34 235.65,-141.69 225.15,-143.1 228.33,-149.34"/>
</g>
<!-- p2 -->
<g id="node23" class="node">
<title>p2</title>
<path fill="lightblue" stroke="black" d="M12,-189.5C12,-189.5 44,-189.5 44,-189.5 50,-189.5 56,-195.5 56,-201.5 56,-201.5 56,-246.5 56,-246.5 56,-252.5 50,-258.5 44,-258.5 44,-258.5 12,-258.5 12,-258.5 6,-258.5 0,-252.5 0,-246.5 0,-246.5 0,-201.5 0,-201.5 0,-195.5 6,-189.5 12,-189.5"/>
<text text-anchor="middle" x="28" y="-243.3" font-family="Times,serif" font-size="14.00">Tag : 0</text>
<polyline fill="none" stroke="black" points="0,-235.5 56,-235.5"/>
<text text-anchor="middle" x="28" y="-220.3" font-family="Times,serif" font-size="14.00">2</text>
<polyline fill="none" stroke="black" points="0,-212.5 56,-212.5"/>
<text text-anchor="middle" x="28" y="-197.3" font-family="Times,serif" font-size="14.00">.</text>
</g>
<!-- p1&#45;&gt;p2 -->
<g id="edge18" class="edge">
<title>p1:f1&#45;&gt;p2:head</title>
<path fill="none" stroke="black" d="M56,-295C56,-279.48 39.59,-278.5 31.89,-269.8"/>
<polygon fill="black" stroke="black" points="35.2,-268.64 28.51,-260.42 28.61,-271.02 35.2,-268.64"/>
</g>
<!-- p3 -->
<g id="node24" class="node">
<title>p3</title>
<path fill="lightblue" stroke="black" d="M40,-83.5C40,-83.5 72,-83.5 72,-83.5 78,-83.5 84,-89.5 84,-95.5 84,-95.5 84,-140.5 84,-140.5 84,-146.5 78,-152.5 72,-152.5 72,-152.5 40,-152.5 40,-152.5 34,-152.5 28,-146.5 28,-140.5 28,-140.5 28,-95.5 28,-95.5 28,-89.5 34,-83.5 40,-83.5"/>
<text text-anchor="middle" x="56" y="-137.3" font-family="Times,serif" font-size="14.00">Tag : 0</text>
<polyline fill="none" stroke="black" points="28,-129.5 84,-129.5"/>
<text text-anchor="middle" x="56" y="-114.3" font-family="Times,serif" font-size="14.00">3</text>
<polyline fill="none" stroke="black" points="28,-106.5 84,-106.5"/>
<text text-anchor="middle" x="56" y="-91.3" font-family="Times,serif" font-size="14.00">.</text>
</g>
<!-- p2&#45;&gt;p3 -->
<g id="edge19" class="edge">
<title>p2:f1&#45;&gt;p3:head</title>
<path fill="none" stroke="black" d="M28,-189C28,-173.48 44.41,-172.5 52.11,-163.8"/>
<polygon fill="black" stroke="black" points="55.39,-165.02 55.49,-154.42 48.8,-162.64 55.39,-165.02"/>
</g>
<!-- p3&#45;&gt;p1 -->
<g id="edge20" class="edge">
<title>p3:f1&#45;&gt;p1:head</title>
<path fill="none" stroke="black" d="M85,-95C138.41,-95 142.07,-318.93 95.95,-349.55"/>
<polygon fill="black" stroke="black" points="94.93,-346.2 86.44,-352.55 97.03,-352.88 94.93,-346.2"/>
</g>
</g>
</svg>
