<?xml version="1.0" encoding="UTF-8" standalone="no"?>
<!DOCTYPE svg PUBLIC "-//W3C//DTD SVG 1.1//EN"
 "http://www.w3.org/Graphics/SVG/1.1/DTD/svg11.dtd">
<!-- Generated by graphviz version 7.1.0 (0)
 -->
<!-- Title: g Pages: 1 -->
<svg width="255pt" height="419pt"
 viewBox="0.00 0.00 254.53 419.00" xmlns="http://www.w3.org/2000/svg" xmlns:xlink="http://www.w3.org/1999/xlink">
<g id="graph0" class="graph" transform="scale(1 1) rotate(0) translate(4 415)">
<title>g</title>
<!-- entry_1 -->
<g id="node1" class="node">
<title>entry_1</title>
<polygon fill="yellow" stroke="black" points="0,-364.5 0,-410.5 101,-410.5 101,-364.5 0,-364.5"/>
<text text-anchor="middle" x="50.5" y="-395.3" font-family="Times,serif" font-size="14.00">val : env_fields</text>
<polyline fill="none" stroke="black" points="0,-387.5 101,-387.5"/>
<text text-anchor="middle" x="50.5" y="-372.3" font-family="Times,serif" font-size="14.00">.</text>
</g>
<!-- p1 -->
<g id="node6" class="node">
<title>p1</title>
<path fill="lightblue" stroke="black" d="M34.5,-189.5C34.5,-189.5 66.5,-189.5 66.5,-189.5 72.5,-189.5 78.5,-195.5 78.5,-201.5 78.5,-201.5 78.5,-315.5 78.5,-315.5 78.5,-321.5 72.5,-327.5 66.5,-327.5 66.5,-327.5 34.5,-327.5 34.5,-327.5 28.5,-327.5 22.5,-321.5 22.5,-315.5 22.5,-315.5 22.5,-201.5 22.5,-201.5 22.5,-195.5 28.5,-189.5 34.5,-189.5"/>
<text text-anchor="middle" x="50.5" y="-312.3" font-family="Times,serif" font-size="14.00">Tag : 0</text>
<polyline fill="none" stroke="black" points="22.5,-304.5 78.5,-304.5"/>
<text text-anchor="middle" x="50.5" y="-289.3" font-family="Times,serif" font-size="14.00">0</text>
<polyline fill="none" stroke="black" points="22.5,-281.5 78.5,-281.5"/>
<text text-anchor="middle" x="50.5" y="-266.3" font-family="Times,serif" font-size="14.00">1</text>
<polyline fill="none" stroke="black" points="22.5,-258.5 78.5,-258.5"/>
<text text-anchor="middle" x="50.5" y="-243.3" font-family="Times,serif" font-size="14.00">2</text>
<polyline fill="none" stroke="black" points="22.5,-235.5 78.5,-235.5"/>
<text text-anchor="middle" x="50.5" y="-220.3" font-family="Times,serif" font-size="14.00">1</text>
<polyline fill="none" stroke="black" points="22.5,-212.5 78.5,-212.5"/>
<text text-anchor="middle" x="50.5" y="-197.3" font-family="Times,serif" font-size="14.00">.</text>
</g>
<!-- entry_1&#45;&gt;p1 -->
<g id="edge5" class="edge">
<title>entry_1&#45;&gt;p1:head</title>
<path fill="none" stroke="black" d="M50.5,-364.55C50.5,-356.92 50.5,-348.07 50.5,-339.33"/>
<polygon fill="black" stroke="black" points="54,-339.51 50.5,-329.51 47,-339.51 54,-339.51"/>
</g>
<!-- entry_0 -->
<g id="node2" class="node">
<title>entry_0</title>
<polygon fill="yellow" stroke="black" points="119.5,-364.5 119.5,-410.5 217.5,-410.5 217.5,-364.5 119.5,-364.5"/>
<text text-anchor="middle" x="168.5" y="-395.3" font-family="Times,serif" font-size="14.00">val : env_tuple</text>
<polyline fill="none" stroke="black" points="119.5,-387.5 217.5,-387.5"/>
<text text-anchor="middle" x="168.5" y="-372.3" font-family="Times,serif" font-size="14.00">.</text>
</g>
<!-- p2 -->
<g id="node3" class="node">
<title>p2</title>
<path fill="lightblue" stroke="black" d="M152.5,-201C152.5,-201 184.5,-201 184.5,-201 190.5,-201 196.5,-207 196.5,-213 196.5,-213 196.5,-304 196.5,-304 196.5,-310 190.5,-316 184.5,-316 184.5,-316 152.5,-316 152.5,-316 146.5,-316 140.5,-310 140.5,-304 140.5,-304 140.5,-213 140.5,-213 140.5,-207 146.5,-201 152.5,-201"/>
<text text-anchor="middle" x="168.5" y="-300.8" font-family="Times,serif" font-size="14.00">Tag : 0</text>
<polyline fill="none" stroke="black" points="140.5,-293 196.5,-293"/>
<text text-anchor="middle" x="168.5" y="-277.8" font-family="Times,serif" font-size="14.00">0</text>
<polyline fill="none" stroke="black" points="140.5,-270 196.5,-270"/>
<text text-anchor="middle" x="168.5" y="-254.8" font-family="Times,serif" font-size="14.00">1</text>
<polyline fill="none" stroke="black" points="140.5,-247 196.5,-247"/>
<text text-anchor="middle" x="168.5" y="-231.8" font-family="Times,serif" font-size="14.00">2</text>
<polyline fill="none" stroke="black" points="140.5,-224 196.5,-224"/>
<text text-anchor="middle" x="168.5" y="-208.8" font-family="Times,serif" font-size="14.00">.</text>
</g>
<!-- entry_0&#45;&gt;p2 -->
<g id="edge1" class="edge">
<title>entry_0&#45;&gt;p2:head</title>
<path fill="none" stroke="black" d="M168.5,-364.75C168.5,-354.35 168.5,-341.45 168.5,-328.87"/>
<polygon fill="black" stroke="black" points="172,-329.01 168.5,-319.01 165,-329.01 172,-329.01"/>
</g>
<!-- p3 -->
<g id="node4" class="node">
<title>p3</title>
<path fill="lightblue" stroke="black" d="M124.5,-106.5C124.5,-106.5 156.5,-106.5 156.5,-106.5 162.5,-106.5 168.5,-112.5 168.5,-118.5 168.5,-118.5 168.5,-140.5 168.5,-140.5 168.5,-146.5 162.5,-152.5 156.5,-152.5 156.5,-152.5 124.5,-152.5 124.5,-152.5 118.5,-152.5 112.5,-146.5 112.5,-140.5 112.5,-140.5 112.5,-118.5 112.5,-118.5 112.5,-112.5 118.5,-106.5 124.5,-106.5"/>
<text text-anchor="middle" x="140.5" y="-137.3" font-family="Times,serif" font-size="14.00">Tag : 0</text>
<polyline fill="none" stroke="black" points="112.5,-129.5 168.5,-129.5"/>
<text text-anchor="middle" x="140.5" y="-114.3" font-family="Times,serif" font-size="14.00">.</text>
</g>
<!-- p2&#45;&gt;p3 -->
<g id="edge2" class="edge">
<title>p2:f3&#45;&gt;p3:head</title>
<path fill="none" stroke="black" d="M168.5,-199.5C168.5,-179.9 150.02,-177.38 143.08,-164.18"/>
<polygon fill="black" stroke="black" points="146.5,-163.43 140.84,-154.47 139.68,-165.01 146.5,-163.43"/>
</g>
<!-- p4 -->
<g id="node5" class="node">
<title>p4</title>
<path fill="lightblue" stroke="black" d="M152.5,-0.5C152.5,-0.5 184.5,-0.5 184.5,-0.5 190.5,-0.5 196.5,-6.5 196.5,-12.5 196.5,-12.5 196.5,-57.5 196.5,-57.5 196.5,-63.5 190.5,-69.5 184.5,-69.5 184.5,-69.5 152.5,-69.5 152.5,-69.5 146.5,-69.5 140.5,-63.5 140.5,-57.5 140.5,-57.5 140.5,-12.5 140.5,-12.5 140.5,-6.5 146.5,-0.5 152.5,-0.5"/>
<text text-anchor="middle" x="168.5" y="-54.3" font-family="Times,serif" font-size="14.00">Tag : 0</text>
<polyline fill="none" stroke="black" points="140.5,-46.5 196.5,-46.5"/>
<text text-anchor="middle" x="168.5" y="-31.3" font-family="Times,serif" font-size="14.00">1</text>
<polyline fill="none" stroke="black" points="140.5,-23.5 196.5,-23.5"/>
<text text-anchor="middle" x="168.5" y="-8.3" font-family="Times,serif" font-size="14.00">.</text>
</g>
<!-- p3&#45;&gt;p4 -->
<g id="edge3" class="edge">
<title>p3:f0&#45;&gt;p4:head</title>
<path fill="none" stroke="black" d="M140.5,-106C140.5,-90.48 156.91,-89.5 164.61,-80.8"/>
<polygon fill="black" stroke="black" points="167.89,-82.02 167.99,-71.42 161.3,-79.64 167.89,-82.02"/>
</g>
<!-- p4&#45;&gt;p2 -->
<g id="edge4" class="edge">
<title>p4:f1&#45;&gt;p2:head</title>
<path fill="none" stroke="black" d="M197.5,-12C258.56,-12 262.26,-270.15 208.59,-301.41"/>
<polygon fill="black" stroke="black" points="207.65,-298.04 198.96,-304.09 209.53,-304.78 207.65,-298.04"/>
</g>
<!-- p1&#45;&gt;p1 -->
<g id="edge6" class="edge">
<title>p1:f4&#45;&gt;p1:head</title>
<path fill="none" stroke="black" d="M52.4,-212.38C59.45,-266.76 58.81,-392.5 50.5,-392.5 43.42,-392.5 41.91,-365.92 45.96,-338.52"/>
<polygon fill="black" stroke="black" points="49.4,-339.16 47.69,-328.7 42.51,-337.94 49.4,-339.16"/>
</g>
</g>
</svg>
