<?xml version="1.0" encoding="UTF-8" standalone="no"?>
<!DOCTYPE svg PUBLIC "-//W3C//DTD SVG 1.1//EN"
 "http://www.w3.org/Graphics/SVG/1.1/DTD/svg11.dtd">
<!-- Generated by graphviz version 2.50.0 (0)
 -->
<!-- Title: g Pages: 1 -->
<svg width="271pt" height="419pt"
 viewBox="0.00 0.00 270.50 419.00" xmlns="http://www.w3.org/2000/svg" xmlns:xlink="http://www.w3.org/1999/xlink">
<g id="graph0" class="graph" transform="scale(1 1) rotate(0) translate(4 415)">
<title>g</title>
<polygon fill="white" stroke="transparent" points="-4,4 -4,-415 266.5,-415 266.5,4 -4,4"/>
<!-- entry_0 -->
<g id="node1" class="node">
<title>entry_0</title>
<polygon fill="yellow" stroke="black" points="2.5,-364.5 2.5,-410.5 122.5,-410.5 122.5,-364.5 2.5,-364.5"/>
<text text-anchor="middle" x="62.5" y="-395.3" font-family="Times,serif" font-size="14.00">val : env_tuple</text>
<polyline fill="none" stroke="black" points="2.5,-387.5 122.5,-387.5 "/>
<text text-anchor="middle" x="62.5" y="-372.3" font-family="Times,serif" font-size="14.00">.</text>
</g>
<!-- p2 -->
<g id="node3" class="node">
<title>p2</title>
<path fill="lightblue" stroke="black" d="M42,-201C42,-201 83,-201 83,-201 89,-201 95,-207 95,-213 95,-213 95,-304 95,-304 95,-310 89,-316 83,-316 83,-316 42,-316 42,-316 36,-316 30,-310 30,-304 30,-304 30,-213 30,-213 30,-207 36,-201 42,-201"/>
<text text-anchor="middle" x="62.5" y="-300.8" font-family="Times,serif" font-size="14.00">Tag : 0</text>
<polyline fill="none" stroke="black" points="30,-293 95,-293 "/>
<text text-anchor="middle" x="62.5" y="-277.8" font-family="Times,serif" font-size="14.00">0</text>
<polyline fill="none" stroke="black" points="30,-270 95,-270 "/>
<text text-anchor="middle" x="62.5" y="-254.8" font-family="Times,serif" font-size="14.00">1</text>
<polyline fill="none" stroke="black" points="30,-247 95,-247 "/>
<text text-anchor="middle" x="62.5" y="-231.8" font-family="Times,serif" font-size="14.00">2</text>
<polyline fill="none" stroke="black" points="30,-224 95,-224 "/>
<text text-anchor="middle" x="62.5" y="-208.8" font-family="Times,serif" font-size="14.00">.</text>
</g>
<!-- entry_0&#45;&gt;p2 -->
<g id="edge1" class="edge">
<title>entry_0&#45;&gt;p2:head</title>
<path fill="none" stroke="black" d="M62.5,-364.44C62.5,-353.75 62.5,-340.48 62.5,-327.64"/>
<polygon fill="black" stroke="black" points="66,-327.5 62.5,-317.5 59,-327.5 66,-327.5"/>
</g>
<!-- entry_1 -->
<g id="node2" class="node">
<title>entry_1</title>
<polygon fill="yellow" stroke="black" points="140.5,-364.5 140.5,-410.5 262.5,-410.5 262.5,-364.5 140.5,-364.5"/>
<text text-anchor="middle" x="201.5" y="-395.3" font-family="Times,serif" font-size="14.00">val : env_fields</text>
<polyline fill="none" stroke="black" points="140.5,-387.5 262.5,-387.5 "/>
<text text-anchor="middle" x="201.5" y="-372.3" font-family="Times,serif" font-size="14.00">.</text>
</g>
<!-- p1 -->
<g id="node6" class="node">
<title>p1</title>
<path fill="lightblue" stroke="black" d="M181,-189.5C181,-189.5 222,-189.5 222,-189.5 228,-189.5 234,-195.5 234,-201.5 234,-201.5 234,-315.5 234,-315.5 234,-321.5 228,-327.5 222,-327.5 222,-327.5 181,-327.5 181,-327.5 175,-327.5 169,-321.5 169,-315.5 169,-315.5 169,-201.5 169,-201.5 169,-195.5 175,-189.5 181,-189.5"/>
<text text-anchor="middle" x="201.5" y="-312.3" font-family="Times,serif" font-size="14.00">Tag : 0</text>
<polyline fill="none" stroke="black" points="169,-304.5 234,-304.5 "/>
<text text-anchor="middle" x="201.5" y="-289.3" font-family="Times,serif" font-size="14.00">0</text>
<polyline fill="none" stroke="black" points="169,-281.5 234,-281.5 "/>
<text text-anchor="middle" x="201.5" y="-266.3" font-family="Times,serif" font-size="14.00">1</text>
<polyline fill="none" stroke="black" points="169,-258.5 234,-258.5 "/>
<text text-anchor="middle" x="201.5" y="-243.3" font-family="Times,serif" font-size="14.00">2</text>
<polyline fill="none" stroke="black" points="169,-235.5 234,-235.5 "/>
<text text-anchor="middle" x="201.5" y="-220.3" font-family="Times,serif" font-size="14.00">1</text>
<polyline fill="none" stroke="black" points="169,-212.5 234,-212.5 "/>
<text text-anchor="middle" x="201.5" y="-197.3" font-family="Times,serif" font-size="14.00">.</text>
</g>
<!-- entry_1&#45;&gt;p1 -->
<g id="edge5" class="edge">
<title>entry_1&#45;&gt;p1:head</title>
<path fill="none" stroke="black" d="M201.5,-364.28C201.5,-356.34 201.5,-347.11 201.5,-338.06"/>
<polygon fill="black" stroke="black" points="205,-338 201.5,-328 198,-338 205,-338"/>
</g>
<!-- p3 -->
<g id="node4" class="node">
<title>p3</title>
<path fill="lightblue" stroke="black" d="M12,-106.5C12,-106.5 53,-106.5 53,-106.5 59,-106.5 65,-112.5 65,-118.5 65,-118.5 65,-140.5 65,-140.5 65,-146.5 59,-152.5 53,-152.5 53,-152.5 12,-152.5 12,-152.5 6,-152.5 0,-146.5 0,-140.5 0,-140.5 0,-118.5 0,-118.5 0,-112.5 6,-106.5 12,-106.5"/>
<text text-anchor="middle" x="32.5" y="-137.3" font-family="Times,serif" font-size="14.00">Tag : 0</text>
<polyline fill="none" stroke="black" points="0,-129.5 65,-129.5 "/>
<text text-anchor="middle" x="32.5" y="-114.3" font-family="Times,serif" font-size="14.00">.</text>
</g>
<!-- p2&#45;&gt;p3 -->
<g id="edge2" class="edge">
<title>p2:f3&#45;&gt;p3:head</title>
<path fill="none" stroke="black" d="M62.5,-199.5C62.5,-178.94 41.54,-177.45 34.66,-163.14"/>
<polygon fill="black" stroke="black" points="38,-162.05 32.5,-153 31.16,-163.51 38,-162.05"/>
</g>
<!-- p4 -->
<g id="node5" class="node">
<title>p4</title>
<path fill="lightblue" stroke="black" d="M42,-0.5C42,-0.5 83,-0.5 83,-0.5 89,-0.5 95,-6.5 95,-12.5 95,-12.5 95,-57.5 95,-57.5 95,-63.5 89,-69.5 83,-69.5 83,-69.5 42,-69.5 42,-69.5 36,-69.5 30,-63.5 30,-57.5 30,-57.5 30,-12.5 30,-12.5 30,-6.5 36,-0.5 42,-0.5"/>
<text text-anchor="middle" x="62.5" y="-54.3" font-family="Times,serif" font-size="14.00">Tag : 0</text>
<polyline fill="none" stroke="black" points="30,-46.5 95,-46.5 "/>
<text text-anchor="middle" x="62.5" y="-31.3" font-family="Times,serif" font-size="14.00">1</text>
<polyline fill="none" stroke="black" points="30,-23.5 95,-23.5 "/>
<text text-anchor="middle" x="62.5" y="-8.3" font-family="Times,serif" font-size="14.00">.</text>
</g>
<!-- p3&#45;&gt;p4 -->
<g id="edge3" class="edge">
<title>p3:f0&#45;&gt;p4:head</title>
<path fill="none" stroke="black" d="M32.5,-106C32.5,-89.24 51.93,-89.63 59.51,-79.57"/>
<polygon fill="black" stroke="black" points="62.86,-80.59 62.5,-70 56.18,-78.5 62.86,-80.59"/>
</g>
<!-- p4&#45;&gt;p2 -->
<g id="edge4" class="edge">
<title>p4:f1&#45;&gt;p2:head</title>
<path fill="none" stroke="black" d="M96.5,-12C158.07,-12 161.32,-274.46 106.24,-302.15"/>
<polygon fill="black" stroke="black" points="105.4,-298.75 96.5,-304.5 107.04,-305.55 105.4,-298.75"/>
</g>
<!-- p1&#45;&gt;p1 -->
<g id="edge6" class="edge">
<title>p1:f4&#45;&gt;p1:head</title>
<path fill="none" stroke="black" d="M203.44,-212.69C210.45,-267.07 209.8,-392 201.5,-392 194.36,-392 192.88,-365.15 197.07,-337.67"/>
<polygon fill="black" stroke="black" points="200.56,-338.02 198.87,-327.56 193.67,-336.79 200.56,-338.02"/>
</g>
</g>
</svg>
