<?xml version="1.0" encoding="UTF-8" standalone="no"?>
<!DOCTYPE svg PUBLIC "-//W3C//DTD SVG 1.1//EN"
 "http://www.w3.org/Graphics/SVG/1.1/DTD/svg11.dtd">
<!-- Generated by graphviz version 7.0.4 (0)
 -->
<!-- Title: g Pages: 1 -->
<svg width="941pt" height="465pt"
 viewBox="0.00 0.00 940.50 465.00" xmlns="http://www.w3.org/2000/svg" xmlns:xlink="http://www.w3.org/1999/xlink">
<g id="graph0" class="graph" transform="scale(1 1) rotate(0) translate(4 461)">
<title>g</title>
<!-- entry_4 -->
<g id="node1" class="node">
<title>entry_4</title>
<polygon fill="yellow" stroke="black" points="0,-410.5 0,-456.5 224,-456.5 224,-410.5 0,-410.5"/>
<text text-anchor="middle" x="112" y="-441.3" font-family="Times,serif" font-size="14.00">val : Array.make 3 (Array.make 5 42)</text>
<polyline fill="none" stroke="black" points="0,-433.5 224,-433.5"/>
<text text-anchor="middle" x="112" y="-418.3" font-family="Times,serif" font-size="14.00">.</text>
</g>
<!-- p1 -->
<g id="node19" class="node">
<title>p1</title>
<path fill="lightblue" stroke="black" d="M96,-270C96,-270 128,-270 128,-270 134,-270 140,-276 140,-282 140,-282 140,-350 140,-350 140,-356 134,-362 128,-362 128,-362 96,-362 96,-362 90,-362 84,-356 84,-350 84,-350 84,-282 84,-282 84,-276 90,-270 96,-270"/>
<text text-anchor="middle" x="112" y="-346.8" font-family="Times,serif" font-size="14.00">Tag : 0</text>
<polyline fill="none" stroke="black" points="84,-339 140,-339"/>
<text text-anchor="middle" x="112" y="-323.8" font-family="Times,serif" font-size="14.00">.</text>
<polyline fill="none" stroke="black" points="84,-316 140,-316"/>
<text text-anchor="middle" x="112" y="-300.8" font-family="Times,serif" font-size="14.00">.</text>
<polyline fill="none" stroke="black" points="84,-293 140,-293"/>
<text text-anchor="middle" x="112" y="-277.8" font-family="Times,serif" font-size="14.00">.</text>
</g>
<!-- entry_4&#45;&gt;p1 -->
<g id="edge14" class="edge">
<title>entry_4&#45;&gt;p1:head</title>
<path fill="none" stroke="black" d="M112,-410.59C112,-400.11 112,-387.12 112,-374.46"/>
<polygon fill="black" stroke="black" points="115.5,-374.51 112,-364.51 108.5,-374.51 115.5,-374.51"/>
</g>
<!-- entry_3 -->
<g id="node2" class="node">
<title>entry_3</title>
<polygon fill="yellow" stroke="black" points="242.5,-410.5 242.5,-456.5 431.5,-456.5 431.5,-410.5 242.5,-410.5"/>
<text text-anchor="middle" x="337" y="-441.3" font-family="Times,serif" font-size="14.00">val : Array.make_matrix 3 5 42</text>
<polyline fill="none" stroke="black" points="242.5,-433.5 431.5,-433.5"/>
<text text-anchor="middle" x="337" y="-418.3" font-family="Times,serif" font-size="14.00">.</text>
</g>
<!-- p3 -->
<g id="node15" class="node">
<title>p3</title>
<path fill="lightblue" stroke="black" d="M321,-270C321,-270 353,-270 353,-270 359,-270 365,-276 365,-282 365,-282 365,-350 365,-350 365,-356 359,-362 353,-362 353,-362 321,-362 321,-362 315,-362 309,-356 309,-350 309,-350 309,-282 309,-282 309,-276 315,-270 321,-270"/>
<text text-anchor="middle" x="337" y="-346.8" font-family="Times,serif" font-size="14.00">Tag : 0</text>
<polyline fill="none" stroke="black" points="309,-339 365,-339"/>
<text text-anchor="middle" x="337" y="-323.8" font-family="Times,serif" font-size="14.00">.</text>
<polyline fill="none" stroke="black" points="309,-316 365,-316"/>
<text text-anchor="middle" x="337" y="-300.8" font-family="Times,serif" font-size="14.00">.</text>
<polyline fill="none" stroke="black" points="309,-293 365,-293"/>
<text text-anchor="middle" x="337" y="-277.8" font-family="Times,serif" font-size="14.00">.</text>
</g>
<!-- entry_3&#45;&gt;p3 -->
<g id="edge10" class="edge">
<title>entry_3&#45;&gt;p3:head</title>
<path fill="none" stroke="black" d="M337,-410.59C337,-400.11 337,-387.12 337,-374.46"/>
<polygon fill="black" stroke="black" points="340.5,-374.51 337,-364.51 333.5,-374.51 340.5,-374.51"/>
</g>
<!-- entry_2 -->
<g id="node3" class="node">
<title>entry_2</title>
<polygon fill="yellow" stroke="black" points="463,-410.5 463,-456.5 669,-456.5 669,-410.5 463,-410.5"/>
<text text-anchor="middle" x="566" y="-441.3" font-family="Times,serif" font-size="14.00">val : [| (5,8.0); (42, 1.0); (0, 1.5) |]</text>
<polyline fill="none" stroke="black" points="463,-433.5 669,-433.5"/>
<text text-anchor="middle" x="566" y="-418.3" font-family="Times,serif" font-size="14.00">.</text>
</g>
<!-- p7 -->
<g id="node8" class="node">
<title>p7</title>
<path fill="lightblue" stroke="black" d="M550,-270C550,-270 582,-270 582,-270 588,-270 594,-276 594,-282 594,-282 594,-350 594,-350 594,-356 588,-362 582,-362 582,-362 550,-362 550,-362 544,-362 538,-356 538,-350 538,-350 538,-282 538,-282 538,-276 544,-270 550,-270"/>
<text text-anchor="middle" x="566" y="-346.8" font-family="Times,serif" font-size="14.00">Tag : 0</text>
<polyline fill="none" stroke="black" points="538,-339 594,-339"/>
<text text-anchor="middle" x="566" y="-323.8" font-family="Times,serif" font-size="14.00">.</text>
<polyline fill="none" stroke="black" points="538,-316 594,-316"/>
<text text-anchor="middle" x="566" y="-300.8" font-family="Times,serif" font-size="14.00">.</text>
<polyline fill="none" stroke="black" points="538,-293 594,-293"/>
<text text-anchor="middle" x="566" y="-277.8" font-family="Times,serif" font-size="14.00">.</text>
</g>
<!-- entry_2&#45;&gt;p7 -->
<g id="edge3" class="edge">
<title>entry_2&#45;&gt;p7:head</title>
<path fill="none" stroke="black" d="M566,-410.59C566,-400.11 566,-387.12 566,-374.46"/>
<polygon fill="black" stroke="black" points="569.5,-374.51 566,-364.51 562.5,-374.51 569.5,-374.51"/>
</g>
<!-- entry_1 -->
<g id="node4" class="node">
<title>entry_1</title>
<polygon fill="yellow" stroke="black" points="687,-410.5 687,-456.5 827,-456.5 827,-410.5 687,-410.5"/>
<text text-anchor="middle" x="757" y="-441.3" font-family="Times,serif" font-size="14.00">val : [|1.0;2.0;3.0;4.0|]</text>
<polyline fill="none" stroke="black" points="687,-433.5 827,-433.5"/>
<text text-anchor="middle" x="757" y="-418.3" font-family="Times,serif" font-size="14.00">.</text>
</g>
<!-- p14 -->
<g id="node7" class="node">
<title>p14</title>
<path fill="lightblue" stroke="black" d="M734.5,-258.5C734.5,-258.5 779.5,-258.5 779.5,-258.5 785.5,-258.5 791.5,-264.5 791.5,-270.5 791.5,-270.5 791.5,-361.5 791.5,-361.5 791.5,-367.5 785.5,-373.5 779.5,-373.5 779.5,-373.5 734.5,-373.5 734.5,-373.5 728.5,-373.5 722.5,-367.5 722.5,-361.5 722.5,-361.5 722.5,-270.5 722.5,-270.5 722.5,-264.5 728.5,-258.5 734.5,-258.5"/>
<text text-anchor="middle" x="757" y="-358.3" font-family="Times,serif" font-size="14.00">Tag : 254</text>
<polyline fill="none" stroke="black" points="722.5,-350.5 791.5,-350.5"/>
<text text-anchor="middle" x="757" y="-335.3" font-family="Times,serif" font-size="14.00">1.000000</text>
<polyline fill="none" stroke="black" points="722.5,-327.5 791.5,-327.5"/>
<text text-anchor="middle" x="757" y="-312.3" font-family="Times,serif" font-size="14.00">2.000000</text>
<polyline fill="none" stroke="black" points="722.5,-304.5 791.5,-304.5"/>
<text text-anchor="middle" x="757" y="-289.3" font-family="Times,serif" font-size="14.00">3.000000</text>
<polyline fill="none" stroke="black" points="722.5,-281.5 791.5,-281.5"/>
<text text-anchor="middle" x="757" y="-266.3" font-family="Times,serif" font-size="14.00">4.000000</text>
</g>
<!-- entry_1&#45;&gt;p14 -->
<g id="edge2" class="edge">
<title>entry_1&#45;&gt;p14:head</title>
<path fill="none" stroke="black" d="M757,-410.55C757,-402.92 757,-394.07 757,-385.33"/>
<polygon fill="black" stroke="black" points="760.5,-385.51 757,-375.51 753.5,-385.51 760.5,-385.51"/>
</g>
<!-- entry_0 -->
<g id="node5" class="node">
<title>entry_0</title>
<polygon fill="yellow" stroke="black" points="845.5,-410.5 845.5,-456.5 932.5,-456.5 932.5,-410.5 845.5,-410.5"/>
<text text-anchor="middle" x="889" y="-441.3" font-family="Times,serif" font-size="14.00">val : [|4;5;6|]</text>
<polyline fill="none" stroke="black" points="845.5,-433.5 932.5,-433.5"/>
<text text-anchor="middle" x="889" y="-418.3" font-family="Times,serif" font-size="14.00">.</text>
</g>
<!-- p15 -->
<g id="node6" class="node">
<title>p15</title>
<path fill="lightblue" stroke="black" d="M873,-270C873,-270 905,-270 905,-270 911,-270 917,-276 917,-282 917,-282 917,-350 917,-350 917,-356 911,-362 905,-362 905,-362 873,-362 873,-362 867,-362 861,-356 861,-350 861,-350 861,-282 861,-282 861,-276 867,-270 873,-270"/>
<text text-anchor="middle" x="889" y="-346.8" font-family="Times,serif" font-size="14.00">Tag : 0</text>
<polyline fill="none" stroke="black" points="861,-339 917,-339"/>
<text text-anchor="middle" x="889" y="-323.8" font-family="Times,serif" font-size="14.00">4</text>
<polyline fill="none" stroke="black" points="861,-316 917,-316"/>
<text text-anchor="middle" x="889" y="-300.8" font-family="Times,serif" font-size="14.00">5</text>
<polyline fill="none" stroke="black" points="861,-293 917,-293"/>
<text text-anchor="middle" x="889" y="-277.8" font-family="Times,serif" font-size="14.00">6</text>
</g>
<!-- entry_0&#45;&gt;p15 -->
<g id="edge1" class="edge">
<title>entry_0&#45;&gt;p15:head</title>
<path fill="none" stroke="black" d="M889,-410.59C889,-400.11 889,-387.12 889,-374.46"/>
<polygon fill="black" stroke="black" points="892.5,-374.51 889,-364.51 885.5,-374.51 892.5,-374.51"/>
</g>
<!-- p8 -->
<g id="node9" class="node">
<title>p8</title>
<path fill="lightblue" stroke="black" d="M469,-118C469,-118 501,-118 501,-118 507,-118 513,-124 513,-130 513,-130 513,-175 513,-175 513,-181 507,-187 501,-187 501,-187 469,-187 469,-187 463,-187 457,-181 457,-175 457,-175 457,-130 457,-130 457,-124 463,-118 469,-118"/>
<text text-anchor="middle" x="485" y="-171.8" font-family="Times,serif" font-size="14.00">Tag : 0</text>
<polyline fill="none" stroke="black" points="457,-164 513,-164"/>
<text text-anchor="middle" x="485" y="-148.8" font-family="Times,serif" font-size="14.00">5</text>
<polyline fill="none" stroke="black" points="457,-141 513,-141"/>
<text text-anchor="middle" x="485" y="-125.8" font-family="Times,serif" font-size="14.00">.</text>
</g>
<!-- p7&#45;&gt;p8 -->
<g id="edge4" class="edge">
<title>p7:f0&#45;&gt;p8:head</title>
<path fill="none" stroke="black" d="M537,-328C507.01,-328 538.13,-211.24 523.42,-182.05"/>
<polygon fill="black" stroke="black" points="525.45,-179.2 515.24,-176.36 521.45,-184.95 525.45,-179.2"/>
</g>
<!-- p10 -->
<g id="node10" class="node">
<title>p10</title>
<path fill="lightblue" stroke="black" d="M550,-118C550,-118 582,-118 582,-118 588,-118 594,-124 594,-130 594,-130 594,-175 594,-175 594,-181 588,-187 582,-187 582,-187 550,-187 550,-187 544,-187 538,-181 538,-175 538,-175 538,-130 538,-130 538,-124 544,-118 550,-118"/>
<text text-anchor="middle" x="566" y="-171.8" font-family="Times,serif" font-size="14.00">Tag : 0</text>
<polyline fill="none" stroke="black" points="538,-164 594,-164"/>
<text text-anchor="middle" x="566" y="-148.8" font-family="Times,serif" font-size="14.00">42</text>
<polyline fill="none" stroke="black" points="538,-141 594,-141"/>
<text text-anchor="middle" x="566" y="-125.8" font-family="Times,serif" font-size="14.00">.</text>
</g>
<!-- p7&#45;&gt;p10 -->
<g id="edge5" class="edge">
<title>p7:f1&#45;&gt;p10:head</title>
<path fill="none" stroke="black" d="M595,-304C610.34,-304 596.76,-284.59 594,-269.5 587.9,-236.13 570.45,-228.16 566.71,-199.91"/>
<polygon fill="black" stroke="black" points="570.21,-199.77 566.09,-190.01 563.22,-200.21 570.21,-199.77"/>
</g>
<!-- p12 -->
<g id="node11" class="node">
<title>p12</title>
<path fill="lightblue" stroke="black" d="M630,-118C630,-118 662,-118 662,-118 668,-118 674,-124 674,-130 674,-130 674,-175 674,-175 674,-181 668,-187 662,-187 662,-187 630,-187 630,-187 624,-187 618,-181 618,-175 618,-175 618,-130 618,-130 618,-124 624,-118 630,-118"/>
<text text-anchor="middle" x="646" y="-171.8" font-family="Times,serif" font-size="14.00">Tag : 0</text>
<polyline fill="none" stroke="black" points="618,-164 674,-164"/>
<text text-anchor="middle" x="646" y="-148.8" font-family="Times,serif" font-size="14.00">0</text>
<polyline fill="none" stroke="black" points="618,-141 674,-141"/>
<text text-anchor="middle" x="646" y="-125.8" font-family="Times,serif" font-size="14.00">.</text>
</g>
<!-- p7&#45;&gt;p12 -->
<g id="edge6" class="edge">
<title>p7:f2&#45;&gt;p12:head</title>
<path fill="none" stroke="black" d="M595,-281C614.93,-281 600.34,-207.96 608.68,-183.43"/>
<polygon fill="black" stroke="black" points="611.08,-185.98 615.9,-176.54 606.25,-180.91 611.08,-185.98"/>
</g>
<!-- p9 -->
<g id="node14" class="node">
<title>p9</title>
<path fill="lightblue" stroke="black" d="M456.5,-0.5C456.5,-0.5 501.5,-0.5 501.5,-0.5 507.5,-0.5 513.5,-6.5 513.5,-12.5 513.5,-12.5 513.5,-34.5 513.5,-34.5 513.5,-40.5 507.5,-46.5 501.5,-46.5 501.5,-46.5 456.5,-46.5 456.5,-46.5 450.5,-46.5 444.5,-40.5 444.5,-34.5 444.5,-34.5 444.5,-12.5 444.5,-12.5 444.5,-6.5 450.5,-0.5 456.5,-0.5"/>
<text text-anchor="middle" x="479" y="-31.3" font-family="Times,serif" font-size="14.00">Tag : 253</text>
<polyline fill="none" stroke="black" points="444.5,-23.5 513.5,-23.5"/>
<text text-anchor="middle" x="479" y="-8.3" font-family="Times,serif" font-size="14.00">8.000000</text>
</g>
<!-- p8&#45;&gt;p9 -->
<g id="edge9" class="edge">
<title>p8:f1&#45;&gt;p9:head</title>
<path fill="none" stroke="black" d="M485,-116.5C485,-89.61 480.49,-80.41 479.29,-58.22"/>
<polygon fill="black" stroke="black" points="482.8,-58.42 479.04,-48.51 475.8,-58.6 482.8,-58.42"/>
</g>
<!-- p11 -->
<g id="node13" class="node">
<title>p11</title>
<path fill="lightblue" stroke="black" d="M543.5,-0.5C543.5,-0.5 588.5,-0.5 588.5,-0.5 594.5,-0.5 600.5,-6.5 600.5,-12.5 600.5,-12.5 600.5,-34.5 600.5,-34.5 600.5,-40.5 594.5,-46.5 588.5,-46.5 588.5,-46.5 543.5,-46.5 543.5,-46.5 537.5,-46.5 531.5,-40.5 531.5,-34.5 531.5,-34.5 531.5,-12.5 531.5,-12.5 531.5,-6.5 537.5,-0.5 543.5,-0.5"/>
<text text-anchor="middle" x="566" y="-31.3" font-family="Times,serif" font-size="14.00">Tag : 253</text>
<polyline fill="none" stroke="black" points="531.5,-23.5 600.5,-23.5"/>
<text text-anchor="middle" x="566" y="-8.3" font-family="Times,serif" font-size="14.00">1.000000</text>
</g>
<!-- p10&#45;&gt;p11 -->
<g id="edge8" class="edge">
<title>p10:f1&#45;&gt;p11:head</title>
<path fill="none" stroke="black" d="M566,-116.5C566,-89.83 566,-80.43 566,-58.49"/>
<polygon fill="black" stroke="black" points="569.5,-58.51 566,-48.51 562.5,-58.51 569.5,-58.51"/>
</g>
<!-- p13 -->
<g id="node12" class="node">
<title>p13</title>
<path fill="lightblue" stroke="black" d="M630.5,-0.5C630.5,-0.5 675.5,-0.5 675.5,-0.5 681.5,-0.5 687.5,-6.5 687.5,-12.5 687.5,-12.5 687.5,-34.5 687.5,-34.5 687.5,-40.5 681.5,-46.5 675.5,-46.5 675.5,-46.5 630.5,-46.5 630.5,-46.5 624.5,-46.5 618.5,-40.5 618.5,-34.5 618.5,-34.5 618.5,-12.5 618.5,-12.5 618.5,-6.5 624.5,-0.5 630.5,-0.5"/>
<text text-anchor="middle" x="653" y="-31.3" font-family="Times,serif" font-size="14.00">Tag : 253</text>
<polyline fill="none" stroke="black" points="618.5,-23.5 687.5,-23.5"/>
<text text-anchor="middle" x="653" y="-8.3" font-family="Times,serif" font-size="14.00">1.500000</text>
</g>
<!-- p12&#45;&gt;p13 -->
<g id="edge7" class="edge">
<title>p12:f1&#45;&gt;p13:head</title>
<path fill="none" stroke="black" d="M646,-116.5C646,-89.58 651.26,-80.43 652.66,-58.23"/>
<polygon fill="black" stroke="black" points="656.15,-58.61 652.95,-48.51 649.16,-58.4 656.15,-58.61"/>
</g>
<!-- p4 -->
<g id="node16" class="node">
<title>p4</title>
<path fill="lightblue" stroke="black" d="M247,-83.5C247,-83.5 279,-83.5 279,-83.5 285,-83.5 291,-89.5 291,-95.5 291,-95.5 291,-209.5 291,-209.5 291,-215.5 285,-221.5 279,-221.5 279,-221.5 247,-221.5 247,-221.5 241,-221.5 235,-215.5 235,-209.5 235,-209.5 235,-95.5 235,-95.5 235,-89.5 241,-83.5 247,-83.5"/>
<text text-anchor="middle" x="263" y="-206.3" font-family="Times,serif" font-size="14.00">Tag : 0</text>
<polyline fill="none" stroke="black" points="235,-198.5 291,-198.5"/>
<text text-anchor="middle" x="263" y="-183.3" font-family="Times,serif" font-size="14.00">42</text>
<polyline fill="none" stroke="black" points="235,-175.5 291,-175.5"/>
<text text-anchor="middle" x="263" y="-160.3" font-family="Times,serif" font-size="14.00">42</text>
<polyline fill="none" stroke="black" points="235,-152.5 291,-152.5"/>
<text text-anchor="middle" x="263" y="-137.3" font-family="Times,serif" font-size="14.00">42</text>
<polyline fill="none" stroke="black" points="235,-129.5 291,-129.5"/>
<text text-anchor="middle" x="263" y="-114.3" font-family="Times,serif" font-size="14.00">42</text>
<polyline fill="none" stroke="black" points="235,-106.5 291,-106.5"/>
<text text-anchor="middle" x="263" y="-91.3" font-family="Times,serif" font-size="14.00">42</text>
</g>
<!-- p3&#45;&gt;p4 -->
<g id="edge11" class="edge">
<title>p3:f0&#45;&gt;p4:head</title>
<path fill="none" stroke="black" d="M308,-328C297.19,-328 302.22,-248.93 297.1,-220.52"/>
<polygon fill="black" stroke="black" points="300.34,-219.17 292.69,-211.85 294.1,-222.35 300.34,-219.17"/>
</g>
<!-- p5 -->
<g id="node17" class="node">
<title>p5</title>
<path fill="lightblue" stroke="black" d="M321,-83.5C321,-83.5 353,-83.5 353,-83.5 359,-83.5 365,-89.5 365,-95.5 365,-95.5 365,-209.5 365,-209.5 365,-215.5 359,-221.5 353,-221.5 353,-221.5 321,-221.5 321,-221.5 315,-221.5 309,-215.5 309,-209.5 309,-209.5 309,-95.5 309,-95.5 309,-89.5 315,-83.5 321,-83.5"/>
<text text-anchor="middle" x="337" y="-206.3" font-family="Times,serif" font-size="14.00">Tag : 0</text>
<polyline fill="none" stroke="black" points="309,-198.5 365,-198.5"/>
<text text-anchor="middle" x="337" y="-183.3" font-family="Times,serif" font-size="14.00">42</text>
<polyline fill="none" stroke="black" points="309,-175.5 365,-175.5"/>
<text text-anchor="middle" x="337" y="-160.3" font-family="Times,serif" font-size="14.00">42</text>
<polyline fill="none" stroke="black" points="309,-152.5 365,-152.5"/>
<text text-anchor="middle" x="337" y="-137.3" font-family="Times,serif" font-size="14.00">42</text>
<polyline fill="none" stroke="black" points="309,-129.5 365,-129.5"/>
<text text-anchor="middle" x="337" y="-114.3" font-family="Times,serif" font-size="14.00">42</text>
<polyline fill="none" stroke="black" points="309,-106.5 365,-106.5"/>
<text text-anchor="middle" x="337" y="-91.3" font-family="Times,serif" font-size="14.00">42</text>
</g>
<!-- p3&#45;&gt;p5 -->
<g id="edge12" class="edge">
<title>p3:f1&#45;&gt;p5:head</title>
<path fill="none" stroke="black" d="M366,-304C381.34,-304 369.25,-284.24 365,-269.5 359.43,-250.18 344.16,-247.09 338.85,-233.07"/>
<polygon fill="black" stroke="black" points="342.35,-232.78 337.25,-223.49 335.44,-233.93 342.35,-232.78"/>
</g>
<!-- p6 -->
<g id="node18" class="node">
<title>p6</title>
<path fill="lightblue" stroke="black" d="M395,-83.5C395,-83.5 427,-83.5 427,-83.5 433,-83.5 439,-89.5 439,-95.5 439,-95.5 439,-209.5 439,-209.5 439,-215.5 433,-221.5 427,-221.5 427,-221.5 395,-221.5 395,-221.5 389,-221.5 383,-215.5 383,-209.5 383,-209.5 383,-95.5 383,-95.5 383,-89.5 389,-83.5 395,-83.5"/>
<text text-anchor="middle" x="411" y="-206.3" font-family="Times,serif" font-size="14.00">Tag : 0</text>
<polyline fill="none" stroke="black" points="383,-198.5 439,-198.5"/>
<text text-anchor="middle" x="411" y="-183.3" font-family="Times,serif" font-size="14.00">42</text>
<polyline fill="none" stroke="black" points="383,-175.5 439,-175.5"/>
<text text-anchor="middle" x="411" y="-160.3" font-family="Times,serif" font-size="14.00">42</text>
<polyline fill="none" stroke="black" points="383,-152.5 439,-152.5"/>
<text text-anchor="middle" x="411" y="-137.3" font-family="Times,serif" font-size="14.00">42</text>
<polyline fill="none" stroke="black" points="383,-129.5 439,-129.5"/>
<text text-anchor="middle" x="411" y="-114.3" font-family="Times,serif" font-size="14.00">42</text>
<polyline fill="none" stroke="black" points="383,-106.5 439,-106.5"/>
<text text-anchor="middle" x="411" y="-91.3" font-family="Times,serif" font-size="14.00">42</text>
</g>
<!-- p3&#45;&gt;p6 -->
<g id="edge13" class="edge">
<title>p3:f2&#45;&gt;p6:head</title>
<path fill="none" stroke="black" d="M366,-281C378.43,-281 371.59,-238.83 375.29,-219.72"/>
<polygon fill="black" stroke="black" points="378.05,-221.87 381.11,-211.72 372.39,-217.75 378.05,-221.87"/>
</g>
<!-- p2 -->
<g id="node20" class="node">
<title>p2</title>
<path fill="lightblue" stroke="black" d="M96,-83.5C96,-83.5 128,-83.5 128,-83.5 134,-83.5 140,-89.5 140,-95.5 140,-95.5 140,-209.5 140,-209.5 140,-215.5 134,-221.5 128,-221.5 128,-221.5 96,-221.5 96,-221.5 90,-221.5 84,-215.5 84,-209.5 84,-209.5 84,-95.5 84,-95.5 84,-89.5 90,-83.5 96,-83.5"/>
<text text-anchor="middle" x="112" y="-206.3" font-family="Times,serif" font-size="14.00">Tag : 0</text>
<polyline fill="none" stroke="black" points="84,-198.5 140,-198.5"/>
<text text-anchor="middle" x="112" y="-183.3" font-family="Times,serif" font-size="14.00">42</text>
<polyline fill="none" stroke="black" points="84,-175.5 140,-175.5"/>
<text text-anchor="middle" x="112" y="-160.3" font-family="Times,serif" font-size="14.00">42</text>
<polyline fill="none" stroke="black" points="84,-152.5 140,-152.5"/>
<text text-anchor="middle" x="112" y="-137.3" font-family="Times,serif" font-size="14.00">42</text>
<polyline fill="none" stroke="black" points="84,-129.5 140,-129.5"/>
<text text-anchor="middle" x="112" y="-114.3" font-family="Times,serif" font-size="14.00">42</text>
<polyline fill="none" stroke="black" points="84,-106.5 140,-106.5"/>
<text text-anchor="middle" x="112" y="-91.3" font-family="Times,serif" font-size="14.00">42</text>
</g>
<!-- p1&#45;&gt;p2 -->
<g id="edge15" class="edge">
<title>p1:f0&#45;&gt;p2:head</title>
<path fill="none" stroke="black" d="M141,-328C184.97,-328 133.56,-259.64 116.88,-232.2"/>
<polygon fill="black" stroke="black" points="120.12,-230.88 112.65,-223.37 113.81,-233.9 120.12,-230.88"/>
</g>
<!-- p1&#45;&gt;p2 -->
<g id="edge16" class="edge">
<title>p1:f1&#45;&gt;p2:head</title>
<path fill="none" stroke="black" d="M141,-304C156.34,-304 144.25,-284.24 140,-269.5 134.43,-250.18 119.16,-247.09 113.85,-233.07"/>
<polygon fill="black" stroke="black" points="117.35,-232.78 112.25,-223.49 110.44,-233.93 117.35,-232.78"/>
</g>
<!-- p1&#45;&gt;p2 -->
<g id="edge17" class="edge">
<title>p1:f2&#45;&gt;p2:head</title>
<path fill="none" stroke="black" d="M112,-269C112,-252.52 112,-245.79 112,-233.42"/>
<polygon fill="black" stroke="black" points="115.5,-233.51 112,-223.51 108.5,-233.51 115.5,-233.51"/>
</g>
</g>
</svg>
