<?xml version="1.0" encoding="UTF-8" standalone="no"?>
<!DOCTYPE svg PUBLIC "-//W3C//DTD SVG 1.1//EN"
 "http://www.w3.org/Graphics/SVG/1.1/DTD/svg11.dtd">
<!-- Generated by graphviz version 2.50.0 (0)
 -->
<!-- Title: g Pages: 1 -->
<svg width="1135pt" height="465pt"
 viewBox="0.00 0.00 1134.50 465.00" xmlns="http://www.w3.org/2000/svg" xmlns:xlink="http://www.w3.org/1999/xlink">
<g id="graph0" class="graph" transform="scale(1 1) rotate(0) translate(4 461)">
<title>g</title>
<polygon fill="white" stroke="transparent" points="-4,4 -4,-461 1130.5,-461 1130.5,4 -4,4"/>
<!-- entry_0 -->
<g id="node1" class="node">
<title>entry_0</title>
<polygon fill="yellow" stroke="black" points="0,-410.5 0,-456.5 107,-456.5 107,-410.5 0,-410.5"/>
<text text-anchor="middle" x="53.5" y="-441.3" font-family="Times,serif" font-size="14.00">val : [|4;5;6|]</text>
<polyline fill="none" stroke="black" points="0,-433.5 107,-433.5 "/>
<text text-anchor="middle" x="53.5" y="-418.3" font-family="Times,serif" font-size="14.00">.</text>
</g>
<!-- p15 -->
<g id="node6" class="node">
<title>p15</title>
<path fill="lightblue" stroke="black" d="M33,-270C33,-270 74,-270 74,-270 80,-270 86,-276 86,-282 86,-282 86,-350 86,-350 86,-356 80,-362 74,-362 74,-362 33,-362 33,-362 27,-362 21,-356 21,-350 21,-350 21,-282 21,-282 21,-276 27,-270 33,-270"/>
<text text-anchor="middle" x="53.5" y="-346.8" font-family="Times,serif" font-size="14.00">Tag : 0</text>
<polyline fill="none" stroke="black" points="21,-339 86,-339 "/>
<text text-anchor="middle" x="53.5" y="-323.8" font-family="Times,serif" font-size="14.00">4</text>
<polyline fill="none" stroke="black" points="21,-316 86,-316 "/>
<text text-anchor="middle" x="53.5" y="-300.8" font-family="Times,serif" font-size="14.00">5</text>
<polyline fill="none" stroke="black" points="21,-293 86,-293 "/>
<text text-anchor="middle" x="53.5" y="-277.8" font-family="Times,serif" font-size="14.00">6</text>
</g>
<!-- entry_0&#45;&gt;p15 -->
<g id="edge1" class="edge">
<title>entry_0&#45;&gt;p15:head</title>
<path fill="none" stroke="black" d="M53.5,-410.28C53.5,-399.51 53.5,-386.14 53.5,-373.21"/>
<polygon fill="black" stroke="black" points="57,-373 53.5,-363 50,-373 57,-373"/>
</g>
<!-- entry_1 -->
<g id="node2" class="node">
<title>entry_1</title>
<polygon fill="yellow" stroke="black" points="125.5,-410.5 125.5,-456.5 299.5,-456.5 299.5,-410.5 125.5,-410.5"/>
<text text-anchor="middle" x="212.5" y="-441.3" font-family="Times,serif" font-size="14.00">val : [|1.0;2.0;3.0;4.0|]</text>
<polyline fill="none" stroke="black" points="125.5,-433.5 299.5,-433.5 "/>
<text text-anchor="middle" x="212.5" y="-418.3" font-family="Times,serif" font-size="14.00">.</text>
</g>
<!-- p14 -->
<g id="node7" class="node">
<title>p14</title>
<path fill="lightblue" stroke="black" d="M182.5,-258.5C182.5,-258.5 242.5,-258.5 242.5,-258.5 248.5,-258.5 254.5,-264.5 254.5,-270.5 254.5,-270.5 254.5,-361.5 254.5,-361.5 254.5,-367.5 248.5,-373.5 242.5,-373.5 242.5,-373.5 182.5,-373.5 182.5,-373.5 176.5,-373.5 170.5,-367.5 170.5,-361.5 170.5,-361.5 170.5,-270.5 170.5,-270.5 170.5,-264.5 176.5,-258.5 182.5,-258.5"/>
<text text-anchor="middle" x="212.5" y="-358.3" font-family="Times,serif" font-size="14.00">Tag : 254</text>
<polyline fill="none" stroke="black" points="170.5,-350.5 254.5,-350.5 "/>
<text text-anchor="middle" x="212.5" y="-335.3" font-family="Times,serif" font-size="14.00">1.000000</text>
<polyline fill="none" stroke="black" points="170.5,-327.5 254.5,-327.5 "/>
<text text-anchor="middle" x="212.5" y="-312.3" font-family="Times,serif" font-size="14.00">2.000000</text>
<polyline fill="none" stroke="black" points="170.5,-304.5 254.5,-304.5 "/>
<text text-anchor="middle" x="212.5" y="-289.3" font-family="Times,serif" font-size="14.00">3.000000</text>
<polyline fill="none" stroke="black" points="170.5,-281.5 254.5,-281.5 "/>
<text text-anchor="middle" x="212.5" y="-266.3" font-family="Times,serif" font-size="14.00">4.000000</text>
</g>
<!-- entry_1&#45;&gt;p14 -->
<g id="edge2" class="edge">
<title>entry_1&#45;&gt;p14:head</title>
<path fill="none" stroke="black" d="M212.5,-410.28C212.5,-402.34 212.5,-393.11 212.5,-384.06"/>
<polygon fill="black" stroke="black" points="216,-384 212.5,-374 209,-384 216,-384"/>
</g>
<!-- entry_2 -->
<g id="node3" class="node">
<title>entry_2</title>
<polygon fill="yellow" stroke="black" points="318,-410.5 318,-456.5 573,-456.5 573,-410.5 318,-410.5"/>
<text text-anchor="middle" x="445.5" y="-441.3" font-family="Times,serif" font-size="14.00">val : [| (5,8.0); (42, 1.0); (0, 1.5) |]</text>
<polyline fill="none" stroke="black" points="318,-433.5 573,-433.5 "/>
<text text-anchor="middle" x="445.5" y="-418.3" font-family="Times,serif" font-size="14.00">.</text>
</g>
<!-- p7 -->
<g id="node8" class="node">
<title>p7</title>
<path fill="lightblue" stroke="black" d="M425,-270C425,-270 466,-270 466,-270 472,-270 478,-276 478,-282 478,-282 478,-350 478,-350 478,-356 472,-362 466,-362 466,-362 425,-362 425,-362 419,-362 413,-356 413,-350 413,-350 413,-282 413,-282 413,-276 419,-270 425,-270"/>
<text text-anchor="middle" x="445.5" y="-346.8" font-family="Times,serif" font-size="14.00">Tag : 0</text>
<polyline fill="none" stroke="black" points="413,-339 478,-339 "/>
<text text-anchor="middle" x="445.5" y="-323.8" font-family="Times,serif" font-size="14.00">.</text>
<polyline fill="none" stroke="black" points="413,-316 478,-316 "/>
<text text-anchor="middle" x="445.5" y="-300.8" font-family="Times,serif" font-size="14.00">.</text>
<polyline fill="none" stroke="black" points="413,-293 478,-293 "/>
<text text-anchor="middle" x="445.5" y="-277.8" font-family="Times,serif" font-size="14.00">.</text>
</g>
<!-- entry_2&#45;&gt;p7 -->
<g id="edge3" class="edge">
<title>entry_2&#45;&gt;p7:head</title>
<path fill="none" stroke="black" d="M445.5,-410.28C445.5,-399.51 445.5,-386.14 445.5,-373.21"/>
<polygon fill="black" stroke="black" points="449,-373 445.5,-363 442,-373 449,-373"/>
</g>
<!-- entry_3 -->
<g id="node4" class="node">
<title>entry_3</title>
<polygon fill="yellow" stroke="black" points="597,-410.5 597,-456.5 832,-456.5 832,-410.5 597,-410.5"/>
<text text-anchor="middle" x="714.5" y="-441.3" font-family="Times,serif" font-size="14.00">val : Array.make_matrix 3 5 42</text>
<polyline fill="none" stroke="black" points="597,-433.5 832,-433.5 "/>
<text text-anchor="middle" x="714.5" y="-418.3" font-family="Times,serif" font-size="14.00">.</text>
</g>
<!-- p3 -->
<g id="node15" class="node">
<title>p3</title>
<path fill="lightblue" stroke="black" d="M694,-270C694,-270 735,-270 735,-270 741,-270 747,-276 747,-282 747,-282 747,-350 747,-350 747,-356 741,-362 735,-362 735,-362 694,-362 694,-362 688,-362 682,-356 682,-350 682,-350 682,-282 682,-282 682,-276 688,-270 694,-270"/>
<text text-anchor="middle" x="714.5" y="-346.8" font-family="Times,serif" font-size="14.00">Tag : 0</text>
<polyline fill="none" stroke="black" points="682,-339 747,-339 "/>
<text text-anchor="middle" x="714.5" y="-323.8" font-family="Times,serif" font-size="14.00">.</text>
<polyline fill="none" stroke="black" points="682,-316 747,-316 "/>
<text text-anchor="middle" x="714.5" y="-300.8" font-family="Times,serif" font-size="14.00">.</text>
<polyline fill="none" stroke="black" points="682,-293 747,-293 "/>
<text text-anchor="middle" x="714.5" y="-277.8" font-family="Times,serif" font-size="14.00">.</text>
</g>
<!-- entry_3&#45;&gt;p3 -->
<g id="edge10" class="edge">
<title>entry_3&#45;&gt;p3:head</title>
<path fill="none" stroke="black" d="M714.5,-410.28C714.5,-399.51 714.5,-386.14 714.5,-373.21"/>
<polygon fill="black" stroke="black" points="718,-373 714.5,-363 711,-373 718,-373"/>
</g>
<!-- entry_4 -->
<g id="node5" class="node">
<title>entry_4</title>
<polygon fill="yellow" stroke="black" points="850.5,-410.5 850.5,-456.5 1126.5,-456.5 1126.5,-410.5 850.5,-410.5"/>
<text text-anchor="middle" x="988.5" y="-441.3" font-family="Times,serif" font-size="14.00">val : Array.make 3 (Array.make 5 42)</text>
<polyline fill="none" stroke="black" points="850.5,-433.5 1126.5,-433.5 "/>
<text text-anchor="middle" x="988.5" y="-418.3" font-family="Times,serif" font-size="14.00">.</text>
</g>
<!-- p1 -->
<g id="node19" class="node">
<title>p1</title>
<path fill="lightblue" stroke="black" d="M968,-270C968,-270 1009,-270 1009,-270 1015,-270 1021,-276 1021,-282 1021,-282 1021,-350 1021,-350 1021,-356 1015,-362 1009,-362 1009,-362 968,-362 968,-362 962,-362 956,-356 956,-350 956,-350 956,-282 956,-282 956,-276 962,-270 968,-270"/>
<text text-anchor="middle" x="988.5" y="-346.8" font-family="Times,serif" font-size="14.00">Tag : 0</text>
<polyline fill="none" stroke="black" points="956,-339 1021,-339 "/>
<text text-anchor="middle" x="988.5" y="-323.8" font-family="Times,serif" font-size="14.00">.</text>
<polyline fill="none" stroke="black" points="956,-316 1021,-316 "/>
<text text-anchor="middle" x="988.5" y="-300.8" font-family="Times,serif" font-size="14.00">.</text>
<polyline fill="none" stroke="black" points="956,-293 1021,-293 "/>
<text text-anchor="middle" x="988.5" y="-277.8" font-family="Times,serif" font-size="14.00">.</text>
</g>
<!-- entry_4&#45;&gt;p1 -->
<g id="edge14" class="edge">
<title>entry_4&#45;&gt;p1:head</title>
<path fill="none" stroke="black" d="M988.5,-410.28C988.5,-399.51 988.5,-386.14 988.5,-373.21"/>
<polygon fill="black" stroke="black" points="992,-373 988.5,-363 985,-373 992,-373"/>
</g>
<!-- p8 -->
<g id="node9" class="node">
<title>p8</title>
<path fill="lightblue" stroke="black" d="M333,-118C333,-118 374,-118 374,-118 380,-118 386,-124 386,-130 386,-130 386,-175 386,-175 386,-181 380,-187 374,-187 374,-187 333,-187 333,-187 327,-187 321,-181 321,-175 321,-175 321,-130 321,-130 321,-124 327,-118 333,-118"/>
<text text-anchor="middle" x="353.5" y="-171.8" font-family="Times,serif" font-size="14.00">Tag : 0</text>
<polyline fill="none" stroke="black" points="321,-164 386,-164 "/>
<text text-anchor="middle" x="353.5" y="-148.8" font-family="Times,serif" font-size="14.00">5</text>
<polyline fill="none" stroke="black" points="321,-141 386,-141 "/>
<text text-anchor="middle" x="353.5" y="-125.8" font-family="Times,serif" font-size="14.00">.</text>
</g>
<!-- p7&#45;&gt;p8 -->
<g id="edge4" class="edge">
<title>p7:f0&#45;&gt;p8:head</title>
<path fill="none" stroke="black" d="M411.5,-328C380.95,-328 412.99,-207.04 396.13,-180.57"/>
<polygon fill="black" stroke="black" points="397.89,-177.55 387.5,-175.5 394.35,-183.59 397.89,-177.55"/>
</g>
<!-- p10 -->
<g id="node10" class="node">
<title>p10</title>
<path fill="lightblue" stroke="black" d="M425,-118C425,-118 466,-118 466,-118 472,-118 478,-124 478,-130 478,-130 478,-175 478,-175 478,-181 472,-187 466,-187 466,-187 425,-187 425,-187 419,-187 413,-181 413,-175 413,-175 413,-130 413,-130 413,-124 419,-118 425,-118"/>
<text text-anchor="middle" x="445.5" y="-171.8" font-family="Times,serif" font-size="14.00">Tag : 0</text>
<polyline fill="none" stroke="black" points="413,-164 478,-164 "/>
<text text-anchor="middle" x="445.5" y="-148.8" font-family="Times,serif" font-size="14.00">42</text>
<polyline fill="none" stroke="black" points="413,-141 478,-141 "/>
<text text-anchor="middle" x="445.5" y="-125.8" font-family="Times,serif" font-size="14.00">.</text>
</g>
<!-- p7&#45;&gt;p10 -->
<g id="edge5" class="edge">
<title>p7:f1&#45;&gt;p10:head</title>
<path fill="none" stroke="black" d="M479.5,-304C494.84,-304 481.67,-284.51 478.5,-269.5 471.23,-235.03 450.03,-228.44 446.12,-198.57"/>
<polygon fill="black" stroke="black" points="449.61,-198.26 445.5,-188.5 442.63,-198.7 449.61,-198.26"/>
</g>
<!-- p12 -->
<g id="node11" class="node">
<title>p12</title>
<path fill="lightblue" stroke="black" d="M521,-118C521,-118 562,-118 562,-118 568,-118 574,-124 574,-130 574,-130 574,-175 574,-175 574,-181 568,-187 562,-187 562,-187 521,-187 521,-187 515,-187 509,-181 509,-175 509,-175 509,-130 509,-130 509,-124 515,-118 521,-118"/>
<text text-anchor="middle" x="541.5" y="-171.8" font-family="Times,serif" font-size="14.00">Tag : 0</text>
<polyline fill="none" stroke="black" points="509,-164 574,-164 "/>
<text text-anchor="middle" x="541.5" y="-148.8" font-family="Times,serif" font-size="14.00">0</text>
<polyline fill="none" stroke="black" points="509,-141 574,-141 "/>
<text text-anchor="middle" x="541.5" y="-125.8" font-family="Times,serif" font-size="14.00">.</text>
</g>
<!-- p7&#45;&gt;p12 -->
<g id="edge6" class="edge">
<title>p7:f2&#45;&gt;p12:head</title>
<path fill="none" stroke="black" d="M479.5,-281C523.84,-281 469.98,-192.85 497.45,-177.7"/>
<polygon fill="black" stroke="black" points="498.48,-181.06 507.5,-175.5 496.98,-174.22 498.48,-181.06"/>
</g>
<!-- p9 -->
<g id="node14" class="node">
<title>p9</title>
<path fill="lightblue" stroke="black" d="M313.5,-0.5C313.5,-0.5 373.5,-0.5 373.5,-0.5 379.5,-0.5 385.5,-6.5 385.5,-12.5 385.5,-12.5 385.5,-34.5 385.5,-34.5 385.5,-40.5 379.5,-46.5 373.5,-46.5 373.5,-46.5 313.5,-46.5 313.5,-46.5 307.5,-46.5 301.5,-40.5 301.5,-34.5 301.5,-34.5 301.5,-12.5 301.5,-12.5 301.5,-6.5 307.5,-0.5 313.5,-0.5"/>
<text text-anchor="middle" x="343.5" y="-31.3" font-family="Times,serif" font-size="14.00">Tag : 253</text>
<polyline fill="none" stroke="black" points="301.5,-23.5 385.5,-23.5 "/>
<text text-anchor="middle" x="343.5" y="-8.3" font-family="Times,serif" font-size="14.00">8.000000</text>
</g>
<!-- p8&#45;&gt;p9 -->
<g id="edge9" class="edge">
<title>p8:f1&#45;&gt;p9:head</title>
<path fill="none" stroke="black" d="M353.5,-116.5C353.5,-88.95 345.71,-80.2 343.88,-57.06"/>
<polygon fill="black" stroke="black" points="347.38,-56.86 343.5,-47 340.38,-57.13 347.38,-56.86"/>
</g>
<!-- p11 -->
<g id="node13" class="node">
<title>p11</title>
<path fill="lightblue" stroke="black" d="M415.5,-0.5C415.5,-0.5 475.5,-0.5 475.5,-0.5 481.5,-0.5 487.5,-6.5 487.5,-12.5 487.5,-12.5 487.5,-34.5 487.5,-34.5 487.5,-40.5 481.5,-46.5 475.5,-46.5 475.5,-46.5 415.5,-46.5 415.5,-46.5 409.5,-46.5 403.5,-40.5 403.5,-34.5 403.5,-34.5 403.5,-12.5 403.5,-12.5 403.5,-6.5 409.5,-0.5 415.5,-0.5"/>
<text text-anchor="middle" x="445.5" y="-31.3" font-family="Times,serif" font-size="14.00">Tag : 253</text>
<polyline fill="none" stroke="black" points="403.5,-23.5 487.5,-23.5 "/>
<text text-anchor="middle" x="445.5" y="-8.3" font-family="Times,serif" font-size="14.00">1.000000</text>
</g>
<!-- p10&#45;&gt;p11 -->
<g id="edge8" class="edge">
<title>p10:f1&#45;&gt;p11:head</title>
<path fill="none" stroke="black" d="M445.5,-116.5C445.5,-89.35 445.5,-80.1 445.5,-57.28"/>
<polygon fill="black" stroke="black" points="449,-57 445.5,-47 442,-57 449,-57"/>
</g>
<!-- p13 -->
<g id="node12" class="node">
<title>p13</title>
<path fill="lightblue" stroke="black" d="M517.5,-0.5C517.5,-0.5 577.5,-0.5 577.5,-0.5 583.5,-0.5 589.5,-6.5 589.5,-12.5 589.5,-12.5 589.5,-34.5 589.5,-34.5 589.5,-40.5 583.5,-46.5 577.5,-46.5 577.5,-46.5 517.5,-46.5 517.5,-46.5 511.5,-46.5 505.5,-40.5 505.5,-34.5 505.5,-34.5 505.5,-12.5 505.5,-12.5 505.5,-6.5 511.5,-0.5 517.5,-0.5"/>
<text text-anchor="middle" x="547.5" y="-31.3" font-family="Times,serif" font-size="14.00">Tag : 253</text>
<polyline fill="none" stroke="black" points="505.5,-23.5 589.5,-23.5 "/>
<text text-anchor="middle" x="547.5" y="-8.3" font-family="Times,serif" font-size="14.00">1.500000</text>
</g>
<!-- p12&#45;&gt;p13 -->
<g id="edge7" class="edge">
<title>p12:f1&#45;&gt;p13:head</title>
<path fill="none" stroke="black" d="M541.5,-116.5C541.5,-89.13 546.18,-80.08 547.27,-57.01"/>
<polygon fill="black" stroke="black" points="550.77,-57.08 547.5,-47 543.77,-56.92 550.77,-57.08"/>
</g>
<!-- p4 -->
<g id="node16" class="node">
<title>p4</title>
<path fill="lightblue" stroke="black" d="M611,-83.5C611,-83.5 652,-83.5 652,-83.5 658,-83.5 664,-89.5 664,-95.5 664,-95.5 664,-209.5 664,-209.5 664,-215.5 658,-221.5 652,-221.5 652,-221.5 611,-221.5 611,-221.5 605,-221.5 599,-215.5 599,-209.5 599,-209.5 599,-95.5 599,-95.5 599,-89.5 605,-83.5 611,-83.5"/>
<text text-anchor="middle" x="631.5" y="-206.3" font-family="Times,serif" font-size="14.00">Tag : 0</text>
<polyline fill="none" stroke="black" points="599,-198.5 664,-198.5 "/>
<text text-anchor="middle" x="631.5" y="-183.3" font-family="Times,serif" font-size="14.00">42</text>
<polyline fill="none" stroke="black" points="599,-175.5 664,-175.5 "/>
<text text-anchor="middle" x="631.5" y="-160.3" font-family="Times,serif" font-size="14.00">42</text>
<polyline fill="none" stroke="black" points="599,-152.5 664,-152.5 "/>
<text text-anchor="middle" x="631.5" y="-137.3" font-family="Times,serif" font-size="14.00">42</text>
<polyline fill="none" stroke="black" points="599,-129.5 664,-129.5 "/>
<text text-anchor="middle" x="631.5" y="-114.3" font-family="Times,serif" font-size="14.00">42</text>
<polyline fill="none" stroke="black" points="599,-106.5 664,-106.5 "/>
<text text-anchor="middle" x="631.5" y="-91.3" font-family="Times,serif" font-size="14.00">42</text>
</g>
<!-- p3&#45;&gt;p4 -->
<g id="edge11" class="edge">
<title>p3:f0&#45;&gt;p4:head</title>
<path fill="none" stroke="black" d="M680.5,-328C669.55,-328 675.55,-246.66 670.29,-219.33"/>
<polygon fill="black" stroke="black" points="673.35,-217.62 665.5,-210.5 667.19,-220.96 673.35,-217.62"/>
</g>
<!-- p5 -->
<g id="node17" class="node">
<title>p5</title>
<path fill="lightblue" stroke="black" d="M694,-83.5C694,-83.5 735,-83.5 735,-83.5 741,-83.5 747,-89.5 747,-95.5 747,-95.5 747,-209.5 747,-209.5 747,-215.5 741,-221.5 735,-221.5 735,-221.5 694,-221.5 694,-221.5 688,-221.5 682,-215.5 682,-209.5 682,-209.5 682,-95.5 682,-95.5 682,-89.5 688,-83.5 694,-83.5"/>
<text text-anchor="middle" x="714.5" y="-206.3" font-family="Times,serif" font-size="14.00">Tag : 0</text>
<polyline fill="none" stroke="black" points="682,-198.5 747,-198.5 "/>
<text text-anchor="middle" x="714.5" y="-183.3" font-family="Times,serif" font-size="14.00">42</text>
<polyline fill="none" stroke="black" points="682,-175.5 747,-175.5 "/>
<text text-anchor="middle" x="714.5" y="-160.3" font-family="Times,serif" font-size="14.00">42</text>
<polyline fill="none" stroke="black" points="682,-152.5 747,-152.5 "/>
<text text-anchor="middle" x="714.5" y="-137.3" font-family="Times,serif" font-size="14.00">42</text>
<polyline fill="none" stroke="black" points="682,-129.5 747,-129.5 "/>
<text text-anchor="middle" x="714.5" y="-114.3" font-family="Times,serif" font-size="14.00">42</text>
<polyline fill="none" stroke="black" points="682,-106.5 747,-106.5 "/>
<text text-anchor="middle" x="714.5" y="-91.3" font-family="Times,serif" font-size="14.00">42</text>
</g>
<!-- p3&#45;&gt;p5 -->
<g id="edge12" class="edge">
<title>p3:f1&#45;&gt;p5:head</title>
<path fill="none" stroke="black" d="M748.5,-304C763.84,-304 752.3,-284.07 747.5,-269.5 740.72,-248.9 721.89,-247.55 716.17,-232.19"/>
<polygon fill="black" stroke="black" points="719.57,-231.3 714.5,-222 712.66,-232.43 719.57,-231.3"/>
</g>
<!-- p6 -->
<g id="node18" class="node">
<title>p6</title>
<path fill="lightblue" stroke="black" d="M777,-83.5C777,-83.5 818,-83.5 818,-83.5 824,-83.5 830,-89.5 830,-95.5 830,-95.5 830,-209.5 830,-209.5 830,-215.5 824,-221.5 818,-221.5 818,-221.5 777,-221.5 777,-221.5 771,-221.5 765,-215.5 765,-209.5 765,-209.5 765,-95.5 765,-95.5 765,-89.5 771,-83.5 777,-83.5"/>
<text text-anchor="middle" x="797.5" y="-206.3" font-family="Times,serif" font-size="14.00">Tag : 0</text>
<polyline fill="none" stroke="black" points="765,-198.5 830,-198.5 "/>
<text text-anchor="middle" x="797.5" y="-183.3" font-family="Times,serif" font-size="14.00">42</text>
<polyline fill="none" stroke="black" points="765,-175.5 830,-175.5 "/>
<text text-anchor="middle" x="797.5" y="-160.3" font-family="Times,serif" font-size="14.00">42</text>
<polyline fill="none" stroke="black" points="765,-152.5 830,-152.5 "/>
<text text-anchor="middle" x="797.5" y="-137.3" font-family="Times,serif" font-size="14.00">42</text>
<polyline fill="none" stroke="black" points="765,-129.5 830,-129.5 "/>
<text text-anchor="middle" x="797.5" y="-114.3" font-family="Times,serif" font-size="14.00">42</text>
<polyline fill="none" stroke="black" points="765,-106.5 830,-106.5 "/>
<text text-anchor="middle" x="797.5" y="-91.3" font-family="Times,serif" font-size="14.00">42</text>
</g>
<!-- p3&#45;&gt;p6 -->
<g id="edge13" class="edge">
<title>p3:f2&#45;&gt;p6:head</title>
<path fill="none" stroke="black" d="M748.5,-281C761.2,-281 753.12,-236.67 757.22,-218.31"/>
<polygon fill="black" stroke="black" points="759.96,-220.49 763.5,-210.5 754.51,-216.1 759.96,-220.49"/>
</g>
<!-- p2 -->
<g id="node20" class="node">
<title>p2</title>
<path fill="lightblue" stroke="black" d="M968,-83.5C968,-83.5 1009,-83.5 1009,-83.5 1015,-83.5 1021,-89.5 1021,-95.5 1021,-95.5 1021,-209.5 1021,-209.5 1021,-215.5 1015,-221.5 1009,-221.5 1009,-221.5 968,-221.5 968,-221.5 962,-221.5 956,-215.5 956,-209.5 956,-209.5 956,-95.5 956,-95.5 956,-89.5 962,-83.5 968,-83.5"/>
<text text-anchor="middle" x="988.5" y="-206.3" font-family="Times,serif" font-size="14.00">Tag : 0</text>
<polyline fill="none" stroke="black" points="956,-198.5 1021,-198.5 "/>
<text text-anchor="middle" x="988.5" y="-183.3" font-family="Times,serif" font-size="14.00">42</text>
<polyline fill="none" stroke="black" points="956,-175.5 1021,-175.5 "/>
<text text-anchor="middle" x="988.5" y="-160.3" font-family="Times,serif" font-size="14.00">42</text>
<polyline fill="none" stroke="black" points="956,-152.5 1021,-152.5 "/>
<text text-anchor="middle" x="988.5" y="-137.3" font-family="Times,serif" font-size="14.00">42</text>
<polyline fill="none" stroke="black" points="956,-129.5 1021,-129.5 "/>
<text text-anchor="middle" x="988.5" y="-114.3" font-family="Times,serif" font-size="14.00">42</text>
<polyline fill="none" stroke="black" points="956,-106.5 1021,-106.5 "/>
<text text-anchor="middle" x="988.5" y="-91.3" font-family="Times,serif" font-size="14.00">42</text>
</g>
<!-- p1&#45;&gt;p2 -->
<g id="edge15" class="edge">
<title>p1:f0&#45;&gt;p2:head</title>
<path fill="none" stroke="black" d="M1022.5,-328C1048.5,-328 1029.49,-294.25 1021.5,-269.5 1014.84,-248.86 995.93,-247.53 990.18,-232.18"/>
<polygon fill="black" stroke="black" points="993.58,-231.3 988.5,-222 986.67,-232.44 993.58,-231.3"/>
</g>
<!-- p1&#45;&gt;p2 -->
<g id="edge16" class="edge">
<title>p1:f1&#45;&gt;p2:head</title>
<path fill="none" stroke="black" d="M1022.5,-304C1037.84,-304 1026.3,-284.07 1021.5,-269.5 1014.72,-248.9 995.89,-247.55 990.17,-232.19"/>
<polygon fill="black" stroke="black" points="993.57,-231.3 988.5,-222 986.66,-232.43 993.57,-231.3"/>
</g>
<!-- p1&#45;&gt;p2 -->
<g id="edge17" class="edge">
<title>p1:f2&#45;&gt;p2:head</title>
<path fill="none" stroke="black" d="M988.5,-269C988.5,-252.03 988.5,-245.4 988.5,-232.3"/>
<polygon fill="black" stroke="black" points="992,-232 988.5,-222 985,-232 992,-232"/>
</g>
</g>
</svg>
