<?xml version="1.0" encoding="UTF-8" standalone="no"?>
<!DOCTYPE svg PUBLIC "-//W3C//DTD SVG 1.1//EN"
 "http://www.w3.org/Graphics/SVG/1.1/DTD/svg11.dtd">
<!-- Generated by graphviz version 7.1.0 (0)
 -->
<!-- Title: g Pages: 1 -->
<svg width="737pt" height="396pt"
 viewBox="0.00 0.00 737.21 396.00" xmlns="http://www.w3.org/2000/svg" xmlns:xlink="http://www.w3.org/1999/xlink">
<g id="graph0" class="graph" transform="scale(1 1) rotate(0) translate(4 392)">
<title>g</title>
<!-- entry_5 -->
<g id="node1" class="node">
<title>entry_5</title>
<polygon fill="yellow" stroke="black" points="0,-341.5 0,-387.5 58,-387.5 58,-341.5 0,-341.5"/>
<text text-anchor="middle" x="29" y="-372.3" font-family="Times,serif" font-size="14.00">val : 13</text>
<polyline fill="none" stroke="black" points="0,-364.5 58,-364.5"/>
<text text-anchor="middle" x="29" y="-349.3" font-family="Times,serif" font-size="14.00">13</text>
</g>
<!-- entry_4 -->
<g id="node2" class="node">
<title>entry_4</title>
<polygon fill="yellow" stroke="black" points="76,-341.5 76,-387.5 144,-387.5 144,-341.5 76,-341.5"/>
<text text-anchor="middle" x="110" y="-372.3" font-family="Times,serif" font-size="14.00">val : 42.0</text>
<polyline fill="none" stroke="black" points="76,-364.5 144,-364.5"/>
<text text-anchor="middle" x="110" y="-349.3" font-family="Times,serif" font-size="14.00">.</text>
</g>
<!-- p1 -->
<g id="node15" class="node">
<title>p1</title>
<path fill="lightblue" stroke="black" d="M85,-235.5C85,-235.5 135,-235.5 135,-235.5 141,-235.5 147,-241.5 147,-247.5 147,-247.5 147,-269.5 147,-269.5 147,-275.5 141,-281.5 135,-281.5 135,-281.5 85,-281.5 85,-281.5 79,-281.5 73,-275.5 73,-269.5 73,-269.5 73,-247.5 73,-247.5 73,-241.5 79,-235.5 85,-235.5"/>
<text text-anchor="middle" x="110" y="-266.3" font-family="Times,serif" font-size="14.00">Tag : 253</text>
<polyline fill="none" stroke="black" points="73,-258.5 147,-258.5"/>
<text text-anchor="middle" x="110" y="-243.3" font-family="Times,serif" font-size="14.00">42.000000</text>
</g>
<!-- entry_4&#45;&gt;p1 -->
<g id="edge10" class="edge">
<title>entry_4&#45;&gt;p1:head</title>
<path fill="none" stroke="black" d="M110,-341.84C110,-328.46 110,-310.63 110,-293.56"/>
<polygon fill="black" stroke="black" points="113.5,-294.01 110,-284.01 106.5,-294.01 113.5,-294.01"/>
</g>
<!-- entry_3 -->
<g id="node3" class="node">
<title>entry_3</title>
<polygon fill="yellow" stroke="black" points="162.5,-341.5 162.5,-387.5 243.5,-387.5 243.5,-341.5 162.5,-341.5"/>
<text text-anchor="middle" x="203" y="-372.3" font-family="Times,serif" font-size="14.00">val : [1;2;3]</text>
<polyline fill="none" stroke="black" points="162.5,-364.5 243.5,-364.5"/>
<text text-anchor="middle" x="203" y="-349.3" font-family="Times,serif" font-size="14.00">.</text>
</g>
<!-- p2 -->
<g id="node12" class="node">
<title>p2</title>
<path fill="lightblue" stroke="black" d="M187,-224C187,-224 219,-224 219,-224 225,-224 231,-230 231,-236 231,-236 231,-281 231,-281 231,-287 225,-293 219,-293 219,-293 187,-293 187,-293 181,-293 175,-287 175,-281 175,-281 175,-236 175,-236 175,-230 181,-224 187,-224"/>
<text text-anchor="middle" x="203" y="-277.8" font-family="Times,serif" font-size="14.00">Tag : 0</text>
<polyline fill="none" stroke="black" points="175,-270 231,-270"/>
<text text-anchor="middle" x="203" y="-254.8" font-family="Times,serif" font-size="14.00">1</text>
<polyline fill="none" stroke="black" points="175,-247 231,-247"/>
<text text-anchor="middle" x="203" y="-231.8" font-family="Times,serif" font-size="14.00">.</text>
</g>
<!-- entry_3&#45;&gt;p2 -->
<g id="edge7" class="edge">
<title>entry_3&#45;&gt;p2:head</title>
<path fill="none" stroke="black" d="M203,-341.75C203,-331.35 203,-318.45 203,-305.87"/>
<polygon fill="black" stroke="black" points="206.5,-306.01 203,-296.01 199.5,-306.01 206.5,-306.01"/>
</g>
<!-- entry_2 -->
<g id="node4" class="node">
<title>entry_2</title>
<polygon fill="yellow" stroke="black" points="261.5,-341.5 261.5,-387.5 348.5,-387.5 348.5,-341.5 261.5,-341.5"/>
<text text-anchor="middle" x="305" y="-372.3" font-family="Times,serif" font-size="14.00">val : [|1;2;3|]</text>
<polyline fill="none" stroke="black" points="261.5,-364.5 348.5,-364.5"/>
<text text-anchor="middle" x="305" y="-349.3" font-family="Times,serif" font-size="14.00">.</text>
</g>
<!-- p5 -->
<g id="node11" class="node">
<title>p5</title>
<path fill="lightblue" stroke="black" d="M289,-212.5C289,-212.5 321,-212.5 321,-212.5 327,-212.5 333,-218.5 333,-224.5 333,-224.5 333,-292.5 333,-292.5 333,-298.5 327,-304.5 321,-304.5 321,-304.5 289,-304.5 289,-304.5 283,-304.5 277,-298.5 277,-292.5 277,-292.5 277,-224.5 277,-224.5 277,-218.5 283,-212.5 289,-212.5"/>
<text text-anchor="middle" x="305" y="-289.3" font-family="Times,serif" font-size="14.00">Tag : 0</text>
<polyline fill="none" stroke="black" points="277,-281.5 333,-281.5"/>
<text text-anchor="middle" x="305" y="-266.3" font-family="Times,serif" font-size="14.00">1</text>
<polyline fill="none" stroke="black" points="277,-258.5 333,-258.5"/>
<text text-anchor="middle" x="305" y="-243.3" font-family="Times,serif" font-size="14.00">2</text>
<polyline fill="none" stroke="black" points="277,-235.5 333,-235.5"/>
<text text-anchor="middle" x="305" y="-220.3" font-family="Times,serif" font-size="14.00">3</text>
</g>
<!-- entry_2&#45;&gt;p5 -->
<g id="edge6" class="edge">
<title>entry_2&#45;&gt;p5:head</title>
<path fill="none" stroke="black" d="M305,-341.55C305,-333.92 305,-325.07 305,-316.33"/>
<polygon fill="black" stroke="black" points="308.5,-316.51 305,-306.51 301.5,-316.51 308.5,-316.51"/>
</g>
<!-- entry_1 -->
<g id="node5" class="node">
<title>entry_1</title>
<polygon fill="yellow" stroke="black" points="367,-341.5 367,-387.5 507,-387.5 507,-341.5 367,-341.5"/>
<text text-anchor="middle" x="437" y="-372.3" font-family="Times,serif" font-size="14.00">val : [|1.0;2.0;3.0;4.0|]</text>
<polyline fill="none" stroke="black" points="367,-364.5 507,-364.5"/>
<text text-anchor="middle" x="437" y="-349.3" font-family="Times,serif" font-size="14.00">.</text>
</g>
<!-- p6 -->
<g id="node10" class="node">
<title>p6</title>
<path fill="lightblue" stroke="black" d="M414.5,-212.5C414.5,-212.5 459.5,-212.5 459.5,-212.5 465.5,-212.5 471.5,-218.5 471.5,-224.5 471.5,-224.5 471.5,-292.5 471.5,-292.5 471.5,-298.5 465.5,-304.5 459.5,-304.5 459.5,-304.5 414.5,-304.5 414.5,-304.5 408.5,-304.5 402.5,-298.5 402.5,-292.5 402.5,-292.5 402.5,-224.5 402.5,-224.5 402.5,-218.5 408.5,-212.5 414.5,-212.5"/>
<text text-anchor="middle" x="437" y="-289.3" font-family="Times,serif" font-size="14.00">Tag : 254</text>
<polyline fill="none" stroke="black" points="402.5,-281.5 471.5,-281.5"/>
<text text-anchor="middle" x="437" y="-266.3" font-family="Times,serif" font-size="14.00">1.000000</text>
<polyline fill="none" stroke="black" points="402.5,-258.5 471.5,-258.5"/>
<text text-anchor="middle" x="437" y="-243.3" font-family="Times,serif" font-size="14.00">2.000000</text>
<polyline fill="none" stroke="black" points="402.5,-235.5 471.5,-235.5"/>
<text text-anchor="middle" x="437" y="-220.3" font-family="Times,serif" font-size="14.00">3.000000</text>
</g>
<!-- entry_1&#45;&gt;p6 -->
<g id="edge5" class="edge">
<title>entry_1&#45;&gt;p6:head</title>
<path fill="none" stroke="black" d="M437,-341.55C437,-333.92 437,-325.07 437,-316.33"/>
<polygon fill="black" stroke="black" points="440.5,-316.51 437,-306.51 433.5,-316.51 440.5,-316.51"/>
</g>
<!-- entry_0 -->
<g id="node6" class="node">
<title>entry_0</title>
<polygon fill="yellow" stroke="black" points="525,-341.5 525,-387.5 695,-387.5 695,-341.5 525,-341.5"/>
<text text-anchor="middle" x="610" y="-372.3" font-family="Times,serif" font-size="14.00">val : let rec l = 1 :: 2 :: 3 :: l</text>
<polyline fill="none" stroke="black" points="525,-364.5 695,-364.5"/>
<text text-anchor="middle" x="610" y="-349.3" font-family="Times,serif" font-size="14.00">.</text>
</g>
<!-- p7 -->
<g id="node7" class="node">
<title>p7</title>
<path fill="lightblue" stroke="black" d="M594,-224C594,-224 626,-224 626,-224 632,-224 638,-230 638,-236 638,-236 638,-281 638,-281 638,-287 632,-293 626,-293 626,-293 594,-293 594,-293 588,-293 582,-287 582,-281 582,-281 582,-236 582,-236 582,-230 588,-224 594,-224"/>
<text text-anchor="middle" x="610" y="-277.8" font-family="Times,serif" font-size="14.00">Tag : 0</text>
<polyline fill="none" stroke="black" points="582,-270 638,-270"/>
<text text-anchor="middle" x="610" y="-254.8" font-family="Times,serif" font-size="14.00">1</text>
<polyline fill="none" stroke="black" points="582,-247 638,-247"/>
<text text-anchor="middle" x="610" y="-231.8" font-family="Times,serif" font-size="14.00">.</text>
</g>
<!-- entry_0&#45;&gt;p7 -->
<g id="edge1" class="edge">
<title>entry_0&#45;&gt;p7:head</title>
<path fill="none" stroke="black" d="M610,-341.75C610,-331.35 610,-318.45 610,-305.87"/>
<polygon fill="black" stroke="black" points="613.5,-306.01 610,-296.01 606.5,-306.01 613.5,-306.01"/>
</g>
<!-- p8 -->
<g id="node8" class="node">
<title>p8</title>
<path fill="lightblue" stroke="black" d="M566,-106.5C566,-106.5 598,-106.5 598,-106.5 604,-106.5 610,-112.5 610,-118.5 610,-118.5 610,-163.5 610,-163.5 610,-169.5 604,-175.5 598,-175.5 598,-175.5 566,-175.5 566,-175.5 560,-175.5 554,-169.5 554,-163.5 554,-163.5 554,-118.5 554,-118.5 554,-112.5 560,-106.5 566,-106.5"/>
<text text-anchor="middle" x="582" y="-160.3" font-family="Times,serif" font-size="14.00">Tag : 0</text>
<polyline fill="none" stroke="black" points="554,-152.5 610,-152.5"/>
<text text-anchor="middle" x="582" y="-137.3" font-family="Times,serif" font-size="14.00">2</text>
<polyline fill="none" stroke="black" points="554,-129.5 610,-129.5"/>
<text text-anchor="middle" x="582" y="-114.3" font-family="Times,serif" font-size="14.00">.</text>
</g>
<!-- p7&#45;&gt;p8 -->
<g id="edge2" class="edge">
<title>p7:f1&#45;&gt;p8:head</title>
<path fill="none" stroke="black" d="M610,-222.5C610,-202.9 591.52,-200.38 584.58,-187.18"/>
<polygon fill="black" stroke="black" points="588,-186.43 582.34,-177.47 581.18,-188.01 588,-186.43"/>
</g>
<!-- p9 -->
<g id="node9" class="node">
<title>p9</title>
<path fill="lightblue" stroke="black" d="M594,-0.5C594,-0.5 626,-0.5 626,-0.5 632,-0.5 638,-6.5 638,-12.5 638,-12.5 638,-57.5 638,-57.5 638,-63.5 632,-69.5 626,-69.5 626,-69.5 594,-69.5 594,-69.5 588,-69.5 582,-63.5 582,-57.5 582,-57.5 582,-12.5 582,-12.5 582,-6.5 588,-0.5 594,-0.5"/>
<text text-anchor="middle" x="610" y="-54.3" font-family="Times,serif" font-size="14.00">Tag : 0</text>
<polyline fill="none" stroke="black" points="582,-46.5 638,-46.5"/>
<text text-anchor="middle" x="610" y="-31.3" font-family="Times,serif" font-size="14.00">3</text>
<polyline fill="none" stroke="black" points="582,-23.5 638,-23.5"/>
<text text-anchor="middle" x="610" y="-8.3" font-family="Times,serif" font-size="14.00">.</text>
</g>
<!-- p8&#45;&gt;p9 -->
<g id="edge3" class="edge">
<title>p8:f1&#45;&gt;p9:head</title>
<path fill="none" stroke="black" d="M582,-106C582,-90.48 598.41,-89.5 606.11,-80.8"/>
<polygon fill="black" stroke="black" points="609.39,-82.02 609.49,-71.42 602.8,-79.64 609.39,-82.02"/>
</g>
<!-- p9&#45;&gt;p7 -->
<g id="edge4" class="edge">
<title>p9:f1&#45;&gt;p7:head</title>
<path fill="none" stroke="black" d="M639,-12C754.92,-12 758.65,-264.41 650.21,-280.68"/>
<polygon fill="black" stroke="black" points="650.23,-277.17 640.51,-281.39 650.74,-284.15 650.23,-277.17"/>
</g>
<!-- p3 -->
<g id="node13" class="node">
<title>p3</title>
<path fill="lightblue" stroke="black" d="M187,-106.5C187,-106.5 219,-106.5 219,-106.5 225,-106.5 231,-112.5 231,-118.5 231,-118.5 231,-163.5 231,-163.5 231,-169.5 225,-175.5 219,-175.5 219,-175.5 187,-175.5 187,-175.5 181,-175.5 175,-169.5 175,-163.5 175,-163.5 175,-118.5 175,-118.5 175,-112.5 181,-106.5 187,-106.5"/>
<text text-anchor="middle" x="203" y="-160.3" font-family="Times,serif" font-size="14.00">Tag : 0</text>
<polyline fill="none" stroke="black" points="175,-152.5 231,-152.5"/>
<text text-anchor="middle" x="203" y="-137.3" font-family="Times,serif" font-size="14.00">2</text>
<polyline fill="none" stroke="black" points="175,-129.5 231,-129.5"/>
<text text-anchor="middle" x="203" y="-114.3" font-family="Times,serif" font-size="14.00">.</text>
</g>
<!-- p2&#45;&gt;p3 -->
<g id="edge8" class="edge">
<title>p2:f1&#45;&gt;p3:head</title>
<path fill="none" stroke="black" d="M203,-222.5C203,-206.19 203,-199.54 203,-187.3"/>
<polygon fill="black" stroke="black" points="206.5,-187.51 203,-177.51 199.5,-187.51 206.5,-187.51"/>
</g>
<!-- p4 -->
<g id="node14" class="node">
<title>p4</title>
<path fill="lightblue" stroke="black" d="M187,-0.5C187,-0.5 219,-0.5 219,-0.5 225,-0.5 231,-6.5 231,-12.5 231,-12.5 231,-57.5 231,-57.5 231,-63.5 225,-69.5 219,-69.5 219,-69.5 187,-69.5 187,-69.5 181,-69.5 175,-63.5 175,-57.5 175,-57.5 175,-12.5 175,-12.5 175,-6.5 181,-0.5 187,-0.5"/>
<text text-anchor="middle" x="203" y="-54.3" font-family="Times,serif" font-size="14.00">Tag : 0</text>
<polyline fill="none" stroke="black" points="175,-46.5 231,-46.5"/>
<text text-anchor="middle" x="203" y="-31.3" font-family="Times,serif" font-size="14.00">3</text>
<polyline fill="none" stroke="black" points="175,-23.5 231,-23.5"/>
<text text-anchor="middle" x="203" y="-8.3" font-family="Times,serif" font-size="14.00">0</text>
</g>
<!-- p3&#45;&gt;p4 -->
<g id="edge9" class="edge">
<title>p3:f1&#45;&gt;p4:head</title>
<path fill="none" stroke="black" d="M203,-106C203,-94.62 203,-89.32 203,-81.45"/>
<polygon fill="black" stroke="black" points="206.5,-81.51 203,-71.51 199.5,-81.51 206.5,-81.51"/>
</g>
</g>
</svg>
